<svg width="1920" height="398" viewBox="0 0 1920 398" fill="none" xmlns="http://www.w3.org/2000/svg">
<g clip-path="url(#clip0_503_57023)">
<rect width="1920" height="398" fill="black"/>
<g opacity="0.1" clip-path="url(#clip1_503_57023)">
<path d="M-92.4437 259.821C-86.0753 119.715 3.53779 17.3647 75.4102 -64.9702L80.414 -70.8837C88.602 -79.5266 108.162 -103.181 106.343 -131.384C105.433 -148.67 96.79 -164.136 80.8689 -177.783C71.3162 -185.971 62.6734 -193.704 54.0305 -200.527C16.7296 -232.369 -12.3833 -257.843 -57.8722 -289.23C-74.7031 -300.603 -91.0791 -311.52 -107 -321.982V-320.163C-91.0791 -310.155 -75.158 -299.238 -58.782 -287.866C-13.2931 -256.478 16.2747 -231.005 53.1207 -199.162C61.3087 -191.884 70.4064 -184.151 79.9591 -176.418C95.4253 -163.226 104.068 -147.76 104.978 -130.929C106.343 -103.181 87.6922 -79.9815 79.0494 -71.3386L74.0456 -65.4251C2.17313 16.9098 -87.44 119.26 -94.2633 260.275C-95.1731 275.287 -100.632 284.385 -107.455 287.569V289.388C-99.722 285.749 -93.3535 276.651 -92.4437 259.821Z" fill="white"/>
<path d="M-60.6013 261.185C-54.6878 131.997 30.8313 34.1958 99.5195 -44.0451L104.523 -49.9587C119.08 -66.3347 130.452 -80.8911 139.095 -93.1732C149.557 -108.639 169.572 -136.843 122.719 -182.331C72.2262 -231.005 17.6395 -276.039 -39.6764 -315.614C-62.8758 -331.99 -85.6202 -346.546 -107 -359.283V-357.464C-85.6202 -344.272 -63.7856 -330.17 -40.5862 -314.249C16.7298 -274.674 71.3164 -229.64 121.809 -180.967C167.753 -136.388 148.648 -108.639 138.185 -93.6281C129.542 -81.3461 118.17 -66.7896 103.614 -50.4136L98.6098 -44.5001C29.4667 33.7408 -56.0524 131.542 -61.966 261.185C-64.6953 321.231 -75.6127 356.257 -95.6278 371.268C-99.7218 374.453 -103.361 375.817 -107 376.272V377.637C-103.361 377.182 -99.2669 375.817 -94.718 372.178C-74.248 357.167 -63.3307 321.686 -60.6013 261.185Z" fill="white"/>
<path d="M-95.1729 55.1208C-82.8909 33.741 -66.9698 14.1808 -51.5036 -4.92453C-29.214 -32.2178 -6.46957 -60.421 5.81244 -94.9925C27.6471 -155.948 -15.1124 -184.151 -60.1464 -214.173C-64.2404 -216.903 -68.3344 -219.632 -72.8833 -222.361C-80.1616 -227.365 -87.4398 -232.369 -94.2631 -236.918C-97.4473 -239.192 -101.996 -242.377 -107 -246.016V-244.196C-101.996 -240.557 -98.3571 -237.828 -95.1729 -235.553C-88.3496 -230.549 -81.0713 -226.001 -73.7931 -220.997C-69.6991 -218.267 -65.6051 -215.538 -61.0562 -212.809C-16.4771 -183.241 25.8275 -155.038 4.44777 -94.9925C-7.83423 -60.421 -30.5787 -32.2178 -52.8682 -5.37938C-68.3344 13.726 -84.2556 33.2862 -96.5376 54.666C-100.177 61.0344 -103.816 69.6773 -107 78.3202V81.9593C-106.545 81.0495 -106.09 80.1397 -106.09 79.2299C-102.451 70.1321 -98.812 61.9441 -95.1729 55.1208Z" fill="white"/>
<path d="M15.82 -44.9556C17.6395 -47.2301 19.914 -49.9594 22.1884 -52.2338C51.3013 -86.8054 81.7789 -122.287 47.2073 -165.046C20.3689 -197.798 -19.6613 -225.092 -55.1427 -249.201C-62.4209 -254.204 -69.2442 -258.753 -76.0676 -263.757C-80.6164 -266.941 -86.9849 -271.49 -94.2631 -276.949C-97.9022 -279.223 -102.451 -282.408 -107 -285.592V-283.772C-102.906 -280.588 -98.812 -277.859 -94.718 -275.129C-87.4398 -269.671 -81.5262 -265.122 -76.5224 -261.938C-69.6991 -257.389 -62.8758 -252.385 -55.5976 -247.381C-20.1162 -223.272 19.914 -196.434 46.2975 -163.682C79.9593 -121.832 49.9367 -86.8054 21.2787 -52.6887C19.0042 -50.4143 17.1847 -47.6849 14.9102 -45.4105C-10.5636 -14.9329 -42.8607 25.5522 -68.7893 70.5862C-84.2556 97.8795 -97.4473 126.992 -107 156.56V161.109C-96.9924 130.177 -83.8007 100.154 -67.4247 71.4959C-41.9509 26.007 -9.65378 -14.4781 15.82 -44.9556Z" fill="white"/>
<path d="M323.325 23.2788C321.051 26.9179 318.776 30.557 316.957 33.2864C293.757 65.5835 266.919 94.6963 235.986 126.084C231.892 130.178 227.798 134.726 223.249 138.82C197.776 164.294 171.847 190.678 155.926 222.065C150.012 234.347 148.193 243.445 150.467 249.359C151.832 252.088 153.651 253.907 156.381 254.362C157.745 254.817 158.655 254.817 160.02 254.817C165.479 254.817 173.212 252.088 181.4 247.084C198.231 237.077 214.152 224.34 229.618 212.058C242.355 202.05 255.547 191.588 268.738 182.945C323.325 147.009 359.261 122.899 376.092 55.5759C379.731 41.4743 381.551 9.6321 370.633 -4.01456C366.994 -8.56345 361.991 -10.8379 356.077 -10.8379C343.34 -9.92811 331.968 9.17722 323.325 23.2788ZM358.351 -9.01829C363.355 -9.01829 367.449 -6.74388 370.633 -2.64988C381.096 10.9968 379.276 41.9292 375.637 55.5759C358.806 122.445 323.325 146.099 268.738 182.035C255.092 191.133 241.9 201.14 229.618 211.148C214.152 223.43 198.231 235.712 181.4 246.174C171.392 252.543 162.294 254.817 157.291 253.453C155.016 252.543 153.197 251.178 152.287 248.904C150.012 243.445 151.832 234.347 157.745 222.52C173.212 191.588 199.595 165.204 224.614 139.73C228.708 135.181 233.257 131.087 237.351 126.993C267.829 95.6062 295.122 66.4932 318.321 34.1961C320.141 31.4668 322.415 27.8277 324.69 24.1886C332.878 10.5419 344.25 -8.10856 357.442 -8.56345C357.897 -9.01834 357.897 -9.01829 358.351 -9.01829Z" fill="white"/>
<path d="M-28.3042 263.005C-22.8456 145.188 58.5795 52.3911 123.629 -22.6656L128.632 -28.5792C206.418 -117.283 203.234 -148.67 166.843 -184.606C126.813 -224.181 64.0382 -283.317 -21.4809 -342.453C-50.5938 -362.468 -79.2518 -381.118 -107 -397.494V-394.765C-79.7067 -378.389 -51.5036 -360.193 -22.8456 -340.633C62.2186 -281.497 124.993 -222.362 165.023 -183.241C200.505 -148.215 203.234 -118.192 126.813 -30.3987L121.809 -24.4852C56.3051 50.5715 -25.12 143.824 -30.5787 262.55C-36.0373 373.998 -77.8871 406.75 -107 415.847V418.122C-76.9773 409.479 -33.7629 376.272 -28.3042 263.005Z" fill="white"/>
<path d="M351.072 -52.6874C331.057 -47.6836 313.771 -19.9354 299.67 1.89928C294.666 9.63239 290.117 16.9106 286.023 22.3693C263.279 51.4822 237.805 77.8657 213.241 103.34C206.873 110.163 198.685 117.441 190.042 125.174C164.568 148.828 133.181 177.941 123.628 204.78C115.44 227.524 120.444 248.904 124.993 269.374C128.632 286.205 132.726 303.946 129.541 322.596C127.722 333.968 120.899 345.34 113.62 357.167C104.977 371.269 95.8797 385.826 95.4248 401.747C95.4248 407.205 95.8797 412.209 97.6992 417.668C103.613 434.499 109.981 442.232 117.259 442.232C124.538 442.232 132.726 434.499 144.553 415.848C155.925 398.108 160.474 377.183 164.568 357.167C169.117 337.152 173.211 316.227 185.038 298.032C206.873 263.46 245.538 238.442 279.2 215.697C281.929 213.878 285.113 212.058 287.843 210.238C344.249 172.938 388.828 143.37 408.388 63.7642C413.847 42.8393 412.482 -10.8376 390.648 -38.131C380.64 -51.7776 366.993 -56.3265 351.072 -52.6874ZM389.283 -36.7663C408.388 -12.2023 412.482 39.6551 406.569 63.3093C387.009 142.005 342.884 171.118 286.933 208.419C284.204 210.238 281.474 212.058 278.29 213.877C244.173 236.167 205.508 261.641 183.218 296.667C171.391 314.863 166.842 336.243 162.748 356.713C158.654 376.728 154.105 397.198 142.733 414.938C135 427.675 125.447 440.412 117.259 440.412C110.891 440.412 105.432 432.679 99.5188 417.213C97.6993 412.209 96.7895 407.66 97.2444 402.202C97.6993 387.19 106.797 372.634 114.985 358.532C122.263 346.705 129.541 335.333 131.361 323.506C134.545 304.855 130.451 287.115 126.812 269.829C122.263 248.449 117.714 228.434 125.447 206.144C135 179.761 166.387 150.648 191.406 127.449C200.049 119.715 208.237 111.982 214.606 105.159C239.17 79.6853 264.643 53.3018 287.388 24.1889C291.482 18.7302 296.031 11.452 301.035 3.71888C314.681 -18.1158 331.967 -45.4091 351.072 -49.958C354.711 -50.8678 357.896 -51.3227 361.08 -51.3227C372.452 -51.7776 381.55 -46.7738 389.283 -36.7663Z" fill="white"/>
<path d="M371.998 -151.4C361.08 -166.866 351.528 -169.141 341.975 -170.96C335.152 -172.325 327.874 -174.145 319.686 -180.058L319.231 -180.968C296.031 -206.897 218.245 -291.506 191.862 -291.506C188.677 -291.506 186.403 -290.596 184.583 -288.322C180.944 -283.773 181.399 -274.675 185.038 -260.118C187.313 -251.476 209.602 -239.648 232.802 -227.366C252.362 -216.904 272.377 -205.987 279.2 -198.254C285.114 -190.975 293.302 -180.968 292.847 -177.329C292.847 -176.419 291.482 -175.964 289.663 -175.054C285.569 -173.235 279.655 -170.05 282.839 -155.494C285.114 -145.486 291.027 -135.934 297.396 -126.381C302.855 -117.283 308.313 -109.095 310.133 -100.907C316.046 -78.6178 279.2 -37.6778 255.091 -10.3845C246.903 -1.28671 240.08 6.44638 235.986 12.36C218.245 36.0142 196.411 57.394 175.031 78.3188C133.636 119.259 90.8764 161.564 75.8651 219.789C52.2108 307.128 47.662 384.004 61.3086 448.598C68.5868 483.17 93.6057 530.933 118.17 530.933C133.181 530.933 144.553 512.738 150.922 476.802C176.396 338.515 245.994 292.571 312.862 247.992C372.453 208.417 428.859 171.116 452.968 74.6797C462.066 38.2886 447.964 -18.1176 429.769 -49.05C421.581 -62.6967 411.573 -70.8847 401.566 -78.1629C392.923 -84.9863 384.735 -90.8998 378.366 -100.907C373.817 -108.186 374.727 -116.374 375.637 -125.016C376.547 -134.114 377.456 -143.212 371.998 -151.4ZM375.637 -99.5428C382.46 -89.0803 390.648 -82.7118 399.746 -75.8885C409.299 -68.6102 419.306 -60.8772 427.039 -47.6854C444.78 -17.2078 458.882 37.8337 449.784 73.77C425.675 169.297 370.178 206.143 311.043 245.263C243.264 290.297 173.211 336.696 147.738 476.347C141.369 510.008 131.362 527.749 118.17 527.749C97.6997 527.749 72.226 484.535 64.4928 447.689C50.8462 383.549 55.3951 307.128 77.6846 220.699C92.6959 163.383 135.001 121.533 175.941 80.5933C197.32 59.6684 219.61 37.8337 237.351 14.1795C241.445 8.26593 248.723 0.532837 256.456 -8.11005C282.84 -37.6778 318.321 -77.7081 312.407 -101.817C310.133 -110.46 304.674 -119.103 299.216 -128.201C293.302 -137.298 287.388 -147.306 285.114 -156.404C282.385 -168.231 286.479 -170.505 290.573 -172.325C292.847 -173.235 294.667 -174.599 295.122 -176.874C296.031 -180.058 293.757 -185.517 281.02 -200.528C273.742 -209.171 253.272 -220.088 233.712 -230.551C213.242 -241.468 189.587 -254.205 187.768 -261.483C183.219 -277.859 184.583 -284.228 186.858 -286.957C187.768 -288.322 189.587 -288.776 191.407 -288.776C211.422 -288.776 269.193 -232.37 316.501 -179.148C316.956 -178.693 317.411 -178.238 317.411 -178.238C326.509 -171.415 334.242 -170.05 341.065 -168.231C350.618 -165.956 359.261 -164.137 369.268 -149.581C374.272 -142.757 373.362 -134.114 372.453 -125.471C371.543 -116.374 370.633 -107.276 375.637 -99.5428Z" fill="white"/>
<path d="M-107 -446.622C46.2974 -359.739 211.877 -221.907 241.9 -153.219C260.095 -111.824 215.971 -62.6962 160.474 -0.376434C97.2449 70.5862 19.004 158.835 14.0003 264.369C8.0867 393.557 -56.0526 446.324 -107.455 462.246V465.43C-55.1429 449.509 10.816 395.832 16.7296 264.369C21.7334 159.744 99.5193 71.9509 162.294 1.44318C218.7 -61.7864 262.824 -111.824 244.174 -154.584C214.606 -223.272 47.662 -362.923 -107 -449.807V-446.622Z" fill="white"/>
<path d="M334.697 66.0371C327.874 66.0371 321.505 74.225 316.501 80.1386C315.592 81.5033 314.682 82.4131 313.772 83.3229C309.223 88.3266 305.129 93.7853 300.58 99.2439C297.851 102.428 295.122 106.067 292.392 109.251L291.937 109.706C282.84 120.624 279.2 127.447 280.565 131.086C281.02 131.996 281.93 133.361 284.204 133.815C284.659 133.815 285.114 133.815 285.114 133.815C303.31 133.361 317.866 116.984 325.144 106.977C331.968 97.4243 336.971 87.4168 338.336 79.2288C338.791 77.4093 339.701 70.586 337.426 67.4018C337.426 66.492 336.062 66.0371 334.697 66.0371ZM337.426 79.2288C335.607 86.9619 331.058 96.9695 324.234 106.067C317.411 115.62 303.31 131.541 286.024 131.996V133.361V131.996C285.569 131.996 285.569 131.996 285.114 131.996C283.294 131.996 283.294 131.086 283.294 131.086C282.84 129.721 282.84 125.627 294.212 111.981L294.667 111.526C297.396 108.342 300.125 104.703 302.855 101.518C306.949 96.5146 311.498 91.056 316.046 85.5973C316.956 84.6875 317.866 83.3228 318.776 81.9582C322.87 76.4995 329.238 68.7664 335.152 68.7664C336.062 68.7664 336.971 69.2213 337.426 69.6762C338.336 71.0409 337.881 75.5897 337.426 79.2288Z" fill="white"/>
<path d="M814.605 526.84C875.105 520.017 939.699 449.964 940.609 390.829C941.974 299.851 889.661 227.523 839.169 157.471C830.526 145.643 821.883 133.361 813.24 121.079L808.236 113.801C784.582 79.6845 757.743 40.5641 748.646 -1.28571C741.367 -36.767 729.995 -119.557 742.277 -148.215C751.375 -169.14 776.849 -180.967 801.868 -192.794C819.154 -200.982 835.529 -208.26 846.902 -218.723L847.357 -219.177C886.477 -254.659 886.477 -254.659 912.861 -255.569C921.049 -256.023 931.056 -256.023 945.158 -257.388C964.263 -259.208 975.18 -261.937 983.368 -263.757C988.372 -265.121 992.466 -266.031 995.65 -266.031C1003.84 -266.031 1010.66 -260.117 1033.41 -241.012C1100.73 -184.151 1099.37 -85.4402 1098 10.0865C1096.64 130.177 1094.82 254.817 1230.83 293.937C1250.39 299.396 1269.49 302.58 1287.69 302.58C1338.64 302.58 1382.31 279.836 1413.69 236.621C1459.64 173.392 1471.92 74.2259 1444.17 -9.92859C1380.03 -203.711 1227.19 -314.249 1062.52 -419.783C912.861 -515.765 770.48 -542.149 649.025 -559.434C640.382 -560.799 631.739 -561.254 624.006 -561.254C574.423 -561.254 551.224 -536.235 521.656 -504.393C510.284 -492.111 498.457 -479.829 483.9 -466.637C467.069 -452.081 445.69 -442.073 425.22 -432.065C391.558 -416.144 360.171 -401.133 346.979 -367.926C319.231 -297.418 387.464 -241.922 447.509 -193.249C475.257 -170.959 501.641 -149.579 517.107 -128.2C578.517 -44.0452 559.867 98.335 504.37 177.94C487.085 202.959 453.878 233.892 418.851 266.189C360.625 320.321 294.667 381.276 282.839 433.133C277.381 457.242 278.745 474.073 287.388 484.99C294.212 493.633 306.494 498.182 323.779 498.182C352.437 498.182 393.377 486.355 436.592 474.073C489.814 458.607 549.859 441.321 600.807 441.321C625.371 441.321 645.386 444.96 662.672 453.148C682.232 462.246 699.063 474.983 715.439 487.72C742.277 508.645 767.296 528.205 802.777 528.205C806.871 527.295 810.511 527.295 814.605 526.84ZM663.581 450.419C646.296 442.686 625.371 438.592 600.807 438.592C549.404 438.592 488.904 455.878 435.682 471.344C392.468 483.626 351.528 495.453 323.325 495.453C306.494 495.453 295.576 491.359 288.753 483.171C280.565 473.163 279.655 456.787 284.659 433.588C296.031 382.641 361.99 321.685 419.761 268.009C454.787 235.257 488.449 204.324 505.735 179.305C561.686 98.7899 579.882 -44.5001 518.472 -129.564C503.006 -150.944 476.622 -172.324 448.419 -195.068C388.829 -243.287 321.05 -297.873 348.343 -367.016C361.08 -399.313 392.468 -414.325 425.675 -429.791C446.599 -439.799 467.979 -449.806 484.81 -464.817C499.367 -477.554 511.194 -490.291 522.566 -502.573C551.679 -533.961 574.878 -558.525 623.551 -558.525C631.284 -558.525 639.472 -558.07 648.115 -556.705C769.571 -539.419 911.951 -513.036 1060.7 -417.509C1224.91 -312.43 1377.3 -201.892 1440.99 -8.56396C1468.28 74.6807 1456.45 172.937 1410.96 235.711C1380.03 278.471 1337.27 300.76 1286.78 300.76C1269.04 300.76 1249.93 298.031 1230.83 292.118C1170.33 274.832 1132.57 238.896 1114.38 182.489C1098 131.997 1098.91 70.1318 1099.82 10.0865C1101.18 -85.8951 1102.09 -185.516 1034.32 -242.832C1002.02 -270.125 1001.11 -270.58 982.459 -266.031C974.271 -264.211 963.353 -261.482 944.248 -259.663C930.146 -258.298 920.139 -257.843 912.406 -257.843C885.112 -256.933 885.112 -256.933 845.082 -220.997L844.627 -220.542C833.255 -210.535 817.334 -202.802 800.503 -195.068C775.029 -183.241 749.101 -170.959 739.548 -149.58C726.811 -120.467 738.183 -37.2219 745.916 -1.28571C754.559 41.0189 781.853 80.1394 805.507 114.256L810.511 121.534C818.699 133.816 827.796 146.098 836.439 157.925C886.932 227.978 938.789 299.851 937.425 389.919C936.515 448.145 872.83 516.833 813.695 523.656C810.056 524.111 805.962 524.111 802.323 524.111C767.296 524.111 742.732 504.551 716.349 484.081C700.427 472.709 683.597 459.517 663.581 450.419Z" fill="white"/>
<path d="M1915.44 -224.637C1905.43 -231.915 1895.42 -240.103 1884.96 -248.746C1852.66 -275.13 1815.82 -305.152 1782.61 -305.152C1776.24 -305.152 1769.87 -303.788 1763.5 -301.513C1705.28 -279.679 1713.46 -217.814 1723.93 -182.787C1730.3 -161.407 1738.03 -140.483 1745.76 -120.013C1754.86 -96.3583 1764.41 -71.7943 1770.78 -46.7754C1774.87 -31.7641 1776.69 -15.843 1778.51 -0.37674C1784.43 46.4768 1789.89 91.056 1852.66 91.056C1857.66 91.056 1863.12 90.6011 1868.58 90.1462C1875.86 89.2364 1881.77 88.3266 1886.78 86.5071C1903.61 81.0484 1908.61 71.0408 1915.89 55.5746C1918.17 51.0257 1920.89 45.5671 1924.08 40.1084C1929.08 31.4655 1934.54 23.2775 1940 15.0895V12.8151C1934.09 21.458 1928.17 30.1008 1922.71 39.1986C1919.53 45.1122 1916.8 50.116 1914.53 54.6649C1907.25 69.6762 1902.24 79.6837 1885.87 84.6875C1880.86 86.0522 1875.41 87.4169 1868.13 87.8718C1862.67 88.3267 1857.21 88.7815 1852.21 88.7815C1790.8 88.7815 1785.34 46.9317 1779.42 -1.74142C1777.6 -17.2076 1775.33 -33.1288 1771.69 -48.1401C1765.32 -73.159 1755.77 -97.7229 1746.67 -121.377C1738.94 -141.847 1730.75 -162.772 1724.84 -183.697C1714.83 -218.269 1706.64 -278.769 1763.96 -300.603C1769.87 -302.878 1776.24 -303.788 1782.61 -303.788C1815.36 -303.788 1851.75 -273.765 1884.05 -247.836C1894.51 -239.193 1904.52 -231.005 1914.98 -223.727C1922.71 -218.269 1929.08 -213.265 1934.09 -209.626C1935.91 -208.261 1938.18 -206.896 1940.45 -205.532V-207.351C1938.64 -208.716 1936.82 -209.626 1935 -210.99C1929.54 -214.629 1923.17 -219.178 1915.44 -224.637Z" fill="white"/>
<path d="M1916.35 -184.607C1910.89 -188.246 1904.06 -193.25 1896.33 -198.708C1885.41 -206.441 1875.41 -215.084 1864.49 -223.727C1862.21 -225.547 1859.48 -227.821 1856.3 -230.55C1838.1 -246.017 1813.09 -267.396 1789.89 -267.396C1783.52 -267.396 1777.6 -265.577 1772.15 -262.393C1732.12 -237.829 1756.22 -178.693 1770.78 -143.667C1772.6 -139.573 1773.97 -135.479 1775.33 -131.84C1784.88 -107.276 1794.44 -81.8017 1801.26 -55.4182C1802.62 -50.4144 1803.99 -44.5009 1805.35 -38.1324C1811.72 -9.47443 1820.36 29.6461 1842.2 43.7476C1845.84 46.0221 1849.48 47.3867 1853.57 47.8416C1854.94 47.8416 1855.85 48.2965 1857.21 48.2965C1884.05 48.2965 1910.43 7.81137 1929.99 -22.2113C1933.63 -27.67 1936.82 -32.6737 1939.54 -36.7677V-39.0422C1936.36 -34.4933 1932.72 -29.0346 1928.63 -23.1211C1909.52 6.44672 1882.68 46.477 1856.76 46.477C1855.85 46.477 1854.48 46.4769 1853.57 46.0221C1849.93 45.5672 1846.29 44.2025 1842.65 41.9281C1821.27 28.2814 1812.63 -10.8391 1806.26 -39.0422C1804.9 -45.4106 1803.53 -51.3242 1802.17 -56.328C1795.35 -83.1664 1785.34 -108.64 1776.24 -133.204C1774.87 -136.843 1773.06 -140.937 1771.69 -145.031C1757.59 -180.058 1733.94 -238.284 1772.6 -262.393C1777.6 -265.577 1783.52 -266.942 1789.43 -266.942C1812.18 -266.942 1836.74 -246.017 1854.94 -230.55C1857.66 -228.276 1860.39 -226.002 1863.12 -223.727C1874.04 -214.629 1884.5 -206.441 1894.97 -198.708C1902.24 -193.25 1909.52 -188.246 1914.98 -184.607C1922.26 -179.603 1929.08 -175.054 1936.82 -169.595C1937.73 -169.14 1938.18 -168.686 1939.09 -168.231V-170.05C1938.63 -170.505 1938.18 -170.96 1937.27 -170.96C1930.9 -175.054 1923.62 -180.058 1916.35 -184.607Z" fill="white"/>
<path d="M1679.8 137.91C1682.53 141.094 1687.08 146.098 1699.36 147.007C1744.85 150.646 1813.54 156.56 1871.77 209.327L1872.22 209.782C1892.24 227.978 1908.16 250.722 1919.98 278.015C1923.17 285.294 1928.63 289.842 1934.54 289.842C1936.36 289.842 1937.73 289.388 1939.54 288.933V287.113C1937.73 288.023 1936.36 288.478 1934.54 288.478C1929.08 288.478 1924.08 284.384 1920.89 277.56C1909.07 250.267 1892.69 227.068 1872.68 208.872L1872.22 208.417C1814 155.195 1744.85 149.737 1699.36 146.098C1687.54 145.188 1682.99 140.639 1680.71 137.455C1674.8 129.722 1674.34 118.349 1674.8 114.71C1681.17 86.962 1688.9 52.3904 1686.17 14.1797C1681.17 -49.9596 1655.69 -105.001 1630.68 -158.678C1610.66 -201.438 1588.37 -250.111 1596.1 -271.945C1610.21 -311.521 1667.07 -367.927 1691.18 -390.216C1706.19 -404.318 1724.38 -411.596 1744.85 -411.596C1756.68 -411.596 1766.69 -409.322 1773.06 -407.047C1814.91 -393.401 1874.04 -362.468 1940 -320.164V-321.983C1874.04 -364.288 1814.91 -395.22 1773.51 -408.412C1767.14 -410.686 1756.68 -412.961 1744.85 -412.961C1723.93 -412.961 1705.73 -405.683 1690.27 -391.126C1666.16 -368.837 1609.3 -311.976 1595.19 -272.4C1587.01 -249.656 1609.75 -200.983 1629.77 -157.768C1654.33 -104.546 1680.26 -49.5047 1685.26 14.6346C1687.99 52.3904 1680.26 86.962 1673.89 114.71C1672.98 117.894 1673.89 130.176 1679.8 137.91Z" fill="white"/>
<path d="M1765.78 96.9695C1776.24 102.428 1790.34 105.157 1803.99 107.432C1814 109.251 1824.46 111.071 1833.1 114.255C1838.56 116.075 1844.47 119.259 1850.84 122.443C1864.03 128.812 1878.59 136.09 1892.24 136.09C1894.97 136.09 1897.24 135.635 1899.51 135.18C1899.97 135.18 1900.88 134.725 1901.33 134.725C1920.44 128.812 1930.9 104.703 1940 82.413V78.319V78.7739C1930.9 101.518 1920.89 126.992 1901.33 132.906C1900.88 132.906 1899.97 133.361 1899.51 133.361C1897.24 133.815 1894.97 134.27 1892.24 134.27C1879.04 134.27 1864.49 126.992 1851.75 120.624C1845.38 117.439 1839.47 114.71 1834.01 112.436C1825.37 109.251 1814.91 107.432 1804.44 105.612C1790.8 103.338 1776.69 101.063 1766.69 95.1499C1744.4 82.8679 1746.67 60.1235 1748.95 36.4693C1749.86 26.9166 1750.77 17.3639 1750.31 8.72101C1744.4 -66.7906 1716.19 -127.291 1688.9 -185.971C1676.62 -212.355 1675.71 -241.468 1686.17 -267.851C1697.54 -296.055 1722.11 -319.254 1752.59 -331.081C1762.14 -334.72 1772.15 -336.54 1782.15 -336.54C1825.82 -336.54 1867.22 -302.878 1903.61 -273.31C1914.07 -265.122 1923.62 -256.934 1933.18 -250.111C1935.45 -248.291 1937.73 -246.927 1940 -245.107V-246.927C1938.18 -248.291 1936.36 -249.656 1934.09 -251.02C1924.99 -257.844 1914.98 -265.577 1904.97 -274.22C1868.58 -304.243 1827.19 -337.904 1782.61 -337.904C1772.15 -337.904 1762.14 -336.085 1752.59 -332.446C1721.65 -320.619 1697.09 -297.419 1685.26 -268.761C1674.34 -241.923 1675.25 -212.81 1687.99 -185.971C1715.28 -127.746 1743.03 -67.2454 1748.95 8.26617C1749.4 16.9091 1748.49 26.4617 1747.58 36.0143C1744.85 60.1234 1742.58 84.2326 1765.78 96.9695Z" fill="white"/>
<path d="M1736.21 121.08C1745.31 123.355 1754.41 125.629 1763.5 127.449C1811.27 138.366 1852.21 147.919 1893.15 185.22L1894.06 186.13C1903.61 194.772 1910.89 198.866 1916.8 198.866C1917.71 198.866 1918.62 198.866 1919.53 198.411C1928.63 196.137 1932.72 183.855 1937.73 167.934C1938.64 165.66 1939.09 162.93 1940 160.656V156.107C1938.64 159.746 1937.27 163.84 1936.36 167.479C1931.81 182.945 1927.26 195.227 1919.07 197.047C1913.16 198.412 1905.43 194.318 1894.97 184.765L1894.06 183.855C1852.66 146.554 1811.27 137.001 1763.96 125.629C1755.31 123.81 1746.22 121.535 1736.66 119.261C1703.46 111.073 1708.92 79.6855 1714.37 49.2079C1716.65 36.0162 1719.38 22.3695 1718.47 10.9973C1713.01 -59.0557 1686.17 -116.827 1660.24 -172.778C1657.06 -179.601 1653.87 -185.97 1650.69 -192.338C1633.86 -225.09 1619.76 -253.293 1640.23 -288.32C1655.69 -314.703 1678.89 -336.083 1701.64 -356.553C1705.73 -360.192 1709.83 -363.831 1713.92 -367.925C1722.56 -376.113 1734.39 -380.207 1748.95 -380.207C1804.9 -380.207 1891.33 -320.617 1940.91 -284.681V-285.59C1890.87 -321.527 1805.35 -380.662 1748.95 -380.662C1733.94 -380.662 1721.65 -376.568 1713.01 -367.925C1708.92 -364.286 1704.82 -360.647 1701.18 -356.553C1678.44 -335.628 1655.24 -314.248 1639.77 -287.865C1618.85 -252.383 1633.86 -222.361 1650.24 -190.519C1653.42 -184.15 1656.6 -177.782 1659.79 -170.958C1685.72 -115.007 1712.56 -57.691 1718.01 12.3619C1718.92 23.7342 1716.65 37.3808 1713.92 50.5726C1707.55 80.5952 1701.64 112.437 1736.21 121.08Z" fill="white"/>
<path d="M779.123 776.575C767.751 793.861 753.195 815.695 758.198 830.252C760.018 836.165 765.477 840.714 773.21 843.898C774.574 844.353 776.394 844.808 778.214 844.808C795.954 844.808 823.702 817.515 848.266 793.861C863.733 778.849 878.744 764.293 887.387 760.199C929.692 741.094 988.372 731.996 1039.77 723.808C1060.24 720.624 1079.35 717.439 1097.09 714.255C1137.58 706.522 1176.7 702.428 1213.09 702.428C1332.72 702.428 1433.71 745.643 1511.95 830.707C1520.59 840.259 1533.78 845.263 1550.16 845.263C1601.56 845.263 1689.36 795.225 1751.68 702.883C1788.98 647.387 1842.65 534.119 1786.7 398.107C1764.41 343.521 1730.75 318.047 1681.62 318.047C1644.32 318.047 1601.56 331.694 1551.98 347.615C1491.02 367.175 1422.34 389.465 1348.19 389.465C1290.42 389.465 1237.65 376.273 1186.25 348.979C1027.95 264.37 1023.4 110.618 1037.05 -14.0219C1042.5 -62.695 1033.86 -100.906 1012.03 -125.015C996.56 -141.846 976.09 -150.943 951.981 -150.943C906.492 -150.943 849.176 -115.462 828.706 -47.6836C809.146 16.0008 855.09 74.2265 908.312 141.095C968.357 216.607 1036.14 302.581 1022.94 417.213C1016.58 474.074 995.65 528.661 967.447 562.777C946.068 588.706 926.962 591.435 907.402 593.71C891.936 595.529 876.47 597.349 857.819 609.176C843.718 618.274 839.169 633.285 834.62 649.661C831.436 660.578 828.251 672.406 821.428 681.958C817.789 686.962 811.42 688.327 804.142 689.236C795.044 690.601 785.037 692.421 779.578 704.248C775.939 712.436 780.943 721.988 785.492 731.086C789.586 738.819 793.68 747.007 792.315 753.376C790.95 757.925 785.492 766.567 779.123 776.575ZM787.311 729.267C782.762 720.169 778.214 711.526 781.398 704.703C786.402 694.24 795.499 692.876 804.142 691.056C811.42 689.691 818.699 688.781 822.793 682.413C830.071 672.405 833.255 661.033 836.439 649.661C840.988 634.195 845.082 619.183 858.729 610.541C876.924 599.168 892.391 597.349 907.402 595.529C927.872 592.8 947.432 590.526 969.267 563.687C997.925 528.661 1018.85 474.074 1025.22 416.758C1038.41 301.216 970.177 214.787 910.131 138.821C857.364 72.407 811.875 14.6362 830.981 -47.6836C850.996 -114.097 906.947 -149.124 951.526 -149.124C974.726 -149.124 995.196 -140.481 1009.75 -124.105C1030.68 -100.451 1039.32 -62.6949 1033.86 -14.9316C1020.21 110.618 1024.76 265.735 1184.43 350.799C1236.29 378.547 1289.51 391.739 1347.73 391.739C1422.34 391.739 1491.48 369.45 1552.43 349.889C1601.56 333.968 1644.32 320.322 1681.17 320.322C1729.84 320.322 1761.23 344.431 1783.52 398.562C1839.01 533.209 1785.79 645.567 1748.95 700.609C1689.81 789.312 1601.11 842.079 1549.71 842.079C1533.78 842.079 1521.96 837.53 1513.31 828.432C1434.16 742.913 1333.18 699.244 1212.18 699.244C1175.33 699.244 1136.21 703.338 1095.27 711.071C1077.53 714.71 1058.43 717.44 1037.96 720.624C986.098 728.812 927.417 737.909 884.658 757.47C875.56 761.564 861.003 775.665 844.627 791.586C820.518 815.241 793.225 842.079 776.394 842.079C775.029 842.079 773.665 842.079 772.3 841.624C765.022 838.895 760.473 835.256 758.653 829.797C754.104 816.15 768.206 795.225 779.123 778.395C785.947 768.387 791.405 759.744 792.77 753.831C795.954 745.643 791.86 737 787.311 729.267Z" fill="white"/>
<path d="M1878.13 465.886C1884.05 469.525 1893.6 471.8 1904.97 471.8C1914.98 471.8 1927.26 469.98 1940 466.341V463.157C1927.26 467.251 1914.98 469.07 1904.97 469.07C1894.51 469.07 1885.41 467.251 1879.95 463.612C1853.12 446.326 1841.29 416.303 1829.01 384.461C1818.09 356.713 1807.17 328.51 1785.34 308.495V307.585H1784.43C1759.41 285.75 1725.75 274.833 1681.62 274.833C1638.41 274.833 1593.37 285.295 1556.98 293.483C1531.96 298.942 1510.58 303.946 1496.94 303.946C1488.75 303.946 1483.75 302.126 1481.93 298.942C1479.2 294.393 1481.47 285.75 1487.84 273.468C1519.23 216.152 1582.91 79.2306 1578.36 22.8244C1574.72 -21.7547 1553.34 -68.1534 1532.87 -112.733C1502.85 -177.782 1471.46 -244.65 1494.21 -308.335C1520.14 -381.117 1633.86 -511.215 1714.83 -522.587C1719.38 -523.042 1724.84 -523.497 1729.84 -523.497C1782.61 -523.497 1859.48 -492.11 1940 -446.621V-449.805C1859.48 -495.294 1782.61 -526.227 1729.84 -526.227C1724.38 -526.227 1718.92 -525.772 1714.37 -525.317C1632.49 -513.945 1517.41 -382.482 1491.02 -309.245C1467.82 -244.195 1499.21 -176.872 1529.69 -111.368C1550.16 -66.7887 1571.54 -21.2998 1575.18 22.8244C1579.27 73.3171 1523.78 201.141 1485.11 272.104C1477.38 285.75 1475.56 294.848 1479.2 300.761C1481.93 305.31 1487.84 307.585 1496.94 307.585C1511.04 307.585 1532.87 302.581 1557.89 297.122C1594.28 288.934 1639.32 278.472 1681.62 278.472C1725.29 278.472 1758.04 288.934 1782.61 310.769C1803.99 330.329 1815.36 358.532 1825.82 386.281C1838.56 417.668 1850.84 448.146 1878.13 465.886Z" fill="white"/>
<path d="M843.718 728.811C846.447 729.721 851.906 730.176 858.274 730.176C871.921 730.176 923.323 727.901 1003.38 701.518C1070.25 679.228 1148.49 667.401 1224 667.401C1347.73 667.401 1430.07 686.052 1536.06 787.492C1543.79 794.77 1553.8 798.409 1566.08 798.409C1612.03 798.409 1681.62 748.371 1724.84 684.232C1758.5 634.194 1807.17 532.299 1756.68 409.934C1734.85 357.622 1708.01 350.344 1681.62 350.344C1649.33 350.344 1608.84 363.535 1561.99 378.547C1498.76 399.017 1427.34 421.761 1348.19 421.761C1284.96 421.761 1227.19 407.205 1170.78 377.182C993.376 282.565 991.102 106.068 1004.75 -18.1164C1008.84 -56.782 1002.93 -87.2596 987.917 -104.09C978.82 -114.098 966.538 -119.557 951.981 -119.557C918.319 -119.557 876.015 -91.8084 859.639 -39.4962C845.082 8.26717 886.022 59.6696 933.786 119.715C994.286 196.136 1069.8 291.663 1055.24 419.487C1051.15 455.878 1041.14 490.904 1026.13 522.747C1002.02 573.694 970.632 616.909 931.966 651.48C906.492 674.224 881.019 690.146 862.368 701.518C845.537 711.98 835.075 718.349 835.985 723.352C836.439 725.627 838.714 727.447 843.718 728.811ZM863.278 702.882C881.928 691.51 907.402 675.589 932.876 652.845C971.542 618.273 1003.38 575.059 1027.49 523.656C1042.5 491.359 1052.51 456.333 1056.61 419.942C1071.16 291.663 995.651 196.136 934.695 119.26C887.387 59.6696 846.902 8.26716 861.003 -38.5864C876.925 -90.4437 918.774 -117.737 951.981 -117.737C966.538 -117.737 978.365 -112.733 987.008 -102.726C1002.02 -86.3498 1007.48 -56.3271 1003.38 -18.1164C989.737 106.523 992.011 283.475 1170.33 378.547C1226.73 408.569 1284.96 423.126 1348.19 423.126C1427.8 423.126 1499.21 399.927 1562.44 379.457C1609.3 364.445 1649.33 351.253 1681.62 351.253C1707.1 351.253 1733.94 358.532 1755.32 410.389C1805.35 531.844 1756.68 633.285 1723.47 683.322C1681.62 746.097 1611.12 797.045 1566.08 797.045C1554.25 797.045 1544.25 793.405 1536.97 786.582C1485.57 737.454 1437.8 706.067 1386.4 688.326C1342.28 672.86 1293.6 666.491 1224 666.491C1148.49 666.491 1070.25 678.773 1002.93 701.063C922.868 727.446 871.921 729.721 858.274 729.721C851.906 729.721 846.447 729.266 843.718 728.811C839.624 727.901 837.349 726.537 836.894 724.717C836.894 719.259 847.812 712.435 863.278 702.882Z" fill="white"/>
<path d="M951.982 -88.1699C927.418 -88.1699 900.579 -63.6059 891.936 -41.3163C886.023 -26.7599 890.572 -1.74098 903.763 26.0072C916.045 51.9359 932.876 71.4962 945.158 75.1353C946.978 75.5902 948.797 76.045 950.617 76.045C952.891 76.045 954.711 75.5902 956.53 75.1353C972.451 69.6766 971.997 60.1239 971.087 38.7442C970.632 25.5524 969.722 7.81171 972.451 -16.7523C976.091 -49.9592 971.087 -74.9781 963.809 -82.7112C962.444 -85.8954 959.26 -88.1699 951.982 -88.1699ZM971.087 -17.6621C968.357 7.35677 968.812 25.0975 969.722 38.2892C970.632 59.669 970.632 67.4021 956.53 72.4059C953.346 73.7706 949.707 73.7706 946.068 72.4059C934.241 68.7668 918.32 49.6615 906.038 24.1877C892.846 -2.65073 888.752 -27.2148 894.211 -41.3163C902.854 -62.6961 928.782 -86.8052 951.982 -86.8052C958.35 -86.8052 961.079 -84.9856 962.899 -82.7112C969.722 -74.5232 974.271 -49.9592 971.087 -17.6621Z" fill="white"/>
<path d="M982.913 671.039C987.007 671.039 992.466 670.13 998.38 667.855C1062.06 645.566 1135.76 635.103 1224 635.103C1334.09 635.103 1442.81 645.111 1566.54 767.021C1570.17 770.66 1574.72 772.479 1580.64 772.479C1615.21 772.479 1679.35 706.066 1698 666.036C1699.82 662.396 1701.64 658.757 1703.46 654.663C1727.57 605.08 1768.05 522.291 1726.66 422.215C1710.28 382.185 1694.81 382.185 1681.17 382.185C1653.87 382.185 1615.66 394.467 1571.54 408.569C1506.04 429.493 1432.34 453.603 1348.19 453.603C1276.32 453.603 1217.64 440.411 1158.96 410.843C1149.86 406.294 1141.21 401.29 1133.48 396.741C1118.02 387.644 1105.73 380.82 1098 380.82C1092.09 380.82 1088.9 384.914 1088.9 394.012C1088.9 395.377 1088.9 397.651 1089.36 400.835C1097.55 487.264 1064.34 567.78 990.192 640.562C977 653.299 971.541 662.396 973.816 667.855C974.725 669.675 977.91 671.039 982.913 671.039ZM991.101 640.562C1038.86 593.708 1070.25 543.216 1084.35 489.994C1095.73 447.234 1092.54 414.027 1091.18 399.926C1090.72 396.741 1090.72 394.467 1090.72 393.102C1090.72 382.64 1095.27 381.275 1098.46 381.275C1105.73 381.275 1118.47 388.553 1133.48 397.196C1141.21 401.745 1149.86 406.749 1158.96 411.298C1218.09 441.321 1276.32 454.512 1348.64 454.512C1433.25 454.512 1507.4 430.403 1572.45 409.478C1616.57 395.377 1654.78 383.095 1681.62 383.095C1694.81 383.095 1709.83 383.095 1725.75 422.215C1766.69 521.836 1726.66 604.626 1702.55 653.754C1700.73 657.848 1698.45 661.487 1697.09 665.126C1678.44 704.701 1614.75 770.66 1580.64 770.66C1575.18 770.66 1571.08 768.84 1567.9 765.656C1510.58 709.25 1450.99 671.949 1385.95 652.389C1328.17 635.103 1274.5 633.284 1224.46 633.284C1136.21 633.284 1062.06 644.201 998.38 666.036C992.921 667.855 987.462 669.22 983.368 669.22C980.184 669.22 976.545 668.765 975.18 665.581C973.816 663.306 974.271 656.483 991.101 640.562Z" fill="white"/>
<path d="M697.699 204.78C694.514 202.05 691.785 200.686 689.511 200.686C683.142 200.686 678.593 208.874 671.77 221.156C664.947 233.892 655.394 251.178 638.563 268.919L633.559 273.923C614.454 293.938 605.811 303.035 608.085 308.039C608.995 310.314 612.179 311.224 617.638 311.224C622.187 311.224 629.465 310.314 641.292 308.949C646.296 308.494 650.845 308.039 655.849 308.039C695.424 308.039 728.176 330.329 752.285 346.25C766.387 355.803 777.304 363.081 785.492 363.081C788.676 363.081 791.406 361.716 793.68 358.987C818.699 327.145 730.451 234.802 697.699 204.78ZM791.861 358.077C790.041 360.351 788.221 361.261 785.492 361.261C778.214 361.261 767.297 353.983 753.65 344.885C729.541 328.509 696.334 306.22 655.849 306.22C650.845 306.22 645.841 306.675 640.837 307.129C629.465 308.949 622.187 309.404 617.638 309.404C613.089 309.404 610.815 308.949 610.36 307.584C608.995 303.945 619.458 293.028 635.379 275.742L640.383 270.738C657.213 252.998 666.766 235.257 674.044 222.52C680.413 211.148 684.507 203.415 689.511 203.415C691.33 203.415 693.605 204.78 696.334 207.054C736.819 243.445 814.15 329.419 791.861 358.077Z" fill="white"/>
<path d="M698.608 242.99C682.687 242.99 662.217 268.009 662.217 279.836C662.217 284.84 665.401 287.569 670.405 287.569C694.059 288.024 718.623 303.036 736.819 313.498C747.736 319.866 755.469 324.415 760.018 324.415C761.383 324.415 762.747 323.96 763.657 323.051C764.567 322.141 765.022 320.321 765.022 317.592C763.202 295.757 721.807 252.088 704.976 243.445C702.702 243.445 700.427 242.99 698.608 242.99ZM761.382 318.502C761.382 320.321 761.383 321.231 760.928 321.231C760.928 321.231 760.473 321.686 760.018 321.686C756.379 321.686 748.191 316.682 738.638 311.224C720.442 300.306 694.969 284.84 670.86 284.84C667.221 284.84 665.856 283.475 665.856 280.291C665.856 269.829 684.961 246.629 699.063 246.629C700.882 246.629 702.247 247.084 703.612 247.539C720.897 256.182 759.563 298.941 761.382 318.502Z" fill="white"/>
<path d="M818.698 479.077C849.631 475.438 879.198 454.058 893.3 424.491C906.492 397.652 913.315 351.708 872.83 287.114C855.544 259.366 836.439 231.163 818.243 203.869C765.931 126.083 716.348 52.8463 696.333 -20.8458C673.134 -104.09 691.784 -172.779 754.559 -236.918C809.145 -292.414 881.018 -324.257 951.981 -324.257C1005.2 -324.257 1052.97 -305.606 1086.17 -271.49C1122.56 -234.189 1140.76 -179.147 1138.48 -113.188C1138.03 -97.722 1137.12 -81.8008 1136.67 -64.97C1133.94 -5.37952 1130.75 62.3989 1140.3 118.805C1151.22 183.399 1177.61 223.43 1220.82 241.17C1244.02 250.723 1265.85 255.272 1285.87 255.272C1322.26 255.272 1353.19 239.351 1375.48 209.328C1413.24 158.38 1422.34 70.5869 1398.23 -8.56378C1345.91 -178.692 1220.82 -280.132 1035.23 -388.851C894.21 -471.186 775.484 -497.114 667.675 -512.126C659.487 -513.49 652.209 -513.945 644.931 -513.945C599.897 -513.945 578.517 -491.201 551.678 -462.088C541.216 -451.171 530.753 -439.344 517.107 -427.516C501.641 -413.87 488.449 -405.682 476.622 -398.404C457.516 -386.576 441.14 -376.569 423.4 -349.73C387.463 -296.054 435.682 -263.302 486.174 -228.73C513.013 -210.534 540.761 -191.429 555.317 -169.139C648.57 -28.1239 610.814 122.444 544.855 216.606C525.75 243.445 498.456 268.918 468.889 295.757C432.952 328.509 396.106 362.626 374.727 400.381C365.629 416.757 362.899 427.675 366.993 434.043C369.723 438.592 376.091 440.867 385.644 440.867C402.93 440.867 430.678 433.588 462.975 425.4C508.009 413.573 563.96 399.017 613.543 399.017C639.927 399.017 662.216 403.111 680.412 411.299C698.607 419.487 713.619 431.314 728.63 442.686C752.739 461.791 775.939 479.532 808.236 479.532C811.875 479.987 815.059 479.532 818.698 479.077ZM680.867 410.389C662.216 401.746 640.382 397.652 613.543 397.652C563.96 397.652 507.554 412.208 462.52 424.036C430.678 432.224 402.93 439.502 385.644 439.502C376.546 439.502 370.633 437.227 367.903 433.133C364.264 427.22 366.993 416.302 375.636 400.836C396.561 363.081 433.862 329.419 469.343 296.667C498.456 269.828 526.205 244.355 545.31 217.516C583.975 162.474 607.175 99.6998 611.724 36.0154C616.727 -36.7669 598.077 -105.91 556.227 -169.594C541.216 -192.339 513.468 -211.444 486.629 -229.64C436.591 -263.756 389.283 -296.508 424.309 -348.821C442.05 -375.659 458.426 -385.667 477.077 -397.039C488.904 -404.317 502.55 -412.505 518.017 -426.152C531.208 -437.979 542.126 -449.351 552.588 -460.723C579.427 -489.381 600.806 -512.126 644.931 -512.126C651.754 -512.126 659.487 -511.671 667.22 -510.306C774.574 -495.295 893.3 -469.821 1034.32 -387.031C1219.46 -278.313 1344.55 -177.327 1396.86 -7.65393C1420.97 71.0419 1411.87 158.38 1374.57 209.328C1352.74 238.896 1321.81 254.817 1285.87 254.817C1265.85 254.817 1244.47 250.268 1221.27 240.715C1178.52 223.43 1152.59 183.854 1141.67 119.26C1132.12 62.8538 1135.3 -4.46973 1138.03 -64.515C1138.94 -81.3459 1139.39 -97.2671 1139.85 -112.733C1141.67 -179.147 1123.47 -234.644 1087.08 -272.399C1053.88 -306.971 1005.66 -325.621 951.981 -325.621C880.563 -325.621 808.236 -293.779 753.649 -237.828C720.442 -203.711 699.517 -168.685 690.419 -130.474C682.231 -96.3573 683.596 -60.4211 694.968 -20.8458C715.438 52.8463 765.021 126.538 817.333 204.324C835.529 231.618 854.634 259.366 871.92 287.569C911.95 351.708 905.127 397.197 892.39 423.581C878.289 452.694 849.631 473.619 818.698 477.258C815.059 477.713 811.875 477.712 808.236 477.712C776.393 477.712 753.649 459.972 729.54 441.321C714.529 430.404 699.062 418.577 680.867 410.389Z" fill="white"/>
<path d="M848.721 422.671C860.548 414.028 867.826 401.746 869.646 386.734C875.105 342.155 835.529 276.651 799.593 234.347C755.014 181.579 710.89 125.173 689.51 70.5866C688.6 67.8573 686.781 60.1241 684.961 50.5715C678.138 18.2744 666.311 -35.8574 649.48 -35.8574C648.115 -35.8574 646.295 -35.4025 644.931 -34.4927C638.107 -30.3987 635.833 -22.2107 638.562 -9.47385C640.837 0.98859 645.841 12.8157 650.389 23.2781C655.393 34.1955 659.487 44.203 659.487 49.6617C659.487 63.7633 652.664 69.6768 646.295 76.0453C641.292 80.5942 636.288 85.5979 634.468 93.7859C632.194 104.703 636.743 112.891 640.837 120.624C644.931 127.903 649.025 135.181 647.66 145.188C645.386 162.929 588.979 227.068 539.397 283.475C498.457 330.328 462.975 370.813 463.43 378.546C463.43 379.001 463.885 379.456 463.885 379.911C467.069 382.64 473.438 384.005 482.99 384.005C497.547 384.005 518.017 380.821 541.671 376.727C570.329 372.178 603.081 366.719 631.284 366.719C653.119 366.719 669.95 369.903 681.777 376.272C688.145 379.911 695.423 384.005 703.157 388.554C737.273 408.114 779.123 432.678 815.059 432.678C827.796 433.133 839.168 429.494 848.721 422.671ZM681.777 375.362C669.495 368.994 653.119 365.81 630.829 365.81C602.626 365.81 569.874 370.813 541.216 375.817C517.562 379.456 497.092 383.095 482.535 383.095C473.438 383.095 467.524 381.731 464.34 379.001C464.34 379.001 464.34 379.001 464.34 378.546C463.885 371.268 500.731 329.418 539.851 284.384C589.434 227.523 646.295 163.384 648.57 145.188C649.935 135.181 645.841 127.448 641.747 119.715C637.198 111.527 633.104 104.248 635.378 93.7859C637.198 85.5979 641.747 81.504 646.75 76.5002C653.119 70.1317 659.942 63.7633 660.397 49.2069C660.397 43.2933 656.303 33.7406 651.299 22.3684C646.75 11.9059 641.747 0.0788536 639.472 -9.9287C636.743 -21.7558 638.562 -29.489 644.931 -33.583C646.295 -34.4928 647.66 -34.9476 649.025 -34.9476C664.946 -34.9476 676.773 20.5488 683.141 50.5715C685.416 60.579 686.781 67.8573 688.145 70.5866C709.98 125.173 754.104 181.579 798.683 234.347C834.165 276.196 873.74 341.245 868.281 385.37C866.462 400.381 859.638 412.208 848.266 420.396C839.168 427.22 827.796 430.404 814.604 430.404C779.123 430.404 737.273 405.84 703.611 386.28C695.423 383.095 688.145 379.001 681.777 375.362Z" fill="white"/>
<path d="M832.8 365.81C836.894 328.509 796.864 269.373 776.849 247.084C742.277 207.963 718.168 174.756 702.247 152.922C686.326 131.087 677.683 119.26 672.224 119.26C668.13 119.26 666.311 124.263 664.946 136.545C654.939 229.343 594.893 279.381 559.412 309.403C543.946 322.595 533.483 331.238 533.028 338.516C533.028 340.791 533.483 342.61 535.303 343.975C538.487 347.614 543.946 348.979 551.679 348.979C560.322 348.979 571.694 346.704 584.431 344.43C601.262 341.245 620.367 338.061 639.472 338.061C665.856 338.061 687.236 344.885 704.976 358.076C729.54 377.182 765.931 397.652 794.59 397.652C805.052 397.652 813.695 394.922 820.973 389.919C827.342 384.005 831.89 375.817 832.8 365.81ZM793.68 395.832C765.477 395.832 729.54 375.362 704.976 356.712C687.236 343.065 665.401 336.242 639.017 336.242C619.457 336.242 600.352 339.881 583.521 342.61C570.784 344.885 559.412 347.159 550.769 347.159C543.491 347.159 538.487 345.794 535.303 342.61C533.938 341.245 533.483 339.881 533.483 338.061C533.938 331.693 544.401 322.595 559.412 309.858C595.348 279.835 655.393 229.343 665.401 136.091C666.766 125.173 668.585 120.17 671.315 120.17C676.318 120.17 685.416 132.906 700.427 153.376C716.349 175.211 740.458 208.873 775.029 247.538C795.044 269.828 835.075 328.509 830.981 365.355C830.071 375.362 825.522 383.095 818.699 388.099C812.33 393.103 803.687 395.832 793.68 395.832Z" fill="white"/>
<path d="M1221.73 -8.56389C1217.18 62.3988 1237.65 111.527 1258.12 133.816C1267.67 143.824 1278.14 149.283 1287.23 149.283C1300.43 149.283 1310.43 138.82 1315.44 120.17C1346.37 -1.74048 1240.84 -130.019 1227.64 -140.936C1224 -144.121 1221.27 -144.576 1219.46 -142.756C1216.27 -139.572 1217.18 -128.655 1219 -108.639C1221.27 -85.4401 1224.46 -49.9588 1221.73 -8.56389ZM1221.27 -140.936C1221.73 -141.391 1221.73 -141.391 1222.18 -141.391C1222.64 -141.391 1224 -140.937 1226.28 -139.117C1239.02 -128.655 1344.1 -1.28564 1313.16 119.26C1308.61 137.001 1299.52 147.008 1287.23 147.008C1278.59 147.008 1268.58 141.549 1259.49 131.997C1239.02 110.162 1219 61.9439 1223.55 -8.56389C1226.28 -50.4137 1223.09 -85.4401 1221.27 -109.094C1219.91 -125.925 1219 -138.662 1221.27 -140.936Z" fill="white"/>
<path d="M1186.7 -12.6582C1181.24 56.4849 1194.89 112.436 1224.91 144.733C1240.84 161.564 1259.94 171.117 1279.05 171.117C1306.79 171.117 1328.63 152.012 1335 122.444C1354.1 36.0149 1324.53 -42.226 1296.33 -92.2638C1263.12 -150.944 1220.82 -192.794 1200.35 -206.441C1193.07 -211.445 1187.61 -214.629 1184.43 -214.629C1183.06 -214.629 1182.15 -214.174 1181.7 -213.264C1178.97 -210.08 1180.33 -201.892 1182.15 -185.061C1186.25 -155.948 1193.07 -100.452 1186.7 -12.6582ZM1182.61 -212.809C1183.06 -213.264 1183.52 -213.719 1184.43 -213.719C1187.16 -213.719 1192.62 -210.535 1199.44 -205.986C1245.38 -175.054 1368.2 -34.9478 1333.63 121.534C1327.26 150.647 1305.88 169.297 1278.59 169.297C1259.49 169.297 1240.84 160.199 1225.37 143.369C1195.8 111.071 1182.15 55.5751 1187.16 -12.6582C1193.98 -100.452 1186.7 -155.948 1183.06 -185.516C1181.7 -200.982 1180.79 -210.08 1182.61 -212.809Z" fill="white"/>
<path d="M1160.32 -8.1088C1154.86 77.8652 1171.69 145.644 1206.72 182.944C1224.91 202.05 1246.75 212.512 1270.4 212.512C1315.44 212.512 1353.65 176.121 1365.48 121.989C1382.76 41.929 1367.75 -36.7668 1321.35 -111.823C1274.04 -188.245 1208.54 -237.373 1173.51 -260.117C1155.77 -271.489 1148.04 -276.493 1145.31 -272.854C1143.03 -270.125 1144.4 -261.482 1147.58 -245.106C1153.95 -210.079 1168.05 -135.933 1160.32 -8.1088ZM1146.22 -272.399C1146.67 -272.854 1147.13 -272.854 1148.04 -272.854C1151.68 -272.854 1159.87 -267.85 1173.06 -259.207C1289.05 -183.696 1400.5 -44.045 1364.57 121.534C1352.74 175.211 1315.44 211.148 1270.86 211.148C1247.66 211.148 1225.82 201.14 1208.08 182.035C1173.06 145.189 1157.14 77.4103 1162.14 -8.1088C1169.87 -135.933 1155.77 -210.079 1148.95 -246.016C1145.76 -261.027 1143.94 -270.125 1146.22 -272.399Z" fill="white"/>
<path d="M1274.95 94.6962C1277.23 94.6962 1279.5 92.8766 1281.32 89.6924C1289.96 72.8615 1289.96 15.5455 1266.31 -19.4809C1263.13 -24.0298 1259.03 -23.575 1255.39 -17.6614C1246.75 -2.65008 1242.66 46.0231 1266.76 87.8728C1269.49 92.4217 1272.22 94.6962 1274.95 94.6962ZM1258.12 -15.8418C1259.49 -17.6614 1260.4 -19.026 1261.31 -19.026C1262.22 -19.026 1263.13 -18.1163 1263.13 -17.2065C1285.42 16.4553 1286.32 72.8615 1277.68 88.7826C1276.77 91.057 1275.41 91.9668 1274.04 91.9668C1272.68 91.9668 1270.86 90.1472 1269.04 86.963C1246.75 46.023 1249.93 -1.74026 1258.12 -15.8418Z" fill="white"/>
<path d="M1570.63 234.347C1573.81 238.896 1582 241.17 1597.01 241.17C1606.57 241.17 1617.94 240.261 1631.13 239.351C1647.51 238.441 1666.16 237.076 1685.26 237.076C1746.22 237.076 1787.16 249.813 1814.45 278.016C1839.92 297.577 1854.02 329.419 1866.31 357.622C1881.32 391.739 1894.51 421.306 1923.17 421.306C1926.35 421.306 1929.54 420.852 1932.72 420.397C1935 419.942 1937.27 419.487 1939.54 418.577V416.303C1936.81 417.212 1934.54 417.667 1932.27 418.122C1929.08 418.577 1925.9 419.032 1923.17 419.032C1895.87 419.032 1883.14 389.919 1868.58 356.712C1856.3 328.509 1841.74 296.212 1816.27 276.197C1788.52 247.994 1747.13 234.802 1685.72 234.802C1666.61 234.802 1647.96 236.167 1631.58 237.076C1618.39 237.986 1607.02 238.896 1597.47 238.896C1583.37 238.896 1575.63 237.076 1572.9 232.982C1571.54 230.708 1571.54 227.979 1572.9 224.34C1602.02 147.008 1626.13 49.2073 1623.85 18.7297C1619.76 -34.0374 1596.56 -84.0752 1574.27 -132.293C1546.97 -191.429 1521.05 -246.925 1537.42 -293.324C1560.17 -357.918 1664.79 -470.276 1721.65 -478.009C1724.38 -478.464 1727.57 -478.464 1730.75 -478.464C1774.87 -478.464 1852.66 -447.077 1940.91 -394.764V-397.494C1853.12 -449.351 1775.33 -480.738 1730.75 -480.738C1727.57 -480.738 1724.38 -480.738 1721.2 -480.283C1663.88 -472.55 1558.35 -359.283 1535.15 -294.234C1518.32 -246.925 1544.7 -190.519 1571.99 -131.384C1594.28 -83.1654 1617.48 -33.5825 1621.58 18.7297C1623.85 45.1133 1602.02 140.185 1571.08 223.43C1568.81 227.979 1568.81 231.618 1570.63 234.347Z" fill="white"/>
<path d="M1639.32 175.211C1647.96 187.493 1665.7 188.858 1690.27 190.678C1692.99 190.678 1695.72 191.132 1698.45 191.132C1706.19 191.587 1714.37 192.042 1723.02 192.497C1763.05 193.862 1808.99 195.226 1849.93 232.982L1850.39 233.437C1873.13 253.452 1886.78 288.479 1898.6 319.866C1910.89 351.253 1920.89 378.092 1937.73 378.092C1938.18 378.092 1938.63 378.092 1939.09 378.092V376.727C1938.63 376.727 1938.18 376.727 1937.73 376.727C1922.26 376.727 1911.8 349.889 1899.97 319.411C1888.14 288.024 1874.5 252.997 1851.3 232.527L1850.84 232.072C1809.45 194.317 1763.5 192.497 1723.02 191.132C1714.37 190.677 1706.19 190.678 1698.45 189.768C1695.72 189.313 1692.99 189.313 1690.27 189.313C1665.7 187.493 1648.42 186.129 1640.23 174.302C1632.49 163.384 1633.86 142.459 1643.87 107.433C1653.42 74.6808 1656.6 45.1131 1654.33 16.455C1649.78 -42.2256 1625.22 -94.5378 1601.56 -145.485C1577 -198.707 1553.8 -248.745 1565.63 -282.862C1586.1 -340.178 1683.9 -441.163 1724.38 -446.622C1725.29 -446.622 1726.66 -447.077 1729.39 -447.077C1763.5 -447.077 1839.92 -418.874 1939.54 -357.918V-359.738C1840.38 -420.693 1763.5 -448.441 1729.39 -448.441C1727.11 -448.441 1725.29 -448.441 1724.38 -447.986C1683.44 -442.528 1584.73 -340.633 1564.26 -283.317C1551.98 -248.29 1575.18 -198.252 1600.2 -144.576C1623.85 -94.0829 1647.96 -41.3158 1652.51 16.91C1654.78 45.568 1651.14 75.1357 1642.05 107.433C1632.49 143.369 1631.58 163.384 1639.32 175.211Z" fill="white"/>
<path d="M810.056 586.43C877.834 578.697 958.35 498.181 980.184 436.771C1017.94 329.872 951.071 243.898 886.477 160.654C824.157 80.5932 765.477 4.62671 794.135 -87.7157C819.154 -168.231 899.669 -211.445 962.898 -211.445C997.015 -211.445 1026.13 -199.163 1045.69 -177.329C1068.89 -151.4 1077.99 -111.825 1072.07 -63.1517C1051.6 104.247 1045.69 287.568 1232.65 341.699C1254.03 348.068 1275.41 351.252 1295.42 351.252C1374.12 351.252 1424.16 306.218 1452.36 268.462C1506.49 196.135 1525.14 87.4165 1499.21 -1.2868C1476.92 -76.7984 1433.25 -149.581 1365.48 -224.637C1264.94 -336.085 1128.02 -432.067 946.523 -517.586L938.789 -521.225C862.368 -557.161 783.672 -594.462 700.883 -614.932C695.879 -616.297 690.42 -617.661 684.506 -619.026C659.033 -625.849 626.736 -634.492 599.442 -634.492C588.525 -634.492 578.972 -633.128 571.239 -630.398C559.412 -626.304 552.589 -618.116 546.22 -610.383C541.216 -604.47 536.668 -598.556 529.389 -594.007C524.84 -591.278 515.743 -587.639 506.19 -584C490.724 -578.086 474.803 -571.718 469.799 -566.259C460.246 -554.887 462.976 -548.063 465.25 -541.24C467.07 -536.691 468.889 -532.142 466.615 -525.319L464.795 -519.86C451.148 -479.375 451.148 -479.375 419.306 -470.277C413.393 -468.458 405.66 -466.183 396.562 -463.454C370.178 -455.266 359.716 -442.074 349.253 -429.792C341.065 -420.24 333.787 -411.142 319.686 -403.864C319.231 -403.864 318.776 -403.864 318.321 -403.864C301.945 -403.864 177.76 -395.676 168.208 -365.198C165.478 -357.01 171.392 -347.912 184.584 -338.814C201.414 -326.987 214.606 -325.623 222.794 -325.623C226.888 -325.623 230.527 -326.078 233.712 -326.532C236.896 -326.987 239.625 -326.987 242.354 -326.987C252.362 -326.987 262.37 -324.258 276.471 -290.141C279.655 -281.953 282.385 -274.675 284.659 -269.216C295.576 -241.013 295.576 -240.558 322.87 -229.186C329.693 -226.457 337.881 -222.818 348.798 -217.814C383.825 -201.438 391.103 -183.242 400.201 -160.043C405.205 -147.761 410.663 -133.659 420.671 -118.193C431.588 -101.362 444.78 -87.7157 457.062 -74.9788C479.352 -51.7795 500.276 -29.9448 507.1 6.44629C518.472 69.6758 484.355 130.176 445.69 186.127C427.039 213.421 388.374 244.808 346.979 278.015C277.381 334.876 198.685 399.015 198.23 458.606C198.23 492.723 206.873 518.651 224.159 535.937C243.264 555.042 271.922 564.14 311.952 564.14C370.178 564.14 442.051 544.58 505.28 527.294C555.318 513.647 598.078 501.82 625.826 501.82C632.194 501.82 637.198 502.275 641.292 503.64C667.676 511.373 689.055 528.204 709.07 544.58C735.909 565.96 761.383 586.43 798.229 586.43C802.323 587.34 806.417 586.885 810.056 586.43ZM642.657 500.911C638.108 499.546 632.649 499.091 626.281 499.091C598.532 499.091 555.318 510.918 505.28 524.565C442.051 541.851 370.633 561.411 312.862 561.411C273.287 561.411 245.539 552.313 227.343 534.118C210.512 517.287 202.324 491.813 202.324 459.061C202.779 400.835 281.02 337.151 349.708 281.199C390.648 247.537 429.769 216.15 448.874 188.402C487.994 131.996 522.566 71.0405 511.194 6.44629C504.37 -30.8546 482.991 -53.1442 460.246 -76.7984C447.964 -89.5353 434.772 -103.182 423.855 -119.558C413.848 -135.024 408.389 -148.671 403.385 -160.953C393.832 -185.062 386.554 -203.712 350.163 -220.543C339.246 -225.547 331.058 -229.186 324.234 -231.915C297.851 -243.288 297.851 -243.288 287.388 -270.126C285.114 -276.04 282.385 -282.863 279.2 -291.051C266.009 -323.803 255.546 -330.172 242.354 -330.172C239.625 -330.172 236.441 -329.717 233.712 -329.717C230.072 -329.262 226.888 -329.262 222.794 -329.262C214.151 -329.262 202.779 -330.626 186.403 -341.999C174.121 -350.641 169.117 -358.375 170.937 -365.198C179.125 -391.582 295.122 -401.589 317.866 -401.589C318.321 -401.589 318.776 -401.589 318.776 -401.589L319.231 -402.954L320.14 -401.589C335.152 -409.322 343.34 -418.875 351.528 -428.427C361.99 -441.164 371.998 -452.992 397.472 -461.18C406.569 -463.909 414.302 -466.183 420.216 -468.003C453.423 -477.556 453.878 -478.01 467.979 -519.86L469.799 -525.319C472.528 -533.052 470.254 -538.511 468.434 -543.514C466.16 -549.883 463.885 -555.342 472.528 -564.894C477.077 -570.353 493.453 -576.266 507.555 -581.725C517.107 -585.364 526.205 -589.003 531.209 -591.733C538.942 -596.282 543.946 -602.65 548.95 -608.564C555.318 -616.297 561.686 -623.575 572.604 -627.669C579.882 -630.398 588.98 -631.763 599.897 -631.763C626.736 -631.763 658.578 -623.12 684.052 -616.752C689.965 -615.387 695.424 -613.567 700.428 -612.658C783.217 -592.188 861.913 -554.887 937.88 -518.95L945.613 -515.311C1126.66 -429.792 1263.13 -334.266 1363.2 -223.273C1430.52 -148.671 1474.19 -75.8886 1496.03 -1.2868C1521.96 86.5067 1503.31 193.861 1449.63 265.733C1421.88 303.034 1372.3 347.158 1294.97 347.158C1274.95 347.158 1254.03 343.974 1233.1 338.06C1048.87 284.838 1054.79 102.883 1074.8 -63.1517C1080.71 -112.735 1071.62 -153.22 1047.96 -180.058C1027.95 -202.803 997.47 -215.085 962.898 -215.085C898.759 -215.085 816.879 -170.96 791.405 -89.0804C762.292 4.62671 824.612 84.6871 884.658 162.018C948.797 244.353 1014.76 329.872 977.91 434.952C956.53 495.452 877.379 575.057 810.511 582.336C806.872 582.791 803.232 582.79 799.593 582.79C764.112 582.79 739.093 562.775 712.71 541.396C691.33 526.384 669.95 509.099 642.657 500.911Z" fill="white"/>
</g>
<g filter="url(#filter0_f_503_57023)">
<circle cx="1827" cy="780" r="196" fill="url(#paint0_linear_503_57023)"/>
</g>
<g filter="url(#filter1_f_503_57023)">
<circle cx="196.5" cy="174.5" r="321.5" fill="url(#paint1_linear_503_57023)"/>
</g>
</g>
<defs>
<filter id="filter0_f_503_57023" x="1231" y="184" width="1192" height="1192" filterUnits="userSpaceOnUse" color-interpolation-filters="sRGB">
<feFlood flood-opacity="0" result="BackgroundImageFix"/>
<feBlend mode="normal" in="SourceGraphic" in2="BackgroundImageFix" result="shape"/>
<feGaussianBlur stdDeviation="200" result="effect1_foregroundBlur_503_57023"/>
</filter>
<filter id="filter1_f_503_57023" x="-525" y="-547" width="1443" height="1443" filterUnits="userSpaceOnUse" color-interpolation-filters="sRGB">
<feFlood flood-opacity="0" result="BackgroundImageFix"/>
<feBlend mode="normal" in="SourceGraphic" in2="BackgroundImageFix" result="shape"/>
<feGaussianBlur stdDeviation="200" result="effect1_foregroundBlur_503_57023"/>
</filter>
<linearGradient id="paint0_linear_503_57023" x1="1827" y1="584" x2="1827" y2="976" gradientUnits="userSpaceOnUse">
<stop stop-color="#0019FF"/>
<stop offset="1" stop-color="#00FFAD"/>
</linearGradient>
<linearGradient id="paint1_linear_503_57023" x1="196.5" y1="-147" x2="196.5" y2="496" gradientUnits="userSpaceOnUse">
<stop stop-color="#0019FF"/>
<stop offset="1" stop-color="#00FFAD"/>
</linearGradient>
<clipPath id="clip0_503_57023">
<rect width="1920" height="398" fill="white"/>
</clipPath>
<clipPath id="clip1_503_57023">
<rect width="2047" height="2047" fill="white" transform="translate(-107 -1068)"/>
</clipPath>
</defs>
</svg>
