<svg width="23" height="48" viewBox="0 0 23 48" fill="none" xmlns="http://www.w3.org/2000/svg">
<path d="M13.3914 24.315V22.7313V9.71372V8.48242L8.69556 13.1783V14.4095V27.2913L9.91835 26.1025C11.6634 24.6929 13.3914 24.315 13.3914 24.315Z" fill="url(#paint0_linear_201_35278)"/>
<path d="M17.3694 4.75103V22.1673C17.3694 22.1673 17.3906 24.1926 17.3694 24.235C20.6854 25.0502 22.1205 27.292 22.1205 27.292V17.5776V0L17.3694 4.75103Z" fill="url(#paint1_linear_201_35278)"/>
<path d="M20.1293 27.2148C19.1401 26.2255 17.8409 25.5419 16.3931 25.3211C16.3421 25.3127 16.2869 25.3041 16.236 25.2999C15.9558 25.2659 15.6713 25.2447 15.3868 25.2447C15.0939 25.2447 14.8094 25.2659 14.5292 25.2999C13.7776 25.3975 13.0686 25.6183 12.419 25.941C11.1197 26.5821 10.0583 27.6309 9.40022 28.9216C8.93318 29.8344 8.67418 30.8619 8.67418 31.9615V40.6272C8.67418 41.7014 7.79955 42.5718 6.72112 42.5718C5.65117 42.5718 4.77653 41.7014 4.77653 40.6272V27.6266L4.77228 27.6308V22.5529V20.5319V17.1055L0 21.8736V26.0981L0.00424995 26.0939V35.2605L0 35.2733L0.0127239 35.2605V40.6272C0.0127239 40.9669 0.0382174 41.3066 0.0849213 41.6335C0.101904 41.7184 0.114632 41.8076 0.127369 41.8882C0.386363 43.2341 1.04446 44.4357 1.97853 45.3698C2.96781 46.3591 4.27127 47.0427 5.71909 47.2634C6.05026 47.3059 6.38143 47.3356 6.72534 47.3356C10.4277 47.3356 13.438 44.3253 13.438 40.623V31.9573C13.438 30.8831 14.3126 30.0085 15.3868 30.0085C16.461 30.0085 17.3356 30.8831 17.3314 31.9573L17.3356 35.6384V39.5913L17.3314 44.9537V47.3356H22.0994V31.9573C22.0994 31.6177 22.0739 31.278 22.023 30.9511C21.8064 29.5075 21.1186 28.2083 20.1293 27.2148Z" fill="url(#paint2_linear_201_35278)"/>
<defs>
<linearGradient id="paint0_linear_201_35278" x1="10.6512" y1="8.70605" x2="12.334" y2="47.9699" gradientUnits="userSpaceOnUse">
<stop stop-color="#00FFAD"/>
<stop offset="0.1466" stop-color="#00E3B7"/>
<stop offset="0.4631" stop-color="#009DD0"/>
<stop offset="0.9223" stop-color="#002DF8"/>
<stop offset="0.9995" stop-color="#0019FF"/>
</linearGradient>
<linearGradient id="paint1_linear_201_35278" x1="19.584" y1="8.32389" x2="21.2667" y2="47.5877" gradientUnits="userSpaceOnUse">
<stop stop-color="#00FFAD"/>
<stop offset="0.1466" stop-color="#00E3B7"/>
<stop offset="0.4631" stop-color="#009DD0"/>
<stop offset="0.9223" stop-color="#002DF8"/>
<stop offset="0.9995" stop-color="#0019FF"/>
</linearGradient>
<linearGradient id="paint2_linear_201_35278" x1="9.87234" y1="8.73927" x2="11.5551" y2="48.0032" gradientUnits="userSpaceOnUse">
<stop stop-color="#00FFAD"/>
<stop offset="0.1466" stop-color="#00E3B7"/>
<stop offset="0.4631" stop-color="#009DD0"/>
<stop offset="0.9223" stop-color="#002DF8"/>
<stop offset="0.9995" stop-color="#0019FF"/>
</linearGradient>
</defs>
</svg>
