<svg width="199" height="56" viewBox="0 0 199 56" fill="none" xmlns="http://www.w3.org/2000/svg">
<path d="M15.7685 28.8756V27.0107V11.6823V10.2324L10.239 15.7618V17.2117V32.3802L11.6789 30.9803C13.7337 29.3205 15.7685 28.8756 15.7685 28.8756Z" fill="#F2F2F2"/>
<path d="M20.4529 5.83855V26.3465C20.4529 26.3465 20.4779 28.7313 20.4529 28.7813C24.3575 29.7412 26.0473 32.3809 26.0473 32.3809V20.9421V0.244141L20.4529 5.83855Z" fill="#F2F2F2"/>
<path d="M23.7026 32.2906C22.5377 31.1257 21.0079 30.3208 19.3031 30.0608C19.2431 30.0508 19.1781 30.0408 19.1181 30.0358C18.7881 29.9958 18.4531 29.9708 18.1182 29.9708C17.7732 29.9708 17.4382 29.9958 17.1083 30.0358C16.2234 30.1508 15.3885 30.4107 14.6235 30.7907C13.0937 31.5456 11.8438 32.7805 11.0689 34.3004C10.5189 35.3753 10.214 36.5851 10.214 37.88V48.084C10.214 49.3488 9.18407 50.3738 7.9142 50.3738C6.65432 50.3738 5.62444 49.3488 5.62444 48.084V32.7755L5.61943 32.7805V26.8011V24.4213V20.3867L0 26.0012V30.9757L0.00499675 30.9707V41.7646L0 41.7796L0.0149979 41.7646V48.084C0.0149979 48.4839 0.044994 48.8839 0.0999884 49.2688C0.119986 49.3688 0.13498 49.4738 0.149979 49.5688C0.454948 51.1536 1.22987 52.5685 2.32976 53.6684C3.49464 54.8333 5.02949 55.6382 6.73432 55.8982C7.12428 55.9482 7.51424 55.9832 7.9192 55.9832C12.2788 55.9832 15.8234 52.4385 15.8234 48.0789V37.875C15.8234 36.6101 16.8533 35.5802 18.1182 35.5802C19.383 35.5802 20.4129 36.6101 20.4079 37.875L20.4129 42.2095V46.8641L20.4079 53.1785V55.9832H26.0224V37.875C26.0224 37.4751 25.9924 37.0751 25.9324 36.6901C25.6774 34.9903 24.8675 33.4604 23.7026 32.2906Z" fill="#F2F2F2"/>
<path d="M65.1584 27.067C63.6635 25.4122 61.6737 24.5973 59.164 24.5973L45.4254 24.6023C45.3954 24.6023 45.3504 24.6023 45.3204 24.5923H44.5405C41.9157 24.5923 41.5808 20.4477 44.5605 20.4477L63.8835 20.4427L68.603 14.6133L44.6404 14.6183C42.1607 14.6183 40.2159 15.3832 38.771 16.958C37.8011 17.9929 37.1312 19.1578 36.7812 20.4527C36.7812 20.4527 36.0763 22.7824 36.6713 24.5973C36.9712 26.0971 37.6561 27.437 38.721 28.6169C40.2159 30.2717 42.1757 31.0766 44.5705 31.0766L58.979 31.0716C59.5889 31.0716 60.0789 31.3066 60.4988 31.7865C60.9088 32.2315 61.1238 32.7915 61.1238 33.4414C61.1188 34.0813 60.8988 34.6413 60.4639 35.1062C60.0189 35.5812 59.484 35.8211 58.854 35.8211L38.626 35.8261L36.7212 41.6756L59.089 41.6706C61.5338 41.6706 63.5435 40.8106 65.1084 39.0958C66.6582 37.401 67.4431 35.3662 67.4531 33.0064C67.4631 30.7266 66.6932 28.7519 65.1584 27.067Z" fill="#F2F2F2"/>
<path d="M165.193 14.5675V20.4569H146.575C143.756 20.4569 141.291 21.9818 139.961 24.2515C139.291 25.3914 138.911 26.7262 138.916 28.1461C138.921 29.126 139.111 30.0659 139.451 30.9208C140.586 33.7706 143.406 35.7753 146.655 35.7753H165.193V41.6648H146.575C146.465 41.6648 146.36 41.6648 146.255 41.6598H146.25C141.761 41.5548 137.811 39.265 135.426 35.8154C133.912 33.6306 133.027 30.9758 133.027 28.1161C133.027 27.0662 133.147 26.0464 133.372 25.0664C134.666 19.432 139.481 15.1374 145.375 14.6175H145.38C145.775 14.5825 146.175 14.5625 146.58 14.5625H165.193V14.5675Z" fill="#F2F2F2"/>
<path d="M131.442 14.5684H99.2699V20.4577H131.442V14.5684Z" fill="#F2F2F2"/>
<path d="M131.442 25.1973H99.2698V31.0867H131.442V25.1973Z" fill="#F2F2F2"/>
<path d="M131.442 35.7812H99.2698V41.6707H131.442V35.7812Z" fill="#F2F2F2"/>
<path d="M97.6901 14.7227V20.572H95.4403L95.4353 20.577L84.5014 20.5821H77.7021V20.5871H67.8831H65.5183L70.2028 14.7327L77.9521 14.7277L97.6901 14.7227Z" fill="#F2F2F2"/>
<path d="M84.5353 41.6651V20.5723H78.6759V41.6651H84.5353Z" fill="#F2F2F2"/>
<path d="M172.653 14.5684H166.763V41.6706H172.653V14.5684Z" fill="#F2F2F2"/>
<path d="M199 14.5684H193.111V41.6706H199V14.5684Z" fill="#F2F2F2"/>
<path d="M199 25.1719V31.0613H174.492L177.727 25.1719H199Z" fill="#F2F2F2"/>
</svg>
