<svg width="122" height="34" viewBox="0 0 122 34" fill="none" xmlns="http://www.w3.org/2000/svg">
<path d="M9.61848 17.4658V16.3283V6.97815V6.09375L6.24561 9.46661V10.351V19.6035L7.1239 18.7497C8.37729 17.7372 9.61848 17.4658 9.61848 17.4658Z" fill="url(#paint0_linear_330_47612)"/>
<path d="M12.4761 3.4125V15.922C12.4761 15.922 12.4913 17.3767 12.4761 17.4072C14.8578 17.9927 15.8886 19.6029 15.8886 19.6029V12.6254V0L12.4761 3.4125Z" fill="url(#paint1_linear_330_47612)"/>
<path d="M14.4582 19.5483C13.7477 18.8377 12.8145 18.3467 11.7746 18.1882C11.738 18.1821 11.6984 18.1759 11.6618 18.1729C11.4605 18.1485 11.2562 18.1332 11.0518 18.1332C10.8414 18.1332 10.6371 18.1485 10.4358 18.1729C9.89602 18.243 9.38671 18.4016 8.92012 18.6334C7.98693 19.0939 7.22455 19.8471 6.75186 20.7742C6.4164 21.4299 6.23037 22.1679 6.23037 22.9577V29.182C6.23037 29.9536 5.60215 30.5788 4.82755 30.5788C4.05905 30.5788 3.43082 29.9536 3.43082 29.182V19.8441L3.42777 19.8471V16.1998V14.7482V12.2871L0 15.7119V18.7462L0.0030526 18.7432V25.3273L0 25.3364L0.00913918 25.3273V29.182C0.00913918 29.426 0.0274503 29.6699 0.0609961 29.9048C0.0731946 29.9658 0.082336 30.0298 0.0914848 30.0877C0.277512 31.0545 0.750198 31.9175 1.42111 32.5884C2.13168 33.299 3.06791 33.79 4.10783 33.9486C4.3457 33.9791 4.58357 34.0004 4.83059 34.0004C7.48985 34.0004 9.65203 31.8382 9.65203 29.179V22.9547C9.65203 22.1832 10.2803 21.5549 11.0518 21.5549C11.8234 21.5549 12.4516 22.1832 12.4485 22.9547L12.4516 25.5987V28.4379L12.4485 32.2896V34.0004H15.8733V22.9547C15.8733 22.7107 15.8549 22.4668 15.8184 22.2319C15.6628 21.1951 15.1688 20.2619 14.4582 19.5483Z" fill="url(#paint2_linear_330_47612)"/>
<path d="M39.7459 16.3622C38.8341 15.3528 37.6203 14.8557 36.0894 14.8557L27.7091 14.8588C27.6908 14.8588 27.6633 14.8588 27.645 14.8527H27.1693C25.5682 14.8527 25.3639 12.3245 27.1815 12.3245L38.9683 12.3215L41.8471 8.76562L27.2303 8.76868C25.7177 8.76868 24.5314 9.23525 23.65 10.1959C23.0584 10.8271 22.6498 11.5377 22.4363 12.3276C22.4363 12.3276 22.0063 13.7487 22.3692 14.8557C22.5522 15.7706 22.97 16.5879 23.6195 17.3076C24.5314 18.317 25.7268 18.808 27.1876 18.808L35.9766 18.8049C36.3486 18.8049 36.6475 18.9483 36.9037 19.2411C37.1537 19.5125 37.2849 19.854 37.2849 20.2505C37.2818 20.6408 37.1476 20.9824 36.8823 21.266C36.6109 21.5557 36.2846 21.7021 35.9004 21.7021L23.5616 21.7051L22.3997 25.2732L36.0437 25.2702C37.5349 25.2702 38.7609 24.7456 39.7154 23.6996C40.6608 22.6658 41.1396 21.4246 41.1457 19.9851C41.1518 18.5945 40.6822 17.39 39.7459 16.3622Z" fill="url(#paint3_linear_330_47612)"/>
<path d="M100.766 8.73743V12.3298H89.409C87.689 12.3298 86.1855 13.26 85.3744 14.6445C84.9657 15.3398 84.7339 16.1541 84.737 17.0202C84.74 17.6179 84.8559 18.1912 85.0633 18.7127C85.7555 20.451 87.4755 21.6739 89.4578 21.6739H100.766V25.2663H89.409C89.3419 25.2663 89.2779 25.2663 89.2138 25.2633H89.2108C86.4722 25.1992 84.063 23.8025 82.6083 21.6983C81.6843 20.3656 81.1445 18.7463 81.1445 17.0019C81.1445 16.3615 81.2177 15.7394 81.3549 15.1416C82.1448 11.7047 85.0816 9.08508 88.6771 8.76792H88.6801C88.921 8.74657 89.165 8.73438 89.412 8.73438H100.766V8.73743Z" fill="url(#paint4_linear_330_47612)"/>
<path d="M80.1775 8.73828H60.5532V12.3307H80.1775V8.73828Z" fill="url(#paint5_linear_330_47612)"/>
<path d="M80.1775 15.2227H60.5532V18.8151H80.1775V15.2227Z" fill="url(#paint6_linear_330_47612)"/>
<path d="M80.1775 21.6777H60.5532V25.2702H80.1775V21.6777Z" fill="url(#paint7_linear_330_47612)"/>
<path d="M59.5896 8.83203V12.4001H58.2173L58.2142 12.4031L51.5447 12.4062H47.3973V12.4092H41.4078H39.9653L42.8228 8.83814L47.5497 8.83508L59.5896 8.83203Z" fill="url(#paint8_linear_330_47612)"/>
<path d="M47.9922 12.4004V25.2698H51.5664V12.4004H47.9922Z" fill="url(#paint9_linear_330_47612)"/>
<path d="M105.316 8.73828H101.723V25.2703H105.316V8.73828Z" fill="url(#paint10_linear_330_47612)"/>
<path d="M121.387 8.73828H117.795V25.2703H121.387V8.73828Z" fill="url(#paint11_linear_330_47612)"/>
<path d="M121.387 15.207V18.7995H106.438L108.411 15.207H121.387Z" fill="url(#paint12_linear_330_47612)"/>
<defs>
<linearGradient id="paint0_linear_330_47612" x1="7.65029" y1="6.25437" x2="8.85894" y2="34.4563" gradientUnits="userSpaceOnUse">
<stop stop-color="#00FFAD"/>
<stop offset="0.1466" stop-color="#00E3B7"/>
<stop offset="0.4631" stop-color="#009DD0"/>
<stop offset="0.9223" stop-color="#002DF8"/>
<stop offset="0.9995" stop-color="#0019FF"/>
</linearGradient>
<linearGradient id="paint1_linear_330_47612" x1="14.0667" y1="5.97877" x2="15.2754" y2="34.1807" gradientUnits="userSpaceOnUse">
<stop stop-color="#00FFAD"/>
<stop offset="0.1466" stop-color="#00E3B7"/>
<stop offset="0.4631" stop-color="#009DD0"/>
<stop offset="0.9223" stop-color="#002DF8"/>
<stop offset="0.9995" stop-color="#0019FF"/>
</linearGradient>
<linearGradient id="paint2_linear_330_47612" x1="7.09097" y1="6.27795" x2="8.29963" y2="34.4799" gradientUnits="userSpaceOnUse">
<stop stop-color="#00FFAD"/>
<stop offset="0.1466" stop-color="#00E3B7"/>
<stop offset="0.4631" stop-color="#009DD0"/>
<stop offset="0.9223" stop-color="#002DF8"/>
<stop offset="0.9995" stop-color="#0019FF"/>
</linearGradient>
<linearGradient id="paint3_linear_330_47612" x1="21.3982" y1="15.2269" x2="122.724" y2="32.1481" gradientUnits="userSpaceOnUse">
<stop stop-color="#00FFAD"/>
<stop offset="0.1466" stop-color="#00E3B7"/>
<stop offset="0.4631" stop-color="#009DD0"/>
<stop offset="0.9223" stop-color="#002DF8"/>
<stop offset="0.9995" stop-color="#0019FF"/>
</linearGradient>
<linearGradient id="paint4_linear_330_47612" x1="23.0996" y1="5.03885" x2="124.425" y2="21.96" gradientUnits="userSpaceOnUse">
<stop stop-color="#00FFAD"/>
<stop offset="0.1466" stop-color="#00E3B7"/>
<stop offset="0.4631" stop-color="#009DD0"/>
<stop offset="0.9223" stop-color="#002DF8"/>
<stop offset="0.9995" stop-color="#0019FF"/>
</linearGradient>
<linearGradient id="paint5_linear_330_47612" x1="23.489" y1="2.70564" x2="124.814" y2="19.6269" gradientUnits="userSpaceOnUse">
<stop stop-color="#00FFAD"/>
<stop offset="0.1466" stop-color="#00E3B7"/>
<stop offset="0.4631" stop-color="#009DD0"/>
<stop offset="0.9223" stop-color="#002DF8"/>
<stop offset="0.9995" stop-color="#0019FF"/>
</linearGradient>
<linearGradient id="paint6_linear_330_47612" x1="22.4356" y1="9.01453" x2="123.761" y2="25.9356" gradientUnits="userSpaceOnUse">
<stop stop-color="#00FFAD"/>
<stop offset="0.1466" stop-color="#00E3B7"/>
<stop offset="0.4631" stop-color="#009DD0"/>
<stop offset="0.9223" stop-color="#002DF8"/>
<stop offset="0.9995" stop-color="#0019FF"/>
</linearGradient>
<linearGradient id="paint7_linear_330_47612" x1="21.3869" y1="15.2933" x2="122.712" y2="32.2144" gradientUnits="userSpaceOnUse">
<stop stop-color="#00FFAD"/>
<stop offset="0.1466" stop-color="#00E3B7"/>
<stop offset="0.4631" stop-color="#009DD0"/>
<stop offset="0.9223" stop-color="#002DF8"/>
<stop offset="0.9995" stop-color="#0019FF"/>
</linearGradient>
<linearGradient id="paint8_linear_330_47612" x1="22.9161" y1="6.13575" x2="124.242" y2="23.0569" gradientUnits="userSpaceOnUse">
<stop stop-color="#00FFAD"/>
<stop offset="0.1466" stop-color="#00E3B7"/>
<stop offset="0.4631" stop-color="#009DD0"/>
<stop offset="0.9223" stop-color="#002DF8"/>
<stop offset="0.9995" stop-color="#0019FF"/>
</linearGradient>
<linearGradient id="paint9_linear_330_47612" x1="21.5819" y1="14.1261" x2="122.908" y2="31.0475" gradientUnits="userSpaceOnUse">
<stop stop-color="#00FFAD"/>
<stop offset="0.1466" stop-color="#00E3B7"/>
<stop offset="0.4631" stop-color="#009DD0"/>
<stop offset="0.9223" stop-color="#002DF8"/>
<stop offset="0.9995" stop-color="#0019FF"/>
</linearGradient>
<linearGradient id="paint10_linear_330_47612" x1="23.3373" y1="3.61285" x2="124.663" y2="20.5341" gradientUnits="userSpaceOnUse">
<stop stop-color="#00FFAD"/>
<stop offset="0.1466" stop-color="#00E3B7"/>
<stop offset="0.4631" stop-color="#009DD0"/>
<stop offset="0.9223" stop-color="#002DF8"/>
<stop offset="0.9995" stop-color="#0019FF"/>
</linearGradient>
<linearGradient id="paint11_linear_330_47612" x1="23.7733" y1="1.00204" x2="125.099" y2="17.9233" gradientUnits="userSpaceOnUse">
<stop stop-color="#00FFAD"/>
<stop offset="0.1466" stop-color="#00E3B7"/>
<stop offset="0.4631" stop-color="#009DD0"/>
<stop offset="0.9223" stop-color="#002DF8"/>
<stop offset="0.9995" stop-color="#0019FF"/>
</linearGradient>
<linearGradient id="paint12_linear_330_47612" x1="23.6193" y1="1.92515" x2="124.945" y2="18.8463" gradientUnits="userSpaceOnUse">
<stop stop-color="#00FFAD"/>
<stop offset="0.1466" stop-color="#00E3B7"/>
<stop offset="0.4631" stop-color="#009DD0"/>
<stop offset="0.9223" stop-color="#002DF8"/>
<stop offset="0.9995" stop-color="#0019FF"/>
</linearGradient>
</defs>
</svg>
