<svg width="79" height="142" viewBox="0 0 79 142" fill="none" xmlns="http://www.w3.org/2000/svg">
<path d="M47.8338 31.166V59.6382C47.8338 59.6382 41.666 60.9895 35.4401 66.0215L31.0713 70.2619V47.9326L47.8338 31.166Z" fill="url(#paint0_linear_159_46690)"/>
<path d="M78.9998 0V70.2623C78.9998 70.2623 73.8641 62.2541 62.0342 59.3484C62.1171 59.2034 62.0342 51.9744 62.0342 51.9744V16.9656L78.9998 0Z" fill="url(#paint1_linear_159_46690)"/>
<path d="M78.9171 86.9469V96.7623L61.9142 113.765V100.082L61.8976 86.9469C61.9142 83.1086 58.7889 79.9874 54.9506 79.9874C51.1123 79.9874 47.9869 83.1127 47.9869 86.9469V117.881C47.9869 123.817 45.8232 129.255 42.2336 133.45C41.4212 134.399 40.5383 135.286 39.585 136.099C35.3985 139.684 29.9602 141.852 24.0163 141.852C22.7852 141.852 21.5956 141.752 20.4184 141.595C15.2495 140.807 10.6071 138.358 7.06726 134.83C3.74295 131.493 1.39272 127.195 0.460091 122.395C0.402061 122.093 0.360622 121.782 0.302591 121.479C0.132645 120.306 0.0455892 119.1 0.0455892 117.881V98.7271L0 98.7685L0.0165836 98.7271V78.9843L17.036 61.9648V71.4942L17.0526 71.4777V117.881C17.0526 121.719 20.1738 124.828 23.9997 124.828C27.8504 124.828 30.9758 121.719 30.9758 117.881V86.9469C30.9758 83.0381 31.9084 79.3574 33.5664 76.1035C35.9166 71.4901 39.6969 67.7513 44.3393 65.4591C46.6605 64.2985 49.1973 63.5109 51.875 63.1669C52.8781 63.0384 53.8936 62.9679 54.9423 62.9679C55.9578 62.9679 56.9733 63.0425 57.9806 63.1669C58.1671 63.1835 58.3536 63.2084 58.536 63.2374C63.709 64.0249 68.3348 66.4622 71.8747 70.002C75.4145 73.5419 77.8643 78.1843 78.6394 83.3573C78.83 84.5262 78.9171 85.7282 78.9171 86.9469Z" fill="url(#paint2_linear_159_46690)"/>
<defs>
<linearGradient id="paint0_linear_159_46690" x1="39.6352" y1="30.1763" x2="38.7943" y2="138.226" gradientUnits="userSpaceOnUse">
<stop stop-color="#00FFAD"/>
<stop offset="0.1466" stop-color="#00E3B7"/>
<stop offset="0.4631" stop-color="#009DD0"/>
<stop offset="0.9223" stop-color="#002DF8"/>
<stop offset="0.9995" stop-color="#0019FF"/>
</linearGradient>
<linearGradient id="paint1_linear_159_46690" x1="70.6208" y1="30.4178" x2="69.7799" y2="138.468" gradientUnits="userSpaceOnUse">
<stop stop-color="#00FFAD"/>
<stop offset="0.1466" stop-color="#00E3B7"/>
<stop offset="0.4631" stop-color="#009DD0"/>
<stop offset="0.9223" stop-color="#002DF8"/>
<stop offset="0.9995" stop-color="#0019FF"/>
</linearGradient>
<linearGradient id="paint2_linear_159_46690" x1="39.9178" y1="30.1798" x2="39.0769" y2="138.23" gradientUnits="userSpaceOnUse">
<stop stop-color="#00FFAD"/>
<stop offset="0.1466" stop-color="#00E3B7"/>
<stop offset="0.4631" stop-color="#009DD0"/>
<stop offset="0.9223" stop-color="#002DF8"/>
<stop offset="0.9995" stop-color="#0019FF"/>
</linearGradient>
</defs>
</svg>
