<?xml version="1.0" encoding="utf-8"?>
<!-- Generator: Adobe Illustrator 26.0.3, SVG Export Plug-In . SVG Version: 6.00 Build 0)  -->
<svg version="1.1" id="Layer_1" xmlns="http://www.w3.org/2000/svg" xmlns:xlink="http://www.w3.org/1999/xlink" x="0px" y="0px"
	 viewBox="0 0 513 166" style="enable-background:new 0 0 513 166;" xml:space="preserve">
<style type="text/css">
	.st0{fill:#FFFFFF;}
	.st1{fill:url(#SVGID_1_);}
	.st2{fill:#080A26;}
	.st3{fill:#5CDE96;}
	.st4{fill:#00B753;}
	.st5{fill:url(#SVGID_00000117639971978784722270000000972340547268335286_);}
	.st6{fill:url(#SVGID_00000148660993613922079990000012281491277354682533_);}
</style>
<g>
	<rect x="-0.13" y="-0.45" class="st0" width="173.61" height="166.89"/>
	
		<linearGradient id="SVGID_1_" gradientUnits="userSpaceOnUse" x1="155.5818" y1="172.8853" x2="510.3726" y2="6.7849" gradientTransform="matrix(1 0 0 -1 0 168)">
		<stop  offset="0" style="stop-color:#00FFAD"/>
		<stop  offset="0.1466" style="stop-color:#00E3B7"/>
		<stop  offset="0.4631" style="stop-color:#009DD0"/>
		<stop  offset="0.9223" style="stop-color:#002DF8"/>
		<stop  offset="0.9995" style="stop-color:#0019FF"/>
	</linearGradient>
	<rect x="173.48" y="-0.45" class="st1" width="339.65" height="166.89"/>
	<g>
		<g>
			<path class="st0" d="M226.5,85.92c0,0.61-0.16,1.13-0.48,1.57s-0.74,0.77-1.26,1.01c-0.52,0.24-1.11,0.35-1.76,0.35h-5.42V77.49
				h5.86c0.53,0,1,0.14,1.38,0.42c0.39,0.28,0.69,0.65,0.9,1.09s0.31,0.9,0.31,1.38c0,0.54-0.14,1.06-0.42,1.55
				s-0.69,0.85-1.21,1.09c0.65,0.19,1.17,0.54,1.54,1.06C226.31,84.59,226.5,85.21,226.5,85.92z M219.38,79.03v3.38h3.28
				c0.3,0,0.57-0.07,0.8-0.22s0.42-0.35,0.56-0.6c0.14-0.25,0.21-0.54,0.21-0.86c0-0.33-0.06-0.62-0.18-0.87s-0.3-0.45-0.52-0.6
				c-0.22-0.15-0.48-0.22-0.77-0.22h-3.38V79.03z M224.67,85.59c0-0.32-0.07-0.61-0.21-0.88s-0.32-0.48-0.55-0.64
				s-0.5-0.24-0.81-0.24h-3.73v3.49h3.62c0.32,0,0.61-0.08,0.86-0.25s0.45-0.38,0.6-0.63S224.67,85.9,224.67,85.59z"/>
			<path class="st0" d="M227.84,77.17h1.76v9.31c0,0.42,0.06,0.69,0.19,0.81s0.29,0.18,0.48,0.18c0.2,0,0.4-0.03,0.6-0.08
				s0.36-0.1,0.49-0.14l0.26,1.38c-0.26,0.11-0.56,0.2-0.91,0.27s-0.67,0.11-0.94,0.11c-0.61,0-1.08-0.17-1.42-0.51
				s-0.5-0.8-0.5-1.4v-9.93H227.84z"/>
			<path class="st0" d="M236.4,89.02c-0.66,0-1.25-0.11-1.78-0.34c-0.52-0.23-0.97-0.54-1.35-0.94s-0.67-0.86-0.87-1.37
				c-0.2-0.51-0.3-1.05-0.3-1.62c0-0.59,0.1-1.14,0.3-1.66c0.2-0.51,0.49-0.97,0.87-1.37s0.83-0.72,1.36-0.94
				c0.53-0.23,1.12-0.34,1.77-0.34c0.66,0,1.25,0.11,1.77,0.34c0.52,0.23,0.97,0.54,1.35,0.94s0.68,0.86,0.88,1.37
				s0.3,1.07,0.3,1.66c0,0.57-0.1,1.11-0.3,1.62c-0.2,0.51-0.49,0.97-0.87,1.37s-0.83,0.72-1.36,0.94
				C237.64,88.9,237.05,89.02,236.4,89.02z M233.9,84.71c0,0.54,0.11,1.02,0.34,1.44c0.22,0.42,0.52,0.75,0.9,0.99
				s0.79,0.36,1.25,0.36c0.48,0,0.91-0.12,1.28-0.36s0.67-0.58,0.9-1.01c0.22-0.43,0.34-0.9,0.34-1.42c0-0.53-0.11-1-0.34-1.43
				c-0.22-0.43-0.53-0.76-0.9-1c-0.38-0.24-0.8-0.36-1.26-0.36c-0.47,0-0.89,0.13-1.26,0.38s-0.67,0.59-0.9,1.01
				S233.9,84.21,233.9,84.71z"/>
			<path class="st0" d="M246.06,89.02c-0.65,0-1.24-0.11-1.77-0.34c-0.53-0.23-0.98-0.54-1.37-0.95c-0.38-0.41-0.68-0.87-0.89-1.39
				c-0.21-0.52-0.31-1.06-0.31-1.63c0-0.78,0.18-1.5,0.53-2.15s0.86-1.17,1.51-1.55c0.66-0.39,1.42-0.58,2.3-0.58
				c0.85,0,1.6,0.19,2.23,0.57s1.11,0.88,1.42,1.51l-1.73,0.53c-0.19-0.34-0.46-0.61-0.8-0.81s-0.73-0.3-1.15-0.3
				c-0.47,0-0.89,0.12-1.27,0.36s-0.68,0.56-0.9,0.98s-0.33,0.9-0.33,1.44s0.11,1.02,0.34,1.44c0.22,0.42,0.53,0.75,0.91,1
				s0.8,0.37,1.26,0.37c0.29,0,0.57-0.05,0.83-0.15s0.5-0.24,0.71-0.42s0.35-0.37,0.44-0.58l1.71,0.53
				c-0.18,0.41-0.45,0.77-0.8,1.09c-0.35,0.32-0.77,0.57-1.26,0.76S246.65,89.02,246.06,89.02z"/>
			<path class="st0" d="M257.04,88.85l-2.69-3.82l-1.38,1.29v2.53h-1.76V77.17h1.76v7.38l3.87-4.01h1.89l-3.23,3.48l3.42,4.82h-1.88
				V88.85z"/>
			<path class="st0" d="M263.77,89.02c-0.65,0-1.24-0.11-1.77-0.34c-0.53-0.23-0.98-0.54-1.37-0.95c-0.38-0.41-0.68-0.87-0.89-1.39
				c-0.21-0.52-0.31-1.06-0.31-1.63c0-0.78,0.18-1.5,0.53-2.15s0.86-1.17,1.51-1.55c0.66-0.39,1.42-0.58,2.3-0.58
				c0.85,0,1.6,0.19,2.23,0.57s1.11,0.88,1.42,1.51l-1.73,0.53c-0.19-0.34-0.46-0.61-0.8-0.81s-0.73-0.3-1.15-0.3
				c-0.47,0-0.89,0.12-1.27,0.36s-0.68,0.56-0.9,0.98s-0.33,0.9-0.33,1.44s0.11,1.02,0.34,1.44c0.22,0.42,0.53,0.75,0.91,1
				s0.8,0.37,1.26,0.37c0.29,0,0.57-0.05,0.83-0.15s0.5-0.24,0.71-0.42s0.35-0.37,0.44-0.58l1.71,0.53
				c-0.18,0.41-0.45,0.77-0.8,1.09c-0.35,0.32-0.77,0.57-1.26,0.76S264.36,89.02,263.77,89.02z"/>
			<path class="st0" d="M276.43,88.85h-1.74v-4.63c0-0.75-0.14-1.31-0.42-1.68s-0.67-0.55-1.18-0.55c-0.32,0-0.64,0.08-0.97,0.25
				s-0.61,0.4-0.86,0.68c-0.25,0.29-0.44,0.62-0.57,1v4.93h-1.76V77.17h1.76v5.04c0.32-0.56,0.76-1,1.31-1.32s1.15-0.48,1.79-0.48
				c0.53,0,0.97,0.09,1.3,0.27c0.34,0.18,0.6,0.43,0.8,0.74c0.2,0.31,0.34,0.67,0.42,1.07c0.08,0.4,0.12,0.83,0.12,1.3V88.85z"/>
			<path class="st0" d="M277.87,86.43c0-0.53,0.15-0.99,0.46-1.39c0.3-0.4,0.72-0.7,1.26-0.92s1.15-0.33,1.85-0.33
				c0.37,0,0.75,0.03,1.14,0.09c0.38,0.06,0.73,0.14,1.04,0.25v-0.52c0-0.58-0.18-1.03-0.53-1.35c-0.35-0.33-0.86-0.49-1.52-0.49
				c-0.47,0-0.91,0.08-1.33,0.24c-0.42,0.16-0.86,0.4-1.33,0.72l-0.58-1.2c0.53-0.36,1.08-0.64,1.65-0.82s1.16-0.28,1.78-0.28
				c1.12,0,2,0.29,2.64,0.88s0.96,1.42,0.96,2.49v3.08c0,0.2,0.04,0.34,0.11,0.43c0.07,0.08,0.2,0.13,0.37,0.14v1.41
				c-0.16,0.03-0.3,0.05-0.42,0.06c-0.12,0.01-0.23,0.02-0.31,0.03c-0.38-0.01-0.67-0.11-0.86-0.29c-0.19-0.18-0.3-0.39-0.34-0.64
				l-0.05-0.48c-0.35,0.47-0.81,0.83-1.38,1.09s-1.14,0.38-1.72,0.38c-0.55,0-1.05-0.11-1.49-0.34c-0.44-0.23-0.78-0.54-1.02-0.93
				C277.99,87.35,277.87,86.91,277.87,86.43z M283.2,86.95c0.12-0.15,0.22-0.29,0.3-0.42s0.12-0.26,0.12-0.38v-0.93
				c-0.3-0.12-0.61-0.2-0.94-0.26c-0.33-0.06-0.65-0.09-0.96-0.09c-0.65,0-1.18,0.13-1.58,0.38s-0.6,0.6-0.6,1.04
				c0,0.24,0.07,0.47,0.2,0.68s0.33,0.39,0.58,0.54c0.25,0.14,0.56,0.21,0.92,0.21c0.39,0,0.77-0.08,1.12-0.23
				C282.7,87.34,282.98,87.15,283.2,86.95z"/>
			<path class="st0" d="M287.5,79.11v-1.94h1.76v1.94H287.5z M287.5,88.85v-8.37h1.76v8.37H287.5z"/>
			<path class="st0" d="M298.88,88.85h-1.74v-4.63c0-0.78-0.13-1.35-0.38-1.7c-0.26-0.35-0.63-0.53-1.12-0.53
				c-0.34,0-0.68,0.09-1.02,0.26s-0.63,0.4-0.9,0.68c-0.26,0.28-0.46,0.61-0.58,0.99v4.93h-1.76v-8.3h1.6v1.66
				c0.21-0.37,0.49-0.69,0.83-0.95s0.73-0.47,1.17-0.62s0.9-0.22,1.39-0.22c0.5,0,0.92,0.09,1.25,0.27s0.59,0.43,0.77,0.74
				s0.31,0.67,0.38,1.08c0.07,0.41,0.11,0.84,0.11,1.29L298.88,88.85L298.88,88.85z"/>
			<path class="st0" d="M313.44,79.08h-3.78v9.78h-1.81v-9.78h-3.79v-1.58h9.38V79.08z"/>
			<path class="st0" d="M318.53,89.02c-0.66,0-1.25-0.11-1.78-0.34c-0.52-0.23-0.98-0.54-1.36-0.94c-0.38-0.4-0.68-0.85-0.89-1.37
				s-0.31-1.06-0.31-1.63c0-0.79,0.18-1.51,0.54-2.17c0.36-0.65,0.87-1.18,1.53-1.57s1.41-0.59,2.26-0.59c0.89,0,1.65,0.2,2.28,0.59
				c0.63,0.4,1.13,0.92,1.48,1.56s0.53,1.34,0.53,2.08c0,0.13,0,0.25-0.02,0.36c-0.01,0.11-0.02,0.2-0.03,0.26h-6.72
				c0.05,0.5,0.2,0.92,0.43,1.29s0.54,0.65,0.91,0.85c0.37,0.21,0.77,0.31,1.18,0.31c0.48,0,0.93-0.12,1.35-0.35
				s0.71-0.54,0.86-0.93l1.5,0.43c-0.18,0.41-0.46,0.77-0.83,1.1c-0.37,0.33-0.81,0.58-1.3,0.77S319.11,89.02,318.53,89.02z
				 M316.01,84.11h5.06c-0.04-0.48-0.18-0.9-0.41-1.25c-0.23-0.36-0.53-0.63-0.9-0.84c-0.37-0.2-0.78-0.31-1.22-0.31
				c-0.45,0-0.86,0.1-1.22,0.31c-0.37,0.2-0.67,0.48-0.9,0.84C316.18,83.22,316.05,83.64,316.01,84.11z"/>
			<path class="st0" d="M328.05,89.02c-0.65,0-1.24-0.11-1.77-0.34c-0.53-0.23-0.98-0.54-1.37-0.95c-0.38-0.41-0.68-0.87-0.89-1.39
				c-0.21-0.52-0.31-1.06-0.31-1.63c0-0.78,0.18-1.5,0.53-2.15s0.86-1.17,1.51-1.55c0.66-0.39,1.42-0.58,2.3-0.58
				c0.85,0,1.6,0.19,2.23,0.57s1.11,0.88,1.42,1.51l-1.73,0.53c-0.19-0.34-0.46-0.61-0.8-0.81s-0.73-0.3-1.15-0.3
				c-0.47,0-0.89,0.12-1.27,0.36s-0.68,0.56-0.9,0.98s-0.33,0.9-0.33,1.44s0.11,1.02,0.34,1.44c0.22,0.42,0.53,0.75,0.91,1
				s0.8,0.37,1.26,0.37c0.29,0,0.57-0.05,0.83-0.15s0.5-0.24,0.71-0.42s0.35-0.37,0.44-0.58l1.71,0.53
				c-0.18,0.41-0.45,0.77-0.8,1.09c-0.35,0.32-0.77,0.57-1.26,0.76S328.63,89.02,328.05,89.02z"/>
			<path class="st0" d="M340.7,88.85h-1.74v-4.63c0-0.75-0.14-1.31-0.42-1.68s-0.67-0.55-1.18-0.55c-0.32,0-0.64,0.08-0.97,0.25
				s-0.61,0.4-0.86,0.68c-0.25,0.29-0.44,0.62-0.57,1v4.93h-1.76V77.17h1.76v5.04c0.32-0.56,0.76-1,1.31-1.32s1.15-0.48,1.79-0.48
				c0.53,0,0.97,0.09,1.3,0.27c0.34,0.18,0.6,0.43,0.8,0.74c0.2,0.31,0.34,0.67,0.42,1.07c0.08,0.4,0.12,0.83,0.12,1.3V88.85z"/>
			<path class="st0" d="M350.25,88.85h-1.74v-4.63c0-0.78-0.13-1.35-0.38-1.7c-0.26-0.35-0.63-0.53-1.12-0.53
				c-0.34,0-0.68,0.09-1.02,0.26s-0.63,0.4-0.9,0.68c-0.26,0.28-0.46,0.61-0.58,0.99v4.93h-1.76v-8.3h1.6v1.66
				c0.21-0.37,0.49-0.69,0.83-0.95s0.73-0.47,1.17-0.62s0.9-0.22,1.39-0.22c0.5,0,0.92,0.09,1.25,0.27s0.59,0.43,0.77,0.74
				s0.31,0.67,0.38,1.08c0.07,0.41,0.11,0.84,0.11,1.29L350.25,88.85L350.25,88.85z"/>
			<path class="st0" d="M356.06,89.02c-0.66,0-1.25-0.11-1.78-0.34c-0.52-0.23-0.97-0.54-1.35-0.94s-0.67-0.86-0.87-1.37
				c-0.2-0.51-0.3-1.05-0.3-1.62c0-0.59,0.1-1.14,0.3-1.66c0.2-0.51,0.49-0.97,0.87-1.37s0.83-0.72,1.36-0.94
				c0.53-0.23,1.12-0.34,1.77-0.34c0.66,0,1.25,0.11,1.77,0.34c0.52,0.23,0.97,0.54,1.35,0.94s0.68,0.86,0.88,1.37
				s0.3,1.07,0.3,1.66c0,0.57-0.1,1.11-0.3,1.62c-0.2,0.51-0.49,0.97-0.87,1.37s-0.83,0.72-1.36,0.94
				C357.3,88.9,356.71,89.02,356.06,89.02z M353.57,84.71c0,0.54,0.11,1.02,0.34,1.44c0.22,0.42,0.52,0.75,0.9,0.99
				s0.79,0.36,1.25,0.36c0.48,0,0.91-0.12,1.28-0.36s0.67-0.58,0.9-1.01c0.22-0.43,0.34-0.9,0.34-1.42c0-0.53-0.11-1-0.34-1.43
				c-0.22-0.43-0.53-0.76-0.9-1c-0.38-0.24-0.8-0.36-1.26-0.36c-0.47,0-0.89,0.13-1.26,0.38s-0.67,0.59-0.9,1.01
				C353.68,83.73,353.57,84.21,353.57,84.71z"/>
			<path class="st0" d="M361.95,77.17h1.76v9.31c0,0.42,0.06,0.69,0.19,0.81s0.29,0.18,0.48,0.18c0.2,0,0.4-0.03,0.6-0.08
				s0.36-0.1,0.49-0.14l0.26,1.38c-0.26,0.11-0.56,0.2-0.91,0.27s-0.67,0.11-0.94,0.11c-0.61,0-1.08-0.17-1.42-0.51
				s-0.5-0.8-0.5-1.4v-9.93H361.95z"/>
			<path class="st0" d="M370.51,89.02c-0.66,0-1.25-0.11-1.78-0.34c-0.52-0.23-0.97-0.54-1.35-0.94s-0.67-0.86-0.87-1.37
				c-0.2-0.51-0.3-1.05-0.3-1.62c0-0.59,0.1-1.14,0.3-1.66c0.2-0.51,0.49-0.97,0.87-1.37s0.83-0.72,1.36-0.94
				c0.53-0.23,1.12-0.34,1.77-0.34c0.66,0,1.25,0.11,1.77,0.34c0.52,0.23,0.97,0.54,1.35,0.94s0.68,0.86,0.88,1.37
				s0.3,1.07,0.3,1.66c0,0.57-0.1,1.11-0.3,1.62c-0.2,0.51-0.49,0.97-0.87,1.37s-0.83,0.72-1.36,0.94
				C371.75,88.9,371.16,89.02,370.51,89.02z M368.01,84.71c0,0.54,0.11,1.02,0.34,1.44c0.22,0.42,0.52,0.75,0.9,0.99
				s0.79,0.36,1.25,0.36c0.48,0,0.91-0.12,1.28-0.36s0.67-0.58,0.9-1.01c0.22-0.43,0.34-0.9,0.34-1.42c0-0.53-0.11-1-0.34-1.43
				c-0.22-0.43-0.53-0.76-0.9-1c-0.38-0.24-0.8-0.36-1.26-0.36c-0.47,0-0.89,0.13-1.26,0.38s-0.67,0.59-0.9,1.01
				C368.12,83.73,368.01,84.21,368.01,84.71z"/>
			<path class="st0" d="M379.69,89.02c-0.57,0-1.08-0.12-1.55-0.34c-0.47-0.23-0.87-0.54-1.21-0.94s-0.59-0.85-0.78-1.36
				c-0.18-0.51-0.27-1.05-0.27-1.62c0-0.6,0.09-1.16,0.28-1.68s0.45-0.98,0.8-1.38s0.75-0.71,1.22-0.94
				c0.47-0.22,0.99-0.34,1.57-0.34c0.67,0,1.26,0.16,1.77,0.46c0.51,0.31,0.92,0.72,1.26,1.23v-1.57h1.55v8.08
				c0,0.81-0.19,1.49-0.58,2.05s-0.92,0.99-1.59,1.29s-1.42,0.45-2.26,0.45c-0.93,0-1.7-0.16-2.31-0.48s-1.13-0.76-1.56-1.31
				l0.98-0.93c0.34,0.45,0.76,0.79,1.26,1.02c0.5,0.23,1.04,0.35,1.63,0.35c0.48,0,0.92-0.08,1.33-0.25
				c0.41-0.17,0.73-0.43,0.98-0.79c0.25-0.35,0.37-0.8,0.37-1.34v-1.26c-0.3,0.49-0.71,0.88-1.23,1.16
				C380.82,88.88,380.27,89.02,379.69,89.02z M380.27,87.59c0.27,0,0.52-0.05,0.77-0.14s0.47-0.22,0.68-0.37s0.39-0.33,0.54-0.53
				s0.26-0.41,0.32-0.62v-2.19c-0.14-0.36-0.33-0.68-0.58-0.94c-0.25-0.27-0.54-0.48-0.86-0.63c-0.32-0.15-0.65-0.23-0.99-0.23
				c-0.38,0-0.73,0.08-1.03,0.25s-0.56,0.38-0.78,0.66c-0.21,0.27-0.38,0.58-0.5,0.92c-0.12,0.34-0.18,0.69-0.18,1.06
				s0.07,0.73,0.2,1.06c0.13,0.34,0.32,0.63,0.55,0.9c0.23,0.26,0.51,0.46,0.82,0.61C379.55,87.52,379.9,87.59,380.27,87.59z"/>
			<path class="st0" d="M386.73,90.83c0.16,0.02,0.32,0.04,0.47,0.07s0.28,0.03,0.38,0.02c0.18,0.01,0.34-0.04,0.47-0.14
				c0.13-0.11,0.27-0.31,0.41-0.61s0.3-0.73,0.5-1.29l-3.42-8.32h1.84l2.56,6.54l2.27-6.54h1.71l-3.81,10.25
				c-0.11,0.32-0.27,0.6-0.5,0.86c-0.23,0.25-0.51,0.46-0.85,0.61c-0.34,0.15-0.72,0.22-1.16,0.21c-0.13,0.01-0.26,0-0.4-0.02
				s-0.29-0.05-0.46-0.1L386.73,90.83L386.73,90.83z"/>
			<path class="st0" d="M398.72,83.3c0-1.08,0.22-2.15,0.67-3.21s1-2.14,1.65-3.24l1.34,0.58c-0.19,0.29-0.4,0.66-0.63,1.1
				c-0.23,0.45-0.45,0.94-0.67,1.49c-0.22,0.54-0.4,1.1-0.53,1.67s-0.2,1.12-0.2,1.66c0,0.86,0.18,1.77,0.54,2.71
				c0.36,0.94,0.84,1.91,1.44,2.89l-1.28,0.67c-0.46-0.67-0.86-1.36-1.21-2.06s-0.62-1.41-0.82-2.13
				C398.82,84.71,398.72,84.01,398.72,83.3z"/>
			<path class="st0" d="M404.11,88.85V77.49h4.77c0.51,0,0.98,0.11,1.41,0.32s0.8,0.5,1.12,0.85s0.57,0.75,0.74,1.19
				c0.17,0.44,0.26,0.89,0.26,1.34c0,0.63-0.14,1.23-0.42,1.79c-0.28,0.57-0.68,1.03-1.19,1.38s-1.12,0.54-1.81,0.54h-3.06v3.95
				H404.11z M405.92,83.32h2.94c0.33,0,0.62-0.09,0.88-0.28s0.46-0.44,0.61-0.77s0.22-0.69,0.22-1.1c0-0.42-0.09-0.78-0.26-1.1
				c-0.17-0.31-0.39-0.56-0.66-0.74s-0.56-0.26-0.87-0.26h-2.86V83.32z"/>
			<path class="st0" d="M416.17,88.85l-3.17-8.3h1.82l2.37,6.68l2.4-6.68h1.68l-3.17,8.3H416.17z"/>
			<path class="st0" d="M427.21,88.46c-0.14,0.06-0.33,0.14-0.56,0.23c-0.24,0.09-0.49,0.17-0.77,0.23s-0.57,0.1-0.86,0.1
				c-0.36,0-0.7-0.07-1.01-0.2s-0.56-0.34-0.74-0.61c-0.19-0.28-0.28-0.63-0.28-1.07v-5.22h-1.12v-1.36h1.12V77.8h1.76v2.75h1.82
				v1.36h-1.82v4.65c0.02,0.29,0.11,0.5,0.28,0.64s0.37,0.21,0.62,0.21s0.48-0.05,0.71-0.14c0.23-0.09,0.39-0.16,0.47-0.2
				L427.21,88.46z"/>
			<path class="st0" d="M431.48,83.3c0,0.7-0.1,1.41-0.3,2.13c-0.2,0.71-0.48,1.42-0.83,2.13c-0.35,0.7-0.75,1.39-1.2,2.06
				l-1.3-0.67c0.6-0.98,1.08-1.94,1.44-2.89c0.36-0.94,0.54-1.85,0.54-2.71c0-0.53-0.07-1.09-0.2-1.66
				c-0.13-0.57-0.31-1.13-0.53-1.67s-0.44-1.04-0.67-1.49s-0.44-0.82-0.62-1.1l1.36-0.58c0.64,1.1,1.18,2.18,1.63,3.24
				C431.26,81.15,431.48,82.22,431.48,83.3z"/>
			<path class="st0" d="M437.34,88.85V77.49h1.81v9.78h6.08v1.58L437.34,88.85L437.34,88.85z"/>
			<path class="st0" d="M451.12,88.46c-0.14,0.06-0.33,0.14-0.56,0.23c-0.24,0.09-0.49,0.17-0.77,0.23s-0.57,0.1-0.86,0.1
				c-0.36,0-0.7-0.07-1.01-0.2s-0.56-0.34-0.74-0.61c-0.19-0.28-0.28-0.63-0.28-1.07v-5.22h-1.12v-1.36h1.12V77.8h1.76v2.75h1.82
				v1.36h-1.82v4.65c0.02,0.29,0.11,0.5,0.28,0.64s0.37,0.21,0.62,0.21s0.48-0.05,0.71-0.14c0.23-0.09,0.39-0.16,0.47-0.2
				L451.12,88.46z"/>
			<path class="st0" d="M451.8,84.71c0-0.79,0.16-1.51,0.49-2.16c0.33-0.65,0.77-1.17,1.34-1.55s1.22-0.58,1.95-0.58
				c0.65,0,1.23,0.17,1.75,0.5s0.92,0.74,1.19,1.22v-4.96h1.76v9.7c0,0.19,0.04,0.33,0.11,0.42c0.07,0.09,0.2,0.14,0.37,0.15v1.41
				c-0.32,0.05-0.58,0.08-0.77,0.1c-0.33,0-0.61-0.1-0.83-0.3c-0.22-0.2-0.35-0.43-0.37-0.7l-0.02-0.61
				c-0.33,0.52-0.77,0.93-1.3,1.22c-0.54,0.29-1.1,0.44-1.69,0.44c-0.58,0-1.11-0.11-1.59-0.34c-0.49-0.23-0.91-0.54-1.26-0.94
				s-0.63-0.85-0.83-1.36S451.8,85.32,451.8,84.71z M458.52,85.88v-2.16c-0.12-0.34-0.31-0.64-0.57-0.9s-0.55-0.48-0.88-0.64
				s-0.65-0.25-0.98-0.25c-0.36,0-0.7,0.08-1,0.24s-0.57,0.37-0.78,0.62s-0.39,0.56-0.5,0.9c-0.12,0.34-0.18,0.7-0.18,1.06
				s0.06,0.72,0.19,1.06s0.31,0.63,0.55,0.89s0.52,0.46,0.83,0.6c0.31,0.14,0.66,0.21,1.03,0.21c0.23,0,0.47-0.04,0.71-0.12
				c0.24-0.08,0.47-0.19,0.68-0.34s0.4-0.32,0.56-0.53S458.46,86.1,458.52,85.88z"/>
		</g>
	</g>
	<g>
		<g>
			<g>
				<g>
					<path class="st2" d="M57.41,113.15h1.92v11.06h-1.92V113.15z"/>
					<path class="st2" d="M60.1,120.05c0-2.39,1.75-4.18,4.25-4.18c2.48,0,4.25,1.79,4.25,4.18c0,2.38-1.77,4.16-4.25,4.16
						C61.85,124.21,60.1,122.42,60.1,120.05z M66.66,120.03c0-1.42-0.92-2.44-2.3-2.44c-1.39,0-2.34,1.01-2.34,2.45
						c0,1.42,0.95,2.45,2.34,2.45C65.73,122.51,66.66,121.47,66.66,120.03z"/>
					<path class="st2" d="M69.26,120.07c0-2.36,1.75-4.18,4.16-4.18c2.07,0,3.4,1.33,3.77,2.57l-1.72,0.68
						c-0.26-0.92-0.98-1.54-2.01-1.54c-1.27,0-2.27,0.97-2.27,2.45c0,1.48,1,2.45,2.28,2.45c1.03,0,1.79-0.62,2.04-1.53l1.72,0.7
						c-0.36,1.21-1.69,2.54-3.81,2.54C71.05,124.21,69.26,122.42,69.26,120.07z"/>
					<path class="st2" d="M83.21,124.21l-3.22-3.75v3.75h-1.92v-11.06h1.92v6.31l3.09-3.22h2.18l-3.42,3.68l3.48,4.3h-2.11V124.21z"
						/>
					<path class="st2" d="M85.09,120.07c0-2.36,1.75-4.18,4.16-4.18c2.07,0,3.4,1.33,3.77,2.57l-1.72,0.68
						c-0.26-0.92-0.98-1.54-2.01-1.54c-1.27,0-2.27,0.97-2.27,2.45c0,1.48,1,2.45,2.28,2.45c1.03,0,1.79-0.62,2.04-1.53l1.72,0.7
						c-0.36,1.21-1.69,2.54-3.81,2.54C86.87,124.21,85.09,122.42,85.09,120.07z"/>
					<path class="st2" d="M101.39,119.23v4.98h-1.94v-4.61c0-1.15-0.71-1.83-1.8-1.83c-1.04,0.02-1.83,0.76-1.85,1.65v4.8h-1.92
						v-11.07h1.92v3.84c0.54-0.56,1.38-0.94,2.41-0.94C100.18,116.07,101.39,117.34,101.39,119.23z"/>
					<path class="st2" d="M110.44,116.07v7.97h-1.79v-1.07c-0.59,0.79-1.48,1.26-2.63,1.26c-2.28,0-3.95-1.79-3.95-4.16
						c0-2.39,1.66-4.05,3.95-4.05c1.15,0,2.04,0.42,2.63,1.2v-1.13h1.79V116.07z M108.59,120.05c0-1.47-0.94-2.47-2.31-2.47
						c-1.32,0-2.28,1.04-2.28,2.47c0,1.42,0.97,2.47,2.28,2.47C107.66,122.52,108.59,121.51,108.59,120.05z"/>
					<path class="st2" d="M111.27,113.71c0-0.74,0.57-1.3,1.32-1.3s1.32,0.56,1.32,1.3s-0.57,1.27-1.32,1.27
						S111.27,114.45,111.27,113.71z M111.62,116.24h1.92v7.97h-1.92V116.24z"/>
					<path class="st2" d="M122.22,119.23v4.98h-1.94v-4.61c0-1.15-0.71-1.83-1.8-1.83c-1.04,0.02-1.83,0.76-1.85,1.65v4.8h-1.92
						v-7.97h1.82v0.88c0.54-0.62,1.42-1.06,2.51-1.06C121.01,116.07,122.22,117.34,122.22,119.23z"/>
				</g>
			</g>
			<g>
				<path class="st3" d="M46.63,129.14v-1.26h-0.47v-0.45h0.25c0.17,0,0.24-0.08,0.24-0.25v-0.42h0.51v0.68h0.73v0.45h-0.75v1.2
					c0,0.33,0.17,0.51,0.49,0.51h0.29v0.46h-0.4C46.95,130.05,46.63,129.71,46.63,129.14z"/>
				<path class="st3" d="M54.96,129.65c0.39,0,0.61-0.14,0.73-0.42l0.43,0.27c-0.2,0.35-0.55,0.61-1.18,0.61
					c-0.83,0-1.38-0.59-1.38-1.37c0-0.76,0.59-1.38,1.34-1.38c0.81,0,1.32,0.64,1.32,1.32c0,0.09-0.01,0.18-0.01,0.23h-2.12
					C54.17,129.36,54.52,129.65,54.96,129.65z M55.7,128.52c-0.07-0.44-0.37-0.72-0.78-0.72c-0.41,0-0.75,0.26-0.83,0.72H55.7z"/>
				<path class="st3" d="M62.03,128.74c0-0.78,0.57-1.37,1.36-1.37c0.66,0,1.09,0.41,1.22,0.83l-0.47,0.19
					c-0.09-0.34-0.36-0.55-0.73-0.55c-0.48,0-0.84,0.36-0.84,0.9c0,0.54,0.36,0.9,0.84,0.9c0.37,0,0.65-0.21,0.75-0.54l0.47,0.19
					c-0.13,0.41-0.56,0.83-1.23,0.83C62.61,130.11,62.03,129.53,62.03,128.74z"/>
				<path class="st3" d="M72.95,128.43v1.62h-0.53v-1.52c0-0.43-0.26-0.69-0.68-0.69c-0.39,0-0.68,0.29-0.69,0.61v1.6h-0.53v-3.64
					h0.53v1.31c0.18-0.2,0.47-0.35,0.84-0.35C72.55,127.36,72.95,127.79,72.95,128.43z"/>
				<path class="st3" d="M81.47,128.43v1.62h-0.53v-1.52c0-0.43-0.26-0.69-0.68-0.69c-0.39,0-0.68,0.29-0.69,0.61v1.6h-0.53v-2.63
					h0.5v0.33c0.18-0.23,0.48-0.39,0.87-0.39C81.07,127.36,81.47,127.79,81.47,128.43z"/>
				<path class="st3" d="M87.42,128.74c0-0.79,0.57-1.37,1.38-1.37s1.39,0.58,1.39,1.37c0,0.78-0.57,1.37-1.39,1.37
					C87.99,130.11,87.42,129.52,87.42,128.74z M89.66,128.74c0-0.53-0.34-0.9-0.85-0.9s-0.86,0.37-0.86,0.9
					c0,0.52,0.35,0.9,0.86,0.9C89.31,129.65,89.66,129.27,89.66,128.74z"/>
				<path class="st3" d="M96.16,126.41h0.53v3.64h-0.53V126.41z"/>
				<path class="st3" d="M102.67,128.74c0-0.79,0.57-1.37,1.38-1.37s1.39,0.58,1.39,1.37c0,0.78-0.57,1.37-1.39,1.37
					C103.24,130.11,102.67,129.52,102.67,128.74z M104.9,128.74c0-0.53-0.34-0.9-0.85-0.9s-0.86,0.37-0.86,0.9
					c0,0.52,0.35,0.9,0.86,0.9C104.55,129.65,104.9,129.27,104.9,128.74z"/>
				<path class="st3" d="M113.98,127.42v2.27c0,0.79-0.51,1.31-1.38,1.31c-0.69,0-1.11-0.31-1.28-0.79l0.45-0.17
					c0.12,0.35,0.42,0.52,0.83,0.52c0.55,0,0.89-0.32,0.89-0.82v-0.21c-0.2,0.29-0.52,0.48-0.93,0.48c-0.75,0-1.3-0.58-1.3-1.32
					c0-0.73,0.55-1.32,1.3-1.32c0.41,0,0.73,0.18,0.93,0.47v-0.42H113.98z M113.46,128.71c0-0.51-0.34-0.88-0.83-0.88
					c-0.48,0-0.84,0.38-0.84,0.88s0.35,0.88,0.83,0.88C113.11,129.6,113.46,129.23,113.46,128.71z"/>
				<path class="st3" d="M122.49,127.42l-1.04,2.63l-0.35,0.89h-0.52l0.36-0.89h-0.15l-0.98-2.63h0.54l0.76,2.19l0.82-2.19H122.49z"
					/>
			</g>
			<g>
				<path class="st4" d="M49.6,110.71v2.71c-0.14,0.03-0.28,0.07-0.41,0.12c-0.19,0.06-0.38,0.14-0.57,0.22
					c-0.04,0.02-0.07,0.03-0.11,0.05c-0.2,0.1-0.4,0.2-0.59,0.32c-0.01,0.01-0.02,0.01-0.03,0.02c-0.03,0.02-0.05,0.03-0.08,0.05
					c-0.15,0.1-0.29,0.2-0.43,0.32c-0.01,0.01-0.02,0.01-0.02,0.02c-0.04,0.03-0.08,0.06-0.11,0.1l-0.01,0.01
					c-0.12,0.1-0.23,0.21-0.33,0.31c-0.27,0.28-0.51,0.59-0.72,0.92v-5.15h3.41V110.71z"/>
				
					<linearGradient id="SVGID_00000139252339201697470680000016539437389024910734_" gradientUnits="userSpaceOnUse" x1="49.4949" y1="53.1936" x2="52.1733" y2="43.3441" gradientTransform="matrix(1 0 0 -1 0 168)">
					<stop  offset="0" style="stop-color:#00B753"/>
					<stop  offset="1" style="stop-color:#0025FF"/>
				</linearGradient>
				<path style="fill:url(#SVGID_00000139252339201697470680000016539437389024910734_);" d="M56.42,119.03L56.42,119.03
					c0,0.06-0.01,0.12-0.01,0.18c0,0.04-0.01,0.07-0.01,0.11c-0.02,0.18-0.04,0.35-0.07,0.52c-0.01,0.03-0.01,0.05-0.02,0.08
					c-0.01,0.06-0.03,0.12-0.04,0.18c-0.01,0.03-0.02,0.07-0.02,0.1c-0.03,0.12-0.07,0.24-0.1,0.35c-0.04,0.13-0.09,0.26-0.15,0.39
					c-0.04,0.09-0.07,0.17-0.11,0.25c-0.02,0.04-0.04,0.08-0.06,0.12c-0.07,0.14-0.15,0.28-0.23,0.41
					c-0.53,0.86-1.29,1.56-2.19,2.02c-0.13,0.07-0.27,0.13-0.4,0.19c-0.04,0.02-0.08,0.03-0.12,0.05c-0.15,0.06-0.29,0.11-0.45,0.15
					c-0.03,0.01-0.05,0.02-0.08,0.02c-0.11,0.03-0.22,0.06-0.33,0.08c-0.03,0.01-0.07,0.01-0.1,0.02c-0.13,0.02-0.26,0.05-0.39,0.06
					c-0.03,0-0.06,0.01-0.08,0.01c-0.07,0.01-0.14,0.01-0.2,0.02c-0.04,0-0.07,0-0.1,0.01c-0.02,0-0.04,0-0.06,0l0,0
					c-0.07,0-0.14,0-0.22,0h-4.7v-5.12c0-0.21,0.01-0.42,0.04-0.62c0-0.03,0.01-0.06,0.01-0.09c0.02-0.17,0.05-0.33,0.09-0.49
					c0.01-0.04,0.02-0.09,0.03-0.13c0.03-0.13,0.07-0.25,0.12-0.38c0.2-0.56,0.49-1.07,0.85-1.52c0.12-0.15,0.25-0.29,0.38-0.42
					c0.4-0.39,0.86-0.72,1.38-0.97c0.17-0.08,0.34-0.15,0.52-0.22c0.09-0.03,0.18-0.06,0.27-0.09c0.1-0.03,0.19-0.05,0.29-0.08
					c0.07-0.02,0.14-0.03,0.2-0.04c0.05-0.01,0.11-0.02,0.16-0.03c0.11-0.02,0.21-0.03,0.32-0.04c0.15-0.01,0.31-0.02,0.46-0.02
					c0.07,0,0.14,0,0.21,0c0.18,0.01,0.36,0.02,0.53,0.05c0.34,0.05,0.66,0.13,0.97,0.24c0.03,0.01,0.07,0.02,0.1,0.04
					c0.03,0.01,0.06,0.02,0.08,0.03c0.13,0.05,0.26,0.11,0.38,0.17c0.03,0.02,0.07,0.03,0.1,0.05c0.24,0.13,0.47,0.27,0.69,0.43
					c0.03,0.02,0.05,0.04,0.07,0.06c0.13,0.1,0.26,0.21,0.37,0.32c0.02,0.02,0.05,0.05,0.07,0.07c0.16,0.16,0.31,0.32,0.45,0.5
					c0.02,0.03,0.04,0.05,0.06,0.08c0.1,0.13,0.19,0.27,0.28,0.41c0.02,0.03,0.03,0.05,0.05,0.08c0.1,0.16,0.18,0.33,0.26,0.5
					c0.01,0.03,0.03,0.06,0.04,0.09c0.04,0.1,0.08,0.2,0.12,0.3c0.02,0.05,0.04,0.1,0.05,0.16c0.01,0.03,0.02,0.06,0.03,0.09
					c0.04,0.14,0.08,0.29,0.11,0.44c0.01,0.03,0.01,0.07,0.02,0.1c0.03,0.16,0.05,0.33,0.07,0.5c0,0.03,0,0.06,0.01,0.09
					C56.42,118.95,56.42,118.98,56.42,119.03z"/>
				<path class="st0" d="M49.53,111.26l0.07,0.02v-0.09l-0.05-0.01c0.01-0.08-0.02-0.17-0.08-0.23c-0.09-0.09-0.23-0.11-0.34-0.05
					l-0.14-0.19h-0.1l0.18,0.24c-0.04,0.04-0.07,0.1-0.08,0.15l-0.96-0.02c-0.01-0.09-0.06-0.16-0.14-0.21l0.07-0.16h-0.09
					l-0.06,0.13c-0.09-0.02-0.18,0-0.24,0.05l-0.19-0.18h-0.12l0.25,0.24c-0.01,0.02-0.02,0.04-0.03,0.06
					c-0.02,0.04-0.02,0.09-0.02,0.13l-0.82,0.18c-0.03-0.07-0.08-0.13-0.16-0.16h-0.01l0.09-0.45h-0.08l-0.09,0.43
					c-0.07,0-0.15,0.02-0.2,0.07v0.43c0.02,0.02,0.05,0.04,0.08,0.05c0,0,0.01,0,0.01,0.01l-0.09,0.47v0.9
					c0.01,0,0.02-0.01,0.04-0.01l0.27,0.42c-0.03,0.03-0.06,0.06-0.08,0.11c-0.03,0.07-0.03,0.14,0,0.21l-0.23,0.13v0.09l0.27-0.15
					c0.02,0.03,0.05,0.05,0.08,0.07l-0.32,0.76c-0.01,0-0.02-0.01-0.04-0.01v0.57c0.1-0.01,0.19-0.08,0.23-0.17
					c0.03-0.06,0.03-0.13,0.01-0.18l0.29-0.13c0.01,0.02,0.02,0.03,0.04,0.05c0.04,0.04,0.1,0.07,0.15,0.08v0.05
					c0.11-0.11,0.22-0.21,0.33-0.31v-0.01h0.01c0.04-0.03,0.08-0.06,0.11-0.1l-0.13,0.01c-0.01-0.05-0.04-0.09-0.07-0.13l-0.01-0.01
					l0.46-0.69c0.04,0.02,0.09,0.03,0.13,0.03l0.08,0.45c0.02-0.02,0.05-0.03,0.08-0.05l-0.08-0.41c0.04-0.01,0.08-0.04,0.11-0.07
					c0.04-0.04,0.07-0.09,0.08-0.14l0.61,0.04c0,0.05,0.02,0.1,0.06,0.15l-0.05,0.05c0.18-0.08,0.37-0.16,0.57-0.22
					c0-0.06-0.02-0.12-0.06-0.18l0.47-0.47v-0.12l-0.53,0.53c-0.06-0.05-0.14-0.07-0.22-0.05l-0.23-0.69
					c0.03-0.01,0.05-0.03,0.07-0.05c0.03-0.03,0.06-0.07,0.07-0.11l0.83,0.15c0,0.02,0,0.04,0,0.05v-0.14l-0.82-0.14
					c0-0.08-0.03-0.15-0.08-0.21l-0.01-0.01l0.46-0.69c0.06,0.03,0.13,0.04,0.2,0.02l0.26,0.58v-0.21l-0.18-0.41
					c0.02-0.01,0.03-0.02,0.05-0.04C49.49,111.32,49.51,111.28,49.53,111.26z M47.86,111.38l0.45,0.71c-0.01,0-0.01,0.01-0.02,0.01
					c-0.05,0.05-0.08,0.12-0.08,0.18l-0.72,0.05c-0.02-0.07-0.06-0.14-0.13-0.18l0.32-0.76C47.73,111.4,47.8,111.4,47.86,111.38z
					 M46.63,111.52c0.02-0.04,0.02-0.09,0.02-0.13l0.82-0.18c0.02,0.06,0.06,0.11,0.12,0.14l-0.32,0.76
					c-0.08-0.02-0.16-0.01-0.22,0.04l-0.47-0.55C46.6,111.59,46.62,111.55,46.63,111.52z M46.21,112.52H46.2l0.16-0.81
					c0.06,0,0.12-0.01,0.17-0.04l0.47,0.55c-0.02,0.02-0.04,0.05-0.05,0.08c-0.02,0.05-0.03,0.11-0.02,0.16l-0.58,0.2
					C46.32,112.59,46.27,112.54,46.21,112.52z M46.29,112.99c0.03-0.03,0.06-0.06,0.08-0.11c0.02-0.05,0.03-0.11,0.02-0.16l0.58-0.2
					c0.02,0.05,0.06,0.09,0.11,0.11l-0.32,0.76c-0.06-0.02-0.13-0.01-0.19,0.02L46.29,112.99z M46.75,114.4
					c-0.08,0.08-0.1,0.18-0.07,0.28l-0.29,0.13c-0.02-0.04-0.06-0.07-0.1-0.09l0.32-0.76c0.04,0.01,0.07,0.01,0.11,0.01l0.11,0.39
					C46.8,114.36,46.77,114.38,46.75,114.4z M47.07,114.34c-0.05-0.02-0.11-0.03-0.16-0.02l-0.11-0.39
					c0.06-0.03,0.12-0.08,0.14-0.15c0.02-0.04,0.02-0.09,0.02-0.13l0.49-0.11c0.01,0.04,0.04,0.07,0.07,0.1l0.01,0.01L47.07,114.34z
					 M47.52,113.24c-0.06,0.06-0.09,0.14-0.08,0.22l-0.49,0.11c-0.02-0.06-0.06-0.11-0.12-0.14l0.32-0.76
					c0.05,0.01,0.11,0.01,0.16,0l0.27,0.55C47.55,113.22,47.53,113.23,47.52,113.24z M47.64,113.17l-0.27-0.55
					c0.04-0.03,0.08-0.07,0.1-0.13c0.01-0.03,0.02-0.06,0.02-0.09l0.72-0.05c0.01,0.05,0.04,0.1,0.08,0.14l0.01,0.01l-0.46,0.69
					C47.78,113.16,47.71,113.15,47.64,113.17z M48.77,113.27c-0.03,0.01-0.05,0.03-0.07,0.05c-0.04,0.04-0.07,0.09-0.08,0.14
					l-0.61-0.04c-0.01-0.06-0.03-0.13-0.08-0.18l-0.01-0.01l0.46-0.69c0.05,0.03,0.11,0.03,0.17,0.02L48.77,113.27z M48.62,112.03
					c-0.08-0.04-0.16-0.04-0.24,0l-0.45-0.71c0.03-0.03,0.06-0.06,0.08-0.11c0.01-0.02,0.01-0.04,0.02-0.06l0.96,0.02
					c0.01,0.06,0.03,0.12,0.08,0.17l0.01,0.01L48.62,112.03z"/>
				<path class="st0" d="M53.15,123.59c-0.16,0-0.29,0.13-0.29,0.29c0,0.04,0.01,0.08,0.03,0.12c0.04-0.02,0.08-0.03,0.12-0.05
					c0.14-0.06,0.27-0.12,0.4-0.19C53.37,123.65,53.27,123.59,53.15,123.59z M55.82,119.43l0.04-0.4c0.07,0,0.14-0.03,0.19-0.08
					c0.03-0.03,0.05-0.07,0.07-0.11l0.3,0.05c0-0.03,0-0.06-0.01-0.09l-0.28-0.05c0-0.06-0.02-0.13-0.06-0.18l0.27-0.27
					c-0.01-0.03-0.01-0.07-0.02-0.1l-0.31,0.31c-0.05-0.04-0.12-0.06-0.18-0.06l-0.09-0.5c0.04-0.01,0.08-0.04,0.11-0.07
					c0.04-0.04,0.07-0.09,0.08-0.14l0.28,0.02c-0.01-0.03-0.02-0.06-0.03-0.08l-0.25-0.01c-0.01-0.06-0.03-0.13-0.08-0.18
					l-0.01-0.01l0.17-0.26c-0.01-0.03-0.03-0.06-0.04-0.09l-0.2,0.3c-0.07-0.03-0.14-0.04-0.21-0.01l-0.27-0.55
					c0.04-0.03,0.08-0.07,0.1-0.13c0.01-0.03,0.02-0.06,0.02-0.09l0.29-0.02c-0.02-0.03-0.03-0.05-0.05-0.08l-0.25,0.02
					c-0.02-0.07-0.06-0.14-0.13-0.18l0.1-0.25c-0.02-0.03-0.04-0.05-0.06-0.08l-0.12,0.29c-0.08-0.02-0.16-0.01-0.22,0.04
					l-0.47-0.55c0.02-0.02,0.04-0.05,0.05-0.08c0.02-0.04,0.02-0.09,0.02-0.13l0.3-0.07c-0.02-0.02-0.05-0.05-0.07-0.07l-0.25,0.05
					c-0.03-0.07-0.08-0.13-0.16-0.16h-0.01l0.04-0.21c-0.02-0.02-0.05-0.04-0.07-0.06l-0.05,0.25c-0.08,0-0.16,0.03-0.22,0.09
					l-0.69-0.48c0.02-0.04,0.03-0.08,0.03-0.13c0-0.02,0-0.04-0.01-0.06l0.25-0.1c-0.03-0.02-0.07-0.03-0.1-0.05l-0.18,0.07
					c-0.04-0.07-0.12-0.13-0.21-0.14v-0.1c-0.03-0.01-0.06-0.02-0.08-0.03v0.13c-0.09,0.01-0.16,0.07-0.21,0.14l-0.89-0.35
					c0-0.02,0.01-0.04,0.01-0.06c0-0.04-0.01-0.07-0.02-0.11l0.05-0.03c-0.17-0.03-0.35-0.04-0.53-0.05
					c-0.02,0.03-0.04,0.06-0.05,0.1l-0.62-0.09c-0.11,0.01-0.22,0.02-0.32,0.04l0.93,0.13c0,0.06,0.02,0.12,0.05,0.16l-0.69,0.67
					c-0.07-0.05-0.16-0.07-0.24-0.05l-0.32-0.76c0.05-0.03,0.08-0.07,0.11-0.12c-0.07,0.01-0.14,0.03-0.2,0.04
					c-0.1,0.02-0.19,0.05-0.29,0.08l-0.62,0.82c-0.07-0.04-0.16-0.05-0.25-0.01c-0.12,0.05-0.19,0.17-0.17,0.29l-1.05,0.27
					c-0.01-0.03-0.03-0.06-0.06-0.09l-0.01-0.01c-0.14,0.13-0.26,0.28-0.38,0.42c0.02,0.02,0.05,0.04,0.08,0.05l-0.27,1.05
					c-0.08-0.01-0.17,0.02-0.23,0.08c-0.09,0.09-0.11,0.23-0.05,0.34l-0.49,0.37c-0.01,0.04-0.02,0.09-0.03,0.13l0.58-0.44
					c0.04,0.04,0.1,0.07,0.15,0.08l-0.02,0.96c-0.09,0.01-0.16,0.06-0.21,0.14l-0.59-0.25c0,0.03-0.01,0.06-0.01,0.09l0.57,0.24
					c-0.02,0.09,0,0.18,0.05,0.24l-0.66,0.69v0.47c0.04-0.03,0.07-0.07,0.09-0.12v-0.01l0.81,0.16c0,0.08,0.03,0.16,0.09,0.22
					l-0.48,0.69c-0.04-0.02-0.08-0.03-0.13-0.03c-0.02,0-0.04,0-0.06,0.01l-0.32-0.82v0.23l0.24,0.62
					c-0.07,0.04-0.13,0.12-0.14,0.21h-0.1v0.08h0.1c0.01,0.09,0.07,0.16,0.14,0.21l-0.24,0.62v0.23l0.32-0.82
					c0.02,0,0.04,0.01,0.06,0.01c0.05,0,0.09-0.01,0.13-0.03l0.48,0.69c-0.06,0.05-0.09,0.13-0.09,0.21v0.01l-0.81,0.16
					c-0.02-0.05-0.05-0.1-0.1-0.13v0.47l0.66,0.69c-0.05,0.07-0.07,0.16-0.05,0.24l-0.61,0.25v0.08h0.03l0.61-0.25
					c0.05,0.08,0.12,0.13,0.21,0.14v0.12h0.08v-0.12c0.02,0,0.04-0.01,0.06-0.02c0.04-0.02,0.08-0.04,0.11-0.08l0.33,0.21h0.16
					l-0.44-0.28c0.03-0.06,0.03-0.12,0.02-0.19l0.76-0.32c0.04,0.07,0.11,0.12,0.18,0.13l-0.05,0.65h0.08l0.05-0.64
					c0.03,0,0.06-0.01,0.09-0.02c0.05-0.02,0.1-0.06,0.13-0.1l0.55,0.27c-0.02,0.06-0.02,0.13,0.01,0.2c0,0,0,0.01,0.01,0.01
					l-0.44,0.29h0.15l0.34-0.22c0.05,0.05,0.12,0.09,0.19,0.09l0.01,0.13h0.08l-0.01-0.14c0.02,0,0.03-0.01,0.05-0.02
					c0.08-0.03,0.14-0.1,0.16-0.17l0.5,0.09c0,0.06,0.02,0.13,0.06,0.18l-0.05,0.05h0.46c0.01-0.01,0.02-0.01,0.03-0.02
					c0.05-0.05,0.08-0.12,0.08-0.19l0.4-0.04c0.01,0.05,0.04,0.09,0.07,0.13l0.01,0.01l-0.07,0.11c0.03,0,0.07,0,0.1-0.01l0.04-0.06
					c0.05,0.02,0.11,0.03,0.16,0.02v0.01c0.03,0,0.06-0.01,0.08-0.01l-0.01-0.03c0.03-0.01,0.06-0.03,0.08-0.06
					c0.08-0.08,0.1-0.18,0.07-0.28l0.29-0.13c0.02,0.04,0.06,0.07,0.1,0.09l-0.14,0.33c0.03-0.01,0.07-0.01,0.1-0.02l0.12-0.28
					c0.04,0.01,0.09,0.01,0.13,0l0.08,0.2c0.03-0.01,0.05-0.01,0.08-0.02l-0.08-0.21c0.05-0.03,0.1-0.08,0.12-0.14
					c0.06-0.15-0.01-0.31-0.15-0.37c-0.15-0.06-0.31,0.01-0.37,0.15c-0.03,0.06-0.03,0.13-0.01,0.18l-0.29,0.13
					c-0.01-0.02-0.02-0.03-0.04-0.05c-0.04-0.04-0.1-0.07-0.15-0.08l0.01-0.31c0.06-0.01,0.12-0.03,0.17-0.08
					c0.11-0.11,0.11-0.29,0-0.4c-0.11-0.11-0.29-0.11-0.4,0c-0.05,0.05-0.07,0.11-0.08,0.17l-0.31,0.01c0-0.02-0.01-0.04-0.02-0.06
					c-0.02-0.06-0.06-0.1-0.11-0.13l0.13-0.29c0.06,0.02,0.12,0.01,0.18-0.01c0.15-0.06,0.21-0.23,0.15-0.37
					c-0.06-0.15-0.23-0.21-0.37-0.15c-0.06,0.03-0.11,0.07-0.14,0.12l-0.29-0.11c0-0.02,0.01-0.04,0.01-0.06
					c0-0.06-0.02-0.12-0.05-0.17l0.23-0.22c0.05,0.04,0.11,0.06,0.18,0.06c0.16,0,0.29-0.13,0.29-0.29s-0.13-0.29-0.29-0.29
					c-0.07,0-0.13,0.02-0.18,0.06l-0.23-0.22c0.01-0.02,0.02-0.04,0.03-0.06c0.02-0.06,0.03-0.12,0.01-0.17l0.29-0.11
					c0.03,0.05,0.08,0.1,0.14,0.12c0.15,0.06,0.31-0.01,0.37-0.15c0.06-0.15-0.01-0.31-0.15-0.37c-0.06-0.03-0.13-0.03-0.18-0.01
					l-0.13-0.29c0.02-0.01,0.03-0.02,0.05-0.04c0.04-0.04,0.07-0.1,0.08-0.15l0.31,0.01c0.01,0.06,0.03,0.12,0.08,0.17
					c0.11,0.11,0.29,0.11,0.4,0s0.11-0.29,0-0.4c-0.05-0.05-0.11-0.07-0.17-0.08l-0.01-0.31c0.02,0,0.04-0.01,0.06-0.02
					c0.06-0.02,0.1-0.06,0.13-0.11l0.29,0.13c-0.02,0.06-0.01,0.12,0.01,0.18c0.06,0.15,0.23,0.21,0.37,0.15
					c0.15-0.06,0.21-0.23,0.15-0.37c-0.03-0.06-0.07-0.11-0.12-0.14l0.11-0.29c0.02,0,0.04,0.01,0.06,0.01
					c0.06,0,0.12-0.02,0.17-0.05l0.22,0.23c-0.04,0.05-0.06,0.11-0.06,0.18c0,0.16,0.13,0.29,0.29,0.29s0.29-0.13,0.29-0.29
					c0-0.07-0.02-0.13-0.06-0.18l0.22-0.23c0.02,0.01,0.04,0.02,0.06,0.03c0.06,0.02,0.12,0.03,0.17,0.01l0.11,0.29
					c-0.05,0.03-0.1,0.08-0.12,0.14c-0.06,0.15,0.01,0.31,0.15,0.37c0.15,0.06,0.31-0.01,0.37-0.15c0.03-0.06,0.03-0.13,0.01-0.18
					l0.29-0.13c0.01,0.02,0.02,0.03,0.04,0.05c0.04,0.04,0.1,0.07,0.15,0.08l-0.01,0.31c-0.06,0.01-0.12,0.03-0.17,0.08
					c-0.11,0.11-0.11,0.29,0,0.4c0.11,0.11,0.29,0.11,0.4,0c0.05-0.05,0.07-0.11,0.08-0.17l0.31-0.01c0,0.02,0.01,0.04,0.02,0.06
					c0.02,0.06,0.06,0.1,0.11,0.13l-0.13,0.29c-0.06-0.02-0.12-0.01-0.18,0.01c-0.15,0.06-0.22,0.23-0.15,0.37
					c0.06,0.15,0.23,0.21,0.37,0.15c0.06-0.03,0.11-0.07,0.14-0.12l0.29,0.11c0,0.02-0.01,0.04-0.01,0.06
					c0,0.06,0.02,0.12,0.05,0.17l-0.23,0.22c-0.05-0.04-0.11-0.06-0.18-0.06c-0.16,0-0.29,0.13-0.29,0.29s0.13,0.29,0.29,0.29
					c0.01,0,0.02,0,0.03,0c0.08-0.13,0.16-0.27,0.23-0.41c-0.01-0.01-0.01-0.03-0.02-0.04l0.08-0.08c0.04-0.08,0.08-0.17,0.11-0.25
					c0.05-0.13,0.1-0.26,0.15-0.39c-0.08,0.02-0.15,0.07-0.19,0.14l-0.29-0.11c0.01-0.04,0.01-0.09,0-0.13l0.58-0.24
					c0.01-0.03,0.02-0.07,0.02-0.1l-0.64,0.27c-0.02-0.04-0.06-0.07-0.09-0.1l0.13-0.29c0.06,0.02,0.12,0.01,0.18-0.01
					c0.07-0.03,0.12-0.08,0.15-0.14l0.31,0.09c0.01-0.03,0.01-0.05,0.02-0.08l-0.31-0.09c0.01-0.05,0-0.1-0.02-0.15
					c0,0,0-0.01-0.01-0.01l0.4-0.27c0-0.04,0.01-0.07,0.01-0.11l-0.46,0.31C55.92,119.48,55.87,119.46,55.82,119.43z M51.98,114.45
					l0.89,0.35c0,0.02-0.01,0.04-0.01,0.06c0,0.05,0.01,0.09,0.03,0.13l-0.69,0.48c-0.05-0.06-0.13-0.09-0.21-0.09h-0.01l-0.16-0.81
					C51.89,114.55,51.95,114.51,51.98,114.45z M52.91,116.4l-0.46,0.41c-0.05-0.04-0.11-0.07-0.18-0.07h-0.01l-0.16-0.81
					c0.06-0.02,0.1-0.06,0.14-0.1l0.65,0.33c-0.01,0.03-0.01,0.06-0.01,0.09C52.87,116.3,52.88,116.35,52.91,116.4z M50.91,117.59
					c-0.02-0.05-0.06-0.1-0.1-0.13l0.27-0.55c0.05,0.02,0.1,0.02,0.16,0l0.32,0.76c-0.06,0.03-0.1,0.09-0.12,0.14l-0.49-0.11
					C50.94,117.67,50.93,117.64,50.91,117.59z M50.28,119.76l-0.39,0.11c-0.03-0.06-0.08-0.12-0.15-0.14
					c-0.04-0.02-0.09-0.02-0.13-0.02l-0.11-0.49c0.04-0.01,0.07-0.04,0.1-0.07l0.01-0.01l0.69,0.46
					C50.28,119.65,50.27,119.71,50.28,119.76z M49.02,122.32l0.81-0.16c0.02,0.05,0.05,0.1,0.1,0.13l-0.19,0.35
					c-0.07-0.02-0.14-0.02-0.21,0c-0.04,0.02-0.08,0.04-0.11,0.08L49,122.45c0.02-0.04,0.03-0.08,0.03-0.12
					C49.02,122.33,49.02,122.32,49.02,122.32z M49.81,122.05v0.01L49,122.22c-0.02-0.04-0.04-0.08-0.07-0.11l0.29-0.41
					c0.04,0.02,0.08,0.03,0.13,0.03c0.07,0,0.14-0.03,0.19-0.08l0.31,0.25C49.83,121.96,49.81,122.01,49.81,122.05z M48.45,122.34
					l-0.81,0.16c-0.02-0.06-0.06-0.1-0.1-0.14l0.33-0.65c0.03,0.01,0.06,0.01,0.09,0.01c0.06,0,0.11-0.02,0.16-0.05l0.41,0.46
					c-0.04,0.05-0.07,0.11-0.07,0.18C48.45,122.34,48.45,122.34,48.45,122.34z M47.37,117.33l0.88-0.39
					c0.01,0.02,0.02,0.03,0.04,0.05c0.03,0.03,0.07,0.06,0.11,0.07l-0.15,0.83c-0.08,0-0.15,0.03-0.21,0.08l-0.01,0.01l-0.69-0.46
					C47.38,117.46,47.39,117.4,47.37,117.33z M50.46,117.48c-0.05,0.05-0.09,0.12-0.09,0.19l-0.61,0.04
					c-0.01-0.05-0.04-0.1-0.08-0.14c-0.02-0.02-0.05-0.04-0.07-0.05l0.23-0.69c0.05,0.01,0.11,0,0.16-0.02c0,0,0.01,0,0.01-0.01
					L50.46,117.48z M50.07,116.76c0.04-0.04,0.07-0.09,0.09-0.15l0.72,0.05c0,0.03,0.01,0.06,0.02,0.09c0.02,0.05,0.06,0.1,0.1,0.13
					l-0.27,0.55c-0.06-0.02-0.13-0.02-0.2,0.01c0,0-0.01,0-0.01,0.01L50.07,116.76z M47.61,120.15l0.55-0.47
					c0.02,0.02,0.05,0.04,0.08,0.05c0.05,0.02,0.11,0.03,0.16,0.02l0.2,0.58c-0.06,0.03-0.11,0.08-0.13,0.14v0.01l-0.81-0.16
					C47.66,120.26,47.64,120.2,47.61,120.15z M48.53,118.12l0.69-0.23c0.01,0.03,0.03,0.05,0.05,0.07c0.04,0.04,0.09,0.07,0.14,0.08
					l-0.04,0.61c-0.06,0.01-0.13,0.03-0.18,0.08l-0.01,0.01l-0.69-0.46C48.54,118.24,48.54,118.18,48.53,118.12z M49.15,118.83
					c-0.03,0.07-0.04,0.14-0.01,0.21l-0.55,0.27c-0.03-0.04-0.07-0.08-0.13-0.1c-0.03-0.01-0.06-0.02-0.09-0.02l-0.05-0.72
					c0.05-0.01,0.1-0.04,0.14-0.08l0.01-0.01L49.15,118.83z M48.58,120.8c0.01,0.01,0.03,0.02,0.05,0.03
					c0.08,0.03,0.16,0.03,0.24-0.01l0.29,0.41c-0.05,0.04-0.08,0.1-0.09,0.17h-0.82c-0.01-0.05-0.03-0.1-0.06-0.14L48.58,120.8z
					 M48.84,120.3c-0.05-0.02-0.11-0.03-0.16-0.02l-0.2-0.58c0.05-0.02,0.09-0.06,0.11-0.11l0.76,0.32
					c-0.02,0.06-0.01,0.13,0.02,0.19l-0.42,0.27C48.92,120.34,48.89,120.33,48.84,120.3z M48.63,119.52c0.01-0.05,0.01-0.11,0-0.16
					l0.55-0.27c0.01,0.01,0.02,0.03,0.03,0.04c0.06,0.06,0.14,0.09,0.22,0.08l0.11,0.49c-0.06,0.02-0.11,0.06-0.14,0.12
					L48.63,119.52z M50.23,118.59c-0.04,0.05-0.06,0.12-0.06,0.18l-0.5,0.09c-0.01-0.04-0.04-0.08-0.07-0.11
					c-0.04-0.04-0.09-0.07-0.14-0.08l0.04-0.61c0.05,0,0.1-0.02,0.15-0.06L50.23,118.59z M49.53,117.48c-0.08-0.01-0.15,0-0.22,0.05
					l-0.58-0.58c0.04-0.05,0.06-0.12,0.06-0.18l0.83-0.14c0,0.01,0,0.01,0.01,0.02c0.03,0.07,0.08,0.12,0.14,0.15L49.53,117.48z
					 M49.25,117.6c-0.05,0.06-0.07,0.14-0.05,0.22l-0.69,0.23c-0.01-0.03-0.03-0.05-0.05-0.07c-0.03-0.03-0.07-0.06-0.11-0.07
					l0.15-0.83c0.06,0,0.13-0.02,0.18-0.06L49.25,117.6z M48.05,118.38c0.05,0.05,0.12,0.08,0.18,0.08l0.05,0.72
					c-0.07,0.02-0.14,0.06-0.18,0.13l-0.76-0.32c0.02-0.06,0.01-0.13-0.02-0.19l0.71-0.45C48.04,118.36,48.04,118.38,48.05,118.38z
					 M48.07,119.39c-0.02,0.08-0.01,0.16,0.04,0.22l-0.55,0.47c-0.02-0.02-0.05-0.04-0.08-0.05C47.44,120,47.39,120,47.35,120
					l-0.18-0.82c0.06-0.02,0.11-0.06,0.14-0.12L48.07,119.39z M47.64,120.4c0,0,0-0.01,0.01-0.01l0.81,0.16
					c0,0.07,0.02,0.14,0.07,0.2l-0.41,0.46c-0.05-0.03-0.1-0.05-0.16-0.05c-0.03,0-0.06,0.01-0.09,0.01l-0.33-0.65
					C47.58,120.51,47.61,120.46,47.64,120.4z M48.17,121.64c0.03-0.04,0.06-0.09,0.06-0.14h0.82c0.01,0.07,0.04,0.12,0.09,0.17
					l-0.29,0.41c-0.04-0.02-0.08-0.03-0.13-0.03c-0.06,0-0.11,0.02-0.16,0.05L48.17,121.64z M49.34,121.16
					c-0.05,0-0.09,0.01-0.13,0.03l-0.29-0.41c0.03-0.03,0.05-0.06,0.07-0.1v-0.01l0.81,0.16c0,0.06,0.01,0.11,0.04,0.16l-0.31,0.25
					C49.48,121.2,49.42,121.16,49.34,121.16z M49.83,120.73v0.01l-0.81-0.16c0-0.05-0.01-0.09-0.03-0.13l0.42-0.27
					c0.03,0.03,0.06,0.06,0.11,0.08c0.07,0.03,0.14,0.03,0.21,0l0.19,0.35C49.88,120.65,49.85,120.68,49.83,120.73z M49.66,119.07
					c0.02-0.04,0.03-0.09,0.03-0.13l0.5-0.09c0.01,0.04,0.04,0.08,0.07,0.11c0.05,0.05,0.12,0.08,0.19,0.08l0.04,0.4
					c-0.05,0.01-0.09,0.04-0.13,0.07l-0.01,0.01L49.66,119.07z M50.47,118.46c-0.06,0-0.13,0.02-0.18,0.06l-0.58-0.58
					c0.03-0.04,0.05-0.09,0.06-0.15l0.61-0.04c0,0.02,0.01,0.03,0.02,0.05c0.03,0.08,0.1,0.14,0.17,0.16L50.47,118.46z
					 M50.64,117.98c0.04,0,0.08-0.01,0.12-0.02c0,0,0.01,0,0.01-0.01l0.46,0.69c-0.04,0.04-0.07,0.09-0.08,0.14l-0.4-0.04
					c0-0.07-0.03-0.14-0.08-0.19c-0.03-0.03-0.07-0.05-0.11-0.07L50.64,117.98z M51.31,116.89c0.05-0.03,0.08-0.07,0.11-0.11
					l0.58,0.2c0,0.02,0,0.03,0,0.05c0,0.09,0.04,0.16,0.1,0.21l-0.27,0.42c-0.06-0.03-0.12-0.03-0.19-0.02L51.31,116.89z
					 M52.02,116.9l-0.58-0.2c0.01-0.05,0.01-0.11-0.02-0.16c-0.01-0.03-0.03-0.06-0.05-0.08l0.47-0.55c0.04,0.03,0.1,0.04,0.15,0.04
					c0.01,0,0.01,0,0.02,0l0.16,0.81C52.11,116.78,52.05,116.84,52.02,116.9z M51.56,114.53c0.05,0.04,0.11,0.06,0.17,0.06h0.01
					l0.16,0.81c-0.08,0.03-0.14,0.09-0.17,0.17l-0.82-0.18c0-0.04,0-0.09-0.02-0.13c-0.01-0.02-0.02-0.04-0.03-0.06L51.56,114.53z
					 M50.9,115.46l0.82,0.18c0,0.01,0,0.01,0,0.02c0,0.07,0.03,0.14,0.07,0.19l-0.47,0.55c-0.06-0.04-0.14-0.06-0.22-0.04
					l-0.32-0.76C50.83,115.58,50.88,115.52,50.9,115.46z M50.7,115.64l0.32,0.76c-0.07,0.04-0.12,0.11-0.13,0.18l-0.72-0.05
					c0-0.03-0.01-0.06-0.02-0.09c-0.02-0.04-0.04-0.08-0.08-0.11l0.45-0.71C50.57,115.65,50.64,115.65,50.7,115.64z M49.96,114.33
					c0.06,0.03,0.14,0.04,0.21,0.03l0.32,0.76c-0.08,0.05-0.13,0.12-0.14,0.21l-0.96,0.02c0-0.02-0.01-0.04-0.02-0.06
					c-0.01-0.04-0.04-0.07-0.06-0.09L49.96,114.33z M49.39,115.42l0.96-0.02c0,0.02,0.01,0.04,0.02,0.06
					c0.02,0.04,0.04,0.08,0.08,0.11L50,116.28c-0.07-0.03-0.15-0.03-0.23,0c0,0-0.01,0-0.01,0.01l-0.46-0.69
					C49.35,115.55,49.38,115.49,49.39,115.42z M49.03,115.66c0.06,0.02,0.12,0.01,0.18-0.01c0,0,0.01,0,0.01-0.01l0.46,0.68
					c-0.06,0.06-0.1,0.14-0.09,0.22l-0.83,0.14c-0.01-0.04-0.04-0.08-0.07-0.11c-0.02-0.02-0.03-0.03-0.05-0.04L49.03,115.66z
					 M47.8,115.77l1.05-0.27c0.02,0.06,0.06,0.1,0.11,0.13l-0.39,0.88c-0.08-0.02-0.17-0.01-0.25,0.05l-0.58-0.58
					C47.79,115.91,47.8,115.84,47.8,115.77z M47.48,116.09c0.07,0.01,0.14-0.01,0.2-0.05l0.58,0.58c-0.05,0.07-0.07,0.16-0.05,0.25
					l-0.88,0.39c-0.01-0.02-0.02-0.03-0.04-0.05c-0.03-0.03-0.06-0.05-0.09-0.06L47.48,116.09z M47.13,117.68
					c0.06-0.01,0.12-0.03,0.17-0.08l0.01-0.01l0.68,0.46c-0.04,0.08-0.04,0.16,0,0.24l-0.71,0.45c-0.03-0.03-0.06-0.06-0.11-0.08
					c-0.02-0.01-0.04-0.01-0.06-0.02L47.13,117.68z M47.11,120.18v0.01l-0.81-0.16c0-0.07-0.02-0.14-0.06-0.19l0.67-0.69
					c0.02,0.01,0.04,0.02,0.06,0.03c0.04,0.02,0.09,0.02,0.13,0.02l0.18,0.82C47.2,120.05,47.14,120.11,47.11,120.18z M47.24,120.55
					c0.01,0,0.01,0.01,0.02,0.01c0.07,0.03,0.14,0.03,0.2,0.01l0.33,0.65c-0.06,0.04-0.11,0.11-0.12,0.19h-0.82
					c-0.01-0.07-0.04-0.12-0.09-0.17L47.24,120.55z M46.76,121.65c0.05-0.04,0.08-0.1,0.09-0.17h0.82c0.01,0.08,0.06,0.15,0.12,0.19
					l-0.33,0.65c-0.03-0.01-0.06-0.01-0.09-0.01c-0.05,0-0.09,0.01-0.13,0.03L46.76,121.65z M47.09,123.68c-0.04,0-0.09,0-0.13,0.02
					c-0.02,0.01-0.04,0.02-0.06,0.03l-0.67-0.69c0.04-0.05,0.06-0.11,0.06-0.17v-0.01l0.81-0.16c0.03,0.08,0.09,0.14,0.17,0.17
					L47.09,123.68z M48.07,123.51l-0.76,0.32c-0.03-0.06-0.08-0.1-0.14-0.12l0.18-0.82c0.01,0,0.01,0,0.02,0
					c0.07,0,0.14-0.03,0.19-0.07l0.55,0.47C48.07,123.34,48.05,123.42,48.07,123.51z M48.4,123.15c-0.05-0.01-0.11-0.01-0.16,0.02
					c-0.03,0.01-0.06,0.03-0.08,0.05l-0.55-0.47c0.03-0.04,0.04-0.1,0.04-0.15c0-0.01,0-0.01,0-0.01l0.81-0.16
					c0.02,0.07,0.07,0.12,0.14,0.16L48.4,123.15z M48.48,123.18l0.2-0.58c0.02,0,0.03,0.01,0.05,0.01c0.09,0,0.16-0.04,0.21-0.1
					l0.42,0.27c-0.03,0.06-0.03,0.12-0.02,0.19l-0.76,0.32C48.57,123.24,48.53,123.21,48.48,123.18z M49.43,123.66
					c-0.04,0-0.09,0-0.13,0.02c-0.05,0.02-0.1,0.06-0.13,0.1l-0.55-0.27c0.02-0.05,0.02-0.1,0-0.16l0.76-0.32
					c0.03,0.06,0.09,0.1,0.14,0.12L49.43,123.66z M49.51,123.68l0.11-0.49c0.04,0,0.09,0,0.13-0.02c0.07-0.03,0.12-0.08,0.15-0.14
					l0.39,0.11c-0.01,0.05,0,0.1,0.02,0.15c0,0,0,0.01,0.01,0.01l-0.69,0.46C49.59,123.72,49.55,123.7,49.51,123.68z M50.45,123.85
					c-0.07,0-0.14,0.03-0.19,0.08c-0.03,0.03-0.05,0.07-0.07,0.11l-0.5-0.09c0-0.04-0.01-0.08-0.02-0.12c0,0,0-0.01-0.01-0.01
					l0.69-0.46c0.04,0.04,0.09,0.07,0.14,0.08L50.45,123.85z M51.27,123.39c0.04,0.03,0.08,0.05,0.12,0.05l-0.01,0.31
					c-0.06,0.01-0.12,0.03-0.17,0.08c-0.05,0.05-0.08,0.12-0.08,0.19l-0.4,0.04c-0.01-0.04-0.02-0.07-0.05-0.1L51.27,123.39z
					 M50.84,123.21l0.31-0.01c0.01,0.04,0.02,0.09,0.05,0.12l-0.58,0.58c-0.03-0.02-0.06-0.04-0.1-0.05l0.04-0.4
					c0.03,0,0.07-0.01,0.1-0.02C50.77,123.4,50.83,123.32,50.84,123.21z M50.67,122.52c0.02,0.04,0.06,0.07,0.09,0.1l-0.13,0.29
					c-0.06-0.02-0.12-0.01-0.18,0.01c-0.07,0.03-0.12,0.08-0.15,0.14l-0.39-0.11c0-0.04,0-0.07-0.01-0.11L50.67,122.52z
					 M50.34,122.2l0.29,0.11c-0.01,0.04-0.01,0.09,0,0.13l-0.76,0.32c-0.02-0.03-0.04-0.06-0.07-0.08l0.19-0.35
					c0.03,0.01,0.06,0.02,0.1,0.02C50.2,122.34,50.3,122.28,50.34,122.2z M50.27,121.84c-0.05-0.04-0.11-0.06-0.18-0.06
					s-0.14,0.03-0.19,0.08l-0.31-0.25c0.02-0.03,0.03-0.07,0.04-0.1h0.82c0.01,0.05,0.02,0.09,0.05,0.12L50.27,121.84z M50.5,121.28
					c-0.03,0.04-0.04,0.08-0.05,0.12h-0.82c-0.01-0.04-0.02-0.07-0.04-0.1l0.31-0.25c0.02,0.02,0.05,0.04,0.08,0.05
					c0.1,0.04,0.21,0.02,0.28-0.04L50.5,121.28z M50.64,120.59l-0.29,0.11c-0.03-0.05-0.08-0.1-0.14-0.12
					c-0.07-0.03-0.14-0.03-0.21,0l-0.19-0.35c0.03-0.02,0.05-0.05,0.07-0.08l0.76,0.32C50.63,120.49,50.63,120.54,50.64,120.59z
					 M50.76,120.27c-0.04,0.02-0.07,0.06-0.09,0.1l-0.76-0.32c0.01-0.04,0.01-0.07,0.01-0.11l0.39-0.11
					c0.01,0.03,0.03,0.06,0.06,0.08c0.08,0.08,0.18,0.1,0.28,0.07L50.76,120.27z M51.16,119.68l-0.31-0.01
					c-0.01-0.06-0.03-0.12-0.08-0.17s-0.12-0.08-0.19-0.08l-0.04-0.4c0.03-0.01,0.07-0.02,0.1-0.05l0.58,0.58
					C51.18,119.6,51.17,119.65,51.16,119.68z M51.27,119.51l-0.58-0.58c0.02-0.03,0.04-0.06,0.05-0.1l0.4,0.04
					c0,0.03,0.01,0.07,0.02,0.1c0.04,0.1,0.13,0.16,0.23,0.17l0.01,0.31C51.35,119.46,51.31,119.47,51.27,119.51z M51.46,118.58
					c-0.05-0.01-0.1,0-0.15,0.02c0,0-0.01,0-0.01,0.01l-0.46-0.69c0.03-0.03,0.06-0.07,0.08-0.11l0.49,0.11c0,0.04,0,0.09,0.02,0.13
					c0.03,0.07,0.08,0.12,0.14,0.15L51.46,118.58z M51.98,119.05l-0.29-0.13c0.02-0.06,0.01-0.12-0.01-0.18
					c-0.03-0.07-0.08-0.12-0.14-0.15l0.11-0.39c0.04,0.01,0.07,0,0.11-0.01l0.32,0.76C52.04,118.98,52.01,119.02,51.98,119.05z
					 M52.29,118.93c-0.04-0.01-0.09-0.01-0.13,0l-0.32-0.76c0.03-0.02,0.06-0.04,0.08-0.07l0.35,0.19c-0.01,0.03-0.02,0.06-0.02,0.1
					c0,0.11,0.06,0.2,0.14,0.25L52.29,118.93z M52.32,118.21l-0.35-0.19c0.02-0.07,0.02-0.14,0-0.21c-0.02-0.04-0.04-0.08-0.08-0.11
					l0.27-0.42c0.04,0.02,0.08,0.03,0.12,0.03h0.01l0.16,0.81C52.4,118.15,52.35,118.17,52.32,118.21z M52.69,118.15
					c-0.04-0.03-0.09-0.04-0.14-0.04h-0.01l-0.16-0.81c0.04-0.02,0.08-0.04,0.11-0.07l0.41,0.29c-0.02,0.04-0.03,0.08-0.03,0.13
					c0,0.07,0.03,0.14,0.08,0.19L52.69,118.15z M53.11,118.74c-0.05,0.01-0.09,0.02-0.12,0.05l-0.22-0.23
					c0.04-0.05,0.06-0.11,0.06-0.18s-0.03-0.14-0.08-0.19l0.25-0.31c0.03,0.02,0.07,0.03,0.1,0.04v0.82H53.11z M53.11,117.35
					c-0.07,0.01-0.12,0.04-0.17,0.09l-0.41-0.29c0.02-0.04,0.03-0.08,0.03-0.13c0-0.06-0.02-0.11-0.05-0.16l0.46-0.41
					c0.04,0.03,0.09,0.06,0.14,0.06C53.11,116.52,53.11,117.35,53.11,117.35z M53.11,115.96c-0.08,0.01-0.15,0.06-0.19,0.12
					l-0.65-0.33c0.01-0.03,0.01-0.06,0.01-0.09c0-0.05-0.01-0.09-0.03-0.13l0.69-0.48c0.04,0.05,0.1,0.08,0.17,0.09V115.96z
					 M55.67,117.98l0.09,0.5c-0.04,0.01-0.08,0.04-0.11,0.07c-0.05,0.05-0.08,0.12-0.08,0.19l-0.4,0.04
					c-0.01-0.05-0.04-0.09-0.07-0.13l-0.01-0.01l0.46-0.69C55.58,117.97,55.62,117.98,55.67,117.98z M55.23,116.91l0.27,0.55
					c-0.01,0.01-0.03,0.02-0.04,0.03c-0.06,0.06-0.09,0.14-0.08,0.22l-0.49,0.11c-0.02-0.06-0.06-0.11-0.12-0.14l0.32-0.76
					C55.13,116.93,55.18,116.93,55.23,116.91z M55,116.89l-0.32,0.76c-0.06-0.02-0.13-0.01-0.19,0.02l-0.27-0.42
					c0.03-0.03,0.06-0.06,0.08-0.11c0.02-0.05,0.03-0.11,0.02-0.16l0.58-0.2C54.91,116.83,54.95,116.86,55,116.89z M54.46,115.9
					l0.47,0.55c-0.02,0.02-0.04,0.05-0.05,0.08c-0.02,0.05-0.03,0.11-0.02,0.16l-0.58,0.2c-0.03-0.06-0.08-0.11-0.14-0.13h-0.01
					l0.16-0.81C54.35,115.96,54.41,115.93,54.46,115.9z M54.19,115.93c0,0,0.01,0,0.01,0.01l-0.16,0.81c-0.07,0-0.14,0.02-0.2,0.07
					l-0.46-0.41c0.03-0.04,0.05-0.1,0.05-0.16c0-0.03-0.01-0.06-0.01-0.09l0.65-0.33C54.1,115.88,54.14,115.9,54.19,115.93z
					 M53.19,115.15c0.06-0.01,0.12-0.04,0.17-0.09l0.69,0.48c0,0.01-0.01,0.01-0.01,0.02c-0.03,0.07-0.03,0.14-0.01,0.2l-0.65,0.33
					c-0.04-0.06-0.11-0.11-0.19-0.12C53.19,115.97,53.19,115.15,53.19,115.15z M53.19,116.53c0.05-0.01,0.1-0.03,0.14-0.06
					l0.46,0.41c-0.01,0.01-0.02,0.03-0.02,0.05c-0.03,0.08-0.03,0.16,0.01,0.24l-0.41,0.29c-0.04-0.05-0.1-0.08-0.17-0.09v-0.84
					H53.19z M53.54,118.57l-0.22,0.23c-0.04-0.03-0.08-0.04-0.12-0.05v-0.82c0.04-0.01,0.07-0.02,0.1-0.04l0.25,0.31
					c-0.02,0.02-0.04,0.05-0.05,0.08C53.46,118.38,53.48,118.48,53.54,118.57z M53.78,118.1c-0.06,0-0.11,0.01-0.16,0.04l-0.25-0.31
					c0.05-0.05,0.08-0.12,0.08-0.19c0-0.05-0.01-0.09-0.03-0.13l0.41-0.29c0.03,0.03,0.06,0.05,0.1,0.07h0.01L53.78,118.1z
					 M53.86,118.12l0.16-0.81c0.05,0,0.09-0.01,0.13-0.03l0.27,0.42c-0.03,0.03-0.06,0.06-0.08,0.11c-0.03,0.07-0.03,0.14,0,0.21
					l-0.35,0.19C53.96,118.17,53.92,118.14,53.86,118.12C53.87,118.12,53.86,118.12,53.86,118.12z M54.02,118.93l-0.11-0.29
					c0.05-0.03,0.1-0.08,0.12-0.14c0.03-0.07,0.03-0.14,0-0.21l0.35-0.19c0.02,0.03,0.05,0.05,0.08,0.07l-0.32,0.76
					C54.1,118.92,54.06,118.92,54.02,118.93z M54.68,118.65c-0.08,0.08-0.1,0.18-0.07,0.28l-0.29,0.13
					c-0.02-0.04-0.06-0.07-0.1-0.09l0.32-0.76c0.04,0.01,0.07,0.01,0.11,0.01l0.11,0.39C54.74,118.61,54.71,118.62,54.68,118.65z
					 M54.85,118.58l-0.11-0.39c0.06-0.03,0.12-0.08,0.14-0.15c0.02-0.04,0.02-0.09,0.02-0.13l0.49-0.11
					c0.01,0.04,0.04,0.07,0.07,0.1l0.01,0.01l-0.46,0.69C54.96,118.58,54.9,118.57,54.85,118.58z M55.04,119.51
					c-0.04-0.03-0.08-0.05-0.12-0.05l0.01-0.31c0.06-0.01,0.12-0.03,0.17-0.08c0.05-0.05,0.08-0.12,0.08-0.19l0.4-0.04
					c0.01,0.03,0.02,0.07,0.05,0.1L55.04,119.51z M55.73,119.43c-0.03,0-0.07,0.01-0.1,0.02c-0.1,0.04-0.16,0.13-0.17,0.23
					l-0.31,0.01c-0.01-0.04-0.02-0.09-0.05-0.12l0.58-0.58c0.03,0.02,0.06,0.04,0.1,0.05L55.73,119.43z"/>
			</g>
		</g>
		<g>
			<path class="st4" d="M78.23,34.59v13.97c-0.72,0.17-1.44,0.37-2.14,0.59c-1,0.32-1.98,0.7-2.93,1.12
				c-0.19,0.09-0.38,0.17-0.57,0.26c-1.04,0.49-2.05,1.05-3.02,1.66c-0.05,0.03-0.1,0.06-0.15,0.09c-0.13,0.08-0.26,0.17-0.39,0.25
				c-0.76,0.51-1.5,1.05-2.21,1.62c-0.04,0.04-0.08,0.07-0.13,0.1c-0.2,0.16-0.39,0.33-0.59,0.5c-0.02,0.01-0.04,0.03-0.05,0.05
				c-0.6,0.52-1.17,1.06-1.72,1.62c-1.4,1.43-2.65,3.01-3.72,4.72V34.58h17.62V34.59z"/>
			
				<linearGradient id="SVGID_00000041259366080928025200000009235346204665101198_" gradientUnits="userSpaceOnUse" x1="77.7239" y1="112.2625" x2="91.5252" y2="61.5093" gradientTransform="matrix(1 0 0 -1 0 168)">
				<stop  offset="0" style="stop-color:#00B753"/>
				<stop  offset="1" style="stop-color:#0025FF"/>
			</linearGradient>
			<path style="fill:url(#SVGID_00000041259366080928025200000009235346204665101198_);" d="M113.42,77.52L113.42,77.52
				c-0.01,0.32-0.03,0.64-0.05,0.95c-0.01,0.18-0.03,0.36-0.04,0.55c-0.08,0.91-0.21,1.81-0.37,2.69c-0.03,0.14-0.05,0.28-0.08,0.42
				c-0.06,0.31-0.13,0.62-0.21,0.93c-0.04,0.17-0.08,0.35-0.13,0.52c-0.16,0.61-0.34,1.22-0.53,1.81c-0.23,0.68-0.48,1.35-0.75,2.01
				c-0.18,0.44-0.38,0.88-0.59,1.3c-0.1,0.2-0.2,0.41-0.3,0.61c-0.37,0.72-0.76,1.43-1.19,2.11c-2.73,4.42-6.63,8.03-11.27,10.42
				c-0.68,0.35-1.37,0.67-2.07,0.96c-0.2,0.08-0.41,0.17-0.61,0.25c-0.75,0.29-1.52,0.55-2.3,0.78c-0.14,0.04-0.28,0.08-0.41,0.12
				c-0.56,0.16-1.12,0.29-1.69,0.42c-0.17,0.04-0.34,0.07-0.51,0.11c-0.66,0.13-1.34,0.23-2.02,0.32c-0.14,0.02-0.29,0.04-0.43,0.05
				c-0.35,0.04-0.7,0.07-1.05,0.09c-0.18,0.01-0.36,0.02-0.54,0.03c-0.1,0.01-0.21,0.01-0.31,0.01h-0.01
				c-0.37,0.01-0.75,0.02-1.12,0.02h-24.2V78.6c0-1.09,0.07-2.16,0.19-3.21c0.02-0.15,0.04-0.29,0.06-0.44
				c0.12-0.86,0.28-1.71,0.48-2.55c0.05-0.22,0.11-0.45,0.17-0.67c0.18-0.66,0.38-1.3,0.6-1.94c1.01-2.86,2.5-5.5,4.38-7.81
				c0.62-0.76,1.28-1.49,1.98-2.18c2.06-2.03,4.45-3.73,7.09-5c0.86-0.42,1.75-0.79,2.66-1.11c0.45-0.16,0.91-0.31,1.37-0.44
				c0.49-0.14,0.99-0.27,1.49-0.39c0.35-0.08,0.7-0.15,1.05-0.22c0.28-0.05,0.56-0.1,0.85-0.14c0.55-0.09,1.1-0.15,1.66-0.2
				c0.79-0.07,1.58-0.11,2.38-0.11c0.36,0,0.72,0.01,1.07,0.02c0.92,0.04,1.83,0.12,2.73,0.25c1.73,0.25,3.4,0.66,5,1.23
				c0.17,0.06,0.34,0.12,0.51,0.19c0.14,0.05,0.29,0.11,0.43,0.17c0.67,0.26,1.33,0.56,1.97,0.88c0.17,0.08,0.34,0.17,0.51,0.26
				c1.25,0.65,2.43,1.4,3.55,2.24c0.13,0.09,0.25,0.19,0.38,0.29c0.67,0.52,1.32,1.07,1.93,1.65c0.13,0.12,0.25,0.24,0.37,0.36
				c0.82,0.8,1.59,1.66,2.3,2.56c0.1,0.13,0.21,0.26,0.3,0.39c0.52,0.68,1,1.39,1.45,2.11c0.09,0.14,0.17,0.27,0.25,0.41
				c0.49,0.83,0.94,1.69,1.34,2.58c0.07,0.16,0.14,0.31,0.21,0.47c0.22,0.51,0.42,1.03,0.61,1.55c0.09,0.27,0.19,0.54,0.27,0.81
				c0.05,0.15,0.09,0.29,0.13,0.44c0.22,0.74,0.41,1.5,0.57,2.27c0.04,0.17,0.07,0.34,0.1,0.51c0.16,0.84,0.27,1.7,0.34,2.57
				c0.01,0.15,0.02,0.29,0.03,0.44C113.4,77.05,113.41,77.29,113.42,77.52z"/>
			<path class="st0" d="M77.89,37.43l0.35,0.09v-0.44L78,37.03c0.05-0.43-0.09-0.87-0.42-1.2c-0.47-0.47-1.19-0.56-1.75-0.25
				l-0.74-0.98h-0.54l0.94,1.24c-0.22,0.22-0.35,0.5-0.4,0.79l-4.95-0.1c-0.06-0.44-0.31-0.84-0.7-1.08l0.35-0.85h-0.47l-0.28,0.68
				c-0.45-0.11-0.91-0.01-1.26,0.26l-0.99-0.95h-0.62l1.31,1.26c-0.06,0.09-0.12,0.18-0.16,0.29c-0.09,0.22-0.12,0.45-0.11,0.67
				l-4.23,0.94c-0.14-0.37-0.42-0.67-0.81-0.84c-0.02-0.01-0.04-0.01-0.06-0.02l0.46-2.3h-0.44l-0.44,2.22
				c-0.39-0.02-0.76,0.11-1.05,0.36v2.21c0.12,0.11,0.25,0.19,0.41,0.26c0.02,0.01,0.05,0.02,0.07,0.03l-0.48,2.42v4.62
				c0.06-0.02,0.13-0.04,0.19-0.07l1.41,2.18c-0.17,0.14-0.3,0.33-0.39,0.54c-0.15,0.36-0.14,0.74-0.02,1.07l-1.19,0.65v0.49
				l1.39-0.76c0.11,0.15,0.25,0.28,0.42,0.38l-1.62,3.92c-0.06-0.02-0.12-0.03-0.19-0.03v2.92c0.51-0.06,0.98-0.39,1.19-0.9
				c0.13-0.31,0.14-0.65,0.06-0.95l1.48-0.65c0.06,0.09,0.13,0.18,0.21,0.26c0.22,0.22,0.5,0.36,0.79,0.41l-0.01,0.27
				c0.55-0.56,1.12-1.11,1.72-1.62c0-0.01,0-0.03,0-0.04l0.05-0.01c0.19-0.17,0.39-0.33,0.59-0.5l-0.68,0.07
				c-0.06-0.25-0.19-0.48-0.38-0.67c-0.02-0.02-0.04-0.03-0.05-0.05l2.36-3.53c0.21,0.1,0.45,0.15,0.68,0.14l0.42,2.31
				c0.13-0.09,0.26-0.17,0.39-0.25l-0.39-2.13c0.21-0.07,0.4-0.19,0.57-0.35c0.21-0.21,0.34-0.47,0.4-0.74l3.14,0.19
				c0.02,0.27,0.12,0.52,0.29,0.75l-0.28,0.28c0.95-0.43,1.93-0.8,2.93-1.12c0.01-0.32-0.09-0.64-0.29-0.91l2.43-2.43v-0.61
				l-2.73,2.73c-0.33-0.25-0.74-0.34-1.13-0.27l-1.16-3.55c0.14-0.07,0.27-0.16,0.38-0.27c0.17-0.17,0.28-0.37,0.35-0.58l4.27,0.75
				c0,0.09,0,0.18,0.02,0.27v-0.7l-4.21-0.74c0.01-0.39-0.13-0.78-0.43-1.08c-0.02-0.02-0.03-0.03-0.05-0.05l2.36-3.53
				c0.32,0.15,0.68,0.18,1.02,0.09l1.32,3v-1.07l-0.92-2.11c0.09-0.06,0.18-0.13,0.26-0.21C77.71,37.77,77.81,37.6,77.89,37.43z
				 M69.27,38.04l2.32,3.65c-0.03,0.02-0.06,0.05-0.08,0.07c-0.26,0.26-0.4,0.6-0.43,0.94l-3.72,0.28
				c-0.09-0.38-0.33-0.73-0.68-0.94l1.62-3.92C68.64,38.21,68.98,38.17,69.27,38.04z M62.96,38.84c0.09-0.22,0.12-0.45,0.11-0.67
				l4.23-0.94c0.11,0.3,0.33,0.56,0.62,0.74l-1.62,3.92c-0.4-0.1-0.81-0.03-1.14,0.18l-2.43-2.83
				C62.82,39.12,62.9,38.98,62.96,38.84z M60.77,43.93c-0.02-0.01-0.05-0.02-0.07-0.02l0.83-4.17c0.3,0.01,0.6-0.07,0.86-0.23
				l2.43,2.83c-0.1,0.12-0.19,0.25-0.25,0.4c-0.11,0.28-0.14,0.56-0.09,0.84l-2.97,1.03C61.36,44.32,61.11,44.08,60.77,43.93z
				 M61.18,46.4c0.17-0.14,0.3-0.33,0.39-0.54c0.11-0.28,0.14-0.56,0.09-0.84l2.97-1.03c0.12,0.24,0.31,0.44,0.55,0.58l-1.62,3.92
				c-0.33-0.08-0.67-0.05-0.97,0.09L61.18,46.4z M63.56,53.67c-0.39,0.39-0.51,0.94-0.38,1.43l-1.48,0.65
				c-0.12-0.19-0.29-0.36-0.49-0.48l1.62-3.92c0.19,0.05,0.38,0.06,0.56,0.03l0.59,2C63.84,53.45,63.69,53.54,63.56,53.67z
				 M65.24,53.39c-0.26-0.12-0.55-0.17-0.83-0.13l-0.59-2c0.32-0.15,0.6-0.42,0.74-0.77c0.09-0.22,0.12-0.44,0.11-0.66l2.54-0.55
				c0.07,0.19,0.18,0.37,0.34,0.52c0.02,0.02,0.04,0.03,0.06,0.05L65.24,53.39z M67.54,47.72c-0.31,0.31-0.45,0.73-0.43,1.14
				l-2.54,0.55c-0.11-0.3-0.33-0.57-0.62-0.74l1.62-3.92c0.27,0.07,0.55,0.06,0.8-0.02l1.37,2.83
				C67.68,47.59,67.61,47.65,67.54,47.72z M68.14,47.35l-1.37-2.83c0.23-0.16,0.42-0.38,0.53-0.65c0.06-0.15,0.1-0.31,0.11-0.46
				l3.72-0.28c0.06,0.26,0.19,0.51,0.39,0.71c0.02,0.02,0.04,0.04,0.06,0.05l-2.36,3.53C68.87,47.27,68.49,47.24,68.14,47.35z
				 M73.97,47.8c-0.14,0.07-0.27,0.16-0.38,0.28c-0.21,0.21-0.34,0.47-0.4,0.74l-3.14-0.19c-0.03-0.33-0.17-0.66-0.43-0.91
				c-0.02-0.02-0.04-0.03-0.05-0.05l2.36-3.53c0.28,0.13,0.58,0.17,0.88,0.12L73.97,47.8z M73.19,41.48
				c-0.39-0.19-0.84-0.19-1.23-0.02l-2.32-3.65c0.17-0.15,0.31-0.33,0.4-0.55c0.04-0.11,0.07-0.21,0.09-0.32l4.95,0.1
				c0.04,0.31,0.18,0.61,0.42,0.86c0.02,0.02,0.04,0.03,0.06,0.05L73.19,41.48z"/>
			<path class="st0" d="M96.56,100.97c-0.81,0-1.47,0.66-1.47,1.47c0,0.22,0.05,0.43,0.14,0.61c0.21-0.08,0.41-0.16,0.61-0.25
				c0.71-0.29,1.4-0.62,2.07-0.96C97.68,101.34,97.16,100.97,96.56,100.97z M110.29,79.61l0.22-2.07c0.36-0.01,0.71-0.16,0.98-0.43
				c0.17-0.17,0.28-0.36,0.35-0.57l1.54,0.28c-0.01-0.15-0.02-0.3-0.03-0.44l-1.43-0.26c0.01-0.33-0.09-0.65-0.29-0.93l1.38-1.38
				c-0.03-0.17-0.06-0.34-0.1-0.51l-1.59,1.59c-0.27-0.2-0.6-0.3-0.93-0.29l-0.46-2.55c0.21-0.07,0.4-0.19,0.57-0.35
				c0.21-0.21,0.34-0.47,0.4-0.74l1.44,0.09c-0.04-0.15-0.09-0.29-0.13-0.44l-1.28-0.08c-0.03-0.33-0.17-0.66-0.43-0.91
				c-0.02-0.02-0.04-0.03-0.05-0.05l0.89-1.33c-0.07-0.16-0.14-0.31-0.2-0.47l-1.04,1.55c-0.34-0.16-0.72-0.18-1.07-0.07l-1.37-2.83
				c0.23-0.16,0.42-0.38,0.53-0.65c0.06-0.15,0.1-0.31,0.11-0.46l1.51-0.11c-0.08-0.14-0.16-0.28-0.25-0.41l-1.29,0.1
				c-0.09-0.38-0.33-0.73-0.68-0.94l0.53-1.28c-0.1-0.13-0.2-0.26-0.3-0.39l-0.62,1.5c-0.4-0.1-0.81-0.03-1.14,0.18l-2.43-2.83
				c0.1-0.12,0.19-0.25,0.25-0.4c0.09-0.22,0.12-0.45,0.11-0.67l1.55-0.34c-0.12-0.12-0.25-0.24-0.37-0.36l-1.27,0.28
				c-0.14-0.37-0.42-0.68-0.81-0.84c-0.02-0.01-0.04-0.01-0.06-0.02l0.21-1.07c-0.13-0.1-0.25-0.19-0.38-0.29l-0.25,1.28
				c-0.43-0.02-0.85,0.15-1.15,0.46l-3.54-2.48c0.1-0.2,0.16-0.42,0.16-0.66c0-0.11-0.01-0.22-0.04-0.33l1.27-0.5
				c-0.17-0.09-0.34-0.18-0.51-0.26l-0.91,0.36c-0.22-0.38-0.61-0.66-1.06-0.72v-0.52c-0.14-0.06-0.29-0.11-0.43-0.17v0.68
				c-0.46,0.07-0.84,0.34-1.06,0.72l-4.61-1.8c0.02-0.11,0.04-0.22,0.04-0.33c0-0.2-0.04-0.38-0.11-0.55l0.23-0.14
				c-0.9-0.13-1.81-0.22-2.73-0.25c-0.13,0.15-0.22,0.33-0.28,0.53l-3.17-0.44c-0.56,0.05-1.11,0.12-1.66,0.2l4.78,0.66
				c0,0.31,0.1,0.6,0.27,0.84l-3.57,3.43c-0.35-0.27-0.81-0.38-1.26-0.26l-1.62-3.92c0.25-0.15,0.44-0.36,0.56-0.6
				c-0.35,0.07-0.7,0.14-1.05,0.22c-0.5,0.12-1,0.25-1.49,0.39l-3.19,4.21c-0.38-0.21-0.84-0.25-1.27-0.07
				c-0.62,0.26-0.97,0.89-0.9,1.52l-5.4,1.41c-0.07-0.17-0.18-0.33-0.31-0.47c-0.02-0.02-0.03-0.03-0.05-0.05
				c-0.7,0.69-1.36,1.42-1.98,2.18c0.13,0.11,0.27,0.2,0.41,0.26l-1.41,5.4c-0.43-0.05-0.87,0.09-1.2,0.42
				c-0.47,0.47-0.56,1.19-0.25,1.75l-2.54,1.92c-0.06,0.22-0.12,0.44-0.17,0.67l2.96-2.24c0.22,0.22,0.5,0.35,0.79,0.4l-0.1,4.95
				c-0.44,0.06-0.84,0.31-1.08,0.71l-3.05-1.27c-0.02,0.15-0.04,0.29-0.06,0.44l2.95,1.22c-0.11,0.45-0.01,0.91,0.26,1.26l-3.4,3.55
				v2.4c0.21-0.15,0.38-0.36,0.48-0.62c0.01-0.02,0.02-0.05,0.03-0.07l4.16,0.83c-0.02,0.43,0.15,0.85,0.46,1.15l-2.48,3.54
				c-0.2-0.1-0.42-0.16-0.66-0.16c-0.11,0-0.22,0.01-0.33,0.04l-1.65-4.23v1.18l1.25,3.21c-0.38,0.22-0.66,0.61-0.72,1.06h-0.53
				v0.43h0.53c0.07,0.46,0.34,0.84,0.72,1.06l-1.25,3.21v1.18l1.65-4.23c0.11,0.02,0.22,0.04,0.33,0.04c0.24,0,0.46-0.06,0.66-0.16
				l2.49,3.55c-0.28,0.27-0.46,0.65-0.46,1.07c0,0.02,0,0.05,0,0.07l-4.16,0.83c-0.1-0.28-0.28-0.51-0.51-0.69v2.4l3.4,3.55
				c-0.27,0.35-0.38,0.81-0.26,1.26l-3.14,1.3v0.39h0.17l3.13-1.3c0.24,0.39,0.64,0.65,1.08,0.7l0.01,0.59h0.43l-0.01-0.6
				c0.11-0.02,0.22-0.05,0.32-0.09c0.22-0.09,0.4-0.23,0.55-0.4l1.72,1.09h0.8l-2.29-1.45c0.13-0.29,0.17-0.63,0.08-0.96l3.92-1.62
				c0.21,0.35,0.55,0.59,0.94,0.68l-0.25,3.36h0.43l0.25-3.32c0.15-0.01,0.31-0.05,0.46-0.11c0.28-0.11,0.5-0.3,0.65-0.53l2.83,1.37
				c-0.1,0.32-0.09,0.67,0.04,1.01c0.01,0.02,0.02,0.04,0.03,0.07l-2.27,1.51h0.77l1.73-1.16c0.25,0.28,0.6,0.45,0.96,0.48
				l0.04,0.68h0.43l-0.04-0.7c0.09-0.02,0.18-0.05,0.26-0.08c0.41-0.17,0.7-0.5,0.83-0.89l2.55,0.46c-0.01,0.33,0.09,0.65,0.29,0.93
				l-0.28,0.28h2.37c0.05-0.04,0.09-0.07,0.13-0.12c0.27-0.27,0.41-0.63,0.43-0.98l2.07-0.22c0.06,0.25,0.19,0.48,0.38,0.67
				c0.02,0.02,0.04,0.03,0.05,0.05l-0.38,0.56c0.18-0.01,0.36-0.02,0.54-0.03l0.19-0.29c0.26,0.12,0.55,0.17,0.83,0.13l0.02,0.07
				c0.14-0.01,0.29-0.03,0.43-0.05l-0.04-0.15c0.15-0.07,0.3-0.17,0.43-0.29c0.39-0.39,0.51-0.94,0.38-1.43l1.48-0.65
				c0.12,0.19,0.29,0.36,0.49,0.48l-0.71,1.72c0.17-0.03,0.34-0.07,0.51-0.1l0.6-1.46c0.23,0.06,0.46,0.06,0.69,0.01l0.4,1.03
				c0.14-0.04,0.28-0.08,0.41-0.12l-0.42-1.07c0.28-0.16,0.5-0.4,0.63-0.71c0.31-0.75-0.05-1.61-0.8-1.92s-1.61,0.05-1.92,0.8
				c-0.13,0.31-0.14,0.65-0.06,0.95l-1.48,0.65c-0.06-0.09-0.12-0.18-0.2-0.26c-0.22-0.22-0.5-0.36-0.8-0.41l0.03-1.62
				c0.31-0.04,0.62-0.18,0.86-0.42c0.57-0.57,0.57-1.51,0-2.08c-0.57-0.58-1.51-0.58-2.08,0c-0.24,0.24-0.38,0.54-0.42,0.86
				l-1.62,0.03c-0.02-0.11-0.05-0.21-0.09-0.32c-0.12-0.29-0.33-0.53-0.58-0.68l0.65-1.48c0.3,0.08,0.64,0.07,0.95-0.06
				c0.75-0.31,1.11-1.17,0.8-1.92s-1.17-1.11-1.92-0.8c-0.31,0.13-0.56,0.36-0.72,0.63l-1.51-0.59c0.02-0.11,0.04-0.22,0.04-0.33
				c0-0.32-0.1-0.61-0.27-0.85l1.17-1.12c0.25,0.19,0.56,0.31,0.9,0.31c0.81,0,1.47-0.66,1.47-1.47s-0.66-1.47-1.47-1.47
				c-0.34,0-0.65,0.12-0.9,0.31l-1.17-1.12c0.06-0.09,0.12-0.18,0.16-0.29c0.12-0.29,0.14-0.6,0.07-0.89l1.51-0.59
				c0.16,0.28,0.4,0.5,0.72,0.63c0.75,0.31,1.61-0.05,1.92-0.8s-0.05-1.61-0.8-1.92c-0.31-0.13-0.65-0.14-0.95-0.06L84,82.3
				c0.09-0.06,0.18-0.12,0.26-0.2c0.22-0.22,0.36-0.5,0.41-0.8l1.62,0.03c0.04,0.31,0.18,0.62,0.42,0.86c0.57,0.57,1.51,0.57,2.08,0
				s0.57-1.51,0-2.08c-0.24-0.24-0.54-0.38-0.86-0.42l-0.03-1.62c0.11-0.02,0.21-0.05,0.32-0.09c0.29-0.12,0.53-0.33,0.68-0.58
				l1.48,0.65c-0.08,0.3-0.07,0.64,0.06,0.95c0.31,0.75,1.17,1.11,1.92,0.8s1.11-1.17,0.8-1.92c-0.13-0.31-0.36-0.56-0.63-0.71
				l0.59-1.51c0.11,0.02,0.22,0.04,0.33,0.04c0.32,0,0.61-0.1,0.85-0.27l1.12,1.17c-0.19,0.25-0.31,0.56-0.31,0.9
				c0,0.81,0.66,1.47,1.47,1.47s1.47-0.66,1.47-1.47c0-0.34-0.12-0.65-0.31-0.9l1.12-1.17c0.09,0.06,0.18,0.12,0.29,0.16
				c0.29,0.12,0.6,0.14,0.89,0.07l0.59,1.51c-0.27,0.16-0.5,0.4-0.63,0.71c-0.31,0.75,0.05,1.61,0.8,1.92s1.61-0.05,1.92-0.8
				c0.13-0.31,0.14-0.65,0.06-0.95l1.48-0.65c0.06,0.09,0.13,0.18,0.21,0.26c0.22,0.22,0.5,0.36,0.79,0.41l-0.03,1.62
				c-0.31,0.04-0.62,0.18-0.86,0.42c-0.58,0.57-0.58,1.51,0,2.08c0.57,0.57,1.51,0.57,2.08,0c0.24-0.24,0.38-0.54,0.42-0.86
				l1.62-0.03c0.02,0.11,0.05,0.21,0.09,0.32c0.12,0.29,0.33,0.53,0.58,0.68l-0.65,1.48c-0.3-0.08-0.64-0.07-0.95,0.06
				c-0.75,0.31-1.11,1.17-0.8,1.92s1.17,1.11,1.92,0.8c0.32-0.13,0.56-0.36,0.72-0.63l1.51,0.59c-0.02,0.11-0.04,0.22-0.04,0.33
				c0,0.32,0.1,0.61,0.27,0.85l-1.17,1.12c-0.25-0.19-0.56-0.31-0.9-0.31c-0.81,0-1.47,0.66-1.47,1.47s0.66,1.47,1.47,1.47
				c0.05,0,0.09,0,0.13-0.01c0.42-0.69,0.82-1.39,1.19-2.11c-0.04-0.07-0.08-0.14-0.12-0.21l0.42-0.4c0.21-0.43,0.4-0.86,0.58-1.31
				c0.28-0.66,0.53-1.33,0.75-2.01c-0.41,0.09-0.76,0.35-0.96,0.71l-1.51-0.59c0.05-0.22,0.05-0.46-0.01-0.69l3.01-1.25
				c0.05-0.17,0.09-0.34,0.13-0.52l-3.3,1.37c-0.12-0.2-0.29-0.37-0.48-0.49l0.65-1.48c0.3,0.08,0.64,0.07,0.95-0.06
				c0.36-0.15,0.62-0.42,0.77-0.74l1.62,0.48c0.03-0.14,0.06-0.28,0.08-0.42l-1.58-0.46c0.04-0.25,0.01-0.52-0.1-0.77
				c-0.01-0.02-0.02-0.04-0.03-0.07l2.08-1.39c0.02-0.18,0.03-0.36,0.05-0.55l-2.36,1.58C110.81,79.84,110.56,79.68,110.29,79.61z
				 M90.52,53.89l4.61,1.8c-0.02,0.11-0.04,0.22-0.04,0.33c0,0.24,0.06,0.46,0.16,0.66l-3.55,2.49c-0.27-0.28-0.65-0.46-1.07-0.46
				c-0.02,0-0.05,0-0.07,0l-0.83-4.16C90.07,54.42,90.35,54.18,90.52,53.89z M95.33,63.97l-2.35,2.09
				c-0.26-0.21-0.59-0.34-0.95-0.34c-0.02,0-0.05,0-0.07,0l-0.83-4.17c0.29-0.1,0.53-0.29,0.7-0.54l3.33,1.68
				c-0.05,0.15-0.08,0.3-0.08,0.47C95.09,63.46,95.18,63.74,95.33,63.97z M85.02,70.09c-0.11-0.28-0.3-0.5-0.53-0.65l1.37-2.83
				c0.25,0.08,0.53,0.09,0.8,0.02l1.62,3.92c-0.29,0.17-0.51,0.44-0.62,0.75l-2.54-0.55C85.15,70.53,85.11,70.32,85.02,70.09z
				 M81.75,81.24l-2,0.59c-0.15-0.33-0.42-0.6-0.77-0.74c-0.22-0.09-0.44-0.12-0.66-0.11l-0.55-2.54c0.19-0.07,0.37-0.18,0.52-0.34
				c0.02-0.02,0.03-0.04,0.05-0.05l3.53,2.36C81.75,80.67,81.71,80.96,81.75,81.24z M75.26,94.41l4.16-0.83
				c0.1,0.27,0.27,0.51,0.5,0.68l-1,1.83c-0.33-0.12-0.72-0.13-1.07,0.02c-0.22,0.09-0.4,0.23-0.54,0.39l-2.18-1.41
				c0.08-0.19,0.13-0.39,0.13-0.61C75.26,94.46,75.26,94.45,75.26,94.41z M79.34,93.09c0,0.02,0,0.05,0,0.07l-4.16,0.83
				c-0.08-0.22-0.21-0.42-0.38-0.58l1.48-2.14c0.2,0.1,0.42,0.15,0.65,0.15c0.39,0,0.73-0.15,1-0.39l1.62,1.31
				C79.41,92.57,79.34,92.83,79.34,93.09z M72.32,94.57l-4.17,0.83c-0.1-0.29-0.29-0.53-0.54-0.7l1.68-3.33
				c0.15,0.05,0.3,0.08,0.47,0.08c0.3,0,0.57-0.09,0.81-0.24l2.09,2.35c-0.21,0.26-0.34,0.59-0.34,0.95
				C72.32,94.52,72.32,94.53,72.32,94.57z M66.78,68.72l4.53-1.99c0.06,0.09,0.13,0.18,0.21,0.26c0.17,0.17,0.37,0.28,0.58,0.35
				l-0.75,4.27c-0.39-0.01-0.78,0.13-1.08,0.43c-0.02,0.02-0.03,0.03-0.05,0.05l-3.53-2.36C66.84,69.42,66.87,69.07,66.78,68.72z
				 M82.68,69.57c-0.28,0.25-0.45,0.6-0.48,0.96l-3.14,0.19c-0.06-0.27-0.19-0.53-0.4-0.74c-0.11-0.11-0.24-0.21-0.38-0.28
				l1.16-3.54c0.26,0.05,0.54,0.02,0.81-0.09c0.02-0.01,0.05-0.02,0.07-0.03L82.68,69.57z M80.67,65.79
				c0.23-0.21,0.38-0.47,0.45-0.77l3.72,0.28c0.01,0.15,0.05,0.31,0.11,0.46c0.11,0.28,0.3,0.5,0.53,0.65l-1.37,2.83
				c-0.32-0.1-0.67-0.09-1.01,0.04c-0.02,0.01-0.04,0.02-0.07,0.03L80.67,65.79z M68.01,83.26l2.83-2.43
				c0.12,0.1,0.25,0.19,0.4,0.25c0.28,0.11,0.56,0.14,0.84,0.09l1.03,2.97c-0.3,0.15-0.54,0.41-0.68,0.74
				c-0.01,0.02-0.02,0.05-0.02,0.07l-4.17-0.83C68.25,83.8,68.17,83.51,68.01,83.26z M72.75,72.84l3.55-1.16
				c0.07,0.14,0.16,0.27,0.28,0.38c0.21,0.21,0.47,0.34,0.74,0.4l-0.19,3.14c-0.33,0.03-0.66,0.17-0.91,0.43
				c-0.02,0.02-0.03,0.04-0.05,0.05l-3.53-2.36C72.77,73.45,72.81,73.14,72.75,72.84z M75.93,76.43c-0.16,0.34-0.18,0.72-0.07,1.07
				l-2.83,1.37c-0.16-0.23-0.38-0.42-0.65-0.53c-0.15-0.06-0.31-0.1-0.46-0.11l-0.28-3.72c0.26-0.06,0.51-0.19,0.71-0.39
				c0.02-0.02,0.03-0.04,0.05-0.06L75.93,76.43z M72.99,86.66c0.08,0.05,0.16,0.09,0.24,0.13c0.41,0.17,0.85,0.14,1.21-0.04
				l1.48,2.14c-0.24,0.22-0.4,0.52-0.45,0.86h-4.25c-0.04-0.28-0.16-0.53-0.33-0.73L72.99,86.66z M74.35,84.08
				c-0.28-0.11-0.56-0.14-0.84-0.09l-1.03-2.97c0.24-0.12,0.44-0.31,0.58-0.55l3.92,1.62c-0.08,0.33-0.05,0.67,0.09,0.97l-2.18,1.41
				C74.75,84.29,74.57,84.16,74.35,84.08z M73.24,80.07c0.07-0.27,0.06-0.55-0.02-0.8l2.83-1.37c0.05,0.07,0.11,0.15,0.17,0.21
				c0.31,0.31,0.73,0.45,1.14,0.43l0.55,2.54c-0.31,0.11-0.57,0.33-0.75,0.62L73.24,80.07z M81.5,75.2c-0.2,0.27-0.3,0.6-0.29,0.93
				l-2.55,0.47c-0.07-0.21-0.19-0.4-0.35-0.57c-0.21-0.21-0.47-0.34-0.74-0.4l0.19-3.14c0.27-0.02,0.52-0.12,0.75-0.28L81.5,75.2z
				 M77.87,69.57c-0.39-0.07-0.8,0.02-1.13,0.27l-3-3c0.2-0.27,0.3-0.59,0.29-0.92l4.26-0.75c0.01,0.03,0.02,0.07,0.04,0.1
				c0.14,0.34,0.4,0.6,0.71,0.75L77.87,69.57z M76.44,70.15c-0.25,0.33-0.33,0.74-0.27,1.13l-3.55,1.17
				c-0.07-0.14-0.16-0.27-0.27-0.38c-0.17-0.17-0.37-0.28-0.58-0.35l0.75-4.27c0.32,0.01,0.65-0.09,0.92-0.29L76.44,70.15z
				 M70.26,74.14c0.26,0.26,0.6,0.4,0.94,0.43l0.28,3.72c-0.38,0.09-0.73,0.33-0.94,0.68l-3.92-1.63c0.08-0.33,0.05-0.66-0.08-0.96
				l3.65-2.32C70.22,74.08,70.24,74.1,70.26,74.14z M70.38,79.35c-0.1,0.4-0.03,0.81,0.18,1.14l-2.83,2.43
				c-0.12-0.1-0.25-0.18-0.4-0.25c-0.22-0.09-0.45-0.12-0.67-0.11l-0.94-4.23c0.3-0.11,0.56-0.33,0.74-0.62L70.38,79.35z
				 M68.13,84.6c0.01-0.02,0.02-0.05,0.03-0.07l4.16,0.83c-0.02,0.37,0.11,0.74,0.34,1.02l-2.09,2.35
				c-0.23-0.15-0.51-0.24-0.81-0.24c-0.16,0-0.32,0.03-0.47,0.08l-1.68-3.33C67.84,85.09,68.02,84.88,68.13,84.6z M70.9,90.9
				c0.17-0.2,0.29-0.45,0.33-0.73h4.25c0.05,0.34,0.21,0.64,0.45,0.86l-1.48,2.14c-0.2-0.1-0.42-0.15-0.65-0.15
				c-0.3,0-0.57,0.09-0.81,0.24L70.9,90.9z M76.93,88.48c-0.23,0-0.45,0.06-0.65,0.15l-1.48-2.14c0.15-0.14,0.27-0.31,0.36-0.51
				c0.01-0.02,0.02-0.05,0.02-0.07l4.16,0.83c-0.01,0.29,0.06,0.57,0.2,0.82l-1.62,1.31C77.66,88.64,77.31,88.48,76.93,88.48z
				 M79.45,86.27c-0.01,0.02-0.02,0.05-0.02,0.07l-4.16-0.83c0.01-0.24-0.03-0.47-0.13-0.68l2.18-1.41c0.14,0.16,0.33,0.3,0.54,0.39
				c0.36,0.15,0.74,0.14,1.07,0.02l1,1.83C79.72,85.8,79.55,86.02,79.45,86.27z M78.59,77.7c0.1-0.21,0.15-0.45,0.14-0.68l2.55-0.46
				c0.07,0.21,0.19,0.4,0.35,0.57c0.27,0.27,0.63,0.41,0.98,0.43l0.22,2.07c-0.25,0.06-0.48,0.19-0.67,0.38
				c-0.02,0.02-0.03,0.04-0.05,0.05L78.59,77.7z M82.73,74.6c-0.33-0.01-0.65,0.09-0.93,0.29l-3-3c0.17-0.22,0.26-0.48,0.29-0.75
				l3.14-0.19c0.02,0.09,0.04,0.18,0.08,0.26c0.17,0.41,0.5,0.7,0.89,0.83L82.73,74.6z M83.61,72.12c0.2,0.01,0.41-0.03,0.61-0.11
				c0.02-0.01,0.04-0.02,0.07-0.03l2.36,3.53c-0.22,0.19-0.37,0.45-0.44,0.72l-2.07-0.22c-0.01-0.36-0.16-0.71-0.43-0.98
				c-0.17-0.17-0.36-0.28-0.57-0.35L83.61,72.12z M87.06,66.47c0.24-0.14,0.43-0.35,0.55-0.58l2.97,1.03
				c-0.02,0.09-0.03,0.18-0.03,0.27c0,0.44,0.2,0.84,0.5,1.11l-1.41,2.18c-0.3-0.13-0.64-0.17-0.97-0.09L87.06,66.47z M90.73,66.52
				l-2.97-1.03c0.05-0.27,0.03-0.56-0.09-0.84c-0.06-0.15-0.15-0.28-0.25-0.4l2.43-2.83c0.23,0.14,0.5,0.23,0.78,0.23
				c0.03,0,0.05,0,0.08,0l0.83,4.16C91.19,65.93,90.9,66.18,90.73,66.52z M88.34,54.32c0.25,0.19,0.56,0.31,0.9,0.31
				c0.02,0,0.05,0,0.07,0l0.83,4.16c-0.41,0.14-0.73,0.46-0.88,0.86l-4.22-0.94c0.02-0.22-0.02-0.45-0.11-0.67
				c-0.04-0.11-0.1-0.2-0.16-0.29L88.34,54.32z M84.94,59.12l4.22,0.94c0,0.04,0,0.07,0,0.11c0,0.37,0.14,0.71,0.36,0.97l-2.43,2.83
				c-0.33-0.21-0.75-0.28-1.14-0.18l-1.62-3.92C84.62,59.68,84.83,59.42,84.94,59.12z M83.93,60.02l1.62,3.92
				c-0.35,0.21-0.59,0.55-0.68,0.94l-3.72-0.28c-0.01-0.15-0.05-0.31-0.11-0.46c-0.09-0.22-0.23-0.4-0.4-0.55l2.32-3.66
				C83.27,60.08,83.6,60.1,83.93,60.02z M80.13,53.27c0.32,0.17,0.7,0.23,1.07,0.14l1.62,3.92c-0.4,0.24-0.65,0.64-0.71,1.08
				l-4.95,0.1c-0.02-0.11-0.05-0.21-0.09-0.32c-0.07-0.18-0.18-0.34-0.31-0.47L80.13,53.27z M77.17,58.95l4.95-0.1
				c0.02,0.11,0.05,0.22,0.09,0.32c0.09,0.22,0.23,0.4,0.4,0.55l-2.32,3.66c-0.36-0.16-0.78-0.18-1.17-0.02
				c-0.02,0.01-0.04,0.02-0.06,0.03l-2.36-3.53C76.96,59.61,77.13,59.28,77.17,58.95z M75.33,60.17c0.3,0.08,0.64,0.07,0.95-0.06
				c0.02-0.01,0.04-0.02,0.07-0.03l2.36,3.53c-0.32,0.29-0.5,0.7-0.49,1.13l-4.26,0.75c-0.07-0.21-0.19-0.41-0.35-0.58
				c-0.08-0.08-0.17-0.15-0.26-0.21L75.33,60.17z M68.96,60.73l5.4-1.41c0.12,0.29,0.33,0.52,0.57,0.67l-1.99,4.53
				c-0.43-0.12-0.89-0.04-1.26,0.24l-3-3C68.9,61.47,69,61.09,68.96,60.73z M67.34,62.36c0.36,0.04,0.73-0.05,1.04-0.28l3,3
				c-0.27,0.37-0.35,0.84-0.24,1.26l-4.53,1.99c-0.06-0.09-0.13-0.18-0.21-0.26c-0.14-0.14-0.3-0.24-0.47-0.31L67.34,62.36z
				 M65.54,70.58c0.31-0.04,0.62-0.18,0.86-0.42c0.02-0.02,0.03-0.04,0.05-0.05l3.53,2.36c-0.19,0.39-0.19,0.84-0.02,1.23
				l-3.65,2.32c-0.15-0.17-0.33-0.31-0.55-0.4c-0.11-0.04-0.21-0.07-0.32-0.09L65.54,70.58z M65.41,83.47
				c-0.01,0.02-0.01,0.04-0.02,0.06l-4.16-0.83c0.02-0.35-0.09-0.7-0.31-0.97l3.43-3.57c0.09,0.06,0.19,0.12,0.29,0.16
				c0.22,0.09,0.45,0.12,0.67,0.11l0.94,4.23C65.88,82.8,65.57,83.09,65.41,83.47z M66.11,85.35c0.03,0.02,0.06,0.03,0.1,0.05
				c0.34,0.14,0.71,0.14,1.03,0.03l1.68,3.33c-0.32,0.23-0.55,0.58-0.61,0.99h-4.25c-0.05-0.33-0.21-0.63-0.44-0.85L66.11,85.35z
				 M63.63,91.03c0.23-0.22,0.39-0.52,0.44-0.85h4.25c0.06,0.41,0.28,0.76,0.61,0.99l-1.69,3.33c-0.15-0.05-0.3-0.08-0.46-0.08
				c-0.24,0-0.46,0.06-0.66,0.16L63.63,91.03z M65.31,101.48c-0.22-0.02-0.45,0.02-0.67,0.11c-0.11,0.04-0.2,0.1-0.29,0.16
				l-3.43-3.57c0.19-0.25,0.31-0.56,0.31-0.9c0-0.02,0-0.05,0-0.07l4.16-0.83c0.14,0.41,0.46,0.73,0.86,0.88L65.31,101.48z
				 M70.38,100.58l-3.92,1.62c-0.17-0.29-0.44-0.5-0.74-0.62l0.94-4.22c0.04,0,0.07,0.01,0.11,0.01c0.37,0,0.71-0.14,0.97-0.36
				l2.83,2.43C70.36,99.77,70.28,100.17,70.38,100.58z M72.08,98.77c-0.27-0.05-0.56-0.03-0.84,0.09c-0.15,0.06-0.28,0.15-0.4,0.25
				l-2.83-2.43c0.14-0.23,0.23-0.49,0.23-0.78c0-0.03,0-0.05,0-0.08l4.16-0.83c0.13,0.35,0.38,0.64,0.71,0.81L72.08,98.77z
				 M72.49,98.91l1.03-2.97c0.09,0.02,0.18,0.03,0.27,0.03c0.44,0,0.84-0.2,1.11-0.5l2.18,1.41c-0.13,0.3-0.17,0.64-0.09,0.97
				l-3.92,1.62C72.93,99.22,72.73,99.03,72.49,98.91z M77.36,101.4c-0.22-0.01-0.44,0.02-0.66,0.11c-0.28,0.11-0.5,0.3-0.65,0.53
				l-2.83-1.37c0.08-0.25,0.09-0.53,0.02-0.8l3.92-1.62c0.17,0.29,0.44,0.51,0.75,0.62L77.36,101.4z M77.78,101.48l0.55-2.54
				c0.22,0.01,0.44-0.02,0.66-0.11c0.36-0.15,0.62-0.42,0.77-0.74l2,0.59c-0.04,0.25-0.01,0.52,0.1,0.77
				c0.01,0.02,0.02,0.04,0.03,0.07l-3.53,2.36C78.19,101.7,77.99,101.57,77.78,101.48z M82.62,102.38
				c-0.36,0.01-0.71,0.16-0.98,0.43c-0.17,0.17-0.28,0.36-0.35,0.57l-2.55-0.47c0.01-0.2-0.03-0.41-0.11-0.61
				c-0.01-0.02-0.02-0.04-0.03-0.07l3.53-2.36c0.19,0.22,0.45,0.37,0.72,0.44L82.62,102.38z M86.86,99.96
				c0.19,0.14,0.41,0.23,0.63,0.27l-0.03,1.62c-0.31,0.04-0.62,0.18-0.86,0.42c-0.27,0.27-0.41,0.62-0.43,0.98l-2.07,0.22
				c-0.05-0.18-0.13-0.35-0.24-0.51L86.86,99.96z M84.67,99.07l1.62-0.04c0.04,0.22,0.13,0.44,0.27,0.63l-3,3
				c-0.16-0.11-0.33-0.2-0.51-0.24l0.22-2.07c0.17-0.01,0.34-0.04,0.5-0.11C84.28,100.03,84.6,99.58,84.67,99.07z M83.77,95.49
				c0.12,0.2,0.29,0.37,0.48,0.49l-0.65,1.48c-0.3-0.08-0.64-0.07-0.95,0.06c-0.36,0.15-0.62,0.42-0.77,0.74l-2-0.59
				c0.03-0.18,0.02-0.38-0.03-0.56L83.77,95.49z M82.09,93.83l1.51,0.59c-0.05,0.22-0.05,0.46,0.01,0.69l-3.92,1.62
				c-0.1-0.17-0.23-0.31-0.38-0.42l1-1.83c0.16,0.06,0.33,0.09,0.51,0.09C81.36,94.57,81.83,94.27,82.09,93.83z M81.71,91.93
				c-0.25-0.19-0.56-0.31-0.9-0.31c-0.39,0-0.74,0.15-1,0.39l-1.62-1.31c0.1-0.16,0.16-0.34,0.19-0.53h4.25
				c0.03,0.23,0.12,0.45,0.26,0.64L81.71,91.93z M82.88,89.11c-0.13,0.18-0.22,0.4-0.26,0.64h-4.25c-0.03-0.19-0.09-0.37-0.19-0.53
				l1.62-1.31c0.12,0.11,0.27,0.21,0.44,0.28c0.51,0.21,1.06,0.11,1.47-0.2L82.88,89.11z M83.6,85.52l-1.51,0.59
				c-0.16-0.28-0.4-0.5-0.72-0.63c-0.36-0.15-0.74-0.14-1.07-0.02l-1-1.83c0.15-0.11,0.28-0.25,0.38-0.42l3.92,1.62
				C83.55,85.05,83.55,85.29,83.6,85.52z M84.25,83.93c-0.19,0.12-0.36,0.29-0.48,0.49l-3.92-1.62c0.05-0.19,0.06-0.38,0.03-0.56
				l2-0.59c0.07,0.15,0.17,0.3,0.29,0.43c0.39,0.39,0.94,0.51,1.43,0.38L84.25,83.93z M86.29,80.89l-1.62-0.03
				c-0.04-0.31-0.18-0.62-0.42-0.86c-0.27-0.27-0.63-0.41-0.98-0.43l-0.22-2.07c0.18-0.05,0.35-0.13,0.51-0.24l3,3
				C86.41,80.45,86.32,80.66,86.29,80.89z M86.86,79.96l-3-3c0.12-0.16,0.2-0.33,0.24-0.51l2.07,0.22c0.01,0.17,0.04,0.34,0.11,0.5
				c0.21,0.51,0.67,0.83,1.18,0.9l0.03,1.62C87.27,79.72,87.05,79.82,86.86,79.96z M87.84,75.15c-0.25-0.04-0.52-0.01-0.77,0.1
				c-0.02,0.01-0.04,0.02-0.07,0.03l-2.36-3.53c0.18-0.16,0.31-0.36,0.39-0.57l2.54,0.55c-0.01,0.22,0.02,0.44,0.11,0.66
				c0.15,0.36,0.42,0.62,0.74,0.77L87.84,75.15z M90.54,77.65l-1.48-0.65c0.08-0.3,0.07-0.64-0.06-0.95
				c-0.15-0.36-0.42-0.62-0.74-0.77l0.59-2c0.18,0.03,0.37,0.02,0.56-0.03l1.62,3.92C90.83,77.28,90.66,77.46,90.54,77.65z
				 M92.11,76.99c-0.22-0.05-0.46-0.05-0.69,0.01l-1.62-3.92c0.17-0.1,0.31-0.23,0.42-0.38l1.83,1c-0.06,0.16-0.09,0.33-0.09,0.51
				c0,0.55,0.3,1.02,0.74,1.28L92.11,76.99z M92.25,73.33l-1.83-1c0.12-0.33,0.13-0.72-0.02-1.07c-0.09-0.22-0.23-0.4-0.39-0.54
				l1.41-2.18c0.19,0.08,0.39,0.13,0.61,0.13c0.02,0,0.05,0,0.07,0l0.83,4.16C92.66,72.92,92.43,73.09,92.25,73.33z M94.18,72.95
				c-0.22-0.13-0.47-0.21-0.75-0.21c-0.02,0-0.05,0-0.07,0l-0.83-4.16c0.22-0.08,0.42-0.21,0.58-0.38l2.14,1.48
				c-0.1,0.2-0.15,0.42-0.15,0.65c0,0.39,0.15,0.73,0.39,1L94.18,72.95z M96.35,76.02c-0.24,0.03-0.45,0.12-0.64,0.26l-1.12-1.17
				c0.19-0.25,0.31-0.56,0.31-0.9c0-0.39-0.15-0.74-0.39-1l1.31-1.62c0.16,0.1,0.34,0.16,0.53,0.19V76.02z M96.35,68.88
				c-0.34,0.05-0.64,0.21-0.86,0.45l-2.14-1.48c0.1-0.2,0.15-0.42,0.15-0.65c0-0.3-0.09-0.57-0.24-0.81l2.35-2.09
				c0.2,0.17,0.46,0.29,0.73,0.33v4.25H96.35z M96.35,61.71c-0.41,0.06-0.76,0.28-0.99,0.61l-3.33-1.69
				c0.05-0.15,0.07-0.3,0.07-0.46c0-0.24-0.06-0.46-0.16-0.66l3.55-2.49c0.22,0.23,0.52,0.39,0.85,0.44L96.35,61.71L96.35,61.71z
				 M109.51,72.12l0.47,2.55c-0.21,0.07-0.4,0.19-0.57,0.35c-0.27,0.27-0.41,0.63-0.43,0.98l-2.07,0.22
				c-0.06-0.25-0.19-0.48-0.38-0.67c-0.02-0.02-0.04-0.03-0.06-0.05l2.36-3.53C109.04,72.09,109.28,72.14,109.51,72.12z
				 M107.26,66.61l1.37,2.83c-0.07,0.05-0.15,0.11-0.21,0.17c-0.31,0.31-0.45,0.73-0.43,1.14l-2.54,0.55
				c-0.11-0.31-0.33-0.57-0.62-0.75l1.62-3.92C106.73,66.71,107,66.7,107.26,66.61z M106.06,66.47l-1.62,3.92
				c-0.33-0.08-0.67-0.05-0.97,0.09l-1.41-2.18c0.17-0.15,0.3-0.33,0.39-0.54c0.11-0.28,0.14-0.56,0.09-0.84l2.97-1.03
				C105.63,66.12,105.82,66.33,106.06,66.47z M103.27,61.41l2.43,2.83c-0.1,0.12-0.19,0.25-0.25,0.4c-0.11,0.28-0.14,0.56-0.09,0.84
				l-2.97,1.03c-0.15-0.3-0.41-0.54-0.74-0.68c-0.02-0.01-0.05-0.02-0.07-0.02l0.83-4.17C102.72,61.65,103.02,61.58,103.27,61.41z
				 M101.92,61.53c0.02,0.01,0.05,0.02,0.07,0.03l-0.83,4.16c-0.37-0.02-0.74,0.11-1.02,0.34l-2.35-2.09
				c0.15-0.23,0.24-0.51,0.24-0.81c0-0.16-0.03-0.32-0.08-0.47l3.33-1.68C101.44,61.24,101.65,61.42,101.92,61.53z M96.78,57.46
				c0.33-0.05,0.63-0.21,0.85-0.44l3.54,2.48c-0.02,0.03-0.03,0.06-0.05,0.1c-0.14,0.34-0.14,0.71-0.03,1.03l-3.33,1.68
				c-0.23-0.32-0.58-0.55-0.99-0.61v-4.24H96.78z M96.78,64.62c0.28-0.04,0.53-0.16,0.73-0.33l2.35,2.09
				c-0.05,0.08-0.09,0.16-0.13,0.24c-0.17,0.41-0.14,0.85,0.04,1.21l-2.14,1.48c-0.22-0.24-0.52-0.4-0.86-0.45v-4.24H96.78z
				 M98.53,75.11l-1.12,1.17c-0.18-0.13-0.4-0.22-0.64-0.26v-4.25c0.19-0.03,0.37-0.09,0.53-0.19l1.31,1.62
				c-0.11,0.12-0.21,0.27-0.28,0.44C98.13,74.15,98.22,74.71,98.53,75.11z M99.77,72.74c-0.29-0.01-0.57,0.06-0.82,0.2l-1.31-1.62
				c0.24-0.26,0.39-0.61,0.39-1c0-0.23-0.06-0.45-0.15-0.65l2.14-1.48c0.14,0.15,0.31,0.27,0.51,0.36c0.02,0.01,0.05,0.02,0.07,0.02
				L99.77,72.74z M100.19,72.83l0.83-4.16c0.24,0.01,0.47-0.03,0.68-0.13l1.41,2.18c-0.17,0.15-0.3,0.33-0.39,0.54
				c-0.15,0.36-0.14,0.74-0.02,1.07l-1.83,1c-0.15-0.2-0.36-0.37-0.61-0.48C100.24,72.84,100.21,72.84,100.19,72.83z M101.01,76.99
				l-0.59-1.51c0.27-0.16,0.5-0.4,0.63-0.72c0.15-0.36,0.14-0.74,0.02-1.07l1.83-1c0.11,0.15,0.25,0.28,0.42,0.38l-1.62,3.92
				C101.47,76.95,101.23,76.95,101.01,76.99z M104.44,75.57c-0.39,0.39-0.51,0.94-0.38,1.43l-1.48,0.65
				c-0.12-0.19-0.29-0.36-0.49-0.48l1.62-3.92c0.19,0.05,0.38,0.06,0.56,0.03l0.59,2C104.71,75.34,104.57,75.45,104.44,75.57z
				 M105.28,75.15l-0.59-2c0.32-0.15,0.6-0.42,0.74-0.77c0.09-0.22,0.12-0.44,0.11-0.66l2.54-0.55c0.07,0.19,0.18,0.37,0.34,0.52
				c0.02,0.02,0.04,0.03,0.05,0.05l-2.36,3.53C105.85,75.15,105.56,75.11,105.28,75.15z M106.27,79.96
				c-0.19-0.14-0.41-0.23-0.63-0.27l0.03-1.62c0.31-0.04,0.62-0.18,0.86-0.42c0.27-0.27,0.41-0.63,0.43-0.98l2.07-0.22
				c0.05,0.18,0.13,0.35,0.24,0.51L106.27,79.96z M109.86,79.57c-0.17,0.01-0.34,0.04-0.5,0.11c-0.51,0.21-0.83,0.67-0.9,1.18
				l-1.62,0.03c-0.04-0.22-0.13-0.44-0.27-0.63l3-3c0.16,0.12,0.33,0.2,0.51,0.24L109.86,79.57z"/>
		</g>
	</g>
</g>
</svg>
