<?xml version="1.0" encoding="utf-8"?>
<!-- Generator: Adobe Illustrator 26.0.3, SVG Export Plug-In . SVG Version: 6.00 Build 0)  -->
<svg version="1.1" id="Layer_1" xmlns="http://www.w3.org/2000/svg" xmlns:xlink="http://www.w3.org/1999/xlink" x="0px" y="0px"
	 viewBox="0 0 173.5 166" style="enable-background:new 0 0 173.5 166;" xml:space="preserve">
<style type="text/css">
	.st0{fill:#080A26;}
	.st1{fill:#5CDE96;}
	.st2{fill:#00B753;}
	.st3{fill:url(#SVGID_1_);}
	.st4{fill:#FFFFFF;}
	.st5{fill:url(#SVGID_00000076599555638900996720000007076591572095521942_);}
</style>
<g>
	<g>
		<g>
			<g>
				<path class="st0" d="M52.6,121.6H55v14h-2.4V121.6z"/>
				<path class="st0" d="M56,130.3c0-3,2.2-5.3,5.4-5.3c3.1,0,5.4,2.3,5.4,5.3c0,3-2.2,5.3-5.4,5.3C58.2,135.6,56,133.3,56,130.3z
					 M64.3,130.3c0-1.8-1.2-3.1-2.9-3.1c-1.8,0-3,1.3-3,3.1c0,1.8,1.2,3.1,3,3.1C63.1,133.5,64.3,132.1,64.3,130.3z"/>
				<path class="st0" d="M67.6,130.4c0-3,2.2-5.3,5.3-5.3c2.6,0,4.3,1.7,4.8,3.3l-2.2,0.9c-0.3-1.2-1.2-2-2.6-2
					c-1.6,0-2.9,1.2-2.9,3.1s1.3,3.1,2.9,3.1c1.3,0,2.3-0.8,2.6-1.9l2.2,0.9c-0.5,1.5-2.1,3.2-4.8,3.2
					C69.9,135.6,67.6,133.3,67.6,130.4z"/>
				<path class="st0" d="M85.3,135.6l-4.1-4.8v4.8h-2.4v-14h2.4v8l3.9-4.1h2.8l-4.3,4.7l4.4,5.5L85.3,135.6L85.3,135.6z"/>
				<path class="st0" d="M87.7,130.4c0-3,2.2-5.3,5.3-5.3c2.6,0,4.3,1.7,4.8,3.3l-2.2,0.9c-0.3-1.2-1.2-2-2.6-2
					c-1.6,0-2.9,1.2-2.9,3.1s1.3,3.1,2.9,3.1c1.3,0,2.3-0.8,2.6-1.9l2.2,0.9c-0.5,1.5-2.1,3.2-4.8,3.2
					C90,135.6,87.7,133.3,87.7,130.4z"/>
				<path class="st0" d="M108.4,129.3v6.3H106v-5.9c0-1.5-0.9-2.3-2.3-2.3c-1.3,0-2.3,1-2.3,2.1v6.1h-2.4v-14.1h2.4v4.9
					c0.7-0.7,1.8-1.2,3.1-1.2C106.9,125.3,108.4,126.9,108.4,129.3z"/>
				<path class="st0" d="M119.9,125.3v10.1h-2.3V134c-0.7,1-1.9,1.6-3.3,1.6c-2.9,0-5-2.3-5-5.3c0-3,2.1-5.1,5-5.1
					c1.5,0,2.6,0.5,3.3,1.5v-1.4L119.9,125.3L119.9,125.3z M117.6,130.3c0-1.9-1.2-3.1-2.9-3.1c-1.7,0-2.9,1.3-2.9,3.1
					c0,1.8,1.2,3.1,2.9,3.1C116.4,133.5,117.6,132.2,117.6,130.3z"/>
				<path class="st0" d="M121,122.3c0-0.9,0.7-1.7,1.7-1.7s1.7,0.7,1.7,1.7s-0.7,1.6-1.7,1.6S121,123.2,121,122.3z M121.4,125.5h2.4
					v10.1h-2.4V125.5z"/>
				<path class="st0" d="M134.9,129.3v6.3h-2.5v-5.9c0-1.5-0.9-2.3-2.3-2.3c-1.3,0-2.3,1-2.3,2.1v6.1h-2.4v-10.1h2.3v1.1
					c0.7-0.8,1.8-1.3,3.2-1.3C133.3,125.3,134.9,126.9,134.9,129.3z"/>
			</g>
		</g>
		<g>
			<path class="st1" d="M38.9,141.9v-1.6h-0.6v-0.6h0.3c0.2,0,0.3-0.1,0.3-0.3v-0.5h0.6v0.9h0.9v0.6h-1v1.5c0,0.4,0.2,0.6,0.6,0.6
				h0.4v0.6H40C39.3,143,38.9,142.6,38.9,141.9z"/>
			<path class="st1" d="M49.4,142.5c0.5,0,0.8-0.2,0.9-0.5l0.5,0.3c-0.3,0.4-0.7,0.8-1.5,0.8c-1.1,0-1.8-0.7-1.8-1.7
				c0-1,0.7-1.8,1.7-1.8c1,0,1.7,0.8,1.7,1.7c0,0.1,0,0.2,0,0.3h-2.7C48.4,142.2,48.9,142.5,49.4,142.5z M50.4,141.1
				c-0.1-0.6-0.5-0.9-1-0.9c-0.5,0-1,0.3-1.1,0.9H50.4z"/>
			<path class="st1" d="M58.4,141.4c0-1,0.7-1.7,1.7-1.7c0.8,0,1.4,0.5,1.5,1.1l-0.6,0.2c-0.1-0.4-0.5-0.7-0.9-0.7
				c-0.6,0-1.1,0.5-1.1,1.1s0.5,1.1,1.1,1.1c0.5,0,0.8-0.3,1-0.7l0.6,0.2c-0.2,0.5-0.7,1.1-1.6,1.1
				C59.2,143.1,58.4,142.4,58.4,141.4z"/>
			<path class="st1" d="M72.3,141v2.1h-0.7v-1.9c0-0.5-0.3-0.9-0.9-0.9c-0.5,0-0.9,0.4-0.9,0.8v2h-0.7v-4.6h0.7v1.7
				c0.2-0.3,0.6-0.4,1.1-0.4C71.8,139.6,72.3,140.2,72.3,141z"/>
			<path class="st1" d="M83.1,141v2.1h-0.7v-1.9c0-0.5-0.3-0.9-0.9-0.9c-0.5,0-0.9,0.4-0.9,0.8v2H80v-3.3h0.6v0.4
				c0.2-0.3,0.6-0.5,1.1-0.5C82.6,139.6,83.1,140.2,83.1,141z"/>
			<path class="st1" d="M90.7,141.4c0-1,0.7-1.7,1.8-1.7c1,0,1.8,0.7,1.8,1.7c0,1-0.7,1.7-1.8,1.7C91.4,143.1,90.7,142.4,90.7,141.4
				z M93.5,141.4c0-0.7-0.4-1.1-1.1-1.1s-1.1,0.5-1.1,1.1c0,0.7,0.4,1.1,1.1,1.1C93.1,142.5,93.5,142,93.5,141.4z"/>
			<path class="st1" d="M101.8,138.4h0.7v4.6h-0.7V138.4z"/>
			<path class="st1" d="M110,141.4c0-1,0.7-1.7,1.8-1.7c1,0,1.8,0.7,1.8,1.7c0,1-0.7,1.7-1.8,1.7C110.8,143.1,110,142.4,110,141.4z
				 M112.9,141.4c0-0.7-0.4-1.1-1.1-1.1c-0.6,0-1.1,0.5-1.1,1.1c0,0.7,0.4,1.1,1.1,1.1C112.4,142.5,112.9,142,112.9,141.4z"/>
			<path class="st1" d="M124.4,139.7v2.9c0,1-0.6,1.7-1.8,1.7c-0.9,0-1.4-0.4-1.6-1l0.6-0.2c0.2,0.4,0.5,0.7,1.1,0.7
				c0.7,0,1.1-0.4,1.1-1v-0.3c-0.3,0.4-0.7,0.6-1.2,0.6c-1,0-1.7-0.7-1.7-1.7c0-0.9,0.7-1.7,1.7-1.7c0.5,0,0.9,0.2,1.2,0.6v-0.5
				C123.8,139.7,124.4,139.7,124.4,139.7z M123.7,141.3c0-0.6-0.4-1.1-1.1-1.1c-0.6,0-1.1,0.5-1.1,1.1s0.4,1.1,1.1,1.1
				C123.3,142.5,123.7,142,123.7,141.3z"/>
			<path class="st1" d="M135.2,139.7l-1.3,3.3l-0.4,1.1h-0.7l0.5-1.1h-0.2l-1.2-3.3h0.7l1,2.8l1-2.8H135.2z"/>
		</g>
		<g>
			<path class="st2" d="M42.6,118.5v3.4c-0.2,0-0.4,0.1-0.5,0.2c-0.2,0.1-0.5,0.2-0.7,0.3c-0.1,0-0.1,0-0.1,0.1
				c-0.3,0.1-0.5,0.3-0.7,0.4c0,0,0,0,0,0c0,0-0.1,0-0.1,0.1c-0.2,0.1-0.4,0.3-0.5,0.4c0,0,0,0,0,0c-0.1,0-0.1,0.1-0.1,0.1l0,0
				c-0.2,0.1-0.3,0.3-0.4,0.4c-0.3,0.4-0.6,0.7-0.9,1.2v-6.5L42.6,118.5C42.6,118.5,42.6,118.5,42.6,118.5z"/>
			
				<linearGradient id="SVGID_1_" gradientUnits="userSpaceOnUse" x1="42.5023" y1="121.665" x2="45.9043" y2="134.1753" gradientTransform="matrix(1 0 0 1 0 2)">
				<stop  offset="0" style="stop-color:#00B753"/>
				<stop  offset="1" style="stop-color:#0025FF"/>
			</linearGradient>
			<path class="st3" d="M51.3,129L51.3,129c0,0.1,0,0.2,0,0.2c0,0.1,0,0.1,0,0.1c0,0.2-0.1,0.4-0.1,0.7c0,0,0,0.1,0,0.1
				c0,0.1,0,0.2-0.1,0.2c0,0,0,0.1,0,0.1c0,0.2-0.1,0.3-0.1,0.4c-0.1,0.2-0.1,0.3-0.2,0.5c-0.1,0.1-0.1,0.2-0.1,0.3
				c0,0.1-0.1,0.1-0.1,0.2c-0.1,0.2-0.2,0.4-0.3,0.5c-0.7,1.1-1.6,2-2.8,2.6c-0.2,0.1-0.3,0.2-0.5,0.2c-0.1,0-0.1,0-0.2,0.1
				c-0.2,0.1-0.4,0.1-0.6,0.2c0,0-0.1,0-0.1,0c-0.1,0-0.3,0.1-0.4,0.1c0,0-0.1,0-0.1,0c-0.2,0-0.3,0.1-0.5,0.1c0,0-0.1,0-0.1,0
				c-0.1,0-0.2,0-0.3,0c-0.1,0-0.1,0-0.1,0c0,0-0.1,0-0.1,0l0,0c-0.1,0-0.2,0-0.3,0h-6v-6.5c0-0.3,0-0.5,0.1-0.8c0,0,0-0.1,0-0.1
				c0-0.2,0.1-0.4,0.1-0.6c0-0.1,0-0.1,0-0.2c0-0.2,0.1-0.3,0.2-0.5c0.3-0.7,0.6-1.4,1.1-1.9c0.2-0.2,0.3-0.4,0.5-0.5
				c0.5-0.5,1.1-0.9,1.8-1.2c0.2-0.1,0.4-0.2,0.7-0.3c0.1,0,0.2-0.1,0.3-0.1c0.1,0,0.2-0.1,0.4-0.1c0.1,0,0.2,0,0.3-0.1
				c0.1,0,0.1,0,0.2,0c0.1,0,0.3,0,0.4-0.1c0.2,0,0.4,0,0.6,0c0.1,0,0.2,0,0.3,0c0.2,0,0.5,0,0.7,0.1c0.4,0.1,0.8,0.2,1.2,0.3
				c0,0,0.1,0,0.1,0.1c0,0,0.1,0,0.1,0c0.2,0.1,0.3,0.1,0.5,0.2c0,0,0.1,0,0.1,0.1c0.3,0.2,0.6,0.3,0.9,0.5c0,0,0.1,0.1,0.1,0.1
				c0.2,0.1,0.3,0.3,0.5,0.4c0,0,0.1,0.1,0.1,0.1c0.2,0.2,0.4,0.4,0.6,0.6c0,0,0.1,0.1,0.1,0.1c0.1,0.2,0.2,0.3,0.4,0.5
				c0,0,0,0.1,0.1,0.1c0.1,0.2,0.2,0.4,0.3,0.6c0,0,0,0.1,0.1,0.1c0.1,0.1,0.1,0.3,0.2,0.4c0,0.1,0.1,0.1,0.1,0.2c0,0,0,0.1,0,0.1
				c0.1,0.2,0.1,0.4,0.1,0.6c0,0,0,0.1,0,0.1c0,0.2,0.1,0.4,0.1,0.6c0,0,0,0.1,0,0.1C51.3,128.9,51.3,129,51.3,129z"/>
			<path class="st4" d="M42.5,119.2L42.5,119.2L42.5,119.2l0-0.1c0-0.1,0-0.2-0.1-0.3c-0.1-0.1-0.3-0.1-0.4-0.1l-0.2-0.2h-0.1
				l0.2,0.3c-0.1,0.1-0.1,0.1-0.1,0.2l-1.2,0c0-0.1-0.1-0.2-0.2-0.3l0.1-0.2h-0.1l-0.1,0.2c-0.1,0-0.2,0-0.3,0.1l-0.2-0.2h-0.2
				l0.3,0.3c0,0,0,0.1,0,0.1c0,0.1,0,0.1,0,0.2l-1,0.2c0-0.1-0.1-0.2-0.2-0.2h0l0.1-0.6h-0.1l-0.1,0.5c-0.1,0-0.2,0-0.3,0.1v0.5
				c0,0,0.1,0.1,0.1,0.1c0,0,0,0,0,0l-0.1,0.6v1.1c0,0,0,0,0.1,0l0.3,0.5c0,0-0.1,0.1-0.1,0.1c0,0.1,0,0.2,0,0.3l-0.3,0.2v0.1
				l0.3-0.2c0,0,0.1,0.1,0.1,0.1l-0.4,1c0,0,0,0-0.1,0v0.7c0.1,0,0.2-0.1,0.3-0.2c0-0.1,0-0.2,0-0.2l0.4-0.2c0,0,0,0,0.1,0.1
				c0.1,0.1,0.1,0.1,0.2,0.1v0.1c0.1-0.1,0.3-0.3,0.4-0.4v0h0c0.1,0,0.1-0.1,0.1-0.1l-0.2,0c0-0.1-0.1-0.1-0.1-0.2l0,0l0.6-0.9
				c0.1,0,0.1,0,0.2,0l0.1,0.6c0,0,0.1,0,0.1-0.1l-0.1-0.5c0.1,0,0.1-0.1,0.1-0.1c0.1-0.1,0.1-0.1,0.1-0.2l0.8,0.1
				c0,0.1,0,0.1,0.1,0.2l-0.1,0.1c0.2-0.1,0.5-0.2,0.7-0.3c0-0.1,0-0.2-0.1-0.2l0.6-0.6v-0.2l-0.7,0.7c-0.1-0.1-0.2-0.1-0.3-0.1
				l-0.3-0.9c0,0,0.1,0,0.1-0.1c0,0,0.1-0.1,0.1-0.1l1.1,0.2c0,0,0,0.1,0,0.1v-0.2l-1-0.2c0-0.1,0-0.2-0.1-0.3l0,0l0.6-0.9
				c0.1,0,0.2,0.1,0.3,0l0.3,0.7v-0.3l-0.2-0.5c0,0,0,0,0.1-0.1C42.5,119.2,42.5,119.2,42.5,119.2z M40.4,119.3l0.6,0.9c0,0,0,0,0,0
				c-0.1,0.1-0.1,0.2-0.1,0.2l-0.9,0.1c0-0.1-0.1-0.2-0.2-0.2l0.4-1C40.3,119.3,40.3,119.3,40.4,119.3z M38.9,119.5
				c0-0.1,0-0.1,0-0.2l1-0.2c0,0.1,0.1,0.1,0.2,0.2l-0.4,1c-0.1,0-0.2,0-0.3,0.1l-0.6-0.7C38.8,119.6,38.8,119.5,38.9,119.5z
				 M38.3,120.8L38.3,120.8l0.2-1c0.1,0,0.2,0,0.2-0.1l0.6,0.7c0,0-0.1,0.1-0.1,0.1c0,0.1,0,0.1,0,0.2l-0.7,0.3
				C38.5,120.9,38.4,120.8,38.3,120.8z M38.4,121.4c0,0,0.1-0.1,0.1-0.1c0-0.1,0-0.1,0-0.2l0.7-0.3c0,0.1,0.1,0.1,0.1,0.1l-0.4,1
				c-0.1,0-0.2,0-0.2,0L38.4,121.4z M39,123.1c-0.1,0.1-0.1,0.2-0.1,0.4l-0.4,0.2c0-0.1-0.1-0.1-0.1-0.1l0.4-1c0.1,0,0.1,0,0.1,0
				l0.1,0.5C39.1,123.1,39,123.1,39,123.1z M39.4,123.1c-0.1,0-0.1,0-0.2,0l-0.1-0.5c0.1,0,0.2-0.1,0.2-0.2c0-0.1,0-0.1,0-0.2
				l0.6-0.1c0,0.1,0.1,0.1,0.1,0.1l0,0L39.4,123.1z M40,121.7c-0.1,0.1-0.1,0.2-0.1,0.3l-0.6,0.1c0-0.1-0.1-0.1-0.2-0.2l0.4-1
				c0.1,0,0.1,0,0.2,0L40,121.7C40,121.7,40,121.7,40,121.7z M40.1,121.6l-0.3-0.7c0.1,0,0.1-0.1,0.1-0.2c0,0,0-0.1,0-0.1l0.9-0.1
				c0,0.1,0.1,0.1,0.1,0.2l0,0l-0.6,0.9C40.3,121.6,40.2,121.6,40.1,121.6z M41.6,121.7C41.5,121.7,41.5,121.8,41.6,121.7
				c-0.1,0.1-0.2,0.2-0.2,0.2l-0.8-0.1c0-0.1,0-0.2-0.1-0.2l0,0l0.6-0.9c0.1,0,0.1,0,0.2,0L41.6,121.7z M41.4,120.1
				c-0.1-0.1-0.2-0.1-0.3,0l-0.6-0.9c0,0,0.1-0.1,0.1-0.1c0,0,0-0.1,0-0.1l1.2,0c0,0.1,0,0.2,0.1,0.2l0,0L41.4,120.1z"/>
			<path class="st4" d="M47.1,134.8c-0.2,0-0.4,0.2-0.4,0.4c0,0.1,0,0.1,0,0.2c0.1,0,0.1,0,0.2-0.1c0.2-0.1,0.3-0.2,0.5-0.2
				C47.4,134.9,47.3,134.8,47.1,134.8z M50.5,129.5l0.1-0.5c0.1,0,0.2,0,0.2-0.1c0,0,0.1-0.1,0.1-0.1l0.4,0.1c0,0,0-0.1,0-0.1
				l-0.4-0.1c0-0.1,0-0.2-0.1-0.2l0.3-0.3c0,0,0-0.1,0-0.1l-0.4,0.4c-0.1-0.1-0.2-0.1-0.2-0.1l-0.1-0.6c0.1,0,0.1-0.1,0.1-0.1
				c0.1-0.1,0.1-0.1,0.1-0.2l0.4,0c0,0,0-0.1,0-0.1l-0.3,0c0-0.1,0-0.2-0.1-0.2l0,0l0.2-0.3c0,0,0-0.1-0.1-0.1l-0.3,0.4
				c-0.1,0-0.2-0.1-0.3,0l-0.3-0.7c0.1,0,0.1-0.1,0.1-0.2c0,0,0-0.1,0-0.1l0.4,0c0,0,0-0.1-0.1-0.1l-0.3,0c0-0.1-0.1-0.2-0.2-0.2
				l0.1-0.3c0,0-0.1-0.1-0.1-0.1l-0.2,0.4c-0.1,0-0.2,0-0.3,0.1l-0.6-0.7c0,0,0.1-0.1,0.1-0.1c0-0.1,0-0.1,0-0.2l0.4-0.1
				c0,0-0.1-0.1-0.1-0.1l-0.3,0.1c0-0.1-0.1-0.2-0.2-0.2h0l0.1-0.3c0,0-0.1-0.1-0.1-0.1l-0.1,0.3c-0.1,0-0.2,0-0.3,0.1l-0.9-0.6
				c0-0.1,0-0.1,0-0.2c0,0,0-0.1,0-0.1l0.3-0.1c0,0-0.1,0-0.1-0.1l-0.2,0.1c-0.1-0.1-0.2-0.2-0.3-0.2v-0.1c0,0-0.1,0-0.1,0v0.2
				c-0.1,0-0.2,0.1-0.3,0.2l-1.1-0.4c0,0,0-0.1,0-0.1c0-0.1,0-0.1,0-0.1l0.1,0c-0.2,0-0.4-0.1-0.7-0.1c0,0-0.1,0.1-0.1,0.1l-0.8-0.1
				c-0.1,0-0.3,0-0.4,0.1L45,123c0,0.1,0,0.2,0.1,0.2l-0.9,0.9c-0.1-0.1-0.2-0.1-0.3-0.1l-0.4-1c0.1,0,0.1-0.1,0.1-0.2
				c-0.1,0-0.2,0-0.3,0.1c-0.1,0-0.2,0.1-0.4,0.1l-0.8,1c-0.1-0.1-0.2-0.1-0.3,0c-0.2,0.1-0.2,0.2-0.2,0.4l-1.3,0.3
				c0,0,0-0.1-0.1-0.1l0,0c-0.2,0.2-0.3,0.4-0.5,0.5c0,0,0.1,0.1,0.1,0.1l-0.3,1.3c-0.1,0-0.2,0-0.3,0.1c-0.1,0.1-0.1,0.3-0.1,0.4
				l-0.6,0.5c0,0.1,0,0.1,0,0.2l0.7-0.6c0.1,0.1,0.1,0.1,0.2,0.1l0,1.2c-0.1,0-0.2,0.1-0.3,0.2l-0.7-0.3c0,0,0,0.1,0,0.1l0.7,0.3
				c0,0.1,0,0.2,0.1,0.3l-0.8,0.9v0.6c0.1,0,0.1-0.1,0.1-0.2v0l1,0.2c0,0.1,0,0.2,0.1,0.3l-0.6,0.9c-0.1,0-0.1,0-0.2,0
				c0,0-0.1,0-0.1,0l-0.4-1v0.3l0.3,0.8c-0.1,0.1-0.2,0.2-0.2,0.3h-0.1v0.1h0.1c0,0.1,0.1,0.2,0.2,0.3l-0.3,0.8v0.3l0.4-1
				c0,0,0.1,0,0.1,0c0.1,0,0.1,0,0.2,0l0.6,0.9c-0.1,0.1-0.1,0.2-0.1,0.3v0l-1,0.2c0-0.1-0.1-0.1-0.1-0.2v0.6l0.8,0.9
				c-0.1,0.1-0.1,0.2-0.1,0.3l-0.8,0.3v0.1h0l0.8-0.3c0.1,0.1,0.2,0.2,0.3,0.2v0.2h0.1v-0.2c0,0,0.1,0,0.1,0c0.1,0,0.1-0.1,0.1-0.1
				l0.4,0.3h0.2l-0.6-0.4c0-0.1,0-0.2,0-0.2l1-0.4c0.1,0.1,0.1,0.2,0.2,0.2l-0.1,0.8H41l0.1-0.8c0,0,0.1,0,0.1,0
				c0.1,0,0.1-0.1,0.2-0.1l0.7,0.3c0,0.1,0,0.2,0,0.3c0,0,0,0,0,0l-0.6,0.4h0.2l0.4-0.3c0.1,0.1,0.2,0.1,0.2,0.1l0,0.2h0.1l0-0.2
				c0,0,0,0,0.1,0c0.1,0,0.2-0.1,0.2-0.2l0.6,0.1c0,0.1,0,0.2,0.1,0.2l-0.1,0.1H44c0,0,0,0,0,0c0.1-0.1,0.1-0.2,0.1-0.2l0.5-0.1
				c0,0.1,0.1,0.1,0.1,0.2l0,0l-0.1,0.1c0,0,0.1,0,0.1,0l0.1-0.1c0.1,0,0.1,0,0.2,0v0c0,0,0.1,0,0.1,0l0,0c0,0,0.1,0,0.1-0.1
				c0.1-0.1,0.1-0.2,0.1-0.4l0.4-0.2c0,0.1,0.1,0.1,0.1,0.1l-0.2,0.4c0,0,0.1,0,0.1,0l0.2-0.4c0.1,0,0.1,0,0.2,0l0.1,0.3
				c0,0,0.1,0,0.1,0l-0.1-0.3c0.1,0,0.1-0.1,0.2-0.2c0.1-0.2,0-0.4-0.2-0.5c-0.2-0.1-0.4,0-0.5,0.2c0,0.1,0,0.2,0,0.2l-0.4,0.2
				c0,0,0,0-0.1-0.1c-0.1-0.1-0.1-0.1-0.2-0.1l0-0.4c0.1,0,0.2,0,0.2-0.1c0.1-0.1,0.1-0.4,0-0.5c-0.1-0.1-0.4-0.1-0.5,0
				c-0.1,0.1-0.1,0.1-0.1,0.2l-0.4,0c0,0,0-0.1,0-0.1c0-0.1-0.1-0.1-0.1-0.2l0.2-0.4c0.1,0,0.2,0,0.2,0c0.2-0.1,0.3-0.3,0.2-0.5
				c-0.1-0.2-0.3-0.3-0.5-0.2c-0.1,0-0.1,0.1-0.2,0.2l-0.4-0.1c0,0,0-0.1,0-0.1c0-0.1,0-0.2-0.1-0.2l0.3-0.3
				c0.1,0.1,0.1,0.1,0.2,0.1c0.2,0,0.4-0.2,0.4-0.4c0-0.2-0.2-0.4-0.4-0.4c-0.1,0-0.2,0-0.2,0.1l-0.3-0.3c0,0,0-0.1,0-0.1
				c0-0.1,0-0.2,0-0.2l0.4-0.1c0,0.1,0.1,0.1,0.2,0.2c0.2,0.1,0.4,0,0.5-0.2c0.1-0.2,0-0.4-0.2-0.5c-0.1,0-0.2,0-0.2,0l-0.2-0.4
				c0,0,0,0,0.1-0.1c0.1-0.1,0.1-0.1,0.1-0.2l0.4,0c0,0.1,0,0.2,0.1,0.2c0.1,0.1,0.4,0.1,0.5,0c0.1-0.1,0.1-0.4,0-0.5
				c-0.1-0.1-0.1-0.1-0.2-0.1l0-0.4c0,0,0.1,0,0.1,0c0.1,0,0.1-0.1,0.2-0.1l0.4,0.2c0,0.1,0,0.2,0,0.2c0.1,0.2,0.3,0.3,0.5,0.2
				c0.2-0.1,0.3-0.3,0.2-0.5c0-0.1-0.1-0.1-0.2-0.2l0.1-0.4c0,0,0.1,0,0.1,0c0.1,0,0.2,0,0.2-0.1l0.3,0.3c-0.1,0.1-0.1,0.1-0.1,0.2
				c0,0.2,0.2,0.4,0.4,0.4c0.2,0,0.4-0.2,0.4-0.4c0-0.1,0-0.2-0.1-0.2l0.3-0.3c0,0,0.1,0,0.1,0c0.1,0,0.2,0,0.2,0l0.1,0.4
				c-0.1,0-0.1,0.1-0.2,0.2c-0.1,0.2,0,0.4,0.2,0.5c0.2,0.1,0.4,0,0.5-0.2c0-0.1,0-0.2,0-0.2l0.4-0.2c0,0,0,0,0.1,0.1
				c0.1,0.1,0.1,0.1,0.2,0.1l0,0.4c-0.1,0-0.2,0-0.2,0.1c-0.1,0.1-0.1,0.4,0,0.5c0.1,0.1,0.4,0.1,0.5,0c0.1-0.1,0.1-0.1,0.1-0.2
				l0.4,0c0,0,0,0.1,0,0.1c0,0.1,0.1,0.1,0.1,0.2l-0.2,0.4c-0.1,0-0.2,0-0.2,0c-0.2,0.1-0.3,0.3-0.2,0.5c0.1,0.2,0.3,0.3,0.5,0.2
				c0.1,0,0.1-0.1,0.2-0.2l0.4,0.1c0,0,0,0.1,0,0.1c0,0.1,0,0.2,0.1,0.2l-0.3,0.3c-0.1-0.1-0.1-0.1-0.2-0.1c-0.2,0-0.4,0.2-0.4,0.4
				c0,0.2,0.2,0.4,0.4,0.4c0,0,0,0,0,0c0.1-0.2,0.2-0.3,0.3-0.5c0,0,0,0,0-0.1l0.1-0.1c0.1-0.1,0.1-0.2,0.1-0.3
				c0.1-0.2,0.1-0.3,0.2-0.5c-0.1,0-0.2,0.1-0.2,0.2l-0.4-0.1c0-0.1,0-0.1,0-0.2l0.7-0.3c0,0,0-0.1,0-0.1l-0.8,0.3
				c0-0.1-0.1-0.1-0.1-0.1l0.2-0.4c0.1,0,0.2,0,0.2,0c0.1,0,0.2-0.1,0.2-0.2l0.4,0.1c0,0,0-0.1,0-0.1l-0.4-0.1c0-0.1,0-0.1,0-0.2
				c0,0,0,0,0,0l0.5-0.3c0-0.1,0-0.1,0-0.1l-0.6,0.4C50.7,129.6,50.6,129.6,50.5,129.5z M45.7,123.2l1.1,0.4c0,0,0,0.1,0,0.1
				c0,0.1,0,0.1,0,0.2l-0.9,0.6c-0.1-0.1-0.2-0.1-0.3-0.1h0l-0.2-1C45.5,123.3,45.6,123.3,45.7,123.2z M46.8,125.7l-0.6,0.5
				c-0.1-0.1-0.1-0.1-0.2-0.1h0l-0.2-1c0.1,0,0.1-0.1,0.2-0.1l0.8,0.4c0,0,0,0.1,0,0.1C46.8,125.6,46.8,125.6,46.8,125.7z
				 M44.3,127.2c0-0.1-0.1-0.1-0.1-0.2l0.3-0.7c0.1,0,0.1,0,0.2,0l0.4,1c-0.1,0-0.1,0.1-0.2,0.2l-0.6-0.1
				C44.3,127.3,44.3,127.3,44.3,127.2z M43.5,130l-0.5,0.1c0-0.1-0.1-0.2-0.2-0.2c-0.1,0-0.1,0-0.2,0l-0.1-0.6
				c0.1,0,0.1-0.1,0.1-0.1l0,0l0.9,0.6C43.5,129.8,43.5,129.9,43.5,130z M41.9,133.2l1-0.2c0,0.1,0.1,0.1,0.1,0.2l-0.2,0.4
				c-0.1,0-0.2,0-0.3,0c-0.1,0-0.1,0.1-0.1,0.1l-0.5-0.3C41.9,133.3,41.9,133.3,41.9,133.2C41.9,133.2,41.9,133.2,41.9,133.2z
				 M42.9,132.9L42.9,132.9l-1,0.2c0-0.1-0.1-0.1-0.1-0.1l0.4-0.5c0.1,0,0.1,0,0.2,0c0.1,0,0.2,0,0.2-0.1l0.4,0.3
				C42.9,132.8,42.9,132.8,42.9,132.9z M41.2,133.2l-1,0.2c0-0.1-0.1-0.1-0.1-0.2l0.4-0.8c0,0,0.1,0,0.1,0c0.1,0,0.1,0,0.2-0.1
				l0.5,0.6C41.2,133,41.2,133.1,41.2,133.2C41.2,133.2,41.2,133.2,41.2,133.2z M39.8,126.9l1.1-0.5c0,0,0,0,0.1,0.1
				c0,0,0.1,0.1,0.1,0.1l-0.2,1.1c-0.1,0-0.2,0-0.3,0.1l0,0l-0.9-0.6C39.8,127,39.8,127,39.8,126.9z M43.7,127.1
				c-0.1,0.1-0.1,0.2-0.1,0.2l-0.8,0.1c0-0.1-0.1-0.1-0.1-0.2c0,0-0.1-0.1-0.1-0.1l0.3-0.9c0.1,0,0.1,0,0.2,0c0,0,0,0,0,0
				L43.7,127.1z M43.2,126.1c0.1-0.1,0.1-0.1,0.1-0.2l0.9,0.1c0,0,0,0.1,0,0.1c0,0.1,0.1,0.1,0.1,0.2l-0.3,0.7c-0.1,0-0.2,0-0.3,0
				c0,0,0,0,0,0L43.2,126.1z M40.1,130.5l0.7-0.6c0,0,0.1,0.1,0.1,0.1c0.1,0,0.1,0,0.2,0l0.3,0.7c-0.1,0-0.1,0.1-0.2,0.2v0l-1-0.2
				C40.2,130.6,40.1,130.5,40.1,130.5z M41.3,127.9l0.9-0.3c0,0,0,0.1,0.1,0.1c0.1,0.1,0.1,0.1,0.2,0.1l-0.1,0.8
				c-0.1,0-0.2,0-0.2,0.1l0,0l-0.9-0.6C41.3,128,41.3,128,41.3,127.9z M42.1,128.8c0,0.1-0.1,0.2,0,0.3l-0.7,0.3
				c0-0.1-0.1-0.1-0.2-0.1c0,0-0.1,0-0.1,0l-0.1-0.9c0.1,0,0.1-0.1,0.2-0.1l0,0L42.1,128.8z M41.3,131.3
				C41.4,131.3,41.4,131.3,41.3,131.3c0.2,0.1,0.3,0.1,0.4,0l0.4,0.5C42,131.9,42,132,42,132h-1c0-0.1,0-0.1-0.1-0.2L41.3,131.3z
				 M41.7,130.6c-0.1,0-0.1,0-0.2,0l-0.3-0.7c0.1,0,0.1-0.1,0.1-0.1l1,0.4c0,0.1,0,0.2,0,0.2l-0.5,0.3
				C41.8,130.7,41.7,130.7,41.7,130.6z M41.4,129.7c0-0.1,0-0.1,0-0.2l0.7-0.3c0,0,0,0,0,0.1c0.1,0.1,0.2,0.1,0.3,0.1l0.1,0.6
				c-0.1,0-0.1,0.1-0.2,0.2L41.4,129.7z M43.4,128.5c-0.1,0.1-0.1,0.2-0.1,0.2l-0.6,0.1c0-0.1-0.1-0.1-0.1-0.1
				c-0.1-0.1-0.1-0.1-0.2-0.1l0.1-0.8c0.1,0,0.1,0,0.2-0.1L43.4,128.5z M42.5,127.1c-0.1,0-0.2,0-0.3,0.1l-0.7-0.7
				c0.1-0.1,0.1-0.2,0.1-0.2l1.1-0.2c0,0,0,0,0,0c0,0.1,0.1,0.2,0.2,0.2L42.5,127.1z M42.2,127.2c-0.1,0.1-0.1,0.2-0.1,0.3l-0.9,0.3
				c0,0,0-0.1-0.1-0.1c0,0-0.1-0.1-0.1-0.1l0.2-1.1c0.1,0,0.2,0,0.2-0.1L42.2,127.2z M40.7,128.2c0.1,0.1,0.2,0.1,0.2,0.1l0.1,0.9
				c-0.1,0-0.2,0.1-0.2,0.2l-1-0.4c0-0.1,0-0.2,0-0.2L40.7,128.2C40.7,128.2,40.7,128.2,40.7,128.2z M40.7,129.5
				c0,0.1,0,0.2,0.1,0.3l-0.7,0.6c0,0-0.1-0.1-0.1-0.1c-0.1,0-0.1,0-0.2,0l-0.2-1c0.1,0,0.1-0.1,0.2-0.2L40.7,129.5z M40.1,130.8
				C40.1,130.8,40.1,130.8,40.1,130.8l1,0.2c0,0.1,0,0.2,0.1,0.3l-0.5,0.6c-0.1,0-0.1-0.1-0.2-0.1c0,0-0.1,0-0.1,0l-0.4-0.8
				C40.1,130.9,40.1,130.8,40.1,130.8z M40.8,132.3c0-0.1,0.1-0.1,0.1-0.2h1c0,0.1,0.1,0.2,0.1,0.2l-0.4,0.5c-0.1,0-0.1,0-0.2,0
				c-0.1,0-0.1,0-0.2,0.1L40.8,132.3z M42.3,131.7c-0.1,0-0.1,0-0.2,0l-0.4-0.5c0,0,0.1-0.1,0.1-0.1v0l1,0.2c0,0.1,0,0.1,0.1,0.2
				l-0.4,0.3C42.5,131.8,42.4,131.7,42.3,131.7z M42.9,131.2L42.9,131.2l-1-0.2c0-0.1,0-0.1,0-0.2l0.5-0.3c0,0,0.1,0.1,0.1,0.1
				c0.1,0,0.2,0,0.3,0L43,131C43,131.1,43,131.1,42.9,131.2z M42.7,129.1c0-0.1,0-0.1,0-0.2l0.6-0.1c0,0.1,0.1,0.1,0.1,0.1
				c0.1,0.1,0.2,0.1,0.2,0.1l0.1,0.5c-0.1,0-0.1,0.1-0.2,0.1l0,0L42.7,129.1z M43.7,128.3c-0.1,0-0.2,0-0.2,0.1l-0.7-0.7
				c0-0.1,0.1-0.1,0.1-0.2l0.8-0.1c0,0,0,0,0,0.1c0,0.1,0.1,0.2,0.2,0.2L43.7,128.3z M44,127.7c0.1,0,0.1,0,0.2,0c0,0,0,0,0,0
				l0.6,0.9c-0.1,0.1-0.1,0.1-0.1,0.2l-0.5-0.1c0-0.1,0-0.2-0.1-0.2c0,0-0.1-0.1-0.1-0.1L44,127.7z M44.8,126.3
				c0.1,0,0.1-0.1,0.1-0.1l0.7,0.3c0,0,0,0,0,0.1c0,0.1,0.1,0.2,0.1,0.3l-0.3,0.5c-0.1,0-0.2,0-0.2,0L44.8,126.3z M45.7,126.3
				l-0.7-0.3c0-0.1,0-0.1,0-0.2c0,0,0-0.1-0.1-0.1l0.6-0.7c0.1,0,0.1,0.1,0.2,0.1c0,0,0,0,0,0l0.2,1
				C45.8,126.2,45.7,126.2,45.7,126.3z M45.1,123.3c0.1,0.1,0.1,0.1,0.2,0.1h0l0.2,1c-0.1,0-0.2,0.1-0.2,0.2l-1-0.2
				c0-0.1,0-0.1,0-0.2c0,0,0-0.1,0-0.1L45.1,123.3z M44.3,124.5l1,0.2c0,0,0,0,0,0c0,0.1,0,0.2,0.1,0.2l-0.6,0.7
				c-0.1-0.1-0.2-0.1-0.3-0.1l-0.4-1C44.2,124.6,44.3,124.6,44.3,124.5z M44,124.7l0.4,1c-0.1,0.1-0.2,0.1-0.2,0.2l-0.9-0.1
				c0,0,0-0.1,0-0.1c0-0.1-0.1-0.1-0.1-0.1l0.6-0.9C43.9,124.7,44,124.7,44,124.7z M43.1,123.1c0.1,0,0.2,0.1,0.3,0l0.4,1
				c-0.1,0.1-0.2,0.2-0.2,0.3l-1.2,0c0,0,0-0.1,0-0.1c0-0.1-0.1-0.1-0.1-0.1L43.1,123.1z M42.4,124.4l1.2,0c0,0,0,0.1,0,0.1
				c0,0.1,0.1,0.1,0.1,0.1l-0.6,0.9c-0.1,0-0.2,0-0.3,0c0,0,0,0,0,0l-0.6-0.9C42.3,124.6,42.4,124.5,42.4,124.4z M41.9,124.7
				c0.1,0,0.2,0,0.2,0c0,0,0,0,0,0l0.6,0.9c-0.1,0.1-0.1,0.2-0.1,0.3l-1.1,0.2c0-0.1-0.1-0.1-0.1-0.1c0,0,0,0-0.1-0.1L41.9,124.7z
				 M40.3,124.9l1.3-0.3c0,0.1,0.1,0.1,0.1,0.2l-0.5,1.1c-0.1,0-0.2,0-0.3,0.1l-0.7-0.7C40.3,125.1,40.3,125,40.3,124.9z
				 M39.9,125.3c0.1,0,0.2,0,0.3-0.1l0.7,0.7c-0.1,0.1-0.1,0.2-0.1,0.3l-1.1,0.5c0,0,0,0-0.1-0.1c0,0-0.1-0.1-0.1-0.1L39.9,125.3z
				 M39.5,127.3c0.1,0,0.2,0,0.2-0.1l0,0l0.9,0.6c-0.1,0.1-0.1,0.2,0,0.3l-0.9,0.6c0,0-0.1-0.1-0.1-0.1c0,0-0.1,0-0.1,0L39.5,127.3z
				 M39.5,130.5L39.5,130.5l-1-0.2c0-0.1,0-0.2-0.1-0.2l0.9-0.9c0,0,0.1,0,0.1,0c0.1,0,0.1,0,0.2,0l0.2,1
				C39.6,130.3,39.5,130.4,39.5,130.5z M39.6,131C39.6,131,39.6,131,39.6,131c0.1,0.1,0.2,0.1,0.3,0l0.4,0.8
				c-0.1,0.1-0.1,0.1-0.2,0.2h-1c0-0.1-0.1-0.2-0.1-0.2L39.6,131z M39,132.4c0.1-0.1,0.1-0.1,0.1-0.2h1c0,0.1,0.1,0.2,0.2,0.2
				l-0.4,0.8c0,0-0.1,0-0.1,0c-0.1,0-0.1,0-0.2,0L39,132.4z M39.4,134.9c-0.1,0-0.1,0-0.2,0c0,0-0.1,0-0.1,0l-0.9-0.9
				c0.1-0.1,0.1-0.1,0.1-0.2v0l1-0.2c0,0.1,0.1,0.2,0.2,0.2L39.4,134.9z M40.7,134.7l-1,0.4c0-0.1-0.1-0.1-0.2-0.2l0.2-1
				c0,0,0,0,0,0c0.1,0,0.2,0,0.2-0.1l0.7,0.6C40.7,134.5,40.7,134.6,40.7,134.7z M41.1,134.3c-0.1,0-0.1,0-0.2,0c0,0-0.1,0-0.1,0.1
				l-0.7-0.6c0-0.1,0.1-0.1,0.1-0.2c0,0,0,0,0,0l1-0.2c0,0.1,0.1,0.2,0.2,0.2L41.1,134.3z M41.2,134.3l0.3-0.7c0,0,0,0,0.1,0
				c0.1,0,0.2-0.1,0.3-0.1l0.5,0.3c0,0.1,0,0.2,0,0.2l-1,0.4C41.3,134.4,41.3,134.3,41.2,134.3z M42.4,134.9c-0.1,0-0.1,0-0.2,0
				c-0.1,0-0.1,0.1-0.2,0.1l-0.7-0.3c0-0.1,0-0.1,0-0.2l1-0.4c0,0.1,0.1,0.1,0.2,0.2L42.4,134.9z M42.5,134.9l0.1-0.6
				c0.1,0,0.1,0,0.2,0c0.1,0,0.2-0.1,0.2-0.2l0.5,0.1c0,0.1,0,0.1,0,0.2c0,0,0,0,0,0l-0.9,0.6C42.6,135,42.6,135,42.5,134.9z
				 M43.7,135.2c-0.1,0-0.2,0-0.2,0.1c0,0-0.1,0.1-0.1,0.1l-0.6-0.1c0-0.1,0-0.1,0-0.2c0,0,0,0,0,0l0.9-0.6c0.1,0.1,0.1,0.1,0.2,0.1
				L43.7,135.2z M44.8,134.6c0.1,0,0.1,0.1,0.2,0.1l0,0.4c-0.1,0-0.2,0-0.2,0.1s-0.1,0.2-0.1,0.2l-0.5,0.1c0-0.1,0-0.1-0.1-0.1
				L44.8,134.6z M44.2,134.3l0.4,0c0,0.1,0,0.1,0.1,0.2l-0.7,0.7c0,0-0.1-0.1-0.1-0.1l0.1-0.5c0,0,0.1,0,0.1,0
				C44.1,134.6,44.2,134.5,44.2,134.3z M44,133.5c0,0.1,0.1,0.1,0.1,0.1l-0.2,0.4c-0.1,0-0.2,0-0.2,0c-0.1,0-0.2,0.1-0.2,0.2L43,134
				c0-0.1,0-0.1,0-0.1L44,133.5z M43.6,133.1l0.4,0.1c0,0.1,0,0.1,0,0.2l-1,0.4c0,0-0.1-0.1-0.1-0.1l0.2-0.4c0,0,0.1,0,0.1,0
				C43.4,133.2,43.5,133.2,43.6,133.1z M43.5,132.6c-0.1-0.1-0.1-0.1-0.2-0.1c-0.1,0-0.2,0-0.2,0.1l-0.4-0.3c0,0,0-0.1,0.1-0.1h1
				c0,0.1,0,0.1,0.1,0.2L43.5,132.6z M43.8,131.9c0,0.1-0.1,0.1-0.1,0.2h-1c0-0.1,0-0.1-0.1-0.1l0.4-0.3c0,0,0.1,0.1,0.1,0.1
				c0.1,0.1,0.3,0,0.4-0.1L43.8,131.9z M44,131l-0.4,0.1c0-0.1-0.1-0.1-0.2-0.2c-0.1,0-0.2,0-0.3,0l-0.2-0.4c0,0,0.1-0.1,0.1-0.1
				l1,0.4C43.9,130.9,43.9,130.9,44,131z M44.1,130.6c-0.1,0-0.1,0.1-0.1,0.1l-1-0.4c0-0.1,0-0.1,0-0.1l0.5-0.1c0,0,0,0.1,0.1,0.1
				c0.1,0.1,0.2,0.1,0.4,0.1L44.1,130.6z M44.6,129.9l-0.4,0c0-0.1,0-0.2-0.1-0.2s-0.2-0.1-0.2-0.1l-0.1-0.5c0,0,0.1,0,0.1-0.1
				l0.7,0.7C44.6,129.8,44.6,129.8,44.6,129.9z M44.8,129.6l-0.7-0.7c0,0,0.1-0.1,0.1-0.1l0.5,0.1c0,0,0,0.1,0,0.1
				c0.1,0.1,0.2,0.2,0.3,0.2l0,0.4C44.9,129.6,44.8,129.6,44.8,129.6z M45,128.5c-0.1,0-0.1,0-0.2,0c0,0,0,0,0,0l-0.6-0.9
				c0,0,0.1-0.1,0.1-0.1l0.6,0.1c0,0.1,0,0.1,0,0.2c0,0.1,0.1,0.2,0.2,0.2L45,128.5z M45.7,129.1l-0.4-0.2c0-0.1,0-0.2,0-0.2
				c0-0.1-0.1-0.2-0.2-0.2l0.1-0.5c0.1,0,0.1,0,0.1,0l0.4,1C45.7,129,45.7,129,45.7,129.1z M46.1,128.9c-0.1,0-0.1,0-0.2,0l-0.4-1
				c0,0,0.1-0.1,0.1-0.1l0.4,0.2c0,0,0,0.1,0,0.1c0,0.1,0.1,0.3,0.2,0.3L46.1,128.9z M46.1,128l-0.4-0.2c0-0.1,0-0.2,0-0.3
				c0-0.1-0.1-0.1-0.1-0.1l0.3-0.5c0.1,0,0.1,0,0.2,0h0l0.2,1C46.2,127.9,46.1,127.9,46.1,128z M46.6,127.9c-0.1,0-0.1-0.1-0.2-0.1
				h0l-0.2-1c0.1,0,0.1-0.1,0.1-0.1l0.5,0.4c0,0.1,0,0.1,0,0.2c0,0.1,0,0.2,0.1,0.2L46.6,127.9z M47.1,128.7c-0.1,0-0.1,0-0.2,0.1
				l-0.3-0.3c0.1-0.1,0.1-0.1,0.1-0.2s0-0.2-0.1-0.2l0.3-0.4c0,0,0.1,0,0.1,0.1L47.1,128.7L47.1,128.7z M47.1,126.9
				c-0.1,0-0.2,0.1-0.2,0.1l-0.5-0.4c0-0.1,0-0.1,0-0.2c0-0.1,0-0.1-0.1-0.2l0.6-0.5c0.1,0,0.1,0.1,0.2,0.1
				C47.1,125.8,47.1,126.9,47.1,126.9z M47.1,125.1c-0.1,0-0.2,0.1-0.2,0.2l-0.8-0.4c0,0,0-0.1,0-0.1c0-0.1,0-0.1,0-0.2l0.9-0.6
				c0.1,0.1,0.1,0.1,0.2,0.1C47.1,124.1,47.1,125.1,47.1,125.1z M50.3,127.7l0.1,0.6c-0.1,0-0.1,0.1-0.1,0.1
				c-0.1,0.1-0.1,0.2-0.1,0.2l-0.5,0.1c0-0.1-0.1-0.1-0.1-0.2l0,0l0.6-0.9C50.2,127.7,50.3,127.7,50.3,127.7z M49.8,126.3l0.3,0.7
				c0,0,0,0-0.1,0c-0.1,0.1-0.1,0.2-0.1,0.3l-0.6,0.1c0-0.1-0.1-0.1-0.2-0.2l0.4-1C49.7,126.4,49.7,126.4,49.8,126.3z M49.5,126.3
				l-0.4,1c-0.1,0-0.2,0-0.2,0l-0.3-0.5c0,0,0.1-0.1,0.1-0.1c0-0.1,0-0.1,0-0.2l0.7-0.3C49.4,126.2,49.4,126.3,49.5,126.3z
				 M48.8,125.1l0.6,0.7c0,0-0.1,0.1-0.1,0.1c0,0.1,0,0.1,0,0.2l-0.7,0.3c0-0.1-0.1-0.1-0.2-0.2h0l0.2-1
				C48.7,125.1,48.7,125.1,48.8,125.1z M48.5,125.1C48.5,125.1,48.5,125.1,48.5,125.1l-0.2,1c-0.1,0-0.2,0-0.3,0.1l-0.6-0.5
				c0-0.1,0.1-0.1,0.1-0.2c0,0,0-0.1,0-0.1l0.8-0.4C48.3,125,48.4,125.1,48.5,125.1z M47.2,124.1c0.1,0,0.2-0.1,0.2-0.1l0.9,0.6
				c0,0,0,0,0,0c0,0.1,0,0.2,0,0.3l-0.8,0.4c-0.1-0.1-0.1-0.1-0.2-0.2V124.1z M47.2,125.9c0.1,0,0.1,0,0.2-0.1l0.6,0.5
				c0,0,0,0,0,0.1c0,0.1,0,0.2,0,0.3l-0.5,0.4c-0.1-0.1-0.1-0.1-0.2-0.1L47.2,125.9L47.2,125.9L47.2,125.9z M47.6,128.4l-0.3,0.3
				c-0.1,0-0.1-0.1-0.2-0.1v-1c0.1,0,0.1,0,0.1-0.1l0.3,0.4c0,0-0.1,0.1-0.1,0.1C47.5,128.2,47.6,128.3,47.6,128.4z M47.9,127.8
				c-0.1,0-0.1,0-0.2,0.1l-0.3-0.4c0.1-0.1,0.1-0.2,0.1-0.2c0-0.1,0-0.1,0-0.2l0.5-0.4c0,0,0.1,0.1,0.1,0.1h0L47.9,127.8z M48,127.9
				l0.2-1c0.1,0,0.1,0,0.2,0l0.3,0.5c0,0-0.1,0.1-0.1,0.1c0,0.1,0,0.2,0,0.3l-0.4,0.2C48.2,127.9,48.1,127.9,48,127.9
				C48.1,127.9,48,127.9,48,127.9z M48.2,128.9l-0.1-0.4c0.1,0,0.1-0.1,0.2-0.2c0-0.1,0-0.2,0-0.3l0.4-0.2c0,0,0.1,0.1,0.1,0.1
				l-0.4,1C48.3,128.9,48.3,128.9,48.2,128.9z M49.1,128.5c-0.1,0.1-0.1,0.2-0.1,0.4l-0.4,0.2c0-0.1-0.1-0.1-0.1-0.1l0.4-1
				c0.1,0,0.1,0,0.1,0l0.1,0.5C49.2,128.5,49.1,128.5,49.1,128.5z M49.3,128.5l-0.1-0.5c0.1,0,0.2-0.1,0.2-0.2c0-0.1,0-0.1,0-0.2
				l0.6-0.1c0,0.1,0.1,0.1,0.1,0.1l0,0l-0.6,0.9C49.4,128.5,49.4,128.4,49.3,128.5z M49.5,129.6c-0.1,0-0.1-0.1-0.2-0.1l0-0.4
				c0.1,0,0.2,0,0.2-0.1c0.1-0.1,0.1-0.2,0.1-0.2l0.5-0.1c0,0,0,0.1,0.1,0.1L49.5,129.6z M50.4,129.5c0,0-0.1,0-0.1,0
				c-0.1,0.1-0.2,0.2-0.2,0.3l-0.4,0c0-0.1,0-0.1-0.1-0.2l0.7-0.7c0,0,0.1,0.1,0.1,0.1L50.4,129.5z"/>
		</g>
	</g>
	<g>
		<path class="st2" d="M79,21.8v17.7c-0.9,0.2-1.8,0.5-2.7,0.7c-1.3,0.4-2.5,0.9-3.7,1.4c-0.2,0.1-0.5,0.2-0.7,0.3
			c-1.3,0.6-2.6,1.3-3.8,2.1c-0.1,0-0.1,0.1-0.2,0.1c-0.2,0.1-0.3,0.2-0.5,0.3c-1,0.6-1.9,1.3-2.8,2.1c-0.1,0.1-0.1,0.1-0.2,0.1
			c-0.3,0.2-0.5,0.4-0.7,0.6c0,0-0.1,0-0.1,0.1c-0.8,0.7-1.5,1.3-2.2,2.1c-1.8,1.8-3.4,3.8-4.7,6V21.8L79,21.8
			C79,21.8,79,21.8,79,21.8z"/>
		
			<linearGradient id="SVGID_00000004527040743725403620000004539459452518985868_" gradientUnits="userSpaceOnUse" x1="78.3555" y1="46.6395" x2="95.8852" y2="111.1033" gradientTransform="matrix(1 0 0 1 0 2)">
			<stop  offset="0" style="stop-color:#00B753"/>
			<stop  offset="1" style="stop-color:#0025FF"/>
		</linearGradient>
		<path style="fill:url(#SVGID_00000004527040743725403620000004539459452518985868_);" d="M123.7,76.3L123.7,76.3
			c0,0.4,0,0.8-0.1,1.2c0,0.2,0,0.5-0.1,0.7c-0.1,1.2-0.3,2.3-0.5,3.4c0,0.2-0.1,0.4-0.1,0.5c-0.1,0.4-0.2,0.8-0.3,1.2
			c-0.1,0.2-0.1,0.4-0.2,0.7c-0.2,0.8-0.4,1.5-0.7,2.3c-0.3,0.9-0.6,1.7-1,2.6c-0.2,0.6-0.5,1.1-0.7,1.7c-0.1,0.3-0.3,0.5-0.4,0.8
			c-0.5,0.9-1,1.8-1.5,2.7c-3.5,5.6-8.4,10.2-14.3,13.2c-0.9,0.4-1.7,0.9-2.6,1.2c-0.3,0.1-0.5,0.2-0.8,0.3c-1,0.4-1.9,0.7-2.9,1
			c-0.2,0.1-0.4,0.1-0.5,0.2c-0.7,0.2-1.4,0.4-2.1,0.5c-0.2,0.1-0.4,0.1-0.6,0.1c-0.8,0.2-1.7,0.3-2.6,0.4c-0.2,0-0.4,0.1-0.5,0.1
			c-0.4,0.1-0.9,0.1-1.3,0.1c-0.2,0-0.5,0-0.7,0c-0.1,0-0.3,0-0.4,0h0c-0.5,0-1,0-1.4,0H56.7V77.7c0-1.4,0.1-2.7,0.2-4.1
			c0-0.2,0.1-0.4,0.1-0.6c0.2-1.1,0.4-2.2,0.6-3.2c0.1-0.3,0.1-0.6,0.2-0.9c0.2-0.8,0.5-1.7,0.8-2.5c1.3-3.6,3.2-7,5.6-9.9
			c0.8-1,1.6-1.9,2.5-2.8c2.6-2.6,5.7-4.7,9-6.4c1.1-0.5,2.2-1,3.4-1.4c0.6-0.2,1.2-0.4,1.7-0.6c0.6-0.2,1.3-0.3,1.9-0.5
			c0.4-0.1,0.9-0.2,1.3-0.3c0.4-0.1,0.7-0.1,1.1-0.2c0.7-0.1,1.4-0.2,2.1-0.3c1-0.1,2-0.1,3-0.1c0.5,0,0.9,0,1.4,0
			c1.2,0.1,2.3,0.2,3.5,0.3c2.2,0.3,4.3,0.8,6.4,1.6c0.2,0.1,0.4,0.2,0.6,0.2c0.2,0.1,0.4,0.1,0.5,0.2c0.9,0.3,1.7,0.7,2.5,1.1
			c0.2,0.1,0.4,0.2,0.6,0.3c1.6,0.8,3.1,1.8,4.5,2.8c0.2,0.1,0.3,0.2,0.5,0.4c0.9,0.7,1.7,1.4,2.5,2.1c0.2,0.2,0.3,0.3,0.5,0.5
			c1,1,2,2.1,2.9,3.3c0.1,0.2,0.3,0.3,0.4,0.5c0.7,0.9,1.3,1.8,1.8,2.7c0.1,0.2,0.2,0.3,0.3,0.5c0.6,1.1,1.2,2.1,1.7,3.3
			c0.1,0.2,0.2,0.4,0.3,0.6c0.3,0.6,0.5,1.3,0.8,2c0.1,0.3,0.2,0.7,0.3,1c0.1,0.2,0.1,0.4,0.2,0.6c0.3,0.9,0.5,1.9,0.7,2.9
			c0.1,0.2,0.1,0.4,0.1,0.6c0.2,1.1,0.3,2.2,0.4,3.3c0,0.2,0,0.4,0,0.6C123.7,75.7,123.7,76,123.7,76.3z"/>
		<path class="st4" d="M78.6,25.4l0.4,0.1v-0.6l-0.3-0.1c0.1-0.5-0.1-1.1-0.5-1.5c-0.6-0.6-1.5-0.7-2.2-0.3L75,21.8h-0.7l1.2,1.6
			c-0.3,0.3-0.4,0.6-0.5,1l-6.3-0.1c-0.1-0.6-0.4-1.1-0.9-1.4l0.4-1.1h-0.6l-0.4,0.9c-0.6-0.1-1.2,0-1.6,0.3l-1.3-1.2h-0.8l1.7,1.6
			c-0.1,0.1-0.2,0.2-0.2,0.4C65,24,65,24.3,65,24.6l-5.4,1.2c-0.2-0.5-0.5-0.9-1-1.1c0,0-0.1,0-0.1,0l0.6-2.9h-0.6L58,24.6
			c-0.5,0-1,0.1-1.3,0.5v2.8c0.2,0.1,0.3,0.2,0.5,0.3c0,0,0.1,0,0.1,0l-0.6,3.1v5.9c0.1,0,0.2-0.1,0.2-0.1l1.8,2.8
			c-0.2,0.2-0.4,0.4-0.5,0.7c-0.2,0.5-0.2,0.9,0,1.4l-1.5,0.8v0.6l1.8-1c0.1,0.2,0.3,0.4,0.5,0.5l-2.1,5c-0.1,0-0.2,0-0.2,0v3.7
			c0.6-0.1,1.2-0.5,1.5-1.1c0.2-0.4,0.2-0.8,0.1-1.2l1.9-0.8c0.1,0.1,0.2,0.2,0.3,0.3c0.3,0.3,0.6,0.5,1,0.5l0,0.3
			c0.7-0.7,1.4-1.4,2.2-2.1c0,0,0,0,0-0.1l0.1,0c0.2-0.2,0.5-0.4,0.7-0.6l-0.9,0.1c-0.1-0.3-0.2-0.6-0.5-0.9c0,0-0.1,0-0.1-0.1
			l3-4.5c0.3,0.1,0.6,0.2,0.9,0.2l0.5,2.9c0.2-0.1,0.3-0.2,0.5-0.3l-0.5-2.7c0.3-0.1,0.5-0.2,0.7-0.4c0.3-0.3,0.4-0.6,0.5-0.9l4,0.2
			c0,0.3,0.2,0.7,0.4,1l-0.4,0.4c1.2-0.5,2.5-1,3.7-1.4c0-0.4-0.1-0.8-0.4-1.2l3.1-3.1v-0.8l-3.5,3.5c-0.4-0.3-0.9-0.4-1.4-0.3
			l-1.5-4.5c0.2-0.1,0.3-0.2,0.5-0.3c0.2-0.2,0.4-0.5,0.4-0.7l5.4,1c0,0.1,0,0.2,0,0.3v-0.9l-5.3-0.9c0-0.5-0.2-1-0.5-1.4
			c0,0,0,0-0.1-0.1l3-4.5c0.4,0.2,0.9,0.2,1.3,0.1l1.7,3.8v-1.4l-1.2-2.7c0.1-0.1,0.2-0.2,0.3-0.3C78.3,25.8,78.5,25.6,78.6,25.4z
			 M67.6,26.2l2.9,4.6c0,0-0.1,0.1-0.1,0.1c-0.3,0.3-0.5,0.8-0.5,1.2l-4.7,0.4c-0.1-0.5-0.4-0.9-0.9-1.2l2.1-5
			C66.8,26.4,67.2,26.3,67.6,26.2z M59.6,27.2c0.1-0.3,0.2-0.6,0.1-0.9l5.4-1.2c0.1,0.4,0.4,0.7,0.8,0.9l-2.1,5
			c-0.5-0.1-1,0-1.4,0.2l-3.1-3.6C59.4,27.5,59.5,27.4,59.6,27.2z M56.8,33.6C56.8,33.6,56.8,33.6,56.8,33.6l1-5.3
			c0.4,0,0.8-0.1,1.1-0.3l3.1,3.6c-0.1,0.2-0.2,0.3-0.3,0.5c-0.1,0.4-0.2,0.7-0.1,1.1l-3.8,1.3C57.6,34.1,57.3,33.8,56.8,33.6z
			 M57.3,36.8c0.2-0.2,0.4-0.4,0.5-0.7C58,35.7,58,35.4,58,35l3.8-1.3c0.2,0.3,0.4,0.6,0.7,0.7l-2.1,5c-0.4-0.1-0.9-0.1-1.2,0.1
			L57.3,36.8z M60.4,46c-0.5,0.5-0.6,1.2-0.5,1.8L58,48.7c-0.2-0.2-0.4-0.5-0.6-0.6l2.1-5c0.2,0.1,0.5,0.1,0.7,0l0.7,2.5
			C60.7,45.7,60.5,45.8,60.4,46z M62.5,45.7c-0.3-0.2-0.7-0.2-1.1-0.2L60.7,43c0.4-0.2,0.8-0.5,0.9-1c0.1-0.3,0.2-0.6,0.1-0.8
			l3.2-0.7c0.1,0.2,0.2,0.5,0.4,0.7c0,0,0.1,0,0.1,0.1L62.5,45.7z M65.4,38.5c-0.4,0.4-0.6,0.9-0.5,1.4l-3.2,0.7
			c-0.1-0.4-0.4-0.7-0.8-0.9l2.1-5c0.3,0.1,0.7,0.1,1,0l1.7,3.6C65.6,38.3,65.5,38.4,65.4,38.5z M66.2,38l-1.7-3.6
			c0.3-0.2,0.5-0.5,0.7-0.8c0.1-0.2,0.1-0.4,0.1-0.6l4.7-0.4c0.1,0.3,0.2,0.6,0.5,0.9c0,0,0.1,0.1,0.1,0.1l-3,4.5
			C67.1,37.9,66.6,37.8,66.2,38z M73.6,38.6c-0.2,0.1-0.3,0.2-0.5,0.4c-0.3,0.3-0.4,0.6-0.5,0.9l-4-0.2c0-0.4-0.2-0.8-0.5-1.2
			c0,0-0.1,0-0.1-0.1l3-4.5c0.4,0.2,0.7,0.2,1.1,0.2L73.6,38.6z M72.6,30.5c-0.5-0.2-1.1-0.2-1.6,0l-2.9-4.6
			c0.2-0.2,0.4-0.4,0.5-0.7c0.1-0.1,0.1-0.3,0.1-0.4l6.3,0.1c0.1,0.4,0.2,0.8,0.5,1.1c0,0,0.1,0,0.1,0.1L72.6,30.5z"/>
		<path class="st4" d="M102.3,106.1c-1,0-1.9,0.8-1.9,1.9c0,0.3,0.1,0.5,0.2,0.8c0.3-0.1,0.5-0.2,0.8-0.3c0.9-0.4,1.8-0.8,2.6-1.2
			C103.7,106.6,103,106.1,102.3,106.1z M119.7,79l0.3-2.6c0.5,0,0.9-0.2,1.2-0.5c0.2-0.2,0.4-0.5,0.4-0.7l2,0.4c0-0.2,0-0.4,0-0.6
			l-1.8-0.3c0-0.4-0.1-0.8-0.4-1.2l1.8-1.8c0-0.2-0.1-0.4-0.1-0.6l-2,2c-0.3-0.3-0.8-0.4-1.2-0.4l-0.6-3.2c0.3-0.1,0.5-0.2,0.7-0.4
			c0.3-0.3,0.4-0.6,0.5-0.9l1.8,0.1c-0.1-0.2-0.1-0.4-0.2-0.6l-1.6-0.1c0-0.4-0.2-0.8-0.5-1.2c0,0-0.1,0-0.1-0.1l1.1-1.7
			c-0.1-0.2-0.2-0.4-0.3-0.6l-1.3,2c-0.4-0.2-0.9-0.2-1.4-0.1l-1.7-3.6c0.3-0.2,0.5-0.5,0.7-0.8c0.1-0.2,0.1-0.4,0.1-0.6l1.9-0.1
			c-0.1-0.2-0.2-0.4-0.3-0.5l-1.6,0.1c-0.1-0.5-0.4-0.9-0.9-1.2l0.7-1.6c-0.1-0.2-0.3-0.3-0.4-0.5l-0.8,1.9c-0.5-0.1-1,0-1.4,0.2
			l-3.1-3.6c0.1-0.2,0.2-0.3,0.3-0.5c0.1-0.3,0.2-0.6,0.1-0.9l2-0.4c-0.2-0.2-0.3-0.3-0.5-0.5l-1.6,0.4c-0.2-0.5-0.5-0.9-1-1.1
			c0,0-0.1,0-0.1,0l0.3-1.4c-0.2-0.1-0.3-0.2-0.5-0.4l-0.3,1.6c-0.5,0-1.1,0.2-1.5,0.6l-4.5-3.1c0.1-0.3,0.2-0.5,0.2-0.8
			c0-0.1,0-0.3-0.1-0.4l1.6-0.6c-0.2-0.1-0.4-0.2-0.6-0.3l-1.2,0.5c-0.3-0.5-0.8-0.8-1.3-0.9v-0.7c-0.2-0.1-0.4-0.1-0.5-0.2v0.9
			c-0.6,0.1-1.1,0.4-1.3,0.9l-5.9-2.3c0-0.1,0.1-0.3,0.1-0.4c0-0.3-0.1-0.5-0.1-0.7l0.3-0.2c-1.1-0.2-2.3-0.3-3.5-0.3
			c-0.2,0.2-0.3,0.4-0.4,0.7l-4-0.6c-0.7,0.1-1.4,0.2-2.1,0.3l6.1,0.8c0,0.4,0.1,0.8,0.3,1.1L87,50.8c-0.4-0.3-1-0.5-1.6-0.3l-2.1-5
			c0.3-0.2,0.6-0.5,0.7-0.8c-0.4,0.1-0.9,0.2-1.3,0.3c-0.6,0.2-1.3,0.3-1.9,0.5l-4.1,5.3c-0.5-0.3-1.1-0.3-1.6-0.1
			c-0.8,0.3-1.2,1.1-1.1,1.9l-6.9,1.8c-0.1-0.2-0.2-0.4-0.4-0.6c0,0,0,0-0.1-0.1c-0.9,0.9-1.7,1.8-2.5,2.8c0.2,0.1,0.3,0.3,0.5,0.3
			l-1.8,6.9c-0.5-0.1-1.1,0.1-1.5,0.5c-0.6,0.6-0.7,1.5-0.3,2.2L57.9,69c-0.1,0.3-0.2,0.6-0.2,0.9l3.8-2.8c0.3,0.3,0.6,0.4,1,0.5
			l-0.1,6.3c-0.6,0.1-1.1,0.4-1.4,0.9L57,73.1c0,0.2-0.1,0.4-0.1,0.6l3.7,1.5c-0.1,0.6,0,1.2,0.3,1.6l-4.3,4.5v3
			c0.3-0.2,0.5-0.5,0.6-0.8c0,0,0-0.1,0-0.1l5.3,1.1c0,0.5,0.2,1.1,0.6,1.5l-3.1,4.5c-0.3-0.1-0.5-0.2-0.8-0.2c-0.1,0-0.3,0-0.4,0.1
			l-2.1-5.4v1.5l1.6,4.1c-0.5,0.3-0.8,0.8-0.9,1.3h-0.7v0.5h0.7c0.1,0.6,0.4,1.1,0.9,1.3l-1.6,4.1v1.5l2.1-5.4
			c0.1,0,0.3,0.1,0.4,0.1c0.3,0,0.6-0.1,0.8-0.2l3.2,4.5c-0.4,0.3-0.6,0.8-0.6,1.4c0,0,0,0.1,0,0.1l-5.3,1.1
			c-0.1-0.4-0.4-0.6-0.6-0.9v3l4.3,4.5c-0.3,0.4-0.5,1-0.3,1.6l-4,1.7v0.5h0.2l4-1.7c0.3,0.5,0.8,0.8,1.4,0.9l0,0.7h0.5l0-0.8
			c0.1,0,0.3-0.1,0.4-0.1c0.3-0.1,0.5-0.3,0.7-0.5l2.2,1.4h1l-2.9-1.8c0.2-0.4,0.2-0.8,0.1-1.2l5-2.1c0.3,0.4,0.7,0.7,1.2,0.9
			l-0.3,4.3h0.5L71,107c0.2,0,0.4-0.1,0.6-0.1c0.4-0.1,0.6-0.4,0.8-0.7l3.6,1.7c-0.1,0.4-0.1,0.9,0.1,1.3c0,0,0,0.1,0,0.1l-2.9,1.9
			h1l2.2-1.5c0.3,0.4,0.8,0.6,1.2,0.6l0.1,0.9h0.5l-0.1-0.9c0.1,0,0.2-0.1,0.3-0.1c0.5-0.2,0.9-0.6,1.1-1.1l3.2,0.6
			c0,0.4,0.1,0.8,0.4,1.2l-0.4,0.4h3c0.1-0.1,0.1-0.1,0.2-0.2c0.3-0.3,0.5-0.8,0.5-1.2l2.6-0.3c0.1,0.3,0.2,0.6,0.5,0.9
			c0,0,0.1,0,0.1,0.1l-0.5,0.7c0.2,0,0.5,0,0.7,0l0.2-0.4c0.3,0.2,0.7,0.2,1.1,0.2l0,0.1c0.2,0,0.4,0,0.5-0.1l-0.1-0.2
			c0.2-0.1,0.4-0.2,0.5-0.4c0.5-0.5,0.6-1.2,0.5-1.8l1.9-0.8c0.2,0.2,0.4,0.5,0.6,0.6l-0.9,2.2c0.2,0,0.4-0.1,0.6-0.1l0.8-1.9
			c0.3,0.1,0.6,0.1,0.9,0l0.5,1.3c0.2-0.1,0.4-0.1,0.5-0.2l-0.5-1.4c0.4-0.2,0.6-0.5,0.8-0.9c0.4-1-0.1-2-1-2.4c-1-0.4-2,0.1-2.4,1
			c-0.2,0.4-0.2,0.8-0.1,1.2l-1.9,0.8c-0.1-0.1-0.2-0.2-0.3-0.3c-0.3-0.3-0.6-0.5-1-0.5l0-2.1c0.4-0.1,0.8-0.2,1.1-0.5
			c0.7-0.7,0.7-1.9,0-2.6c-0.7-0.7-1.9-0.7-2.6,0c-0.3,0.3-0.5,0.7-0.5,1.1l-2.1,0c0-0.1-0.1-0.3-0.1-0.4c-0.2-0.4-0.4-0.7-0.7-0.9
			l0.8-1.9c0.4,0.1,0.8,0.1,1.2-0.1c1-0.4,1.4-1.5,1-2.4c-0.4-1-1.5-1.4-2.4-1c-0.4,0.2-0.7,0.5-0.9,0.8l-1.9-0.7
			c0-0.1,0.1-0.3,0.1-0.4c0-0.4-0.1-0.8-0.3-1.1l1.5-1.4c0.3,0.2,0.7,0.4,1.1,0.4c1,0,1.9-0.8,1.9-1.9c0-1-0.8-1.9-1.9-1.9
			c-0.4,0-0.8,0.2-1.1,0.4l-1.5-1.4c0.1-0.1,0.2-0.2,0.2-0.4c0.2-0.4,0.2-0.8,0.1-1.1L86,87c0.2,0.4,0.5,0.6,0.9,0.8
			c1,0.4,2-0.1,2.4-1c0.4-1-0.1-2-1-2.4c-0.4-0.2-0.8-0.2-1.2-0.1l-0.8-1.9c0.1-0.1,0.2-0.2,0.3-0.3c0.3-0.3,0.5-0.6,0.5-1l2.1,0
			c0.1,0.4,0.2,0.8,0.5,1.1c0.7,0.7,1.9,0.7,2.6,0s0.7-1.9,0-2.6c-0.3-0.3-0.7-0.5-1.1-0.5l0-2.1c0.1,0,0.3-0.1,0.4-0.1
			c0.4-0.2,0.7-0.4,0.9-0.7l1.9,0.8c-0.1,0.4-0.1,0.8,0.1,1.2c0.4,1,1.5,1.4,2.4,1c1-0.4,1.4-1.5,1-2.4c-0.2-0.4-0.5-0.7-0.8-0.9
			l0.7-1.9c0.1,0,0.3,0.1,0.4,0.1c0.4,0,0.8-0.1,1.1-0.3l1.4,1.5c-0.2,0.3-0.4,0.7-0.4,1.1c0,1,0.8,1.9,1.9,1.9c1,0,1.9-0.8,1.9-1.9
			c0-0.4-0.2-0.8-0.4-1.1l1.4-1.5c0.1,0.1,0.2,0.2,0.4,0.2c0.4,0.2,0.8,0.2,1.1,0.1l0.7,1.9c-0.3,0.2-0.6,0.5-0.8,0.9
			c-0.4,1,0.1,2,1,2.4c1,0.4,2-0.1,2.4-1c0.2-0.4,0.2-0.8,0.1-1.2l1.9-0.8c0.1,0.1,0.2,0.2,0.3,0.3c0.3,0.3,0.6,0.5,1,0.5l0,2.1
			c-0.4,0.1-0.8,0.2-1.1,0.5c-0.7,0.7-0.7,1.9,0,2.6c0.7,0.7,1.9,0.7,2.6,0c0.3-0.3,0.5-0.7,0.5-1.1l2.1,0c0,0.1,0.1,0.3,0.1,0.4
			c0.2,0.4,0.4,0.7,0.7,0.9l-0.8,1.9c-0.4-0.1-0.8-0.1-1.2,0.1c-1,0.4-1.4,1.5-1,2.4c0.4,1,1.5,1.4,2.4,1c0.4-0.2,0.7-0.5,0.9-0.8
			l1.9,0.7c0,0.1-0.1,0.3-0.1,0.4c0,0.4,0.1,0.8,0.3,1.1l-1.5,1.4c-0.3-0.2-0.7-0.4-1.1-0.4c-1,0-1.9,0.8-1.9,1.9
			c0,1,0.8,1.9,1.9,1.9c0.1,0,0.1,0,0.2,0c0.5-0.9,1-1.8,1.5-2.7c-0.1-0.1-0.1-0.2-0.2-0.3l0.5-0.5c0.3-0.5,0.5-1.1,0.7-1.7
			c0.4-0.8,0.7-1.7,1-2.6c-0.5,0.1-1,0.4-1.2,0.9l-1.9-0.7c0.1-0.3,0.1-0.6,0-0.9l3.8-1.6c0.1-0.2,0.1-0.4,0.2-0.7l-4.2,1.7
			c-0.2-0.3-0.4-0.5-0.6-0.6l0.8-1.9c0.4,0.1,0.8,0.1,1.2-0.1c0.5-0.2,0.8-0.5,1-0.9l2.1,0.6c0-0.2,0.1-0.4,0.1-0.5l-2-0.6
			c0.1-0.3,0-0.7-0.1-1c0,0,0-0.1,0-0.1l2.6-1.8c0-0.2,0-0.5,0.1-0.7l-3,2C120.4,79.3,120.1,79,119.7,79z M94.6,46.3l5.9,2.3
			c0,0.1-0.1,0.3-0.1,0.4c0,0.3,0.1,0.6,0.2,0.8L96.1,53c-0.3-0.4-0.8-0.6-1.4-0.6c0,0-0.1,0-0.1,0l-1.1-5.3
			C94,47,94.4,46.7,94.6,46.3z M100.7,59.1l-3,2.7c-0.3-0.3-0.7-0.4-1.2-0.4c0,0-0.1,0-0.1,0L95.4,56c0.4-0.1,0.7-0.4,0.9-0.7
			l4.2,2.1c-0.1,0.2-0.1,0.4-0.1,0.6C100.4,58.4,100.5,58.8,100.7,59.1z M87.6,66.9c-0.1-0.4-0.4-0.6-0.7-0.8l1.7-3.6
			c0.3,0.1,0.7,0.1,1,0l2.1,5c-0.4,0.2-0.6,0.6-0.8,1l-3.2-0.7C87.8,67.4,87.7,67.2,87.6,66.9z M83.5,81l-2.5,0.7
			c-0.2-0.4-0.5-0.8-1-0.9c-0.3-0.1-0.6-0.2-0.8-0.1l-0.7-3.2c0.2-0.1,0.5-0.2,0.7-0.4c0,0,0-0.1,0.1-0.1l4.5,3
			C83.5,80.3,83.4,80.7,83.5,81z M75.2,97.8l5.3-1.1c0.1,0.3,0.3,0.6,0.6,0.9l-1.3,2.3c-0.4-0.2-0.9-0.2-1.4,0
			c-0.3,0.1-0.5,0.3-0.7,0.5l-2.8-1.8C75.2,98.4,75.2,98.1,75.2,97.8C75.2,97.8,75.2,97.8,75.2,97.8z M80.4,96.1
			C80.4,96.1,80.4,96.1,80.4,96.1l-5.3,1.1c-0.1-0.3-0.3-0.5-0.5-0.7l1.9-2.7c0.3,0.1,0.5,0.2,0.8,0.2c0.5,0,0.9-0.2,1.3-0.5
			l2.1,1.7C80.5,95.4,80.4,95.8,80.4,96.1z M71.5,98L66.2,99c-0.1-0.4-0.4-0.7-0.7-0.9l2.1-4.2C67.8,94,68,94,68.2,94
			c0.4,0,0.7-0.1,1-0.3l2.7,3C71.7,97,71.5,97.4,71.5,98C71.5,97.9,71.5,97.9,71.5,98z M64.5,65.1l5.8-2.5c0.1,0.1,0.2,0.2,0.3,0.3
			c0.2,0.2,0.5,0.4,0.7,0.4l-1,5.4c-0.5,0-1,0.2-1.4,0.5c0,0,0,0-0.1,0.1l-4.5-3C64.5,66,64.6,65.6,64.5,65.1z M84.7,66.2
			c-0.4,0.3-0.6,0.8-0.6,1.2l-4,0.2c-0.1-0.3-0.2-0.7-0.5-0.9c-0.1-0.1-0.3-0.3-0.5-0.4l1.5-4.5c0.3,0.1,0.7,0,1-0.1
			c0,0,0.1,0,0.1,0L84.7,66.2z M82.1,61.4c0.3-0.3,0.5-0.6,0.6-1l4.7,0.4c0,0.2,0.1,0.4,0.1,0.6c0.1,0.4,0.4,0.6,0.7,0.8l-1.7,3.6
			c-0.4-0.1-0.9-0.1-1.3,0.1c0,0-0.1,0-0.1,0L82.1,61.4z M66,83.6l3.6-3.1c0.2,0.1,0.3,0.2,0.5,0.3c0.4,0.1,0.7,0.2,1.1,0.1l1.3,3.8
			c-0.4,0.2-0.7,0.5-0.9,0.9c0,0,0,0.1,0,0.1l-5.3-1.1C66.3,84.3,66.2,83.9,66,83.6z M72,70.4l4.5-1.5c0.1,0.2,0.2,0.3,0.4,0.5
			c0.3,0.3,0.6,0.4,0.9,0.5l-0.2,4c-0.4,0-0.8,0.2-1.2,0.5c0,0,0,0.1-0.1,0.1l-4.5-3C72.1,71.1,72.1,70.7,72,70.4z M76.1,74.9
			c-0.2,0.4-0.2,0.9-0.1,1.4L72.4,78c-0.2-0.3-0.5-0.5-0.8-0.7c-0.2-0.1-0.4-0.1-0.6-0.1l-0.4-4.7c0.3-0.1,0.6-0.2,0.9-0.5
			c0,0,0-0.1,0.1-0.1L76.1,74.9z M72.3,87.9c0.1,0.1,0.2,0.1,0.3,0.2c0.5,0.2,1.1,0.2,1.5-0.1l1.9,2.7c-0.3,0.3-0.5,0.7-0.6,1.1
			h-5.4c-0.1-0.4-0.2-0.7-0.4-0.9L72.3,87.9z M74.1,84.6c-0.4-0.1-0.7-0.2-1.1-0.1l-1.3-3.8c0.3-0.2,0.6-0.4,0.7-0.7l5,2.1
			c-0.1,0.4-0.1,0.9,0.1,1.2l-2.8,1.8C74.6,84.9,74.3,84.7,74.1,84.6z M72.7,79.5c0.1-0.3,0.1-0.7,0-1l3.6-1.7
			c0.1,0.1,0.1,0.2,0.2,0.3c0.4,0.4,0.9,0.6,1.4,0.5l0.7,3.2c-0.4,0.1-0.7,0.4-1,0.8L72.7,79.5z M83.2,73.4
			c-0.3,0.3-0.4,0.8-0.4,1.2l-3.2,0.6c-0.1-0.3-0.2-0.5-0.4-0.7c-0.3-0.3-0.6-0.4-0.9-0.5l0.2-4c0.3,0,0.7-0.2,1-0.4L83.2,73.4z
			 M78.5,66.2c-0.5-0.1-1,0-1.4,0.3l-3.8-3.8c0.3-0.3,0.4-0.7,0.4-1.2l5.4-1c0,0,0,0.1,0.1,0.1c0.2,0.4,0.5,0.8,0.9,1L78.5,66.2z
			 M76.7,66.9c-0.3,0.4-0.4,0.9-0.3,1.4l-4.5,1.5c-0.1-0.2-0.2-0.3-0.3-0.5c-0.2-0.2-0.5-0.4-0.7-0.4l1-5.4c0.4,0,0.8-0.1,1.2-0.4
			L76.7,66.9z M68.9,72c0.3,0.3,0.8,0.5,1.2,0.5l0.4,4.7c-0.5,0.1-0.9,0.4-1.2,0.9l-5-2.1c0.1-0.4,0.1-0.8-0.1-1.2l4.6-2.9
			C68.8,71.9,68.9,72,68.9,72z M69,78.6c-0.1,0.5,0,1,0.2,1.4l-3.6,3.1c-0.2-0.1-0.3-0.2-0.5-0.3c-0.3-0.1-0.6-0.2-0.9-0.1l-1.2-5.4
			c0.4-0.1,0.7-0.4,0.9-0.8L69,78.6z M66.2,85.3C66.2,85.3,66.2,85.2,66.2,85.3l5.3,1c0,0.5,0.1,0.9,0.4,1.3l-2.7,3
			c-0.3-0.2-0.6-0.3-1-0.3c-0.2,0-0.4,0-0.6,0.1l-2.1-4.2C65.8,85.9,66,85.7,66.2,85.3z M69.7,93.3c0.2-0.3,0.4-0.6,0.4-0.9h5.4
			c0.1,0.4,0.3,0.8,0.6,1.1l-1.9,2.7c-0.3-0.1-0.5-0.2-0.8-0.2c-0.4,0-0.7,0.1-1,0.3L69.7,93.3z M77.3,90.2c-0.3,0-0.6,0.1-0.8,0.2
			l-1.9-2.7c0.2-0.2,0.3-0.4,0.5-0.6c0,0,0-0.1,0-0.1l5.3,1.1c0,0.4,0.1,0.7,0.3,1l-2.1,1.7C78.3,90.4,77.8,90.2,77.3,90.2z
			 M80.5,87.4C80.5,87.4,80.5,87.5,80.5,87.4l-5.3-1c0-0.3,0-0.6-0.2-0.9l2.8-1.8c0.2,0.2,0.4,0.4,0.7,0.5c0.5,0.2,0.9,0.2,1.4,0
			l1.3,2.3C80.9,86.8,80.7,87.1,80.5,87.4z M79.5,76.5c0.1-0.3,0.2-0.6,0.2-0.9l3.2-0.6c0.1,0.3,0.2,0.5,0.4,0.7
			c0.3,0.3,0.8,0.5,1.2,0.5l0.3,2.6c-0.3,0.1-0.6,0.2-0.9,0.5c0,0,0,0.1-0.1,0.1L79.5,76.5z M84.7,72.6c-0.4,0-0.8,0.1-1.2,0.4
			l-3.8-3.8c0.2-0.3,0.3-0.6,0.4-1l4-0.2c0,0.1,0.1,0.2,0.1,0.3c0.2,0.5,0.6,0.9,1.1,1.1L84.7,72.6z M85.8,69.4c0.3,0,0.5,0,0.8-0.1
			c0,0,0.1,0,0.1,0l3,4.5c-0.3,0.2-0.5,0.6-0.6,0.9l-2.6-0.3c0-0.5-0.2-0.9-0.5-1.2c-0.2-0.2-0.5-0.4-0.7-0.4L85.8,69.4z M90.2,62.3
			c0.3-0.2,0.5-0.4,0.7-0.7l3.8,1.3c0,0.1,0,0.2,0,0.3c0,0.6,0.3,1.1,0.6,1.4l-1.8,2.8c-0.4-0.2-0.8-0.2-1.2-0.1L90.2,62.3z
			 M94.9,62.3L91.1,61c0.1-0.3,0-0.7-0.1-1.1c-0.1-0.2-0.2-0.4-0.3-0.5l3.1-3.6c0.3,0.2,0.6,0.3,1,0.3c0,0,0.1,0,0.1,0l1.1,5.3
			C95.5,61.6,95.1,61.9,94.9,62.3z M91.8,46.8c0.3,0.2,0.7,0.4,1.1,0.4c0,0,0.1,0,0.1,0l1.1,5.3c-0.5,0.2-0.9,0.6-1.1,1.1l-5.4-1.2
			c0-0.3,0-0.6-0.1-0.9c-0.1-0.1-0.1-0.3-0.2-0.4L91.8,46.8z M87.5,52.9l5.4,1.2c0,0.1,0,0.1,0,0.1c0,0.5,0.2,0.9,0.5,1.2l-3.1,3.6
			c-0.4-0.3-1-0.4-1.4-0.2l-2.1-5C87.1,53.6,87.4,53.3,87.5,52.9z M86.2,54.1l2.1,5c-0.4,0.3-0.7,0.7-0.9,1.2l-4.7-0.4
			c0-0.2-0.1-0.4-0.1-0.6c-0.1-0.3-0.3-0.5-0.5-0.7L85,54C85.4,54.2,85.8,54.2,86.2,54.1z M81.4,45.5c0.4,0.2,0.9,0.3,1.4,0.2l2.1,5
			C84.3,51,84,51.5,83.9,52l-6.3,0.1c0-0.1-0.1-0.3-0.1-0.4c-0.1-0.2-0.2-0.4-0.4-0.6L81.4,45.5z M77.7,52.7l6.3-0.1
			c0,0.1,0.1,0.3,0.1,0.4c0.1,0.3,0.3,0.5,0.5,0.7l-2.9,4.6c-0.5-0.2-1-0.2-1.5,0c0,0-0.1,0-0.1,0l-3-4.5
			C77.4,53.6,77.6,53.1,77.7,52.7z M75.3,54.3c0.4,0.1,0.8,0.1,1.2-0.1c0,0,0.1,0,0.1,0l3,4.5C79.2,59,79,59.5,79,60.1l-5.4,1
			c-0.1-0.3-0.2-0.5-0.4-0.7c-0.1-0.1-0.2-0.2-0.3-0.3L75.3,54.3z M67.2,55l6.9-1.8c0.2,0.4,0.4,0.7,0.7,0.9l-2.5,5.8
			c-0.5-0.2-1.1-0.1-1.6,0.3l-3.8-3.8C67.1,55.9,67.3,55.4,67.2,55z M65.2,57.1c0.5,0.1,0.9-0.1,1.3-0.4l3.8,3.8
			C70,61,69.9,61.6,70,62.1l-5.8,2.5c-0.1-0.1-0.2-0.2-0.3-0.3c-0.2-0.2-0.4-0.3-0.6-0.4L65.2,57.1z M62.9,67.5
			c0.4-0.1,0.8-0.2,1.1-0.5c0,0,0-0.1,0.1-0.1l4.5,3c-0.2,0.5-0.2,1.1,0,1.6l-4.6,2.9c-0.2-0.2-0.4-0.4-0.7-0.5
			c-0.1-0.1-0.3-0.1-0.4-0.1L62.9,67.5z M62.7,83.9C62.7,83.9,62.7,83.9,62.7,83.9l-5.3-1c0-0.4-0.1-0.9-0.4-1.2l4.4-4.5
			c0.1,0.1,0.2,0.2,0.4,0.2c0.3,0.1,0.6,0.2,0.9,0.1l1.2,5.4C63.3,83,62.9,83.4,62.7,83.9z M63.6,86.3c0,0,0.1,0,0.1,0.1
			c0.4,0.2,0.9,0.2,1.3,0l2.1,4.2c-0.4,0.3-0.7,0.7-0.8,1.3H61c-0.1-0.4-0.3-0.8-0.6-1.1L63.6,86.3z M60.5,93.5
			c0.3-0.3,0.5-0.7,0.6-1.1h5.4c0.1,0.5,0.4,1,0.8,1.3L65,97.9c-0.2-0.1-0.4-0.1-0.6-0.1c-0.3,0-0.6,0.1-0.8,0.2L60.5,93.5z
			 M62.6,106.7c-0.3,0-0.6,0-0.9,0.1c-0.1,0.1-0.3,0.1-0.4,0.2l-4.4-4.5c0.2-0.3,0.4-0.7,0.4-1.1c0,0,0-0.1,0-0.1l5.3-1.1
			c0.2,0.5,0.6,0.9,1.1,1.1L62.6,106.7z M69,105.6l-5,2.1c-0.2-0.4-0.6-0.6-0.9-0.8l1.2-5.4c0.1,0,0.1,0,0.1,0
			c0.5,0,0.9-0.2,1.2-0.5l3.6,3.1C69,104.6,68.9,105.1,69,105.6z M71.2,103.3c-0.3-0.1-0.7,0-1.1,0.1c-0.2,0.1-0.4,0.2-0.5,0.3
			l-3.6-3.1c0.2-0.3,0.3-0.6,0.3-1c0,0,0-0.1,0-0.1l5.3-1.1c0.2,0.4,0.5,0.8,0.9,1L71.2,103.3z M71.7,103.5l1.3-3.8
			c0.1,0,0.2,0,0.3,0c0.6,0,1.1-0.3,1.4-0.6l2.8,1.8c-0.2,0.4-0.2,0.8-0.1,1.2l-5,2.1C72.3,103.9,72,103.6,71.7,103.5z M77.9,106.6
			c-0.3,0-0.6,0-0.8,0.1c-0.4,0.1-0.6,0.4-0.8,0.7l-3.6-1.7c0.1-0.3,0.1-0.7,0-1l5-2.1c0.2,0.4,0.6,0.6,1,0.8L77.9,106.6z
			 M78.4,106.7l0.7-3.2c0.3,0,0.6,0,0.8-0.1c0.5-0.2,0.8-0.5,1-0.9l2.5,0.7c-0.1,0.3,0,0.7,0.1,1c0,0,0,0.1,0,0.1l-4.5,3
			C78.9,107,78.7,106.9,78.4,106.7z M84.6,107.9c-0.5,0-0.9,0.2-1.2,0.5c-0.2,0.2-0.4,0.5-0.4,0.7l-3.2-0.6c0-0.3,0-0.5-0.1-0.8
			c0,0,0-0.1,0-0.1l4.5-3c0.2,0.3,0.6,0.5,0.9,0.6L84.6,107.9z M90,104.8c0.2,0.2,0.5,0.3,0.8,0.3l0,2.1c-0.4,0.1-0.8,0.2-1.1,0.5
			c-0.3,0.3-0.5,0.8-0.5,1.2l-2.6,0.3c-0.1-0.2-0.2-0.4-0.3-0.6L90,104.8z M87.2,103.7l2.1-0.1c0.1,0.3,0.2,0.6,0.3,0.8l-3.8,3.8
			c-0.2-0.1-0.4-0.3-0.6-0.3l0.3-2.6c0.2,0,0.4-0.1,0.6-0.1C86.7,104.9,87.1,104.3,87.2,103.7z M86,99.1c0.2,0.3,0.4,0.5,0.6,0.6
			l-0.8,1.9c-0.4-0.1-0.8-0.1-1.2,0.1c-0.5,0.2-0.8,0.5-1,0.9l-2.5-0.7c0-0.2,0-0.5,0-0.7L86,99.1z M83.9,97l1.9,0.7
			c-0.1,0.3-0.1,0.6,0,0.9l-5,2.1c-0.1-0.2-0.3-0.4-0.5-0.5l1.3-2.3c0.2,0.1,0.4,0.1,0.6,0.1C83,98,83.6,97.6,83.9,97z M83.4,94.6
			c-0.3-0.2-0.7-0.4-1.1-0.4c-0.5,0-0.9,0.2-1.3,0.5L78.9,93c0.1-0.2,0.2-0.4,0.2-0.7h5.4c0,0.3,0.2,0.6,0.3,0.8L83.4,94.6z
			 M84.9,91c-0.2,0.2-0.3,0.5-0.3,0.8h-5.4c0-0.2-0.1-0.5-0.2-0.7l2.1-1.7c0.2,0.1,0.3,0.3,0.6,0.4c0.6,0.3,1.3,0.1,1.9-0.3L84.9,91
			z M85.8,86.5l-1.9,0.7c-0.2-0.4-0.5-0.6-0.9-0.8c-0.5-0.2-0.9-0.2-1.4,0l-1.3-2.3c0.2-0.1,0.4-0.3,0.5-0.5l5,2.1
			C85.8,85.9,85.8,86.2,85.8,86.5z M86.6,84.4c-0.2,0.2-0.5,0.4-0.6,0.6l-5-2.1c0.1-0.2,0.1-0.5,0-0.7l2.5-0.7
			c0.1,0.2,0.2,0.4,0.4,0.5c0.5,0.5,1.2,0.6,1.8,0.5L86.6,84.4z M89.2,80.6l-2.1,0c-0.1-0.4-0.2-0.8-0.5-1.1
			c-0.3-0.3-0.8-0.5-1.2-0.5l-0.3-2.6c0.2-0.1,0.4-0.2,0.6-0.3l3.8,3.8C89.4,80,89.3,80.3,89.2,80.6z M90,79.4l-3.8-3.8
			c0.2-0.2,0.3-0.4,0.3-0.6l2.6,0.3c0,0.2,0.1,0.4,0.1,0.6c0.3,0.6,0.9,1.1,1.5,1.1l0,2.1C90.5,79.1,90.2,79.2,90,79.4z M91.2,73.3
			c-0.3-0.1-0.7,0-1,0.1c0,0-0.1,0-0.1,0l-3-4.5c0.2-0.2,0.4-0.5,0.5-0.7l3.2,0.7c0,0.3,0,0.6,0.1,0.8c0.2,0.5,0.5,0.8,0.9,1
			L91.2,73.3z M94.6,76.5l-1.9-0.8c0.1-0.4,0.1-0.8-0.1-1.2c-0.2-0.5-0.5-0.8-0.9-1l0.7-2.5c0.2,0,0.5,0,0.7,0l2.1,5
			C95,76,94.8,76.2,94.6,76.5z M96.6,75.6c-0.3-0.1-0.6-0.1-0.9,0l-2.1-5c0.2-0.1,0.4-0.3,0.5-0.5l2.3,1.3c-0.1,0.2-0.1,0.4-0.1,0.6
			c0,0.7,0.4,1.3,0.9,1.6L96.6,75.6z M96.8,71l-2.3-1.3c0.2-0.4,0.2-0.9,0-1.4c-0.1-0.3-0.3-0.5-0.5-0.7l1.8-2.8
			c0.2,0.1,0.5,0.2,0.8,0.2c0,0,0.1,0,0.1,0l1.1,5.3C97.3,70.5,97,70.7,96.8,71z M99.3,70.5c-0.3-0.2-0.6-0.3-1-0.3c0,0-0.1,0-0.1,0
			L97.2,65c0.3-0.1,0.5-0.3,0.7-0.5l2.7,1.9c-0.1,0.3-0.2,0.5-0.2,0.8c0,0.5,0.2,0.9,0.5,1.3L99.3,70.5z M102,74.4
			c-0.3,0-0.6,0.2-0.8,0.3l-1.4-1.5c0.2-0.3,0.4-0.7,0.4-1.1c0-0.5-0.2-0.9-0.5-1.3l1.7-2.1c0.2,0.1,0.4,0.2,0.7,0.2
			C102,69,102,74.4,102,74.4z M102,65.3c-0.4,0.1-0.8,0.3-1.1,0.6L98.2,64c0.1-0.3,0.2-0.5,0.2-0.8c0-0.4-0.1-0.7-0.3-1l3-2.7
			c0.3,0.2,0.6,0.4,0.9,0.4L102,65.3L102,65.3z M102,56.2c-0.5,0.1-1,0.4-1.3,0.8l-4.2-2.1c0.1-0.2,0.1-0.4,0.1-0.6
			c0-0.3-0.1-0.6-0.2-0.8l4.5-3.2c0.3,0.3,0.7,0.5,1.1,0.6L102,56.2L102,56.2z M118.7,69.4l0.6,3.2c-0.3,0.1-0.5,0.2-0.7,0.4
			c-0.3,0.3-0.5,0.8-0.5,1.2l-2.6,0.3c-0.1-0.3-0.2-0.6-0.5-0.9c0,0-0.1,0-0.1-0.1l3-4.5C118.1,69.4,118.4,69.5,118.7,69.4z
			 M115.9,62.4l1.7,3.6c-0.1,0.1-0.2,0.1-0.3,0.2c-0.4,0.4-0.6,0.9-0.5,1.4l-3.2,0.7c-0.1-0.4-0.4-0.7-0.8-1l2.1-5
			C115.2,62.6,115.5,62.6,115.9,62.4z M114.3,62.3l-2.1,5c-0.4-0.1-0.9-0.1-1.2,0.1l-1.8-2.8c0.2-0.2,0.4-0.4,0.5-0.7
			c0.1-0.4,0.2-0.7,0.1-1.1l3.8-1.3C113.8,61.8,114,62.1,114.3,62.3z M110.8,55.8l3.1,3.6c-0.1,0.2-0.2,0.3-0.3,0.5
			c-0.1,0.4-0.2,0.7-0.1,1.1l-3.8,1.3c-0.2-0.4-0.5-0.7-0.9-0.9c0,0-0.1,0-0.1,0l1.1-5.3C110.1,56.1,110.5,56.1,110.8,55.8z
			 M109.1,56C109.1,56,109.2,56,109.1,56l-1,5.3c-0.5,0-0.9,0.1-1.3,0.4l-3-2.7c0.2-0.3,0.3-0.6,0.3-1c0-0.2,0-0.4-0.1-0.6l4.2-2.1
			C108.5,55.6,108.7,55.9,109.1,56z M102.6,50.8c0.4-0.1,0.8-0.3,1.1-0.6l4.5,3.1c0,0,0,0.1-0.1,0.1c-0.2,0.4-0.2,0.9,0,1.3
			l-4.2,2.1c-0.3-0.4-0.7-0.7-1.3-0.8L102.6,50.8L102.6,50.8z M102.6,59.9c0.4-0.1,0.7-0.2,0.9-0.4l3,2.7c-0.1,0.1-0.1,0.2-0.2,0.3
			c-0.2,0.5-0.2,1.1,0.1,1.5l-2.7,1.9c-0.3-0.3-0.7-0.5-1.1-0.6L102.6,59.9L102.6,59.9z M104.8,73.2l-1.4,1.5
			c-0.2-0.2-0.5-0.3-0.8-0.3V69c0.2,0,0.5-0.1,0.7-0.2l1.7,2.1c-0.1,0.2-0.3,0.3-0.4,0.6C104.3,72,104.4,72.7,104.8,73.2z
			 M106.4,70.2c-0.4,0-0.7,0.1-1,0.3l-1.7-2.1c0.3-0.3,0.5-0.8,0.5-1.3c0-0.3-0.1-0.6-0.2-0.8l2.7-1.9c0.2,0.2,0.4,0.3,0.6,0.5
			c0,0,0.1,0,0.1,0L106.4,70.2z M106.9,70.3l1.1-5.3c0.3,0,0.6,0,0.9-0.2l1.8,2.8c-0.2,0.2-0.4,0.4-0.5,0.7c-0.2,0.5-0.2,0.9,0,1.4
			l-2.3,1.3C107.6,70.7,107.3,70.5,106.9,70.3C107,70.4,106.9,70.4,106.9,70.3z M107.9,75.6l-0.7-1.9c0.3-0.2,0.6-0.5,0.8-0.9
			c0.2-0.5,0.2-0.9,0-1.4l2.3-1.3c0.1,0.2,0.3,0.4,0.5,0.5l-2.1,5C108.5,75.6,108.2,75.6,107.9,75.6z M112.3,73.8
			c-0.5,0.5-0.6,1.2-0.5,1.8l-1.9,0.8c-0.2-0.2-0.4-0.5-0.6-0.6l2.1-5c0.2,0.1,0.5,0.1,0.7,0l0.7,2.5
			C112.6,73.5,112.5,73.7,112.3,73.8z M113.4,73.3l-0.7-2.5c0.4-0.2,0.8-0.5,0.9-1c0.1-0.3,0.2-0.6,0.1-0.8l3.2-0.7
			c0.1,0.2,0.2,0.5,0.4,0.7c0,0,0.1,0,0.1,0.1l-3,4.5C114.1,73.3,113.7,73.2,113.4,73.3z M114.6,79.4c-0.2-0.2-0.5-0.3-0.8-0.3
			l0-2.1c0.4-0.1,0.8-0.2,1.1-0.5c0.3-0.3,0.5-0.8,0.5-1.2l2.6-0.3c0.1,0.2,0.2,0.4,0.3,0.6L114.6,79.4z M119.2,78.9
			c-0.2,0-0.4,0.1-0.6,0.1c-0.6,0.3-1.1,0.9-1.1,1.5l-2.1,0c-0.1-0.3-0.2-0.6-0.3-0.8l3.8-3.8c0.2,0.2,0.4,0.3,0.6,0.3L119.2,78.9z"
			/>
	</g>
</g>
</svg>
