<?xml version="1.0" encoding="utf-8"?>
<!-- Generator: Adobe Illustrator 26.0.3, SVG Export Plug-In . SVG Version: 6.00 Build 0)  -->
<svg version="1.1" id="Layer_1" xmlns="http://www.w3.org/2000/svg" xmlns:xlink="http://www.w3.org/1999/xlink" x="0px" y="0px"
	 viewBox="0 0 173.5 166" style="enable-background:new 0 0 173.5 166;" xml:space="preserve">
<style type="text/css">
	.st0{fill:url(#SVGID_1_);}
	.st1{fill:url(#SVGID_00000098185916799052965850000012781146047584324752_);}
	.st2{fill:#006665;}
	.st3{fill:#006CA3;}
	.st4{fill:#457575;}
	.st5{fill:#006992;}
	.st6{fill:#009595;}
	.st7{font-family:'Nexa-BlackItalic';}
	.st8{font-size:4.7993px;}
</style>
<g>
	<g>
		<g>
			
				<linearGradient id="SVGID_1_" gradientUnits="userSpaceOnUse" x1="80.7066" y1="10.0187" x2="102.4675" y2="117.2488" gradientTransform="matrix(1 0 0 1 0 2)">
				<stop  offset="0.1333" style="stop-color:#FFF100"/>
				<stop  offset="0.345" style="stop-color:#AF8B39"/>
				<stop  offset="0.5697" style="stop-color:#FDDF06"/>
				<stop  offset="0.6287" style="stop-color:#FFF100"/>
				<stop  offset="1" style="stop-color:#7D4E24"/>
			</linearGradient>
			<path class="st0" d="M92.1,89.5c-0.1-0.3-0.7-11.6,0-12.6c0.8-1.3,0-40.6,0-41.8c1.2-0.7,1.9-2,1.8-3.5c-0.2-1.7-1.5-3.2-3.3-3.4
				c-2.2-0.3-4.1,1.5-4.1,3.7c0,1.4,0.8,2.6,1.9,3.2l0.7,64l2.8-1.9c0,0-0.1-1.7,0-2.1s1.3-1.6,1.1-2.1C93,92.4,92.6,89.9,92.1,89.5
				z"/>
			
				<linearGradient id="SVGID_00000143607672471865016080000011455055276540521098_" gradientUnits="userSpaceOnUse" x1="78.8292" y1="10.3997" x2="100.5897" y2="117.6298" gradientTransform="matrix(1 0 0 1 0 2)">
				<stop  offset="0.1333" style="stop-color:#FFF100"/>
				<stop  offset="0.345" style="stop-color:#AF8B39"/>
				<stop  offset="0.5697" style="stop-color:#FDDF06"/>
				<stop  offset="0.6287" style="stop-color:#FFF100"/>
				<stop  offset="1" style="stop-color:#7D4E24"/>
			</linearGradient>
			<path style="fill:url(#SVGID_00000143607672471865016080000011455055276540521098_);" d="M97.4,62.1c-0.3,0.4-0.7,0.7-1,1.1
				c-1.1,1-2.4,1.7-3.8,2.3c-0.8,0.4-1.6,0.7-2.4,0.9c-0.4,0.2-0.9,0.4-1.3,0.6c-1,0.6-1.8,1.6-1.1,2.9c0,0,0.1,0.2,0.2,0.3
				c-2.3-0.8-3.6-2.1-4.4-3.2c0.1-0.2,0.2-0.4,0.3-0.5c0.6-1,1.4-1.8,2.3-2.6c0.8-0.6,1.7-1.2,2.6-1.6c0.5-0.3,1.1-0.5,1.7-0.7
				c0.6-0.2,1.4-0.5,2.1-0.8c1.1-0.5,2-1.3,2-2.5c0-0.6-0.4-1.1-0.8-1.6c-0.4-0.5-0.8-0.8-1.3-1.2c-1.1-0.8-2.4-1.4-3.8-1.9
				c0,0,0,0-0.1,0c-4.5-1.5-9.7-1.8-12.3-5.8c-0.3-0.5-0.6-1-0.8-1.6c-0.7-1.7-0.8-3.8,0.1-5.6c0.9-1.8,2.9-2.7,4.8-3.2
				c1.3-0.3,3.8-1.1,5.1-0.4c0,0,1.9,1.1,3,1.7c0.5,0.3,0.8,0.5,0.8,0.5c-0.2,0.3-0.5,0.5-0.8,0.7c-1.8,1.2-4.5,1-6.4,0.9
				c-1.5,0-2.9,0.3-2.9,2c0,0.9,0.4,1.9,1,2.7c0.3,0.5,0.7,0.9,1.2,1.2c1.9,1.4,4.3,1.7,6.5,2.4c0.3,0.1,0.6,0.2,0.8,0.3
				c1.3,0.4,2.6,0.9,3.8,1.6c0.1,0,0.2,0.1,0.2,0.1c1.1,0.6,2.1,1.3,3,2.2C98.1,55.6,99.8,59.2,97.4,62.1z"/>
		</g>
		<g>
			<path class="st2" d="M78.5,71.3c-0.2,8.7,7.3,6.6,7.3,6.4c0.9-0.2,2-0.9,3.1-1.8c1.4-1.1,2.7-2.6,3.6-3.6
				c0.7-0.8,1.2-1.4,1.2-1.4c-0.4,0-0.8,0.1-1.1,0.1c-1.4,0-2.6-0.1-3.7-0.4c-0.3-0.1-0.6-0.2-0.9-0.3c-2.3-0.8-3.6-2.1-4.4-3.2
				c-0.8-1.2-1-2.2-1-2.2c-0.1-0.4,1.4-0.7,3.6-0.9c0.8-0.1,1.7-0.2,2.6-0.3c1.2-0.1,2.5-0.2,3.8-0.3c1.3-0.1,2.6-0.2,3.8-0.2
				c4.3-0.2,8.2-0.2,9-0.1c12.8,2.6,1.3,14.6-4.7,17.7c-2.7,1.4-5.8,2.4-8.8,3C90.9,84,90,84.2,89,84.3c-1.3,0.2-2.6,0.3-3.9,0.3
				c-6.9,0.2-14.6-1.4-19.2-6.9c-4.9-5.8-3-14.3,0.8-20.1c2.5-3.8,5.8-7.2,9.6-9.7c1.2-0.8,2.5-1.6,3.9-2.2c1.3-0.6,2.7-1.2,4.1-1.6
				c1.4-0.4,2.8-0.7,4.3-0.9c1.2-0.2,2.5-0.3,3.8-0.3c5.5-0.1,11,1.2,15.9,3.4c0.4,0.2,0.7,0.3,1.1,0.5c0.8,0.4,1.5,1.1,2.2,1.9
				c2.8,3.8,4.1,11.1-0.5,12.8c-1.7,0.6-4.2-0.2-5.9-0.6c-2.7-0.7-5.3-2.2-6.3-5c-0.8-2-0.2-5.6-3.3-5.6c-0.8,0-1.8,0.4-2.9,0.9
				c-0.1,0-0.2,0.1-0.2,0.1c-1.1,0.6-2.2,1.3-3,1.8c-0.3,0.2-0.5,0.3-0.8,0.5c0,0,0,0-0.1,0c-2.7,1.9-4.9,4.3-6.6,7.1
				C80.3,63.7,78.6,67.7,78.5,71.3z"/>
			<path class="st3" d="M130.1,83.3c-0.2-3.8-3.7-6.6-7.1-8.3c-0.6-0.3-1.2-0.6-1.9-0.9c-0.2-0.1-0.5-0.2-0.7-0.3
				c-2.1-0.8-4.2-1.5-6.4-2c1.6,0.5,4.1,1.7,6,3.3c0.2,0.2,0.4,0.3,0.6,0.5c1.9,1.8,3.2,3.9,2.3,6.1c-2.3,5.4-8.2,7.1-13.7,8.2
				c-0.6,0.1-1.2,0.2-1.7,0.3l0,0c-0.6,0.1-1.2,0.2-1.8,0.3c-9,1.8-18.2,2.5-27.4,2c-4.3-0.2-8.7-0.6-12.9-1.6
				c-0.8-0.2-1.5-0.4-2.3-0.6c-3.5-1.1-6.8-2.6-9.7-4.9c-2.8-2.2-4.3-5.5-1.9-8.5c0,0,0-0.1,0.1-0.1c0.2-0.2,0.3-0.4,0.5-0.6
				c2-2.1,4.8-3.4,7.4-4.6h0c-2.7,0.7-5.5,1.5-8.1,2.6c-0.2,0.1-0.5,0.2-0.7,0.3c-0.2,0.1-0.5,0.2-0.7,0.3c-3.6,1.8-6.9,5.5-6.6,9.7
				c0.3,4.3,4,7.3,7.6,9c4.3,2.1,9.2,3.1,13.9,4c15,2.9,31.6,3.1,46.5-0.8C117.6,95.3,130.6,92,130.1,83.3z"/>
			<g>
				<path class="st4" d="M109.3,46.7c-0.4-0.2-0.7-0.3-1.1-0.5c1.2,0.7,2.3,1.6,3.3,2.4C110.8,47.7,110.1,47,109.3,46.7z
					 M120.1,75.2c-2,6.1-6.5,11.4-12.5,15.1l0,0c-4.5,2.8-9.8,4.7-15.6,5.5c-0.9,0.1-1.9,0.2-2.8,0.3c-1.1,0.1-2.2,0.1-3.3,0.1
					c-7.6,0-14.7-1.9-20.4-5.2c-6.3-3.6-11-8.7-13.4-14.7c-0.2,0.2-0.3,0.4-0.5,0.6c0,0,0,0.1-0.1,0.1c2.2,5.3,6.3,10,11.6,13.4
					c6.2,4,14.1,6.4,22.7,6.4c1.1,0,2.2,0,3.3-0.1c0.9-0.1,1.9-0.2,2.8-0.3c6.5-0.9,12.5-3.2,17.3-6.5c5.4-3.7,9.5-8.6,11.4-14.3
					C120.5,75.5,120.3,75.3,120.1,75.2z"/>
			</g>
		</g>
		<g>
			<path class="st5" d="M29,104.3c-0.7-0.7-1.7-1-2.5-1c-2.2,0-3.5,1.6-3.5,3.6c0,1.7,1,3.4,3.5,3.4c0.8,0,1.5-0.2,2.3-0.8v-1.9
				h-2.6v-1.3h4v3.8c-0.9,1-2.1,1.6-3.7,1.6c-3.4,0-4.9-2.3-4.9-4.8c0-2.7,1.7-5,4.9-5c1.2,0,2.5,0.5,3.5,1.4L29,104.3z"/>
			<path class="st5" d="M38.2,108.2c0,1.9-1.4,3.4-3.4,3.4c-2.1,0-3.4-1.5-3.4-3.4c0-1.9,1.4-3.4,3.4-3.4
				C36.8,104.8,38.2,106.2,38.2,108.2z M32.7,108.2c0,1.2,0.8,2.1,2,2.1c1.3,0,2-1,2-2.1c0-1.2-0.8-2.2-2-2.2
				C33.5,106,32.7,107,32.7,108.2z"/>
			<path class="st5" d="M39.6,114.5v-9.7h1.3L41,106c0.5-0.8,1.4-1.2,2.3-1.2c2,0,3.3,1.4,3.3,3.4s-1.3,3.4-3.3,3.4
				c-0.8,0-1.8-0.3-2.3-1.1v4L39.6,114.5L39.6,114.5z M45.3,108.2c0-1.2-0.8-2.1-2.1-2.1c-1.3,0-2.1,0.9-2.1,2.1s0.9,2.1,2.1,2.1
				S45.3,109.4,45.3,108.2z"/>
			<path class="st5" d="M53.5,104.9h1.3c0,2.2,0,4.4,0,6.6h-1.3l-0.1-1.1c-0.4,0.8-1.5,1.2-2.3,1.2c-1.9,0-3.4-1.2-3.4-3.5
				c0-2.2,1.5-3.4,3.4-3.4c0.9,0,1.8,0.4,2.3,1.2L53.5,104.9z M49.1,108.2c0,1.4,1,2.2,2.1,2.2c2.8,0,2.8-4.4,0-4.4
				C50.1,106,49.1,106.8,49.1,108.2z"/>
			<path class="st5" d="M58.1,102.1v9.4h-1.4v-9.4H58.1z"/>
			<path class="st5" d="M65.7,104.3l1,0.8l-0.8,0.9c0.5,0.6,0.8,1.2,0.8,2c0,1.2-0.6,2.1-1.8,2.6c1.4,0.5,1.7,1.4,1.7,2.2
				c0,1.8-1.8,2.7-3.5,2.7c-2.2,0-3.5-1.1-3.5-2.9H61c0,1,1,1.6,2.1,1.6c1,0,2.1-0.4,2.1-1.4c0-0.9-0.8-1.4-2.1-1.4
				c-2.1,0-3.6-1.2-3.6-3.3c0-2.2,1.8-3.3,3.6-3.3c0.5,0,1.3,0.1,1.8,0.5L65.7,104.3z M61,108c0,1.3,1,2,2.2,2c1.2,0,2.1-0.8,2.1-2
				c0-1.3-1-2-2.1-2C62.1,106,61,106.6,61,108z"/>
			<path class="st5" d="M74.7,108.2c0,1.9-1.4,3.4-3.4,3.4c-2.1,0-3.4-1.5-3.4-3.4c0-1.9,1.4-3.4,3.4-3.4
				C73.3,104.8,74.7,106.2,74.7,108.2z M69.2,108.2c0,1.2,0.8,2.1,2,2.1c1.3,0,2-1,2-2.1c0-1.2-0.8-2.2-2-2.2
				C70,106,69.2,107,69.2,108.2z"/>
			<path class="st5" d="M81.1,111.5v-3.5c0-1.1-0.6-1.9-1.8-1.9c-1.1,0-1.8,0.9-1.8,2v3.5h-1.4v-6.6h1.3l0.1,1
				c0.6-0.7,1.4-1.1,2.2-1.1c1.6,0,2.8,1.1,2.8,3.2v3.5L81.1,111.5L81.1,111.5z"/>
			<path class="st5" d="M85.7,104.9v7.4c0,1.7-0.6,2.5-2.1,2.5c-0.5,0-0.9-0.1-1.4-0.4l0.5-1.1c0.3,0.1,0.6,0.2,0.8,0.2
				c0.7,0,0.8-0.5,0.8-1.2v-7.4H85.7z M84.1,102.9c0,1.1,1.7,1.1,1.7,0C85.8,101.8,84.1,101.8,84.1,102.9z"/>
			<path class="st5" d="M99.3,104.3l-3.2,4.4h-0.3l-3.2-4.4v7.2h-1.5v-9.4c0.6,0,1.1,0,1.7,0l3.1,4.4l3.1-4.4h1.7v9.4h-1.5
				L99.3,104.3L99.3,104.3z"/>
			<path class="st5" d="M103.7,108.7c0.1,1,0.9,1.7,2.2,1.7c0.7,0,1.5-0.3,1.9-0.7l0.9,0.9c-0.7,0.7-1.8,1.1-2.8,1.1
				c-2.2,0-3.6-1.4-3.6-3.5c0-2,1.4-3.4,3.5-3.4c2.1,0,3.6,1.3,3.3,4L103.7,108.7L103.7,108.7z M107.8,107.5
				c-0.1-1.1-0.8-1.6-1.9-1.6c-1,0-1.8,0.5-2,1.6H107.8z"/>
			<path class="st5" d="M117.1,102.1v9.4h-1.3l-0.1-1.1c-0.5,0.8-1.4,1.2-2.3,1.2c-1.9,0-3.4-1.3-3.4-3.4c0-2.3,1.4-3.4,3.4-3.4
				c0.8,0,1.9,0.4,2.3,1.2v-3.8C115.8,102.1,117.1,102.1,117.1,102.1z M111.5,108.2c0,1.3,0.9,2.2,2.1,2.2c1.2,0,2.1-0.9,2.1-2.2
				c0-1.3-0.9-2.1-2.1-2.1C112.4,106,111.5,106.8,111.5,108.2z"/>
			<path class="st5" d="M120.6,102.9c0,1.1-1.7,1.1-1.7,0C118.9,101.8,120.6,101.8,120.6,102.9z M119,104.9v6.6h1.4v-6.6H119z"/>
			<path class="st5" d="M127.9,110.6c-0.7,0.7-1.6,1-2.5,1c-1.9,0-3.5-1.2-3.5-3.5s1.6-3.5,3.5-3.5c0.9,0,1.7,0.3,2.4,1l-0.9,0.9
				c-0.4-0.4-1-0.6-1.5-0.6c-1.2,0-2.1,0.8-2.1,2.2c0,1.4,1,2.1,2.1,2.1c0.6,0,1.1-0.2,1.6-0.6L127.9,110.6z"/>
			<path class="st5" d="M134.2,104.9h1.3c0,2.2,0,4.4,0,6.6h-1.3l-0.1-1.1c-0.4,0.8-1.5,1.2-2.3,1.2c-1.9,0-3.4-1.2-3.4-3.5
				c0-2.2,1.5-3.4,3.4-3.4c0.9,0,1.8,0.4,2.3,1.2L134.2,104.9z M129.9,108.2c0,1.4,1,2.2,2.1,2.2c2.8,0,2.8-4.4,0-4.4
				C130.9,106,129.9,106.8,129.9,108.2z"/>
			<path class="st5" d="M138.9,102.1v9.4h-1.4v-9.4H138.9z"/>
			<path class="st5" d="M151,108.8c0,0.7,0.2,1.2,0.9,1.2v1.4c-0.7,0-1.4-0.2-1.7-1.2c-0.6,0.9-1.6,1.3-2.8,1.3
				c-1.9,0-3.6-1-3.6-2.9c0-0.9,0.7-1.7,1.6-2c-0.8-0.3-1.3-1.2-1.3-2c0-1.9,1.7-2.7,3.5-2.7c1.6,0,3.3,0.6,3.3,2.6h-1.4
				c0-1-0.9-1.3-1.9-1.3c-1.5,0-2,0.8-1.9,1.5c0,1.1,1.2,1.4,1.9,1.4c1.4,0,2.8,0,4.3,0v1.2h-0.8L151,108.8L151,108.8z M145.4,108.7
				c0,1.1,0.9,1.5,2.2,1.5c0.7,0,2.1-0.4,2.1-1.4v-1.5c-0.7,0-1.4,0-2.2,0C146,107.3,145.4,108.1,145.4,108.7z"/>
			<path class="st5" d="M55.7,116.1c3.2,0,4.7,2.3,4.7,4.6c0.1,2.4-1.4,4.8-4.7,4.8c-1.1,0-2.4,0-3.5,0v-9.4H55.7L55.7,116.1z
				 M53.7,124h2.1c2.3,0,3.3-1.7,3.2-3.3c0-1.6-1-3.2-3.2-3.2h-2.1C53.7,117.5,53.7,124,53.7,124z"/>
			<path class="st5" d="M63.4,116.9c0,1.1-1.7,1.1-1.7,0C61.7,115.8,63.4,115.8,63.4,116.9z M61.9,118.8v6.6h1.4v-6.6H61.9z"/>
			<path class="st5" d="M70.4,118.8h1.3c0,2.2,0,4.4,0,6.6h-1.3l-0.1-1.1c-0.4,0.8-1.5,1.2-2.3,1.2c-1.9,0-3.4-1.2-3.4-3.5
				c0-2.2,1.5-3.4,3.4-3.4c0.9,0,1.8,0.4,2.3,1.2L70.4,118.8z M66.1,122.1c0,1.4,1,2.2,2.1,2.2c2.8,0,2.8-4.4,0-4.4
				C67.1,120,66.1,120.8,66.1,122.1z"/>
			<path class="st5" d="M79.3,118.2l1,0.8l-0.8,0.9c0.5,0.6,0.8,1.2,0.8,2c0,1.2-0.6,2.1-1.8,2.6c1.4,0.5,1.7,1.4,1.7,2.2
				c0,1.8-1.8,2.7-3.5,2.7c-2.2,0-3.5-1.1-3.5-2.9h1.4c0,1,1,1.6,2.1,1.6c1,0,2.1-0.4,2.1-1.4c0-0.9-0.8-1.4-2.1-1.4
				c-2.1,0-3.6-1.2-3.6-3.3c0-2.2,1.8-3.3,3.6-3.3c0.5,0,1.3,0.1,1.8,0.5L79.3,118.2z M74.6,122c0,1.3,1,2,2.2,2
				c1.2,0,2.1-0.8,2.1-2c0-1.3-1-2-2.1-2C75.7,119.9,74.6,120.6,74.6,122z"/>
			<path class="st5" d="M86.9,125.4v-3.5c0-1.1-0.6-1.9-1.8-1.9c-1.1,0-1.8,0.9-1.8,2v3.5h-1.4v-6.6h1.3l0.1,1
				c0.6-0.7,1.4-1.1,2.2-1.1c1.6,0,2.8,1.1,2.8,3.2v3.5L86.9,125.4L86.9,125.4z"/>
			<path class="st5" d="M96.4,122.1c0,1.9-1.4,3.4-3.4,3.4c-2.1,0-3.4-1.5-3.4-3.4s1.4-3.4,3.4-3.4
				C95.1,118.7,96.4,120.2,96.4,122.1z M91,122.1c0,1.2,0.8,2.1,2,2.1c1.3,0,2-1,2-2.1c0-1.2-0.8-2.2-2-2.2
				C91.8,120,91,121,91,122.1z"/>
			<path class="st5" d="M102.1,120.5c-0.5-0.5-1.1-0.6-1.7-0.6c-0.8,0-1.4,0.3-1.4,0.8c0,0.5,0.6,0.8,1.4,0.8
				c1.2,0.1,2.8,0.4,2.8,2.1c0,1.2-1.1,2.1-2.8,2.1c-1.1,0-2.1-0.2-3-1.2l0.7-1c0.6,0.7,1.5,1,2.3,1c0.7,0,1.4-0.2,1.4-0.9
				c0-0.6-0.5-0.8-1.5-0.9c-1.2-0.1-2.7-0.5-2.7-2c0-1.5,1.5-2,2.7-2c1,0,1.8,0.2,2.5,0.9L102.1,120.5z"/>
			<path class="st5" d="M106.7,116.9v1.9h1.9v1.2h-1.9v3.2c0,0.7,0.3,1.1,0.9,1.1c0.3,0,0.6-0.1,0.8-0.2l0.4,1.2
				c-0.5,0.2-0.9,0.3-1.3,0.3c-1.4,0-2.3-0.8-2.3-2.3v-3.2h-1.3v-1.2h1.3v-1.8L106.7,116.9z"/>
			<path class="st5" d="M111.6,116.9c0,1.1-1.7,1.1-1.7,0C109.9,115.8,111.6,115.8,111.6,116.9z M110,118.8v6.6h1.4v-6.6H110z"/>
			<path class="st5" d="M118.9,124.6c-0.7,0.7-1.6,1-2.5,1c-1.9,0-3.5-1.2-3.5-3.5c0-2.3,1.6-3.5,3.5-3.5c0.9,0,1.7,0.3,2.4,1
				l-0.9,0.9c-0.4-0.4-1-0.6-1.5-0.6c-1.2,0-2.1,0.8-2.1,2.2c0,1.4,1,2.1,2.1,2.1c0.6,0,1.1-0.2,1.6-0.6L118.9,124.6z"/>
		</g>
	</g>
	<text transform="matrix(1 0 0 1 47.1694 136.2803)" class="st6 st7 st8">committed errorless care</text>
</g>
</svg>
