<?xml version="1.0" encoding="utf-8"?>
<!-- Generator: Adobe Illustrator 26.0.3, SVG Export Plug-In . SVG Version: 6.00 Build 0)  -->
<svg version="1.1" id="Layer_1" xmlns="http://www.w3.org/2000/svg" xmlns:xlink="http://www.w3.org/1999/xlink" x="0px" y="0px"
	 viewBox="0 0 513 166" style="enable-background:new 0 0 513 166;" xml:space="preserve">
<style type="text/css">
	.st0{fill:#FFFFFF;}
	.st1{fill:url(#SVGID_1_);}
	.st2{fill:url(#SVGID_00000036934159483668447730000008251802584555410573_);}
	.st3{fill:url(#SVGID_00000114767986787426634800000012422696564052509110_);}
	.st4{fill:#006665;}
	.st5{fill:#006CA3;}
	.st6{fill:#457575;}
	.st7{fill:#006992;}
	.st8{fill:#009595;}
	.st9{font-family:'Nexa-BlackItalic';}
	.st10{font-size:2.833px;}
</style>
<g>
	<rect x="-0.13" y="-0.44" class="st0" width="173.61" height="166.89"/>
	
		<linearGradient id="SVGID_1_" gradientUnits="userSpaceOnUse" x1="155.5776" y1="172.8874" x2="510.3684" y2="6.7868" gradientTransform="matrix(1 0 0 -1 0 168)">
		<stop  offset="0" style="stop-color:#00FFAD"/>
		<stop  offset="0.1466" style="stop-color:#00E3B7"/>
		<stop  offset="0.4631" style="stop-color:#009DD0"/>
		<stop  offset="0.9223" style="stop-color:#002DF8"/>
		<stop  offset="0.9995" style="stop-color:#0019FF"/>
	</linearGradient>
	<rect x="173.48" y="-0.44" class="st1" width="339.65" height="166.89"/>
	<g>
		<g>
			<path class="st0" d="M217.77,87.39c-0.79,0-1.54-0.16-2.23-0.49s-1.29-0.78-1.81-1.35c-0.52-0.57-0.92-1.23-1.21-1.97
				s-0.43-1.53-0.43-2.35s0.14-1.6,0.43-2.33s0.69-1.37,1.21-1.93s1.12-1,1.82-1.33s1.45-0.48,2.27-0.48c1.16,0,2.13,0.24,2.92,0.72
				s1.38,1.12,1.78,1.91l-1.46,1.05c-0.33-0.66-0.78-1.15-1.36-1.48c-0.58-0.33-1.21-0.49-1.9-0.49c-0.58,0-1.1,0.12-1.55,0.36
				s-0.85,0.56-1.18,0.98c-0.33,0.41-0.58,0.88-0.76,1.41c-0.18,0.53-0.26,1.08-0.26,1.66c0,0.61,0.1,1.18,0.29,1.72
				c0.19,0.53,0.46,1,0.82,1.4c0.35,0.4,0.76,0.72,1.24,0.94c0.48,0.23,0.99,0.34,1.53,0.34c0.67,0,1.3-0.17,1.9-0.5
				s1.15-0.84,1.67-1.5v1.94C220.42,86.8,219.18,87.39,217.77,87.39z M221.27,82.61h-2.52v-1.43h4.13v6.12h-1.62L221.27,82.61
				L221.27,82.61z"/>
			<path class="st0" d="M228.82,87.48c-0.7,0-1.33-0.12-1.89-0.36c-0.56-0.24-1.04-0.58-1.44-1c-0.4-0.43-0.71-0.91-0.93-1.46
				c-0.22-0.54-0.32-1.12-0.32-1.73c0-0.63,0.11-1.22,0.32-1.76c0.21-0.54,0.52-1.03,0.93-1.46c0.4-0.43,0.88-0.76,1.44-1
				s1.19-0.36,1.88-0.36c0.7,0,1.33,0.12,1.88,0.36c0.55,0.24,1.03,0.58,1.44,1c0.41,0.43,0.72,0.91,0.94,1.46
				c0.21,0.54,0.32,1.13,0.32,1.76c0,0.61-0.11,1.18-0.32,1.73c-0.22,0.54-0.52,1.03-0.93,1.46s-0.88,0.76-1.45,1
				C230.13,87.36,229.51,87.48,228.82,87.48z M226.16,82.91c0,0.57,0.12,1.08,0.36,1.53s0.55,0.8,0.95,1.06
				c0.4,0.26,0.84,0.38,1.33,0.38c0.51,0,0.96-0.13,1.36-0.38s0.71-0.61,0.95-1.07c0.24-0.46,0.36-0.96,0.36-1.51
				c0-0.56-0.12-1.06-0.36-1.52c-0.24-0.45-0.56-0.81-0.96-1.06s-0.85-0.39-1.33-0.39c-0.5,0-0.95,0.13-1.34,0.4
				c-0.4,0.27-0.71,0.63-0.95,1.07C226.28,81.87,226.16,82.36,226.16,82.91z"/>
			<path class="st0" d="M240.1,87.48c-0.71,0-1.34-0.17-1.89-0.51c-0.54-0.34-0.97-0.77-1.29-1.3v5.25h-1.87V78.48h1.65v1.6
				c0.34-0.53,0.78-0.95,1.33-1.26s1.15-0.47,1.82-0.47c0.61,0,1.17,0.12,1.68,0.36c0.51,0.24,0.95,0.58,1.33,1s0.67,0.91,0.88,1.46
				c0.21,0.54,0.31,1.12,0.31,1.73c0,0.84-0.17,1.61-0.5,2.32c-0.33,0.7-0.8,1.25-1.39,1.66C241.56,87.27,240.88,87.48,240.1,87.48z
				 M239.49,85.88c0.41,0,0.77-0.08,1.1-0.25c0.32-0.17,0.6-0.39,0.83-0.67c0.23-0.28,0.4-0.6,0.53-0.95s0.19-0.72,0.19-1.11
				c0-0.41-0.07-0.8-0.2-1.15c-0.14-0.35-0.33-0.66-0.59-0.93c-0.25-0.27-0.55-0.48-0.88-0.64c-0.33-0.16-0.69-0.24-1.08-0.24
				c-0.25,0-0.5,0.04-0.76,0.13s-0.5,0.21-0.74,0.37s-0.44,0.34-0.61,0.54s-0.28,0.44-0.34,0.69v2.29c0.16,0.36,0.37,0.68,0.63,0.96
				s0.56,0.51,0.9,0.68C238.8,85.79,239.14,85.88,239.49,85.88z"/>
			<path class="st0" d="M244.66,84.73c0-0.56,0.16-1.05,0.49-1.47c0.32-0.42,0.77-0.75,1.34-0.98s1.23-0.34,1.96-0.34
				c0.4,0,0.8,0.03,1.21,0.09s0.78,0.15,1.11,0.26v-0.56c0-0.61-0.19-1.09-0.56-1.44s-0.91-0.52-1.61-0.52
				c-0.5,0-0.97,0.08-1.41,0.25s-0.91,0.42-1.41,0.76l-0.61-1.27c0.57-0.39,1.15-0.68,1.75-0.88s1.23-0.3,1.89-0.3
				c1.19,0,2.12,0.31,2.8,0.93s1.02,1.5,1.02,2.65v3.28c0,0.21,0.04,0.36,0.12,0.45s0.21,0.14,0.39,0.15v1.5
				c-0.17,0.03-0.32,0.06-0.45,0.07s-0.24,0.02-0.33,0.03c-0.41-0.01-0.71-0.11-0.92-0.31s-0.32-0.42-0.36-0.68l-0.05-0.51
				c-0.37,0.5-0.86,0.88-1.47,1.16c-0.61,0.27-1.21,0.41-1.83,0.41c-0.59,0-1.12-0.12-1.58-0.36s-0.83-0.57-1.09-0.99
				S244.66,85.25,244.66,84.73z M250.32,85.28c0.12-0.16,0.23-0.31,0.31-0.45c0.08-0.15,0.13-0.28,0.13-0.4v-0.99
				c-0.32-0.12-0.65-0.21-1-0.28c-0.35-0.06-0.69-0.09-1.02-0.09c-0.69,0-1.25,0.13-1.67,0.4c-0.43,0.27-0.64,0.64-0.64,1.1
				c0,0.26,0.07,0.5,0.21,0.73s0.35,0.42,0.61,0.57s0.59,0.23,0.98,0.23c0.42,0,0.82-0.08,1.19-0.24
				C249.8,85.7,250.09,85.5,250.32,85.28z"/>
			<path class="st0" d="M254.91,74.9h1.87v9.89c0,0.44,0.07,0.73,0.2,0.86s0.31,0.2,0.51,0.2c0.22,0,0.43-0.03,0.64-0.08
				s0.38-0.11,0.52-0.15l0.27,1.46c-0.27,0.11-0.6,0.21-0.97,0.29s-0.71,0.12-1,0.12c-0.65,0-1.15-0.18-1.5-0.54
				c-0.36-0.36-0.54-0.86-0.54-1.49V74.9z"/>
			<path class="st0" d="M263.53,87.48c-0.6,0-1.15-0.12-1.65-0.37c-0.5-0.24-0.93-0.58-1.28-1c-0.36-0.42-0.63-0.9-0.83-1.44
				c-0.19-0.54-0.29-1.12-0.29-1.72c0-0.63,0.1-1.23,0.3-1.79c0.2-0.55,0.48-1.04,0.85-1.47s0.8-0.76,1.3-1s1.05-0.36,1.67-0.36
				c0.71,0,1.34,0.16,1.88,0.49s0.98,0.76,1.33,1.31v-1.67h1.65v8.59c0,0.86-0.21,1.58-0.62,2.18s-0.98,1.05-1.69,1.37
				s-1.51,0.47-2.4,0.47c-0.99,0-1.81-0.17-2.46-0.51s-1.2-0.8-1.66-1.39l1.04-0.99c0.36,0.48,0.81,0.84,1.34,1.09
				s1.11,0.37,1.73,0.37c0.51,0,0.98-0.09,1.41-0.27s0.78-0.46,1.04-0.83c0.26-0.38,0.39-0.85,0.39-1.43v-1.34
				c-0.32,0.52-0.75,0.93-1.31,1.23C264.73,87.33,264.14,87.48,263.53,87.48z M264.14,85.96c0.28,0,0.56-0.05,0.82-0.15
				c0.26-0.1,0.5-0.23,0.72-0.39c0.22-0.16,0.41-0.34,0.57-0.56c0.16-0.21,0.27-0.44,0.34-0.66v-2.33c-0.15-0.38-0.35-0.72-0.62-1
				s-0.57-0.51-0.91-0.67c-0.34-0.17-0.69-0.25-1.05-0.25c-0.41,0-0.77,0.09-1.1,0.26s-0.6,0.41-0.82,0.7
				c-0.23,0.29-0.4,0.61-0.53,0.98c-0.12,0.36-0.19,0.74-0.19,1.12c0,0.4,0.07,0.77,0.21,1.13c0.14,0.36,0.34,0.67,0.59,0.95
				s0.54,0.49,0.88,0.65C263.38,85.89,263.75,85.96,264.14,85.96z"/>
			<path class="st0" d="M274.7,87.48c-0.7,0-1.33-0.12-1.89-0.36c-0.56-0.24-1.04-0.58-1.44-1c-0.4-0.43-0.71-0.91-0.93-1.46
				c-0.22-0.54-0.32-1.12-0.32-1.73c0-0.63,0.11-1.22,0.32-1.76c0.21-0.54,0.52-1.03,0.93-1.46c0.4-0.43,0.88-0.76,1.44-1
				s1.19-0.36,1.88-0.36c0.7,0,1.33,0.12,1.88,0.36c0.55,0.24,1.03,0.58,1.44,1c0.41,0.43,0.72,0.91,0.94,1.46
				c0.21,0.54,0.32,1.13,0.32,1.76c0,0.61-0.11,1.18-0.32,1.73c-0.22,0.54-0.52,1.03-0.93,1.46s-0.88,0.76-1.45,1
				C276.02,87.36,275.39,87.48,274.7,87.48z M272.05,82.91c0,0.57,0.12,1.08,0.36,1.53s0.55,0.8,0.95,1.06
				c0.4,0.26,0.84,0.38,1.33,0.38c0.51,0,0.96-0.13,1.36-0.38s0.71-0.61,0.95-1.07c0.24-0.46,0.36-0.96,0.36-1.51
				c0-0.56-0.12-1.06-0.36-1.52c-0.24-0.45-0.56-0.81-0.96-1.06s-0.85-0.39-1.33-0.39c-0.5,0-0.95,0.13-1.34,0.4
				c-0.4,0.27-0.71,0.63-0.95,1.07C272.17,81.87,272.05,82.36,272.05,82.91z"/>
			<path class="st0" d="M288.91,87.31h-1.85v-4.92c0-0.83-0.14-1.43-0.41-1.81s-0.67-0.56-1.19-0.56c-0.36,0-0.72,0.09-1.08,0.28
				s-0.67,0.43-0.95,0.73s-0.48,0.65-0.62,1.05v5.24h-1.87V78.5h1.7v1.77c0.23-0.39,0.52-0.73,0.88-1.01
				c0.36-0.28,0.78-0.5,1.24-0.66s0.96-0.24,1.48-0.24c0.53,0,0.97,0.1,1.33,0.29c0.35,0.19,0.62,0.45,0.82,0.78
				c0.19,0.33,0.33,0.71,0.41,1.14c0.08,0.43,0.12,0.89,0.12,1.37v5.37H288.91z"/>
			<path class="st0" d="M290.15,90.55c-0.4,0-0.78-0.06-1.16-0.18s-0.7-0.31-0.99-0.59l0.83-1.26c0.14,0.14,0.3,0.24,0.5,0.3
				s0.39,0.09,0.59,0.09c0.23,0,0.44-0.06,0.63-0.17s0.35-0.27,0.46-0.46s0.17-0.41,0.17-0.66v-9.15h1.87v9.03
				c0,0.59-0.14,1.11-0.41,1.57s-0.62,0.82-1.05,1.08C291.17,90.42,290.68,90.55,290.15,90.55z M291.19,77.02v-2.06h1.87v2.06
				H291.19z"/>
			<path class="st0" d="M309.89,87.31v-8.6l-3.55,6.53h-1.12l-3.55-6.53v8.6h-1.92V75.24h2.04l3.99,7.36l4-7.36h2.04v12.07H309.89z"
				/>
			<path class="st0" d="M318.32,87.48c-0.7,0-1.33-0.12-1.89-0.36c-0.55-0.24-1.04-0.57-1.44-1c-0.41-0.42-0.72-0.91-0.94-1.45
				c-0.22-0.55-0.33-1.12-0.33-1.73c0-0.84,0.19-1.61,0.58-2.3c0.38-0.69,0.93-1.25,1.62-1.66c0.7-0.42,1.5-0.62,2.41-0.62
				c0.94,0,1.75,0.21,2.42,0.63s1.2,0.97,1.57,1.66c0.37,0.68,0.56,1.42,0.56,2.21c0,0.13-0.01,0.26-0.02,0.38
				c-0.01,0.12-0.02,0.21-0.03,0.28h-7.14c0.06,0.53,0.21,0.98,0.46,1.37s0.57,0.69,0.97,0.91s0.82,0.33,1.26,0.33
				c0.51,0,0.99-0.12,1.44-0.37s0.75-0.58,0.91-0.99l1.6,0.46c-0.19,0.43-0.49,0.82-0.88,1.17s-0.86,0.62-1.38,0.82
				C319.52,87.38,318.94,87.48,318.32,87.48z M315.65,82.27h5.37c-0.04-0.51-0.19-0.96-0.43-1.33c-0.24-0.38-0.56-0.67-0.96-0.89
				s-0.83-0.33-1.29-0.33c-0.48,0-0.91,0.11-1.3,0.33c-0.39,0.22-0.71,0.51-0.96,0.89S315.68,81.76,315.65,82.27z"/>
			<path class="st0" d="M323.84,82.91c0-0.84,0.17-1.61,0.52-2.3c0.35-0.69,0.82-1.24,1.42-1.65c0.6-0.41,1.29-0.61,2.07-0.61
				c0.69,0,1.31,0.18,1.86,0.53c0.55,0.35,0.97,0.78,1.27,1.29V74.9h1.87v10.3c0,0.2,0.04,0.35,0.12,0.45
				c0.08,0.1,0.21,0.15,0.39,0.16v1.5c-0.34,0.06-0.61,0.09-0.82,0.1c-0.35,0-0.65-0.1-0.88-0.31c-0.24-0.21-0.37-0.46-0.39-0.74
				l-0.02-0.65c-0.35,0.56-0.81,0.99-1.38,1.3s-1.17,0.47-1.79,0.47c-0.61,0-1.18-0.12-1.69-0.36s-0.96-0.57-1.34-0.99
				s-0.67-0.9-0.88-1.45C323.95,84.13,323.84,83.54,323.84,82.91z M330.99,84.14v-2.3c-0.12-0.36-0.33-0.68-0.6-0.96
				c-0.28-0.28-0.59-0.51-0.94-0.68s-0.69-0.26-1.04-0.26c-0.39,0-0.74,0.08-1.06,0.25s-0.6,0.39-0.83,0.66
				c-0.23,0.27-0.41,0.59-0.54,0.96c-0.12,0.36-0.19,0.74-0.19,1.13s0.07,0.77,0.2,1.12s0.33,0.67,0.59,0.95
				c0.26,0.27,0.55,0.49,0.88,0.64c0.33,0.15,0.7,0.23,1.1,0.23c0.25,0,0.5-0.04,0.76-0.12s0.5-0.2,0.72-0.36s0.42-0.34,0.59-0.56
				S330.92,84.38,330.99,84.14z"/>
			<path class="st0" d="M335.24,76.95v-2.06h1.87v2.06H335.24z M335.24,87.31v-8.89h1.87v8.89H335.24z"/>
			<path class="st0" d="M343.38,87.48c-0.69,0-1.32-0.12-1.88-0.36s-1.05-0.58-1.45-1.01c-0.41-0.43-0.72-0.92-0.94-1.47
				s-0.33-1.13-0.33-1.73c0-0.83,0.19-1.59,0.56-2.28s0.91-1.24,1.61-1.65c0.7-0.41,1.51-0.61,2.44-0.61c0.91,0,1.7,0.2,2.37,0.6
				c0.67,0.4,1.18,0.94,1.5,1.61l-1.84,0.56c-0.2-0.36-0.49-0.65-0.85-0.86c-0.36-0.21-0.77-0.31-1.22-0.31
				c-0.5,0-0.95,0.13-1.35,0.38s-0.72,0.6-0.95,1.04s-0.35,0.95-0.35,1.53c0,0.57,0.12,1.08,0.36,1.52c0.24,0.45,0.56,0.8,0.97,1.06
				s0.86,0.39,1.34,0.39c0.31,0,0.6-0.05,0.88-0.16s0.54-0.26,0.76-0.45s0.38-0.4,0.47-0.61l1.82,0.56
				c-0.19,0.43-0.48,0.82-0.85,1.16s-0.82,0.61-1.34,0.81C344.57,87.38,344,87.48,343.38,87.48z"/>
			<path class="st0" d="M348.21,84.73c0-0.56,0.16-1.05,0.49-1.47c0.32-0.42,0.77-0.75,1.34-0.98s1.23-0.34,1.96-0.34
				c0.4,0,0.8,0.03,1.21,0.09s0.78,0.15,1.11,0.26v-0.56c0-0.61-0.19-1.09-0.56-1.44s-0.91-0.52-1.61-0.52
				c-0.5,0-0.97,0.08-1.41,0.25s-0.91,0.42-1.41,0.76l-0.61-1.27c0.57-0.39,1.15-0.68,1.75-0.88s1.23-0.3,1.89-0.3
				c1.19,0,2.12,0.31,2.8,0.93s1.02,1.5,1.02,2.65v3.28c0,0.21,0.04,0.36,0.12,0.45s0.21,0.14,0.39,0.15v1.5
				c-0.17,0.03-0.32,0.06-0.45,0.07s-0.24,0.02-0.33,0.03c-0.41-0.01-0.71-0.11-0.92-0.31s-0.32-0.42-0.36-0.68l-0.05-0.51
				c-0.37,0.5-0.86,0.88-1.47,1.16c-0.61,0.27-1.21,0.41-1.83,0.41c-0.59,0-1.12-0.12-1.58-0.36s-0.83-0.57-1.09-0.99
				S348.21,85.25,348.21,84.73z M353.87,85.28c0.12-0.16,0.23-0.31,0.31-0.45c0.08-0.15,0.13-0.28,0.13-0.4v-0.99
				c-0.32-0.12-0.65-0.21-1-0.28c-0.35-0.06-0.69-0.09-1.02-0.09c-0.69,0-1.25,0.13-1.67,0.4c-0.43,0.27-0.64,0.64-0.64,1.1
				c0,0.26,0.07,0.5,0.21,0.73s0.35,0.42,0.61,0.57s0.59,0.23,0.98,0.23c0.42,0,0.82-0.08,1.19-0.24
				C353.34,85.7,353.64,85.5,353.87,85.28z"/>
			<path class="st0" d="M358.46,74.9h1.87v9.89c0,0.44,0.07,0.73,0.2,0.86s0.31,0.2,0.51,0.2c0.22,0,0.43-0.03,0.64-0.08
				s0.38-0.11,0.52-0.15l0.27,1.46c-0.27,0.11-0.6,0.21-0.97,0.29s-0.71,0.12-1,0.12c-0.65,0-1.15-0.18-1.5-0.54
				c-0.36-0.36-0.54-0.86-0.54-1.49V74.9z"/>
			<path class="st0" d="M375.95,87.31l-5.78-6.14c-0.5-0.5-0.89-0.94-1.18-1.3s-0.49-0.7-0.61-1s-0.18-0.62-0.18-0.94
				c0-0.55,0.14-1.03,0.42-1.44s0.66-0.74,1.15-0.97s1.04-0.35,1.65-0.35c0.54,0,1.04,0.1,1.5,0.29s0.83,0.48,1.12,0.86
				s0.43,0.83,0.43,1.37c0,0.53-0.14,0.99-0.41,1.4c-0.27,0.41-0.63,0.79-1.09,1.14s-0.96,0.7-1.51,1.05
				c-0.43,0.27-0.82,0.54-1.17,0.82s-0.63,0.57-0.83,0.88c-0.2,0.31-0.3,0.64-0.3,1.01c0,0.38,0.11,0.72,0.32,1.01
				c0.21,0.29,0.5,0.52,0.87,0.69c0.36,0.16,0.76,0.24,1.19,0.24c0.53,0,1.04-0.13,1.51-0.38c0.48-0.26,0.9-0.61,1.28-1.06
				s0.66-0.99,0.87-1.62s0.31-1.3,0.31-2.04h1.55c0,1-0.16,1.9-0.47,2.7s-0.73,1.5-1.26,2.07c-0.53,0.58-1.13,1.02-1.82,1.33
				s-1.41,0.47-2.17,0.47c-0.78,0-1.47-0.16-2.07-0.47s-1.07-0.73-1.4-1.24s-0.5-1.09-0.5-1.71s0.14-1.16,0.43-1.63
				c0.29-0.47,0.66-0.89,1.12-1.25s0.93-0.7,1.4-1c0.49-0.3,0.92-0.57,1.28-0.81c0.37-0.24,0.65-0.48,0.85-0.74
				c0.2-0.25,0.3-0.53,0.3-0.83c0-0.33-0.13-0.61-0.38-0.83s-0.58-0.33-0.98-0.33c-0.29,0-0.55,0.06-0.77,0.18s-0.39,0.28-0.52,0.48
				c-0.12,0.2-0.19,0.42-0.19,0.66c0,0.18,0.04,0.35,0.14,0.53c0.09,0.17,0.26,0.39,0.51,0.66c0.25,0.27,0.6,0.64,1.05,1.12
				l6.8,7.13h-2.46V87.31z"/>
			<path class="st0" d="M382.99,87.31V75.24h4.28c1.3,0,2.39,0.27,3.26,0.81s1.52,1.26,1.96,2.18c0.44,0.91,0.66,1.92,0.66,3.04
				c0,1.22-0.24,2.29-0.72,3.2c-0.48,0.91-1.17,1.61-2.05,2.11s-1.92,0.75-3.11,0.75h-4.28V87.31z M391.21,81.26
				c0-0.85-0.16-1.6-0.47-2.24c-0.31-0.65-0.76-1.16-1.34-1.53s-1.29-0.56-2.13-0.56h-2.36v8.7h2.36c0.85,0,1.57-0.19,2.15-0.58
				c0.58-0.38,1.03-0.91,1.33-1.56S391.21,82.08,391.21,81.26z"/>
			<path class="st0" d="M394.92,76.95v-2.06h1.87v2.06H394.92z M394.92,87.31v-8.89h1.87v8.89H394.92z"/>
			<path class="st0" d="M398.39,84.73c0-0.56,0.16-1.05,0.49-1.47c0.32-0.42,0.77-0.75,1.34-0.98s1.23-0.34,1.96-0.34
				c0.4,0,0.8,0.03,1.21,0.09s0.78,0.15,1.11,0.26v-0.56c0-0.61-0.19-1.09-0.56-1.44s-0.91-0.52-1.61-0.52
				c-0.5,0-0.97,0.08-1.41,0.25s-0.91,0.42-1.41,0.76l-0.61-1.27c0.57-0.39,1.15-0.68,1.75-0.88s1.23-0.3,1.89-0.3
				c1.19,0,2.12,0.31,2.8,0.93s1.02,1.5,1.02,2.65v3.28c0,0.21,0.04,0.36,0.12,0.45s0.21,0.14,0.39,0.15v1.5
				c-0.17,0.03-0.32,0.06-0.45,0.07s-0.24,0.02-0.33,0.03c-0.41-0.01-0.71-0.11-0.92-0.31s-0.32-0.42-0.36-0.68l-0.05-0.51
				c-0.37,0.5-0.86,0.88-1.47,1.16c-0.61,0.27-1.21,0.41-1.83,0.41c-0.59,0-1.12-0.12-1.58-0.36s-0.83-0.57-1.09-0.99
				S398.39,85.25,398.39,84.73z M404.05,85.28c0.12-0.16,0.23-0.31,0.31-0.45c0.08-0.15,0.13-0.28,0.13-0.4v-0.99
				c-0.32-0.12-0.65-0.21-1-0.28c-0.35-0.06-0.69-0.09-1.02-0.09c-0.69,0-1.25,0.13-1.67,0.4c-0.43,0.27-0.64,0.64-0.64,1.1
				c0,0.26,0.07,0.5,0.21,0.73s0.35,0.42,0.61,0.57s0.59,0.23,0.98,0.23c0.42,0,0.82-0.08,1.19-0.24
				C403.52,85.7,403.82,85.5,404.05,85.28z"/>
			<path class="st0" d="M412.14,87.48c-0.6,0-1.15-0.12-1.65-0.37c-0.5-0.24-0.93-0.58-1.28-1c-0.36-0.42-0.63-0.9-0.83-1.44
				c-0.19-0.54-0.29-1.12-0.29-1.72c0-0.63,0.1-1.23,0.3-1.79c0.2-0.55,0.48-1.04,0.85-1.47s0.8-0.76,1.3-1s1.05-0.36,1.67-0.36
				c0.71,0,1.34,0.16,1.88,0.49s0.98,0.76,1.33,1.31v-1.67h1.65v8.59c0,0.86-0.21,1.58-0.62,2.18s-0.98,1.05-1.69,1.37
				s-1.51,0.47-2.4,0.47c-0.99,0-1.81-0.17-2.46-0.51s-1.2-0.8-1.66-1.39l1.04-0.99c0.36,0.48,0.81,0.84,1.34,1.09
				s1.11,0.37,1.73,0.37c0.51,0,0.98-0.09,1.41-0.27s0.78-0.46,1.04-0.83c0.26-0.38,0.39-0.85,0.39-1.43v-1.34
				c-0.32,0.52-0.75,0.93-1.31,1.23C413.34,87.33,412.75,87.48,412.14,87.48z M412.75,85.96c0.28,0,0.56-0.05,0.82-0.15
				c0.26-0.1,0.5-0.23,0.72-0.39c0.22-0.16,0.41-0.34,0.57-0.56c0.16-0.21,0.27-0.44,0.34-0.66v-2.33c-0.15-0.38-0.35-0.72-0.62-1
				s-0.57-0.51-0.91-0.67c-0.34-0.17-0.69-0.25-1.05-0.25c-0.41,0-0.77,0.09-1.1,0.26s-0.6,0.41-0.82,0.7
				c-0.23,0.29-0.4,0.61-0.53,0.98c-0.12,0.36-0.19,0.74-0.19,1.12c0,0.4,0.07,0.77,0.21,1.13c0.14,0.36,0.34,0.67,0.59,0.95
				s0.54,0.49,0.88,0.65C411.99,85.89,412.36,85.96,412.75,85.96z"/>
			<path class="st0" d="M427.29,87.31h-1.85v-4.92c0-0.83-0.14-1.43-0.41-1.81s-0.67-0.56-1.19-0.56c-0.36,0-0.72,0.09-1.08,0.28
				s-0.67,0.43-0.95,0.73s-0.48,0.65-0.62,1.05v5.24h-1.87V78.5h1.7v1.77c0.23-0.39,0.52-0.73,0.88-1.01
				c0.36-0.28,0.78-0.5,1.24-0.66s0.96-0.24,1.48-0.24c0.53,0,0.97,0.1,1.33,0.29c0.35,0.19,0.62,0.45,0.82,0.78
				c0.19,0.33,0.33,0.71,0.41,1.14c0.08,0.43,0.12,0.89,0.12,1.37v5.37H427.29z"/>
			<path class="st0" d="M433.46,87.48c-0.7,0-1.33-0.12-1.89-0.36c-0.56-0.24-1.04-0.58-1.44-1c-0.4-0.43-0.71-0.91-0.93-1.46
				c-0.22-0.54-0.32-1.12-0.32-1.73c0-0.63,0.11-1.22,0.32-1.76c0.21-0.54,0.52-1.03,0.93-1.46c0.4-0.43,0.88-0.76,1.44-1
				s1.19-0.36,1.88-0.36c0.7,0,1.33,0.12,1.88,0.36c0.55,0.24,1.03,0.58,1.44,1c0.41,0.43,0.72,0.91,0.94,1.46
				c0.21,0.54,0.32,1.13,0.32,1.76c0,0.61-0.11,1.18-0.32,1.73c-0.22,0.54-0.52,1.03-0.93,1.46s-0.88,0.76-1.45,1
				C434.78,87.36,434.15,87.48,433.46,87.48z M430.81,82.91c0,0.57,0.12,1.08,0.36,1.53s0.55,0.8,0.95,1.06
				c0.4,0.26,0.84,0.38,1.33,0.38c0.51,0,0.96-0.13,1.36-0.38s0.71-0.61,0.95-1.07c0.24-0.46,0.36-0.96,0.36-1.51
				c0-0.56-0.12-1.06-0.36-1.52c-0.24-0.45-0.56-0.81-0.96-1.06s-0.85-0.39-1.33-0.39c-0.5,0-0.95,0.13-1.34,0.4
				c-0.4,0.27-0.71,0.63-0.95,1.07C430.93,81.87,430.81,82.36,430.81,82.91z"/>
			<path class="st0" d="M442.86,87.48c-0.75,0-1.46-0.12-2.12-0.37c-0.67-0.25-1.24-0.62-1.72-1.11l0.68-1.24
				c0.52,0.44,1.04,0.77,1.56,0.98c0.52,0.21,1.03,0.31,1.54,0.31c0.53,0,0.96-0.1,1.28-0.29s0.49-0.48,0.49-0.86
				c0-0.28-0.09-0.49-0.26-0.62s-0.42-0.25-0.75-0.35c-0.32-0.1-0.71-0.21-1.15-0.34c-0.62-0.19-1.15-0.39-1.59-0.6
				c-0.44-0.21-0.76-0.46-0.98-0.77c-0.21-0.3-0.32-0.69-0.32-1.16c0-0.56,0.15-1.04,0.44-1.45s0.71-0.72,1.23-0.93
				s1.14-0.33,1.83-0.33c0.65,0,1.24,0.1,1.79,0.3c0.55,0.2,1.03,0.51,1.45,0.93l-0.8,1.22c-0.38-0.35-0.79-0.61-1.21-0.78
				s-0.87-0.25-1.34-0.25c-0.26,0-0.52,0.03-0.77,0.09s-0.47,0.17-0.64,0.34c-0.17,0.16-0.25,0.39-0.25,0.68
				c0,0.25,0.07,0.44,0.21,0.58c0.14,0.14,0.35,0.26,0.62,0.36s0.61,0.21,1,0.34c0.69,0.19,1.28,0.39,1.77,0.59s0.86,0.46,1.13,0.77
				s0.4,0.73,0.4,1.27c0,0.84-0.32,1.5-0.96,1.98C444.78,87.24,443.93,87.48,442.86,87.48z"/>
			<path class="st0" d="M452.99,86.88c-0.15,0.07-0.35,0.15-0.6,0.25s-0.52,0.18-0.82,0.25c-0.29,0.07-0.6,0.1-0.92,0.1
				c-0.39,0-0.74-0.07-1.07-0.21s-0.59-0.36-0.79-0.65c-0.2-0.29-0.3-0.67-0.3-1.13v-5.55h-1.19v-1.45h1.19v-2.92h1.87v2.92h1.94
				v1.45h-1.94v4.93c0.02,0.3,0.12,0.53,0.3,0.68s0.39,0.22,0.66,0.22s0.51-0.05,0.76-0.14c0.24-0.1,0.41-0.17,0.5-0.21
				L452.99,86.88z"/>
			<path class="st0" d="M454.28,76.95v-2.06h1.87v2.06H454.28z M454.28,87.31v-8.89h1.87v8.89H454.28z"/>
			<path class="st0" d="M462.43,87.48c-0.69,0-1.32-0.12-1.88-0.36s-1.05-0.58-1.45-1.01c-0.41-0.43-0.72-0.92-0.94-1.47
				c-0.22-0.55-0.33-1.13-0.33-1.73c0-0.83,0.19-1.59,0.56-2.28s0.91-1.24,1.61-1.65c0.7-0.41,1.51-0.61,2.44-0.61
				c0.91,0,1.7,0.2,2.37,0.6c0.67,0.4,1.18,0.94,1.5,1.61l-1.84,0.56c-0.2-0.36-0.49-0.65-0.85-0.86c-0.36-0.21-0.77-0.31-1.22-0.31
				c-0.5,0-0.95,0.13-1.35,0.38c-0.4,0.25-0.72,0.6-0.95,1.04s-0.35,0.95-0.35,1.53c0,0.57,0.12,1.08,0.36,1.52
				c0.24,0.45,0.56,0.8,0.97,1.06s0.86,0.39,1.34,0.39c0.31,0,0.6-0.05,0.88-0.16s0.54-0.26,0.76-0.45s0.38-0.4,0.47-0.61l1.82,0.56
				c-0.19,0.43-0.48,0.82-0.85,1.16s-0.82,0.61-1.34,0.81C463.62,87.38,463.05,87.48,462.43,87.48z"/>
			<path class="st0" d="M471.06,87.48c-0.75,0-1.46-0.12-2.12-0.37c-0.67-0.25-1.24-0.62-1.72-1.11l0.68-1.24
				c0.52,0.44,1.04,0.77,1.56,0.98c0.52,0.21,1.03,0.31,1.54,0.31c0.53,0,0.96-0.1,1.28-0.29s0.49-0.48,0.49-0.86
				c0-0.28-0.09-0.49-0.26-0.62s-0.42-0.25-0.75-0.35c-0.32-0.1-0.71-0.21-1.15-0.34c-0.62-0.19-1.15-0.39-1.59-0.6
				c-0.44-0.21-0.76-0.46-0.98-0.77c-0.21-0.3-0.32-0.69-0.32-1.16c0-0.56,0.15-1.04,0.44-1.45s0.71-0.72,1.23-0.93
				s1.14-0.33,1.83-0.33c0.65,0,1.24,0.1,1.79,0.3s1.03,0.51,1.45,0.93l-0.8,1.22c-0.38-0.35-0.79-0.61-1.21-0.78
				s-0.87-0.25-1.34-0.25c-0.26,0-0.52,0.03-0.77,0.09s-0.47,0.17-0.64,0.34c-0.17,0.16-0.25,0.39-0.25,0.68
				c0,0.25,0.07,0.44,0.21,0.58s0.35,0.26,0.62,0.36s0.61,0.21,1,0.34c0.69,0.19,1.28,0.39,1.77,0.59s0.86,0.46,1.13,0.77
				s0.4,0.73,0.4,1.27c0,0.84-0.32,1.5-0.96,1.98C472.98,87.24,472.13,87.48,471.06,87.48z"/>
		</g>
	</g>
	<g>
		<g>
			<g>
				
					<linearGradient id="SVGID_00000109022613104734669420000001396779216376680871_" gradientUnits="userSpaceOnUse" x1="81.4995" y1="130.2196" x2="94.3449" y2="66.9218" gradientTransform="matrix(1 0 0 -1 0 168)">
					<stop  offset="0.1333" style="stop-color:#FFF100"/>
					<stop  offset="0.345" style="stop-color:#AF8B39"/>
					<stop  offset="0.5697" style="stop-color:#FDDF06"/>
					<stop  offset="0.6287" style="stop-color:#FFF100"/>
					<stop  offset="1" style="stop-color:#7D4E24"/>
				</linearGradient>
				<path style="fill:url(#SVGID_00000109022613104734669420000001396779216376680871_);" d="M88.25,83.54
					c-0.08-0.16-0.42-6.82,0-7.44c0.5-0.77,0.02-23.95,0-24.69c0.68-0.41,1.12-1.19,1.04-2.05c-0.09-1.02-0.9-1.87-1.93-1.98
					c-1.32-0.15-2.43,0.88-2.43,2.17c0,0.82,0.46,1.54,1.13,1.91l0.42,37.75l1.68-1.12c0,0-0.08-1.01,0-1.26s0.76-0.92,0.67-1.26
					C88.75,85.23,88.5,83.78,88.25,83.54z"/>
				
					<linearGradient id="SVGID_00000178181116048822939060000007676013531479790726_" gradientUnits="userSpaceOnUse" x1="80.3913" y1="129.9947" x2="93.2365" y2="66.6969" gradientTransform="matrix(1 0 0 -1 0 168)">
					<stop  offset="0.1333" style="stop-color:#FFF100"/>
					<stop  offset="0.345" style="stop-color:#AF8B39"/>
					<stop  offset="0.5697" style="stop-color:#FDDF06"/>
					<stop  offset="0.6287" style="stop-color:#FFF100"/>
					<stop  offset="1" style="stop-color:#7D4E24"/>
				</linearGradient>
				<path style="fill:url(#SVGID_00000178181116048822939060000007676013531479790726_);" d="M91.33,67.37
					c-0.19,0.22-0.39,0.43-0.61,0.62c-0.65,0.57-1.44,1.01-2.25,1.36c-0.48,0.21-0.96,0.39-1.43,0.56
					c-0.25,0.09-0.52,0.21-0.77,0.36c-0.61,0.37-1.07,0.93-0.63,1.71c0.01,0.02,0.07,0.1,0.14,0.18c-1.35-0.45-2.15-1.23-2.62-1.91
					c0.05-0.1,0.11-0.21,0.17-0.31c0.35-0.57,0.83-1.08,1.38-1.51c0.47-0.38,0.99-0.7,1.52-0.96c0.32-0.16,0.65-0.3,0.98-0.41
					c0.36-0.13,0.82-0.28,1.24-0.49c0.64-0.32,1.2-0.78,1.21-1.5c0.01-0.37-0.22-0.67-0.45-0.94c-0.24-0.27-0.5-0.5-0.79-0.71
					c-0.67-0.5-1.44-0.84-2.25-1.12c-0.01,0-0.02-0.01-0.03-0.01c-2.64-0.89-5.73-1.06-7.28-3.4c-0.19-0.28-0.35-0.6-0.49-0.95
					c-0.41-1.03-0.46-2.27,0.05-3.28c0.56-1.09,1.71-1.59,2.85-1.88c0.79-0.2,2.25-0.64,3.01-0.22c0,0,1.12,0.62,1.79,0.99
					c0.28,0.16,0.48,0.27,0.48,0.27c-0.14,0.17-0.3,0.32-0.47,0.43c-1.04,0.71-2.65,0.58-3.79,0.55c-0.86-0.02-1.74,0.18-1.73,1.21
					c0,0.53,0.24,1.1,0.59,1.57c0.2,0.27,0.43,0.51,0.68,0.68c1.12,0.81,2.53,1,3.83,1.39c0.17,0.05,0.33,0.1,0.5,0.15
					c0.77,0.25,1.53,0.55,2.25,0.92c0.05,0.02,0.09,0.05,0.14,0.07c0.64,0.35,1.25,0.77,1.78,1.29
					C91.78,63.49,92.78,65.61,91.33,67.37z"/>
			</g>
			<g>
				<path class="st4" d="M80.2,72.76c-0.13,5.16,4.3,3.9,4.3,3.77c0.56-0.12,1.21-0.54,1.84-1.07c0.81-0.67,1.58-1.52,2.11-2.14
					c0.42-0.49,0.68-0.83,0.68-0.83c-0.23,0.02-0.45,0.03-0.66,0.03c-0.83,0.02-1.54-0.06-2.16-0.21c-0.18-0.04-0.35-0.09-0.51-0.15
					c-1.35-0.45-2.15-1.23-2.62-1.91c-0.47-0.69-0.6-1.27-0.6-1.27c-0.04-0.21,0.83-0.39,2.15-0.55c0.46-0.06,0.98-0.11,1.53-0.16
					c0.7-0.06,1.45-0.12,2.22-0.16c0.75-0.05,1.51-0.09,2.25-0.12c2.56-0.11,4.85-0.14,5.32-0.05c7.53,1.52,0.77,8.63-2.75,10.46
					c-1.62,0.84-3.41,1.42-5.22,1.78c-0.56,0.11-1.12,0.2-1.68,0.27c-0.78,0.1-1.56,0.15-2.32,0.17c-4.08,0.1-8.59-0.85-11.35-4.1
					c-2.92-3.44-1.76-8.43,0.49-11.89c1.45-2.23,3.41-4.23,5.67-5.73c0.73-0.49,1.5-0.92,2.28-1.3c0.79-0.38,1.6-0.69,2.43-0.94
					c0.83-0.25,1.68-0.43,2.53-0.54c0.73-0.1,1.47-0.15,2.22-0.16c3.22-0.05,6.48,0.71,9.41,1.99c0.22,0.09,0.44,0.19,0.65,0.29
					c0.46,0.21,0.9,0.62,1.29,1.14c1.65,2.22,2.42,6.56-0.29,7.53c-1.03,0.37-2.46-0.1-3.47-0.37c-1.6-0.42-3.11-1.32-3.73-2.93
					c-0.46-1.18-0.11-3.33-1.95-3.32c-0.49,0-1.09,0.23-1.69,0.53c-0.05,0.02-0.09,0.05-0.14,0.07c-0.67,0.35-1.31,0.78-1.76,1.08
					c-0.15,0.1-0.31,0.2-0.46,0.31c-0.01,0.01-0.02,0.01-0.03,0.02c-1.58,1.11-2.9,2.55-3.88,4.22
					C81.23,68.28,80.25,70.66,80.2,72.76z"/>
				<path class="st5" d="M110.67,79.88c-0.14-2.25-2.17-3.89-4.18-4.91c-0.36-0.18-0.73-0.36-1.11-0.52
					c-0.14-0.06-0.28-0.12-0.41-0.18c-1.22-0.5-2.5-0.89-3.79-1.16c0.95,0.28,2.4,0.99,3.56,1.93c0.12,0.1,0.24,0.2,0.36,0.31
					c1.15,1.04,1.9,2.31,1.35,3.6c-1.38,3.2-4.86,4.18-8.09,4.83c-0.34,0.07-0.68,0.13-1.01,0.2l0,0c-0.36,0.07-0.71,0.13-1.06,0.2
					c-5.32,1.05-10.77,1.45-16.19,1.2c-2.52-0.12-5.12-0.36-7.61-0.96c-0.45-0.11-0.91-0.23-1.35-0.37c-2.05-0.62-4-1.53-5.72-2.88
					c-1.64-1.28-2.54-3.24-1.14-5.04c0.01-0.01,0.02-0.03,0.03-0.04c0.09-0.12,0.19-0.23,0.29-0.33c1.16-1.26,2.81-2.01,4.39-2.71
					H69c-1.62,0.44-3.25,0.88-4.79,1.54c-0.14,0.06-0.27,0.12-0.41,0.18c-0.14,0.07-0.28,0.13-0.42,0.2
					c-2.14,1.07-4.08,3.23-3.91,5.75s2.38,4.28,4.49,5.31c2.56,1.25,5.45,1.83,8.23,2.36c8.88,1.7,18.66,1.85,27.44-0.45
					C103.28,86.97,110.98,84.97,110.67,79.88z"/>
				<g>
					<path class="st6" d="M98.39,58.23c-0.21-0.1-0.43-0.2-0.65-0.29c0.68,0.44,1.33,0.92,1.94,1.43
						C99.29,58.85,98.85,58.44,98.39,58.23z M104.74,75.05c-1.18,3.59-3.83,6.71-7.4,8.93l0,0c-2.64,1.64-5.78,2.79-9.21,3.26
						c-0.55,0.08-1.1,0.14-1.66,0.18c-0.64,0.05-1.28,0.07-1.93,0.07c-4.49,0-8.65-1.14-12.06-3.06c-3.7-2.1-6.52-5.13-7.89-8.67
						c-0.1,0.11-0.19,0.22-0.29,0.33c-0.01,0.01-0.02,0.03-0.03,0.04c1.29,3.14,3.71,5.88,6.86,7.92c3.67,2.37,8.33,3.79,13.41,3.79
						c0.65,0,1.3-0.02,1.94-0.07c0.56-0.04,1.12-0.1,1.66-0.17c3.85-0.52,7.36-1.88,10.22-3.82c3.2-2.18,5.59-5.1,6.74-8.42
						C104.98,75.25,104.86,75.15,104.74,75.05z"/>
				</g>
			</g>
			<g>
				<path class="st7" d="M50.95,92.23c-0.4-0.39-0.98-0.59-1.49-0.59c-1.3,0-2.05,0.97-2.04,2.14c0,1.01,0.6,1.99,2.04,1.99
					c0.47,0,0.91-0.12,1.35-0.49v-1.12h-1.54v-0.79h2.36v2.27c-0.55,0.61-1.24,0.96-2.17,0.96c-2.03,0-2.91-1.35-2.91-2.82
					c0-1.6,1.02-2.95,2.91-2.95c0.73,0,1.48,0.28,2.05,0.84L50.95,92.23z"/>
				<path class="st7" d="M56.4,94.55c0,1.15-0.8,2.02-2.02,2.02c-1.22,0-2.01-0.87-2.01-2.02s0.8-2.03,2.01-2.03
					C55.58,92.52,56.4,93.4,56.4,94.55z M53.18,94.55c0,0.7,0.45,1.26,1.19,1.26c0.75,0,1.2-0.57,1.2-1.26s-0.49-1.28-1.2-1.28
					C53.63,93.27,53.18,93.86,53.18,94.55z"/>
				<path class="st7" d="M57.26,98.3v-5.7h0.77l0.05,0.63c0.3-0.47,0.85-0.71,1.37-0.71c1.16,0.01,1.97,0.85,1.97,2.03
					s-0.76,2.03-1.97,2.03c-0.47,0-1.08-0.17-1.37-0.66v2.38L57.26,98.3L57.26,98.3z M60.6,94.55c0-0.73-0.49-1.24-1.23-1.24
					c-0.75,0-1.22,0.55-1.22,1.24s0.51,1.24,1.22,1.24C60.08,95.79,60.6,95.28,60.6,94.55z"/>
				<path class="st7" d="M65.41,92.6h0.79c0,1.3,0,2.6,0,3.9h-0.77l-0.04-0.63c-0.26,0.5-0.86,0.73-1.34,0.73
					c-1.14,0.01-2-0.73-2-2.05c0-1.3,0.89-2.03,2.01-2.03c0.55,0,1.08,0.26,1.33,0.7L65.41,92.6z M62.86,94.54
					c0,0.81,0.57,1.3,1.26,1.3c1.68,0,1.68-2.58,0-2.58C63.43,93.25,62.86,93.74,62.86,94.54z"/>
				<path class="st7" d="M68.16,90.97v5.52h-0.81v-5.52H68.16z"/>
				<path class="st7" d="M72.64,92.23l0.59,0.46l-0.47,0.55c0.32,0.38,0.47,0.73,0.47,1.21c0,0.69-0.34,1.25-1.04,1.52
					c0.8,0.27,1.03,0.81,1.03,1.27c0,1.06-1.04,1.59-2.09,1.59c-1.27,0-2.09-0.65-2.05-1.73h0.81c-0.02,0.61,0.59,0.93,1.24,0.94
					c0.6,0,1.24-0.24,1.24-0.8c0-0.55-0.5-0.85-1.22-0.85c-1.26,0-2.11-0.73-2.11-1.94c0-1.3,1.05-1.96,2.11-1.96
					c0.32,0,0.77,0.08,1.05,0.27L72.64,92.23z M69.88,94.44c0,0.77,0.58,1.19,1.29,1.19c0.72,0,1.26-0.49,1.26-1.19
					c0-0.77-0.59-1.2-1.26-1.2S69.88,93.62,69.88,94.44z"/>
				<path class="st7" d="M77.93,94.55c0,1.15-0.8,2.02-2.02,2.02s-2.01-0.87-2.01-2.02s0.8-2.03,2.01-2.03
					C77.11,92.52,77.93,93.4,77.93,94.55z M74.71,94.55c0,0.7,0.45,1.26,1.19,1.26c0.75,0,1.2-0.57,1.2-1.26s-0.49-1.28-1.2-1.28
					C75.16,93.27,74.71,93.86,74.71,94.55z"/>
				<path class="st7" d="M81.74,96.49v-2.09c0-0.67-0.38-1.12-1.05-1.12c-0.65,0-1.09,0.53-1.09,1.17v2.04h-0.81v-3.9h0.74
					l0.05,0.57c0.37-0.42,0.81-0.62,1.31-0.62c0.95,0,1.67,0.67,1.67,1.86v2.09L81.74,96.49L81.74,96.49z"/>
				<path class="st7" d="M84.42,92.58v4.37c0,0.98-0.36,1.49-1.23,1.49c-0.28,0-0.55-0.07-0.82-0.24l0.29-0.64
					c0.17,0.08,0.34,0.13,0.5,0.12c0.39-0.01,0.45-0.28,0.45-0.73v-4.37H84.42z M83.51,91.44c0,0.67,1.01,0.67,1.01,0
					C84.53,90.77,83.51,90.77,83.51,91.44z"/>
				<path class="st7" d="M92.45,92.26l-1.88,2.62h-0.19l-1.86-2.62v4.24h-0.88v-5.53c0.35,0,0.67,0,1.03,0l1.83,2.59l1.82-2.59h1.03
					v5.53h-0.88v-4.24H92.45z"/>
				<path class="st7" d="M95.1,94.85c0.07,0.59,0.56,0.98,1.27,0.98c0.4,0,0.89-0.15,1.13-0.42l0.53,0.51
					c-0.4,0.44-1.07,0.66-1.67,0.66c-1.28,0-2.1-0.81-2.1-2.06c0-1.19,0.83-2.03,2.05-2.03c1.26,0,2.11,0.77,1.96,2.35H95.1V94.85z
					 M97.47,94.16c-0.05-0.62-0.5-0.94-1.15-0.94c-0.59,0-1.08,0.32-1.21,0.94H97.47z"/>
				<path class="st7" d="M103.01,90.97v5.52h-0.77l-0.05-0.62c-0.31,0.5-0.83,0.7-1.35,0.7c-1.13,0-1.99-0.74-1.99-2.03
					c0-1.33,0.85-2.03,1.98-2.03c0.47,0,1.11,0.24,1.37,0.7v-2.24H103.01z M99.66,94.54c0,0.78,0.55,1.27,1.23,1.27
					s1.24-0.51,1.24-1.27c0-0.75-0.56-1.26-1.24-1.26C100.21,93.28,99.66,93.74,99.66,94.54z"/>
				<path class="st7" d="M105.03,91.45c0,0.67-1.01,0.67-1.01,0C104.02,90.79,105.03,90.79,105.03,91.45z M104.11,92.58v3.91h0.81
					v-3.91H104.11z"/>
				<path class="st7" d="M109.33,95.99c-0.43,0.43-0.92,0.61-1.48,0.61c-1.12,0-2.05-0.7-2.05-2.05s0.92-2.05,2.05-2.05
					c0.54,0,0.99,0.17,1.41,0.58l-0.52,0.55c-0.24-0.24-0.57-0.35-0.88-0.35c-0.7,0-1.25,0.5-1.25,1.27c0,0.82,0.57,1.26,1.24,1.26
					c0.33,0,0.67-0.1,0.92-0.36L109.33,95.99z"/>
				<path class="st7" d="M113.09,92.6h0.79c0,1.3,0,2.6,0,3.9h-0.77l-0.04-0.63c-0.26,0.5-0.86,0.73-1.34,0.73
					c-1.14,0.01-2-0.73-2-2.05c0-1.3,0.89-2.03,2.01-2.03c0.55,0,1.08,0.26,1.33,0.7L113.09,92.6z M110.53,94.54
					c0,0.81,0.57,1.3,1.26,1.3c1.68,0,1.68-2.58,0-2.58C111.1,93.25,110.53,93.74,110.53,94.54z"/>
				<path class="st7" d="M115.83,90.97v5.52h-0.81v-5.52H115.83z"/>
				<path class="st7" d="M123.02,94.92c0,0.4,0.14,0.73,0.55,0.73v0.85c-0.42,0.02-0.85-0.13-1.01-0.72
					c-0.34,0.52-0.93,0.79-1.65,0.79c-1.15,0-2.1-0.58-2.1-1.71c0-0.52,0.4-1.03,0.92-1.2c-0.49-0.2-0.77-0.68-0.77-1.16
					c0.01-1.1,0.98-1.61,2.04-1.61c0.94,0,1.95,0.33,1.96,1.52h-0.83c0-0.6-0.55-0.77-1.15-0.77c-0.87,0-1.16,0.46-1.15,0.86
					c0,0.63,0.71,0.81,1.15,0.81c0.85,0,1.68,0,2.53,0v0.7h-0.47v0.91H123.02z M119.67,94.87c0,0.62,0.56,0.9,1.27,0.9
					c0.44,0,1.25-0.21,1.25-0.85v-0.9c-0.43,0-0.85,0-1.28,0C120.06,94.02,119.67,94.48,119.67,94.87z"/>
				<path class="st7" d="M66.75,99.2c1.89,0,2.75,1.35,2.77,2.72c0.03,1.4-0.84,2.81-2.77,2.81c-0.66,0-1.43,0-2.09,0v-5.53
					L66.75,99.2L66.75,99.2z M65.54,103.88h1.22c1.35,0,1.92-1,1.9-1.97c-0.02-0.93-0.59-1.86-1.9-1.86h-1.22
					C65.54,100.05,65.54,103.88,65.54,103.88z"/>
				<path class="st7" d="M71.3,99.69c0,0.67-1.01,0.67-1.01,0C70.29,99.03,71.3,99.03,71.3,99.69z M70.39,100.82v3.91h0.81v-3.91
					H70.39z"/>
				<path class="st7" d="M75.44,100.84h0.79c0,1.3,0,2.6,0,3.9h-0.77l-0.04-0.63c-0.26,0.5-0.86,0.73-1.34,0.73
					c-1.14,0.01-2-0.73-2-2.05c0-1.3,0.89-2.03,2.01-2.03c0.55,0,1.08,0.26,1.33,0.7L75.44,100.84z M72.88,102.78
					c0,0.81,0.57,1.3,1.26,1.3c1.68,0,1.68-2.58,0-2.58C73.45,101.5,72.88,101.98,72.88,102.78z"/>
				<path class="st7" d="M80.68,100.47l0.59,0.46l-0.47,0.55c0.32,0.38,0.47,0.73,0.47,1.21c0,0.69-0.34,1.25-1.04,1.52
					c0.8,0.27,1.03,0.81,1.03,1.27c0,1.06-1.04,1.59-2.09,1.59c-1.27,0-2.09-0.65-2.05-1.73h0.81c-0.02,0.61,0.59,0.93,1.24,0.94
					c0.6,0,1.24-0.24,1.24-0.8c0-0.55-0.5-0.85-1.22-0.85c-1.26,0-2.11-0.73-2.11-1.94c0-1.3,1.05-1.96,2.11-1.96
					c0.32,0,0.77,0.08,1.05,0.27L80.68,100.47z M77.92,102.68c0,0.77,0.58,1.19,1.29,1.19c0.72,0,1.26-0.49,1.26-1.19
					c0-0.77-0.59-1.2-1.26-1.2C78.54,101.48,77.92,101.87,77.92,102.68z"/>
				<path class="st7" d="M85.14,104.73v-2.09c0-0.67-0.38-1.12-1.05-1.12c-0.65,0-1.09,0.53-1.09,1.17v2.04h-0.81v-3.9h0.74
					l0.05,0.57c0.37-0.42,0.81-0.62,1.31-0.62c0.95,0,1.67,0.67,1.67,1.86v2.09L85.14,104.73L85.14,104.73z"/>
				<path class="st7" d="M90.79,102.79c0,1.15-0.8,2.02-2.02,2.02s-2.01-0.87-2.01-2.02s0.8-2.03,2.01-2.03
					C89.97,100.76,90.79,101.65,90.79,102.79z M87.57,102.79c0,0.7,0.45,1.26,1.19,1.26c0.75,0,1.2-0.57,1.2-1.26
					s-0.49-1.28-1.2-1.28C88.02,101.51,87.57,102.1,87.57,102.79z"/>
				<path class="st7" d="M94.14,101.8c-0.31-0.28-0.64-0.36-1.03-0.36c-0.5-0.01-0.83,0.16-0.83,0.47c0.01,0.32,0.35,0.45,0.85,0.5
					c0.72,0.06,1.66,0.22,1.65,1.22c-0.01,0.73-0.65,1.23-1.66,1.23c-0.63,0-1.26-0.14-1.78-0.72l0.43-0.58
					c0.36,0.4,0.91,0.57,1.37,0.58c0.39,0,0.82-0.14,0.83-0.51c0.01-0.35-0.32-0.48-0.9-0.54c-0.73-0.07-1.58-0.31-1.59-1.17
					c0-0.86,0.89-1.19,1.62-1.19c0.6,0,1.07,0.13,1.5,0.52L94.14,101.8z"/>
				<path class="st7" d="M96.85,99.72v1.13h1.14v0.7h-1.15v1.86c0,0.41,0.18,0.64,0.56,0.64c0.16,0,0.34-0.06,0.5-0.13l0.24,0.7
					c-0.27,0.12-0.51,0.17-0.78,0.17c-0.85,0.02-1.33-0.46-1.33-1.37v-1.86h-0.75v-0.7h0.75v-1.04L96.85,99.72z"/>
				<path class="st7" d="M99.72,99.69c0,0.67-1.01,0.67-1.01,0C98.71,99.03,99.72,99.03,99.72,99.69z M98.81,100.82v3.91h0.81v-3.91
					H98.81z"/>
				<path class="st7" d="M104.02,104.23c-0.43,0.43-0.92,0.61-1.48,0.61c-1.12,0-2.05-0.7-2.05-2.05c0-1.34,0.92-2.05,2.05-2.05
					c0.54,0,0.99,0.17,1.41,0.58l-0.52,0.55c-0.24-0.24-0.57-0.35-0.88-0.35c-0.7,0-1.25,0.5-1.25,1.27c0,0.82,0.57,1.26,1.24,1.26
					c0.33,0,0.67-0.1,0.92-0.36L104.02,104.23z"/>
			</g>
		</g>
		<text transform="matrix(1 0 0 1 61.7019 111.1323)" class="st8 st9 st10">committed errorless care</text>
	</g>
</g>
</svg>
