<?xml version="1.0" encoding="utf-8"?>
<!-- Generator: Adobe Illustrator 26.0.3, SVG Export Plug-In . SVG Version: 6.00 Build 0)  -->
<svg version="1.1" id="Layer_1" xmlns="http://www.w3.org/2000/svg" xmlns:xlink="http://www.w3.org/1999/xlink" x="0px" y="0px"
	 viewBox="0 0 513 166" style="enable-background:new 0 0 513 166;" xml:space="preserve">
<style type="text/css">
	.st0{fill:#FFFFFF;}
	.st1{fill:url(#SVGID_1_);}
	.st2{fill:#7BD80F;}
	.st3{fill:#0B0E16;}
</style>
<g>
	<rect x="-0.13" y="-0.45" class="st0" width="173.61" height="166.89"/>
	
		<linearGradient id="SVGID_1_" gradientUnits="userSpaceOnUse" x1="155.5791" y1="172.8866" x2="510.37" y2="6.7861" gradientTransform="matrix(1 0 0 -1 0 168)">
		<stop  offset="0" style="stop-color:#00FFAD"/>
		<stop  offset="0.1466" style="stop-color:#00E3B7"/>
		<stop  offset="0.4631" style="stop-color:#009DD0"/>
		<stop  offset="0.9223" style="stop-color:#002DF8"/>
		<stop  offset="0.9995" style="stop-color:#0019FF"/>
	</linearGradient>
	<rect x="173.48" y="-0.45" class="st1" width="339.65" height="166.89"/>
	<g>
		<g>
			<path class="st0" d="M257.63,88.67c-1.03,0-1.99-0.21-2.88-0.64s-1.68-1.01-2.34-1.75c-0.67-0.74-1.19-1.59-1.56-2.55
				c-0.37-0.96-0.56-1.98-0.56-3.05s0.19-2.08,0.56-3.01s0.89-1.77,1.56-2.5s1.45-1.3,2.35-1.72c0.9-0.42,1.88-0.63,2.94-0.63
				c1.5,0,2.75,0.31,3.77,0.93s1.79,1.45,2.3,2.48l-1.89,1.36c-0.43-0.85-1.01-1.49-1.76-1.91s-1.57-0.64-2.46-0.64
				c-0.75,0-1.42,0.15-2.01,0.46s-1.1,0.73-1.53,1.27c-0.43,0.54-0.75,1.14-0.98,1.83c-0.23,0.68-0.34,1.4-0.34,2.15
				c0,0.79,0.12,1.53,0.37,2.22s0.6,1.29,1.06,1.82c0.45,0.52,0.99,0.93,1.61,1.22s1.28,0.44,1.98,0.44c0.87,0,1.68-0.22,2.45-0.65
				c0.77-0.43,1.49-1.08,2.17-1.95v2.51C261.06,87.9,259.46,88.67,257.63,88.67z M262.16,82.48h-3.26v-1.85h5.35v7.92h-2.09
				L262.16,82.48L262.16,82.48z"/>
			<path class="st0" d="M273.2,79.15c-0.92,0.01-1.75,0.23-2.48,0.64c-0.73,0.41-1.24,0.99-1.55,1.74v7.04h-2.42V77.15h2.22v2.46
				c0.41-0.78,0.94-1.4,1.58-1.88s1.32-0.74,2.02-0.78c0.16,0,0.29,0,0.38,0s0.17,0.01,0.23,0.02v2.18H273.2z"/>
			<path class="st0" d="M280.2,88.78c-0.91,0-1.72-0.16-2.44-0.47c-0.72-0.31-1.34-0.74-1.87-1.29c-0.53-0.55-0.93-1.17-1.22-1.88
				s-0.43-1.45-0.43-2.24c0-1.09,0.25-2.08,0.75-2.98c0.5-0.9,1.2-1.62,2.1-2.15c0.9-0.54,1.94-0.8,3.11-0.8
				c1.22,0,2.26,0.27,3.13,0.82c0.87,0.54,1.55,1.26,2.04,2.15s0.73,1.84,0.73,2.85c0,0.17-0.01,0.34-0.02,0.49
				s-0.03,0.27-0.04,0.36h-9.24c0.07,0.68,0.27,1.27,0.59,1.77s0.74,0.89,1.25,1.17c0.51,0.28,1.06,0.42,1.63,0.42
				c0.66,0,1.28-0.16,1.86-0.48c0.58-0.32,0.97-0.75,1.18-1.28l2.07,0.59c-0.25,0.56-0.63,1.06-1.14,1.51s-1.11,0.8-1.79,1.06
				C281.75,88.65,281.01,88.78,280.2,88.78z M276.75,82.04h6.95c-0.06-0.66-0.25-1.24-0.56-1.73c-0.32-0.49-0.73-0.87-1.24-1.15
				s-1.07-0.42-1.67-0.42c-0.62,0-1.18,0.14-1.68,0.42c-0.51,0.28-0.92,0.67-1.24,1.15C276.97,80.82,276.79,81.39,276.75,82.04z"/>
			<path class="st0" d="M293.29,88.78c-0.91,0-1.72-0.16-2.44-0.47c-0.72-0.31-1.34-0.74-1.87-1.29c-0.53-0.55-0.93-1.17-1.22-1.88
				s-0.43-1.45-0.43-2.24c0-1.09,0.25-2.08,0.75-2.98c0.5-0.9,1.2-1.62,2.1-2.15c0.9-0.54,1.94-0.8,3.11-0.8
				c1.22,0,2.26,0.27,3.13,0.82c0.87,0.54,1.55,1.26,2.04,2.15s0.73,1.84,0.73,2.85c0,0.17-0.01,0.34-0.02,0.49
				s-0.03,0.27-0.04,0.36h-9.24c0.07,0.68,0.27,1.27,0.59,1.77s0.74,0.89,1.25,1.17c0.51,0.28,1.06,0.42,1.63,0.42
				c0.66,0,1.28-0.16,1.86-0.48c0.58-0.32,0.97-0.75,1.18-1.28l2.07,0.59c-0.25,0.56-0.63,1.06-1.14,1.51s-1.11,0.8-1.79,1.06
				C294.84,88.65,294.1,88.78,293.29,88.78z M289.84,82.04h6.95c-0.06-0.66-0.25-1.24-0.56-1.73c-0.32-0.49-0.73-0.87-1.24-1.15
				s-1.07-0.42-1.67-0.42c-0.62,0-1.18,0.14-1.68,0.42c-0.51,0.28-0.92,0.67-1.24,1.15C290.06,80.82,289.88,81.39,289.84,82.04z"/>
			<path class="st0" d="M307.7,88.78c-0.92,0-1.74-0.22-2.44-0.65s-1.26-1-1.67-1.68v6.8h-2.42v-16.1h2.13v2.07
				c0.44-0.68,1.01-1.23,1.72-1.63s1.49-0.61,2.35-0.61c0.79,0,1.52,0.16,2.18,0.47s1.23,0.75,1.72,1.3
				c0.48,0.55,0.86,1.18,1.13,1.89c0.27,0.7,0.41,1.45,0.41,2.23c0,1.09-0.22,2.09-0.65,3c-0.43,0.91-1.03,1.62-1.8,2.15
				C309.58,88.52,308.7,88.78,307.7,88.78z M306.91,86.71c0.53,0,1-0.11,1.42-0.33s0.77-0.51,1.07-0.87
				c0.29-0.36,0.52-0.77,0.68-1.22c0.16-0.46,0.24-0.94,0.24-1.44c0-0.54-0.09-1.03-0.26-1.49c-0.18-0.46-0.43-0.86-0.76-1.2
				c-0.33-0.35-0.71-0.62-1.14-0.82s-0.9-0.3-1.4-0.3c-0.32,0-0.65,0.06-0.98,0.17c-0.33,0.12-0.65,0.27-0.96,0.47
				c-0.31,0.2-0.57,0.44-0.79,0.7c-0.22,0.27-0.37,0.57-0.44,0.9v2.96c0.21,0.46,0.48,0.88,0.81,1.24c0.34,0.37,0.73,0.66,1.17,0.89
				C306,86.6,306.45,86.71,306.91,86.71z"/>
			<path class="st0" d="M324.75,88.57h-2.4V82.2c0-1.03-0.19-1.8-0.58-2.31s-0.93-0.76-1.62-0.76c-0.44,0-0.88,0.12-1.33,0.35
				s-0.84,0.54-1.19,0.94c-0.34,0.4-0.61,0.85-0.78,1.37v6.78h-2.42V72.51h2.42v6.93c0.44-0.77,1.04-1.37,1.8-1.81
				s1.58-0.65,2.46-0.65c0.73,0,1.33,0.12,1.79,0.37c0.46,0.25,0.83,0.59,1.1,1.01c0.27,0.43,0.46,0.92,0.57,1.47
				s0.16,1.15,0.16,1.79v6.95H324.75z"/>
			<path class="st0" d="M327.96,91.27c0.22,0.03,0.44,0.06,0.65,0.1s0.38,0.05,0.52,0.03c0.25,0.01,0.47-0.05,0.65-0.2
				s0.37-0.43,0.56-0.84s0.42-1.01,0.68-1.78l-4.71-11.44h2.53l3.52,8.99l3.12-8.99h2.35l-5.24,14.09
				c-0.15,0.44-0.38,0.83-0.69,1.18c-0.32,0.35-0.7,0.63-1.17,0.83c-0.46,0.2-0.99,0.3-1.59,0.29c-0.18,0.01-0.36,0.01-0.55-0.02
				s-0.4-0.07-0.64-0.13L327.96,91.27L327.96,91.27z"/>
			<path class="st0" d="M344.44,80.92c0-1.48,0.31-2.95,0.92-4.41c0.62-1.46,1.37-2.94,2.27-4.46l1.85,0.79
				c-0.26,0.4-0.55,0.9-0.87,1.52s-0.62,1.3-0.92,2.05s-0.54,1.51-0.73,2.3c-0.18,0.79-0.28,1.54-0.28,2.28
				c0,1.19,0.25,2.43,0.75,3.73s1.16,2.62,1.98,3.97l-1.76,0.92c-0.63-0.92-1.18-1.87-1.66-2.84c-0.48-0.97-0.85-1.94-1.13-2.93
				C344.58,82.88,344.44,81.9,344.44,80.92z"/>
			<path class="st0" d="M351.85,88.57V72.95h6.56c0.7,0,1.35,0.15,1.94,0.44s1.1,0.68,1.54,1.17s0.78,1.03,1.01,1.64
				s0.35,1.22,0.35,1.84c0,0.87-0.19,1.69-0.58,2.46c-0.39,0.78-0.94,1.41-1.64,1.9c-0.7,0.49-1.53,0.74-2.49,0.74h-4.2v5.43
				L351.85,88.57L351.85,88.57z M354.34,80.95h4.05c0.45,0,0.86-0.13,1.21-0.39c0.35-0.26,0.63-0.61,0.84-1.06s0.31-0.95,0.31-1.51
				c0-0.57-0.12-1.07-0.35-1.51s-0.54-0.77-0.91-1.01s-0.77-0.36-1.2-0.36h-3.94v5.84H354.34z"/>
			<path class="st0" d="M368.44,88.57l-4.36-11.42h2.51l3.26,9.19l3.3-9.19h2.31l-4.36,11.42H368.44z"/>
			<path class="st0" d="M383.62,88.02c-0.19,0.09-0.45,0.19-0.77,0.32c-0.32,0.12-0.67,0.23-1.06,0.32
				c-0.38,0.09-0.78,0.13-1.19,0.13c-0.5,0-0.96-0.09-1.39-0.27s-0.77-0.46-1.02-0.84c-0.26-0.38-0.38-0.87-0.38-1.47v-7.18h-1.54
				v-1.87h1.54v-3.78h2.42v3.78h2.51v1.87h-2.51v6.39c0.03,0.39,0.16,0.69,0.38,0.88s0.51,0.28,0.85,0.28
				c0.34,0,0.66-0.06,0.98-0.19c0.32-0.12,0.53-0.22,0.65-0.28L383.62,88.02z"/>
			<path class="st0" d="M389.49,80.92c0,0.97-0.14,1.94-0.42,2.93c-0.28,0.98-0.66,1.96-1.14,2.93c-0.48,0.97-1.03,1.91-1.65,2.84
				l-1.78-0.92c0.82-1.35,1.48-2.67,1.98-3.97s0.75-2.54,0.75-3.73c0-0.73-0.09-1.49-0.27-2.28c-0.18-0.78-0.43-1.55-0.73-2.3
				s-0.61-1.43-0.92-2.05c-0.32-0.62-0.6-1.12-0.85-1.52l1.87-0.79c0.88,1.51,1.63,3,2.24,4.46
				C389.18,77.97,389.49,79.45,389.49,80.92z"/>
			<path class="st0" d="M397.54,88.57V72.95h2.49v13.44h8.36v2.18H397.54z"/>
			<path class="st0" d="M416.49,88.02c-0.19,0.09-0.45,0.19-0.77,0.32c-0.32,0.12-0.67,0.23-1.06,0.32
				c-0.38,0.09-0.78,0.13-1.19,0.13c-0.5,0-0.96-0.09-1.39-0.27s-0.77-0.46-1.02-0.84c-0.26-0.38-0.38-0.87-0.38-1.47v-7.18h-1.54
				v-1.87h1.54v-3.78h2.42v3.78h2.51v1.87h-2.51v6.39c0.03,0.39,0.16,0.69,0.38,0.88s0.51,0.28,0.85,0.28s0.66-0.06,0.98-0.19
				c0.32-0.12,0.53-0.22,0.65-0.28L416.49,88.02z"/>
			<path class="st0" d="M417.43,82.88c0-1.09,0.22-2.08,0.67-2.98c0.45-0.89,1.06-1.61,1.84-2.14c0.78-0.53,1.67-0.8,2.68-0.8
				c0.89,0,1.7,0.23,2.41,0.68c0.71,0.46,1.26,1.01,1.64,1.67v-6.82h2.42v13.33c0,0.26,0.05,0.46,0.15,0.58s0.27,0.19,0.51,0.21
				v1.94c-0.44,0.07-0.79,0.12-1.06,0.13c-0.46,0-0.84-0.13-1.14-0.41c-0.31-0.27-0.48-0.59-0.51-0.96l-0.02-0.84
				c-0.46,0.72-1.05,1.28-1.79,1.68c-0.74,0.4-1.51,0.61-2.32,0.61c-0.79,0-1.52-0.16-2.19-0.47c-0.67-0.31-1.25-0.74-1.74-1.29
				c-0.49-0.54-0.87-1.17-1.14-1.88C417.57,84.45,417.43,83.68,417.43,82.88z M426.67,84.46v-2.97c-0.16-0.46-0.42-0.87-0.78-1.24
				c-0.36-0.36-0.76-0.66-1.21-0.88c-0.45-0.22-0.9-0.34-1.35-0.34c-0.5,0-0.96,0.11-1.38,0.33s-0.78,0.5-1.08,0.86
				c-0.3,0.35-0.53,0.77-0.69,1.24c-0.16,0.47-0.24,0.96-0.24,1.46c0,0.51,0.09,0.99,0.26,1.45c0.18,0.46,0.43,0.87,0.76,1.23
				c0.33,0.35,0.71,0.63,1.14,0.82c0.43,0.2,0.91,0.29,1.42,0.29c0.32,0,0.65-0.05,0.98-0.16s0.64-0.26,0.94-0.47
				c0.29-0.2,0.55-0.44,0.77-0.73S426.58,84.77,426.67,84.46z"/>
		</g>
	</g>
	<g>
		<path class="st2" d="M63.72,76.76v-1.17h-2.38v10.46h2.52V80.1c0-1.41,1.15-2.38,2.98-2.38v-2.36
			C65.52,75.34,64.43,75.91,63.72,76.76z"/>
		<path class="st2" d="M77.64,80.48c0-2.62-1.96-5.14-5.18-5.14c-2.93,0-5.24,2.39-5.24,5.36c0,3.05,2.13,5.35,5.39,5.35
			c2.48,0,3.84-1.05,4.62-2.31l-1.94-1.24c-0.47,0.91-1.2,1.44-2.6,1.44c-1.53,0-2.72-0.93-3.05-2.46h7.94
			C77.62,81.26,77.64,80.88,77.64,80.48z M69.64,79.74c0.31-1.57,1.44-2.46,2.87-2.46s2.48,0.93,2.76,2.46H69.64z"/>
		<path class="st2" d="M89.24,80.48c0-2.62-1.96-5.14-5.18-5.14c-2.93,0-5.24,2.39-5.24,5.36c0,3.05,2.13,5.35,5.39,5.35
			c2.48,0,3.84-1.05,4.62-2.31l-1.94-1.24c-0.47,0.91-1.2,1.44-2.6,1.44c-1.53,0-2.72-0.93-3.05-2.46h7.94
			C89.22,81.26,89.24,80.88,89.24,80.48z M81.25,79.74c0.31-1.57,1.44-2.46,2.87-2.46s2.48,0.93,2.76,2.46H81.25z"/>
		<g>
			<path class="st2" d="M60.13,84.18v4.55c-5.4,3.82-13.09,1.65-15.72-4.42C48.58,88.96,56.04,88.89,60.13,84.18z"/>
			<path class="st2" d="M59.19,74.57c-0.62-1.07-1.51-1.96-2.58-2.58c-1.04-0.6-2.24-0.94-3.52-0.94s-2.48,0.34-3.52,0.94
				c-1.07,0.62-1.96,1.51-2.58,2.58c-0.6,1.04-0.94,2.24-0.94,3.52s0.34,2.48,0.94,3.52c0.62,1.07,1.51,1.96,2.58,2.58
				c1.04,0.6,2.24,0.94,3.52,0.94s2.48-0.34,3.52-0.94c1.07-0.62,1.96-1.51,2.58-2.58c0.6-1.04,0.94-2.24,0.94-3.52
				S59.79,75.59,59.19,74.57z M53.09,81.6c-1.94,0-3.52-1.58-3.52-3.52s1.58-3.52,3.52-3.52s3.52,1.58,3.52,3.52
				S55.04,81.6,53.09,81.6z"/>
		</g>
		<g>
			<path class="st3" d="M96.06,75.34c-1.46,0-2.64,0.58-3.43,1.57v-1.34h-2.29v13.86h2.46v-4.72c0.78,0.83,1.86,1.32,3.2,1.32
				c2.93,0,5.06-2.29,5.06-5.34C101.06,77.62,98.99,75.34,96.06,75.34z M95.67,83.85c-1.76,0-2.97-1.3-2.97-3.16s1.2-3.16,2.97-3.16
				c1.69,0,2.93,1.34,2.93,3.16C98.6,82.49,97.36,83.85,95.67,83.85z"/>
			<path class="st3" d="M107.57,75.58c-1.32,0-2.39,0.49-3.09,1.2v-4.93h-2.46v14.18h2.46v-6.15c0.02-1.14,1.03-2.1,2.37-2.11
				c1.4,0,2.31,0.87,2.31,2.35v5.92h2.48v-6.38C111.64,77.22,110.09,75.58,107.57,75.58z"/>
			<path class="st3" d="M119.64,75.57l-2.89,8.25l-2.64-8.25h-2.54l3.61,10.22h0.78l-1.11,2.76h2.41l1.05-2.76l3.9-10.22H119.64z"/>
			<polygon class="st3" points="61.34,90.1 64.88,93.51 105.46,90.1 			"/>
		</g>
	</g>
</g>
</svg>
