<?xml version="1.0" encoding="utf-8"?>
<!-- Generator: Adobe Illustrator 26.0.3, SVG Export Plug-In . SVG Version: 6.00 Build 0)  -->
<svg version="1.1" id="Layer_1" xmlns="http://www.w3.org/2000/svg" xmlns:xlink="http://www.w3.org/1999/xlink" x="0px" y="0px"
	 viewBox="0 0 173.5 166" style="enable-background:new 0 0 173.5 166;" xml:space="preserve">
<style type="text/css">
	.st0{fill:#7BD80F;}
	.st1{fill:#0B0E16;}
</style>
<g>
	<path class="st0" d="M54.8,74v-1.9h-3.9v17.1H55v-9.7c0-2.3,1.9-3.9,4.9-3.9v-3.8C57.7,71.7,56,72.6,54.8,74z"/>
	<path class="st0" d="M77.5,80.1c0-4.3-3.2-8.4-8.4-8.4c-4.8,0-8.5,3.9-8.5,8.7c0,5,3.5,8.7,8.8,8.7c4,0,6.3-1.7,7.5-3.8l-3.2-2
		c-0.8,1.5-2,2.3-4.2,2.3c-2.5,0-4.4-1.5-5-4h12.9C77.5,81.3,77.5,80.7,77.5,80.1z M64.4,78.9c0.5-2.6,2.3-4,4.7-4
		c2.3,0,4,1.5,4.5,4H64.4z"/>
	<path class="st0" d="M96.4,80.1c0-4.3-3.2-8.4-8.4-8.4c-4.8,0-8.5,3.9-8.5,8.7c0,5,3.5,8.7,8.8,8.7c4,0,6.3-1.7,7.5-3.8l-3.2-2
		c-0.8,1.5-2,2.3-4.2,2.3c-2.5,0-4.4-1.5-5-4h12.9C96.4,81.3,96.4,80.7,96.4,80.1z M83.4,78.9c0.5-2.6,2.3-4,4.7-4
		c2.3,0,4,1.5,4.5,4H83.4z"/>
	<g>
		<path class="st0" d="M48.9,86.1v7.4c-8.8,6.2-21.3,2.7-25.6-7.2C30.1,93.9,42.3,93.8,48.9,86.1z"/>
		<path class="st0" d="M47.4,70.4c-1-1.7-2.5-3.2-4.2-4.2c-1.7-1-3.7-1.5-5.7-1.5s-4,0.6-5.7,1.5c-1.7,1-3.2,2.5-4.2,4.2
			c-1,1.7-1.5,3.7-1.5,5.7s0.6,4,1.5,5.7c1,1.7,2.5,3.2,4.2,4.2c1.7,1,3.7,1.5,5.7,1.5s4-0.6,5.7-1.5c1.7-1,3.2-2.5,4.2-4.2
			c1-1.7,1.5-3.7,1.5-5.7S48.4,72.1,47.4,70.4z M37.5,81.9c-3.2,0-5.7-2.6-5.7-5.7c0-3.2,2.6-5.7,5.7-5.7s5.7,2.6,5.7,5.7
			C43.2,79.3,40.6,81.9,37.5,81.9z"/>
	</g>
	<g>
		<path class="st1" d="M107.5,71.7c-2.4,0-4.3,0.9-5.6,2.6v-2.2h-3.7v22.6h4V87c1.3,1.4,3,2.2,5.2,2.2c4.8,0,8.3-3.7,8.3-8.7
			C115.7,75.4,112.3,71.7,107.5,71.7z M106.9,85.6c-2.9,0-4.8-2.1-4.8-5.2s2-5.2,4.8-5.2c2.8,0,4.8,2.2,4.8,5.2
			C111.7,83.3,109.7,85.6,106.9,85.6z"/>
		<path class="st1" d="M126.3,72.1c-2.2,0-3.9,0.8-5,2v-8h-4v23.1h4v-10c0-1.9,1.7-3.4,3.9-3.4c2.3,0,3.8,1.4,3.8,3.8v9.7h4V78.7
			C132.9,74.7,130.4,72.1,126.3,72.1z"/>
		<path class="st1" d="M146,72.1l-4.7,13.5L137,72.1h-4.1l5.9,16.7h1.3l-1.8,4.5h3.9l1.7-4.5l6.4-16.7H146z"/>
		<polygon class="st1" points="50.9,95.8 56.7,101.3 122.9,95.8 		"/>
	</g>
</g>
</svg>
