<?xml version="1.0" encoding="utf-8"?>
<!-- Generator: Adobe Illustrator 26.0.3, SVG Export Plug-In . SVG Version: 6.00 Build 0)  -->
<svg version="1.1" id="Layer_1" xmlns="http://www.w3.org/2000/svg" xmlns:xlink="http://www.w3.org/1999/xlink" x="0px" y="0px"
	 viewBox="0 0 173.5 166" style="enable-background:new 0 0 173.5 166;" xml:space="preserve">
<style type="text/css">
	.st0{fill:#E6B800;}
	.st1{fill:#1C1B56;}
	.st2{opacity:0.49;}
</style>
<g>
	<g>
		<g>
			<path class="st0" d="M115.7,45.9c-15.9-5.3-30.8-5-40.5-3.8c-10.5,1.3-17.3,3.8-17.6,3.9l-1.5,0.5v33.9c0,7.2,3,14.2,8.2,19.1
				c5.1,4.8,11.2,10.1,19.6,14.2l2.8,1.5l2.1-1.3c9.1-4.4,15.3-9.6,20.1-14.1c5.3-5,8.4-12,8.4-19.3v-34L115.7,45.9z M112.8,80.5
				c0,6-2.5,11.9-6.9,16c-2.2,2.1-5,4.2-8.2,6.2c-3.2,2.1-6.9,4.1-10.9,6.1c-8-3.8-14.5-8.1-19.2-12.6c-4.3-4.1-6.7-9.8-6.7-15.8
				V49.7c2.5-0.8,7.9-2.3,15.2-3.1c8.9-1.1,22.4-1.3,36.9,3.2L112.8,80.5L112.8,80.5z"/>
		</g>
		<path class="st0" d="M104.1,26.7c-2.2,2.8-4.5,11.9-4.9,13.7c0,0.2-0.1,0.3-0.1,0.3c-0.1,0-0.1,0-0.2,0c-4.1-0.7-8.4-0.9-12.2-0.9
			h0c-3.8,0-8.1,0.2-12.3,0.9c0,0,0,0,0,0c0,0,0,0,0,0s0,0,0-0.1c-0.3-1.2-2.6-10.9-4.9-13.9c0,0,7.5,1.3,9.2,5.3c0,0-0.1,0-0.2,0
			c-2-0.1-3.2,2.2-2,3.7c0.3,0.4,0.9,0.8,1.6,1.2c1.2,0.5,2.5,0.5,3.6-0.1c0.5-0.3,0.9-0.7,1.3-1.2c1-1.7-0.5-3.9-2.4-3.5
			c0,0,0,0-0.1,0c0.1,0-1.1-2.6,1.8-3.3c0.1-0.1,0.5-5.4,4.7-6.3c4.1,0.8,4.4,6.2,4.5,6.3c2.9,0.7,1.7,3.3,1.8,3.3c0,0,0,0-0.1,0
			c-2-0.4-3.5,1.8-2.4,3.5c0.3,0.6,0.8,1,1.3,1.2c1.1,0.6,2.4,0.6,3.6,0.1c0.7-0.3,1.2-0.7,1.6-1.2c1.2-1.5,0-3.8-2-3.7
			c-0.1,0-0.2,0-0.2,0C96.6,27.9,104,26.6,104.1,26.7z"/>
		<g>
			<g>
				<path class="st0" d="M108.5,61.8l0.1,0.1v-8.3c0-0.9-0.6-1.8-1.5-2.1c-2.7-1.1-9.1-3.1-17.1-2.9l-2.2,0v3.2c0,4.8,0,29.5,0,46.3
					l0,4.8l19.9-16.2c0.5-0.4,0.8-1.1,0.8-1.8V69c0-0.9-0.5-1.7-1.4-2.1l0,0c-0.3-0.1-6.4-2.7-14.8-2.8c0-2.3,0-4.2,0-5.9
					c0-2.1,0-3.9,0-5.2c4.4,0.1,7.8,0.8,10,1.4c1,0.3,1.6,1.2,1.6,2.2v3.2C105.7,60.3,107.1,61,108.5,61.8z M92.5,74.5
					c0-2.1,0-4,0-5.8c5.2,0,9.5,1.2,11.6,1.9v13.2l-11.7,9.5C92.4,88.8,92.5,81.6,92.5,74.5z"/>
			</g>
			<g>
				<path class="st0" d="M85.6,98.1c0-16.7-0.1-41.4,0-46.3v-3.2l-2.2,0c-8-0.2-14.3,1.9-17.1,2.9c-0.9,0.3-1.5,1.2-1.5,2.1v8.3
					l0.1-0.1c1.4-0.9,2.8-1.5,4.4-1.9v-3.2c0-1,0.7-1.9,1.6-2.2c2.2-0.6,5.6-1.3,10-1.4c0,1.3,0,3.1,0,5.2c0,1.7,0,3.7,0,5.9v4.5
					l0,0c0,1.8,0,3.7,0,5.8c0,7.1,0,14.3,0,18.8l-10.8-8.8c-0.5-0.4-0.8-1.1-0.8-1.8v-4.1l-4.5,2.8v3.4c0,0.7,0.3,1.3,0.8,1.8
					l19.9,16.2V98.1z"/>
			</g>
		</g>
	</g>
	<g>
		<g>
			<path class="st1" d="M40.1,133c-0.6-0.3-1.1-0.6-1.5-1.1l1.3-1.6c0.6,0.8,1.2,1.1,1.9,1.1c1,0,1.5-0.6,1.5-1.7v-5h-3.7v-1.9h6.1
				v6.8c0,1.3-0.3,2.2-1,2.9c-0.6,0.6-1.6,1-2.8,1C41.4,133.4,40.7,133.3,40.1,133z"/>
			<path class="st1" d="M55.2,127.9h2.2v4.2c-0.6,0.4-1.2,0.8-2,1c-0.7,0.2-1.5,0.3-2.3,0.3c-1.1,0-2.1-0.2-2.9-0.7
				c-0.9-0.5-1.5-1.1-2-1.9c-0.5-0.8-0.7-1.7-0.7-2.8c0-1,0.2-2,0.7-2.8c0.5-0.8,1.2-1.5,2.1-1.9c0.9-0.5,1.9-0.7,2.9-0.7
				c0.9,0,1.7,0.1,2.5,0.5c0.7,0.3,1.4,0.8,1.9,1.3l-1.5,1.4c-0.7-0.8-1.6-1.2-2.7-1.2c-0.7,0-1.3,0.1-1.8,0.4
				c-0.5,0.3-0.9,0.7-1.2,1.2c-0.3,0.5-0.4,1.1-0.4,1.7c0,0.6,0.1,1.2,0.4,1.7c0.3,0.5,0.7,0.9,1.2,1.2s1.1,0.4,1.8,0.4
				c0.7,0,1.3-0.1,1.9-0.4L55.2,127.9C55.3,127.9,55.2,127.9,55.2,127.9z"/>
			<path class="st1" d="M70.8,131h-4.8l-0.9,2.2h-2.5l4.6-10.4h2.4l4.7,10.4h-2.5L70.8,131z M70,129.2l-1.7-4l-1.7,4H70z"/>
			<path class="st1" d="M75.3,122.8h2.4v8.5h5.2v2h-7.6V122.8z"/>
			<path class="st1" d="M86.7,124.8v2.7h4.8v1.9h-4.8v3.8h-2.4v-10.4h7.9v1.9H86.7L86.7,124.8z"/>
			<path class="st1" d="M100.2,131h-4.8l-0.9,2.2H92l4.6-10.4H99l4.7,10.4h-2.5L100.2,131z M99.5,129.2l-1.7-4l-1.7,4H99.5z"/>
			<path class="st1" d="M104.8,122.8h2.4v8.5h5.2v2h-7.6V122.8z"/>
			<path class="st1" d="M120.7,131h-4.8l-0.9,2.2h-2.5l4.6-10.4h2.4l4.7,10.4h-2.5L120.7,131z M119.9,129.2l-1.7-4l-1.7,4H119.9z"/>
			<path class="st1" d="M134.8,122.8v10.4h-2.4V129h-4.7v4.3h-2.4v-10.4h2.4v4.1h4.7v-4.1H134.8z"/>
		</g>
		<g class="st2">
			<path class="st1" d="M58.9,143.5l0-3.6l-1.8,3h-0.6l-1.8-2.9v3.6h-1.3v-6.1h1.2l2.3,3.8l2.2-3.8h1.2l0,6.1L58.9,143.5L58.9,143.5
				z"/>
			<path class="st1" d="M65.7,142.2h-2.8l-0.5,1.3h-1.4l2.7-6.1H65l2.7,6.1h-1.5L65.7,142.2z M65.2,141.1l-1-2.3l-1,2.3H65.2z"/>
			<path class="st1" d="M73.9,137.4v6.1h-1.2l-3-3.7v3.7h-1.4v-6.1h1.2l3,3.7v-3.7C72.5,137.4,73.9,137.4,73.9,137.4z"/>
			<path class="st1" d="M79.3,142.2h-2.8l-0.5,1.3h-1.4l2.7-6.1h1.4l2.7,6.1h-1.5L79.3,142.2z M78.9,141.1l-1-2.3l-1,2.3H78.9z"/>
			<path class="st1" d="M86,140.3h1.3v2.5c-0.3,0.2-0.7,0.4-1.1,0.6c-0.4,0.1-0.9,0.2-1.3,0.2c-0.6,0-1.2-0.1-1.7-0.4
				c-0.5-0.3-0.9-0.6-1.2-1.1c-0.3-0.5-0.4-1-0.4-1.6s0.1-1.1,0.4-1.6c0.3-0.5,0.7-0.8,1.2-1.1c0.5-0.3,1.1-0.4,1.7-0.4
				c0.5,0,1,0.1,1.4,0.3c0.4,0.2,0.8,0.4,1.1,0.8l-0.9,0.8c-0.4-0.5-1-0.7-1.6-0.7c-0.4,0-0.7,0.1-1,0.2c-0.3,0.2-0.5,0.4-0.7,0.7
				c-0.2,0.3-0.2,0.6-0.2,1c0,0.4,0.1,0.7,0.2,1c0.2,0.3,0.4,0.5,0.7,0.7c0.3,0.2,0.6,0.2,1,0.2c0.4,0,0.8-0.1,1.1-0.3L86,140.3
				C86,140.3,86,140.3,86,140.3z"/>
			<path class="st1" d="M93.3,142.3v1.1h-4.7v-6.1h4.6v1.1H90v1.3h2.8v1.1H90v1.4L93.3,142.3C93.3,142.4,93.3,142.3,93.3,142.3z"/>
			<path class="st1" d="M99.9,143.5l0-3.6l-1.8,3h-0.6l-1.8-2.9v3.6h-1.3v-6.1h1.2l2.3,3.8l2.2-3.8h1.2l0,6.1L99.9,143.5L99.9,143.5
				z"/>
			<path class="st1" d="M107.3,142.3v1.1h-4.7v-6.1h4.6v1.1H104v1.3h2.8v1.1H104v1.4L107.3,142.3
				C107.3,142.4,107.3,142.3,107.3,142.3z"/>
			<path class="st1" d="M114,137.4v6.1h-1.2l-3-3.7v3.7h-1.4v-6.1h1.2l3,3.7v-3.7C112.6,137.4,114,137.4,114,137.4z"/>
			<path class="st1" d="M116.7,138.5h-1.9v-1.1h5.3v1.1h-1.9v4.9h-1.4C116.7,143.5,116.7,138.5,116.7,138.5z"/>
		</g>
	</g>
</g>
</svg>
