<?xml version="1.0" encoding="utf-8"?>
<!-- Generator: Adobe Illustrator 26.0.3, SVG Export Plug-In . SVG Version: 6.00 Build 0)  -->
<svg version="1.1" id="Layer_1" xmlns="http://www.w3.org/2000/svg" xmlns:xlink="http://www.w3.org/1999/xlink" x="0px" y="0px"
	 viewBox="0 0 513 166" style="enable-background:new 0 0 513 166;" xml:space="preserve">
<style type="text/css">
	.st0{fill:#FFFFFF;}
	.st1{fill:url(#SVGID_1_);}
	.st2{fill:#E6B800;}
	.st3{fill:#1C1B56;}
	.st4{opacity:0.49;}
</style>
<g>
	<rect x="-0.13" y="-0.45" class="st0" width="173.61" height="166.89"/>
	
		<linearGradient id="SVGID_1_" gradientUnits="userSpaceOnUse" x1="155.5798" y1="172.8863" x2="510.3706" y2="6.7857" gradientTransform="matrix(1 0 0 -1 0 168)">
		<stop  offset="0" style="stop-color:#00FFAD"/>
		<stop  offset="0.1466" style="stop-color:#00E3B7"/>
		<stop  offset="0.4631" style="stop-color:#009DD0"/>
		<stop  offset="0.9223" style="stop-color:#002DF8"/>
		<stop  offset="0.9995" style="stop-color:#0019FF"/>
	</linearGradient>
	<rect x="173.48" y="-0.45" class="st1" width="339.65" height="166.89"/>
	<g>
		<g>
			<g>
				<path class="st2" d="M106.72,50.8c-12.8-4.25-24.79-4.02-32.6-3.09c-8.47,1.02-13.88,3.02-14.11,3.11l-1.18,0.44v27.27
					c0,5.81,2.39,11.4,6.56,15.34c4.08,3.86,8.99,8.14,15.79,11.4l2.22,1.2l1.65-1.07c7.29-3.51,12.27-7.71,16.18-11.36
					c4.28-4,6.74-9.66,6.74-15.52V51.2L106.72,50.8z M104.33,78.55c0,4.86-2.03,9.54-5.58,12.86c-1.79,1.67-4.03,3.35-6.63,5.01
					c-2.6,1.67-5.57,3.31-8.78,4.92c-6.44-3.09-11.63-6.49-15.43-10.09c-3.45-3.26-5.42-7.88-5.42-12.7v-24.7
					c1.98-0.62,6.35-1.83,12.2-2.52c7.16-0.85,18.01-1.07,29.65,2.54L104.33,78.55L104.33,78.55z"/>
			</g>
			<path class="st2" d="M97.35,35.29c-1.8,2.26-3.6,9.54-3.94,10.98c-0.04,0.16-0.06,0.25-0.06,0.25c-0.05-0.01-0.1-0.02-0.16-0.02
				c-3.33-0.57-6.74-0.74-9.77-0.72h-0.04c-3.05-0.02-6.49,0.15-9.85,0.73c-0.01,0-0.03,0-0.04,0.01c-0.03,0-0.04,0.01-0.04,0.01
				s-0.01-0.03-0.02-0.09c-0.22-0.93-2.1-8.77-3.97-11.14c0.04-0.04,5.99,1.04,7.43,4.27c-0.01-0.01-0.07-0.02-0.16-0.02
				c-1.58-0.09-2.59,1.75-1.61,2.99c0.28,0.35,0.69,0.68,1.28,0.94c0.93,0.41,2,0.41,2.88-0.09c0.38-0.21,0.76-0.53,1.03-0.99
				c0.83-1.38-0.39-3.1-1.96-2.79c-0.02,0-0.04,0.01-0.05,0.01c0.08-0.04-0.88-2.12,1.44-2.68c0.08-0.08,0.44-4.32,3.77-5.04
				c3.3,0.68,3.5,4.96,3.58,5.04c2.32,0.56,1.36,2.64,1.44,2.68c-0.02,0-0.04-0.01-0.05-0.01c-1.57-0.31-2.79,1.42-1.96,2.79
				c0.28,0.46,0.65,0.77,1.03,0.99c0.88,0.5,1.95,0.5,2.88,0.09c0.59-0.26,1-0.58,1.28-0.94c0.99-1.24-0.02-3.08-1.61-2.99
				c-0.09,0-0.15,0.01-0.16,0.02C91.36,36.33,97.31,35.24,97.35,35.29z"/>
			<g>
				<g>
					<path class="st2" d="M100.9,63.58l0.1,0.06v-6.68c0-0.75-0.46-1.43-1.17-1.7c-2.2-0.85-7.33-2.5-13.73-2.35l-1.76,0.04v2.55
						c0.04,3.87,0.01,23.73-0.02,37.19l-0.01,3.84l16.01-13.01c0.42-0.35,0.67-0.86,0.67-1.41V69.35c0-0.73-0.43-1.39-1.1-1.67l0,0
						c-0.22-0.09-5.17-2.18-11.88-2.22c0-1.81,0-3.4,0-4.76c0-1.69-0.01-3.12-0.01-4.15c3.53,0.09,6.27,0.65,8.04,1.15
						c0.78,0.22,1.32,0.94,1.32,1.75v2.59C98.62,62.36,99.81,62.88,100.9,63.58z M88,73.76c0-1.65,0-3.2,0.01-4.65
						c4.2,0.03,7.67,0.97,9.35,1.53v10.61l-9.39,7.63C87.99,85.24,88,79.49,88,73.76z"/>
				</g>
				<g>
					<path class="st2" d="M82.48,92.7c-0.04-13.46-0.06-33.32-0.02-37.19v-2.55l-1.76-0.04c-6.4-0.15-11.53,1.5-13.73,2.35
						c-0.7,0.27-1.17,0.94-1.17,1.7v6.68l0.1-0.06c1.09-0.7,2.28-1.22,3.54-1.53v-2.61c0-0.81,0.54-1.53,1.32-1.75
						c1.77-0.5,4.51-1.07,8.04-1.15c-0.01,1.04-0.01,2.46-0.01,4.15c0,1.36,0,2.95,0,4.76v3.64l0,0c0,1.45,0,3,0,4.65
						c0.01,5.74,0.02,11.49,0.03,15.12l-8.71-7.08c-0.42-0.35-0.67-0.86-0.67-1.41v-3.27l-3.64,2.28v2.73
						c0,0.55,0.25,1.07,0.67,1.41l16.01,13.01V92.7z"/>
				</g>
			</g>
		</g>
		<g>
			<g>
				<path class="st3" d="M45.93,120.82c-0.47-0.21-0.86-0.51-1.17-0.9l1.08-1.29c0.45,0.61,0.97,0.92,1.56,0.92
					c0.79,0,1.18-0.46,1.18-1.39v-3.99h-2.94v-1.56h4.87v5.43c0,1.03-0.26,1.8-0.77,2.32c-0.51,0.51-1.26,0.77-2.25,0.77
					C46.92,121.12,46.4,121.02,45.93,120.82z"/>
				<path class="st3" d="M58.08,116.67h1.77v3.4c-0.45,0.34-0.98,0.61-1.58,0.79c-0.6,0.18-1.2,0.28-1.81,0.28
					c-0.87,0-1.65-0.19-2.35-0.56c-0.69-0.37-1.24-0.89-1.63-1.54s-0.59-1.4-0.59-2.23c0-0.83,0.2-1.57,0.59-2.23
					s0.94-1.17,1.65-1.54c0.7-0.37,1.49-0.56,2.37-0.56c0.73,0,1.4,0.12,2,0.37s1.1,0.61,1.51,1.08l-1.24,1.15
					c-0.6-0.63-1.32-0.95-2.17-0.95c-0.53,0-1.01,0.11-1.42,0.34c-0.41,0.22-0.74,0.54-0.97,0.95s-0.35,0.87-0.35,1.4
					c0,0.52,0.12,0.98,0.35,1.39c0.23,0.41,0.55,0.72,0.96,0.95c0.41,0.23,0.88,0.34,1.41,0.34c0.56,0,1.06-0.12,1.51-0.36v-2.47
					H58.08z"/>
				<path class="st3" d="M70.55,119.18h-3.89l-0.74,1.8h-1.99l3.73-8.38h1.91l3.75,8.38h-2.03L70.55,119.18z M69.94,117.71
					l-1.33-3.21l-1.33,3.21H69.94z"/>
				<path class="st3" d="M74.2,112.61h1.94v6.8h4.2v1.58H74.2V112.61z"/>
				<path class="st3" d="M83.37,114.17v2.21h3.88v1.56h-3.88v3.05h-1.94v-8.38h6.33v1.56L83.37,114.17L83.37,114.17z"/>
				<path class="st3" d="M94.25,119.18h-3.89l-0.74,1.8h-1.99l3.73-8.38h1.91l3.75,8.38h-2.03L94.25,119.18z M93.64,117.71
					l-1.33-3.21l-1.33,3.21H93.64z"/>
				<path class="st3" d="M97.9,112.61h1.94v6.8h4.2v1.58H97.9V112.61z"/>
				<path class="st3" d="M110.71,119.18h-3.89l-0.74,1.8h-1.99l3.73-8.38h1.91l3.75,8.38h-2.03L110.71,119.18z M110.1,117.71
					l-1.33-3.21l-1.33,3.21H110.1z"/>
				<path class="st3" d="M122.05,112.61v8.38h-1.94v-3.43h-3.81v3.43h-1.94v-8.38h1.94v3.3h3.81v-3.3H122.05z"/>
			</g>
			<g class="st4">
				<path class="st3" d="M61.05,129.2l-0.01-2.93l-1.44,2.41h-0.51l-1.43-2.35v2.86H56.6v-4.88h0.93l1.83,3.03l1.8-3.03h0.93
					l0.01,4.88h-1.05V129.2z"/>
				<path class="st3" d="M66.47,128.15h-2.26l-0.43,1.05h-1.16l2.17-4.88h1.11l2.18,4.88H66.9L66.47,128.15z M66.12,127.3
					l-0.77-1.87l-0.77,1.87H66.12z"/>
				<path class="st3" d="M73.07,124.33v4.88h-0.93l-2.43-2.96v2.96H68.6v-4.88h0.93l2.42,2.96v-2.96H73.07z"/>
				<path class="st3" d="M77.44,128.15h-2.26l-0.43,1.05h-1.16l2.17-4.88h1.11l2.18,4.88h-1.18L77.44,128.15z M77.08,127.3
					l-0.77-1.87l-0.77,1.87H77.08z"/>
				<path class="st3" d="M82.79,126.68h1.03v1.98c-0.26,0.2-0.57,0.35-0.92,0.46c-0.35,0.11-0.7,0.16-1.05,0.16
					c-0.51,0-0.96-0.11-1.37-0.32c-0.4-0.22-0.72-0.52-0.95-0.9s-0.34-0.82-0.34-1.3c0-0.48,0.11-0.92,0.34-1.3
					c0.23-0.38,0.55-0.68,0.96-0.9s0.87-0.32,1.38-0.32c0.43,0,0.82,0.07,1.16,0.22c0.35,0.14,0.64,0.35,0.88,0.63l-0.72,0.67
					c-0.35-0.37-0.77-0.55-1.26-0.55c-0.31,0-0.59,0.07-0.83,0.2s-0.43,0.31-0.56,0.55s-0.2,0.51-0.2,0.82c0,0.3,0.07,0.57,0.2,0.81
					c0.13,0.24,0.32,0.42,0.56,0.55c0.24,0.13,0.51,0.2,0.82,0.2c0.33,0,0.62-0.07,0.88-0.21v-1.45H82.79z"/>
				<path class="st3" d="M88.64,128.3v0.91h-3.78v-4.88h3.69v0.91h-2.56v1.06h2.26v0.88h-2.26v1.13h2.65V128.3z"/>
				<path class="st3" d="M93.98,129.2l-0.01-2.93l-1.44,2.41h-0.51l-1.43-2.35v2.86h-1.06v-4.88h0.93l1.83,3.03l1.8-3.03h0.93
					l0.01,4.88h-1.05V129.2z"/>
				<path class="st3" d="M99.97,128.3v0.91h-3.78v-4.88h3.69v0.91h-2.56v1.06h2.26v0.88h-2.26v1.13h2.65V128.3z"/>
				<path class="st3" d="M105.35,124.33v4.88h-0.93l-2.43-2.96v2.96h-1.11v-4.88h0.93l2.42,2.96v-2.96H105.35z"/>
				<path class="st3" d="M107.51,125.24h-1.56v-0.92h4.25v0.92h-1.56v3.96h-1.13V125.24z"/>
			</g>
		</g>
	</g>
	<g>
		<g>
			<g>
				<path class="st0" d="M208.31,74.46c0.17,0.12,0.42,0.25,0.76,0.37s0.75,0.18,1.22,0.18c0.46,0,0.83-0.07,1.11-0.22
					c0.29-0.15,0.51-0.38,0.66-0.68c0.16-0.3,0.26-0.69,0.32-1.17c0.06-0.47,0.09-1.03,0.09-1.68v-5.82h1.75v5.58
					c0,0.81-0.04,1.56-0.13,2.24s-0.26,1.27-0.52,1.77c-0.26,0.5-0.65,0.88-1.16,1.15s-1.2,0.4-2.07,0.4
					c-0.51,0-0.96-0.06-1.36-0.17c-0.4-0.11-0.76-0.29-1.09-0.51L208.31,74.46z"/>
				<path class="st0" d="M221.11,76.59c-0.73,0-1.41-0.15-2.04-0.45s-1.19-0.71-1.66-1.24c-0.47-0.52-0.84-1.13-1.11-1.81
					c-0.26-0.68-0.4-1.4-0.4-2.16s0.13-1.47,0.4-2.13c0.27-0.67,0.63-1.25,1.11-1.77c0.47-0.51,1.03-0.92,1.67-1.22
					s1.33-0.44,2.08-0.44c1.06,0,1.95,0.22,2.67,0.66s1.26,1.03,1.63,1.75l-1.34,0.97c-0.3-0.6-0.72-1.05-1.25-1.36
					c-0.53-0.3-1.11-0.45-1.75-0.45c-0.53,0-1.01,0.11-1.43,0.33c-0.42,0.22-0.78,0.52-1.08,0.9s-0.53,0.81-0.69,1.29
					s-0.24,0.99-0.24,1.52c0,0.56,0.09,1.09,0.26,1.57s0.43,0.92,0.75,1.29s0.7,0.66,1.14,0.87s0.9,0.31,1.4,0.31
					c0.61,0,1.19-0.15,1.74-0.46c0.54-0.31,1.06-0.77,1.54-1.38v1.78C223.54,76.04,222.41,76.59,221.11,76.59z M224.32,72.21h-2.31
					V70.9h3.79v5.61h-1.48V72.21z"/>
				<path class="st0" d="M234.84,65.45h1.65l4.3,11.07h-1.84l-1.08-3.01h-4.42l-1.09,3.01h-1.84L234.84,65.45z M237.41,72.21
					l-1.74-4.85l-1.75,4.85H237.41z"/>
				<path class="st0" d="M241.96,65.12h1.71v9.07c0,0.41,0.06,0.67,0.19,0.79c0.12,0.12,0.28,0.18,0.47,0.18
					c0.2,0,0.39-0.03,0.58-0.08c0.19-0.05,0.35-0.1,0.48-0.14l0.25,1.34c-0.25,0.1-0.55,0.19-0.89,0.27
					c-0.34,0.07-0.65,0.11-0.92,0.11c-0.59,0-1.05-0.16-1.38-0.49c-0.33-0.33-0.49-0.78-0.49-1.37L241.96,65.12L241.96,65.12z"/>
				<path class="st0" d="M247.1,76.51v-6.62h-1.09v-1.31h1.09v-0.34c0-0.67,0.11-1.24,0.32-1.73s0.51-0.87,0.9-1.13
					c0.39-0.27,0.85-0.4,1.38-0.4c0.32,0,0.65,0.04,0.97,0.12c0.33,0.08,0.64,0.2,0.93,0.36l-0.37,1.29
					c-0.16-0.09-0.34-0.17-0.54-0.23c-0.21-0.06-0.42-0.09-0.62-0.09c-0.39,0-0.7,0.15-0.92,0.46s-0.33,0.73-0.33,1.29v0.41h2.09
					v1.31h-2.09v6.62L247.1,76.51L247.1,76.51z"/>
				<path class="st0" d="M251.59,74.15c0-0.51,0.15-0.96,0.44-1.35c0.3-0.39,0.71-0.68,1.23-0.9c0.53-0.21,1.12-0.32,1.8-0.32
					c0.36,0,0.73,0.03,1.11,0.09s0.71,0.14,1.01,0.24v-0.51c0-0.56-0.17-1-0.51-1.32s-0.84-0.48-1.48-0.48
					c-0.46,0-0.89,0.08-1.29,0.23s-0.84,0.39-1.29,0.7l-0.56-1.17c0.52-0.35,1.05-0.62,1.6-0.8s1.13-0.27,1.73-0.27
					c1.09,0,1.95,0.29,2.57,0.86s0.94,1.38,0.94,2.43v3c0,0.2,0.04,0.33,0.11,0.42c0.07,0.08,0.19,0.13,0.36,0.14v1.37
					c-0.16,0.03-0.29,0.05-0.41,0.06s-0.22,0.02-0.3,0.03c-0.37-0.01-0.65-0.1-0.84-0.28s-0.3-0.38-0.33-0.62l-0.05-0.47
					c-0.34,0.46-0.79,0.81-1.35,1.06s-1.11,0.37-1.68,0.37c-0.54,0-1.02-0.11-1.45-0.33s-0.76-0.52-1-0.9S251.59,74.62,251.59,74.15
					z M256.78,74.65c0.11-0.14,0.21-0.28,0.29-0.41c0.08-0.13,0.12-0.26,0.12-0.37v-0.9c-0.29-0.11-0.6-0.2-0.92-0.25
					c-0.32-0.06-0.63-0.08-0.94-0.08c-0.63,0-1.15,0.12-1.54,0.37s-0.58,0.58-0.58,1.01c0,0.23,0.06,0.46,0.19,0.67
					s0.32,0.38,0.56,0.52c0.24,0.14,0.54,0.21,0.9,0.21c0.38,0,0.75-0.07,1.09-0.22S256.57,74.86,256.78,74.65z"/>
				<path class="st0" d="M260.99,65.12h1.71v9.07c0,0.41,0.06,0.67,0.19,0.79c0.12,0.12,0.28,0.18,0.47,0.18
					c0.2,0,0.39-0.03,0.58-0.08c0.19-0.05,0.35-0.1,0.48-0.14l0.25,1.34c-0.25,0.1-0.55,0.19-0.89,0.27
					c-0.34,0.07-0.65,0.11-0.92,0.11c-0.59,0-1.05-0.16-1.38-0.49c-0.33-0.33-0.49-0.78-0.49-1.37L260.99,65.12L260.99,65.12z"/>
				<path class="st0" d="M265.07,74.15c0-0.51,0.15-0.96,0.44-1.35c0.3-0.39,0.71-0.68,1.23-0.9c0.53-0.21,1.12-0.32,1.8-0.32
					c0.36,0,0.73,0.03,1.11,0.09s0.71,0.14,1.01,0.24v-0.51c0-0.56-0.17-1-0.51-1.32s-0.84-0.48-1.48-0.48
					c-0.46,0-0.89,0.08-1.29,0.23s-0.84,0.39-1.29,0.7l-0.56-1.17c0.52-0.35,1.05-0.62,1.6-0.8s1.13-0.27,1.73-0.27
					c1.09,0,1.95,0.29,2.57,0.86s0.94,1.38,0.94,2.43v3c0,0.2,0.04,0.33,0.11,0.42c0.07,0.08,0.19,0.13,0.36,0.14v1.37
					c-0.16,0.03-0.29,0.05-0.41,0.06s-0.22,0.02-0.3,0.03c-0.37-0.01-0.65-0.1-0.84-0.28s-0.3-0.38-0.33-0.62l-0.05-0.47
					c-0.34,0.46-0.79,0.81-1.35,1.06s-1.11,0.37-1.68,0.37c-0.54,0-1.02-0.11-1.45-0.33s-0.76-0.52-1-0.9S265.07,74.62,265.07,74.15
					z M270.26,74.65c0.11-0.14,0.21-0.28,0.29-0.41c0.08-0.13,0.12-0.26,0.12-0.37v-0.9c-0.29-0.11-0.6-0.2-0.92-0.25
					c-0.32-0.06-0.63-0.08-0.94-0.08c-0.63,0-1.15,0.12-1.54,0.37s-0.58,0.58-0.58,1.01c0,0.23,0.06,0.46,0.19,0.67
					s0.32,0.38,0.56,0.52c0.24,0.14,0.54,0.21,0.9,0.21c0.38,0,0.75-0.07,1.09-0.22S270.05,74.86,270.26,74.65z"/>
				<path class="st0" d="M281.76,76.51h-1.7v-4.51c0-0.73-0.14-1.27-0.41-1.63c-0.28-0.36-0.66-0.54-1.15-0.54
					c-0.31,0-0.63,0.08-0.94,0.25c-0.32,0.16-0.6,0.39-0.84,0.67s-0.43,0.61-0.55,0.97v4.8h-1.71V65.13h1.71v4.91
					c0.31-0.55,0.74-0.97,1.28-1.28s1.12-0.46,1.75-0.46c0.52,0,0.94,0.09,1.27,0.26c0.33,0.18,0.59,0.41,0.78,0.72
					c0.19,0.3,0.33,0.65,0.41,1.04c0.08,0.39,0.12,0.81,0.12,1.27v4.91H281.76z"/>
				<path class="st0" d="M297.13,76.51v-7.89l-3.26,5.98h-1.03l-3.26-5.98v7.89h-1.76V65.45h1.87l3.66,6.75l3.66-6.75h1.87v11.07
					h-1.75V76.51z"/>
				<path class="st0" d="M300.57,74.15c0-0.51,0.15-0.96,0.44-1.35c0.3-0.39,0.71-0.68,1.23-0.9c0.53-0.21,1.12-0.32,1.8-0.32
					c0.36,0,0.73,0.03,1.11,0.09s0.71,0.14,1.01,0.24v-0.51c0-0.56-0.17-1-0.51-1.32s-0.84-0.48-1.48-0.48
					c-0.46,0-0.89,0.08-1.29,0.23s-0.84,0.39-1.29,0.7l-0.56-1.17c0.52-0.35,1.05-0.62,1.6-0.8s1.13-0.27,1.73-0.27
					c1.09,0,1.95,0.29,2.57,0.86s0.94,1.38,0.94,2.43v3c0,0.2,0.04,0.33,0.11,0.42c0.07,0.08,0.19,0.13,0.36,0.14v1.37
					c-0.16,0.03-0.29,0.05-0.41,0.06s-0.22,0.02-0.3,0.03c-0.37-0.01-0.65-0.1-0.84-0.28s-0.3-0.38-0.33-0.62l-0.05-0.47
					c-0.34,0.46-0.79,0.81-1.35,1.06s-1.11,0.37-1.68,0.37c-0.54,0-1.02-0.11-1.45-0.33s-0.76-0.52-1-0.9S300.57,74.62,300.57,74.15
					z M305.76,74.65c0.11-0.14,0.21-0.28,0.29-0.41c0.08-0.13,0.12-0.26,0.12-0.37v-0.9c-0.29-0.11-0.6-0.2-0.92-0.25
					c-0.32-0.06-0.63-0.08-0.94-0.08c-0.63,0-1.15,0.12-1.54,0.37s-0.58,0.58-0.58,1.01c0,0.23,0.06,0.46,0.19,0.67
					s0.32,0.38,0.56,0.52c0.24,0.14,0.54,0.21,0.9,0.21c0.38,0,0.75-0.07,1.09-0.22S305.56,74.86,305.76,74.65z"/>
				<path class="st0" d="M317.27,76.51h-1.7v-4.51c0-0.76-0.12-1.31-0.37-1.66c-0.25-0.34-0.61-0.52-1.09-0.52
					c-0.33,0-0.66,0.08-0.99,0.25s-0.62,0.39-0.87,0.67s-0.44,0.6-0.57,0.97v4.8h-1.71v-8.09h1.56v1.62
					c0.21-0.36,0.48-0.67,0.81-0.93c0.33-0.26,0.71-0.46,1.14-0.6s0.88-0.22,1.36-0.22c0.49,0,0.89,0.09,1.22,0.26
					c0.32,0.18,0.57,0.41,0.75,0.72c0.18,0.3,0.3,0.65,0.37,1.05s0.11,0.82,0.11,1.26v4.93H317.27z"/>
				<path class="st0" d="M318.67,74.15c0-0.51,0.15-0.96,0.44-1.35c0.3-0.39,0.71-0.68,1.23-0.9c0.53-0.21,1.12-0.32,1.8-0.32
					c0.36,0,0.73,0.03,1.11,0.09s0.71,0.14,1.01,0.24v-0.51c0-0.56-0.17-1-0.51-1.32s-0.84-0.48-1.48-0.48
					c-0.46,0-0.89,0.08-1.29,0.23s-0.84,0.39-1.29,0.7l-0.56-1.17c0.52-0.35,1.05-0.62,1.6-0.8s1.13-0.27,1.73-0.27
					c1.09,0,1.95,0.29,2.57,0.86s0.94,1.38,0.94,2.43v3c0,0.2,0.04,0.33,0.11,0.42c0.07,0.08,0.19,0.13,0.36,0.14v1.37
					c-0.16,0.03-0.29,0.05-0.41,0.06s-0.22,0.02-0.3,0.03c-0.37-0.01-0.65-0.1-0.84-0.28s-0.3-0.38-0.33-0.62l-0.05-0.47
					c-0.34,0.46-0.79,0.81-1.35,1.06s-1.11,0.37-1.68,0.37c-0.54,0-1.02-0.11-1.45-0.33s-0.76-0.52-1-0.9S318.67,74.62,318.67,74.15
					z M323.86,74.65c0.11-0.14,0.21-0.28,0.29-0.41c0.08-0.13,0.12-0.26,0.12-0.37v-0.9c-0.29-0.11-0.6-0.2-0.92-0.25
					c-0.32-0.06-0.63-0.08-0.94-0.08c-0.63,0-1.15,0.12-1.54,0.37s-0.58,0.58-0.58,1.01c0,0.23,0.06,0.46,0.19,0.67
					s0.32,0.38,0.56,0.52c0.24,0.14,0.54,0.21,0.9,0.21c0.38,0,0.75-0.07,1.09-0.22S323.65,74.86,323.86,74.65z"/>
				<path class="st0" d="M331.28,76.67c-0.55,0-1.05-0.11-1.51-0.33c-0.46-0.22-0.85-0.53-1.18-0.91s-0.58-0.83-0.76-1.32
					c-0.18-0.5-0.26-1.02-0.26-1.57c0-0.58,0.09-1.13,0.27-1.64s0.44-0.96,0.78-1.35s0.73-0.69,1.19-0.91s0.97-0.33,1.53-0.33
					c0.65,0,1.23,0.15,1.72,0.45s0.9,0.7,1.22,1.2v-1.53h1.51v7.87c0,0.79-0.19,1.45-0.57,2s-0.9,0.97-1.55,1.26
					s-1.39,0.43-2.2,0.43c-0.9,0-1.65-0.16-2.25-0.47s-1.1-0.74-1.52-1.28l0.95-0.9c0.33,0.44,0.74,0.77,1.23,1s1.02,0.34,1.59,0.34
					c0.47,0,0.9-0.08,1.29-0.25s0.71-0.42,0.95-0.77c0.24-0.35,0.36-0.78,0.36-1.31v-1.23c-0.29,0.48-0.69,0.85-1.2,1.13
					C332.37,76.52,331.84,76.67,331.28,76.67z M331.84,75.27c0.26,0,0.51-0.05,0.75-0.14c0.24-0.09,0.46-0.21,0.66-0.36
					s0.38-0.32,0.52-0.51s0.25-0.4,0.31-0.61v-2.14c-0.13-0.35-0.32-0.66-0.57-0.92c-0.24-0.26-0.52-0.46-0.83-0.62
					c-0.31-0.15-0.63-0.23-0.97-0.23c-0.37,0-0.71,0.08-1.01,0.24c-0.3,0.16-0.55,0.37-0.76,0.64s-0.37,0.56-0.48,0.9
					c-0.12,0.33-0.17,0.68-0.17,1.03c0,0.36,0.06,0.71,0.19,1.04c0.13,0.33,0.31,0.62,0.54,0.87s0.5,0.45,0.8,0.59
					C331.14,75.21,331.47,75.27,331.84,75.27z"/>
				<path class="st0" d="M341.55,76.67c-0.64,0-1.22-0.11-1.73-0.33s-0.95-0.53-1.32-0.91s-0.66-0.83-0.87-1.33
					c-0.2-0.5-0.3-1.03-0.3-1.59c0-0.77,0.18-1.47,0.53-2.11c0.35-0.64,0.85-1.15,1.49-1.53c0.64-0.38,1.37-0.57,2.21-0.57
					c0.86,0,1.6,0.19,2.22,0.58s1.1,0.89,1.44,1.52s0.51,1.3,0.51,2.02c0,0.12-0.01,0.24-0.02,0.35c-0.01,0.11-0.02,0.19-0.03,0.25
					h-6.55c0.05,0.48,0.19,0.9,0.42,1.25s0.52,0.63,0.89,0.83c0.36,0.2,0.75,0.3,1.15,0.3c0.47,0,0.91-0.11,1.32-0.34
					s0.69-0.53,0.83-0.9l1.46,0.42c-0.18,0.4-0.45,0.75-0.81,1.07s-0.79,0.57-1.27,0.75C342.65,76.58,342.12,76.67,341.55,76.67z
					 M339.1,71.9h4.92c-0.04-0.47-0.17-0.88-0.4-1.22s-0.52-0.62-0.88-0.82c-0.36-0.2-0.76-0.3-1.18-0.3c-0.44,0-0.83,0.1-1.19,0.3
					s-0.65,0.47-0.88,0.82S339.13,71.43,339.1,71.9z"/>
				<path class="st0" d="M359.59,76.51h-1.7v-4.51c0-0.75-0.13-1.3-0.38-1.65s-0.62-0.52-1.1-0.52s-0.92,0.18-1.33,0.53
					s-0.7,0.81-0.87,1.38v4.78h-1.71v-4.51c0-0.76-0.12-1.31-0.37-1.66c-0.24-0.34-0.61-0.52-1.1-0.52c-0.47,0-0.91,0.17-1.32,0.51
					s-0.7,0.8-0.88,1.37v4.8h-1.71v-8.09h1.56v1.62c0.32-0.56,0.75-0.99,1.27-1.29c0.52-0.3,1.12-0.46,1.8-0.46s1.21,0.17,1.6,0.52
					c0.39,0.34,0.64,0.78,0.74,1.32c0.34-0.6,0.77-1.05,1.29-1.37c0.51-0.31,1.1-0.47,1.77-0.47c0.48,0,0.88,0.09,1.19,0.26
					c0.32,0.18,0.57,0.41,0.75,0.72c0.18,0.3,0.31,0.65,0.39,1.05c0.08,0.4,0.12,0.82,0.12,1.26L359.59,76.51L359.59,76.51z"/>
				<path class="st0" d="M365.27,76.67c-0.64,0-1.22-0.11-1.73-0.33s-0.95-0.53-1.32-0.91s-0.66-0.83-0.87-1.33
					c-0.2-0.5-0.3-1.03-0.3-1.59c0-0.77,0.18-1.47,0.53-2.11c0.35-0.64,0.85-1.15,1.49-1.53c0.64-0.38,1.37-0.57,2.21-0.57
					c0.86,0,1.6,0.19,2.22,0.58s1.1,0.89,1.44,1.52s0.51,1.3,0.51,2.02c0,0.12-0.01,0.24-0.02,0.35c-0.01,0.11-0.02,0.19-0.03,0.25
					h-6.55c0.05,0.48,0.19,0.9,0.42,1.25s0.52,0.63,0.89,0.83c0.36,0.2,0.75,0.3,1.15,0.3c0.47,0,0.91-0.11,1.32-0.34
					s0.69-0.53,0.83-0.9l1.46,0.42c-0.18,0.4-0.45,0.75-0.81,1.07s-0.79,0.57-1.27,0.75C366.37,76.58,365.84,76.67,365.27,76.67z
					 M362.82,71.9h4.92c-0.04-0.47-0.17-0.88-0.4-1.22s-0.52-0.62-0.88-0.82c-0.36-0.2-0.76-0.3-1.18-0.3c-0.44,0-0.83,0.1-1.19,0.3
					s-0.65,0.47-0.88,0.82S362.85,71.43,362.82,71.9z"/>
				<path class="st0" d="M378.15,76.51h-1.7v-4.51c0-0.76-0.12-1.31-0.37-1.66c-0.25-0.34-0.61-0.52-1.09-0.52
					c-0.33,0-0.66,0.08-0.99,0.25s-0.62,0.39-0.87,0.67s-0.44,0.6-0.57,0.97v4.8h-1.71v-8.09h1.56v1.62
					c0.21-0.36,0.48-0.67,0.81-0.93c0.33-0.26,0.71-0.46,1.14-0.6s0.88-0.22,1.36-0.22c0.49,0,0.89,0.09,1.22,0.26
					c0.32,0.18,0.57,0.41,0.75,0.72c0.18,0.3,0.3,0.65,0.37,1.05s0.11,0.82,0.11,1.26v4.93H378.15z"/>
				<path class="st0" d="M384.68,76.12c-0.13,0.06-0.32,0.14-0.54,0.23s-0.48,0.16-0.75,0.23c-0.27,0.06-0.55,0.09-0.84,0.09
					c-0.35,0-0.68-0.06-0.98-0.19c-0.3-0.13-0.54-0.33-0.73-0.6c-0.18-0.27-0.27-0.62-0.27-1.04v-5.09h-1.09v-1.32h1.09v-2.68h1.71
					v2.68h1.78v1.32h-1.78v4.52c0.02,0.28,0.11,0.49,0.27,0.62s0.36,0.2,0.6,0.2s0.47-0.04,0.69-0.13s0.38-0.15,0.46-0.19
					L384.68,76.12z"/>
				<path class="st0" d="M389.3,71.1c0-1.05,0.22-2.09,0.66-3.12s0.97-2.09,1.6-3.16l1.31,0.56c-0.19,0.28-0.39,0.64-0.62,1.08
					c-0.22,0.44-0.44,0.92-0.66,1.45c-0.21,0.53-0.38,1.07-0.51,1.63s-0.2,1.09-0.2,1.61c0,0.84,0.18,1.72,0.53,2.64
					s0.82,1.86,1.4,2.81l-1.25,0.65c-0.45-0.65-0.84-1.32-1.18-2.01s-0.61-1.38-0.8-2.07C389.4,72.48,389.3,71.79,389.3,71.1z"/>
				<path class="st0" d="M394.55,76.51V65.45h4.64c0.5,0,0.96,0.1,1.37,0.31c0.42,0.21,0.78,0.48,1.09,0.83
					c0.31,0.34,0.55,0.73,0.72,1.16s0.25,0.87,0.25,1.3c0,0.61-0.14,1.2-0.41,1.75c-0.28,0.55-0.66,1-1.16,1.35
					s-1.09,0.52-1.76,0.52h-2.98v3.85L394.55,76.51L394.55,76.51z M396.31,71.12h2.87c0.32,0,0.61-0.09,0.86-0.27
					s0.45-0.43,0.59-0.75s0.22-0.67,0.22-1.07s-0.08-0.76-0.25-1.07s-0.38-0.55-0.65-0.72c-0.26-0.17-0.55-0.26-0.85-0.26h-2.79
					L396.31,71.12L396.31,71.12z"/>
				<path class="st0" d="M406.3,76.51l-3.09-8.09h1.78l2.31,6.51l2.34-6.51h1.64l-3.09,8.09H406.3z"/>
				<path class="st0" d="M417.05,76.12c-0.13,0.06-0.32,0.14-0.54,0.23s-0.48,0.16-0.75,0.23c-0.27,0.06-0.55,0.09-0.84,0.09
					c-0.35,0-0.68-0.06-0.98-0.19c-0.3-0.13-0.54-0.33-0.73-0.6c-0.18-0.27-0.27-0.62-0.27-1.04v-5.09h-1.09v-1.32h1.09v-2.68h1.71
					v2.68h1.78v1.32h-1.78v4.52c0.02,0.28,0.11,0.49,0.27,0.62s0.36,0.2,0.6,0.2s0.47-0.04,0.69-0.13s0.38-0.15,0.46-0.19
					L417.05,76.12z"/>
				<path class="st0" d="M421.21,71.1c0,0.69-0.1,1.38-0.3,2.07c-0.2,0.7-0.47,1.39-0.81,2.07c-0.34,0.69-0.73,1.36-1.17,2.01
					l-1.26-0.65c0.58-0.96,1.05-1.89,1.4-2.81s0.53-1.8,0.53-2.64c0-0.52-0.07-1.06-0.2-1.61s-0.3-1.1-0.51-1.63
					c-0.21-0.53-0.43-1.01-0.66-1.45s-0.42-0.79-0.6-1.08l1.32-0.56c0.62,1.07,1.15,2.12,1.59,3.16
					C421,69.01,421.21,70.05,421.21,71.1z"/>
				<path class="st0" d="M426.92,76.51V65.45h1.76v9.52h5.92v1.54H426.92z"/>
				<path class="st0" d="M440.34,76.12c-0.13,0.06-0.32,0.14-0.54,0.23s-0.48,0.16-0.75,0.23c-0.27,0.06-0.55,0.09-0.84,0.09
					c-0.35,0-0.68-0.06-0.98-0.19c-0.3-0.13-0.54-0.33-0.73-0.6c-0.18-0.27-0.27-0.62-0.27-1.04v-5.09h-1.09v-1.32h1.09v-2.68h1.71
					v2.68h1.78v1.32h-1.78v4.52c0.02,0.28,0.11,0.49,0.27,0.62s0.36,0.2,0.6,0.2s0.47-0.04,0.69-0.13s0.38-0.15,0.46-0.19
					L440.34,76.12z"/>
				<path class="st0" d="M441.01,72.48c0-0.77,0.16-1.47,0.47-2.11c0.32-0.63,0.75-1.14,1.3-1.51c0.55-0.38,1.18-0.56,1.9-0.56
					c0.63,0,1.2,0.16,1.71,0.48s0.89,0.72,1.16,1.18v-4.83h1.71v9.44c0,0.19,0.04,0.32,0.11,0.41c0.07,0.09,0.19,0.14,0.36,0.15
					v1.37c-0.31,0.05-0.56,0.08-0.75,0.09c-0.32,0-0.59-0.1-0.81-0.29s-0.34-0.42-0.36-0.68l-0.02-0.59
					c-0.32,0.51-0.75,0.91-1.27,1.19s-1.07,0.43-1.64,0.43c-0.56,0-1.08-0.11-1.55-0.33s-0.88-0.52-1.23-0.91s-0.62-0.83-0.81-1.33
					C441.1,73.6,441.01,73.05,441.01,72.48z M447.55,73.6v-2.1c-0.11-0.33-0.3-0.62-0.55-0.88s-0.54-0.46-0.86-0.62
					s-0.64-0.24-0.96-0.24c-0.35,0-0.68,0.08-0.97,0.23s-0.55,0.36-0.76,0.61s-0.38,0.54-0.49,0.88c-0.12,0.33-0.17,0.68-0.17,1.04
					c0,0.36,0.06,0.7,0.19,1.03c0.12,0.33,0.3,0.62,0.54,0.87c0.23,0.25,0.5,0.45,0.81,0.58s0.64,0.21,1,0.21
					c0.23,0,0.46-0.04,0.69-0.12s0.46-0.19,0.66-0.33c0.21-0.14,0.39-0.32,0.54-0.52C447.38,74.04,447.49,73.83,447.55,73.6z"/>
				<path class="st0" d="M451.37,76.51v-1.99h1.42v1.99H451.37z"/>
				<path class="st0" d="M300.32,97.84V86.77h4.82c0.5,0,0.96,0.1,1.37,0.31c0.42,0.21,0.78,0.48,1.08,0.83
					c0.31,0.34,0.54,0.73,0.72,1.16c0.17,0.43,0.26,0.87,0.26,1.3c0,0.5-0.09,0.97-0.26,1.41c-0.18,0.44-0.43,0.82-0.76,1.15
					c-0.33,0.32-0.71,0.56-1.15,0.7l2.6,4.21h-1.96l-2.4-3.85h-2.56v3.85L300.32,97.84L300.32,97.84z M302.09,92.43h3.04
					c0.32,0,0.61-0.1,0.86-0.29s0.45-0.44,0.59-0.76s0.22-0.65,0.22-1.03s-0.09-0.73-0.26-1.04s-0.39-0.56-0.65-0.74
					s-0.55-0.27-0.86-0.27h-2.95v4.13H302.09z"/>
				<path class="st0" d="M310.63,97.84V86.77h1.76v9.52h5.92v1.54h-7.68V97.84z"/>
				<path class="st0" d="M323.28,94.34V92.8h4.64v1.54H323.28z"/>
				<path class="st0" d="M339.71,96.29v1.54h-5.95v-1.54h2.21v-5.45c-0.09,0.12-0.24,0.26-0.44,0.4c-0.2,0.14-0.42,0.27-0.67,0.39
					c-0.25,0.12-0.5,0.22-0.74,0.29s-0.47,0.11-0.68,0.11v-1.61c0.21,0,0.45-0.06,0.72-0.19c0.28-0.12,0.54-0.27,0.8-0.44
					c0.26-0.17,0.48-0.34,0.67-0.5s0.3-0.28,0.33-0.35h1.76v7.36L339.71,96.29L339.71,96.29z"/>
				<path class="st0" d="M348.71,94.65c0,0.67-0.18,1.25-0.54,1.75s-0.84,0.89-1.45,1.17c-0.61,0.28-1.27,0.42-1.99,0.42
					c-0.74,0-1.41-0.15-2-0.45s-1.07-0.71-1.41-1.22s-0.51-1.09-0.51-1.75c0-0.44,0.1-0.83,0.29-1.19s0.43-0.65,0.72-0.9
					s0.59-0.43,0.9-0.57c-0.28-0.12-0.54-0.3-0.78-0.51c-0.24-0.22-0.43-0.47-0.58-0.75s-0.22-0.58-0.22-0.9
					c0-0.48,0.11-0.9,0.32-1.28s0.5-0.69,0.86-0.94s0.75-0.44,1.17-0.57s0.84-0.19,1.25-0.19c0.42,0,0.84,0.07,1.26,0.19
					c0.43,0.13,0.82,0.32,1.18,0.57s0.64,0.56,0.86,0.92c0.21,0.36,0.32,0.79,0.32,1.29c0,0.31-0.07,0.61-0.21,0.9
					c-0.14,0.29-0.33,0.54-0.58,0.76c-0.24,0.22-0.51,0.39-0.79,0.51c0.33,0.16,0.65,0.36,0.94,0.62s0.53,0.56,0.71,0.91
					C348.63,93.8,348.71,94.2,348.71,94.65z M346.97,94.52c0-0.29-0.06-0.56-0.18-0.79c-0.12-0.24-0.29-0.44-0.51-0.6
					c-0.22-0.17-0.47-0.29-0.72-0.38c-0.26-0.08-0.53-0.12-0.81-0.12c-0.37,0-0.73,0.08-1.06,0.23c-0.33,0.16-0.6,0.38-0.81,0.67
					s-0.31,0.63-0.31,1.03c0,0.28,0.06,0.54,0.19,0.77c0.12,0.24,0.29,0.44,0.51,0.6c0.21,0.17,0.45,0.29,0.72,0.38
					c0.26,0.08,0.53,0.12,0.8,0.12c0.37,0,0.73-0.08,1.06-0.24s0.6-0.39,0.82-0.67C346.86,95.23,346.97,94.9,346.97,94.52z
					 M342.9,89.79c0,0.33,0.09,0.61,0.28,0.84s0.43,0.4,0.72,0.51s0.58,0.17,0.86,0.17c0.3,0,0.59-0.06,0.87-0.18
					s0.52-0.29,0.71-0.52c0.19-0.23,0.29-0.51,0.29-0.84c0-0.31-0.09-0.58-0.27-0.79s-0.4-0.39-0.69-0.51
					c-0.28-0.12-0.59-0.18-0.93-0.18c-0.32,0-0.62,0.06-0.9,0.19c-0.28,0.12-0.51,0.3-0.68,0.52
					C342.99,89.23,342.9,89.49,342.9,89.79z"/>
				<path class="st0" d="M357.71,96.09c-0.35,0.58-0.83,1.04-1.43,1.39s-1.28,0.51-2.03,0.51c-0.81,0-1.52-0.2-2.13-0.58
					s-1.08-0.95-1.42-1.69c-0.34-0.74-0.51-1.62-0.51-2.65c0-1.4,0.17-2.58,0.52-3.52c0.35-0.95,0.84-1.66,1.46-2.14
					c0.63-0.48,1.37-0.72,2.24-0.72c0.71,0,1.35,0.16,1.94,0.49s1.06,0.79,1.43,1.38l-1.01,1.06c-0.23-0.45-0.56-0.8-0.98-1.05
					c-0.43-0.25-0.89-0.38-1.4-0.38s-0.96,0.15-1.34,0.44c-0.38,0.3-0.68,0.73-0.9,1.29s-0.33,1.24-0.35,2.03
					c0.16-0.31,0.36-0.58,0.62-0.8s0.55-0.4,0.89-0.52c0.34-0.12,0.7-0.19,1.1-0.19c0.73,0,1.38,0.16,1.96,0.49s1.03,0.77,1.37,1.33
					s0.51,1.19,0.51,1.89C358.24,94.87,358.06,95.51,357.71,96.09z M355.42,96.21c0.36-0.21,0.65-0.5,0.87-0.87s0.33-0.76,0.33-1.18
					s-0.11-0.82-0.33-1.17s-0.5-0.64-0.86-0.85s-0.74-0.32-1.17-0.32c-0.44,0-0.83,0.11-1.19,0.32c-0.36,0.21-0.64,0.49-0.86,0.84
					c-0.21,0.35-0.32,0.74-0.32,1.18c0,0.43,0.11,0.82,0.33,1.18s0.5,0.65,0.86,0.87c0.35,0.22,0.74,0.33,1.17,0.33
					S355.07,96.42,355.42,96.21z"/>
				<path class="st0" d="M365.87,96.29v1.54h-5.95v-1.54h2.21v-5.45c-0.09,0.12-0.24,0.26-0.44,0.4c-0.2,0.14-0.42,0.27-0.67,0.39
					c-0.25,0.12-0.5,0.22-0.74,0.29s-0.47,0.11-0.68,0.11v-1.61c0.21,0,0.45-0.06,0.72-0.19c0.28-0.12,0.54-0.27,0.8-0.44
					c0.26-0.17,0.48-0.34,0.67-0.5s0.3-0.28,0.33-0.35h1.76v7.36L365.87,96.29L365.87,96.29z"/>
			</g>
		</g>
	</g>
</g>
</svg>
