<?xml version="1.0" encoding="utf-8"?>
<!-- Generator: Adobe Illustrator 26.0.3, SVG Export Plug-In . SVG Version: 6.00 Build 0)  -->
<svg version="1.1" id="Layer_1" xmlns="http://www.w3.org/2000/svg" xmlns:xlink="http://www.w3.org/1999/xlink" x="0px" y="0px"
	 viewBox="0 0 513 166" style="enable-background:new 0 0 513 166;" xml:space="preserve">
<style type="text/css">
	.st0{fill:#FFFFFF;}
	.st1{fill:url(#SVGID_1_);}
	.st2{fill:url(#SVGID_00000054231201228225903950000008800643674386238896_);}
	.st3{fill:#69A6FF;}
	.st4{fill:url(#SVGID_00000092430466502691552920000010513448468859906742_);}
	.st5{fill:url(#SVGID_00000178913664715508625890000017465459966205695885_);}
	.st6{fill:url(#SVGID_00000083070909167110578180000004795415691499837066_);}
	.st7{fill:#1B325B;}
	.st8{opacity:0.5;}
</style>
<g>
	<rect x="-0.13" y="-0.45" class="st0" width="173.61" height="166.89"/>
	
		<linearGradient id="SVGID_1_" gradientUnits="userSpaceOnUse" x1="155.577" y1="172.8876" x2="510.3678" y2="6.787" gradientTransform="matrix(1 0 0 -1 0 168)">
		<stop  offset="0" style="stop-color:#00FFAD"/>
		<stop  offset="0.1466" style="stop-color:#00E3B7"/>
		<stop  offset="0.4631" style="stop-color:#009DD0"/>
		<stop  offset="0.9223" style="stop-color:#002DF8"/>
		<stop  offset="0.9995" style="stop-color:#0019FF"/>
	</linearGradient>
	<rect x="173.48" y="-0.45" class="st1" width="339.65" height="166.89"/>
	<g>
		<g>
			<path class="st0" d="M246.79,77.37c-0.11-0.13-0.28-0.27-0.51-0.42c-0.23-0.15-0.5-0.29-0.81-0.41
				c-0.31-0.13-0.64-0.23-1.01-0.32s-0.74-0.13-1.12-0.13c-0.84,0-1.46,0.16-1.87,0.47s-0.61,0.74-0.61,1.29
				c0,0.41,0.11,0.73,0.34,0.97c0.23,0.24,0.58,0.43,1.05,0.58s1.06,0.31,1.75,0.48c0.88,0.2,1.63,0.45,2.26,0.73
				s1.12,0.66,1.46,1.13s0.51,1.09,0.51,1.86c0,0.63-0.12,1.18-0.37,1.65s-0.58,0.84-1.02,1.14c-0.43,0.29-0.93,0.51-1.49,0.65
				c-0.56,0.14-1.17,0.21-1.82,0.21c-0.64,0-1.27-0.07-1.9-0.21c-0.63-0.14-1.23-0.34-1.8-0.59c-0.57-0.26-1.1-0.57-1.59-0.94
				l0.94-1.73c0.14,0.16,0.37,0.33,0.67,0.51c0.3,0.19,0.65,0.36,1.04,0.53s0.82,0.31,1.28,0.42c0.46,0.11,0.93,0.17,1.41,0.17
				c0.8,0,1.42-0.14,1.84-0.42c0.43-0.28,0.64-0.69,0.64-1.22c0-0.42-0.14-0.76-0.42-1.01c-0.28-0.26-0.68-0.47-1.21-0.65
				c-0.52-0.18-1.15-0.36-1.88-0.54c-0.84-0.21-1.54-0.46-2.11-0.73c-0.56-0.27-0.98-0.62-1.26-1.04s-0.41-0.96-0.41-1.63
				c0-0.84,0.2-1.54,0.6-2.12c0.4-0.58,0.96-1.02,1.67-1.31s1.49-0.44,2.36-0.44c0.58,0,1.12,0.06,1.65,0.19
				c0.52,0.13,1.01,0.3,1.46,0.51s0.85,0.46,1.2,0.74L246.79,77.37z"/>
			<path class="st0" d="M255.21,86.7c-0.16,0.07-0.37,0.16-0.63,0.26s-0.55,0.19-0.86,0.26s-0.64,0.11-0.97,0.11
				c-0.41,0-0.79-0.08-1.13-0.22c-0.35-0.15-0.63-0.38-0.84-0.69s-0.32-0.71-0.32-1.2v-5.88h-1.26V77.8h1.26v-3.1h1.98v3.1h2.05
				v1.53h-2.05v5.23c0.02,0.32,0.13,0.56,0.31,0.72c0.19,0.16,0.42,0.23,0.69,0.23c0.28,0,0.54-0.05,0.8-0.15s0.43-0.18,0.53-0.23
				L255.21,86.7z"/>
			<path class="st0" d="M260.85,87.33c-0.74,0-1.41-0.13-2-0.38s-1.1-0.61-1.53-1.05c-0.43-0.45-0.76-0.96-1-1.54
				c-0.23-0.58-0.35-1.19-0.35-1.83c0-0.89,0.2-1.7,0.61-2.44s0.98-1.32,1.72-1.76s1.59-0.66,2.55-0.66c1,0,1.85,0.22,2.56,0.67
				s1.27,1.03,1.67,1.76c0.4,0.73,0.59,1.5,0.59,2.33c0,0.14-0.01,0.28-0.02,0.4s-0.02,0.22-0.04,0.29h-7.56
				c0.06,0.56,0.22,1.04,0.49,1.45c0.26,0.41,0.61,0.73,1.03,0.96s0.86,0.35,1.33,0.35c0.54,0,1.05-0.13,1.52-0.4
				c0.47-0.26,0.79-0.61,0.96-1.04l1.69,0.49c-0.2,0.46-0.52,0.87-0.94,1.23c-0.42,0.37-0.91,0.65-1.47,0.86
				C262.12,87.21,261.51,87.33,260.85,87.33z M258.02,81.82h5.69c-0.05-0.54-0.2-1.01-0.46-1.41s-0.6-0.71-1.02-0.94
				s-0.88-0.34-1.37-0.34c-0.5,0-0.96,0.11-1.38,0.34s-0.75,0.54-1.02,0.94C258.21,80.8,258.06,81.27,258.02,81.82z"/>
			<path class="st0" d="M271.56,87.33c-0.73,0-1.4-0.13-1.99-0.38c-0.59-0.26-1.11-0.61-1.54-1.07c-0.43-0.46-0.76-0.98-1-1.56
				c-0.23-0.58-0.35-1.19-0.35-1.84c0-0.88,0.2-1.69,0.59-2.42c0.4-0.73,0.96-1.31,1.7-1.75s1.6-0.65,2.58-0.65
				c0.96,0,1.8,0.21,2.51,0.64c0.71,0.43,1.25,0.99,1.59,1.7l-1.94,0.59c-0.22-0.38-0.52-0.69-0.9-0.91s-0.82-0.33-1.3-0.33
				c-0.53,0-1,0.13-1.43,0.4s-0.76,0.63-1.01,1.1s-0.37,1.01-0.37,1.62c0,0.6,0.13,1.14,0.38,1.62s0.59,0.85,1.03,1.13
				c0.43,0.28,0.91,0.42,1.42,0.42c0.32,0,0.64-0.06,0.94-0.17c0.3-0.11,0.57-0.27,0.8-0.48c0.23-0.2,0.4-0.42,0.5-0.65l1.93,0.59
				c-0.2,0.46-0.5,0.86-0.9,1.22c-0.4,0.36-0.87,0.65-1.42,0.86C272.82,87.21,272.22,87.33,271.56,87.33z"/>
			<path class="st0" d="M285.79,87.15h-1.96v-5.21c0-0.84-0.16-1.47-0.48-1.89s-0.76-0.62-1.32-0.62c-0.36,0-0.72,0.09-1.09,0.28
				c-0.37,0.19-0.69,0.45-0.97,0.77c-0.28,0.32-0.5,0.7-0.64,1.12v5.55h-1.98V74h1.98v5.67c0.36-0.63,0.85-1.12,1.48-1.48
				c0.62-0.36,1.3-0.53,2.02-0.53c0.6,0,1.09,0.1,1.47,0.3s0.68,0.48,0.9,0.83c0.22,0.35,0.38,0.75,0.47,1.2s0.13,0.94,0.13,1.46
				L285.79,87.15L285.79,87.15z"/>
			<path class="st0" d="M302.17,76.15h-4.25v11h-2.03v-11h-4.27v-1.78h10.55L302.17,76.15L302.17,76.15z"/>
			<path class="st0" d="M308.91,79.43c-0.76,0.01-1.43,0.19-2.03,0.52c-0.59,0.34-1.02,0.81-1.27,1.42v5.76h-1.98V77.8h1.82v2.02
				c0.34-0.64,0.77-1.15,1.3-1.54c0.53-0.39,1.08-0.6,1.66-0.64c0.13,0,0.24,0,0.32,0s0.14,0.01,0.19,0.02L308.91,79.43
				L308.91,79.43z"/>
			<path class="st0" d="M309.68,84.42c0-0.59,0.17-1.11,0.51-1.56s0.82-0.79,1.42-1.03c0.61-0.24,1.3-0.37,2.08-0.37
				c0.42,0,0.85,0.03,1.28,0.1s0.82,0.16,1.17,0.28v-0.59c0-0.65-0.2-1.16-0.59-1.52c-0.4-0.37-0.97-0.55-1.71-0.55
				c-0.53,0-1.03,0.09-1.49,0.27c-0.47,0.18-0.97,0.45-1.49,0.81l-0.65-1.35c0.6-0.41,1.22-0.72,1.85-0.93s1.3-0.31,2-0.31
				c1.26,0,2.25,0.33,2.97,0.99s1.08,1.59,1.08,2.8v3.47c0,0.23,0.04,0.39,0.13,0.48c0.08,0.1,0.22,0.15,0.41,0.16v1.58
				c-0.18,0.04-0.34,0.06-0.48,0.07c-0.14,0.01-0.25,0.02-0.35,0.04c-0.43-0.01-0.76-0.12-0.97-0.32s-0.34-0.44-0.38-0.72
				l-0.05-0.54c-0.4,0.53-0.92,0.94-1.56,1.22c-0.64,0.29-1.29,0.43-1.93,0.43c-0.62,0-1.18-0.13-1.67-0.38
				c-0.49-0.26-0.88-0.6-1.15-1.04C309.82,85.46,309.68,84.96,309.68,84.42z M315.67,84.99c0.13-0.17,0.24-0.32,0.33-0.48
				c0.09-0.15,0.13-0.3,0.13-0.43v-1.04c-0.34-0.13-0.69-0.23-1.06-0.29s-0.73-0.1-1.08-0.1c-0.73,0-1.32,0.14-1.77,0.42
				s-0.67,0.67-0.67,1.17c0,0.27,0.08,0.53,0.22,0.77c0.15,0.24,0.37,0.44,0.65,0.6s0.63,0.24,1.04,0.24c0.44,0,0.86-0.09,1.26-0.26
				C315.12,85.43,315.43,85.24,315.67,84.99z"/>
			<path class="st0" d="M319.92,82.49c0-0.89,0.18-1.7,0.55-2.43c0.37-0.73,0.87-1.31,1.5-1.75c0.64-0.43,1.37-0.65,2.2-0.65
				c0.73,0,1.39,0.19,1.97,0.56c0.58,0.37,1.03,0.83,1.34,1.37v-5.58h1.98v10.91c0,0.22,0.04,0.38,0.13,0.48s0.22,0.16,0.41,0.17
				v1.58c-0.36,0.06-0.65,0.1-0.86,0.11c-0.37,0-0.68-0.11-0.94-0.33c-0.25-0.22-0.39-0.48-0.41-0.78l-0.02-0.68
				c-0.37,0.59-0.86,1.05-1.47,1.38c-0.61,0.33-1.24,0.5-1.9,0.5c-0.65,0-1.25-0.13-1.79-0.38c-0.55-0.26-1.02-0.61-1.42-1.05
				c-0.4-0.45-0.71-0.96-0.94-1.53S319.92,83.15,319.92,82.49z M327.48,83.79v-2.43c-0.13-0.38-0.35-0.72-0.64-1.01
				c-0.29-0.3-0.62-0.54-0.99-0.72s-0.74-0.27-1.11-0.27c-0.41,0-0.78,0.09-1.12,0.27c-0.34,0.18-0.64,0.41-0.88,0.7
				s-0.44,0.63-0.57,1.01s-0.2,0.78-0.2,1.2c0,0.41,0.07,0.81,0.22,1.19c0.14,0.38,0.35,0.71,0.62,1s0.58,0.51,0.94,0.67
				c0.35,0.16,0.74,0.24,1.16,0.24c0.26,0,0.53-0.04,0.8-0.13c0.27-0.09,0.53-0.22,0.77-0.38c0.24-0.17,0.45-0.36,0.63-0.59
				C327.28,84.3,327.41,84.05,327.48,83.79z"/>
			<path class="st0" d="M331.98,76.18v-2.18h1.98v2.18H331.98z M331.98,87.15v-9.41h1.98v9.41H331.98z"/>
			<path class="st0" d="M344.78,87.15h-1.96v-5.21c0-0.88-0.14-1.52-0.43-1.91c-0.29-0.4-0.71-0.6-1.26-0.6
				c-0.38,0-0.76,0.1-1.14,0.29s-0.71,0.45-1.01,0.77s-0.51,0.69-0.66,1.11v5.55h-1.98V77.8h1.8v1.87c0.24-0.42,0.55-0.77,0.94-1.07
				c0.38-0.3,0.82-0.53,1.31-0.7s1.01-0.25,1.57-0.25s1.03,0.1,1.4,0.3s0.66,0.48,0.86,0.83s0.35,0.75,0.43,1.21
				s0.13,0.94,0.13,1.45V87.15z"/>
			<path class="st0" d="M350.81,87.33c-0.64,0-1.22-0.13-1.75-0.39s-0.98-0.61-1.36-1.05s-0.67-0.95-0.87-1.53s-0.31-1.18-0.31-1.82
				c0-0.67,0.11-1.3,0.32-1.89c0.21-0.59,0.51-1.11,0.9-1.56s0.85-0.8,1.38-1.05s1.12-0.38,1.76-0.38c0.76,0,1.42,0.17,1.99,0.52
				c0.57,0.35,1.04,0.81,1.41,1.39V77.8h1.75v9.09c0,0.91-0.22,1.68-0.66,2.31s-1.03,1.12-1.79,1.45c-0.76,0.33-1.6,0.5-2.54,0.5
				c-1.04,0-1.91-0.18-2.6-0.54s-1.28-0.85-1.75-1.48l1.1-1.04c0.38,0.5,0.86,0.89,1.42,1.15c0.56,0.26,1.18,0.4,1.84,0.4
				c0.54,0,1.04-0.1,1.49-0.29c0.46-0.19,0.82-0.49,1.1-0.88c0.28-0.4,0.41-0.9,0.41-1.51v-1.42c-0.34,0.55-0.8,0.99-1.39,1.31
				S351.46,87.33,350.81,87.33z M351.46,85.73c0.3,0,0.59-0.05,0.86-0.16s0.53-0.25,0.77-0.41c0.23-0.17,0.43-0.37,0.6-0.59
				s0.29-0.46,0.36-0.7v-2.47c-0.16-0.41-0.38-0.76-0.66-1.06s-0.6-0.54-0.96-0.71c-0.36-0.17-0.73-0.26-1.12-0.26
				c-0.43,0-0.82,0.09-1.16,0.28c-0.34,0.19-0.63,0.43-0.87,0.74s-0.43,0.65-0.56,1.03s-0.2,0.78-0.2,1.19
				c0,0.42,0.08,0.82,0.22,1.2c0.15,0.38,0.36,0.71,0.62,1.01c0.26,0.29,0.57,0.52,0.93,0.68
				C350.65,85.65,351.04,85.73,351.46,85.73z"/>
			<path class="st0" d="M362.37,80.9c0-1.21,0.25-2.41,0.76-3.61c0.5-1.19,1.12-2.41,1.85-3.65l1.51,0.65
				c-0.22,0.32-0.45,0.74-0.71,1.24s-0.51,1.06-0.76,1.67c-0.25,0.61-0.44,1.24-0.59,1.88s-0.22,1.26-0.22,1.86
				c0,0.97,0.2,1.99,0.61,3.05s0.95,2.15,1.62,3.25L365,88c-0.52-0.76-0.97-1.53-1.36-2.32s-0.7-1.59-0.93-2.39
				C362.48,82.49,362.37,81.68,362.37,80.9z"/>
			<path class="st0" d="M368.43,87.15V74.37h5.36c0.58,0,1.1,0.12,1.58,0.36c0.48,0.24,0.9,0.56,1.26,0.95
				c0.36,0.4,0.64,0.84,0.83,1.34s0.29,1,0.29,1.5c0,0.71-0.16,1.38-0.48,2.02c-0.32,0.64-0.76,1.16-1.34,1.56s-1.25,0.6-2.03,0.6
				h-3.44v4.45H368.43z M370.47,80.92h3.31c0.37,0,0.7-0.1,0.99-0.31s0.52-0.5,0.68-0.86c0.17-0.37,0.25-0.78,0.25-1.23
				c0-0.47-0.1-0.88-0.29-1.23s-0.44-0.63-0.75-0.83c-0.31-0.2-0.63-0.3-0.98-0.3h-3.22L370.47,80.92L370.47,80.92z"/>
			<path class="st0" d="M382,87.15l-3.56-9.34h2.05l2.66,7.52l2.7-7.52h1.89l-3.56,9.34H382z"/>
			<path class="st0" d="M394.42,86.7c-0.16,0.07-0.37,0.16-0.63,0.26s-0.55,0.19-0.86,0.26s-0.64,0.11-0.97,0.11
				c-0.41,0-0.79-0.08-1.13-0.22c-0.35-0.15-0.63-0.38-0.84-0.69s-0.32-0.71-0.32-1.2v-5.88h-1.26V77.8h1.26v-3.1h1.98v3.1h2.05
				v1.53h-2.05v5.23c0.02,0.32,0.13,0.56,0.31,0.72c0.19,0.16,0.42,0.23,0.69,0.23c0.28,0,0.54-0.05,0.8-0.15s0.43-0.18,0.53-0.23
				L394.42,86.7z"/>
			<path class="st0" d="M399.23,80.9c0,0.79-0.11,1.59-0.34,2.39c-0.23,0.8-0.54,1.6-0.94,2.39c-0.4,0.79-0.85,1.57-1.35,2.32
				l-1.46-0.76c0.67-1.1,1.21-2.19,1.62-3.25s0.61-2.08,0.61-3.05c0-0.6-0.08-1.22-0.23-1.86c-0.15-0.64-0.35-1.27-0.59-1.88
				s-0.5-1.17-0.76-1.67s-0.49-0.92-0.69-1.24l1.53-0.65c0.72,1.24,1.33,2.45,1.84,3.65C398.98,78.49,399.23,79.68,399.23,80.9z"/>
			<path class="st0" d="M405.82,87.15V74.37h2.03v11h6.84v1.78H405.82z"/>
			<path class="st0" d="M421.31,86.7c-0.16,0.07-0.37,0.16-0.63,0.26s-0.55,0.19-0.86,0.26c-0.31,0.07-0.64,0.11-0.97,0.11
				c-0.41,0-0.79-0.08-1.13-0.22c-0.35-0.15-0.63-0.38-0.84-0.69s-0.32-0.71-0.32-1.2v-5.88h-1.26V77.8h1.26v-3.1h1.98v3.1h2.05
				v1.53h-2.05v5.23c0.02,0.32,0.13,0.56,0.31,0.72c0.19,0.16,0.42,0.23,0.69,0.23c0.28,0,0.54-0.05,0.8-0.15s0.43-0.18,0.53-0.23
				L421.31,86.7z"/>
			<path class="st0" d="M422.09,82.49c0-0.89,0.18-1.7,0.55-2.43c0.37-0.73,0.87-1.31,1.5-1.75c0.64-0.43,1.37-0.65,2.2-0.65
				c0.73,0,1.39,0.19,1.97,0.56s1.03,0.83,1.34,1.37v-5.58h1.98v10.91c0,0.22,0.04,0.38,0.13,0.48s0.22,0.16,0.41,0.17v1.58
				c-0.36,0.06-0.65,0.1-0.86,0.11c-0.37,0-0.68-0.11-0.94-0.33c-0.25-0.22-0.39-0.48-0.41-0.78l-0.02-0.68
				c-0.37,0.59-0.86,1.05-1.47,1.38c-0.61,0.33-1.24,0.5-1.9,0.5c-0.65,0-1.25-0.13-1.79-0.38c-0.55-0.26-1.02-0.61-1.42-1.05
				c-0.4-0.45-0.71-0.96-0.94-1.53S422.09,83.15,422.09,82.49z M429.65,83.79v-2.43c-0.13-0.38-0.35-0.72-0.64-1.01
				c-0.29-0.3-0.62-0.54-0.99-0.72s-0.74-0.27-1.11-0.27c-0.41,0-0.78,0.09-1.12,0.27s-0.64,0.41-0.88,0.7s-0.44,0.63-0.57,1.01
				s-0.2,0.78-0.2,1.2c0,0.41,0.07,0.81,0.22,1.19c0.14,0.38,0.35,0.71,0.62,1s0.58,0.51,0.94,0.67c0.35,0.16,0.74,0.24,1.16,0.24
				c0.26,0,0.53-0.04,0.8-0.13s0.53-0.22,0.77-0.38c0.24-0.17,0.45-0.36,0.63-0.59C429.45,84.3,429.58,84.05,429.65,83.79z"/>
		</g>
	</g>
	<g>
		<g>
			<g>
				
					<linearGradient id="SVGID_00000158002676785342761490000000261421048765024640_" gradientUnits="userSpaceOnUse" x1="90.6216" y1="130.2567" x2="67.541" y2="104.2607" gradientTransform="matrix(1 0 0 -1 0 168)">
					<stop  offset="0" style="stop-color:#5091F4"/>
					<stop  offset="1" style="stop-color:#111FE9"/>
				</linearGradient>
				<polygon style="fill:url(#SVGID_00000158002676785342761490000000261421048765024640_);" points="77.44,51.02 75.25,53.21 
					77.19,55.15 79.1,53.23 84.38,47.95 84.39,47.96 84.41,47.98 84.41,58.49 84.38,58.51 82.47,60.43 82.2,60.7 77.19,65.71 
					72.16,60.68 71.91,60.43 69.97,58.49 64.69,53.21 69.97,47.93 72.16,45.74 77.44,40.46 79.44,38.46 90,38.46 84.9,43.55 
					82.72,45.74 				"/>
				<polygon class="st3" points="104.44,38.46 99.34,43.55 97.16,45.74 91.88,51.02 89.69,53.21 84.41,58.49 84.41,58.49 
					84.41,47.98 84.39,47.96 84.41,47.93 86.6,45.74 91.88,40.46 93.88,38.46 				"/>
				
					<linearGradient id="SVGID_00000013896215512362812840000013425237328667971727_" gradientUnits="userSpaceOnUse" x1="115.1777" y1="94.7358" x2="90.1535" y2="115.0224" gradientTransform="matrix(1 0 0 -1 0 168)">
					<stop  offset="0" style="stop-color:#5091F4"/>
					<stop  offset="1" style="stop-color:#111FE9"/>
				</linearGradient>
				<polygon style="fill:url(#SVGID_00000013896215512362812840000013425237328667971727_);" points="114.11,63.2 114.11,73.76 
					109.01,68.65 106.83,66.48 101.55,61.2 99.36,59.01 97.43,60.95 99.34,62.86 104.62,68.14 104.62,68.15 104.6,68.17 
					94.09,68.17 86.87,60.95 91.89,55.92 92.15,55.67 94.08,53.73 99.36,48.45 104.64,53.73 106.83,55.92 112.11,61.2 				"/>
				<polygon class="st3" points="114.11,77.64 114.11,88.2 109.01,83.1 106.83,80.92 101.55,75.64 99.36,73.45 94.08,68.17 
					94.09,68.17 104.6,68.17 104.62,68.15 104.64,68.17 106.83,70.36 112.11,75.64 				"/>
				
					<linearGradient id="SVGID_00000128446040057408444630000004148834435855464591_" gradientUnits="userSpaceOnUse" x1="79.7386" y1="69.1531" x2="102.6979" y2="98.1861" gradientTransform="matrix(1 0 0 -1 0 168)">
					<stop  offset="0" style="stop-color:#5091F4"/>
					<stop  offset="1" style="stop-color:#111FE9"/>
				</linearGradient>
				<polygon style="fill:url(#SVGID_00000128446040057408444630000004148834435855464591_);" points="104.12,83.12 98.84,88.4 
					96.65,90.59 91.37,95.87 89.37,97.87 78.81,97.87 83.91,92.77 86.09,90.59 91.37,85.3 93.56,83.12 91.62,81.18 89.71,83.1 
					84.43,88.38 84.41,88.36 84.41,77.85 84.43,77.82 86.34,75.9 86.61,75.64 91.62,70.62 				"/>
				<polygon class="st3" points="84.43,88.38 84.4,88.4 82.21,90.59 76.93,95.87 74.93,97.87 64.37,97.87 69.47,92.77 71.65,90.59 
					76.93,85.3 79.12,83.12 84.4,77.84 84.41,77.85 84.41,88.36 				"/>
				
					<linearGradient id="SVGID_00000027568019218520181620000007162934135496668301_" gradientUnits="userSpaceOnUse" x1="54.294" y1="105.409" x2="78.9538" y2="84.0291" gradientTransform="matrix(1 0 0 -1 0 168)">
					<stop  offset="0" style="stop-color:#5091F4"/>
					<stop  offset="1" style="stop-color:#111FE9"/>
				</linearGradient>
				<polygon style="fill:url(#SVGID_00000027568019218520181620000007162934135496668301_);" points="81.94,75.39 69.45,87.88 
					64.17,82.6 61.99,80.4 56.71,75.12 54.71,73.14 54.71,62.58 59.8,67.67 61.99,69.85 67.27,75.12 69.45,77.32 71.38,75.39 
					64.19,68.18 64.19,68.18 64.21,68.17 74.72,68.17 74.73,68.17 74.75,68.18 76.66,70.11 76.93,70.37 				"/>
				<polygon class="st3" points="74.73,68.15 74.73,68.17 74.72,68.17 64.21,68.17 64.19,68.18 64.17,68.15 61.99,65.98 56.71,60.7 
					54.71,58.7 54.71,48.14 59.8,53.23 61.99,55.42 67.27,60.7 69.45,62.88 				"/>
			</g>
			<g>
				<path class="st7" d="M59.71,110.4c-0.7-0.78-1.64-1.16-2.82-1.16h-6.45c-0.01,0-0.03,0-0.05,0h-0.37
					c-1.23,0-1.39-1.95,0.01-1.95h9.08l2.22-2.74H50.07c-1.16,0-2.08,0.36-2.76,1.1c-0.46,0.49-0.77,1.03-0.93,1.64
					c0,0-0.33,1.09-0.05,1.95c0.14,0.7,0.46,1.34,0.96,1.89c0.7,0.78,1.62,1.16,2.75,1.15h6.77c0.29,0,0.52,0.11,0.71,0.33
					c0.19,0.21,0.29,0.47,0.29,0.78c0,0.3-0.11,0.56-0.31,0.78c-0.21,0.22-0.46,0.34-0.76,0.34h-9.5l-0.89,2.75h10.51
					c1.15,0,2.09-0.4,2.83-1.21c0.73-0.8,1.1-1.75,1.1-2.86C60.79,112.12,60.43,111.18,59.71,110.4z"/>
				<path class="st7" d="M106.71,104.52v2.77h-8.75c-1.33,0-2.48,0.72-3.11,1.78c-0.31,0.54-0.49,1.16-0.49,1.83
					c0,0.46,0.09,0.9,0.25,1.3l0,0c0.53,1.34,1.86,2.28,3.39,2.28h8.71v2.77h-8.75c-0.05,0-0.1,0-0.15,0l0,0
					c-2.11-0.05-3.96-1.13-5.09-2.75c-0.71-1.03-1.13-2.27-1.13-3.62l0,0c0-0.49,0.06-0.97,0.16-1.43l0,0
					c0.61-2.65,2.87-4.67,5.64-4.91l0,0c0.19-0.02,0.37-0.02,0.56-0.02L106.71,104.52L106.71,104.52z"/>
				<g>
					<rect x="75.74" y="104.52" class="st7" width="15.12" height="2.77"/>
					<rect x="75.74" y="109.52" class="st7" width="15.12" height="2.77"/>
					<rect x="75.74" y="114.49" class="st7" width="15.12" height="2.77"/>
				</g>
				<g>
					<polygon class="st7" points="75,104.6 75,107.35 73.94,107.35 73.94,107.35 68.8,107.35 65.61,107.35 65.61,107.35 
						60.99,107.36 59.88,107.36 62.08,104.6 65.72,104.6 					"/>
					<rect x="66.07" y="107.34" class="st7" width="2.75" height="9.91"/>
				</g>
				<g>
					<g>
						<rect x="107.45" y="104.52" class="st7" width="2.77" height="12.73"/>
						<rect x="119.83" y="104.52" class="st7" width="2.77" height="12.73"/>
					</g>
					<polygon class="st7" points="122.6,109.51 122.6,112.27 111.08,112.27 112.61,109.51 					"/>
				</g>
			</g>
		</g>
		<g class="st8">
			<path class="st7" d="M99.64,125.46h-1.12c-0.04,0-0.08-0.02-0.12-0.04l-3.18-2.79c-0.11-0.1-0.29-0.02-0.29,0.13v2.52
				c0,0.1-0.08,0.18-0.18,0.18h-1.01c-0.1,0-0.18-0.08-0.18-0.18v-4.38c0-0.1,0.08-0.18,0.18-0.18h1.11c0.04,0,0.08,0.02,0.12,0.04
				l3.18,2.8c0.11,0.1,0.29,0.02,0.29-0.13v-2.53c0-0.1,0.08-0.18,0.18-0.18h1.01c0.1,0,0.18,0.08,0.18,0.18v4.38
				C99.82,125.4,99.74,125.46,99.64,125.46z"/>
			<path class="st7" d="M64.36,120.74h-5.58c-0.1,0-0.18,0.08-0.18,0.18v0.7c0,0.1,0.08,0.18,0.18,0.18h1.7
				c0.1,0,0.18,0.08,0.18,0.18v3.33c0,0.1,0.08,0.18,0.18,0.18h1c0.1,0,0.18-0.08,0.18-0.18v-3.33c0-0.1,0.08-0.18,0.18-0.18h2.18
				c0.1,0,0.18-0.08,0.18-0.18v-0.7C64.53,120.82,64.45,120.74,64.36,120.74z"/>
			<path class="st7" d="M70.65,123.46h0.32c0.49,0,1.78-0.11,1.76-1.23c-0.01-0.4-0.15-0.75-0.46-1.05
				c-0.3-0.29-0.77-0.44-1.32-0.44H66.7c-0.1,0-0.18,0.08-0.18,0.18v4.38c0,0.1,0.08,0.18,0.18,0.18h1c0.1,0,0.18-0.08,0.18-0.18
				l-0.01-1.66c0-0.1,0.08-0.18,0.18-0.18h0.8c0.05,0,0.09,0.02,0.12,0.05l1.9,1.91c0.03,0.03,0.08,0.05,0.12,0.05h1.33
				c0.16,0,0.24-0.19,0.12-0.3L70.65,123.46z M70.29,122.61h-2.41v-0.81h3c0.26,0,0.47,0.06,0.53,0.36
				c0.08,0.48-0.45,0.45-0.57,0.45H70.29L70.29,122.61z"/>
			<path class="st7" d="M92.07,120.92v4.38c0,0.1-0.08,0.18-0.18,0.18H90.9c-0.1,0-0.18-0.08-0.18-0.18v-4.38
				c0-0.1,0.08-0.18,0.18-0.18h0.99C91.99,120.74,92.07,120.82,92.07,120.92z"/>
			<path class="st7" d="M88.44,121.77c-0.08-0.21-0.21-0.4-0.4-0.57c-0.32-0.31-0.77-0.47-1.34-0.47h-4.56
				c-0.1,0-0.18,0.08-0.18,0.18v0.88l0,0v1.96l0,0v1.54c0,0.1,0.08,0.18,0.18,0.18h4.56c0.56,0,1-0.16,1.34-0.48
				c0.33-0.31,0.49-0.68,0.49-1.09v-1.6C88.54,122.12,88.5,121.95,88.44,121.77z M87.19,123.7c0,0.21-0.08,0.38-0.23,0.51
				c-0.15,0.13-0.34,0.19-0.59,0.2h-3.04v-0.65l0,0v-0.1v-1.05l0,0v-0.81h3.04c0.01,0,0.03,0,0.05,0c0.22,0.01,0.41,0.06,0.55,0.18
				c0.15,0.12,0.23,0.3,0.23,0.52L87.19,123.7z"/>
			<path class="st7" d="M78.28,120.74h-1.3c-0.06,0-0.12,0.03-0.15,0.08l-2.73,4.38c-0.07,0.12,0.01,0.27,0.15,0.27h1.11
				c0.06,0,0.12-0.03,0.15-0.08l0.38-0.61l0.54-0.87l1.04-1.69c0.07-0.11,0.23-0.11,0.3,0l1.04,1.69l0.54,0.87l0.37,0.61
				c0.03,0.05,0.09,0.08,0.15,0.08h1.15c0.14,0,0.22-0.15,0.15-0.27l-2.73-4.38C78.39,120.77,78.34,120.74,78.28,120.74z"/>
			<path class="st7" d="M107.82,122.61h-2.78c-0.1,0-0.18,0.08-0.18,0.18v0.6c0,0.1,0.08,0.18,0.18,0.18h1.6v0.33
				c0,0.18-0.04,0.31-0.12,0.39c-0.07,0.07-0.22,0.11-0.44,0.12h-2.58c-0.24,0-0.43-0.07-0.59-0.2c-0.15-0.13-0.23-0.3-0.23-0.51
				v-0.68l0,0v-0.48c0,0,0.01-0.74,0.84-0.74h4.28c0.1,0,0.17-0.08,0.18-0.17v-0.7c0-0.1-0.08-0.18-0.18-0.18h-4.5
				c-1.65,0-1.98,1.07-1.98,1.79v1.36c0,0.42,0.16,0.78,0.5,1.1s0.78,0.48,1.33,0.48h3.24c0.44-0.01,0.82-0.14,1.12-0.41
				c0.31-0.26,0.46-0.58,0.46-0.96v-1.32C108,122.68,107.92,122.61,107.82,122.61z"/>
		</g>
	</g>
</g>
</svg>
