<?xml version="1.0" encoding="utf-8"?>
<!-- Generator: Adobe Illustrator 26.0.3, SVG Export Plug-In . SVG Version: 6.00 Build 0)  -->
<svg version="1.1" id="Layer_1" xmlns="http://www.w3.org/2000/svg" xmlns:xlink="http://www.w3.org/1999/xlink" x="0px" y="0px"
	 viewBox="0 0 513 166" style="enable-background:new 0 0 513 166;" xml:space="preserve">
<style type="text/css">
	.st0{fill:#FFFFFF;}
	.st1{fill:url(#SVGID_1_);}
	.st2{fill:url(#SVGID_00000095335350310433251940000012680360554635071670_);}
	.st3{fill:url(#SVGID_00000104683672410767306900000017037754219919427979_);}
	.st4{fill:url(#SVGID_00000167375530303734183740000015401637507830883001_);}
	.st5{fill:url(#SVGID_00000000202305362966411430000016193547031964601501_);}
	.st6{fill:url(#SVGID_00000158715867155938385240000010129076085091362453_);}
	.st7{fill:url(#SVGID_00000030454923016384684280000001539951545081590706_);}
	.st8{fill:url(#SVGID_00000158721956764388959750000011620063659504267908_);}
	.st9{fill:url(#SVGID_00000164501449048337089530000005175624873965501861_);}
	.st10{fill:url(#SVGID_00000001650812308826378010000007845366729547612827_);}
	.st11{fill:url(#SVGID_00000053514227575024946050000012636818959765908366_);}
	.st12{fill:url(#SVGID_00000040544455110540058000000007411221917849861264_);}
	.st13{fill:url(#SVGID_00000163041938269698188090000001314250216699371168_);}
	.st14{fill:url(#SVGID_00000060728499023061318350000013292039712619528886_);}
	.st15{fill:url(#SVGID_00000172433652340154988610000013220066124489819821_);}
	.st16{fill:url(#SVGID_00000111911923639763751590000003252238098773808019_);}
	.st17{fill:url(#SVGID_00000094595385713018030570000014432363340505875338_);}
	.st18{fill:url(#SVGID_00000052077011358195104450000012916654837003942845_);}
	.st19{fill:url(#SVGID_00000041253730276956593110000016600062837299388802_);}
	.st20{fill:url(#SVGID_00000073685231797519956690000008484751185270374308_);}
	.st21{fill:url(#SVGID_00000160910359917641247720000007245417142530661506_);}
	.st22{fill:url(#SVGID_00000127004385204315173440000010028374251813313935_);}
	.st23{fill:url(#SVGID_00000113329798224782241570000017738186388180176805_);}
	.st24{fill:url(#SVGID_00000115478137632131918540000015399209336325434763_);}
	.st25{opacity:0.5;}
	.st26{fill:url(#SVGID_00000049931063358094275360000008661261891682792079_);}
	.st27{fill:url(#SVGID_00000157288668941457463030000003806161226340999853_);}
	.st28{fill:url(#SVGID_00000139985708078409608550000007572290347706913449_);}
	.st29{fill:url(#SVGID_00000113354621447357731450000004589546292532465847_);}
	.st30{fill:url(#SVGID_00000028294904444696125300000004036752573517316226_);}
	.st31{fill:url(#SVGID_00000078762967410537562710000002820576192237956224_);}
	.st32{fill:url(#SVGID_00000181787197097484696980000003650332571981112964_);}
	.st33{fill:url(#SVGID_00000000197552001638986480000011118093554654646155_);}
</style>
<g>
	<rect x="-0.13" y="-0.45" class="st0" width="173.61" height="166.89"/>
	
		<linearGradient id="SVGID_1_" gradientUnits="userSpaceOnUse" x1="155.5772" y1="172.8875" x2="510.368" y2="6.787" gradientTransform="matrix(1 0 0 -1 0 168)">
		<stop  offset="0" style="stop-color:#00FFAD"/>
		<stop  offset="0.1466" style="stop-color:#00E3B7"/>
		<stop  offset="0.4631" style="stop-color:#009DD0"/>
		<stop  offset="0.9223" style="stop-color:#002DF8"/>
		<stop  offset="0.9995" style="stop-color:#0019FF"/>
	</linearGradient>
	<rect x="173.48" y="-0.45" class="st1" width="339.65" height="166.89"/>
	<g>
		<g>
			<path class="st0" d="M230.78,74.76c-0.12-0.15-0.31-0.3-0.57-0.47c-0.26-0.17-0.56-0.32-0.9-0.46s-0.71-0.26-1.12-0.36
				s-0.82-0.15-1.25-0.15c-0.93,0-1.63,0.17-2.08,0.52s-0.68,0.82-0.68,1.43c0,0.45,0.13,0.81,0.38,1.08
				c0.25,0.27,0.64,0.48,1.17,0.65c0.53,0.17,1.18,0.34,1.95,0.53c0.97,0.23,1.81,0.5,2.51,0.82s1.24,0.74,1.62,1.25
				s0.57,1.21,0.57,2.07c0,0.7-0.14,1.31-0.41,1.83c-0.27,0.52-0.65,0.94-1.13,1.26c-0.48,0.33-1.03,0.57-1.66,0.73
				c-0.63,0.16-1.3,0.24-2.02,0.24c-0.71,0-1.41-0.08-2.11-0.23s-1.37-0.37-2-0.66s-1.22-0.64-1.77-1.05l1.04-1.92
				c0.16,0.17,0.41,0.36,0.74,0.57s0.72,0.4,1.15,0.59s0.91,0.34,1.42,0.47s1.04,0.19,1.57,0.19c0.89,0,1.58-0.16,2.05-0.47
				s0.71-0.76,0.71-1.36c0-0.46-0.16-0.84-0.47-1.12s-0.76-0.53-1.34-0.73s-1.28-0.4-2.09-0.6c-0.93-0.24-1.71-0.51-2.34-0.82
				c-0.63-0.31-1.09-0.69-1.4-1.16c-0.31-0.46-0.46-1.07-0.46-1.81c0-0.93,0.22-1.72,0.67-2.36s1.06-1.13,1.85-1.45
				c0.79-0.33,1.66-0.49,2.62-0.49c0.64,0,1.25,0.07,1.83,0.21s1.12,0.33,1.62,0.57s0.94,0.51,1.33,0.82L230.78,74.76z"/>
			<path class="st0" d="M240.14,85.11c-0.17,0.08-0.41,0.18-0.7,0.29c-0.29,0.11-0.61,0.21-0.96,0.29
				c-0.35,0.08-0.71,0.12-1.08,0.12c-0.45,0-0.87-0.08-1.26-0.25s-0.7-0.42-0.93-0.77c-0.23-0.34-0.35-0.79-0.35-1.33v-6.53h-1.4
				v-1.7h1.4V71.8h2.2v3.44h2.28v1.7h-2.28v5.81c0.03,0.36,0.14,0.62,0.35,0.79c0.21,0.17,0.46,0.26,0.77,0.26s0.6-0.06,0.89-0.17
				c0.29-0.11,0.48-0.2,0.59-0.25L240.14,85.11z"/>
			<path class="st0" d="M246.4,85.83c-0.83,0-1.57-0.14-2.22-0.43s-1.22-0.67-1.7-1.17c-0.48-0.5-0.85-1.07-1.11-1.71
				s-0.39-1.32-0.39-2.03c0-0.99,0.23-1.89,0.68-2.71s1.09-1.47,1.91-1.96c0.82-0.49,1.76-0.73,2.83-0.73
				c1.11,0,2.06,0.25,2.85,0.74c0.79,0.5,1.41,1.15,1.85,1.95c0.44,0.81,0.66,1.67,0.66,2.59c0,0.16-0.01,0.31-0.02,0.45
				c-0.01,0.14-0.03,0.25-0.04,0.33h-8.4c0.07,0.62,0.25,1.15,0.54,1.61s0.67,0.81,1.14,1.07s0.96,0.38,1.48,0.38
				c0.6,0,1.16-0.15,1.69-0.44c0.53-0.29,0.88-0.68,1.07-1.16l1.88,0.54c-0.23,0.51-0.57,0.96-1.04,1.37s-1.01,0.73-1.63,0.96
				C247.81,85.71,247.13,85.83,246.4,85.83z M243.26,79.71h6.32c-0.05-0.6-0.22-1.12-0.51-1.57c-0.29-0.44-0.66-0.79-1.13-1.05
				s-0.97-0.38-1.52-0.38c-0.56,0-1.07,0.13-1.53,0.38s-0.84,0.6-1.13,1.05S243.3,79.1,243.26,79.71z"/>
			<path class="st0" d="M258.3,85.83c-0.81,0-1.55-0.14-2.21-0.43c-0.66-0.28-1.23-0.68-1.71-1.19c-0.48-0.51-0.85-1.09-1.11-1.73
				c-0.26-0.65-0.39-1.33-0.39-2.04c0-0.98,0.22-1.87,0.66-2.68s1.07-1.46,1.89-1.94c0.82-0.48,1.78-0.72,2.87-0.72
				c1.07,0,2,0.24,2.79,0.71s1.38,1.1,1.77,1.89l-2.16,0.66c-0.24-0.43-0.57-0.76-1-1.01s-0.91-0.37-1.44-0.37
				c-0.59,0-1.12,0.15-1.59,0.44c-0.47,0.3-0.85,0.7-1.12,1.22s-0.41,1.12-0.41,1.8c0,0.67,0.14,1.27,0.42,1.79
				c0.28,0.53,0.66,0.94,1.14,1.25c0.48,0.31,1.01,0.46,1.58,0.46c0.36,0,0.71-0.06,1.04-0.19c0.33-0.13,0.63-0.3,0.89-0.53
				s0.44-0.47,0.55-0.72l2.14,0.66c-0.23,0.51-0.56,0.96-1,1.36s-0.97,0.72-1.58,0.95C259.7,85.71,259.03,85.83,258.3,85.83z"/>
			<path class="st0" d="M274.12,85.61h-2.18v-5.79c0-0.94-0.18-1.63-0.53-2.1c-0.35-0.46-0.84-0.69-1.47-0.69
				c-0.4,0-0.8,0.11-1.21,0.32c-0.41,0.21-0.77,0.49-1.08,0.85s-0.55,0.78-0.71,1.25v6.16h-2.2v-14.6h2.2v6.3
				c0.4-0.7,0.95-1.25,1.64-1.64s1.44-0.59,2.24-0.59c0.67,0,1.21,0.11,1.63,0.34s0.75,0.53,1,0.92s0.42,0.83,0.52,1.34
				c0.1,0.5,0.15,1.04,0.15,1.62V85.61z"/>
			<path class="st0" d="M287.82,85.72c-1.13,0-2.09-0.19-2.87-0.58c-0.78-0.39-1.41-0.91-1.88-1.58c-0.47-0.67-0.82-1.43-1.04-2.28
				s-0.33-1.74-0.33-2.66v-7.2h2.26v7.2c0,0.65,0.06,1.28,0.19,1.89s0.34,1.15,0.63,1.63s0.69,0.86,1.18,1.14s1.11,0.42,1.84,0.42
				c0.76,0,1.39-0.14,1.88-0.42s0.89-0.67,1.19-1.16s0.51-1.04,0.64-1.64s0.19-1.22,0.19-1.86v-7.2h2.26v7.2
				c0,0.97-0.12,1.89-0.35,2.75s-0.59,1.62-1.08,2.27s-1.12,1.16-1.9,1.53C289.85,85.53,288.91,85.72,287.82,85.72z"/>
			<path class="st0" d="M306.04,85.61h-2.18v-5.79c0-0.98-0.16-1.68-0.48-2.12s-0.79-0.66-1.4-0.66c-0.43,0-0.85,0.11-1.27,0.32
				c-0.42,0.22-0.79,0.5-1.12,0.86c-0.33,0.35-0.57,0.77-0.73,1.24v6.16h-2.2V75.24h2v2.08c0.27-0.46,0.61-0.86,1.04-1.19
				s0.91-0.59,1.46-0.77c0.55-0.18,1.13-0.28,1.74-0.28c0.63,0,1.15,0.11,1.56,0.34s0.73,0.53,0.96,0.92s0.39,0.84,0.48,1.35
				c0.09,0.51,0.14,1.05,0.14,1.62V85.61z"/>
			<path class="st0" d="M308.6,73.45v-2.42h2.2v2.42H308.6z M308.6,85.61V75.15h2.2v10.46H308.6z"/>
			<path class="st0" d="M323.7,71.48h2.1l1.76,4.84l1.76-4.84h2.12l-2.44,6.3l2.12,5.24l4.44-11.6H338l-5.8,14.2h-1.96l-2.66-6.36
				l-2.68,6.36h-1.96l-5.8-14.2h2.44l4.44,11.6l2.12-5.24L323.7,71.48z"/>
			<path class="st0" d="M344.1,85.83c-0.83,0-1.57-0.14-2.22-0.43c-0.65-0.28-1.22-0.68-1.69-1.18c-0.47-0.5-0.84-1.07-1.09-1.71
				s-0.38-1.32-0.38-2.03c0-0.74,0.13-1.43,0.38-2.07c0.25-0.64,0.62-1.21,1.09-1.71c0.47-0.5,1.04-0.89,1.7-1.18
				c0.66-0.28,1.4-0.43,2.21-0.43c0.83,0,1.56,0.14,2.21,0.43c0.65,0.28,1.21,0.68,1.69,1.18s0.85,1.07,1.1,1.71
				s0.38,1.33,0.38,2.07c0,0.71-0.13,1.39-0.38,2.03s-0.62,1.21-1.09,1.71c-0.47,0.5-1.04,0.89-1.7,1.18
				C345.65,85.67,344.91,85.83,344.1,85.83z M340.98,80.46c0,0.67,0.14,1.27,0.42,1.79c0.28,0.53,0.65,0.94,1.12,1.24
				s0.99,0.45,1.56,0.45c0.6,0,1.13-0.15,1.6-0.45c0.47-0.3,0.84-0.72,1.12-1.26c0.28-0.54,0.42-1.13,0.42-1.77
				c0-0.66-0.14-1.25-0.42-1.78c-0.28-0.53-0.66-0.95-1.13-1.25c-0.47-0.3-1-0.45-1.57-0.45c-0.59,0-1.11,0.16-1.58,0.47
				c-0.47,0.32-0.84,0.74-1.12,1.26C341.12,79.22,340.98,79.8,340.98,80.46z"/>
			<path class="st0" d="M357.3,77.07c-0.84,0.01-1.59,0.21-2.25,0.58s-1.13,0.9-1.41,1.58v6.4h-2.2V75.24h2.02v2.24
				c0.37-0.71,0.85-1.28,1.44-1.71c0.59-0.43,1.2-0.67,1.84-0.71c0.15,0,0.26,0,0.35,0s0.16,0.01,0.21,0.02L357.3,77.07L357.3,77.07
				z"/>
			<path class="st0" d="M358.94,71.02h2.2v11.64c0,0.52,0.08,0.86,0.24,1.01s0.36,0.23,0.6,0.23c0.25,0,0.5-0.03,0.75-0.1
				s0.45-0.13,0.61-0.18l0.32,1.72c-0.32,0.13-0.7,0.25-1.14,0.34s-0.83,0.14-1.18,0.14c-0.76,0-1.35-0.21-1.77-0.63
				c-0.42-0.42-0.63-1.01-0.63-1.75L358.94,71.02L358.94,71.02z"/>
			<path class="st0" d="M364.28,80.46c0-0.99,0.2-1.89,0.61-2.7c0.41-0.81,0.96-1.46,1.67-1.94c0.71-0.48,1.52-0.72,2.44-0.72
				c0.81,0,1.54,0.21,2.19,0.62s1.14,0.92,1.49,1.52v-6.2h2.2v12.12c0,0.24,0.05,0.42,0.14,0.53s0.25,0.18,0.46,0.19v1.76
				c-0.4,0.07-0.72,0.11-0.96,0.12c-0.41,0-0.76-0.12-1.04-0.37c-0.28-0.25-0.43-0.54-0.46-0.87L373,83.76
				c-0.41,0.65-0.96,1.16-1.63,1.53s-1.38,0.55-2.11,0.55c-0.72,0-1.38-0.14-1.99-0.43c-0.61-0.28-1.13-0.67-1.58-1.17
				s-0.79-1.06-1.04-1.7C364.4,81.88,364.28,81.2,364.28,80.46z M372.68,81.88v-2.7c-0.15-0.42-0.38-0.79-0.71-1.12
				s-0.69-0.59-1.1-0.8c-0.41-0.2-0.82-0.31-1.23-0.31c-0.45,0-0.87,0.1-1.25,0.3c-0.38,0.2-0.71,0.46-0.98,0.78
				s-0.48,0.7-0.63,1.12c-0.15,0.43-0.22,0.87-0.22,1.33s0.08,0.9,0.24,1.32c0.16,0.42,0.39,0.79,0.69,1.11s0.65,0.57,1.04,0.75
				c0.39,0.18,0.82,0.27,1.29,0.27c0.29,0,0.59-0.05,0.89-0.15s0.58-0.24,0.85-0.42c0.27-0.18,0.5-0.4,0.7-0.66
				C372.46,82.46,372.6,82.17,372.68,81.88z"/>
			<path class="st0" d="M382.08,78.68c0-1.35,0.28-2.68,0.84-4.01s1.25-2.68,2.06-4.05l1.68,0.72c-0.24,0.36-0.5,0.82-0.79,1.38
				s-0.57,1.18-0.84,1.86c-0.27,0.68-0.49,1.38-0.66,2.09s-0.25,1.4-0.25,2.07c0,1.08,0.23,2.21,0.68,3.39s1.05,2.38,1.8,3.61
				l-1.6,0.84c-0.57-0.84-1.08-1.7-1.51-2.58s-0.78-1.77-1.03-2.66C382.2,80.45,382.08,79.57,382.08,78.68z"/>
			<path class="st0" d="M388.81,85.61v-14.2h5.96c0.64,0,1.23,0.13,1.76,0.4s1,0.62,1.4,1.06c0.4,0.44,0.71,0.94,0.92,1.49
				c0.21,0.55,0.32,1.11,0.32,1.67c0,0.79-0.18,1.53-0.53,2.24c-0.35,0.71-0.85,1.28-1.49,1.73s-1.39,0.67-2.26,0.67h-3.82v4.94
				L388.81,85.61L388.81,85.61z M391.08,78.71h3.68c0.41,0,0.78-0.12,1.1-0.35c0.32-0.23,0.57-0.55,0.76-0.96
				c0.19-0.41,0.28-0.86,0.28-1.37c0-0.52-0.11-0.98-0.32-1.37s-0.49-0.7-0.83-0.92s-0.7-0.33-1.09-0.33h-3.58L391.08,78.71
				L391.08,78.71z"/>
			<path class="st0" d="M403.89,85.61l-3.96-10.38h2.28l2.96,8.36l3-8.36h2.1l-3.96,10.38H403.89z"/>
			<path class="st0" d="M417.69,85.11c-0.17,0.08-0.41,0.18-0.7,0.29c-0.29,0.11-0.61,0.21-0.96,0.29
				c-0.35,0.08-0.71,0.12-1.08,0.12c-0.45,0-0.87-0.08-1.26-0.25s-0.7-0.42-0.93-0.77c-0.23-0.34-0.35-0.79-0.35-1.33v-6.53h-1.4
				v-1.7h1.4V71.8h2.2v3.44h2.28v1.7h-2.28v5.81c0.03,0.36,0.14,0.62,0.35,0.79c0.21,0.17,0.46,0.26,0.77,0.26s0.6-0.06,0.89-0.17
				c0.29-0.11,0.48-0.2,0.59-0.25L417.69,85.11z"/>
			<path class="st0" d="M423.03,78.68c0,0.88-0.13,1.77-0.38,2.66s-0.6,1.78-1.04,2.66s-0.94,1.74-1.5,2.58l-1.62-0.84
				c0.75-1.23,1.35-2.43,1.8-3.61c0.45-1.18,0.68-2.31,0.68-3.39c0-0.67-0.08-1.36-0.25-2.07s-0.39-1.41-0.66-2.09
				c-0.27-0.68-0.55-1.3-0.84-1.86c-0.29-0.56-0.54-1.02-0.77-1.38l1.7-0.72c0.8,1.37,1.48,2.72,2.04,4.05
				C422.75,75.99,423.03,77.34,423.03,78.68z"/>
			<path class="st0" d="M430.35,85.61v-14.2h2.26v12.22h7.6v1.98H430.35z"/>
			<path class="st0" d="M447.57,85.11c-0.17,0.08-0.41,0.18-0.7,0.29c-0.29,0.11-0.61,0.21-0.96,0.29
				c-0.35,0.08-0.71,0.12-1.08,0.12c-0.45,0-0.87-0.08-1.26-0.25s-0.7-0.42-0.93-0.77c-0.23-0.34-0.35-0.79-0.35-1.33v-6.53h-1.4
				v-1.7h1.4V71.8h2.2v3.44h2.28v1.7h-2.28v5.81c0.03,0.36,0.14,0.62,0.35,0.79c0.21,0.17,0.46,0.26,0.77,0.26s0.6-0.06,0.89-0.17
				c0.29-0.11,0.48-0.2,0.59-0.25L447.57,85.11z"/>
			<path class="st0" d="M448.43,80.46c0-0.99,0.2-1.89,0.61-2.7c0.41-0.81,0.96-1.46,1.67-1.94c0.71-0.48,1.52-0.72,2.44-0.72
				c0.81,0,1.54,0.21,2.19,0.62s1.14,0.92,1.49,1.52v-6.2h2.2v12.12c0,0.24,0.05,0.42,0.14,0.53s0.25,0.18,0.46,0.19v1.76
				c-0.4,0.07-0.72,0.11-0.96,0.12c-0.41,0-0.76-0.12-1.04-0.37c-0.28-0.25-0.43-0.54-0.46-0.87l-0.02-0.76
				c-0.41,0.65-0.96,1.16-1.63,1.53s-1.38,0.55-2.11,0.55c-0.72,0-1.38-0.14-1.99-0.43c-0.61-0.28-1.13-0.67-1.58-1.17
				s-0.79-1.06-1.04-1.7C448.56,81.88,448.43,81.2,448.43,80.46z M456.83,81.88v-2.7c-0.15-0.42-0.38-0.79-0.71-1.12
				s-0.69-0.59-1.1-0.8c-0.41-0.2-0.82-0.31-1.23-0.31c-0.45,0-0.87,0.1-1.25,0.3c-0.38,0.2-0.71,0.46-0.98,0.78
				s-0.48,0.7-0.63,1.12c-0.15,0.43-0.22,0.87-0.22,1.33s0.08,0.9,0.24,1.32c0.16,0.42,0.39,0.79,0.69,1.11s0.65,0.57,1.04,0.75
				c0.39,0.18,0.82,0.27,1.29,0.27c0.29,0,0.59-0.05,0.89-0.15s0.58-0.24,0.85-0.42c0.27-0.18,0.5-0.4,0.7-0.66
				C456.61,82.46,456.75,82.17,456.83,81.88z"/>
		</g>
	</g>
	<g>
		<g>
			
				<linearGradient id="SVGID_00000148650589429297723330000010410042089296381840_" gradientUnits="userSpaceOnUse" x1="86.1861" y1="130.8855" x2="88.8018" y2="31.6504" gradientTransform="matrix(1 0 0 -1 0 168)">
				<stop  offset="0" style="stop-color:#6E6AFF"/>
				<stop  offset="0.657" style="stop-color:#4B2EFF"/>
				<stop  offset="0.9992" style="stop-color:#3B13FF"/>
			</linearGradient>
			<path style="fill:url(#SVGID_00000148650589429297723330000010410042089296381840_);" d="M64.42,51.68v22.45
				c0,12.4,10.05,22.45,22.45,22.45l0,0c12.4,0,22.45-10.05,22.45-22.45V51.68H94.35v7.48c0,4.13-3.35,7.48-7.48,7.48l0,0
				c-4.13,0-7.48,3.35-7.48,7.48V51.67H64.42V51.68z"/>
			
				<linearGradient id="SVGID_00000059288030293042809240000010545380561230217879_" gradientUnits="userSpaceOnUse" x1="71.903" y1="130.509" x2="74.5188" y2="31.2739" gradientTransform="matrix(1 0 0 -1 0 168)">
				<stop  offset="0" style="stop-color:#6E6AFF"/>
				<stop  offset="0.657" style="stop-color:#4B2EFF"/>
				<stop  offset="0.9992" style="stop-color:#3B13FF"/>
			</linearGradient>
			
				<rect x="64.42" y="36.72" style="fill:url(#SVGID_00000059288030293042809240000010545380561230217879_);" width="14.97" height="1.7"/>
			
				<linearGradient id="SVGID_00000023255723100331186590000017048389780100392067_" gradientUnits="userSpaceOnUse" x1="71.8493" y1="130.5076" x2="74.465" y2="31.2724" gradientTransform="matrix(1 0 0 -1 0 168)">
				<stop  offset="0" style="stop-color:#6E6AFF"/>
				<stop  offset="0.657" style="stop-color:#4B2EFF"/>
				<stop  offset="0.9992" style="stop-color:#3B13FF"/>
			</linearGradient>
			
				<rect x="64.42" y="38.75" style="fill:url(#SVGID_00000023255723100331186590000017048389780100392067_);" width="14.97" height="1.7"/>
			
				<linearGradient id="SVGID_00000001623143925330167940000000878470259601530792_" gradientUnits="userSpaceOnUse" x1="82.9279" y1="130.7997" x2="85.5438" y2="31.5645" gradientTransform="matrix(1 0 0 -1 0 168)">
				<stop  offset="0" style="stop-color:#6E6AFF"/>
				<stop  offset="0.657" style="stop-color:#4B2EFF"/>
				<stop  offset="0.9992" style="stop-color:#3B13FF"/>
			</linearGradient>
			
				<rect x="75.65" y="44.21" style="fill:url(#SVGID_00000001623143925330167940000000878470259601530792_);" width="14.97" height="1.7"/>
			
				<linearGradient id="SVGID_00000134971290716672185020000000036653696153854391_" gradientUnits="userSpaceOnUse" x1="82.8742" y1="130.7982" x2="85.4899" y2="31.5631" gradientTransform="matrix(1 0 0 -1 0 168)">
				<stop  offset="0" style="stop-color:#6E6AFF"/>
				<stop  offset="0.657" style="stop-color:#4B2EFF"/>
				<stop  offset="0.9992" style="stop-color:#3B13FF"/>
			</linearGradient>
			
				<rect x="75.65" y="46.24" style="fill:url(#SVGID_00000134971290716672185020000000036653696153854391_);" width="14.97" height="1.7"/>
			
				<linearGradient id="SVGID_00000170255763532523158730000004011741586634798224_" gradientUnits="userSpaceOnUse" x1="67.9634" y1="130.4052" x2="70.5791" y2="31.1701" gradientTransform="matrix(1 0 0 -1 0 168)">
				<stop  offset="0" style="stop-color:#6E6AFF"/>
				<stop  offset="0.657" style="stop-color:#4B2EFF"/>
				<stop  offset="0.9992" style="stop-color:#3B13FF"/>
			</linearGradient>
			
				<rect x="64.42" y="44.21" style="fill:url(#SVGID_00000170255763532523158730000004011741586634798224_);" width="7.48" height="1.7"/>
			
				<linearGradient id="SVGID_00000007386745606867188330000013285404812847552652_" gradientUnits="userSpaceOnUse" x1="67.9096" y1="130.4037" x2="70.5254" y2="31.1686" gradientTransform="matrix(1 0 0 -1 0 168)">
				<stop  offset="0" style="stop-color:#6E6AFF"/>
				<stop  offset="0.657" style="stop-color:#4B2EFF"/>
				<stop  offset="0.9992" style="stop-color:#3B13FF"/>
			</linearGradient>
			
				<rect x="64.42" y="46.24" style="fill:url(#SVGID_00000007386745606867188330000013285404812847552652_);" width="7.48" height="1.7"/>
			
				<linearGradient id="SVGID_00000031188413870750177980000008250393111522791555_" gradientUnits="userSpaceOnUse" x1="90.6001" y1="131.0018" x2="93.2158" y2="31.7667" gradientTransform="matrix(1 0 0 -1 0 168)">
				<stop  offset="0" style="stop-color:#6E6AFF"/>
				<stop  offset="0.657" style="stop-color:#4B2EFF"/>
				<stop  offset="0.9992" style="stop-color:#3B13FF"/>
			</linearGradient>
			
				<rect x="83.13" y="36.72" style="fill:url(#SVGID_00000031188413870750177980000008250393111522791555_);" width="14.97" height="1.7"/>
			
				<linearGradient id="SVGID_00000165201347370711970570000007087484114531377082_" gradientUnits="userSpaceOnUse" x1="90.5463" y1="131.0005" x2="93.1621" y2="31.7654" gradientTransform="matrix(1 0 0 -1 0 168)">
				<stop  offset="0" style="stop-color:#6E6AFF"/>
				<stop  offset="0.657" style="stop-color:#4B2EFF"/>
				<stop  offset="0.9992" style="stop-color:#3B13FF"/>
			</linearGradient>
			
				<rect x="83.13" y="38.75" style="fill:url(#SVGID_00000165201347370711970570000007087484114531377082_);" width="14.97" height="1.7"/>
			
				<linearGradient id="SVGID_00000129909379078713435380000007024142440330925227_" gradientUnits="userSpaceOnUse" x1="105.5547" y1="131.396" x2="108.1705" y2="32.1609" gradientTransform="matrix(1 0 0 -1 0 168)">
				<stop  offset="0" style="stop-color:#6E6AFF"/>
				<stop  offset="0.657" style="stop-color:#4B2EFF"/>
				<stop  offset="0.9992" style="stop-color:#3B13FF"/>
			</linearGradient>
			
				<rect x="101.84" y="36.72" style="fill:url(#SVGID_00000129909379078713435380000007024142440330925227_);" width="7.48" height="1.7"/>
			
				<linearGradient id="SVGID_00000054242816391021224810000001702676830394628011_" gradientUnits="userSpaceOnUse" x1="105.5009" y1="131.3947" x2="108.1166" y2="32.1596" gradientTransform="matrix(1 0 0 -1 0 168)">
				<stop  offset="0" style="stop-color:#6E6AFF"/>
				<stop  offset="0.657" style="stop-color:#4B2EFF"/>
				<stop  offset="0.9992" style="stop-color:#3B13FF"/>
			</linearGradient>
			
				<rect x="101.84" y="38.75" style="fill:url(#SVGID_00000054242816391021224810000001702676830394628011_);" width="7.48" height="1.7"/>
			
				<linearGradient id="SVGID_00000015319485423256465940000014564003113066238119_" gradientUnits="userSpaceOnUse" x1="101.625" y1="131.2924" x2="104.2408" y2="32.0573" gradientTransform="matrix(1 0 0 -1 0 168)">
				<stop  offset="0" style="stop-color:#6E6AFF"/>
				<stop  offset="0.657" style="stop-color:#4B2EFF"/>
				<stop  offset="0.9992" style="stop-color:#3B13FF"/>
			</linearGradient>
			
				<rect x="94.36" y="44.21" style="fill:url(#SVGID_00000015319485423256465940000014564003113066238119_);" width="14.97" height="1.7"/>
			
				<linearGradient id="SVGID_00000008114568315032097240000005337334687332062107_" gradientUnits="userSpaceOnUse" x1="101.5712" y1="131.2911" x2="104.1869" y2="32.0559" gradientTransform="matrix(1 0 0 -1 0 168)">
				<stop  offset="0" style="stop-color:#6E6AFF"/>
				<stop  offset="0.657" style="stop-color:#4B2EFF"/>
				<stop  offset="0.9992" style="stop-color:#3B13FF"/>
			</linearGradient>
			
				<rect x="94.36" y="46.24" style="fill:url(#SVGID_00000008114568315032097240000005337334687332062107_);" width="14.97" height="1.7"/>
		</g>
		<g>
			<g>
				
					<linearGradient id="SVGID_00000036240918421355344290000017263416152012073099_" gradientUnits="userSpaceOnUse" x1="126.0474" y1="66.6867" x2="13.1834" y2="53.5307" gradientTransform="matrix(1 0 0 -1 0 168)">
					<stop  offset="0" style="stop-color:#6E6AFF"/>
					<stop  offset="0.657" style="stop-color:#4B2EFF"/>
					<stop  offset="0.9992" style="stop-color:#3B13FF"/>
				</linearGradient>
				<path style="fill:url(#SVGID_00000036240918421355344290000017263416152012073099_);" d="M61.92,109.01
					c-0.7-0.78-1.64-1.16-2.82-1.16h-6.47c-0.01,0-0.03,0-0.05-0.01h-0.37c-1.24,0-1.39-1.95,0.01-1.95h9.1l2.22-2.75H52.25
					c-1.17,0-2.08,0.36-2.76,1.1c-0.46,0.49-0.77,1.04-0.94,1.65c0,0-0.33,1.1-0.05,1.95c0.14,0.71,0.46,1.34,0.97,1.89
					c0.7,0.78,1.63,1.16,2.76,1.16h6.79c0.29,0,0.52,0.11,0.72,0.34c0.19,0.21,0.29,0.47,0.29,0.78c0,0.3-0.11,0.56-0.31,0.78
					c-0.21,0.22-0.46,0.34-0.76,0.34h-9.53l-0.9,2.76h10.54c1.15,0,2.1-0.4,2.83-1.21c0.73-0.8,1.1-1.76,1.11-2.87
					C63,110.74,62.64,109.82,61.92,109.01z"/>
				
					<linearGradient id="SVGID_00000091695570890164125310000007266237794401300402_" gradientUnits="userSpaceOnUse" x1="126.7009" y1="61.0805" x2="13.8368" y2="47.9245" gradientTransform="matrix(1 0 0 -1 0 168)">
					<stop  offset="0" style="stop-color:#6E6AFF"/>
					<stop  offset="0.657" style="stop-color:#4B2EFF"/>
					<stop  offset="0.9992" style="stop-color:#3B13FF"/>
				</linearGradient>
				<path style="fill:url(#SVGID_00000091695570890164125310000007266237794401300402_);" d="M109.03,103.13v2.77h-8.77
					c-1.33,0-2.49,0.72-3.11,1.79c-0.32,0.54-0.5,1.17-0.49,1.83c0,0.46,0.09,0.9,0.25,1.31l0,0c0.54,1.34,1.86,2.29,3.39,2.29h8.73
					v2.77h-8.77c-0.05,0-0.1,0-0.15,0l0,0c-2.11-0.05-3.97-1.13-5.1-2.75c-0.71-1.03-1.13-2.28-1.13-3.63l0,0
					c0-0.49,0.06-0.97,0.16-1.44l0,0c0.61-2.65,2.88-4.68,5.65-4.92l0,0c0.19-0.02,0.37-0.03,0.56-0.03L109.03,103.13L109.03,103.13
					z"/>
				<g>
					
						<linearGradient id="SVGID_00000181809848761584380280000006205446611042008475_" gradientUnits="userSpaceOnUse" x1="125.8734" y1="68.1798" x2="13.0094" y2="55.0238" gradientTransform="matrix(1 0 0 -1 0 168)">
						<stop  offset="0" style="stop-color:#6E6AFF"/>
						<stop  offset="0.657" style="stop-color:#4B2EFF"/>
						<stop  offset="0.9992" style="stop-color:#3B13FF"/>
					</linearGradient>
					
						<rect x="77.98" y="103.13" style="fill:url(#SVGID_00000181809848761584380280000006205446611042008475_);" width="15.15" height="2.77"/>
					
						<linearGradient id="SVGID_00000005949586763153616410000004263533405145283990_" gradientUnits="userSpaceOnUse" x1="126.4484" y1="63.2467" x2="13.5844" y2="50.0909" gradientTransform="matrix(1 0 0 -1 0 168)">
						<stop  offset="0" style="stop-color:#6E6AFF"/>
						<stop  offset="0.657" style="stop-color:#4B2EFF"/>
						<stop  offset="0.9992" style="stop-color:#3B13FF"/>
					</linearGradient>
					
						<rect x="77.98" y="108.13" style="fill:url(#SVGID_00000005949586763153616410000004263533405145283990_);" width="15.15" height="2.77"/>
					
						<linearGradient id="SVGID_00000163795297949649421940000011840150308698514062_" gradientUnits="userSpaceOnUse" x1="127.0223" y1="58.3236" x2="14.1582" y2="45.1678" gradientTransform="matrix(1 0 0 -1 0 168)">
						<stop  offset="0" style="stop-color:#6E6AFF"/>
						<stop  offset="0.657" style="stop-color:#4B2EFF"/>
						<stop  offset="0.9992" style="stop-color:#3B13FF"/>
					</linearGradient>
					
						<rect x="77.98" y="113.12" style="fill:url(#SVGID_00000163795297949649421940000011840150308698514062_);" width="15.15" height="2.77"/>
				</g>
				<g>
					
						<linearGradient id="SVGID_00000170966902727418603830000006641670013294814398_" gradientUnits="userSpaceOnUse" x1="125.6826" y1="69.8164" x2="12.8185" y2="56.6605" gradientTransform="matrix(1 0 0 -1 0 168)">
						<stop  offset="0" style="stop-color:#6E6AFF"/>
						<stop  offset="0.657" style="stop-color:#4B2EFF"/>
						<stop  offset="0.9992" style="stop-color:#3B13FF"/>
					</linearGradient>
					<polygon style="fill:url(#SVGID_00000170966902727418603830000006641670013294814398_);" points="77.24,103.21 77.24,105.97 
						76.18,105.97 76.18,105.97 71.03,105.97 67.82,105.97 67.82,105.97 63.2,105.97 62.09,105.97 64.29,103.21 67.94,103.21 					
						"/>
					
						<linearGradient id="SVGID_00000049909329034241739270000009251007884765497015_" gradientUnits="userSpaceOnUse" x1="126.3975" y1="63.6836" x2="13.5335" y2="50.5277" gradientTransform="matrix(1 0 0 -1 0 168)">
						<stop  offset="0" style="stop-color:#6E6AFF"/>
						<stop  offset="0.657" style="stop-color:#4B2EFF"/>
						<stop  offset="0.9992" style="stop-color:#3B13FF"/>
					</linearGradient>
					<polygon style="fill:url(#SVGID_00000049909329034241739270000009251007884765497015_);" points="68.28,105.97 68.28,115.89 
						71.04,115.89 71.04,105.97 					"/>
				</g>
				<g>
					<g>
						
							<linearGradient id="SVGID_00000085934094490183497140000000235668666433192834_" gradientUnits="userSpaceOnUse" x1="126.791" y1="60.3076" x2="13.9269" y2="47.1518" gradientTransform="matrix(1 0 0 -1 0 168)">
							<stop  offset="0" style="stop-color:#6E6AFF"/>
							<stop  offset="0.657" style="stop-color:#4B2EFF"/>
							<stop  offset="0.9992" style="stop-color:#3B13FF"/>
						</linearGradient>
						
							<rect x="109.77" y="103.13" style="fill:url(#SVGID_00000085934094490183497140000000235668666433192834_);" width="2.77" height="12.76"/>
						
							<linearGradient id="SVGID_00000173871562078272233270000014937027730907464576_" gradientUnits="userSpaceOnUse" x1="126.9573" y1="58.8805" x2="14.0933" y2="45.7245" gradientTransform="matrix(1 0 0 -1 0 168)">
							<stop  offset="0" style="stop-color:#6E6AFF"/>
							<stop  offset="0.657" style="stop-color:#4B2EFF"/>
							<stop  offset="0.9992" style="stop-color:#3B13FF"/>
						</linearGradient>
						
							<rect x="122.18" y="103.13" style="fill:url(#SVGID_00000173871562078272233270000014937027730907464576_);" width="2.77" height="12.76"/>
					</g>
					
						<linearGradient id="SVGID_00000019660301060201408000000008494161402411742625_" gradientUnits="userSpaceOnUse" x1="126.9089" y1="59.2962" x2="14.0448" y2="46.1402" gradientTransform="matrix(1 0 0 -1 0 168)">
						<stop  offset="0" style="stop-color:#6E6AFF"/>
						<stop  offset="0.657" style="stop-color:#4B2EFF"/>
						<stop  offset="0.9992" style="stop-color:#3B13FF"/>
					</linearGradient>
					<polygon style="fill:url(#SVGID_00000019660301060201408000000008494161402411742625_);" points="124.96,108.12 124.96,110.9 
						113.41,110.9 114.94,108.12 					"/>
				</g>
			</g>
			<g class="st25">
				
					<linearGradient id="SVGID_00000058583354127034870660000011688611718488101304_" gradientUnits="userSpaceOnUse" x1="127.9544" y1="28.9687" x2="38.4348" y2="49.5434" gradientTransform="matrix(1 0 0 -1 0 168)">
					<stop  offset="0" style="stop-color:#6E6AFF"/>
					<stop  offset="0.657" style="stop-color:#4B2EFF"/>
					<stop  offset="0.9992" style="stop-color:#3B13FF"/>
				</linearGradient>
				<path style="fill:url(#SVGID_00000058583354127034870660000011688611718488101304_);" d="M59.86,126.55
					c-0.49-0.49-0.74-1.19-0.74-2.11v-3.48h1.44v3.43c0,1.11,0.46,1.67,1.39,1.67c0.45,0,0.79-0.13,1.03-0.4s0.36-0.69,0.36-1.27
					v-3.43h1.42v3.48c0,0.91-0.25,1.61-0.74,2.11c-0.49,0.49-1.19,0.74-2.07,0.74C61.05,127.29,60.36,127.04,59.86,126.55z"/>
				
					<linearGradient id="SVGID_00000045604573578563389220000015005601564088058273_" gradientUnits="userSpaceOnUse" x1="128.263" y1="30.3112" x2="38.7433" y2="50.8859" gradientTransform="matrix(1 0 0 -1 0 168)">
					<stop  offset="0" style="stop-color:#6E6AFF"/>
					<stop  offset="0.657" style="stop-color:#4B2EFF"/>
					<stop  offset="0.9992" style="stop-color:#3B13FF"/>
				</linearGradient>
				<path style="fill:url(#SVGID_00000045604573578563389220000015005601564088058273_);" d="M71.88,120.97v6.22H70.7l-3.1-3.78
					v3.78h-1.42v-6.22h1.19l3.09,3.78v-3.78H71.88z"/>
				
					<linearGradient id="SVGID_00000126295603815810454780000017943013964984531643_" gradientUnits="userSpaceOnUse" x1="128.5158" y1="31.4114" x2="38.9962" y2="51.9862" gradientTransform="matrix(1 0 0 -1 0 168)">
					<stop  offset="0" style="stop-color:#6E6AFF"/>
					<stop  offset="0.657" style="stop-color:#4B2EFF"/>
					<stop  offset="0.9992" style="stop-color:#3B13FF"/>
				</linearGradient>
				<path style="fill:url(#SVGID_00000126295603815810454780000017943013964984531643_);" d="M73.35,120.97h1.44v6.22h-1.44V120.97z
					"/>
				
					<linearGradient id="SVGID_00000172435382369729092870000005783261450476383367_" gradientUnits="userSpaceOnUse" x1="129.0255" y1="33.6294" x2="39.506" y2="54.2041" gradientTransform="matrix(1 0 0 -1 0 168)">
					<stop  offset="0" style="stop-color:#6E6AFF"/>
					<stop  offset="0.657" style="stop-color:#4B2EFF"/>
					<stop  offset="0.9992" style="stop-color:#3B13FF"/>
				</linearGradient>
				<path style="fill:url(#SVGID_00000172435382369729092870000005783261450476383367_);" d="M88.18,120.97l-2.03,6.22H84.6
					l-1.37-4.21l-1.41,4.21h-1.54l-2.04-6.22h1.49l1.4,4.37l1.47-4.37h1.33l1.42,4.41l1.45-4.41H88.18z"/>
				
					<linearGradient id="SVGID_00000156546285875769594750000009833421681383502210_" gradientUnits="userSpaceOnUse" x1="129.4118" y1="35.3099" x2="39.8921" y2="55.8847" gradientTransform="matrix(1 0 0 -1 0 168)">
					<stop  offset="0" style="stop-color:#6E6AFF"/>
					<stop  offset="0.657" style="stop-color:#4B2EFF"/>
					<stop  offset="0.9992" style="stop-color:#3B13FF"/>
				</linearGradient>
				<path style="fill:url(#SVGID_00000156546285875769594750000009833421681383502210_);" d="M90.18,126.87
					c-0.52-0.28-0.92-0.66-1.22-1.15c-0.29-0.49-0.44-1.04-0.44-1.65s0.15-1.16,0.44-1.65s0.7-0.87,1.22-1.15s1.1-0.42,1.75-0.42
					s1.23,0.14,1.74,0.42c0.52,0.28,0.92,0.66,1.22,1.15s0.44,1.04,0.44,1.65s-0.15,1.16-0.44,1.65c-0.3,0.49-0.7,0.87-1.22,1.15
					s-1.1,0.42-1.74,0.42C91.28,127.29,90.69,127.15,90.18,126.87z M92.92,125.82c0.3-0.17,0.53-0.4,0.7-0.71
					c0.17-0.3,0.25-0.65,0.25-1.03c0-0.39-0.08-0.73-0.25-1.03s-0.4-0.54-0.7-0.71c-0.3-0.17-0.63-0.25-1-0.25s-0.7,0.08-1,0.25
					s-0.53,0.4-0.7,0.71s-0.25,0.65-0.25,1.03s0.08,0.73,0.25,1.03s0.4,0.54,0.7,0.71c0.3,0.17,0.63,0.25,1,0.25
					S92.62,125.98,92.92,125.82z"/>
				
					<linearGradient id="SVGID_00000097469240329513299480000011384203295100702081_" gradientUnits="userSpaceOnUse" x1="129.7163" y1="36.6344" x2="40.1966" y2="57.2091" gradientTransform="matrix(1 0 0 -1 0 168)">
					<stop  offset="0" style="stop-color:#6E6AFF"/>
					<stop  offset="0.657" style="stop-color:#4B2EFF"/>
					<stop  offset="0.9992" style="stop-color:#3B13FF"/>
				</linearGradient>
				<path style="fill:url(#SVGID_00000097469240329513299480000011384203295100702081_);" d="M100.37,127.18l-1.2-1.73H99.1h-1.25
					v1.73h-1.44v-6.22h2.69c0.55,0,1.03,0.09,1.43,0.28c0.41,0.18,0.72,0.44,0.94,0.78c0.22,0.34,0.33,0.74,0.33,1.2
					s-0.11,0.86-0.33,1.19s-0.54,0.59-0.95,0.77l1.39,2H100.37z M100.01,122.41c-0.23-0.19-0.55-0.28-0.99-0.28h-1.17v2.17h1.17
					c0.43,0,0.76-0.09,0.99-0.28c0.22-0.19,0.34-0.46,0.34-0.8C100.34,122.87,100.23,122.6,100.01,122.41z"/>
				
					<linearGradient id="SVGID_00000074416945495958892460000012254155105657882514_" gradientUnits="userSpaceOnUse" x1="130.0005" y1="37.871" x2="40.4808" y2="58.4457" gradientTransform="matrix(1 0 0 -1 0 168)">
					<stop  offset="0" style="stop-color:#6E6AFF"/>
					<stop  offset="0.657" style="stop-color:#4B2EFF"/>
					<stop  offset="0.9992" style="stop-color:#3B13FF"/>
				</linearGradient>
				<path style="fill:url(#SVGID_00000074416945495958892460000012254155105657882514_);" d="M102.94,120.97h1.44v5.05h3.12v1.17
					h-4.56V120.97z"/>
				
					<linearGradient id="SVGID_00000019640503684993008720000014200524510522279298_" gradientUnits="userSpaceOnUse" x1="130.3176" y1="39.2509" x2="40.7979" y2="59.8255" gradientTransform="matrix(1 0 0 -1 0 168)">
					<stop  offset="0" style="stop-color:#6E6AFF"/>
					<stop  offset="0.657" style="stop-color:#4B2EFF"/>
					<stop  offset="0.9992" style="stop-color:#3B13FF"/>
				</linearGradient>
				<path style="fill:url(#SVGID_00000019640503684993008720000014200524510522279298_);" d="M108.3,120.97h2.83
					c0.68,0,1.27,0.13,1.79,0.39c0.52,0.26,0.92,0.62,1.21,1.09c0.29,0.47,0.43,1.01,0.43,1.63s-0.14,1.17-0.43,1.63
					c-0.29,0.47-0.69,0.83-1.21,1.09s-1.11,0.39-1.79,0.39h-2.83V120.97z M111.06,126c0.62,0,1.12-0.17,1.49-0.52
					s0.56-0.82,0.56-1.41c0-0.59-0.18-1.06-0.56-1.41c-0.37-0.35-0.87-0.52-1.49-0.52h-1.31V126L111.06,126L111.06,126z"/>
			</g>
		</g>
	</g>
</g>
</svg>
