<?xml version="1.0" encoding="utf-8"?>
<!-- Generator: Adobe Illustrator 26.0.3, SVG Export Plug-In . SVG Version: 6.00 Build 0)  -->
<svg version="1.1" id="Layer_1" xmlns="http://www.w3.org/2000/svg" xmlns:xlink="http://www.w3.org/1999/xlink" x="0px" y="0px"
	 viewBox="0 0 173.48 166" style="enable-background:new 0 0 173.48 166;" xml:space="preserve">
<style type="text/css">
	.st0{fill:url(#SVGID_1_);}
	.st1{fill:url(#SVGID_00000126303996122225071100000008241623314631316145_);}
	.st2{fill:url(#SVGID_00000143576658063834143710000006841572351708973494_);}
	.st3{fill:url(#SVGID_00000028313757465984016870000006788931072328245156_);}
	.st4{fill:url(#SVGID_00000054226071775397358030000011340234333329817013_);}
	.st5{fill:url(#SVGID_00000172422017470631484700000015683741849494186685_);}
	.st6{fill:url(#SVGID_00000106113538230420935460000004358084362639884423_);}
	.st7{fill:url(#SVGID_00000160179340434496756240000013948978748984481670_);}
	.st8{fill:url(#SVGID_00000151526214546025519950000007212465203010208957_);}
	.st9{fill:url(#SVGID_00000092438720007168465770000006601837799130329505_);}
	.st10{fill:url(#SVGID_00000096770810312768677160000018260383264278997429_);}
	.st11{fill:url(#SVGID_00000131357820428551209500000015400777664161909175_);}
	.st12{fill:url(#SVGID_00000082357791674488349720000008485350711349783430_);}
	.st13{fill:url(#SVGID_00000181802772276329286660000009011784848563104395_);}
	.st14{fill:url(#SVGID_00000172401170886212944310000015260084310057650844_);}
	.st15{fill:url(#SVGID_00000174584665671009574190000007145926358758037139_);}
	.st16{fill:url(#SVGID_00000051385566814356881440000004873072229798749062_);}
	.st17{fill:url(#SVGID_00000109724660764541978600000016167638098967110037_);}
	.st18{fill:url(#SVGID_00000149351316260643426680000009679480151534230175_);}
	.st19{fill:url(#SVGID_00000145770942959173957520000000765943481850573716_);}
	.st20{fill:url(#SVGID_00000175292802744228562380000007584708841910382246_);}
	.st21{fill:url(#SVGID_00000134947660279083928800000002193791668530735790_);}
	.st22{fill:url(#SVGID_00000037682244547686906290000005698191656157331884_);}
	.st23{opacity:0.5;}
	.st24{fill:url(#SVGID_00000163061914754977579820000017544760704165950117_);}
	.st25{fill:url(#SVGID_00000137832277221187204790000014339341814247848636_);}
	.st26{fill:url(#SVGID_00000060027083890705123640000004615897803037334714_);}
	.st27{fill:url(#SVGID_00000021830194815826381980000007585784316466081173_);}
	.st28{fill:url(#SVGID_00000177445039775471714980000005574422198687870376_);}
	.st29{fill:url(#SVGID_00000174599102782230223500000016199348937398946951_);}
	.st30{fill:url(#SVGID_00000121249339604001740630000010541702120454961284_);}
	.st31{fill:url(#SVGID_00000145033625792858054240000014177781837110594698_);}
</style>
<g>
	<g>
		
			<linearGradient id="SVGID_1_" gradientUnits="userSpaceOnUse" x1="86.1197" y1="142.1142" x2="89.4476" y2="15.8574" gradientTransform="matrix(1 0 0 -1 0 168)">
			<stop  offset="0" style="stop-color:#6E6AFF"/>
			<stop  offset="0.657" style="stop-color:#4B2EFF"/>
			<stop  offset="0.9992" style="stop-color:#3B13FF"/>
		</linearGradient>
		<path class="st0" d="M58.43,44.42v28.56c0,15.78,12.79,28.56,28.56,28.56l0,0c15.78,0,28.56-12.79,28.56-28.56V44.42H96.51v9.52
			c0,5.25-4.26,9.52-9.52,9.52l0,0c-5.25,0-9.52,4.26-9.52,9.52V44.41H58.43V44.42z"/>
		
			<linearGradient id="SVGID_00000075866255444511233650000011488397716181400506_" gradientUnits="userSpaceOnUse" x1="67.9474" y1="141.6352" x2="71.2754" y2="15.3784" gradientTransform="matrix(1 0 0 -1 0 168)">
			<stop  offset="0" style="stop-color:#6E6AFF"/>
			<stop  offset="0.657" style="stop-color:#4B2EFF"/>
			<stop  offset="0.9992" style="stop-color:#3B13FF"/>
		</linearGradient>
		
			<rect x="58.43" y="25.38" style="fill:url(#SVGID_00000075866255444511233650000011488397716181400506_);" width="19.05" height="2.16"/>
		
			<linearGradient id="SVGID_00000030452084839127060960000016630644243400822455_" gradientUnits="userSpaceOnUse" x1="67.879" y1="141.6333" x2="71.2069" y2="15.3765" gradientTransform="matrix(1 0 0 -1 0 168)">
			<stop  offset="0" style="stop-color:#6E6AFF"/>
			<stop  offset="0.657" style="stop-color:#4B2EFF"/>
			<stop  offset="0.9992" style="stop-color:#3B13FF"/>
		</linearGradient>
		
			<rect x="58.43" y="27.97" style="fill:url(#SVGID_00000030452084839127060960000016630644243400822455_);" width="19.05" height="2.16"/>
		
			<linearGradient id="SVGID_00000053524348356220198100000007983596867951485367_" gradientUnits="userSpaceOnUse" x1="81.9743" y1="142.0049" x2="85.3024" y2="15.7482" gradientTransform="matrix(1 0 0 -1 0 168)">
			<stop  offset="0" style="stop-color:#6E6AFF"/>
			<stop  offset="0.657" style="stop-color:#4B2EFF"/>
			<stop  offset="0.9992" style="stop-color:#3B13FF"/>
		</linearGradient>
		
			<rect x="72.71" y="34.91" style="fill:url(#SVGID_00000053524348356220198100000007983596867951485367_);" width="19.05" height="2.16"/>
		
			<linearGradient id="SVGID_00000017487906360056959720000014313184680949074830_" gradientUnits="userSpaceOnUse" x1="81.906" y1="142.0031" x2="85.2339" y2="15.7463" gradientTransform="matrix(1 0 0 -1 0 168)">
			<stop  offset="0" style="stop-color:#6E6AFF"/>
			<stop  offset="0.657" style="stop-color:#4B2EFF"/>
			<stop  offset="0.9992" style="stop-color:#3B13FF"/>
		</linearGradient>
		
			<rect x="72.71" y="37.5" style="fill:url(#SVGID_00000017487906360056959720000014313184680949074830_);" width="19.05" height="2.16"/>
		
			<linearGradient id="SVGID_00000041266922838105064050000011422509883467771311_" gradientUnits="userSpaceOnUse" x1="62.9349" y1="141.5031" x2="66.2629" y2="15.2463" gradientTransform="matrix(1 0 0 -1 0 168)">
			<stop  offset="0" style="stop-color:#6E6AFF"/>
			<stop  offset="0.657" style="stop-color:#4B2EFF"/>
			<stop  offset="0.9992" style="stop-color:#3B13FF"/>
		</linearGradient>
		
			<rect x="58.43" y="34.91" style="fill:url(#SVGID_00000041266922838105064050000011422509883467771311_);" width="9.52" height="2.16"/>
		
			<linearGradient id="SVGID_00000106134267987608176820000009152317223628378527_" gradientUnits="userSpaceOnUse" x1="62.8665" y1="141.5012" x2="66.1945" y2="15.2444" gradientTransform="matrix(1 0 0 -1 0 168)">
			<stop  offset="0" style="stop-color:#6E6AFF"/>
			<stop  offset="0.657" style="stop-color:#4B2EFF"/>
			<stop  offset="0.9992" style="stop-color:#3B13FF"/>
		</linearGradient>
		
			<rect x="58.43" y="37.5" style="fill:url(#SVGID_00000106134267987608176820000009152317223628378527_);" width="9.52" height="2.16"/>
		
			<linearGradient id="SVGID_00000034064310201505126750000014806639657634997898_" gradientUnits="userSpaceOnUse" x1="91.7355" y1="142.2622" x2="95.0636" y2="16.0054" gradientTransform="matrix(1 0 0 -1 0 168)">
			<stop  offset="0" style="stop-color:#6E6AFF"/>
			<stop  offset="0.657" style="stop-color:#4B2EFF"/>
			<stop  offset="0.9992" style="stop-color:#3B13FF"/>
		</linearGradient>
		
			<rect x="82.23" y="25.38" style="fill:url(#SVGID_00000034064310201505126750000014806639657634997898_);" width="19.05" height="2.16"/>
		
			<linearGradient id="SVGID_00000171695882095301036070000003811280681778193056_" gradientUnits="userSpaceOnUse" x1="91.6672" y1="142.2605" x2="94.9952" y2="16.0037" gradientTransform="matrix(1 0 0 -1 0 168)">
			<stop  offset="0" style="stop-color:#6E6AFF"/>
			<stop  offset="0.657" style="stop-color:#4B2EFF"/>
			<stop  offset="0.9992" style="stop-color:#3B13FF"/>
		</linearGradient>
		
			<rect x="82.23" y="27.97" style="fill:url(#SVGID_00000171695882095301036070000003811280681778193056_);" width="19.05" height="2.16"/>
		
			<linearGradient id="SVGID_00000047048260799598358640000011575325103184726915_" gradientUnits="userSpaceOnUse" x1="110.7623" y1="142.7637" x2="114.0904" y2="16.5069" gradientTransform="matrix(1 0 0 -1 0 168)">
			<stop  offset="0" style="stop-color:#6E6AFF"/>
			<stop  offset="0.657" style="stop-color:#4B2EFF"/>
			<stop  offset="0.9992" style="stop-color:#3B13FF"/>
		</linearGradient>
		
			<rect x="106.04" y="25.38" style="fill:url(#SVGID_00000047048260799598358640000011575325103184726915_);" width="9.52" height="2.16"/>
		
			<linearGradient id="SVGID_00000128451756448367420080000006131730247435778740_" gradientUnits="userSpaceOnUse" x1="110.6939" y1="142.762" x2="114.0219" y2="16.5052" gradientTransform="matrix(1 0 0 -1 0 168)">
			<stop  offset="0" style="stop-color:#6E6AFF"/>
			<stop  offset="0.657" style="stop-color:#4B2EFF"/>
			<stop  offset="0.9992" style="stop-color:#3B13FF"/>
		</linearGradient>
		
			<rect x="106.04" y="27.97" style="fill:url(#SVGID_00000128451756448367420080000006131730247435778740_);" width="9.52" height="2.16"/>
		
			<linearGradient id="SVGID_00000089535720117306718170000014744278126650020258_" gradientUnits="userSpaceOnUse" x1="105.7625" y1="142.6319" x2="109.0907" y2="16.3751" gradientTransform="matrix(1 0 0 -1 0 168)">
			<stop  offset="0" style="stop-color:#6E6AFF"/>
			<stop  offset="0.657" style="stop-color:#4B2EFF"/>
			<stop  offset="0.9992" style="stop-color:#3B13FF"/>
		</linearGradient>
		
			<rect x="96.52" y="34.91" style="fill:url(#SVGID_00000089535720117306718170000014744278126650020258_);" width="19.05" height="2.16"/>
		
			<linearGradient id="SVGID_00000047757695871136938720000004781687329309020340_" gradientUnits="userSpaceOnUse" x1="105.6942" y1="142.6302" x2="109.0221" y2="16.3733" gradientTransform="matrix(1 0 0 -1 0 168)">
			<stop  offset="0" style="stop-color:#6E6AFF"/>
			<stop  offset="0.657" style="stop-color:#4B2EFF"/>
			<stop  offset="0.9992" style="stop-color:#3B13FF"/>
		</linearGradient>
		
			<rect x="96.52" y="37.5" style="fill:url(#SVGID_00000047757695871136938720000004781687329309020340_);" width="19.05" height="2.16"/>
	</g>
	<g>
		<g>
			
				<linearGradient id="SVGID_00000076592543704667243930000017238729927934713480_" gradientUnits="userSpaceOnUse" x1="136.8352" y1="60.434" x2="-6.7617" y2="43.6957" gradientTransform="matrix(1 0 0 -1 0 168)">
				<stop  offset="0" style="stop-color:#6E6AFF"/>
				<stop  offset="0.657" style="stop-color:#4B2EFF"/>
				<stop  offset="0.9992" style="stop-color:#3B13FF"/>
			</linearGradient>
			<path style="fill:url(#SVGID_00000076592543704667243930000017238729927934713480_);" d="M55.25,117.36
				c-0.89-0.99-2.09-1.48-3.59-1.48h-8.23c-0.01,0-0.04,0-0.06-0.01h-0.47c-1.58,0-1.77-2.48,0.01-2.48h11.58l2.82-3.5H42.94
				c-1.49,0-2.65,0.46-3.51,1.4c-0.59,0.62-0.98,1.32-1.2,2.1c0,0-0.42,1.4-0.06,2.48c0.18,0.9,0.59,1.7,1.23,2.4
				c0.89,0.99,2.07,1.48,3.51,1.48h8.64c0.37,0,0.66,0.14,0.92,0.43c0.24,0.27,0.37,0.6,0.37,0.99c0,0.38-0.14,0.71-0.39,0.99
				c-0.27,0.28-0.59,0.43-0.97,0.43H39.35l-1.15,3.51h13.41c1.46,0,2.67-0.51,3.6-1.54c0.93-1.02,1.4-2.24,1.41-3.65
				C56.62,119.57,56.16,118.38,55.25,117.36z"/>
			
				<linearGradient id="SVGID_00000158012849848334124220000009708219232300239261_" gradientUnits="userSpaceOnUse" x1="137.6666" y1="53.3013" x2="-5.9302" y2="36.5629" gradientTransform="matrix(1 0 0 -1 0 168)">
				<stop  offset="0" style="stop-color:#6E6AFF"/>
				<stop  offset="0.657" style="stop-color:#4B2EFF"/>
				<stop  offset="0.9992" style="stop-color:#3B13FF"/>
			</linearGradient>
			<path style="fill:url(#SVGID_00000158012849848334124220000009708219232300239261_);" d="M115.18,109.88v3.52h-11.16
				c-1.69,0-3.17,0.92-3.96,2.28c-0.41,0.69-0.64,1.49-0.62,2.33c0,0.59,0.11,1.15,0.32,1.67l0,0c0.69,1.7,2.37,2.91,4.31,2.91
				h11.11v3.52h-11.16c-0.06,0-0.13,0-0.19,0l0,0c-2.68-0.06-5.05-1.44-6.49-3.5c-0.9-1.31-1.44-2.9-1.44-4.62l0,0
				c0-0.62,0.08-1.23,0.2-1.83l0,0c0.78-3.37,3.66-5.95,7.19-6.26l0,0c0.24-0.03,0.47-0.04,0.71-0.04h11.17V109.88z"/>
			<g>
				
					<linearGradient id="SVGID_00000020382155804512269000000004940017889324300199_" gradientUnits="userSpaceOnUse" x1="136.6138" y1="62.3337" x2="-6.983" y2="45.5953" gradientTransform="matrix(1 0 0 -1 0 168)">
					<stop  offset="0" style="stop-color:#6E6AFF"/>
					<stop  offset="0.657" style="stop-color:#4B2EFF"/>
					<stop  offset="0.9992" style="stop-color:#3B13FF"/>
				</linearGradient>
				
					<rect x="75.68" y="109.88" style="fill:url(#SVGID_00000020382155804512269000000004940017889324300199_);" width="19.28" height="3.52"/>
				
					<linearGradient id="SVGID_00000178201663913775433290000005510531113453154209_" gradientUnits="userSpaceOnUse" x1="137.3454" y1="56.0574" x2="-6.2514" y2="39.3192" gradientTransform="matrix(1 0 0 -1 0 168)">
					<stop  offset="0" style="stop-color:#6E6AFF"/>
					<stop  offset="0.657" style="stop-color:#4B2EFF"/>
					<stop  offset="0.9992" style="stop-color:#3B13FF"/>
				</linearGradient>
				
					<rect x="75.68" y="116.25" style="fill:url(#SVGID_00000178201663913775433290000005510531113453154209_);" width="19.28" height="3.52"/>
				
					<linearGradient id="SVGID_00000110439228009014314190000007402445607319771300_" gradientUnits="userSpaceOnUse" x1="138.0755" y1="49.7938" x2="-5.5214" y2="33.0555" gradientTransform="matrix(1 0 0 -1 0 168)">
					<stop  offset="0" style="stop-color:#6E6AFF"/>
					<stop  offset="0.657" style="stop-color:#4B2EFF"/>
					<stop  offset="0.9992" style="stop-color:#3B13FF"/>
				</linearGradient>
				
					<rect x="75.68" y="122.59" style="fill:url(#SVGID_00000110439228009014314190000007402445607319771300_);" width="19.28" height="3.52"/>
			</g>
			<g>
				
					<linearGradient id="SVGID_00000175300436750062188610000003280956893785431209_" gradientUnits="userSpaceOnUse" x1="136.3711" y1="64.416" x2="-7.2258" y2="47.6777" gradientTransform="matrix(1 0 0 -1 0 168)">
					<stop  offset="0" style="stop-color:#6E6AFF"/>
					<stop  offset="0.657" style="stop-color:#4B2EFF"/>
					<stop  offset="0.9992" style="stop-color:#3B13FF"/>
				</linearGradient>
				<polygon style="fill:url(#SVGID_00000175300436750062188610000003280956893785431209_);" points="74.74,109.97 74.74,113.48 
					73.39,113.48 73.39,113.48 66.84,113.48 62.75,113.48 62.75,113.48 56.87,113.48 55.46,113.48 58.26,109.97 62.91,109.97 				
					"/>
				
					<linearGradient id="SVGID_00000108301535824279866420000008413893739216112015_" gradientUnits="userSpaceOnUse" x1="137.2806" y1="56.6132" x2="-6.3162" y2="39.8749" gradientTransform="matrix(1 0 0 -1 0 168)">
					<stop  offset="0" style="stop-color:#6E6AFF"/>
					<stop  offset="0.657" style="stop-color:#4B2EFF"/>
					<stop  offset="0.9992" style="stop-color:#3B13FF"/>
				</linearGradient>
				<polygon style="fill:url(#SVGID_00000108301535824279866420000008413893739216112015_);" points="63.34,113.48 63.34,126.12 
					66.85,126.12 66.85,113.48 				"/>
			</g>
			<g>
				<g>
					
						<linearGradient id="SVGID_00000065042304966760097320000017000707147814630577_" gradientUnits="userSpaceOnUse" x1="137.7813" y1="52.318" x2="-5.8157" y2="35.5798" gradientTransform="matrix(1 0 0 -1 0 168)">
						<stop  offset="0" style="stop-color:#6E6AFF"/>
						<stop  offset="0.657" style="stop-color:#4B2EFF"/>
						<stop  offset="0.9992" style="stop-color:#3B13FF"/>
					</linearGradient>
					
						<rect x="116.13" y="109.88" style="fill:url(#SVGID_00000065042304966760097320000017000707147814630577_);" width="3.52" height="16.23"/>
					
						<linearGradient id="SVGID_00000026875725692052187510000000866187547116446647_" gradientUnits="userSpaceOnUse" x1="137.9929" y1="50.5022" x2="-5.6039" y2="33.7638" gradientTransform="matrix(1 0 0 -1 0 168)">
						<stop  offset="0" style="stop-color:#6E6AFF"/>
						<stop  offset="0.657" style="stop-color:#4B2EFF"/>
						<stop  offset="0.9992" style="stop-color:#3B13FF"/>
					</linearGradient>
					
						<rect x="131.91" y="109.88" style="fill:url(#SVGID_00000026875725692052187510000000866187547116446647_);" width="3.52" height="16.23"/>
				</g>
				
					<linearGradient id="SVGID_00000011730789142276266040000010518903232412852609_" gradientUnits="userSpaceOnUse" x1="137.9313" y1="51.0312" x2="-5.6656" y2="34.2928" gradientTransform="matrix(1 0 0 -1 0 168)">
					<stop  offset="0" style="stop-color:#6E6AFF"/>
					<stop  offset="0.657" style="stop-color:#4B2EFF"/>
					<stop  offset="0.9992" style="stop-color:#3B13FF"/>
				</linearGradient>
				<polygon style="fill:url(#SVGID_00000011730789142276266040000010518903232412852609_);" points="135.45,116.23 135.45,119.77 
					120.76,119.77 122.7,116.23 				"/>
			</g>
		</g>
		<g class="st23">
			
				<linearGradient id="SVGID_00000000943835285791731050000001003172606164225193_" gradientUnits="userSpaceOnUse" x1="139.2615" y1="12.4455" x2="25.3657" y2="38.6227" gradientTransform="matrix(1 0 0 -1 0 168)">
				<stop  offset="0" style="stop-color:#6E6AFF"/>
				<stop  offset="0.657" style="stop-color:#4B2EFF"/>
				<stop  offset="0.9992" style="stop-color:#3B13FF"/>
			</linearGradient>
			<path style="fill:url(#SVGID_00000000943835285791731050000001003172606164225193_);" d="M52.62,139.68
				c-0.62-0.62-0.94-1.51-0.94-2.68v-4.43h1.83v4.36c0,1.41,0.59,2.12,1.77,2.12c0.57,0,1.01-0.17,1.31-0.51
				c0.31-0.34,0.46-0.88,0.46-1.62v-4.36h1.81V137c0,1.16-0.32,2.05-0.94,2.68c-0.62,0.62-1.51,0.94-2.63,0.94
				C54.14,140.62,53.26,140.3,52.62,139.68z"/>
			
				<linearGradient id="SVGID_00000112626101912034098590000003235907215846580664_" gradientUnits="userSpaceOnUse" x1="139.6541" y1="14.1535" x2="25.7582" y2="40.3307" gradientTransform="matrix(1 0 0 -1 0 168)">
				<stop  offset="0" style="stop-color:#6E6AFF"/>
				<stop  offset="0.657" style="stop-color:#4B2EFF"/>
				<stop  offset="0.9992" style="stop-color:#3B13FF"/>
			</linearGradient>
			<path style="fill:url(#SVGID_00000112626101912034098590000003235907215846580664_);" d="M67.92,132.57v7.91h-1.5l-3.94-4.81
				v4.81h-1.81v-7.91h1.51l3.93,4.81v-4.81H67.92z"/>
			
				<linearGradient id="SVGID_00000105411280068853077740000010318418310911908247_" gradientUnits="userSpaceOnUse" x1="139.9758" y1="15.5534" x2="26.08" y2="41.7306" gradientTransform="matrix(1 0 0 -1 0 168)">
				<stop  offset="0" style="stop-color:#6E6AFF"/>
				<stop  offset="0.657" style="stop-color:#4B2EFF"/>
				<stop  offset="0.9992" style="stop-color:#3B13FF"/>
			</linearGradient>
			<path style="fill:url(#SVGID_00000105411280068853077740000010318418310911908247_);" d="M69.79,132.57h1.83v7.91h-1.83V132.57z"
				/>
			
				<linearGradient id="SVGID_00000177473698199439055880000009859769744432561079_" gradientUnits="userSpaceOnUse" x1="140.6243" y1="18.3753" x2="26.7286" y2="44.5525" gradientTransform="matrix(1 0 0 -1 0 168)">
				<stop  offset="0" style="stop-color:#6E6AFF"/>
				<stop  offset="0.657" style="stop-color:#4B2EFF"/>
				<stop  offset="0.9992" style="stop-color:#3B13FF"/>
			</linearGradient>
			<path style="fill:url(#SVGID_00000177473698199439055880000009859769744432561079_);" d="M88.66,132.57l-2.58,7.91H84.1
				l-1.74-5.36l-1.79,5.36h-1.96l-2.6-7.91h1.9l1.78,5.56l1.87-5.56h1.69l1.81,5.61l1.84-5.61H88.66z"/>
			
				<linearGradient id="SVGID_00000101791422670376116700000006139065838473758593_" gradientUnits="userSpaceOnUse" x1="141.1158" y1="20.5134" x2="27.2199" y2="46.6906" gradientTransform="matrix(1 0 0 -1 0 168)">
				<stop  offset="0" style="stop-color:#6E6AFF"/>
				<stop  offset="0.657" style="stop-color:#4B2EFF"/>
				<stop  offset="0.9992" style="stop-color:#3B13FF"/>
			</linearGradient>
			<path style="fill:url(#SVGID_00000101791422670376116700000006139065838473758593_);" d="M91.2,140.09
				c-0.66-0.36-1.17-0.84-1.55-1.46c-0.37-0.62-0.56-1.32-0.56-2.1c0-0.78,0.19-1.48,0.56-2.1s0.89-1.11,1.55-1.46
				s1.4-0.53,2.23-0.53s1.56,0.18,2.21,0.53c0.66,0.36,1.17,0.84,1.55,1.46c0.38,0.62,0.56,1.32,0.56,2.1c0,0.78-0.19,1.48-0.56,2.1
				c-0.38,0.62-0.89,1.11-1.55,1.46c-0.66,0.36-1.4,0.53-2.21,0.53C92.6,140.62,91.85,140.44,91.2,140.09z M94.69,138.74
				c0.38-0.22,0.67-0.51,0.89-0.9c0.22-0.38,0.32-0.83,0.32-1.31c0-0.5-0.1-0.93-0.32-1.31c-0.22-0.38-0.51-0.69-0.89-0.9
				c-0.38-0.22-0.8-0.32-1.27-0.32c-0.47,0-0.89,0.1-1.27,0.32c-0.38,0.22-0.67,0.51-0.89,0.9s-0.32,0.83-0.32,1.31
				c0,0.48,0.1,0.93,0.32,1.31c0.22,0.38,0.51,0.69,0.89,0.9c0.38,0.22,0.8,0.32,1.27,0.32C93.89,139.06,94.31,138.96,94.69,138.74z
				"/>
			
				<linearGradient id="SVGID_00000090986296120239747890000001088067044736060054_" gradientUnits="userSpaceOnUse" x1="141.5031" y1="22.1986" x2="27.6073" y2="48.3758" gradientTransform="matrix(1 0 0 -1 0 168)">
				<stop  offset="0" style="stop-color:#6E6AFF"/>
				<stop  offset="0.657" style="stop-color:#4B2EFF"/>
				<stop  offset="0.9992" style="stop-color:#3B13FF"/>
			</linearGradient>
			<path style="fill:url(#SVGID_00000090986296120239747890000001088067044736060054_);" d="M104.17,140.48l-1.53-2.2h-0.09h-1.59
				v2.2h-1.83v-7.91h3.42c0.7,0,1.31,0.11,1.82,0.36c0.52,0.23,0.92,0.56,1.2,0.99c0.28,0.43,0.42,0.94,0.42,1.53
				s-0.14,1.09-0.42,1.51s-0.69,0.75-1.21,0.98l1.77,2.54H104.17z M103.71,134.41c-0.29-0.24-0.7-0.36-1.26-0.36h-1.49v2.76h1.49
				c0.55,0,0.97-0.11,1.26-0.36c0.28-0.24,0.43-0.59,0.43-1.02C104.13,135,103.99,134.66,103.71,134.41z"/>
			
				<linearGradient id="SVGID_00000166664481512534647040000000451307451151504014_" gradientUnits="userSpaceOnUse" x1="141.8647" y1="23.7718" x2="27.9688" y2="49.949" gradientTransform="matrix(1 0 0 -1 0 168)">
				<stop  offset="0" style="stop-color:#6E6AFF"/>
				<stop  offset="0.657" style="stop-color:#4B2EFF"/>
				<stop  offset="0.9992" style="stop-color:#3B13FF"/>
			</linearGradient>
			<path style="fill:url(#SVGID_00000166664481512534647040000000451307451151504014_);" d="M107.44,132.57h1.83v6.43h3.97v1.49
				h-5.8V132.57z"/>
			
				<linearGradient id="SVGID_00000049210028433719918680000011361830169253218458_" gradientUnits="userSpaceOnUse" x1="142.2682" y1="25.5275" x2="28.3723" y2="51.7046" gradientTransform="matrix(1 0 0 -1 0 168)">
				<stop  offset="0" style="stop-color:#6E6AFF"/>
				<stop  offset="0.657" style="stop-color:#4B2EFF"/>
				<stop  offset="0.9992" style="stop-color:#3B13FF"/>
			</linearGradient>
			<path style="fill:url(#SVGID_00000049210028433719918680000011361830169253218458_);" d="M114.26,132.57h3.6
				c0.87,0,1.62,0.17,2.28,0.5c0.66,0.33,1.17,0.79,1.54,1.39c0.37,0.6,0.55,1.29,0.55,2.07s-0.18,1.49-0.55,2.07
				c-0.37,0.6-0.88,1.06-1.54,1.39c-0.66,0.33-1.41,0.5-2.28,0.5h-3.6V132.57z M117.77,138.98c0.79,0,1.42-0.22,1.9-0.66
				c0.47-0.45,0.71-1.04,0.71-1.79c0-0.75-0.23-1.35-0.71-1.79c-0.47-0.45-1.11-0.66-1.9-0.66h-1.67v4.91L117.77,138.98
				L117.77,138.98z"/>
		</g>
	</g>
</g>
</svg>
