<?xml version="1.0" encoding="utf-8"?>
<!-- Generator: Adobe Illustrator 26.0.3, SVG Export Plug-In . SVG Version: 6.00 Build 0)  -->
<svg version="1.1" id="Layer_1" xmlns="http://www.w3.org/2000/svg" xmlns:xlink="http://www.w3.org/1999/xlink" x="0px" y="0px"
	 viewBox="0 0 513 166" style="enable-background:new 0 0 513 166;" xml:space="preserve">
<style type="text/css">
	.st0{fill:#FFFFFF;}
	.st1{fill:url(#SVGID_1_);}
	.st2{fill:url(#SVGID_00000177469015472217769170000011616665729396715702_);}
	.st3{fill:url(#SVGID_00000054958488211755735350000005158265217395881145_);}
	.st4{fill:url(#SVGID_00000176747013797754706600000000573632977386969729_);}
	.st5{fill:#20204C;}
</style>
<g>
	<rect y="-0.4" class="st0" width="173.52" height="166.81"/>
	
		<linearGradient id="SVGID_1_" gradientUnits="userSpaceOnUse" x1="155.6319" y1="172.8414" x2="510.243" y2="6.8249" gradientTransform="matrix(1 0 0 -1 0 168)">
		<stop  offset="0" style="stop-color:#00FFAD"/>
		<stop  offset="0.1466" style="stop-color:#00E3B7"/>
		<stop  offset="0.4631" style="stop-color:#009DD0"/>
		<stop  offset="0.9223" style="stop-color:#002DF8"/>
		<stop  offset="0.9995" style="stop-color:#0019FF"/>
	</linearGradient>
	<rect x="173.52" y="-0.4" class="st1" width="339.48" height="166.81"/>
	<g>
		<g>
			
				<linearGradient id="SVGID_00000089547429342828133230000007512760997043215011_" gradientUnits="userSpaceOnUse" x1="83.0142" y1="134.7542" x2="87.6677" y2="38.8932" gradientTransform="matrix(1 0 0 -1 0 168)">
				<stop  offset="0" style="stop-color:#00FFAD"/>
				<stop  offset="0.1466" style="stop-color:#00E3B7"/>
				<stop  offset="0.4631" style="stop-color:#009DD0"/>
				<stop  offset="0.9223" style="stop-color:#002DF8"/>
				<stop  offset="0.9995" style="stop-color:#0019FF"/>
			</linearGradient>
			<path style="fill:url(#SVGID_00000089547429342828133230000007512760997043215011_);" d="M88.61,71.02V68.1V44.08v-2.28
				l-8.67,8.67v2.28v23.77l2.26-2.19C85.42,71.72,88.61,71.02,88.61,71.02z"/>
			
				<linearGradient id="SVGID_00000124851675725323518050000002449783513093456538_" gradientUnits="userSpaceOnUse" x1="99.5443" y1="135.5566" x2="104.1978" y2="39.6956" gradientTransform="matrix(1 0 0 -1 0 168)">
				<stop  offset="0" style="stop-color:#00FFAD"/>
				<stop  offset="0.1466" style="stop-color:#00E3B7"/>
				<stop  offset="0.4631" style="stop-color:#009DD0"/>
				<stop  offset="0.9223" style="stop-color:#002DF8"/>
				<stop  offset="0.9995" style="stop-color:#0019FF"/>
			</linearGradient>
			<path style="fill:url(#SVGID_00000124851675725323518050000002449783513093456538_);" d="M95.94,34.92v32.14
				c0,0,0.04,3.74,0,3.81c6.12,1.5,8.77,5.64,8.77,5.64V58.58V26.14L95.94,34.92z"/>
			
				<linearGradient id="SVGID_00000075877445297880093270000012433948675331335070_" gradientUnits="userSpaceOnUse" x1="81.3792" y1="134.6749" x2="86.0326" y2="38.8138" gradientTransform="matrix(1 0 0 -1 0 168)">
				<stop  offset="0" style="stop-color:#00FFAD"/>
				<stop  offset="0.1466" style="stop-color:#00E3B7"/>
				<stop  offset="0.4631" style="stop-color:#009DD0"/>
				<stop  offset="0.9223" style="stop-color:#002DF8"/>
				<stop  offset="0.9995" style="stop-color:#0019FF"/>
			</linearGradient>
			<path style="fill:url(#SVGID_00000075877445297880093270000012433948675331335070_);" d="M101.04,76.38
				c-1.83-1.83-4.22-3.09-6.9-3.5c-0.1-0.01-0.19-0.03-0.29-0.04c-0.52-0.07-1.04-0.1-1.57-0.1c-0.54,0-1.07,0.04-1.59,0.1
				c-1.39,0.18-2.7,0.59-3.9,1.19c-2.4,1.19-4.36,3.12-5.57,5.51c-0.86,1.68-1.34,3.59-1.34,5.61v15.99c0,1.99-1.62,3.59-3.61,3.59
				c-1.98,0-3.59-1.61-3.59-3.59V77.15l-0.01,0.01v-9.38v-3.73v-6.33l-8.81,8.8v7.8l0.01-0.01v16.91l-0.01,0.02l0.02-0.02v9.9
				c0,0.63,0.04,1.25,0.13,1.86c0.03,0.16,0.05,0.32,0.08,0.47c0.48,2.48,1.7,4.7,3.42,6.43c1.83,1.82,4.23,3.09,6.91,3.5
				c0.61,0.08,1.22,0.13,1.86,0.13c6.84,0,12.39-5.56,12.39-12.39V85.12c0-1.99,1.62-3.6,3.6-3.6c1.99,0,3.6,1.62,3.59,3.6
				l0.01,6.79v7.3l-0.01,9.89v4.4h8.8V85.12c0-0.63-0.04-1.25-0.14-1.86C104.14,80.61,102.87,78.21,101.04,76.38z"/>
		</g>
		<g>
			<path class="st5" d="M60.27,129.13c-0.68-0.76-1.59-1.13-2.74-1.13h-6.28c-0.01,0-0.03,0-0.05,0h-0.36
				c-1.2,0-1.35-1.89,0.01-1.89h8.83l2.16-2.66H50.89c-1.13,0-2.02,0.35-2.68,1.07c-0.44,0.47-0.75,1.01-0.91,1.6
				c0,0-0.32,1.06-0.05,1.89c0.14,0.68,0.45,1.3,0.94,1.84c0.68,0.76,1.58,1.12,2.67,1.12h6.58c0.28,0,0.5,0.11,0.69,0.33
				c0.19,0.2,0.29,0.46,0.28,0.76c0,0.29-0.1,0.55-0.3,0.76c-0.2,0.22-0.45,0.33-0.74,0.33h-9.24l-0.87,2.67h10.21
				c1.12,0,2.04-0.39,2.75-1.18c0.71-0.77,1.07-1.71,1.07-2.78C61.32,130.8,60.97,129.9,60.27,129.13z"/>
			<path class="st5" d="M105.96,123.42v2.69h-8.51c-1.29,0-2.41,0.7-3.02,1.73c-0.31,0.52-0.48,1.13-0.48,1.78
				c0,0.45,0.09,0.88,0.25,1.27l0,0c0.52,1.3,1.81,2.22,3.29,2.22h8.47v2.69h-8.51c-0.05,0-0.1,0-0.15,0l0,0
				c-2.05-0.05-3.86-1.09-4.95-2.67c-0.69-1-1.1-2.21-1.1-3.52l0,0c0-0.48,0.05-0.95,0.16-1.39l0,0c0.59-2.58,2.79-4.54,5.49-4.77
				l0,0c0.18-0.02,0.36-0.02,0.55-0.02h8.51V123.42z"/>
			<g>
				<rect x="75.85" y="123.42" class="st5" width="14.69" height="2.69"/>
				<rect x="75.85" y="128.28" class="st5" width="14.69" height="2.69"/>
				<rect x="75.85" y="133.11" class="st5" width="14.69" height="2.69"/>
			</g>
			<g>
				<polygon class="st5" points="75.13,123.49 75.13,126.16 74.1,126.16 74.1,126.17 69.1,126.17 66,126.17 66,126.17 61.52,126.17 
					60.44,126.17 62.58,123.5 66.12,123.49 				"/>
				<rect x="66.44" y="126.17" class="st5" width="2.68" height="9.64"/>
			</g>
			<g>
				<g>
					<rect x="106.68" y="123.42" class="st5" width="2.69" height="12.37"/>
					<rect x="118.71" y="123.42" class="st5" width="2.69" height="12.37"/>
				</g>
				<polygon class="st5" points="121.4,128.27 121.4,130.96 110.2,130.96 111.68,128.27 				"/>
			</g>
		</g>
	</g>
	<g>
		<g>
			<path class="st0" d="M238.89,78.67c-0.13-0.16-0.34-0.33-0.63-0.52c-0.29-0.18-0.62-0.35-0.99-0.51
				c-0.37-0.15-0.78-0.29-1.23-0.4c-0.45-0.11-0.91-0.16-1.38-0.16c-1.03,0-1.79,0.19-2.29,0.57c-0.5,0.38-0.75,0.91-0.75,1.58
				c0,0.5,0.14,0.89,0.42,1.18c0.28,0.29,0.71,0.53,1.29,0.71c0.58,0.18,1.29,0.38,2.14,0.58c1.07,0.25,1.99,0.55,2.76,0.9
				c0.77,0.35,1.36,0.81,1.78,1.38s0.63,1.33,0.63,2.28c0,0.77-0.15,1.45-0.45,2.01c-0.3,0.57-0.71,1.03-1.24,1.39
				c-0.53,0.36-1.14,0.62-1.83,0.8s-1.43,0.26-2.22,0.26c-0.78,0-1.55-0.08-2.32-0.25c-0.77-0.17-1.5-0.41-2.2-0.73
				c-0.7-0.31-1.35-0.7-1.95-1.15l1.14-2.11c0.18,0.19,0.45,0.4,0.81,0.63c0.36,0.23,0.79,0.44,1.27,0.65
				c0.48,0.21,1,0.38,1.56,0.52c0.56,0.14,1.14,0.21,1.73,0.21c0.98,0,1.73-0.17,2.26-0.51c0.52-0.34,0.78-0.84,0.78-1.49
				c0-0.51-0.17-0.92-0.52-1.24c-0.35-0.32-0.84-0.58-1.47-0.8c-0.64-0.22-1.41-0.44-2.3-0.66c-1.03-0.26-1.88-0.56-2.57-0.9
				c-0.69-0.34-1.2-0.76-1.54-1.27c-0.34-0.51-0.51-1.18-0.51-1.99c0-1.02,0.25-1.89,0.74-2.6c0.49-0.71,1.17-1.24,2.04-1.6
				s1.83-0.54,2.88-0.54c0.7,0,1.38,0.08,2.01,0.23c0.64,0.15,1.23,0.36,1.78,0.63c0.55,0.27,1.04,0.56,1.46,0.9L238.89,78.67z"/>
			<path class="st0" d="M249.17,90.05c-0.19,0.09-0.45,0.19-0.77,0.32c-0.32,0.12-0.67,0.23-1.06,0.32
				c-0.38,0.09-0.78,0.13-1.19,0.13c-0.5,0-0.96-0.09-1.39-0.27c-0.43-0.18-0.77-0.46-1.02-0.84c-0.25-0.38-0.38-0.87-0.38-1.47
				v-7.18h-1.54V79.2h1.54v-3.78h2.42v3.78h2.51v1.87h-2.51v6.39c0.03,0.39,0.16,0.69,0.38,0.88c0.22,0.19,0.51,0.28,0.85,0.28
				c0.34,0,0.66-0.06,0.98-0.19c0.32-0.13,0.53-0.22,0.65-0.27L249.17,90.05z"/>
			<path class="st0" d="M256.06,90.82c-0.91,0-1.72-0.16-2.44-0.47c-0.72-0.31-1.34-0.74-1.87-1.29c-0.53-0.55-0.93-1.17-1.22-1.88
				c-0.29-0.71-0.43-1.45-0.43-2.24c0-1.09,0.25-2.08,0.75-2.98c0.5-0.9,1.2-1.62,2.1-2.15c0.9-0.54,1.94-0.81,3.11-0.81
				c1.22,0,2.26,0.27,3.13,0.82c0.87,0.55,1.55,1.26,2.04,2.15c0.49,0.89,0.73,1.84,0.73,2.85c0,0.17-0.01,0.34-0.02,0.49
				c-0.01,0.15-0.03,0.27-0.04,0.36h-9.24c0.07,0.68,0.27,1.27,0.59,1.77c0.32,0.5,0.74,0.89,1.25,1.17
				c0.51,0.28,1.06,0.42,1.63,0.42c0.66,0,1.28-0.16,1.86-0.48c0.58-0.32,0.97-0.75,1.18-1.28l2.07,0.59
				c-0.25,0.56-0.63,1.06-1.14,1.51c-0.51,0.45-1.11,0.8-1.79,1.06C257.61,90.69,256.87,90.82,256.06,90.82z M252.61,84.09h6.95
				c-0.06-0.66-0.25-1.24-0.56-1.73c-0.31-0.49-0.73-0.87-1.24-1.15c-0.51-0.28-1.07-0.42-1.67-0.42c-0.62,0-1.18,0.14-1.68,0.42
				c-0.51,0.28-0.92,0.67-1.24,1.15C252.85,82.85,252.65,83.43,252.61,84.09z"/>
			<path class="st0" d="M269.14,90.82c-0.89,0-1.71-0.16-2.43-0.47c-0.73-0.31-1.35-0.75-1.88-1.31s-0.93-1.19-1.22-1.91
				c-0.29-0.71-0.43-1.46-0.43-2.24c0-1.08,0.24-2.06,0.73-2.95c0.48-0.89,1.18-1.61,2.08-2.14c0.9-0.53,1.95-0.8,3.16-0.8
				c1.17,0,2.2,0.26,3.07,0.78c0.87,0.52,1.52,1.21,1.95,2.08l-2.38,0.73c-0.26-0.47-0.63-0.84-1.1-1.11
				c-0.47-0.27-1-0.41-1.58-0.41c-0.65,0-1.23,0.16-1.75,0.49c-0.52,0.33-0.93,0.77-1.23,1.34c-0.3,0.57-0.45,1.23-0.45,1.98
				c0,0.74,0.15,1.4,0.46,1.97c0.31,0.58,0.73,1.04,1.25,1.38c0.53,0.34,1.11,0.51,1.74,0.51c0.4,0,0.78-0.07,1.14-0.21
				c0.37-0.14,0.69-0.33,0.98-0.58s0.49-0.51,0.61-0.79l2.35,0.73c-0.25,0.56-0.62,1.06-1.1,1.5c-0.48,0.44-1.06,0.79-1.74,1.04
				C270.69,90.68,269.95,90.82,269.14,90.82z"/>
			<path class="st0" d="M286.53,90.6h-2.4v-6.37c0-1.03-0.19-1.8-0.58-2.31c-0.39-0.51-0.93-0.76-1.62-0.76
				c-0.44,0-0.88,0.12-1.33,0.35c-0.45,0.23-0.84,0.54-1.19,0.94c-0.34,0.4-0.61,0.85-0.78,1.37v6.78h-2.42V74.55h2.42v6.93
				c0.44-0.77,1.04-1.37,1.8-1.81c0.76-0.44,1.58-0.65,2.46-0.65c0.73,0,1.33,0.12,1.79,0.37c0.46,0.25,0.83,0.59,1.1,1.01
				c0.27,0.43,0.46,0.92,0.57,1.47c0.11,0.55,0.16,1.15,0.16,1.79v6.95H286.53z"/>
			<path class="st0" d="M301.47,90.71c-1.03,0-1.99-0.21-2.88-0.64c-0.89-0.43-1.68-1.01-2.34-1.75c-0.67-0.74-1.19-1.59-1.56-2.55
				s-0.56-1.98-0.56-3.05s0.19-2.08,0.56-3.01c0.37-0.94,0.89-1.77,1.56-2.5c0.67-0.73,1.45-1.3,2.35-1.72s1.88-0.63,2.94-0.63
				c1.5,0,2.75,0.31,3.77,0.94c1.02,0.63,1.79,1.45,2.3,2.48l-1.89,1.36c-0.43-0.85-1.01-1.49-1.76-1.91
				c-0.75-0.43-1.57-0.64-2.46-0.64c-0.75,0-1.42,0.15-2.01,0.46c-0.59,0.31-1.1,0.73-1.53,1.27c-0.43,0.54-0.75,1.14-0.98,1.83
				c-0.23,0.69-0.34,1.4-0.34,2.15c0,0.79,0.12,1.53,0.37,2.22c0.25,0.69,0.6,1.29,1.06,1.81c0.45,0.52,0.99,0.93,1.61,1.22
				c0.62,0.29,1.28,0.44,1.98,0.44c0.87,0,1.68-0.22,2.45-0.65c0.77-0.43,1.49-1.08,2.17-1.95v2.51
				C304.9,89.94,303.3,90.71,301.47,90.71z M305.99,84.53h-3.26v-1.85h5.35v7.92h-2.09V84.53z"/>
			<path class="st0" d="M317.03,81.2c-0.92,0.01-1.75,0.23-2.48,0.64c-0.73,0.41-1.24,0.99-1.55,1.74v7.04h-2.42V79.2h2.22v2.46
				c0.41-0.78,0.94-1.4,1.58-1.88s1.32-0.74,2.02-0.78c0.16,0,0.29,0,0.38,0c0.09,0,0.17,0.01,0.23,0.02v2.18H317.03z"/>
			<path class="st0" d="M323.99,90.82c-0.91,0-1.72-0.16-2.44-0.47c-0.72-0.31-1.34-0.75-1.86-1.3c-0.52-0.55-0.92-1.18-1.2-1.89
				c-0.28-0.7-0.42-1.45-0.42-2.23c0-0.81,0.14-1.57,0.42-2.28c0.28-0.71,0.68-1.33,1.2-1.89c0.52-0.55,1.14-0.98,1.87-1.3
				c0.73-0.31,1.54-0.47,2.43-0.47c0.91,0,1.72,0.16,2.43,0.47c0.71,0.31,1.33,0.74,1.86,1.3c0.53,0.56,0.93,1.18,1.21,1.89
				c0.28,0.7,0.42,1.46,0.42,2.28c0,0.79-0.14,1.53-0.42,2.23c-0.28,0.71-0.68,1.33-1.2,1.89c-0.52,0.55-1.14,0.98-1.87,1.3
				C325.68,90.66,324.88,90.82,323.99,90.82z M320.56,84.91c0,0.74,0.15,1.4,0.46,1.97c0.31,0.58,0.72,1.03,1.23,1.37
				c0.51,0.34,1.08,0.5,1.72,0.5c0.66,0,1.25-0.17,1.76-0.5c0.51-0.33,0.92-0.8,1.23-1.39c0.31-0.59,0.46-1.24,0.46-1.95
				c0-0.72-0.15-1.38-0.46-1.96c-0.31-0.59-0.72-1.04-1.24-1.38c-0.52-0.33-1.1-0.5-1.73-0.5c-0.65,0-1.22,0.17-1.74,0.52
				c-0.52,0.35-0.92,0.81-1.23,1.39C320.71,83.56,320.56,84.21,320.56,84.91z"/>
			<path class="st0" d="M331.94,86.17v-6.99h2.42v6.5c0,1.02,0.19,1.78,0.56,2.3c0.37,0.52,0.92,0.77,1.64,0.77
				c0.45,0,0.9-0.09,1.33-0.28c0.43-0.19,0.83-0.47,1.19-0.84c0.36-0.37,0.65-0.81,0.87-1.33v-7.12h2.42v8.7
				c0,0.26,0.05,0.45,0.15,0.58c0.1,0.12,0.27,0.19,0.51,0.21v1.94c-0.25,0.04-0.46,0.07-0.63,0.08s-0.31,0.02-0.43,0.03
				c-0.46-0.01-0.83-0.14-1.12-0.37c-0.29-0.23-0.46-0.54-0.51-0.92l-0.04-1.11c-0.5,0.8-1.16,1.42-1.99,1.86
				c-0.83,0.44-1.73,0.66-2.72,0.66c-1.2,0-2.11-0.39-2.73-1.18C332.25,88.86,331.94,87.7,331.94,86.17z"/>
			<path class="st0" d="M351.97,90.82c-0.92,0-1.74-0.22-2.44-0.65c-0.7-0.44-1.26-1-1.67-1.68v6.8h-2.42V79.2h2.13v2.07
				c0.44-0.68,1.01-1.23,1.72-1.63c0.7-0.41,1.49-0.61,2.35-0.61c0.79,0,1.52,0.16,2.18,0.47c0.66,0.31,1.23,0.74,1.72,1.3
				c0.48,0.55,0.86,1.18,1.13,1.89c0.27,0.7,0.41,1.45,0.41,2.23c0,1.09-0.22,2.09-0.65,3c-0.43,0.91-1.03,1.62-1.8,2.15
				C353.85,90.56,352.97,90.82,351.97,90.82z M351.18,88.75c0.53,0,1-0.11,1.42-0.33c0.42-0.22,0.77-0.51,1.07-0.87
				c0.29-0.36,0.52-0.77,0.68-1.23c0.16-0.46,0.24-0.94,0.24-1.44c0-0.54-0.09-1.03-0.26-1.49c-0.17-0.46-0.43-0.86-0.76-1.2
				c-0.33-0.34-0.71-0.62-1.14-0.82s-0.9-0.3-1.4-0.3c-0.32,0-0.65,0.06-0.98,0.17c-0.33,0.12-0.65,0.27-0.96,0.48
				c-0.31,0.2-0.57,0.44-0.79,0.7c-0.22,0.27-0.37,0.57-0.44,0.9v2.96c0.21,0.46,0.48,0.88,0.81,1.24c0.34,0.37,0.73,0.66,1.17,0.89
				C350.28,88.64,350.73,88.75,351.18,88.75z"/>
			<path class="st0" d="M363.54,82.98c0-1.48,0.31-2.95,0.92-4.41c0.61-1.46,1.37-2.94,2.27-4.46l1.85,0.79
				c-0.26,0.4-0.55,0.9-0.87,1.52c-0.32,0.62-0.62,1.3-0.92,2.05s-0.54,1.51-0.73,2.3c-0.18,0.79-0.28,1.54-0.28,2.28
				c0,1.19,0.25,2.43,0.75,3.73c0.5,1.3,1.16,2.62,1.98,3.97l-1.76,0.92c-0.63-0.92-1.18-1.87-1.66-2.84
				c-0.48-0.97-0.85-1.94-1.13-2.93C363.68,84.91,363.54,83.94,363.54,82.98z"/>
			<path class="st0" d="M370.95,90.6V74.99h6.56c0.7,0,1.35,0.15,1.94,0.44c0.59,0.29,1.1,0.68,1.54,1.17
				c0.44,0.48,0.78,1.03,1.01,1.64c0.23,0.61,0.35,1.22,0.35,1.84c0,0.87-0.19,1.69-0.58,2.46c-0.39,0.78-0.94,1.41-1.64,1.9
				c-0.7,0.49-1.53,0.74-2.49,0.74h-4.2v5.43H370.95z M373.43,83h4.05c0.45,0,0.86-0.13,1.21-0.39s0.63-0.61,0.84-1.06
				c0.21-0.45,0.31-0.95,0.31-1.51c0-0.57-0.12-1.07-0.35-1.51s-0.54-0.77-0.91-1.01c-0.37-0.24-0.77-0.36-1.2-0.36h-3.94L373.43,83
				L373.43,83z"/>
			<path class="st0" d="M387.53,90.6l-4.36-11.41h2.51l3.26,9.19l3.3-9.19h2.31l-4.36,11.41H387.53z"/>
			<path class="st0" d="M402.7,90.05c-0.19,0.09-0.45,0.19-0.77,0.32c-0.32,0.12-0.67,0.23-1.06,0.32
				c-0.38,0.09-0.78,0.13-1.19,0.13c-0.5,0-0.96-0.09-1.39-0.27c-0.43-0.18-0.77-0.46-1.02-0.84s-0.38-0.87-0.38-1.47v-7.18h-1.54
				V79.2h1.54v-3.78h2.42v3.78h2.51v1.87h-2.51v6.39c0.03,0.39,0.16,0.69,0.38,0.88c0.22,0.19,0.51,0.28,0.85,0.28
				c0.34,0,0.66-0.06,0.98-0.19c0.32-0.13,0.53-0.22,0.65-0.27L402.7,90.05z"/>
			<path class="st0" d="M408.57,82.98c0,0.97-0.14,1.94-0.42,2.93c-0.28,0.98-0.66,1.96-1.14,2.93c-0.48,0.97-1.03,1.91-1.65,2.84
				l-1.78-0.92c0.82-1.35,1.48-2.67,1.98-3.97c0.5-1.3,0.75-2.54,0.75-3.73c0-0.73-0.09-1.49-0.27-2.28
				c-0.18-0.78-0.43-1.55-0.73-2.3c-0.3-0.75-0.61-1.43-0.92-2.05c-0.32-0.62-0.6-1.12-0.85-1.52l1.87-0.79
				c0.88,1.51,1.63,3,2.24,4.46C408.26,80.03,408.57,81.5,408.57,82.98z"/>
			<path class="st0" d="M416.62,90.6V74.99h2.49v13.43h8.36v2.18H416.62z"/>
			<path class="st0" d="M435.55,90.05c-0.19,0.09-0.45,0.19-0.77,0.32c-0.32,0.12-0.67,0.23-1.06,0.32
				c-0.38,0.09-0.78,0.13-1.19,0.13c-0.5,0-0.96-0.09-1.39-0.27c-0.43-0.18-0.77-0.46-1.02-0.84s-0.38-0.87-0.38-1.47v-7.18h-1.54
				V79.2h1.54v-3.78h2.42v3.78h2.51v1.87h-2.51v6.39c0.03,0.39,0.16,0.69,0.38,0.88c0.22,0.19,0.51,0.28,0.85,0.28
				s0.66-0.06,0.98-0.19c0.32-0.13,0.53-0.22,0.65-0.27L435.55,90.05z"/>
			<path class="st0" d="M436.5,84.91c0-1.09,0.22-2.08,0.67-2.98c0.45-0.89,1.06-1.61,1.84-2.14s1.67-0.8,2.68-0.8
				c0.89,0,1.7,0.23,2.41,0.68c0.71,0.46,1.26,1.01,1.64,1.67v-6.82h2.42v13.32c0,0.26,0.05,0.46,0.15,0.58
				c0.1,0.12,0.27,0.19,0.51,0.21v1.94c-0.44,0.07-0.79,0.12-1.06,0.13c-0.46,0-0.84-0.14-1.14-0.41c-0.31-0.27-0.48-0.59-0.51-0.96
				l-0.02-0.84c-0.46,0.72-1.05,1.28-1.79,1.68c-0.74,0.4-1.51,0.6-2.32,0.6c-0.79,0-1.52-0.16-2.19-0.47
				c-0.67-0.31-1.25-0.74-1.74-1.29c-0.49-0.54-0.87-1.17-1.14-1.87C436.63,86.49,436.5,85.73,436.5,84.91z M445.73,86.5v-2.97
				c-0.16-0.46-0.42-0.87-0.78-1.24c-0.36-0.36-0.76-0.65-1.21-0.88c-0.45-0.23-0.9-0.34-1.35-0.34c-0.5,0-0.96,0.11-1.38,0.33
				c-0.42,0.22-0.78,0.5-1.08,0.86c-0.3,0.35-0.53,0.77-0.69,1.24c-0.16,0.47-0.24,0.96-0.24,1.46c0,0.5,0.09,0.99,0.26,1.45
				c0.18,0.46,0.43,0.87,0.76,1.23c0.33,0.36,0.71,0.63,1.14,0.82c0.43,0.2,0.91,0.29,1.42,0.29c0.32,0,0.65-0.05,0.98-0.16
				c0.33-0.11,0.64-0.26,0.94-0.47c0.29-0.2,0.55-0.44,0.77-0.73C445.49,87.12,445.64,86.82,445.73,86.5z"/>
		</g>
	</g>
</g>
</svg>
