<?xml version="1.0" encoding="utf-8"?>
<!-- Generator: Adobe Illustrator 26.0.3, SVG Export Plug-In . SVG Version: 6.00 Build 0)  -->
<svg version="1.1" id="Layer_1" xmlns="http://www.w3.org/2000/svg" xmlns:xlink="http://www.w3.org/1999/xlink" x="0px" y="0px"
	 viewBox="0 0 173.5 166" style="enable-background:new 0 0 173.5 166;" xml:space="preserve">
<style type="text/css">
	.st0{fill:url(#SVGID_1_);}
	.st1{fill:#69A6FF;}
	.st2{fill:url(#SVGID_00000183964160495757285000000015820598282144519867_);}
	.st3{fill:url(#SVGID_00000025426152682799984350000016431756263056450715_);}
	.st4{fill:url(#SVGID_00000132052246336491698430000010390111318368101761_);}
	.st5{fill:#1B325B;}
	.st6{opacity:0.5;}
</style>
<g>
	<g>
		<g>
			
				<linearGradient id="SVGID_1_" gradientUnits="userSpaceOnUse" x1="94.5405" y1="25.4913" x2="65.574" y2="58.1167" gradientTransform="matrix(1 0 0 1 0 2)">
				<stop  offset="0" style="stop-color:#5091F4"/>
				<stop  offset="1" style="stop-color:#111FE9"/>
			</linearGradient>
			<polygon class="st0" points="78,44.2 75.2,46.9 77.7,49.3 80.1,46.9 86.7,40.3 86.7,40.3 86.7,40.3 86.7,53.5 86.7,53.6 84.3,56 
				84,56.3 77.7,62.6 71.4,56.3 71.1,56 68.6,53.5 62,46.9 68.6,40.3 71.4,37.5 78,30.9 80.5,28.4 93.8,28.4 87.4,34.8 84.6,37.5 
							"/>
			<polygon class="st1" points="111.9,28.4 105.5,34.8 102.7,37.5 96.1,44.2 93.4,46.9 86.7,53.5 86.7,53.5 86.7,40.3 86.7,40.3 
				86.7,40.3 89.5,37.5 96.1,30.9 98.6,28.4 			"/>
			
				<linearGradient id="SVGID_00000069357433393624680990000015297996820128720516_" gradientUnits="userSpaceOnUse" x1="125.3525" y1="70.0716" x2="93.9468" y2="44.6116" gradientTransform="matrix(1 0 0 1 0 2)">
				<stop  offset="0" style="stop-color:#5091F4"/>
				<stop  offset="1" style="stop-color:#111FE9"/>
			</linearGradient>
			<polygon style="fill:url(#SVGID_00000069357433393624680990000015297996820128720516_);" points="124,59.4 124,72.7 117.6,66.3 
				114.9,63.6 108.3,56.9 105.5,54.2 103.1,56.6 105.5,59 112.1,65.6 112.1,65.6 112.1,65.7 98.9,65.7 89.8,56.6 96.1,50.3 96.5,50 
				98.9,47.6 105.5,40.9 112.1,47.6 114.9,50.3 121.5,56.9 			"/>
			<polygon class="st1" points="124,77.6 124,90.8 117.6,84.4 114.9,81.7 108.3,75 105.5,72.3 98.9,65.7 98.9,65.7 112.1,65.7 
				112.1,65.6 112.1,65.7 114.9,68.4 121.5,75 			"/>
			
				<linearGradient id="SVGID_00000020368920909294139060000003342585257154669236_" gradientUnits="userSpaceOnUse" x1="80.882" y1="102.1769" x2="109.6963" y2="65.7401" gradientTransform="matrix(1 0 0 1 0 2)">
				<stop  offset="0" style="stop-color:#5091F4"/>
				<stop  offset="1" style="stop-color:#111FE9"/>
			</linearGradient>
			<polygon style="fill:url(#SVGID_00000020368920909294139060000003342585257154669236_);" points="111.5,84.4 104.9,91.1 
				102.1,93.8 95.5,100.4 93,102.9 79.7,102.9 86.1,96.5 88.9,93.8 95.5,87.2 98.2,84.4 95.8,82 93.4,84.4 86.8,91 86.7,91 
				86.7,77.8 86.8,77.8 89.2,75.4 89.5,75 95.8,68.7 			"/>
			<polygon class="st1" points="86.8,91 86.7,91.1 84,93.8 77.4,100.4 74.8,102.9 61.6,102.9 68,96.5 70.7,93.8 77.4,87.2 
				80.1,84.4 86.7,77.8 86.7,77.8 86.7,91 			"/>
			
				<linearGradient id="SVGID_00000037655022628932019640000013638144972367683242_" gradientUnits="userSpaceOnUse" x1="48.9448" y1="56.6737" x2="79.8932" y2="83.5058" gradientTransform="matrix(1 0 0 1 0 2)">
				<stop  offset="0" style="stop-color:#5091F4"/>
				<stop  offset="1" style="stop-color:#111FE9"/>
			</linearGradient>
			<polygon style="fill:url(#SVGID_00000037655022628932019640000013638144972367683242_);" points="83.6,74.7 68,90.4 61.3,83.8 
				58.6,81 52,74.4 49.5,71.9 49.5,58.7 55.9,65 58.6,67.8 65.2,74.4 68,77.2 70.4,74.7 61.4,65.7 61.4,65.7 61.4,65.7 74.6,65.7 
				74.6,65.7 74.6,65.7 77,68.1 77.4,68.4 			"/>
			<polygon class="st1" points="74.6,65.6 74.6,65.7 74.6,65.7 61.4,65.7 61.4,65.7 61.3,65.6 58.6,62.9 52,56.3 49.5,53.8 
				49.5,40.5 55.9,46.9 58.6,49.7 65.2,56.3 68,59 			"/>
		</g>
		<g>
			<path class="st5" d="M55.7,118.7c-0.9-1-2.1-1.5-3.5-1.5h-8.1c0,0,0,0-0.1,0h-0.5c-1.5,0-1.7-2.4,0-2.4H55l2.8-3.4H43.6
				c-1.5,0-2.6,0.5-3.5,1.4c-0.6,0.6-1,1.3-1.2,2.1c0,0-0.4,1.4-0.1,2.4c0.2,0.9,0.6,1.7,1.2,2.4c0.9,1,2,1.5,3.5,1.4h8.5
				c0.4,0,0.7,0.1,0.9,0.4c0.2,0.3,0.4,0.6,0.4,1c0,0.4-0.1,0.7-0.4,1c-0.3,0.3-0.6,0.4-1,0.4H40.1l-1.1,3.5h13.2
				c1.4,0,2.6-0.5,3.6-1.5c0.9-1,1.4-2.2,1.4-3.6C57.1,120.8,56.6,119.7,55.7,118.7z"/>
			<path class="st5" d="M114.7,111.3v3.5h-11c-1.7,0-3.1,0.9-3.9,2.2c-0.4,0.7-0.6,1.5-0.6,2.3c0,0.6,0.1,1.1,0.3,1.6l0,0
				c0.7,1.7,2.3,2.9,4.3,2.9h10.9v3.5h-11c-0.1,0-0.1,0-0.2,0l0,0c-2.6-0.1-5-1.4-6.4-3.5c-0.9-1.3-1.4-2.8-1.4-4.5l0,0
				c0-0.6,0.1-1.2,0.2-1.8l0,0c0.8-3.3,3.6-5.9,7.1-6.2l0,0c0.2,0,0.5,0,0.7,0H114.7L114.7,111.3z"/>
			<g>
				<rect x="75.9" y="111.3" class="st5" width="19" height="3.5"/>
				<rect x="75.9" y="117.6" class="st5" width="19" height="3.5"/>
				<rect x="75.9" y="123.8" class="st5" width="19" height="3.5"/>
			</g>
			<g>
				<polygon class="st5" points="74.9,111.4 74.9,114.8 73.6,114.8 73.6,114.8 67.2,114.8 63.1,114.8 63.1,114.8 57.3,114.9 
					56,114.9 58.7,111.4 63.3,111.4 				"/>
				<rect x="63.7" y="114.8" class="st5" width="3.5" height="12.4"/>
			</g>
			<g>
				<g>
					<rect x="115.7" y="111.3" class="st5" width="3.5" height="16"/>
					<rect x="131.2" y="111.3" class="st5" width="3.5" height="16"/>
				</g>
				<polygon class="st5" points="134.7,117.6 134.7,121 120.2,121 122.1,117.6 				"/>
			</g>
		</g>
	</g>
	<g class="st6">
		<path class="st5" d="M105.9,137.6h-1.4c-0.1,0-0.1,0-0.2-0.1l-4-3.5c-0.1-0.1-0.4,0-0.4,0.2v3.2c0,0.1-0.1,0.2-0.2,0.2h-1.3
			c-0.1,0-0.2-0.1-0.2-0.2v-5.5c0-0.1,0.1-0.2,0.2-0.2h1.4c0.1,0,0.1,0,0.2,0.1l4,3.5c0.1,0.1,0.4,0,0.4-0.2v-3.2
			c0-0.1,0.1-0.2,0.2-0.2h1.3c0.1,0,0.2,0.1,0.2,0.2v5.5C106.1,137.5,106,137.6,105.9,137.6z"/>
		<path class="st5" d="M61.6,131.7h-7c-0.1,0-0.2,0.1-0.2,0.2v0.9c0,0.1,0.1,0.2,0.2,0.2h2.1c0.1,0,0.2,0.1,0.2,0.2v4.2
			c0,0.1,0.1,0.2,0.2,0.2h1.3c0.1,0,0.2-0.1,0.2-0.2v-4.2c0-0.1,0.1-0.2,0.2-0.2h2.7c0.1,0,0.2-0.1,0.2-0.2v-0.9
			C61.8,131.8,61.7,131.7,61.6,131.7z"/>
		<path class="st5" d="M69.5,135.1h0.4c0.6,0,2.2-0.1,2.2-1.5c0-0.5-0.2-0.9-0.6-1.3c-0.4-0.4-1-0.6-1.7-0.6h-5.3
			c-0.1,0-0.2,0.1-0.2,0.2v5.5c0,0.1,0.1,0.2,0.2,0.2h1.3c0.1,0,0.2-0.1,0.2-0.2l0-2.1c0-0.1,0.1-0.2,0.2-0.2h1c0.1,0,0.1,0,0.2,0.1
			l2.4,2.4c0,0,0.1,0.1,0.2,0.1h1.7c0.2,0,0.3-0.2,0.2-0.4L69.5,135.1z M69,134h-3v-1h3.8c0.3,0,0.6,0.1,0.7,0.5
			c0.1,0.6-0.6,0.6-0.7,0.6H69L69,134z"/>
		<path class="st5" d="M96.4,131.9v5.5c0,0.1-0.1,0.2-0.2,0.2h-1.2c-0.1,0-0.2-0.1-0.2-0.2v-5.5c0-0.1,0.1-0.2,0.2-0.2h1.2
			C96.3,131.7,96.4,131.8,96.4,131.9z"/>
		<path class="st5" d="M91.8,132.9c-0.1-0.3-0.3-0.5-0.5-0.7c-0.4-0.4-1-0.6-1.7-0.6h-5.7c-0.1,0-0.2,0.1-0.2,0.2v1.1l0,0v2.5l0,0
			v1.9c0,0.1,0.1,0.2,0.2,0.2h5.7c0.7,0,1.3-0.2,1.7-0.6c0.4-0.4,0.6-0.9,0.6-1.4v-2C91.9,133.4,91.9,133.2,91.8,132.9z M90.2,135.4
			c0,0.3-0.1,0.5-0.3,0.6c-0.2,0.2-0.4,0.2-0.7,0.3h-3.8v-0.8l0,0v-0.1V134l0,0v-1h3.8c0,0,0,0,0.1,0c0.3,0,0.5,0.1,0.7,0.2
			c0.2,0.2,0.3,0.4,0.3,0.7L90.2,135.4z"/>
		<path class="st5" d="M79,131.7h-1.6c-0.1,0-0.2,0-0.2,0.1l-3.4,5.5c-0.1,0.2,0,0.3,0.2,0.3h1.4c0.1,0,0.2,0,0.2-0.1l0.5-0.8
			l0.7-1.1l1.3-2.1c0.1-0.1,0.3-0.1,0.4,0l1.3,2.1l0.7,1.1l0.5,0.8c0,0.1,0.1,0.1,0.2,0.1h1.4c0.2,0,0.3-0.2,0.2-0.3l-3.4-5.5
			C79.2,131.7,79.1,131.7,79,131.7z"/>
		<path class="st5" d="M116.1,134h-3.5c-0.1,0-0.2,0.1-0.2,0.2v0.8c0,0.1,0.1,0.2,0.2,0.2h2v0.4c0,0.2-0.1,0.4-0.2,0.5
			c-0.1,0.1-0.3,0.1-0.6,0.2h-3.2c-0.3,0-0.5-0.1-0.7-0.3c-0.2-0.2-0.3-0.4-0.3-0.6v-0.9l0,0v-0.6c0,0,0-0.9,1.1-0.9h5.4
			c0.1,0,0.2-0.1,0.2-0.2v-0.9c0-0.1-0.1-0.2-0.2-0.2h-5.6c-2.1,0-2.5,1.3-2.5,2.2v1.7c0,0.5,0.2,1,0.6,1.4c0.4,0.4,1,0.6,1.7,0.6
			h4.1c0.6,0,1-0.2,1.4-0.5c0.4-0.3,0.6-0.7,0.6-1.2v-1.7C116.3,134.1,116.2,134,116.1,134z"/>
	</g>
</g>
</svg>
