<?xml version="1.0" encoding="utf-8"?>
<!-- Generator: Adobe Illustrator 26.0.3, SVG Export Plug-In . SVG Version: 6.00 Build 0)  -->
<svg version="1.1" id="Layer_1" xmlns="http://www.w3.org/2000/svg" xmlns:xlink="http://www.w3.org/1999/xlink" x="0px" y="0px"
	 viewBox="0 0 513 166" style="enable-background:new 0 0 513 166;" xml:space="preserve">
<style type="text/css">
	.st0{fill:#FFFFFF;}
	.st1{fill:url(#SVGID_1_);}
	.st2{fill:#FFA500;}
	.st3{fill:#1F1F3A;}
	.st4{fill:#20204C;}
</style>
<g>
	<rect x="-0.13" y="-0.44" class="st0" width="173.61" height="166.89"/>
	
		<linearGradient id="SVGID_1_" gradientUnits="userSpaceOnUse" x1="155.578" y1="172.8872" x2="510.3688" y2="6.7866" gradientTransform="matrix(1 0 0 -1 0 168)">
		<stop  offset="0" style="stop-color:#00FFAD"/>
		<stop  offset="0.1466" style="stop-color:#00E3B7"/>
		<stop  offset="0.4631" style="stop-color:#009DD0"/>
		<stop  offset="0.9223" style="stop-color:#002DF8"/>
		<stop  offset="0.9995" style="stop-color:#0019FF"/>
	</linearGradient>
	<rect x="173.48" y="-0.44" class="st1" width="339.65" height="166.89"/>
	<g>
		<g>
			<path class="st0" d="M231.4,80.17c-0.11-0.13-0.28-0.27-0.51-0.42s-0.5-0.29-0.81-0.41c-0.31-0.13-0.64-0.23-1.01-0.32
				s-0.74-0.13-1.12-0.13c-0.84,0-1.46,0.16-1.87,0.47s-0.61,0.74-0.61,1.29c0,0.41,0.11,0.73,0.34,0.97
				c0.23,0.24,0.58,0.43,1.05,0.58c0.47,0.15,1.06,0.31,1.75,0.48c0.88,0.2,1.63,0.45,2.26,0.73s1.12,0.66,1.46,1.13
				s0.51,1.09,0.51,1.86c0,0.63-0.12,1.18-0.37,1.65s-0.58,0.84-1.02,1.14c-0.43,0.29-0.93,0.51-1.49,0.65s-1.17,0.21-1.82,0.21
				c-0.64,0-1.27-0.07-1.9-0.21s-1.23-0.34-1.8-0.59c-0.57-0.26-1.1-0.57-1.59-0.94l0.94-1.73c0.14,0.16,0.37,0.33,0.67,0.51
				c0.3,0.19,0.65,0.36,1.04,0.53s0.82,0.31,1.28,0.42s0.93,0.17,1.41,0.17c0.8,0,1.42-0.14,1.84-0.42
				c0.43-0.28,0.64-0.69,0.64-1.22c0-0.42-0.14-0.76-0.42-1.01c-0.28-0.26-0.68-0.47-1.21-0.65c-0.52-0.18-1.15-0.36-1.88-0.54
				c-0.84-0.21-1.54-0.46-2.11-0.73c-0.56-0.27-0.98-0.62-1.26-1.04s-0.41-0.96-0.41-1.63c0-0.84,0.2-1.54,0.6-2.12
				c0.4-0.58,0.96-1.02,1.67-1.31s1.49-0.44,2.36-0.44c0.58,0,1.12,0.06,1.65,0.19c0.52,0.13,1.01,0.3,1.46,0.51s0.85,0.46,1.2,0.74
				L231.4,80.17z"/>
			<path class="st0" d="M239.82,89.49c-0.16,0.07-0.37,0.16-0.63,0.26s-0.55,0.19-0.86,0.26c-0.31,0.07-0.64,0.11-0.97,0.11
				c-0.41,0-0.79-0.08-1.13-0.22c-0.35-0.15-0.63-0.38-0.84-0.69s-0.32-0.71-0.32-1.2v-5.88h-1.26v-1.53h1.26v-3.1h1.98v3.1h2.05
				v1.53h-2.05v5.23c0.02,0.32,0.13,0.56,0.31,0.72c0.19,0.16,0.42,0.23,0.69,0.23c0.28,0,0.54-0.05,0.8-0.15
				c0.26-0.1,0.43-0.18,0.53-0.23L239.82,89.49z"/>
			<path class="st0" d="M245.46,90.12c-0.74,0-1.41-0.13-2-0.38s-1.1-0.61-1.53-1.05c-0.43-0.45-0.76-0.96-1-1.54
				c-0.23-0.58-0.35-1.19-0.35-1.83c0-0.89,0.2-1.7,0.61-2.44s0.98-1.32,1.72-1.76c0.74-0.44,1.59-0.66,2.55-0.66
				c1,0,1.85,0.22,2.56,0.67s1.27,1.03,1.67,1.76c0.4,0.73,0.59,1.5,0.59,2.33c0,0.14-0.01,0.28-0.02,0.4s-0.02,0.22-0.04,0.29
				h-7.56c0.06,0.56,0.22,1.04,0.49,1.45c0.26,0.41,0.61,0.73,1.03,0.96s0.86,0.35,1.33,0.35c0.54,0,1.05-0.13,1.52-0.4
				c0.47-0.26,0.79-0.61,0.96-1.04l1.69,0.49c-0.2,0.46-0.52,0.87-0.94,1.23c-0.42,0.37-0.91,0.65-1.47,0.86
				C246.73,90.01,246.12,90.12,245.46,90.12z M242.63,84.61h5.69c-0.05-0.54-0.2-1.01-0.46-1.41c-0.26-0.4-0.6-0.71-1.02-0.94
				s-0.88-0.34-1.37-0.34c-0.5,0-0.96,0.11-1.38,0.34s-0.75,0.54-1.02,0.94C242.82,83.6,242.67,84.07,242.63,84.61z"/>
			<path class="st0" d="M256.17,90.12c-0.73,0-1.4-0.13-1.99-0.38c-0.59-0.26-1.11-0.61-1.54-1.07s-0.76-0.98-1-1.56
				c-0.23-0.58-0.35-1.19-0.35-1.84c0-0.88,0.2-1.69,0.59-2.42c0.4-0.73,0.96-1.31,1.7-1.75s1.6-0.65,2.58-0.65
				c0.96,0,1.8,0.21,2.51,0.64s1.25,0.99,1.59,1.7l-1.94,0.59c-0.22-0.38-0.52-0.69-0.9-0.91s-0.82-0.33-1.3-0.33
				c-0.53,0-1,0.13-1.43,0.4c-0.43,0.27-0.76,0.63-1.01,1.1s-0.37,1.01-0.37,1.62c0,0.6,0.13,1.14,0.38,1.62s0.59,0.85,1.03,1.13
				c0.43,0.28,0.91,0.42,1.42,0.42c0.32,0,0.64-0.06,0.94-0.17s0.57-0.27,0.8-0.48c0.23-0.2,0.4-0.42,0.5-0.65l1.93,0.59
				c-0.2,0.46-0.5,0.86-0.9,1.22s-0.87,0.65-1.42,0.86C257.43,90.01,256.83,90.12,256.17,90.12z"/>
			<path class="st0" d="M270.4,89.93h-1.96v-5.21c0-0.84-0.16-1.47-0.48-1.89s-0.76-0.62-1.32-0.62c-0.36,0-0.72,0.09-1.09,0.28
				c-0.37,0.19-0.69,0.45-0.97,0.77c-0.28,0.32-0.5,0.7-0.64,1.12v5.55h-1.98V76.79h1.98v5.67c0.36-0.63,0.85-1.12,1.48-1.48
				c0.62-0.36,1.3-0.53,2.02-0.53c0.6,0,1.09,0.1,1.47,0.3s0.68,0.48,0.9,0.83c0.22,0.35,0.38,0.75,0.47,1.2s0.13,0.94,0.13,1.46
				L270.4,89.93L270.4,89.93z"/>
			<path class="st0" d="M281.1,77.15h1.91l4.97,12.78h-2.12l-1.25-3.47h-5.11l-1.25,3.47h-2.12L281.1,77.15z M284.06,84.97
				l-2.01-5.6l-2.02,5.6H284.06z"/>
			<path class="st0" d="M289.21,86.31v-5.72h1.98v5.31c0,0.83,0.15,1.46,0.46,1.88s0.75,0.63,1.34,0.63c0.37,0,0.74-0.08,1.09-0.23
				c0.35-0.15,0.68-0.38,0.97-0.68c0.29-0.3,0.53-0.67,0.71-1.09v-5.82h1.98v7.12c0,0.21,0.04,0.37,0.13,0.47
				c0.08,0.1,0.22,0.16,0.41,0.17v1.58c-0.2,0.04-0.38,0.06-0.51,0.06c-0.14,0.01-0.25,0.02-0.35,0.03
				c-0.37-0.01-0.68-0.11-0.92-0.3s-0.38-0.44-0.41-0.75l-0.04-0.91c-0.41,0.66-0.95,1.16-1.63,1.52s-1.42,0.54-2.22,0.54
				c-0.98,0-1.73-0.32-2.23-0.96C289.47,88.51,289.21,87.56,289.21,86.31z"/>
			<path class="st0" d="M305.5,89.49c-0.16,0.07-0.37,0.16-0.63,0.26s-0.55,0.19-0.86,0.26c-0.31,0.07-0.64,0.11-0.97,0.11
				c-0.41,0-0.79-0.08-1.13-0.22c-0.35-0.15-0.63-0.38-0.84-0.69s-0.32-0.71-0.32-1.2v-5.88h-1.26v-1.53h1.26v-3.1h1.98v3.1h2.05
				v1.53h-2.05v5.23c0.02,0.32,0.13,0.56,0.31,0.72c0.19,0.16,0.42,0.23,0.69,0.23c0.28,0,0.54-0.05,0.8-0.15
				c0.26-0.1,0.43-0.18,0.53-0.23L305.5,89.49z"/>
			<path class="st0" d="M311.1,90.12c-0.74,0-1.41-0.13-2-0.38c-0.59-0.26-1.09-0.61-1.52-1.06s-0.75-0.97-0.98-1.54
				c-0.23-0.58-0.34-1.19-0.34-1.83c0-0.67,0.11-1.29,0.34-1.86c0.23-0.58,0.55-1.09,0.98-1.54s0.94-0.81,1.53-1.06
				c0.59-0.26,1.26-0.38,1.99-0.38c0.74,0,1.41,0.13,1.99,0.38c0.58,0.26,1.09,0.61,1.52,1.06s0.76,0.97,0.99,1.54
				c0.23,0.58,0.34,1.2,0.34,1.86c0,0.64-0.11,1.25-0.34,1.83c-0.23,0.58-0.55,1.09-0.98,1.54s-0.94,0.81-1.53,1.06
				S311.83,90.12,311.1,90.12z M308.29,85.29c0,0.6,0.13,1.14,0.38,1.61s0.59,0.85,1.01,1.12s0.89,0.41,1.4,0.41
				c0.54,0,1.02-0.14,1.44-0.41s0.76-0.65,1.01-1.14s0.38-1.02,0.38-1.6c0-0.59-0.13-1.13-0.38-1.61s-0.59-0.85-1.02-1.13
				s-0.9-0.41-1.41-0.41c-0.53,0-1,0.14-1.42,0.43c-0.42,0.28-0.76,0.66-1.01,1.14C308.42,84.18,308.29,84.71,308.29,85.29z"/>
			<path class="st0" d="M332.45,86.65c0,0.68-0.18,1.27-0.54,1.76c-0.36,0.49-0.83,0.87-1.42,1.13c-0.59,0.26-1.25,0.4-1.98,0.4
				h-6.1V77.15H329c0.6,0,1.12,0.16,1.56,0.48c0.44,0.32,0.77,0.73,1.01,1.22c0.23,0.5,0.35,1.02,0.35,1.56
				c0,0.61-0.16,1.19-0.48,1.75s-0.77,0.96-1.36,1.22c0.73,0.22,1.31,0.61,1.74,1.19C332.24,85.15,332.45,85.84,332.45,86.65z
				 M324.44,78.89v3.8h3.69c0.34,0,0.64-0.08,0.9-0.25s0.47-0.39,0.63-0.68c0.16-0.28,0.23-0.6,0.23-0.96c0-0.37-0.07-0.7-0.21-0.98
				s-0.33-0.51-0.58-0.67s-0.54-0.25-0.86-0.25h-3.8V78.89z M330.4,86.26c0-0.36-0.08-0.69-0.23-0.99c-0.16-0.3-0.36-0.54-0.62-0.72
				c-0.26-0.18-0.56-0.27-0.91-0.27h-4.19v3.92h4.07c0.36,0,0.68-0.09,0.96-0.28s0.51-0.42,0.67-0.71
				C330.31,86.93,330.4,86.62,330.4,86.26z"/>
			<path class="st0" d="M339.22,82.23c-0.76,0.01-1.43,0.19-2.03,0.52c-0.59,0.34-1.02,0.81-1.27,1.42v5.76h-1.98v-9.34h1.82v2.02
				c0.34-0.64,0.77-1.15,1.3-1.54c0.53-0.39,1.08-0.6,1.66-0.64c0.13,0,0.24,0,0.32,0s0.14,0.01,0.19,0.02L339.22,82.23
				L339.22,82.23z"/>
			<path class="st0" d="M340.68,78.98V76.8h1.98v2.18H340.68z M340.68,89.93v-9.41h1.98v9.41H340.68z"/>
			<path class="st0" d="M349.3,90.12c-0.73,0-1.4-0.13-1.99-0.38c-0.59-0.26-1.11-0.61-1.54-1.07s-0.76-0.98-1-1.56
				c-0.23-0.58-0.35-1.19-0.35-1.84c0-0.88,0.2-1.69,0.59-2.42c0.4-0.73,0.96-1.31,1.7-1.75s1.6-0.65,2.58-0.65
				c0.96,0,1.8,0.21,2.51,0.64s1.25,0.99,1.59,1.7l-1.94,0.59c-0.22-0.38-0.52-0.69-0.9-0.91s-0.82-0.33-1.3-0.33
				c-0.53,0-1,0.13-1.43,0.4c-0.43,0.27-0.76,0.63-1.01,1.1s-0.37,1.01-0.37,1.62c0,0.6,0.13,1.14,0.38,1.62s0.59,0.85,1.03,1.13
				c0.43,0.28,0.91,0.42,1.42,0.42c0.32,0,0.64-0.06,0.94-0.17s0.57-0.27,0.8-0.48c0.23-0.2,0.4-0.42,0.5-0.65l1.93,0.59
				c-0.2,0.46-0.5,0.86-0.9,1.22s-0.87,0.65-1.42,0.86C350.56,90.01,349.96,90.12,349.3,90.12z"/>
			<path class="st0" d="M361.65,89.93l-3.02-4.3l-1.55,1.45v2.85h-1.99V76.79h1.98v8.31l4.36-4.51h2.12l-3.64,3.92l3.85,5.42H361.65
				z"/>
			<path class="st0" d="M368.31,90.12c-0.79,0-1.54-0.13-2.25-0.4c-0.71-0.26-1.31-0.65-1.82-1.17l0.72-1.31
				c0.55,0.47,1.1,0.81,1.65,1.04c0.55,0.22,1.09,0.33,1.63,0.33c0.56,0,1.02-0.1,1.36-0.31c0.34-0.21,0.51-0.51,0.51-0.91
				c0-0.3-0.09-0.52-0.28-0.66s-0.45-0.27-0.79-0.37c-0.34-0.11-0.75-0.23-1.21-0.36c-0.66-0.2-1.22-0.41-1.68-0.63
				s-0.81-0.49-1.04-0.81c-0.23-0.32-0.34-0.73-0.34-1.23c0-0.59,0.16-1.11,0.47-1.53c0.31-0.43,0.75-0.76,1.3-0.99
				c0.56-0.23,1.2-0.35,1.94-0.35c0.68,0,1.32,0.1,1.9,0.31s1.1,0.54,1.54,0.98l-0.85,1.3c-0.41-0.37-0.83-0.65-1.28-0.83
				c-0.44-0.18-0.92-0.27-1.42-0.27c-0.28,0-0.55,0.03-0.82,0.1c-0.27,0.06-0.5,0.18-0.68,0.36c-0.18,0.17-0.27,0.41-0.27,0.72
				c0,0.26,0.07,0.47,0.22,0.61s0.37,0.28,0.66,0.38s0.64,0.23,1.06,0.36c0.73,0.2,1.36,0.41,1.87,0.62
				c0.52,0.21,0.92,0.48,1.2,0.81s0.42,0.77,0.42,1.34c0,0.89-0.34,1.59-1.02,2.1S369.43,90.12,368.31,90.12z"/>
			<path class="st0" d="M377.76,83.68c0-1.21,0.25-2.41,0.76-3.61c0.5-1.19,1.12-2.41,1.85-3.65l1.51,0.65
				c-0.22,0.32-0.45,0.74-0.71,1.24s-0.51,1.06-0.76,1.67s-0.44,1.24-0.59,1.88s-0.22,1.26-0.22,1.86c0,0.97,0.2,1.99,0.61,3.05
				s0.95,2.15,1.62,3.25l-1.44,0.76c-0.52-0.76-0.97-1.53-1.36-2.32s-0.7-1.59-0.93-2.39C377.87,85.28,377.76,84.48,377.76,83.68z"
				/>
			<path class="st0" d="M383.82,89.93V77.15h5.36c0.58,0,1.1,0.12,1.58,0.36c0.48,0.24,0.9,0.56,1.26,0.95
				c0.36,0.4,0.64,0.84,0.83,1.34s0.29,1,0.29,1.5c0,0.71-0.16,1.38-0.48,2.02s-0.76,1.16-1.34,1.56s-1.25,0.6-2.03,0.6h-3.44v4.45
				H383.82z M385.85,83.71h3.31c0.37,0,0.7-0.1,0.99-0.31s0.52-0.5,0.68-0.86c0.17-0.37,0.25-0.78,0.25-1.23
				c0-0.47-0.1-0.88-0.29-1.23s-0.44-0.63-0.75-0.83s-0.63-0.3-0.98-0.3h-3.22L385.85,83.71L385.85,83.71z"/>
			<path class="st0" d="M397.39,89.93l-3.56-9.34h2.05l2.66,7.52l2.7-7.52h1.89l-3.56,9.34H397.39z"/>
			<path class="st0" d="M409.81,89.49c-0.16,0.07-0.37,0.16-0.63,0.26s-0.55,0.19-0.86,0.26c-0.31,0.07-0.64,0.11-0.97,0.11
				c-0.41,0-0.79-0.08-1.13-0.22c-0.35-0.15-0.63-0.38-0.84-0.69s-0.32-0.71-0.32-1.2v-5.88h-1.26v-1.53h1.26v-3.1h1.98v3.1h2.05
				v1.53h-2.05v5.23c0.02,0.32,0.13,0.56,0.31,0.72c0.19,0.16,0.42,0.23,0.69,0.23c0.28,0,0.54-0.05,0.8-0.15
				c0.26-0.1,0.43-0.18,0.53-0.23L409.81,89.49z"/>
			<path class="st0" d="M414.62,83.68c0,0.79-0.11,1.59-0.34,2.39s-0.54,1.6-0.94,2.39c-0.4,0.79-0.85,1.57-1.35,2.32l-1.46-0.76
				c0.67-1.1,1.21-2.19,1.62-3.25s0.61-2.08,0.61-3.05c0-0.6-0.08-1.22-0.23-1.86s-0.35-1.27-0.59-1.88s-0.5-1.17-0.76-1.67
				s-0.49-0.92-0.69-1.24l1.53-0.65c0.72,1.24,1.33,2.45,1.84,3.65C414.37,81.28,414.62,82.48,414.62,83.68z"/>
			<path class="st0" d="M421.21,89.93V77.15h2.03v11h6.84v1.78H421.21z"/>
			<path class="st0" d="M436.7,89.49c-0.16,0.07-0.37,0.16-0.63,0.26s-0.55,0.19-0.86,0.26c-0.31,0.07-0.64,0.11-0.97,0.11
				c-0.41,0-0.79-0.08-1.13-0.22c-0.35-0.15-0.63-0.38-0.84-0.69s-0.32-0.71-0.32-1.2v-5.88h-1.26v-1.53h1.26v-3.1h1.98v3.1h2.05
				v1.53h-2.05v5.23c0.02,0.32,0.13,0.56,0.31,0.72c0.19,0.16,0.42,0.23,0.69,0.23c0.28,0,0.54-0.05,0.8-0.15
				c0.26-0.1,0.43-0.18,0.53-0.23L436.7,89.49z"/>
			<path class="st0" d="M437.48,85.29c0-0.89,0.18-1.7,0.55-2.43s0.87-1.31,1.5-1.75c0.64-0.43,1.37-0.65,2.2-0.65
				c0.73,0,1.39,0.19,1.97,0.56s1.03,0.83,1.34,1.37v-5.58h1.98v10.91c0,0.22,0.04,0.38,0.13,0.48s0.22,0.16,0.41,0.17v1.58
				c-0.36,0.06-0.65,0.1-0.86,0.11c-0.37,0-0.68-0.11-0.94-0.33c-0.25-0.22-0.39-0.48-0.41-0.78l-0.02-0.68
				c-0.37,0.59-0.86,1.05-1.47,1.38s-1.24,0.5-1.9,0.5c-0.65,0-1.25-0.13-1.79-0.38c-0.55-0.26-1.02-0.61-1.42-1.05
				c-0.4-0.45-0.71-0.96-0.94-1.53S437.48,85.95,437.48,85.29z M445.04,86.57v-2.43c-0.13-0.38-0.35-0.72-0.64-1.01
				c-0.29-0.3-0.62-0.54-0.99-0.72c-0.37-0.18-0.74-0.27-1.11-0.27c-0.41,0-0.78,0.09-1.12,0.27c-0.34,0.18-0.64,0.41-0.88,0.7
				s-0.44,0.63-0.57,1.01c-0.13,0.38-0.2,0.78-0.2,1.2c0,0.41,0.07,0.81,0.22,1.19c0.14,0.38,0.35,0.71,0.62,1s0.58,0.51,0.94,0.67
				c0.35,0.16,0.74,0.24,1.16,0.24c0.26,0,0.53-0.04,0.8-0.13c0.27-0.09,0.53-0.22,0.77-0.38c0.24-0.17,0.45-0.36,0.63-0.59
				C444.84,87.09,444.97,86.84,445.04,86.57z"/>
		</g>
	</g>
	<g>
		<g>
			<path class="st2" d="M120.93,44.29c-11.62,6.03-38.46,20.05-53.01,27.66V44.29H120.93z"/>
			<path class="st2" d="M49.95,88.68c11.62-6.03,38.46-20.05,53.01-27.66v27.66H49.95z"/>
		</g>
		<g>
			<g>
				<path class="st3" d="M72.62,117.54c-0.52,0-0.92-0.14-1.23-0.43c-0.3-0.29-0.44-0.6-0.44-0.97v-1.69c0-0.38,0.14-0.7,0.44-0.98
					c0.3-0.29,0.71-0.42,1.24-0.42h3.22c0.53,0,0.94,0.14,1.24,0.42s0.44,0.6,0.44,0.97v1.72c0,0.36-0.15,0.68-0.44,0.96
					c-0.3,0.29-0.71,0.43-1.23,0.43L72.62,117.54L72.62,117.54z M72.99,113.59c-0.33,0-0.6,0.09-0.82,0.28
					c-0.22,0.19-0.33,0.45-0.34,0.76v1.31c0,0.31,0.12,0.57,0.35,0.76c0.22,0.18,0.49,0.27,0.81,0.27h2.48
					c0.34,0,0.61-0.1,0.82-0.28c0.22-0.18,0.34-0.45,0.34-0.76v-1.29c-0.01-0.32-0.13-0.59-0.35-0.77
					c-0.21-0.18-0.48-0.27-0.82-0.27h-2.47V113.59z"/>
				<path class="st3" d="M65.51,117.54v-3.47c0-0.26-0.21-0.47-0.47-0.47h-1.73v-0.56h5.79v0.56h-2.24c-0.26,0-0.47,0.21-0.47,0.47
					v3.47H65.51z"/>
				<path class="st3" d="M57.07,117.54c-0.52,0-0.92-0.14-1.23-0.43c-0.3-0.28-0.44-0.6-0.44-0.97v-3.1h0.89v2.89
					c0,0.31,0.12,0.57,0.35,0.76c0.22,0.18,0.49,0.27,0.81,0.27h1.74c0.33,0,0.6-0.09,0.82-0.28c0.22-0.18,0.34-0.44,0.34-0.75
					v-2.89h0.88v3.1c0,0.37-0.15,0.69-0.45,0.97c-0.3,0.29-0.71,0.43-1.23,0.43H57.07z"/>
				<path class="st3" d="M116.7,117.54l0.01-0.53h4.46c0.38,0,0.68-0.3,0.68-0.69c0-0.28-0.22-0.67-0.71-0.67h-3.23
					c-0.25,0-1.26-0.24-1.26-1.32c0-0.67,0.59-1.28,1.24-1.28h4.39v0.6h-4.1c-0.34,0-0.71,0.28-0.71,0.73c0,0.4,0.29,0.71,0.69,0.74
					h3.28c0.67,0,1.19,0.57,1.19,1.29c0,0.23-0.22,1.15-1.24,1.15h-4.69V117.54z"/>
				<path class="st3" d="M96.1,117.54l-2-2.02c-0.09-0.09-0.21-0.14-0.33-0.14h-0.85c-0.26,0-0.47,0.21-0.47,0.47l0.01,1.69h-0.89
					v-4.5h4.46c0.53,0,0.95,0.14,1.22,0.39c0.27,0.26,0.4,0.56,0.41,0.92c0,0.26-0.07,0.46-0.23,0.62
					c-0.38,0.38-1.15,0.41-1.38,0.41H95l2.25,2.16L96.1,117.54L96.1,117.54z M92.45,115.04c0,0,3.46,0,3.47,0
					c0.18,0,0.53-0.01,0.74-0.26c0.08-0.1,0.18-0.28,0.13-0.56c-0.07-0.41-0.36-0.62-0.84-0.62h-3.5L92.45,115.04z"/>
				<rect x="99.63" y="113.04" class="st3" width="0.88" height="4.5"/>
				<path class="st3" d="M114.04,117.54l-2.58-2.13c-0.09-0.07-0.19-0.11-0.3-0.11c-0.26,0-0.47,0.21-0.47,0.47v1.76h-0.88v-4.5
					h0.88v1.51c0,0.26,0.21,0.47,0.47,0.47c0.11,0,0.21-0.04,0.29-0.1l2.37-1.89l1.06,0.01l-2.2,1.74
					c-0.11,0.09-0.18,0.22-0.18,0.37c0,0.14,0.06,0.28,0.17,0.37l2.5,2.04h-1.13V117.54z"/>
				<path class="st3" d="M103.99,117.54c-0.52,0-0.92-0.14-1.23-0.43c-0.3-0.28-0.44-0.6-0.44-0.97v-1.46
					c0-0.75,0.32-1.64,1.84-1.64h0.68v0.02l0.3-0.01l0.08-0.01h2.85v0.56h-3.69c-0.95,0.01-1.17,0.78-1.18,1.07v1.25
					c0,0.31,0.12,0.57,0.35,0.76c0.22,0.18,0.49,0.27,0.81,0.27h3.71v0.58h-4.08V117.54z"/>
				<path class="st3" d="M83.76,117.54v-2.8l0,0v-1.7h4.64c0.37,0,0.66,0.11,0.89,0.32c0.23,0.21,0.33,0.46,0.33,0.75
					c0,0.28-0.1,0.52-0.3,0.73c-0.06,0.04-0.11,0.1-0.15,0.15l-0.24,0.3l0.36,0.14c0.12,0.05,0.23,0.11,0.31,0.21
					c0.24,0.23,0.35,0.48,0.35,0.78s-0.11,0.56-0.35,0.79c-0.23,0.22-0.54,0.33-0.92,0.34h-4.92V117.54z M85.1,115.47
					c-0.26,0-0.47,0.21-0.47,0.47v0.62c0,0.26,0.21,0.47,0.47,0.47h3.1c0.24-0.01,0.44-0.08,0.59-0.23
					c0.16-0.16,0.24-0.34,0.24-0.56c0-0.21-0.08-0.4-0.24-0.55c-0.16-0.14-0.35-0.22-0.58-0.22H85.1z M84.63,115.04h3.22
					c0.18,0,0.39,0,0.58-0.18c0.16-0.15,0.24-0.35,0.24-0.55c0-0.27-0.22-0.7-0.81-0.7h-3.23V115.04z"/>
				<path class="st3" d="M52.11,117.54l-2.07-3.36c-0.09-0.14-0.24-0.22-0.4-0.22c-0.16,0-0.31,0.08-0.4,0.22l-2.06,3.35h-0.97
					l2.81-4.5h1.29l2.81,4.5L52.11,117.54L52.11,117.54z"/>
			</g>
			<g>
				<path class="st4" d="M59.94,102.01c-0.7-0.77-1.62-1.15-2.79-1.15h-6.39c-0.01,0-0.03,0-0.05,0h-0.36
					c-1.22,0-1.38-1.93,0.01-1.93h9l2.2-2.71H50.4c-1.15,0-2.06,0.36-2.73,1.09c-0.45,0.48-0.76,1.02-0.93,1.63
					c0,0-0.33,1.08-0.05,1.93c0.14,0.7,0.46,1.32,0.96,1.87c0.7,0.77,1.61,1.14,2.72,1.14h6.71c0.28,0,0.51,0.11,0.71,0.33
					c0.19,0.21,0.29,0.47,0.29,0.77s-0.11,0.56-0.31,0.77c-0.21,0.22-0.46,0.33-0.75,0.33H47.6l-0.89,2.72h10.41
					c1.14,0,2.07-0.4,2.8-1.2c0.72-0.79,1.09-1.74,1.09-2.83C61.01,103.72,60.66,102.79,59.94,102.01z"/>
				<path class="st4" d="M106.51,96.2v2.74h-8.67c-1.31,0-2.46,0.71-3.08,1.77c-0.31,0.53-0.49,1.15-0.49,1.81
					c0,0.46,0.09,0.89,0.25,1.29l0,0c0.53,1.33,1.84,2.26,3.35,2.26h8.63v2.74h-8.67c-0.05,0-0.1,0-0.15,0l0,0
					c-2.09-0.05-3.93-1.11-5.04-2.72c-0.7-1.02-1.12-2.25-1.12-3.58l0,0c0-0.49,0.06-0.96,0.16-1.42l0,0
					c0.6-2.62,2.84-4.62,5.59-4.86l0,0c0.18-0.02,0.37-0.02,0.56-0.02L106.51,96.2L106.51,96.2z"/>
				<g>
					<rect x="75.82" y="96.2" class="st4" width="14.98" height="2.74"/>
					<rect x="75.82" y="101.15" class="st4" width="14.98" height="2.74"/>
					<rect x="75.82" y="106.07" class="st4" width="14.98" height="2.74"/>
				</g>
				<g>
					<polygon class="st4" points="75.09,96.26 75.09,98.99 74.04,98.99 74.04,99 68.94,99 65.78,99 65.78,99 61.21,99 60.11,99 
						62.29,96.26 65.9,96.26 					"/>
					<rect x="66.23" y="98.99" class="st4" width="2.73" height="9.82"/>
				</g>
				<g>
					<g>
						<rect x="107.24" y="96.2" class="st4" width="2.74" height="12.62"/>
						<rect x="119.5" y="96.2" class="st4" width="2.74" height="12.62"/>
					</g>
					<polygon class="st4" points="122.25,101.12 122.25,103.88 110.84,103.88 112.34,101.12 					"/>
				</g>
			</g>
		</g>
	</g>
</g>
</svg>
