<?xml version="1.0" encoding="utf-8"?>
<!-- Generator: Adobe Illustrator 26.0.3, SVG Export Plug-In . SVG Version: 6.00 Build 0)  -->
<svg version="1.1" id="Layer_1" xmlns="http://www.w3.org/2000/svg" xmlns:xlink="http://www.w3.org/1999/xlink" x="0px" y="0px"
	 viewBox="0 0 513 166" style="enable-background:new 0 0 513 166;" xml:space="preserve">
<style type="text/css">
	.st0{fill:#FFFFFF;}
	.st1{fill:url(#SVGID_1_);}
	.st2{fill:#FF8000;}
	.st3{fill:#FF4D1F;}
	.st4{fill:#1B325B;}
	.st5{fill:#FFBB00;}
	.st6{opacity:0.75;}
</style>
<g>
	<rect x="-0.13" y="-0.45" class="st0" width="173.61" height="166.89"/>
	
		<linearGradient id="SVGID_1_" gradientUnits="userSpaceOnUse" x1="155.5789" y1="172.8868" x2="510.3697" y2="6.7862" gradientTransform="matrix(1 0 0 -1 0 168)">
		<stop  offset="0" style="stop-color:#00FFAD"/>
		<stop  offset="0.1466" style="stop-color:#00E3B7"/>
		<stop  offset="0.4631" style="stop-color:#009DD0"/>
		<stop  offset="0.9223" style="stop-color:#002DF8"/>
		<stop  offset="0.9995" style="stop-color:#0019FF"/>
	</linearGradient>
	<rect x="173.48" y="-0.45" class="st1" width="339.65" height="166.89"/>
	<g>
		<g>
			<path class="st2" d="M102.68,64.73c-2.82,0.44-5.5,1.4-7.97,2.83c-0.8,0.46-1.58,0.98-2.33,1.54c-0.03,0.02-0.06,0.04-0.08,0.07
				c-1.97-1.99-4.71-3.21-7.72-3.21c-6.02,0-10.9,4.88-10.9,10.9v10.9h-10.9v-10.9c0-3.97,1.06-7.69,2.92-10.9
				c1.91-3.31,4.67-6.07,7.98-7.98c3.21-1.85,6.93-2.92,10.9-2.92s7.69,1.06,10.9,2.92C98.36,59.65,100.83,61.96,102.68,64.73z"/>
			<path class="st3" d="M73.67,44.16v13.81c-3.31,1.91-6.07,4.67-7.98,7.98c-1.85,3.21-2.92,6.93-2.92,10.9V44.16H73.67z"/>
			<path class="st4" d="M117.26,71.4c0,3.01-2.44,5.45-5.45,5.45s-5.45-2.44-5.45-5.45c0-2.38,1.52-4.4,3.65-5.14
				c0.56-0.2,1.17-0.3,1.8-0.3c1.88,0,3.55,0.96,4.52,2.41C116.92,69.23,117.26,70.28,117.26,71.4z"/>
			<path class="st5" d="M107.48,76.85h-1.12c-6.02,0-10.9,4.88-10.9,10.9h-10.9c0-3.97,1.06-7.69,2.92-10.9
				c1.48-2.55,3.45-4.78,5.8-6.54c0.69-0.52,1.42-1,2.18-1.44c2.44-1.41,5.17-2.36,8.08-2.74c0.92-0.12,1.86-0.18,2.81-0.18h1.12
				c-1.63,1.29-2.63,3.29-2.63,5.45C104.85,73.6,105.88,75.58,107.48,76.85z"/>
		</g>
		<g>
			<g>
				<path class="st4" d="M59.53,102.15c-0.7-0.78-1.64-1.16-2.82-1.16h-6.45c-0.01,0-0.03,0-0.05,0h-0.37
					c-1.23,0-1.39-1.95,0.01-1.95h9.08l2.22-2.74H49.89c-1.16,0-2.08,0.36-2.76,1.1c-0.46,0.49-0.77,1.03-0.93,1.64
					c0,0-0.33,1.09-0.05,1.95c0.14,0.7,0.46,1.34,0.96,1.89c0.7,0.78,1.62,1.16,2.75,1.15h6.77c0.29,0,0.52,0.11,0.71,0.33
					c0.19,0.21,0.29,0.47,0.29,0.78c0,0.3-0.11,0.56-0.31,0.78c-0.21,0.22-0.46,0.34-0.76,0.34h-9.5l-0.9,2.75h10.51
					c1.15,0,2.09-0.4,2.83-1.21c0.73-0.8,1.1-1.75,1.1-2.86C60.61,103.86,60.25,102.95,59.53,102.15z"/>
				<path class="st4" d="M106.53,96.28v2.77h-8.75c-1.33,0-2.48,0.72-3.11,1.78c-0.31,0.54-0.49,1.16-0.49,1.83
					c0,0.46,0.09,0.9,0.25,1.3l0,0c0.53,1.34,1.86,2.28,3.39,2.28h8.71v2.77h-8.75c-0.05,0-0.1,0-0.15,0l0,0
					c-2.11-0.05-3.96-1.13-5.09-2.75c-0.71-1.03-1.13-2.27-1.13-3.62l0,0c0-0.49,0.06-0.97,0.16-1.43l0,0
					c0.61-2.65,2.87-4.67,5.64-4.91l0,0c0.19-0.02,0.37-0.03,0.56-0.03L106.53,96.28L106.53,96.28z"/>
				<g>
					<rect x="75.56" y="96.28" class="st4" width="15.12" height="2.77"/>
					<rect x="75.56" y="101.28" class="st4" width="15.12" height="2.77"/>
					<rect x="75.56" y="106.24" class="st4" width="15.12" height="2.77"/>
				</g>
				<g>
					<polygon class="st4" points="74.81,96.35 74.81,99.09 73.76,99.09 73.76,99.1 68.62,99.1 65.42,99.1 65.42,99.1 60.81,99.1 
						59.7,99.1 61.9,96.35 65.54,96.35 					"/>
					<rect x="65.89" y="99.1" class="st4" width="2.75" height="9.91"/>
				</g>
				<g>
					<g>
						<rect x="107.27" y="96.28" class="st4" width="2.77" height="12.73"/>
						<rect x="119.65" y="96.28" class="st4" width="2.77" height="12.73"/>
					</g>
					<polygon class="st4" points="122.42,101.26 122.42,104.03 110.9,104.03 112.42,101.26 					"/>
				</g>
			</g>
			<g class="st6">
				<path class="st4" d="M67.57,117.65l-3.63-3.19c-0.09-0.08-0.21-0.13-0.33-0.13c-0.28,0-0.51,0.23-0.51,0.51v2.81h-0.96v-4.84
					h1.14l3.63,3.2c0.09,0.08,0.21,0.13,0.33,0.13c0.28,0,0.51-0.23,0.51-0.51v-2.82h0.96v4.84H67.57z"/>
				<path class="st4" d="M113.61,117.65l-3.63-3.19c-0.09-0.08-0.21-0.13-0.33-0.13c-0.28,0-0.51,0.23-0.51,0.51v2.81h-0.96v-4.84
					h1.14l3.63,3.2c0.09,0.08,0.21,0.13,0.33,0.13c0.28,0,0.51-0.23,0.51-0.51v-2.82h0.96v4.84H113.61z"/>
				<path class="st4" d="M55.46,117.65c-0.56,0-0.99-0.15-1.33-0.47c-0.32-0.31-0.48-0.65-0.48-1.04v-1.82
					c0-0.41,0.16-0.75,0.47-1.05c0.33-0.31,0.76-0.46,1.33-0.46h3.46c0.57,0,1.01,0.15,1.33,0.46c0.32,0.3,0.47,0.64,0.47,1.04v1.85
					c0,0.39-0.16,0.73-0.48,1.03c-0.33,0.31-0.76,0.47-1.33,0.47h-3.44V117.65z M55.86,113.4c-0.35,0-0.65,0.1-0.88,0.3
					c-0.23,0.2-0.36,0.49-0.37,0.81v1.41c0,0.33,0.13,0.61,0.38,0.81c0.24,0.19,0.53,0.29,0.87,0.29h2.67c0.36,0,0.66-0.11,0.88-0.3
					c0.24-0.19,0.37-0.48,0.37-0.82v-1.39c-0.01-0.35-0.14-0.63-0.38-0.83c-0.22-0.19-0.52-0.29-0.88-0.29h-2.66V113.4z"/>
				<path class="st4" d="M94.96,117.65v-3.73c0-0.28-0.23-0.5-0.5-0.5H92.6v-0.61h6.23v0.61h-2.41c-0.28,0-0.5,0.23-0.5,0.5v3.73
					H94.96z"/>
				<path class="st4" d="M118.55,117.65v-3.73c0-0.28-0.23-0.5-0.5-0.5h-1.86v-0.61h6.23v0.61h-2.41c-0.28,0-0.5,0.23-0.5,0.5v3.73
					H118.55z"/>
				<path class="st4" d="M79.85,117.65c-0.56,0-0.99-0.15-1.33-0.47c-0.32-0.31-0.48-0.65-0.48-1.04v-3.33H79v3.11
					c0,0.33,0.13,0.61,0.38,0.81c0.24,0.19,0.53,0.29,0.87,0.29h1.87c0.35,0,0.65-0.1,0.88-0.3c0.24-0.19,0.37-0.48,0.37-0.81v-3.11
					h0.95v3.33c0,0.4-0.16,0.74-0.48,1.05c-0.33,0.31-0.76,0.46-1.33,0.46L79.85,117.65L79.85,117.65z"/>
				<path class="st4" d="M70.2,117.65l0.01-0.57h4.8c0.41,0,0.73-0.33,0.73-0.75c0-0.3-0.24-0.72-0.77-0.72h-3.48
					c-0.27,0-1.36-0.25-1.36-1.42c0-0.72,0.63-1.38,1.33-1.38h4.72v0.64h-4.42c-0.37,0-0.77,0.3-0.77,0.78
					c0,0.43,0.31,0.77,0.74,0.79h3.53c0.72,0,1.29,0.61,1.29,1.39c0,0.25-0.24,1.24-1.33,1.24L70.2,117.65L70.2,117.65z"/>
				<path class="st4" d="M85.74,117.65v-4.84h0.95v3.71c0,0.28,0.23,0.5,0.51,0.5h3.98v0.62h-5.44V117.65z"/>
				<path class="st4" d="M47.83,117.65c-0.56,0-0.99-0.15-1.33-0.47c-0.32-0.31-0.48-0.65-0.48-1.04v-1.57
					c0-0.81,0.34-1.77,1.98-1.77h0.73v0.02l0.32-0.01l0.09-0.01h3.07v0.61h-3.97c-1.03,0.01-1.26,0.84-1.27,1.15v1.34
					c0,0.33,0.13,0.62,0.37,0.82c0.24,0.19,0.53,0.29,0.87,0.3h4v0.62L47.83,117.65L47.83,117.65z"/>
				<path class="st4" d="M105.59,117.65l-2.22-3.61c-0.09-0.15-0.25-0.24-0.43-0.24s-0.34,0.09-0.43,0.24l-2.22,3.61h-1.04
					l3.02-4.84h1.38l3.02,4.84H105.59z"/>
			</g>
		</g>
	</g>
	<g>
		<g>
			<g>
				<path class="st0" d="M240.24,71.38c-0.09-0.11-0.24-0.24-0.44-0.37s-0.44-0.25-0.7-0.36s-0.56-0.2-0.87-0.28
					c-0.32-0.08-0.64-0.12-0.97-0.12c-0.73,0-1.27,0.13-1.62,0.4s-0.53,0.64-0.53,1.12c0,0.35,0.1,0.63,0.3,0.84s0.5,0.38,0.91,0.5
					c0.41,0.13,0.92,0.27,1.52,0.41c0.76,0.18,1.41,0.39,1.96,0.64c0.54,0.25,0.97,0.57,1.26,0.98c0.3,0.4,0.44,0.94,0.44,1.61
					c0,0.55-0.11,1.02-0.32,1.43s-0.51,0.73-0.88,0.98s-0.8,0.44-1.29,0.57s-1.01,0.19-1.57,0.19c-0.55,0-1.1-0.06-1.64-0.18
					s-1.06-0.29-1.56-0.51c-0.49-0.22-0.95-0.5-1.38-0.82l0.81-1.5c0.12,0.14,0.32,0.28,0.58,0.44s0.56,0.31,0.9,0.46
					s0.71,0.27,1.11,0.37s0.81,0.15,1.22,0.15c0.7,0,1.23-0.12,1.6-0.36s0.55-0.59,0.55-1.06c0-0.36-0.12-0.65-0.37-0.88
					c-0.24-0.22-0.59-0.41-1.04-0.57s-1-0.31-1.63-0.47c-0.73-0.19-1.33-0.4-1.82-0.64c-0.49-0.24-0.85-0.54-1.09-0.9
					c-0.24-0.36-0.36-0.83-0.36-1.41c0-0.72,0.17-1.34,0.52-1.84c0.35-0.5,0.83-0.88,1.44-1.13c0.61-0.25,1.29-0.38,2.04-0.38
					c0.5,0,0.97,0.05,1.43,0.16c0.45,0.11,0.87,0.26,1.26,0.44c0.39,0.19,0.74,0.4,1.04,0.64L240.24,71.38z"/>
				<path class="st0" d="M247.53,79.46c-0.13,0.06-0.32,0.14-0.54,0.23c-0.23,0.09-0.48,0.16-0.75,0.23
					c-0.27,0.06-0.55,0.09-0.84,0.09c-0.35,0-0.68-0.06-0.98-0.19c-0.3-0.13-0.54-0.33-0.73-0.6s-0.27-0.62-0.27-1.04v-5.09h-1.09
					v-1.33h1.09v-2.68h1.71v2.68h1.78v1.33h-1.78v4.52c0.02,0.28,0.11,0.49,0.27,0.62s0.36,0.2,0.6,0.2s0.47-0.04,0.69-0.13
					s0.38-0.15,0.46-0.2L247.53,79.46z"/>
				<path class="st0" d="M252.41,79.99c-0.64,0-1.22-0.11-1.73-0.33s-0.95-0.53-1.32-0.91s-0.66-0.83-0.87-1.33
					c-0.2-0.5-0.3-1.03-0.3-1.59c0-0.77,0.18-1.47,0.53-2.11s0.85-1.15,1.49-1.53c0.64-0.38,1.37-0.57,2.21-0.57
					c0.86,0,1.6,0.19,2.22,0.58s1.1,0.89,1.44,1.52s0.51,1.3,0.51,2.02c0,0.12-0.01,0.24-0.02,0.35c-0.01,0.11-0.02,0.19-0.03,0.25
					h-6.55c0.05,0.48,0.19,0.9,0.42,1.25s0.52,0.63,0.89,0.83c0.36,0.2,0.75,0.3,1.15,0.3c0.47,0,0.91-0.11,1.32-0.34
					s0.69-0.53,0.83-0.9l1.46,0.42c-0.18,0.39-0.45,0.75-0.81,1.07s-0.79,0.57-1.27,0.75C253.51,79.9,252.98,79.99,252.41,79.99z
					 M249.96,75.22h4.92c-0.04-0.47-0.17-0.88-0.4-1.22c-0.22-0.35-0.52-0.62-0.88-0.82c-0.36-0.2-0.76-0.3-1.18-0.3
					c-0.44,0-0.83,0.1-1.19,0.3c-0.36,0.2-0.65,0.47-0.88,0.82C250.12,74.35,249.99,74.76,249.96,75.22z"/>
				<path class="st0" d="M261.68,79.99c-0.63,0-1.21-0.11-1.72-0.33c-0.51-0.22-0.96-0.53-1.33-0.93s-0.66-0.85-0.87-1.35
					c-0.2-0.5-0.3-1.03-0.3-1.59c0-0.76,0.17-1.46,0.51-2.09s0.83-1.14,1.47-1.51c0.64-0.38,1.38-0.56,2.24-0.56
					c0.83,0,1.56,0.18,2.17,0.55s1.08,0.86,1.38,1.47l-1.68,0.51c-0.19-0.33-0.45-0.59-0.78-0.79c-0.33-0.19-0.71-0.29-1.12-0.29
					c-0.46,0-0.87,0.12-1.24,0.35s-0.66,0.55-0.87,0.95c-0.21,0.41-0.32,0.87-0.32,1.41c0,0.52,0.11,0.99,0.33,1.4
					c0.22,0.41,0.51,0.74,0.89,0.98c0.37,0.24,0.78,0.36,1.23,0.36c0.28,0,0.55-0.05,0.81-0.15s0.49-0.24,0.69-0.41
					c0.2-0.18,0.34-0.36,0.43-0.56l1.67,0.51c-0.18,0.39-0.44,0.75-0.78,1.06s-0.75,0.56-1.23,0.74
					C262.78,79.9,262.25,79.99,261.68,79.99z"/>
				<path class="st0" d="M274.01,79.84h-1.7v-4.51c0-0.73-0.14-1.27-0.41-1.63c-0.28-0.36-0.66-0.54-1.15-0.54
					c-0.31,0-0.63,0.08-0.94,0.25c-0.32,0.16-0.6,0.39-0.84,0.67s-0.43,0.61-0.55,0.97v4.8h-1.71V68.46h1.71v4.91
					c0.31-0.55,0.74-0.97,1.28-1.28s1.12-0.46,1.75-0.46c0.52,0,0.94,0.09,1.27,0.26c0.33,0.18,0.59,0.42,0.78,0.72
					s0.33,0.65,0.41,1.04c0.08,0.39,0.12,0.81,0.12,1.27v4.91H274.01z"/>
				<path class="st0" d="M289.16,68.78v11.07h-1.75v-4.88h-5.58v4.88h-1.76V68.78h1.76v4.63h5.58v-4.63H289.16z"/>
				<path class="st0" d="M291.65,79.84V68.77h4.82c0.5,0,0.96,0.1,1.37,0.31c0.42,0.21,0.78,0.48,1.08,0.83
					c0.31,0.34,0.54,0.73,0.72,1.16c0.17,0.43,0.26,0.87,0.26,1.3c0,0.5-0.09,0.97-0.26,1.41c-0.18,0.44-0.43,0.82-0.76,1.15
					s-0.71,0.56-1.15,0.7l2.6,4.21h-1.96l-2.4-3.85h-2.56v3.85H291.65z M293.41,74.45h3.04c0.32,0,0.61-0.1,0.86-0.29
					s0.45-0.44,0.59-0.76s0.22-0.66,0.22-1.03c0-0.38-0.09-0.73-0.26-1.04s-0.39-0.56-0.65-0.74s-0.55-0.27-0.86-0.27h-2.95v4.13
					H293.41z"/>
				<path class="st0" d="M305.1,74.21c0-0.68,0.12-1.34,0.36-1.99c0.24-0.65,0.59-1.24,1.05-1.78c0.46-0.54,1.02-0.96,1.68-1.28
					s1.41-0.48,2.25-0.48c1.01,0,1.87,0.23,2.6,0.68c0.72,0.45,1.26,1.03,1.61,1.74l-1.37,0.92c-0.2-0.45-0.46-0.8-0.77-1.06
					c-0.32-0.26-0.66-0.44-1.04-0.54c-0.37-0.1-0.74-0.16-1.09-0.16c-0.57,0-1.08,0.12-1.51,0.35c-0.44,0.23-0.8,0.54-1.1,0.93
					c-0.3,0.38-0.52,0.82-0.66,1.29c-0.15,0.48-0.22,0.96-0.22,1.43c0,0.54,0.09,1.05,0.26,1.54s0.42,0.92,0.73,1.3
					c0.32,0.38,0.69,0.68,1.12,0.9c0.43,0.22,0.91,0.33,1.43,0.33c0.36,0,0.74-0.06,1.12-0.19c0.38-0.12,0.74-0.32,1.07-0.59
					s0.58-0.61,0.77-1.03l1.45,0.81c-0.22,0.55-0.57,1.02-1.05,1.4c-0.48,0.38-1.03,0.67-1.63,0.87s-1.2,0.3-1.79,0.3
					c-0.76,0-1.46-0.16-2.1-0.49s-1.2-0.76-1.67-1.31c-0.47-0.54-0.84-1.16-1.1-1.84C305.23,75.59,305.1,74.9,305.1,74.21z"/>
				<path class="st0" d="M319.9,79.99c-0.64,0-1.22-0.11-1.73-0.33c-0.51-0.22-0.95-0.53-1.32-0.92c-0.37-0.39-0.65-0.84-0.85-1.34
					s-0.3-1.03-0.3-1.58c0-0.58,0.1-1.11,0.3-1.61s0.48-0.94,0.85-1.34c0.37-0.39,0.81-0.7,1.32-0.92s1.09-0.33,1.72-0.33
					c0.64,0,1.22,0.11,1.72,0.33c0.5,0.22,0.94,0.53,1.32,0.92c0.37,0.39,0.66,0.84,0.86,1.34s0.3,1.04,0.3,1.61
					c0,0.56-0.1,1.08-0.3,1.58s-0.48,0.94-0.85,1.34c-0.37,0.39-0.81,0.7-1.33,0.92C321.11,79.89,320.54,79.99,319.9,79.99z
					 M317.47,75.82c0,0.52,0.11,0.99,0.33,1.4c0.22,0.41,0.51,0.73,0.87,0.97s0.77,0.35,1.22,0.35c0.47,0,0.88-0.12,1.25-0.35
					c0.36-0.24,0.66-0.56,0.87-0.98c0.22-0.42,0.33-0.88,0.33-1.38c0-0.51-0.11-0.98-0.33-1.39c-0.22-0.42-0.51-0.74-0.88-0.98
					s-0.78-0.35-1.22-0.35c-0.46,0-0.87,0.12-1.23,0.37c-0.36,0.25-0.65,0.57-0.87,0.98C317.58,74.85,317.47,75.3,317.47,75.82z"/>
				<path class="st0" d="M332.93,79.84h-1.7v-4.51c0-0.76-0.12-1.31-0.37-1.66c-0.25-0.34-0.61-0.52-1.09-0.52
					c-0.33,0-0.66,0.08-0.99,0.25s-0.62,0.39-0.87,0.67c-0.25,0.28-0.44,0.6-0.57,0.96v4.8h-1.71v-8.09h1.56v1.62
					c0.21-0.36,0.48-0.67,0.81-0.93s0.71-0.46,1.14-0.6c0.43-0.14,0.88-0.22,1.36-0.22c0.49,0,0.89,0.09,1.22,0.26
					c0.32,0.18,0.57,0.42,0.75,0.72s0.3,0.65,0.37,1.05c0.07,0.4,0.11,0.82,0.11,1.26v4.94H332.93z"/>
				<path class="st0" d="M337.83,79.99c-0.69,0-1.34-0.11-1.95-0.34c-0.61-0.23-1.14-0.57-1.57-1.01l0.62-1.14
					c0.48,0.41,0.95,0.7,1.43,0.9c0.47,0.19,0.94,0.29,1.41,0.29c0.49,0,0.88-0.09,1.18-0.27s0.44-0.44,0.44-0.79
					c0-0.26-0.08-0.45-0.24-0.57s-0.39-0.23-0.69-0.32s-0.65-0.2-1.05-0.31c-0.57-0.17-1.06-0.36-1.46-0.55s-0.7-0.42-0.9-0.7
					c-0.2-0.28-0.3-0.63-0.3-1.07c0-0.51,0.13-0.96,0.41-1.33c0.27-0.37,0.65-0.66,1.13-0.86s1.04-0.3,1.67-0.3
					c0.59,0,1.14,0.09,1.64,0.27s0.95,0.46,1.33,0.85l-0.73,1.12c-0.35-0.32-0.72-0.56-1.11-0.72c-0.38-0.16-0.79-0.23-1.23-0.23
					c-0.24,0-0.48,0.03-0.71,0.08c-0.23,0.06-0.43,0.16-0.58,0.31c-0.16,0.15-0.23,0.36-0.23,0.62c0,0.23,0.06,0.4,0.19,0.53
					s0.32,0.24,0.57,0.33s0.56,0.2,0.92,0.31c0.63,0.18,1.17,0.36,1.62,0.54c0.45,0.19,0.79,0.42,1.04,0.7
					c0.24,0.28,0.37,0.67,0.37,1.16c0,0.77-0.29,1.38-0.88,1.82C339.59,79.78,338.8,79.99,337.83,79.99z"/>
				<path class="st0" d="M342.5,76.71v-4.95h1.71v4.6c0,0.72,0.13,1.26,0.4,1.63s0.65,0.55,1.16,0.55c0.32,0,0.64-0.07,0.94-0.2
					c0.31-0.13,0.59-0.33,0.84-0.59s0.46-0.58,0.62-0.95v-5.04h1.71v6.16c0,0.19,0.04,0.32,0.11,0.41c0.07,0.09,0.19,0.14,0.36,0.15
					v1.37c-0.18,0.03-0.33,0.05-0.44,0.05c-0.12,0-0.22,0.01-0.3,0.02c-0.32-0.01-0.59-0.1-0.79-0.26s-0.33-0.38-0.36-0.65
					l-0.03-0.79c-0.35,0.57-0.82,1.01-1.41,1.31c-0.59,0.31-1.23,0.46-1.92,0.46c-0.85,0-1.5-0.28-1.93-0.83
					S342.5,77.78,342.5,76.71z"/>
				<path class="st0" d="M352.09,68.46h1.71v9.07c0,0.41,0.06,0.67,0.19,0.79c0.12,0.12,0.28,0.18,0.47,0.18
					c0.2,0,0.39-0.03,0.58-0.08c0.19-0.05,0.35-0.1,0.48-0.14l0.25,1.34c-0.25,0.1-0.55,0.19-0.89,0.27
					c-0.34,0.07-0.65,0.11-0.92,0.11c-0.59,0-1.05-0.16-1.38-0.49c-0.33-0.33-0.49-0.78-0.49-1.37L352.09,68.46L352.09,68.46z"/>
				<path class="st0" d="M361.3,79.46c-0.13,0.06-0.32,0.14-0.54,0.23c-0.23,0.09-0.48,0.16-0.75,0.23
					c-0.27,0.06-0.55,0.09-0.84,0.09c-0.35,0-0.68-0.06-0.98-0.19c-0.3-0.13-0.54-0.33-0.73-0.6s-0.27-0.62-0.27-1.04v-5.09h-1.09
					v-1.33h1.09v-2.68h1.71v2.68h1.78v1.33h-1.78v4.52c0.02,0.28,0.11,0.49,0.27,0.62s0.36,0.2,0.6,0.2s0.47-0.04,0.69-0.13
					s0.38-0.15,0.46-0.2L361.3,79.46z"/>
				<path class="st0" d="M361.89,77.47c0-0.51,0.15-0.96,0.44-1.35c0.3-0.39,0.71-0.68,1.23-0.9c0.53-0.21,1.12-0.32,1.8-0.32
					c0.36,0,0.73,0.03,1.11,0.09c0.37,0.06,0.71,0.14,1.01,0.24v-0.51c0-0.56-0.17-1-0.51-1.32s-0.84-0.48-1.48-0.48
					c-0.46,0-0.89,0.08-1.29,0.23c-0.41,0.16-0.84,0.39-1.29,0.7l-0.56-1.17c0.52-0.35,1.05-0.62,1.6-0.8s1.13-0.27,1.73-0.27
					c1.09,0,1.95,0.29,2.57,0.86s0.94,1.38,0.94,2.43v3c0,0.2,0.04,0.33,0.11,0.42c0.07,0.08,0.19,0.13,0.36,0.14v1.37
					c-0.16,0.03-0.29,0.05-0.41,0.06s-0.22,0.02-0.3,0.03c-0.37-0.01-0.65-0.1-0.84-0.28c-0.19-0.18-0.3-0.38-0.33-0.62l-0.05-0.47
					c-0.34,0.46-0.79,0.81-1.35,1.06s-1.11,0.37-1.68,0.37c-0.54,0-1.02-0.11-1.45-0.33c-0.43-0.22-0.76-0.52-1-0.9
					S361.89,77.96,361.89,77.47z M367.08,77.98c0.11-0.14,0.21-0.28,0.29-0.41c0.08-0.13,0.12-0.26,0.12-0.37v-0.9
					c-0.29-0.11-0.6-0.2-0.92-0.25c-0.32-0.06-0.63-0.08-0.94-0.08c-0.63,0-1.15,0.12-1.54,0.37s-0.58,0.58-0.58,1.01
					c0,0.23,0.06,0.46,0.19,0.67c0.13,0.21,0.32,0.38,0.56,0.52s0.54,0.21,0.9,0.21c0.38,0,0.75-0.07,1.09-0.22
					C366.6,78.36,366.87,78.18,367.08,77.98z"/>
				<path class="st0" d="M378.58,79.84h-1.7v-4.51c0-0.76-0.12-1.31-0.37-1.66c-0.25-0.34-0.61-0.52-1.09-0.52
					c-0.33,0-0.66,0.08-0.99,0.25s-0.62,0.39-0.87,0.67c-0.25,0.28-0.44,0.6-0.57,0.96v4.8h-1.71v-8.09h1.56v1.62
					c0.21-0.36,0.48-0.67,0.81-0.93s0.71-0.46,1.14-0.6c0.43-0.14,0.88-0.22,1.36-0.22c0.49,0,0.89,0.09,1.22,0.26
					c0.32,0.18,0.57,0.42,0.75,0.72s0.3,0.65,0.37,1.05c0.07,0.4,0.11,0.82,0.11,1.26v4.94H378.58z"/>
				<path class="st0" d="M385.11,79.46c-0.13,0.06-0.32,0.14-0.54,0.23c-0.23,0.09-0.48,0.16-0.75,0.23
					c-0.27,0.06-0.55,0.09-0.84,0.09c-0.35,0-0.68-0.06-0.98-0.19c-0.3-0.13-0.54-0.33-0.73-0.6S381,78.6,381,78.18v-5.09h-1.09
					v-1.33H381v-2.68h1.71v2.68h1.78v1.33h-1.78v4.52c0.02,0.28,0.11,0.49,0.27,0.62s0.36,0.2,0.6,0.2s0.47-0.04,0.69-0.13
					s0.38-0.15,0.46-0.2L385.11,79.46z"/>
				<path class="st0" d="M389.72,74.43c0-1.05,0.22-2.09,0.66-3.12c0.44-1.03,0.97-2.09,1.6-3.16l1.31,0.56
					c-0.19,0.28-0.39,0.64-0.62,1.08c-0.22,0.44-0.44,0.92-0.66,1.45c-0.21,0.53-0.38,1.07-0.51,1.63s-0.2,1.09-0.2,1.61
					c0,0.84,0.18,1.72,0.53,2.64c0.35,0.92,0.82,1.86,1.4,2.81l-1.25,0.65c-0.45-0.65-0.84-1.33-1.18-2.01
					c-0.34-0.69-0.61-1.38-0.8-2.07C389.82,75.8,389.72,75.11,389.72,74.43z"/>
				<path class="st0" d="M394.98,79.84V68.77h4.64c0.5,0,0.96,0.1,1.37,0.31c0.42,0.21,0.78,0.48,1.09,0.83s0.55,0.73,0.72,1.16
					s0.25,0.87,0.25,1.3c0,0.61-0.14,1.2-0.41,1.75c-0.28,0.55-0.66,1-1.16,1.35s-1.09,0.52-1.76,0.52h-2.98v3.85L394.98,79.84
					L394.98,79.84z M396.74,74.45h2.87c0.32,0,0.61-0.09,0.86-0.27s0.45-0.43,0.59-0.75c0.15-0.32,0.22-0.67,0.22-1.07
					s-0.08-0.76-0.25-1.07s-0.38-0.54-0.65-0.72c-0.26-0.17-0.55-0.26-0.85-0.26h-2.79L396.74,74.45L396.74,74.45z"/>
				<path class="st0" d="M406.73,79.84l-3.09-8.09h1.78l2.31,6.51l2.34-6.51h1.64l-3.09,8.09H406.73z"/>
				<path class="st0" d="M417.48,79.46c-0.13,0.06-0.32,0.14-0.54,0.23c-0.23,0.09-0.48,0.16-0.75,0.23
					c-0.27,0.06-0.55,0.09-0.84,0.09c-0.35,0-0.68-0.06-0.98-0.19c-0.3-0.13-0.54-0.33-0.73-0.6s-0.27-0.62-0.27-1.04v-5.09h-1.09
					v-1.33h1.09v-2.68h1.71v2.68h1.78v1.33h-1.78v4.52c0.02,0.28,0.11,0.49,0.27,0.62s0.36,0.2,0.6,0.2s0.47-0.04,0.69-0.13
					s0.38-0.15,0.46-0.2L417.48,79.46z"/>
				<path class="st0" d="M421.64,74.43c0,0.69-0.1,1.38-0.3,2.07c-0.2,0.7-0.47,1.39-0.81,2.07s-0.73,1.36-1.17,2.01l-1.26-0.65
					c0.58-0.96,1.05-1.89,1.4-2.81s0.53-1.8,0.53-2.64c0-0.52-0.07-1.06-0.2-1.61s-0.3-1.1-0.51-1.63
					c-0.21-0.53-0.43-1.01-0.66-1.45s-0.42-0.79-0.6-1.08l1.32-0.56c0.62,1.07,1.15,2.12,1.59,3.16
					C421.42,72.34,421.64,73.39,421.64,74.43z"/>
				<path class="st0" d="M427.35,79.84V68.77h1.76v9.52h5.92v1.54h-7.68V79.84z"/>
				<path class="st0" d="M440.76,79.46c-0.13,0.06-0.32,0.14-0.54,0.23c-0.23,0.09-0.48,0.16-0.75,0.23
					c-0.27,0.06-0.55,0.09-0.84,0.09c-0.35,0-0.68-0.06-0.98-0.19c-0.3-0.13-0.54-0.33-0.73-0.6s-0.27-0.62-0.27-1.04v-5.09h-1.09
					v-1.33h1.09v-2.68h1.71v2.68h1.78v1.33h-1.78v4.52c0.02,0.28,0.11,0.49,0.27,0.62s0.36,0.2,0.6,0.2s0.47-0.04,0.69-0.13
					s0.38-0.15,0.46-0.2L440.76,79.46z"/>
				<path class="st0" d="M441.43,75.82c0-0.77,0.16-1.47,0.47-2.11c0.32-0.63,0.75-1.14,1.3-1.51c0.55-0.38,1.18-0.56,1.9-0.56
					c0.63,0,1.2,0.16,1.71,0.48s0.89,0.72,1.16,1.18v-4.83h1.71v9.44c0,0.19,0.04,0.32,0.11,0.41c0.07,0.09,0.19,0.14,0.36,0.15
					v1.37c-0.31,0.05-0.56,0.08-0.75,0.09c-0.32,0-0.59-0.1-0.81-0.29s-0.34-0.42-0.36-0.68l-0.02-0.59
					c-0.32,0.51-0.75,0.91-1.27,1.19c-0.52,0.29-1.07,0.43-1.64,0.43c-0.56,0-1.08-0.11-1.55-0.33c-0.47-0.22-0.88-0.52-1.23-0.91
					c-0.35-0.39-0.62-0.83-0.81-1.33S441.43,76.39,441.43,75.82z M447.98,76.93v-2.11c-0.11-0.33-0.3-0.62-0.55-0.88
					s-0.54-0.46-0.86-0.62c-0.32-0.16-0.64-0.24-0.96-0.24c-0.35,0-0.68,0.08-0.97,0.23c-0.3,0.15-0.55,0.36-0.76,0.61
					s-0.38,0.54-0.49,0.88c-0.12,0.33-0.17,0.68-0.17,1.04s0.06,0.7,0.19,1.03c0.12,0.33,0.3,0.62,0.54,0.87s0.5,0.45,0.81,0.58
					c0.31,0.14,0.64,0.21,1,0.21c0.23,0,0.46-0.04,0.69-0.12s0.46-0.19,0.66-0.33c0.21-0.14,0.39-0.32,0.54-0.51
					C447.81,77.38,447.92,77.15,447.98,76.93z"/>
				<path class="st0" d="M451.8,79.84v-2h1.42v2H451.8z"/>
				<path class="st0" d="M309.85,101.16V90.09h4.82c0.5,0,0.96,0.1,1.37,0.31c0.42,0.21,0.78,0.48,1.08,0.83
					c0.31,0.34,0.54,0.73,0.72,1.16c0.17,0.43,0.26,0.87,0.26,1.3c0,0.5-0.09,0.97-0.26,1.41c-0.18,0.44-0.43,0.82-0.76,1.15
					c-0.33,0.32-0.71,0.56-1.15,0.7l2.6,4.21h-1.96l-2.4-3.85h-2.56v3.85H309.85z M311.61,95.78h3.04c0.32,0,0.61-0.1,0.86-0.29
					s0.45-0.44,0.59-0.76s0.22-0.65,0.22-1.03s-0.09-0.73-0.26-1.04s-0.39-0.56-0.65-0.74s-0.55-0.27-0.86-0.27h-2.95v4.13H311.61z"
					/>
				<path class="st0" d="M320.15,101.16V90.09h1.76v9.52h5.92v1.54h-7.68V101.16z"/>
				<path class="st0" d="M332.81,97.67v-1.54h4.64v1.54H332.81z"/>
				<path class="st0" d="M349.24,99.62v1.54h-5.95v-1.54h2.21v-5.45c-0.09,0.12-0.24,0.26-0.44,0.4s-0.42,0.27-0.67,0.39
					s-0.5,0.22-0.74,0.29s-0.47,0.11-0.68,0.11v-1.62c0.21,0,0.45-0.06,0.72-0.19c0.28-0.12,0.54-0.27,0.8-0.44
					c0.26-0.17,0.48-0.34,0.67-0.5s0.3-0.28,0.33-0.35h1.76v7.36H349.24z"/>
				<path class="st0" d="M358.24,97.97c0,0.67-0.18,1.25-0.54,1.75s-0.84,0.89-1.45,1.17c-0.61,0.28-1.27,0.42-1.99,0.42
					c-0.74,0-1.41-0.15-2-0.45s-1.07-0.71-1.41-1.22c-0.34-0.51-0.51-1.09-0.51-1.75c0-0.44,0.1-0.83,0.29-1.19s0.43-0.65,0.72-0.9
					s0.59-0.43,0.9-0.57c-0.28-0.12-0.54-0.3-0.78-0.51c-0.24-0.22-0.43-0.47-0.58-0.75s-0.22-0.58-0.22-0.9
					c0-0.48,0.11-0.9,0.32-1.28s0.5-0.69,0.86-0.94s0.75-0.44,1.17-0.57s0.84-0.2,1.25-0.2c0.42,0,0.84,0.07,1.26,0.2
					s0.82,0.32,1.18,0.57s0.64,0.56,0.86,0.92c0.21,0.36,0.32,0.79,0.32,1.29c0,0.31-0.07,0.61-0.21,0.9
					c-0.14,0.29-0.33,0.54-0.58,0.76c-0.24,0.22-0.51,0.39-0.79,0.51c0.33,0.16,0.65,0.36,0.94,0.62s0.53,0.56,0.71,0.91
					C358.15,97.12,358.24,97.53,358.24,97.97z M356.5,97.85c0-0.29-0.06-0.56-0.18-0.79c-0.12-0.24-0.29-0.44-0.51-0.6
					c-0.22-0.17-0.47-0.29-0.72-0.38c-0.26-0.08-0.53-0.12-0.81-0.12c-0.37,0-0.73,0.08-1.06,0.23c-0.33,0.16-0.6,0.38-0.81,0.67
					s-0.31,0.63-0.31,1.03c0,0.28,0.06,0.54,0.19,0.77c0.12,0.24,0.29,0.44,0.51,0.6c0.21,0.17,0.45,0.29,0.72,0.38
					c0.26,0.08,0.53,0.12,0.8,0.12c0.37,0,0.73-0.08,1.06-0.24s0.6-0.39,0.82-0.67C356.39,98.55,356.5,98.22,356.5,97.85z
					 M352.43,93.12c0,0.33,0.09,0.61,0.28,0.84c0.19,0.23,0.43,0.4,0.72,0.51s0.58,0.17,0.86,0.17c0.3,0,0.59-0.06,0.87-0.18
					s0.52-0.29,0.71-0.52c0.19-0.23,0.29-0.51,0.29-0.84c0-0.31-0.09-0.58-0.27-0.79c-0.18-0.22-0.4-0.39-0.69-0.51
					c-0.28-0.12-0.59-0.18-0.93-0.18c-0.32,0-0.62,0.06-0.9,0.19s-0.51,0.3-0.68,0.52C352.52,92.55,352.43,92.83,352.43,93.12z"/>
				<path class="st0" d="M367.24,99.41c-0.35,0.58-0.83,1.04-1.43,1.39s-1.28,0.51-2.03,0.51c-0.81,0-1.52-0.2-2.13-0.58
					s-1.08-0.95-1.42-1.69c-0.34-0.74-0.51-1.62-0.51-2.65c0-1.4,0.17-2.58,0.52-3.52c0.35-0.95,0.84-1.66,1.46-2.13
					c0.63-0.48,1.37-0.72,2.24-0.72c0.71,0,1.35,0.16,1.94,0.49s1.06,0.79,1.43,1.38l-1.01,1.06c-0.23-0.45-0.56-0.8-0.98-1.05
					s-0.89-0.38-1.4-0.38s-0.96,0.15-1.34,0.44c-0.38,0.3-0.68,0.73-0.9,1.29s-0.33,1.24-0.35,2.03c0.16-0.31,0.36-0.58,0.62-0.8
					s0.55-0.4,0.89-0.52c0.34-0.12,0.7-0.19,1.1-0.19c0.73,0,1.38,0.16,1.96,0.49s1.03,0.77,1.37,1.33s0.51,1.19,0.51,1.89
					C367.77,98.2,367.59,98.84,367.24,99.41z M364.95,99.53c0.36-0.21,0.65-0.5,0.87-0.87s0.33-0.76,0.33-1.18s-0.11-0.82-0.33-1.17
					s-0.5-0.64-0.86-0.85s-0.74-0.32-1.17-0.32c-0.44,0-0.83,0.11-1.19,0.32c-0.36,0.21-0.64,0.49-0.86,0.84
					c-0.21,0.35-0.32,0.74-0.32,1.18c0,0.43,0.11,0.82,0.33,1.18s0.5,0.65,0.86,0.87c0.35,0.22,0.74,0.33,1.17,0.33
					S364.59,99.74,364.95,99.53z"/>
				<path class="st0" d="M377.21,96.66c0,0.9-0.18,1.7-0.53,2.4s-0.83,1.25-1.42,1.65s-1.27,0.6-2.04,0.6c-0.77,0-1.45-0.2-2.05-0.6
					c-0.6-0.4-1.07-0.95-1.42-1.65s-0.52-1.5-0.52-2.4s0.17-1.7,0.52-2.4c0.35-0.7,0.82-1.25,1.42-1.66c0.6-0.4,1.28-0.61,2.05-0.61
					s1.45,0.2,2.04,0.61c0.59,0.4,1.06,0.96,1.42,1.66C377.03,94.96,377.21,95.77,377.21,96.66z M375.48,96.66
					c0-0.61-0.1-1.14-0.29-1.6s-0.46-0.82-0.8-1.08s-0.74-0.4-1.18-0.4s-0.83,0.13-1.17,0.39c-0.34,0.26-0.61,0.62-0.8,1.08
					s-0.29,1-0.29,1.61s0.1,1.14,0.3,1.6c0.2,0.46,0.46,0.82,0.8,1.07c0.34,0.26,0.73,0.39,1.18,0.39c0.44,0,0.83-0.13,1.17-0.4
					c0.34-0.26,0.61-0.62,0.8-1.08S375.48,97.27,375.48,96.66z"/>
			</g>
		</g>
	</g>
</g>
</svg>
