<?xml version="1.0" encoding="utf-8"?>
<!-- Generator: Adobe Illustrator 26.0.3, SVG Export Plug-In . SVG Version: 6.00 Build 0)  -->
<svg version="1.1" id="Layer_1" xmlns="http://www.w3.org/2000/svg" xmlns:xlink="http://www.w3.org/1999/xlink" x="0px" y="0px"
	 viewBox="0 0 173.5 166" style="enable-background:new 0 0 173.5 166;" xml:space="preserve">
<style type="text/css">
	.st0{fill:#FFA500;}
	.st1{fill:#1F1F3A;}
	.st2{fill:#20204C;}
</style>
<g>
	<g>
		<path class="st0" d="M141.2,28.4c-17.3,9-57.4,29.9-79.1,41.3V28.4H141.2z"/>
		<path class="st0" d="M35.3,94.6c17.3-9,57.4-29.9,79.1-41.3v41.3H35.3z"/>
	</g>
	<g>
		<g>
			<path class="st1" d="M69.1,137.6c-0.8,0-1.4-0.2-1.8-0.6c-0.4-0.4-0.7-0.9-0.7-1.4V133c0-0.6,0.2-1,0.7-1.5
				c0.4-0.4,1.1-0.6,1.8-0.6H74c0.8,0,1.4,0.2,1.8,0.6c0.4,0.4,0.7,0.9,0.7,1.4v2.6c0,0.5-0.2,1-0.7,1.4c-0.4,0.4-1.1,0.6-1.8,0.6
				L69.1,137.6L69.1,137.6z M69.7,131.7c-0.5,0-0.9,0.1-1.2,0.4c-0.3,0.3-0.5,0.7-0.5,1.1v2c0,0.5,0.2,0.9,0.5,1.1
				c0.3,0.3,0.7,0.4,1.2,0.4h3.7c0.5,0,0.9-0.1,1.2-0.4c0.3-0.3,0.5-0.7,0.5-1.1v-1.9c0-0.5-0.2-0.9-0.5-1.1
				c-0.3-0.3-0.7-0.4-1.2-0.4L69.7,131.7L69.7,131.7z"/>
			<path class="st1" d="M58.5,137.6v-5.2c0-0.4-0.3-0.7-0.7-0.7h-2.6v-0.8h8.6v0.8h-3.3c-0.4,0-0.7,0.3-0.7,0.7v5.2H58.5z"/>
			<path class="st1" d="M46,137.6c-0.8,0-1.4-0.2-1.8-0.6c-0.4-0.4-0.7-0.9-0.7-1.4v-4.6h1.3v4.3c0,0.5,0.2,0.9,0.5,1.1
				c0.3,0.3,0.7,0.4,1.2,0.4h2.6c0.5,0,0.9-0.1,1.2-0.4c0.3-0.3,0.5-0.7,0.5-1.1v-4.3h1.3v4.6c0,0.6-0.2,1-0.7,1.4
				c-0.4,0.4-1.1,0.6-1.8,0.6H46z"/>
			<path class="st1" d="M134.9,137.6l0-0.8h6.7c0.6,0,1-0.4,1-1c0-0.4-0.3-1-1.1-1h-4.8c-0.4,0-1.9-0.4-1.9-2c0-1,0.9-1.9,1.8-1.9
				h6.5v0.9h-6.1c-0.5,0-1.1,0.4-1.1,1.1c0,0.6,0.4,1.1,1,1.1h4.9c1,0,1.8,0.9,1.8,1.9c0,0.3-0.3,1.7-1.8,1.7L134.9,137.6
				L134.9,137.6z"/>
			<path class="st1" d="M104.2,137.6l-3-3c-0.1-0.1-0.3-0.2-0.5-0.2h-1.3c-0.4,0-0.7,0.3-0.7,0.7l0,2.5h-1.3v-6.7h6.7
				c0.8,0,1.4,0.2,1.8,0.6c0.4,0.4,0.6,0.8,0.6,1.4c0,0.4-0.1,0.7-0.3,0.9c-0.6,0.6-1.7,0.6-2.1,0.6h-1.6l3.4,3.2L104.2,137.6
				L104.2,137.6z M98.7,133.9c0,0,5.2,0,5.2,0c0.3,0,0.8,0,1.1-0.4c0.1-0.1,0.3-0.4,0.2-0.8c-0.1-0.6-0.5-0.9-1.3-0.9h-5.2V133.9z"
				/>
			<rect x="109.4" y="130.9" class="st1" width="1.3" height="6.7"/>
			<path class="st1" d="M130.9,137.6l-3.8-3.2c-0.1-0.1-0.3-0.2-0.4-0.2c-0.4,0-0.7,0.3-0.7,0.7v2.6h-1.3v-6.7h1.3v2.3
				c0,0.4,0.3,0.7,0.7,0.7c0.2,0,0.3-0.1,0.4-0.1l3.5-2.8l1.6,0l-3.3,2.6c-0.2,0.1-0.3,0.3-0.3,0.6c0,0.2,0.1,0.4,0.3,0.6l3.7,3
				L130.9,137.6L130.9,137.6z"/>
			<path class="st1" d="M115.9,137.6c-0.8,0-1.4-0.2-1.8-0.6c-0.4-0.4-0.7-0.9-0.7-1.4v-2.2c0-1.1,0.5-2.4,2.7-2.4h1v0l0.4,0l0.1,0
				h4.3v0.8h-5.5c-1.4,0-1.7,1.2-1.8,1.6v1.9c0,0.5,0.2,0.9,0.5,1.1c0.3,0.3,0.7,0.4,1.2,0.4h5.5v0.9L115.9,137.6L115.9,137.6
				L115.9,137.6z"/>
			<path class="st1" d="M85.8,137.6v-4.2l0,0v-2.5h6.9c0.6,0,1,0.2,1.3,0.5c0.3,0.3,0.5,0.7,0.5,1.1c0,0.4-0.1,0.8-0.4,1.1
				c-0.1,0.1-0.2,0.1-0.2,0.2l-0.4,0.4l0.5,0.2c0.2,0.1,0.3,0.2,0.5,0.3c0.4,0.3,0.5,0.7,0.5,1.2s-0.2,0.8-0.5,1.2
				c-0.3,0.3-0.8,0.5-1.4,0.5L85.8,137.6L85.8,137.6z M87.8,134.5c-0.4,0-0.7,0.3-0.7,0.7v0.9c0,0.4,0.3,0.7,0.7,0.7h4.6
				c0.4,0,0.7-0.1,0.9-0.3c0.2-0.2,0.4-0.5,0.4-0.8c0-0.3-0.1-0.6-0.4-0.8c-0.2-0.2-0.5-0.3-0.9-0.3H87.8z M87.1,133.9h4.8
				c0.3,0,0.6,0,0.9-0.3c0.2-0.2,0.4-0.5,0.4-0.8c0-0.4-0.3-1-1.2-1h-4.8V133.9z"/>
			<path class="st1" d="M38.6,137.6l-3.1-5c-0.1-0.2-0.4-0.3-0.6-0.3s-0.5,0.1-0.6,0.3l-3.1,5h-1.4l4.2-6.7h1.9l4.2,6.7L38.6,137.6
				L38.6,137.6z"/>
		</g>
		<g>
			<path class="st2" d="M50.2,114.4c-1-1.1-2.4-1.7-4.2-1.7h-9.5c0,0,0,0-0.1,0h-0.5c-1.8,0-2.1-2.9,0-2.9h13.4l3.3-4H36
				c-1.7,0-3.1,0.5-4.1,1.6c-0.7,0.7-1.1,1.5-1.4,2.4c0,0-0.5,1.6-0.1,2.9c0.2,1,0.7,2,1.4,2.8c1,1.1,2.4,1.7,4.1,1.7h10
				c0.4,0,0.8,0.2,1.1,0.5c0.3,0.3,0.4,0.7,0.4,1.1c0,0.4-0.2,0.8-0.5,1.1c-0.3,0.3-0.7,0.5-1.1,0.5h-14l-1.3,4.1H46
				c1.7,0,3.1-0.6,4.2-1.8c1.1-1.2,1.6-2.6,1.6-4.2C51.8,117,51.3,115.6,50.2,114.4z"/>
			<path class="st2" d="M119.7,105.8v4.1h-12.9c-2,0-3.7,1.1-4.6,2.6c-0.5,0.8-0.7,1.7-0.7,2.7c0,0.7,0.1,1.3,0.4,1.9l0,0
				c0.8,2,2.7,3.4,5,3.4h12.9v4.1h-12.9c-0.1,0-0.1,0-0.2,0l0,0c-3.1-0.1-5.9-1.7-7.5-4.1c-1-1.5-1.7-3.4-1.7-5.3l0,0
				c0-0.7,0.1-1.4,0.2-2.1l0,0c0.9-3.9,4.2-6.9,8.3-7.2l0,0c0.3,0,0.6,0,0.8,0L119.7,105.8L119.7,105.8z"/>
			<g>
				<rect x="73.9" y="105.8" class="st2" width="22.3" height="4.1"/>
				<rect x="73.9" y="113.2" class="st2" width="22.3" height="4.1"/>
				<rect x="73.9" y="120.5" class="st2" width="22.3" height="4.1"/>
			</g>
			<g>
				<polygon class="st2" points="72.8,105.9 72.8,109.9 71.3,109.9 71.3,110 63.7,110 58.9,110 58.9,110 52.1,110 50.5,110 
					53.7,105.9 59.1,105.9 				"/>
				<rect x="59.6" y="109.9" class="st2" width="4.1" height="14.6"/>
			</g>
			<g>
				<g>
					<rect x="120.8" y="105.8" class="st2" width="4.1" height="18.8"/>
					<rect x="139.1" y="105.8" class="st2" width="4.1" height="18.8"/>
				</g>
				<polygon class="st2" points="143.2,113.1 143.2,117.2 126.1,117.2 128.4,113.1 				"/>
			</g>
		</g>
	</g>
</g>
</svg>
