<?xml version="1.0" encoding="utf-8"?>
<!-- Generator: Adobe Illustrator 26.0.3, SVG Export Plug-In . SVG Version: 6.00 Build 0)  -->
<svg version="1.1" id="Layer_1" xmlns="http://www.w3.org/2000/svg" xmlns:xlink="http://www.w3.org/1999/xlink" x="0px" y="0px"
	 viewBox="0 0 513 166" style="enable-background:new 0 0 513 166;" xml:space="preserve">
<style type="text/css">
	.st0{fill:#FFFFFF;}
	.st1{fill:url(#SVGID_1_);}
	.st2{fill-rule:evenodd;clip-rule:evenodd;fill:#FBB216;}
	.st3{fill-rule:evenodd;clip-rule:evenodd;}
	.st4{fill-rule:evenodd;clip-rule:evenodd;fill:#80C141;}
	.st5{fill:#80C141;}
</style>
<g>
	<rect x="-0.13" y="-0.44" class="st0" width="173.61" height="166.89"/>
	
		<linearGradient id="SVGID_1_" gradientUnits="userSpaceOnUse" x1="155.5782" y1="172.8871" x2="510.369" y2="6.7865" gradientTransform="matrix(1 0 0 -1 0 168)">
		<stop  offset="0" style="stop-color:#00FFAD"/>
		<stop  offset="0.1466" style="stop-color:#00E3B7"/>
		<stop  offset="0.4631" style="stop-color:#009DD0"/>
		<stop  offset="0.9223" style="stop-color:#002DF8"/>
		<stop  offset="0.9995" style="stop-color:#0019FF"/>
	</linearGradient>
	<rect x="173.48" y="-0.44" class="st1" width="339.65" height="166.89"/>
	<g>
		<g>
			<path class="st0" d="M250.59,80.17c-0.11-0.13-0.28-0.27-0.51-0.42c-0.23-0.15-0.5-0.29-0.81-0.41
				c-0.31-0.13-0.64-0.23-1.01-0.32s-0.74-0.13-1.12-0.13c-0.84,0-1.46,0.16-1.87,0.46c-0.41,0.31-0.61,0.74-0.61,1.29
				c0,0.41,0.11,0.73,0.34,0.97c0.23,0.24,0.58,0.43,1.05,0.58s1.06,0.31,1.75,0.47c0.88,0.2,1.63,0.45,2.26,0.73
				c0.63,0.29,1.12,0.66,1.46,1.13s0.51,1.09,0.51,1.86c0,0.63-0.12,1.18-0.37,1.65c-0.25,0.47-0.58,0.84-1.02,1.14
				c-0.43,0.29-0.93,0.51-1.49,0.65s-1.17,0.21-1.82,0.21c-0.64,0-1.27-0.07-1.9-0.21s-1.23-0.33-1.8-0.59s-1.1-0.57-1.59-0.94
				l0.94-1.73c0.14,0.16,0.37,0.33,0.67,0.51c0.3,0.19,0.65,0.36,1.04,0.53s0.82,0.31,1.28,0.42s0.93,0.17,1.41,0.17
				c0.8,0,1.42-0.14,1.84-0.42s0.64-0.69,0.64-1.22c0-0.42-0.14-0.76-0.42-1.01c-0.28-0.26-0.68-0.47-1.21-0.65
				c-0.52-0.18-1.15-0.36-1.88-0.54c-0.84-0.21-1.54-0.46-2.11-0.74c-0.56-0.27-0.98-0.62-1.26-1.04s-0.41-0.96-0.41-1.63
				c0-0.84,0.2-1.54,0.6-2.12c0.4-0.58,0.96-1.02,1.67-1.31s1.49-0.44,2.36-0.44c0.58,0,1.12,0.06,1.65,0.19
				c0.52,0.13,1.01,0.3,1.46,0.51s0.85,0.46,1.2,0.74L250.59,80.17z"/>
			<path class="st0" d="M259.01,89.49c-0.16,0.07-0.37,0.16-0.63,0.26c-0.26,0.1-0.55,0.19-0.86,0.26s-0.64,0.11-0.97,0.11
				c-0.41,0-0.79-0.08-1.13-0.22c-0.35-0.15-0.63-0.38-0.84-0.69s-0.32-0.71-0.32-1.2v-5.88H253V80.6h1.26v-3.1h1.98v3.1h2.05v1.53
				h-2.05v5.23c0.02,0.32,0.13,0.56,0.31,0.72c0.19,0.16,0.42,0.23,0.69,0.23c0.28,0,0.54-0.05,0.8-0.15
				c0.26-0.1,0.43-0.18,0.53-0.22L259.01,89.49z"/>
			<path class="st0" d="M264.65,90.12c-0.74,0-1.41-0.13-2-0.38s-1.1-0.61-1.53-1.05c-0.43-0.45-0.76-0.96-1-1.54
				c-0.23-0.58-0.35-1.19-0.35-1.83c0-0.89,0.2-1.7,0.61-2.44s0.98-1.32,1.72-1.76s1.59-0.66,2.55-0.66c1,0,1.85,0.22,2.56,0.67
				s1.27,1.03,1.67,1.76c0.4,0.72,0.59,1.5,0.59,2.33c0,0.14-0.01,0.28-0.02,0.4s-0.02,0.22-0.04,0.29h-7.56
				c0.06,0.56,0.22,1.04,0.49,1.45c0.26,0.41,0.61,0.73,1.03,0.96c0.42,0.23,0.86,0.35,1.33,0.35c0.54,0,1.05-0.13,1.52-0.4
				c0.47-0.26,0.79-0.61,0.96-1.04l1.69,0.49c-0.2,0.46-0.52,0.87-0.94,1.23c-0.42,0.37-0.91,0.65-1.47,0.86
				C265.92,90.01,265.31,90.12,264.65,90.12z M261.82,84.61h5.69c-0.05-0.54-0.2-1.01-0.46-1.41c-0.26-0.4-0.6-0.71-1.02-0.94
				s-0.88-0.34-1.37-0.34c-0.5,0-0.96,0.11-1.38,0.34s-0.75,0.54-1.02,0.94C262.01,83.6,261.86,84.07,261.82,84.61z"/>
			<path class="st0" d="M275.36,90.12c-0.73,0-1.4-0.13-1.99-0.38s-1.11-0.61-1.54-1.07s-0.76-0.98-1-1.56
				c-0.23-0.58-0.35-1.19-0.35-1.84c0-0.88,0.2-1.68,0.59-2.42c0.4-0.73,0.96-1.31,1.7-1.75c0.74-0.43,1.6-0.65,2.58-0.65
				c0.96,0,1.8,0.21,2.51,0.64s1.25,0.99,1.59,1.7l-1.94,0.59c-0.22-0.38-0.52-0.69-0.9-0.91s-0.82-0.33-1.3-0.33
				c-0.53,0-1,0.13-1.43,0.4s-0.76,0.63-1.01,1.1s-0.37,1.01-0.37,1.62c0,0.6,0.13,1.14,0.38,1.62c0.25,0.47,0.59,0.85,1.03,1.13
				c0.43,0.28,0.91,0.42,1.42,0.42c0.32,0,0.64-0.06,0.94-0.17s0.57-0.27,0.8-0.48c0.23-0.2,0.4-0.42,0.5-0.65l1.93,0.59
				c-0.2,0.46-0.5,0.86-0.9,1.22s-0.87,0.65-1.42,0.86C276.62,90.01,276.02,90.12,275.36,90.12z"/>
			<path class="st0" d="M289.59,89.94h-1.96v-5.21c0-0.84-0.16-1.47-0.48-1.89c-0.32-0.42-0.76-0.62-1.32-0.62
				c-0.36,0-0.72,0.09-1.09,0.28c-0.37,0.19-0.69,0.45-0.97,0.77c-0.28,0.33-0.5,0.7-0.64,1.12v5.54h-1.98V76.79h1.98v5.67
				c0.36-0.63,0.85-1.12,1.48-1.48c0.62-0.36,1.3-0.53,2.02-0.53c0.6,0,1.09,0.1,1.47,0.3s0.68,0.48,0.9,0.83
				c0.22,0.35,0.38,0.75,0.47,1.2c0.09,0.45,0.13,0.94,0.13,1.46L289.59,89.94L289.59,89.94z"/>
			<path class="st0" d="M306.64,86.64c0,0.68-0.18,1.27-0.54,1.76s-0.83,0.87-1.42,1.13c-0.59,0.26-1.25,0.4-1.98,0.4h-6.1V77.15
				h6.59c0.6,0,1.12,0.16,1.56,0.48s0.77,0.73,1.01,1.22c0.23,0.5,0.35,1.02,0.35,1.56c0,0.61-0.16,1.19-0.48,1.75
				s-0.77,0.96-1.36,1.22c0.73,0.22,1.31,0.61,1.74,1.19C306.43,85.14,306.64,85.83,306.64,86.64z M298.63,78.89v3.8h3.69
				c0.34,0,0.64-0.08,0.9-0.25s0.47-0.39,0.63-0.67c0.16-0.28,0.23-0.6,0.23-0.96c0-0.37-0.07-0.7-0.21-0.98
				c-0.14-0.28-0.33-0.51-0.58-0.67s-0.54-0.25-0.86-0.25h-3.8V78.89z M304.59,86.26c0-0.36-0.08-0.69-0.23-0.99
				c-0.16-0.3-0.36-0.54-0.62-0.72s-0.56-0.27-0.91-0.27h-4.19v3.92h4.07c0.36,0,0.68-0.09,0.96-0.28s0.51-0.42,0.67-0.71
				S304.59,86.62,304.59,86.26z"/>
			<path class="st0" d="M308.04,86.31v-5.72h1.98v5.32c0,0.83,0.15,1.46,0.46,1.88s0.75,0.63,1.34,0.63c0.37,0,0.74-0.08,1.09-0.23
				c0.35-0.15,0.68-0.38,0.97-0.68s0.53-0.67,0.71-1.09V80.6h1.98v7.12c0,0.21,0.04,0.37,0.13,0.47s0.22,0.16,0.41,0.17v1.58
				c-0.2,0.04-0.38,0.06-0.51,0.06c-0.14,0.01-0.25,0.01-0.35,0.03c-0.37-0.01-0.68-0.11-0.92-0.3s-0.38-0.44-0.41-0.75l-0.04-0.91
				c-0.41,0.66-0.95,1.16-1.63,1.52c-0.68,0.36-1.42,0.54-2.22,0.54c-0.98,0-1.73-0.32-2.23-0.96
				C308.3,88.51,308.04,87.57,308.04,86.31z"/>
			<path class="st0" d="M319.1,78.98V76.8h1.98v2.18H319.1z M319.1,89.94v-9.41h1.98v9.41H319.1z"/>
			<path class="st0" d="M323.47,76.8h1.98v10.47c0,0.47,0.07,0.77,0.22,0.91c0.14,0.14,0.32,0.21,0.54,0.21
				c0.23,0,0.45-0.03,0.67-0.09s0.41-0.11,0.55-0.16l0.29,1.55c-0.29,0.12-0.63,0.22-1.03,0.31c-0.4,0.08-0.75,0.13-1.06,0.13
				c-0.68,0-1.21-0.19-1.59-0.57s-0.57-0.91-0.57-1.58L323.47,76.8L323.47,76.8z"/>
			<path class="st0" d="M328.28,85.29c0-0.89,0.18-1.7,0.55-2.43s0.87-1.31,1.5-1.75c0.64-0.43,1.37-0.65,2.2-0.65
				c0.73,0,1.39,0.19,1.97,0.56c0.58,0.37,1.03,0.83,1.34,1.37V76.8h1.98v10.91c0,0.22,0.04,0.38,0.13,0.48
				c0.08,0.1,0.22,0.16,0.41,0.17v1.58c-0.36,0.06-0.65,0.1-0.86,0.11c-0.37,0-0.68-0.11-0.94-0.33s-0.39-0.48-0.41-0.78l-0.02-0.68
				c-0.37,0.59-0.86,1.05-1.47,1.38s-1.24,0.5-1.9,0.5c-0.65,0-1.25-0.13-1.79-0.38s-1.02-0.61-1.42-1.05
				c-0.4-0.45-0.71-0.96-0.94-1.53C328.39,86.57,328.28,85.95,328.28,85.29z M335.84,86.57v-2.43c-0.13-0.38-0.35-0.72-0.64-1.01
				s-0.62-0.54-0.99-0.72s-0.74-0.28-1.11-0.28c-0.41,0-0.78,0.09-1.12,0.27s-0.64,0.41-0.88,0.7s-0.44,0.63-0.57,1.01
				s-0.2,0.78-0.2,1.2s0.07,0.81,0.22,1.19c0.14,0.38,0.35,0.71,0.62,1s0.58,0.51,0.94,0.67c0.35,0.16,0.74,0.24,1.16,0.24
				c0.26,0,0.53-0.04,0.8-0.13c0.27-0.09,0.53-0.22,0.77-0.38c0.24-0.17,0.45-0.36,0.63-0.59
				C335.64,87.08,335.76,86.83,335.84,86.57z"/>
			<path class="st0" d="M344.6,90.12c-0.74,0-1.41-0.13-2-0.38s-1.1-0.61-1.53-1.05c-0.43-0.45-0.76-0.96-1-1.54
				c-0.23-0.58-0.35-1.19-0.35-1.83c0-0.89,0.2-1.7,0.61-2.44s0.98-1.32,1.72-1.76s1.59-0.66,2.55-0.66c1,0,1.85,0.22,2.56,0.67
				s1.27,1.03,1.67,1.76c0.4,0.72,0.59,1.5,0.59,2.33c0,0.14-0.01,0.28-0.02,0.4s-0.02,0.22-0.04,0.29h-7.56
				c0.06,0.56,0.22,1.04,0.49,1.45c0.26,0.41,0.61,0.73,1.03,0.96c0.42,0.23,0.86,0.35,1.33,0.35c0.54,0,1.05-0.13,1.52-0.4
				c0.47-0.26,0.79-0.61,0.96-1.04l1.69,0.49c-0.2,0.46-0.52,0.87-0.94,1.23c-0.42,0.37-0.91,0.65-1.47,0.86
				C345.87,90.01,345.26,90.12,344.6,90.12z M341.78,84.61h5.69c-0.05-0.54-0.2-1.01-0.46-1.41c-0.26-0.4-0.6-0.71-1.02-0.94
				s-0.88-0.34-1.37-0.34c-0.5,0-0.96,0.11-1.38,0.34s-0.75,0.54-1.02,0.94C341.96,83.6,341.81,84.07,341.78,84.61z"/>
			<path class="st0" d="M356.32,82.23c-0.76,0.01-1.43,0.19-2.03,0.52c-0.59,0.34-1.02,0.81-1.27,1.42v5.76h-1.98v-9.34h1.82v2.02
				c0.34-0.64,0.77-1.15,1.3-1.54c0.53-0.39,1.08-0.6,1.66-0.64c0.13,0,0.24,0,0.32,0s0.14,0.01,0.19,0.02L356.32,82.23
				L356.32,82.23z"/>
			<path class="st0" d="M361.13,90.12c-0.79,0-1.54-0.13-2.25-0.4s-1.31-0.65-1.82-1.17l0.72-1.31c0.55,0.47,1.1,0.81,1.65,1.04
				c0.55,0.22,1.09,0.33,1.63,0.33c0.56,0,1.02-0.1,1.36-0.31c0.34-0.21,0.51-0.51,0.51-0.91c0-0.3-0.09-0.52-0.28-0.66
				c-0.19-0.14-0.45-0.27-0.79-0.38c-0.34-0.11-0.75-0.23-1.21-0.36c-0.66-0.2-1.22-0.41-1.68-0.63c-0.46-0.22-0.81-0.49-1.04-0.81
				s-0.34-0.73-0.34-1.23c0-0.59,0.16-1.11,0.47-1.53c0.31-0.43,0.75-0.76,1.3-0.99c0.56-0.23,1.2-0.35,1.94-0.35
				c0.68,0,1.32,0.1,1.9,0.31s1.1,0.54,1.54,0.98l-0.85,1.3c-0.41-0.37-0.83-0.65-1.28-0.83c-0.44-0.18-0.92-0.27-1.42-0.27
				c-0.28,0-0.55,0.03-0.82,0.1c-0.27,0.06-0.5,0.18-0.68,0.36c-0.18,0.17-0.27,0.41-0.27,0.72c0,0.26,0.07,0.47,0.22,0.61
				s0.37,0.28,0.66,0.38c0.29,0.11,0.64,0.23,1.06,0.36c0.73,0.2,1.36,0.41,1.87,0.62c0.52,0.21,0.92,0.48,1.2,0.81
				s0.42,0.77,0.42,1.34c0,0.89-0.34,1.59-1.02,2.1C363.16,89.86,362.25,90.12,361.13,90.12z"/>
			<path class="st0" d="M370.58,83.69c0-1.21,0.25-2.41,0.76-3.61s1.12-2.41,1.85-3.65l1.51,0.65c-0.22,0.32-0.45,0.74-0.71,1.24
				s-0.51,1.06-0.76,1.67s-0.44,1.24-0.59,1.88s-0.22,1.26-0.22,1.86c0,0.97,0.2,1.99,0.61,3.05s0.95,2.14,1.62,3.25l-1.44,0.76
				c-0.52-0.76-0.97-1.53-1.36-2.32s-0.7-1.59-0.93-2.39S370.58,84.49,370.58,83.69z"/>
			<path class="st0" d="M376.64,89.94V77.15H382c0.58,0,1.1,0.12,1.58,0.36c0.48,0.24,0.9,0.56,1.26,0.95
				c0.36,0.4,0.64,0.84,0.83,1.34s0.29,1,0.29,1.5c0,0.71-0.16,1.38-0.48,2.02s-0.76,1.16-1.34,1.56s-1.25,0.6-2.03,0.6h-3.44v4.45
				H376.64z M378.67,83.7h3.31c0.37,0,0.7-0.11,0.99-0.32s0.52-0.5,0.68-0.86c0.17-0.37,0.25-0.78,0.25-1.23
				c0-0.47-0.1-0.88-0.29-1.23s-0.44-0.63-0.75-0.83s-0.63-0.3-0.98-0.3h-3.22L378.67,83.7L378.67,83.7z"/>
			<path class="st0" d="M390.21,89.94l-3.56-9.34h2.05l2.66,7.52l2.7-7.52h1.89l-3.56,9.34H390.21z"/>
			<path class="st0" d="M402.63,89.49c-0.16,0.07-0.37,0.16-0.63,0.26c-0.26,0.1-0.55,0.19-0.86,0.26
				c-0.31,0.07-0.64,0.11-0.97,0.11c-0.41,0-0.79-0.08-1.13-0.22c-0.35-0.15-0.63-0.38-0.84-0.69s-0.32-0.71-0.32-1.2v-5.88h-1.26
				V80.6h1.26v-3.1h1.98v3.1h2.05v1.53h-2.05v5.23c0.02,0.32,0.13,0.56,0.31,0.72c0.19,0.16,0.42,0.23,0.69,0.23
				c0.28,0,0.54-0.05,0.8-0.15c0.26-0.1,0.43-0.18,0.53-0.22L402.63,89.49z"/>
			<path class="st0" d="M407.44,83.69c0,0.79-0.11,1.59-0.34,2.39s-0.54,1.6-0.94,2.39c-0.4,0.79-0.85,1.57-1.35,2.32l-1.46-0.76
				c0.67-1.1,1.21-2.19,1.62-3.25s0.61-2.08,0.61-3.05c0-0.6-0.08-1.22-0.23-1.86s-0.35-1.27-0.59-1.88
				c-0.25-0.61-0.5-1.17-0.76-1.67s-0.49-0.92-0.69-1.24l1.53-0.65c0.72,1.24,1.33,2.45,1.84,3.65S407.44,82.48,407.44,83.69z"/>
			<path class="st0" d="M414.03,89.94V77.15h2.03v11h6.84v1.78H414.03z"/>
			<path class="st0" d="M429.52,89.49c-0.16,0.07-0.37,0.16-0.63,0.26c-0.26,0.1-0.55,0.19-0.86,0.26
				c-0.31,0.07-0.64,0.11-0.97,0.11c-0.41,0-0.79-0.08-1.13-0.22c-0.35-0.15-0.63-0.38-0.84-0.69s-0.32-0.71-0.32-1.2v-5.88h-1.26
				V80.6h1.26v-3.1h1.98v3.1h2.05v1.53h-2.05v5.23c0.02,0.32,0.13,0.56,0.31,0.72c0.19,0.16,0.42,0.23,0.69,0.23
				c0.28,0,0.54-0.05,0.8-0.15c0.26-0.1,0.43-0.18,0.53-0.22L429.52,89.49z"/>
			<path class="st0" d="M430.3,85.29c0-0.89,0.18-1.7,0.55-2.43s0.87-1.31,1.5-1.75c0.64-0.43,1.37-0.65,2.2-0.65
				c0.73,0,1.39,0.19,1.97,0.56s1.03,0.83,1.34,1.37V76.8h1.98v10.91c0,0.22,0.04,0.38,0.13,0.48c0.08,0.1,0.22,0.16,0.41,0.17v1.58
				c-0.36,0.06-0.65,0.1-0.86,0.11c-0.37,0-0.68-0.11-0.94-0.33s-0.39-0.48-0.41-0.78l-0.02-0.68c-0.37,0.59-0.86,1.05-1.47,1.38
				s-1.24,0.5-1.9,0.5c-0.65,0-1.25-0.13-1.79-0.38s-1.02-0.61-1.42-1.05c-0.4-0.45-0.71-0.96-0.94-1.53
				C430.41,86.57,430.3,85.95,430.3,85.29z M437.86,86.57v-2.43c-0.13-0.38-0.35-0.72-0.64-1.01s-0.62-0.54-0.99-0.72
				s-0.74-0.28-1.11-0.28c-0.41,0-0.78,0.09-1.12,0.27s-0.64,0.41-0.88,0.7s-0.44,0.63-0.57,1.01s-0.2,0.78-0.2,1.2
				s0.07,0.81,0.22,1.19c0.14,0.38,0.35,0.71,0.62,1s0.58,0.51,0.94,0.67c0.35,0.16,0.74,0.24,1.16,0.24c0.26,0,0.53-0.04,0.8-0.13
				s0.53-0.22,0.77-0.38c0.24-0.17,0.45-0.36,0.63-0.59C437.66,87.08,437.79,86.83,437.86,86.57z"/>
		</g>
	</g>
	<g>
		<g>
			<path class="st2" d="M93.03,88.32H91.8c-0.74,0-1.34-0.6-1.34-1.34V67.36c0-0.74,0.6-1.34,1.34-1.34h1.23
				c0.74,0,1.34,0.6,1.34,1.34v19.62C94.37,87.73,93.77,88.32,93.03,88.32z"/>
			<path class="st2" d="M88.06,93.3h-1.23c-0.74,0-1.34-0.6-1.34-1.34V72.33c0-0.74,0.6-1.34,1.34-1.34h1.23
				c0.74,0,1.34,0.6,1.34,1.34v19.62C89.4,92.7,88.8,93.3,88.06,93.3z"/>
			<path class="st3" d="M94.27,92.21v17.8h-3.92v-17.8c0-1.08,0.88-1.96,1.96-1.96c0.54,0,1.03,0.22,1.38,0.57
				C94.05,91.19,94.27,91.68,94.27,92.21z"/>
			<path class="st3" d="M89.26,97.23v12.79h-3.92V97.23c0-1.08,0.88-1.96,1.96-1.96c0.54,0,1.03,0.22,1.38,0.57
				C89.05,96.2,89.26,96.69,89.26,97.23z"/>
			<path class="st2" d="M77.04,87.1h-1.23c-0.74,0-1.34-0.6-1.34-1.34V66.13c0-0.74,0.6-1.34,1.34-1.34h1.23
				c0.74,0,1.34,0.6,1.34,1.34v19.62C78.38,86.5,77.78,87.1,77.04,87.1z"/>
			<path class="st2" d="M82.14,92.2h-1.23c-0.74,0-1.34-0.6-1.34-1.34V71.24c0-0.74,0.6-1.34,1.34-1.34h1.23
				c0.74,0,1.34,0.6,1.34,1.34v19.62C83.48,91.6,82.88,92.2,82.14,92.2z"/>
			<path class="st4" d="M75.8,41.06h1.23c0.74,0,1.34,0.6,1.34,1.34v20.81c0,0.08-0.07,0.15-0.15,0.15h-3.61
				c-0.08,0-0.15-0.07-0.15-0.15V42.4C74.46,41.65,75.06,41.06,75.8,41.06z"/>
			<path class="st4" d="M91.8,42.29h1.23c0.74,0,1.34,0.6,1.34,1.34v20.81c0,0.08-0.07,0.15-0.15,0.15h-3.61
				c-0.08,0-0.15-0.07-0.15-0.15V43.63C90.46,42.89,91.06,42.29,91.8,42.29z"/>
			<path class="st3" d="M83.48,95.94v14.08h-3.92V95.94c0-1.08,0.88-1.96,1.96-1.96c0.54,0,1.03,0.22,1.39,0.57
				C83.26,94.9,83.48,95.39,83.48,95.94z"/>
			<path class="st3" d="M78.48,92.21v17.8h-3.92v-17.8c0-1.08,0.88-1.96,1.96-1.96c0.54,0,1.03,0.22,1.38,0.57
				C78.26,91.19,78.48,91.68,78.48,92.21z"/>
			<path class="st4" d="M89.26,37.19v-5.45c0-1.27-0.5-2.49-1.4-3.38l-2.5-2.5v11.57v4.26v1.1v5.88c0,0,0,0,0,0.01v18.39
				c0,1.08,0.88,1.96,1.96,1.96s1.96-0.88,1.96-1.96V48.73l0,0v-6v-1.1v-4.2C89.28,37.35,89.27,37.26,89.26,37.19z"/>
			<path class="st4" d="M83.35,47.57v-5.93v-4.2v-7.45l-2.46,2.39c-0.93,0.9-1.45,2.14-1.45,3.44v1.63v4.26v7.04l0,0v17.24
				c0,1.08,0.88,1.96,1.96,1.96s1.96-0.88,1.96-1.96L83.35,47.57L83.35,47.57z"/>
		</g>
		<g>
			<g>
				<g>
					<path class="st5" d="M96.75,132.27h-4.22c-0.07,0-0.13,0.06-0.13,0.13v0.53c0,0.07,0.06,0.13,0.13,0.13h1.29
						c0.07,0,0.13,0.06,0.13,0.13v2.51c0,0.07,0.06,0.13,0.13,0.13h0.75c0.07,0,0.13-0.06,0.13-0.13v-2.51
						c0-0.07,0.06-0.13,0.13-0.13h1.65c0.07,0,0.13-0.06,0.13-0.13v-0.53C96.89,132.31,96.83,132.27,96.75,132.27z"/>
					<path class="st5" d="M120.08,132.27h-4.22c-0.07,0-0.13,0.06-0.13,0.13v0.53c0,0.07,0.06,0.13,0.13,0.13h1.29
						c0.07,0,0.13,0.06,0.13,0.13v2.51c0,0.07,0.06,0.13,0.13,0.13h0.75c0.07,0,0.13-0.06,0.13-0.13v-2.51
						c0-0.07,0.06-0.13,0.13-0.13h1.65c0.07,0,0.13-0.06,0.13-0.13v-0.53C120.21,132.31,120.15,132.27,120.08,132.27z"/>
					<path class="st5" d="M114.25,132.27h0.84c0.1,0,0.17,0.11,0.11,0.2l-1.92,3.31c-0.02,0.04-0.07,0.07-0.11,0.07h-0.98
						c-0.05,0-0.09-0.03-0.11-0.07l-1.92-3.31c-0.05-0.09,0.01-0.2,0.11-0.2h0.87c0.05,0,0.09,0.03,0.12,0.07l1.32,2.37
						c0.05,0.09,0.18,0.09,0.23,0l1.32-2.37C114.15,132.29,114.2,132.27,114.25,132.27z"/>
					<path class="st5" d="M109.54,132.63c-0.25-0.24-0.58-0.36-0.98-0.36h-3.09c-0.07,0-0.13,0.06-0.13,0.13v3.31
						c0,0.07,0.06,0.13,0.13,0.13h0.75c0.07,0,0.13-0.06,0.13-0.13v-1.11c0-0.07,0.06-0.13,0.13-0.13h2.07
						c1.12,0,1.36-0.65,1.36-0.98C109.92,133.15,109.79,132.87,109.54,132.63z M108.43,133.67h-2.07v-0.61h2.12
						c0.23,0,0.36,0.09,0.38,0.31C108.88,133.65,108.58,133.67,108.43,133.67z"/>
					<path class="st5" d="M92.02,135.2l0.01,0.54c-0.02,0.05-0.07,0.09-0.12,0.09h-3.73c-0.07,0-0.13-0.06-0.13-0.13v-3.31
						c0-0.07,0.06-0.13,0.13-0.13h0.75c0.07,0,0.13,0.06,0.13,0.13v2.5c0,0.07,0.06,0.13,0.13,0.13h2.71
						C91.98,135.03,92.05,135.12,92.02,135.2z"/>
					<path class="st5" d="M102.43,133.04c-0.06-0.16-0.16-0.3-0.3-0.43c-0.24-0.23-0.58-0.35-1.01-0.35h-3.44
						c-0.07,0-0.13,0.06-0.13,0.13v0.66l0,0v1.48l0,0v1.16c0,0.07,0.06,0.13,0.13,0.13h3.44c0.42,0,0.76-0.12,1.01-0.36
						s0.37-0.51,0.37-0.82v-1.21C102.5,133.3,102.48,133.17,102.43,133.04z M101.49,134.5c0,0.16-0.06,0.29-0.18,0.39
						c-0.11,0.1-0.26,0.14-0.45,0.15h-2.3v-0.49l0,0v-0.07v-0.79l0,0v-0.61h2.29c0.01,0,0.02,0,0.03,0
						c0.17,0.01,0.31,0.05,0.42,0.14s0.17,0.22,0.17,0.39L101.49,134.5z"/>
				</g>
				<g>
					<path class="st5" d="M58.2,132.35c0.07,0,0.13,0.06,0.13,0.13v2.2c0,0.31-0.12,0.57-0.37,0.81c-0.25,0.23-0.57,0.35-0.98,0.35
						h-1.71c-0.41,0-0.73-0.12-0.98-0.35c-0.24-0.23-0.37-0.5-0.37-0.81v-2.2c0-0.07,0.06-0.13,0.13-0.13h0.74
						c0.07,0,0.13,0.06,0.13,0.13v2.06c0,0.15,0.06,0.28,0.17,0.37c0.12,0.1,0.26,0.14,0.44,0.14h1.2c0.18,0,0.32-0.05,0.44-0.14
						c0.11-0.09,0.17-0.22,0.17-0.37v-2.06c0-0.07,0.06-0.13,0.13-0.13H58.2z"/>
					<path class="st5" d="M83.88,133.77h-2.25c-0.16-0.01-0.29-0.13-0.29-0.31c0-0.22,0.19-0.31,0.3-0.31h2.89
						c0.07,0,0.13-0.06,0.13-0.13v-0.54c0-0.07-0.06-0.13-0.13-0.13h-3.09c-0.54,0-1.05,0.48-1.05,1.07c0,0.84,0.76,1.11,1.06,1.11
						h2.23c0.24,0,0.3,0.19,0.3,0.27c0,0.17-0.13,0.28-0.27,0.28h-3.13c-0.07,0-0.13,0.06-0.13,0.13l-0.01,0.5
						c0,0.07,0.06,0.13,0.13,0.13h3.28c0.78,0,1.05-0.68,1.05-0.98C84.9,134.26,84.47,133.77,83.88,133.77z"/>
					<path class="st5" d="M78.35,134.35h0.24c0.36,0,1.31-0.08,1.3-0.91c0-0.3-0.11-0.55-0.34-0.77c-0.22-0.22-0.57-0.32-0.97-0.32
						h-3.14c-0.07,0-0.13,0.06-0.13,0.13v3.23c0,0.07,0.06,0.13,0.13,0.13h0.74c0.07,0,0.13-0.06,0.13-0.13l-0.01-1.23
						c0-0.07,0.06-0.13,0.13-0.13h0.59c0.03,0,0.07,0.01,0.09,0.04l1.4,1.41c0.02,0.02,0.06,0.04,0.09,0.04h0.98
						c0.12,0,0.17-0.14,0.09-0.22L78.35,134.35z M78.08,133.73H76.3v-0.6h2.21c0.19,0,0.35,0.04,0.39,0.27
						c0.06,0.35-0.33,0.33-0.42,0.33H78.08L78.08,133.73z"/>
					<path class="st5" d="M59.96,132.48v3.23c0,0.07-0.06,0.13-0.13,0.13H59.1c-0.07,0-0.13-0.06-0.13-0.13v-3.23
						c0-0.07,0.06-0.13,0.13-0.13h0.73C59.91,132.35,59.96,132.41,59.96,132.48z"/>
					<path class="st5" d="M64.61,135.21l0.01,0.53c-0.02,0.05-0.07,0.09-0.12,0.09h-3.64c-0.07,0-0.13-0.06-0.13-0.13v-3.23
						c0-0.07,0.06-0.13,0.13-0.13h0.74c0.07,0,0.13,0.06,0.13,0.13v2.44c0,0.07,0.06,0.13,0.13,0.13h2.64
						C64.58,135.04,64.64,135.14,64.61,135.21z"/>
					<path class="st5" d="M69.99,133.12c-0.06-0.15-0.16-0.29-0.29-0.42c-0.24-0.23-0.57-0.35-0.98-0.35h-3.36
						c-0.07,0-0.13,0.06-0.13,0.13v0.65l0,0v1.45l0,0v1.14c0,0.07,0.06,0.13,0.13,0.13h3.36c0.41,0,0.74-0.12,0.98-0.35
						s0.36-0.5,0.36-0.8v-1.18C70.06,133.37,70.03,133.24,69.99,133.12z M69.06,134.53c0,0.16-0.06,0.28-0.17,0.38
						c-0.11,0.09-0.25,0.14-0.44,0.14h-2.24v-0.48l0,0v-0.07v-0.77l0,0v-0.6h2.24c0.01,0,0.02,0,0.03,0
						c0.16,0.01,0.3,0.04,0.41,0.14c0.11,0.09,0.17,0.22,0.17,0.38V134.53z"/>
					<path class="st5" d="M52.98,134.18c-0.08-0.09-0.18-0.15-0.29-0.19c0.03-0.04,0.05-0.06,0.07-0.07
						c0.19-0.18,0.29-0.4,0.29-0.66c0-0.25-0.09-0.47-0.29-0.65c-0.19-0.19-0.44-0.28-0.75-0.28h-3.26c-0.07,0-0.13,0.06-0.13,0.13
						v0.65l0,0v0.78l0,0v1.8c0,0.07,0.06,0.13,0.13,0.13h3.45c0.32,0,0.57-0.1,0.77-0.29c0.2-0.2,0.3-0.42,0.3-0.68
						C53.28,134.61,53.18,134.38,52.98,134.18z M51.65,133.13c0.29,0,0.36,0.2,0.36,0.29c0,0.09-0.03,0.17-0.1,0.24
						c-0.07,0.07-0.16,0.07-0.27,0.07h-2.03v-0.6H51.65z M52.16,134.99c-0.07,0.07-0.16,0.1-0.27,0.1h-2.14
						c-0.07,0-0.13-0.06-0.13-0.13v-0.42c0-0.07,0.06-0.13,0.13-0.13h2.14c0.11,0,0.2,0.03,0.27,0.1s0.11,0.15,0.11,0.24
						C52.26,134.83,52.23,134.92,52.16,134.99z"/>
					<path class="st5" d="M74.68,135.7v-0.52c0-0.07-0.06-0.13-0.13-0.13H71.6v-0.62h2.95c0.07,0,0.13-0.06,0.13-0.13v-0.45
						c0-0.07-0.06-0.13-0.13-0.13H71.6v-0.6h2.95c0.07,0,0.13-0.06,0.13-0.13v-0.52c0-0.07-0.06-0.13-0.13-0.13h-3.81
						c-0.07,0-0.13,0.06-0.13,0.13v0.65l0,0v0.6l0,0v0.11v0.15l0,0v1.72c0,0.07,0.06,0.13,0.13,0.13h3.81
						C74.62,135.83,74.68,135.78,74.68,135.7z"/>
				</g>
			</g>
			<g>
				<path d="M61.31,122.51c-0.66-0.73-1.53-1.09-2.64-1.08h-6.04c-0.01,0-0.03,0-0.05,0h-0.34c-1.15,0-1.3-1.82,0.01-1.82h8.5
					l2.07-2.56H52.28c-1.09,0-1.95,0.34-2.58,1.03c-0.43,0.45-0.72,0.97-0.87,1.54c0,0-0.31,1.02-0.05,1.82
					c0.13,0.66,0.43,1.25,0.9,1.77c0.66,0.73,1.52,1.08,2.57,1.08h6.33c0.27,0,0.48,0.1,0.67,0.31c0.18,0.2,0.28,0.44,0.27,0.73
					c0,0.28-0.1,0.53-0.29,0.73c-0.19,0.21-0.43,0.31-0.71,0.31h-8.89l-0.84,2.57h9.83c1.08,0,1.96-0.38,2.65-1.13
					c0.68-0.75,1.03-1.64,1.03-2.68C62.33,124.12,61.99,123.25,61.31,122.51z"/>
				<path d="M105.29,117.01v2.59H97.1c-1.24,0-2.32,0.67-2.91,1.67c-0.29,0.5-0.46,1.09-0.46,1.71c0,0.43,0.09,0.84,0.24,1.22l0,0
					c0.5,1.25,1.74,2.13,3.17,2.13h8.15v2.59H97.1c-0.05,0-0.09,0-0.14,0l0,0c-1.97-0.05-3.71-1.05-4.76-2.57
					c-0.67-0.96-1.05-2.13-1.05-3.39l0,0c0-0.46,0.05-0.91,0.15-1.34l0,0c0.57-2.48,2.69-4.37,5.28-4.59l0,0
					c0.17-0.02,0.35-0.02,0.53-0.02L105.29,117.01L105.29,117.01z"/>
				<g>
					<rect x="76.31" y="117.01" width="14.14" height="2.59"/>
					<rect x="76.31" y="121.69" width="14.14" height="2.59"/>
					<rect x="76.31" y="126.33" width="14.14" height="2.59"/>
				</g>
				<g>
					<polygon points="75.62,117.08 75.62,119.65 74.63,119.65 74.62,119.65 69.82,119.65 66.83,119.65 66.83,119.65 62.51,119.65 
						61.47,119.65 63.53,117.08 66.94,117.08 					"/>
					<rect x="67.25" y="119.66" width="2.58" height="9.27"/>
				</g>
				<g>
					<g>
						<rect x="105.98" y="117.01" width="2.59" height="11.91"/>
						<rect x="117.56" y="117.01" width="2.59" height="11.91"/>
					</g>
					<polygon points="120.15,121.68 120.15,124.26 109.38,124.26 110.8,121.68 					"/>
				</g>
			</g>
		</g>
	</g>
</g>
</svg>
