<?xml version="1.0" encoding="utf-8"?>
<!-- Generator: Adobe Illustrator 26.0.3, SVG Export Plug-In . SVG Version: 6.00 Build 0)  -->
<svg version="1.1" id="Layer_1" xmlns="http://www.w3.org/2000/svg" xmlns:xlink="http://www.w3.org/1999/xlink" x="0px" y="0px"
	 viewBox="0 0 173.5 166" style="enable-background:new 0 0 173.5 166;" xml:space="preserve">
<style type="text/css">
	.st0{fill-rule:evenodd;clip-rule:evenodd;fill:#FBB216;}
	.st1{fill-rule:evenodd;clip-rule:evenodd;}
	.st2{fill-rule:evenodd;clip-rule:evenodd;fill:#80C141;}
	.st3{fill:#80C141;}
</style>
<g>
	<g>
		<path class="st0" d="M95.4,90.5h-1.2c-0.7,0-1.3-0.6-1.3-1.3V69.5c0-0.7,0.6-1.3,1.3-1.3h1.2c0.7,0,1.3,0.6,1.3,1.3v19.6
			C96.7,89.9,96.1,90.5,95.4,90.5z"/>
		<path class="st0" d="M90.4,95.4h-1.2c-0.7,0-1.3-0.6-1.3-1.3V74.5c0-0.7,0.6-1.3,1.3-1.3h1.2c0.7,0,1.3,0.6,1.3,1.3v19.6
			C91.7,94.8,91.1,95.4,90.4,95.4z"/>
		<path class="st1" d="M96.6,94.4v17.8h-3.9V94.4c0-1.1,0.9-2,2-2c0.5,0,1,0.2,1.4,0.6C96.4,93.3,96.6,93.8,96.6,94.4z"/>
		<path class="st1" d="M91.6,99.4v12.8h-3.9V99.4c0-1.1,0.9-2,2-2c0.5,0,1,0.2,1.4,0.6C91.4,98.3,91.6,98.8,91.6,99.4z"/>
		<path class="st0" d="M79.4,89.2h-1.2c-0.7,0-1.3-0.6-1.3-1.3V68.3c0-0.7,0.6-1.3,1.3-1.3h1.2c0.7,0,1.3,0.6,1.3,1.3v19.6
			C80.7,88.6,80.1,89.2,79.4,89.2z"/>
		<path class="st0" d="M84.5,94.3h-1.2c-0.7,0-1.3-0.6-1.3-1.3V73.4c0-0.7,0.6-1.3,1.3-1.3h1.2c0.7,0,1.3,0.6,1.3,1.3V93
			C85.8,93.7,85.2,94.3,84.5,94.3z"/>
		<path class="st2" d="M78.1,43.2h1.2c0.7,0,1.3,0.6,1.3,1.3v20.8c0,0.1-0.1,0.2-0.2,0.2h-3.6c-0.1,0-0.2-0.1-0.2-0.2V44.5
			C76.8,43.8,77.4,43.2,78.1,43.2z"/>
		<path class="st2" d="M94.1,44.4h1.2c0.7,0,1.3,0.6,1.3,1.3v20.8c0,0.1-0.1,0.2-0.2,0.2h-3.6c-0.1,0-0.2-0.1-0.2-0.2V45.8
			C92.8,45,93.4,44.4,94.1,44.4z"/>
		<path class="st1" d="M85.8,98.1v14.1h-3.9V98.1c0-1.1,0.9-2,2-2c0.5,0,1,0.2,1.4,0.6C85.6,97,85.8,97.5,85.8,98.1z"/>
		<path class="st1" d="M80.8,94.4v17.8h-3.9V94.4c0-1.1,0.9-2,2-2c0.5,0,1,0.2,1.4,0.6C80.6,93.3,80.8,93.8,80.8,94.4z"/>
		<path class="st2" d="M91.6,39.3v-5.5c0-1.3-0.5-2.5-1.4-3.4L87.7,28v11.6v4.3v1.1v5.9c0,0,0,0,0,0v18.4c0,1.1,0.9,2,2,2s2-0.9,2-2
			V50.9l0,0v-6v-1.1v-4.2C91.6,39.5,91.6,39.4,91.6,39.3z"/>
		<path class="st2" d="M85.7,49.7v-5.9v-4.2v-7.5l-2.5,2.4c-0.9,0.9-1.4,2.1-1.4,3.4v1.6v4.3v7l0,0v17.2c0,1.1,0.9,2,2,2s2-0.9,2-2
			L85.7,49.7L85.7,49.7z"/>
	</g>
	<g>
		<g>
			<g>
				<path class="st3" d="M99.1,134.4h-4.2c-0.1,0-0.1,0.1-0.1,0.1v0.5c0,0.1,0.1,0.1,0.1,0.1h1.3c0.1,0,0.1,0.1,0.1,0.1v2.5
					c0,0.1,0.1,0.1,0.1,0.1h0.8c0.1,0,0.1-0.1,0.1-0.1v-2.5c0-0.1,0.1-0.1,0.1-0.1h1.7c0.1,0,0.1-0.1,0.1-0.1v-0.5
					C99.2,134.5,99.2,134.4,99.1,134.4z"/>
				<path class="st3" d="M122.4,134.4h-4.2c-0.1,0-0.1,0.1-0.1,0.1v0.5c0,0.1,0.1,0.1,0.1,0.1h1.3c0.1,0,0.1,0.1,0.1,0.1v2.5
					c0,0.1,0.1,0.1,0.1,0.1h0.8c0.1,0,0.1-0.1,0.1-0.1v-2.5c0-0.1,0.1-0.1,0.1-0.1h1.7c0.1,0,0.1-0.1,0.1-0.1v-0.5
					C122.5,134.5,122.5,134.4,122.4,134.4z"/>
				<path class="st3" d="M116.6,134.4h0.8c0.1,0,0.2,0.1,0.1,0.2l-1.9,3.3c0,0-0.1,0.1-0.1,0.1h-1c-0.1,0-0.1,0-0.1-0.1l-1.9-3.3
					c-0.1-0.1,0-0.2,0.1-0.2h0.9c0.1,0,0.1,0,0.1,0.1l1.3,2.4c0.1,0.1,0.2,0.1,0.2,0l1.3-2.4C116.5,134.4,116.5,134.4,116.6,134.4z"
					/>
				<path class="st3" d="M111.9,134.8c-0.2-0.2-0.6-0.4-1-0.4h-3.1c-0.1,0-0.1,0.1-0.1,0.1v3.3c0,0.1,0.1,0.1,0.1,0.1h0.8
					c0.1,0,0.1-0.1,0.1-0.1v-1.1c0-0.1,0.1-0.1,0.1-0.1h2.1c1.1,0,1.4-0.6,1.4-1C112.2,135.3,112.1,135,111.9,134.8z M110.8,135.8
					h-2.1v-0.6h2.1c0.2,0,0.4,0.1,0.4,0.3C111.2,135.8,110.9,135.8,110.8,135.8z"/>
				<path class="st3" d="M94.3,137.3l0,0.5c0,0.1-0.1,0.1-0.1,0.1h-3.7c-0.1,0-0.1-0.1-0.1-0.1v-3.3c0-0.1,0.1-0.1,0.1-0.1h0.8
					c0.1,0,0.1,0.1,0.1,0.1v2.5c0,0.1,0.1,0.1,0.1,0.1h2.7C94.3,137.2,94.4,137.3,94.3,137.3z"/>
				<path class="st3" d="M104.8,135.2c-0.1-0.2-0.2-0.3-0.3-0.4c-0.2-0.2-0.6-0.4-1-0.4H100c-0.1,0-0.1,0.1-0.1,0.1v0.7l0,0v1.5l0,0
					v1.2c0,0.1,0.1,0.1,0.1,0.1h3.4c0.4,0,0.8-0.1,1-0.4s0.4-0.5,0.4-0.8v-1.2C104.8,135.4,104.8,135.3,104.8,135.2z M103.8,136.6
					c0,0.2-0.1,0.3-0.2,0.4c-0.1,0.1-0.3,0.1-0.4,0.1h-2.3v-0.5l0,0v-0.1v-0.8l0,0v-0.6h2.3c0,0,0,0,0,0c0.2,0,0.3,0.1,0.4,0.1
					s0.2,0.2,0.2,0.4L103.8,136.6z"/>
			</g>
			<g>
				<path class="st3" d="M60.5,134.5c0.1,0,0.1,0.1,0.1,0.1v2.2c0,0.3-0.1,0.6-0.4,0.8c-0.2,0.2-0.6,0.4-1,0.4h-1.7
					c-0.4,0-0.7-0.1-1-0.4c-0.2-0.2-0.4-0.5-0.4-0.8v-2.2c0-0.1,0.1-0.1,0.1-0.1h0.7c0.1,0,0.1,0.1,0.1,0.1v2.1
					c0,0.1,0.1,0.3,0.2,0.4c0.1,0.1,0.3,0.1,0.4,0.1h1.2c0.2,0,0.3-0.1,0.4-0.1c0.1-0.1,0.2-0.2,0.2-0.4v-2.1c0-0.1,0.1-0.1,0.1-0.1
					H60.5z"/>
				<path class="st3" d="M86.2,135.9H84c-0.2,0-0.3-0.1-0.3-0.3c0-0.2,0.2-0.3,0.3-0.3h2.9c0.1,0,0.1-0.1,0.1-0.1v-0.5
					c0-0.1-0.1-0.1-0.1-0.1h-3.1c-0.5,0-1.1,0.5-1.1,1.1c0,0.8,0.8,1.1,1.1,1.1H86c0.2,0,0.3,0.2,0.3,0.3c0,0.2-0.1,0.3-0.3,0.3
					h-3.1c-0.1,0-0.1,0.1-0.1,0.1l0,0.5c0,0.1,0.1,0.1,0.1,0.1h3.3c0.8,0,1.1-0.7,1.1-1C87.2,136.4,86.8,135.9,86.2,135.9z"/>
				<path class="st3" d="M80.7,136.5h0.2c0.4,0,1.3-0.1,1.3-0.9c0-0.3-0.1-0.6-0.3-0.8c-0.2-0.2-0.6-0.3-1-0.3h-3.1
					c-0.1,0-0.1,0.1-0.1,0.1v3.2c0,0.1,0.1,0.1,0.1,0.1h0.7c0.1,0,0.1-0.1,0.1-0.1l0-1.2c0-0.1,0.1-0.1,0.1-0.1h0.6c0,0,0.1,0,0.1,0
					l1.4,1.4c0,0,0.1,0,0.1,0h1c0.1,0,0.2-0.1,0.1-0.2L80.7,136.5z M80.4,135.9h-1.8v-0.6h2.2c0.2,0,0.3,0,0.4,0.3
					c0.1,0.4-0.3,0.3-0.4,0.3H80.4L80.4,135.9z"/>
				<path class="st3" d="M62.3,134.6v3.2c0,0.1-0.1,0.1-0.1,0.1h-0.7c-0.1,0-0.1-0.1-0.1-0.1v-3.2c0-0.1,0.1-0.1,0.1-0.1h0.7
					C62.2,134.5,62.3,134.6,62.3,134.6z"/>
				<path class="st3" d="M66.9,137.4l0,0.5c0,0.1-0.1,0.1-0.1,0.1h-3.6c-0.1,0-0.1-0.1-0.1-0.1v-3.2c0-0.1,0.1-0.1,0.1-0.1h0.7
					c0.1,0,0.1,0.1,0.1,0.1v2.4c0,0.1,0.1,0.1,0.1,0.1h2.6C66.9,137.2,67,137.3,66.9,137.4z"/>
				<path class="st3" d="M72.3,135.3c-0.1-0.1-0.2-0.3-0.3-0.4c-0.2-0.2-0.6-0.4-1-0.4h-3.4c-0.1,0-0.1,0.1-0.1,0.1v0.6l0,0v1.4l0,0
					v1.1c0,0.1,0.1,0.1,0.1,0.1H71c0.4,0,0.7-0.1,1-0.4s0.4-0.5,0.4-0.8v-1.2C72.4,135.5,72.4,135.4,72.3,135.3z M71.4,136.7
					c0,0.2-0.1,0.3-0.2,0.4c-0.1,0.1-0.2,0.1-0.4,0.1h-2.2v-0.5l0,0v-0.1v-0.8l0,0v-0.6h2.2c0,0,0,0,0,0c0.2,0,0.3,0,0.4,0.1
					c0.1,0.1,0.2,0.2,0.2,0.4V136.7z"/>
				<path class="st3" d="M55.3,136.3c-0.1-0.1-0.2-0.1-0.3-0.2c0,0,0-0.1,0.1-0.1c0.2-0.2,0.3-0.4,0.3-0.7c0-0.2-0.1-0.5-0.3-0.6
					c-0.2-0.2-0.4-0.3-0.8-0.3h-3.3c-0.1,0-0.1,0.1-0.1,0.1v0.6l0,0v0.8l0,0v1.8c0,0.1,0.1,0.1,0.1,0.1h3.5c0.3,0,0.6-0.1,0.8-0.3
					c0.2-0.2,0.3-0.4,0.3-0.7C55.6,136.8,55.5,136.5,55.3,136.3z M54,135.3c0.3,0,0.4,0.2,0.4,0.3s0,0.2-0.1,0.2s-0.2,0.1-0.3,0.1
					h-2v-0.6H54z M54.5,137.1c-0.1,0.1-0.2,0.1-0.3,0.1h-2.1c-0.1,0-0.1-0.1-0.1-0.1v-0.4c0-0.1,0.1-0.1,0.1-0.1h2.1
					c0.1,0,0.2,0,0.3,0.1s0.1,0.1,0.1,0.2C54.6,137,54.6,137.1,54.5,137.1z"/>
				<path class="st3" d="M77,137.8v-0.5c0-0.1-0.1-0.1-0.1-0.1h-3v-0.6h2.9c0.1,0,0.1-0.1,0.1-0.1V136c0-0.1-0.1-0.1-0.1-0.1h-2.9
					v-0.6h2.9c0.1,0,0.1-0.1,0.1-0.1v-0.5c0-0.1-0.1-0.1-0.1-0.1h-3.8c-0.1,0-0.1,0.1-0.1,0.1v0.6l0,0v0.6l0,0v0.1v0.1l0,0v1.7
					c0,0.1,0.1,0.1,0.1,0.1h3.8C76.9,138,77,137.9,77,137.8z"/>
			</g>
		</g>
		<g>
			<path d="M63.6,124.7c-0.7-0.7-1.5-1.1-2.6-1.1h-6c0,0,0,0,0,0h-0.3c-1.2,0-1.3-1.8,0-1.8h8.5l2.1-2.6H54.6c-1.1,0-2,0.3-2.6,1
				c-0.4,0.4-0.7,1-0.9,1.5c0,0-0.3,1,0,1.8c0.1,0.7,0.4,1.2,0.9,1.8c0.7,0.7,1.5,1.1,2.6,1.1h6.3c0.3,0,0.5,0.1,0.7,0.3
				c0.2,0.2,0.3,0.4,0.3,0.7c0,0.3-0.1,0.5-0.3,0.7c-0.2,0.2-0.4,0.3-0.7,0.3H52l-0.8,2.6h9.8c1.1,0,2-0.4,2.7-1.1
				c0.7-0.8,1-1.6,1-2.7C64.7,126.3,64.3,125.4,63.6,124.7z"/>
			<path d="M107.6,119.2v2.6h-8.2c-1.2,0-2.3,0.7-2.9,1.7c-0.3,0.5-0.5,1.1-0.5,1.7c0,0.4,0.1,0.8,0.2,1.2l0,0
				c0.5,1.2,1.7,2.1,3.2,2.1h8.2v2.6h-8.2c-0.1,0-0.1,0-0.1,0l0,0c-2-0.1-3.7-1.1-4.8-2.6c-0.7-1-1.1-2.1-1.1-3.4l0,0
				c0-0.5,0.1-0.9,0.2-1.3l0,0c0.6-2.5,2.7-4.4,5.3-4.6l0,0c0.2,0,0.3,0,0.5,0H107.6L107.6,119.2z"/>
			<g>
				<rect x="78.6" y="119.2" width="14.1" height="2.6"/>
				<rect x="78.6" y="123.8" width="14.1" height="2.6"/>
				<rect x="78.6" y="128.5" width="14.1" height="2.6"/>
			</g>
			<g>
				<polygon points="77.9,119.2 77.9,121.8 77,121.8 76.9,121.8 72.1,121.8 69.2,121.8 69.2,121.8 64.8,121.8 63.8,121.8 
					65.9,119.2 69.3,119.2 				"/>
				<rect x="69.6" y="121.8" width="2.6" height="9.3"/>
			</g>
			<g>
				<g>
					<rect x="108.3" y="119.2" width="2.6" height="11.9"/>
					<rect x="119.9" y="119.2" width="2.6" height="11.9"/>
				</g>
				<polygon points="122.5,123.8 122.5,126.4 111.7,126.4 113.1,123.8 				"/>
			</g>
		</g>
	</g>
</g>
</svg>
