<?xml version="1.0" encoding="utf-8"?>
<!-- Generator: Adobe Illustrator 26.0.3, SVG Export Plug-In . SVG Version: 6.00 Build 0)  -->
<svg version="1.1" id="Layer_1" xmlns="http://www.w3.org/2000/svg" xmlns:xlink="http://www.w3.org/1999/xlink" x="0px" y="0px"
	 viewBox="0 0 173.5 166" style="enable-background:new 0 0 173.5 166;" xml:space="preserve">
<style type="text/css">
	.st0{fill:#FF8000;}
	.st1{fill:#FF4D1F;}
	.st2{fill:#1B325B;}
	.st3{fill:#FFBB00;}
	.st4{opacity:0.75;}
</style>
<g>
	<g>
		<path class="st0" d="M114,59.1c-4.2,0.6-8.1,2.1-11.8,4.2c-1.2,0.7-2.3,1.4-3.4,2.3c0,0-0.1,0.1-0.1,0.1
			c-2.9-2.9-6.9-4.7-11.4-4.7c-8.9,0-16.1,7.2-16.1,16.1v16.1H55.1V77c0-5.9,1.6-11.3,4.3-16.1c2.8-4.9,6.9-9,11.8-11.8
			c4.7-2.7,10.2-4.3,16.1-4.3s11.3,1.6,16.1,4.3C107.6,51.6,111.2,55.1,114,59.1z"/>
		<path class="st1" d="M71.2,28.8v20.4c-4.9,2.8-9,6.9-11.8,11.8c-2.7,4.7-4.3,10.2-4.3,16.1V28.8H71.2z"/>
		<path class="st2" d="M135.5,69c0,4.4-3.6,8-8,8c-4.4,0-8-3.6-8-8c0-3.5,2.2-6.5,5.4-7.6c0.8-0.3,1.7-0.4,2.7-0.4
			c2.8,0,5.2,1.4,6.7,3.6C135,65.8,135.5,67.3,135.5,69z"/>
		<path class="st3" d="M121,77h-1.7c-8.9,0-16.1,7.2-16.1,16.1H87.2c0-5.9,1.6-11.3,4.3-16.1c2.2-3.8,5.1-7,8.6-9.6
			c1-0.8,2.1-1.5,3.2-2.1c3.6-2.1,7.6-3.5,11.9-4c1.4-0.2,2.7-0.3,4.1-0.3h1.7c-2.4,1.9-3.9,4.9-3.9,8C117.2,72.2,118.7,75.1,121,77
			z"/>
	</g>
	<g>
		<g>
			<path class="st2" d="M50.3,114.3c-1-1.2-2.4-1.7-4.2-1.7h-9.5c0,0,0,0-0.1,0H36c-1.8,0-2-2.9,0-2.9h13.4l3.3-4H36.1
				c-1.7,0-3.1,0.5-4.1,1.6c-0.7,0.7-1.1,1.5-1.4,2.4c0,0-0.5,1.6-0.1,2.9c0.2,1,0.7,2,1.4,2.8c1,1.2,2.4,1.7,4.1,1.7h10
				c0.4,0,0.8,0.2,1,0.5c0.3,0.3,0.4,0.7,0.4,1.2c0,0.4-0.2,0.8-0.5,1.2c-0.3,0.3-0.7,0.5-1.1,0.5h-14l-1.3,4.1h15.5
				c1.7,0,3.1-0.6,4.2-1.8c1.1-1.2,1.6-2.6,1.6-4.2C51.9,116.8,51.4,115.5,50.3,114.3z"/>
			<path class="st2" d="M119.6,105.7v4.1h-12.9c-2,0-3.7,1.1-4.6,2.6c-0.5,0.8-0.7,1.7-0.7,2.7c0,0.7,0.1,1.3,0.4,1.9l0,0
				c0.8,2,2.7,3.4,5,3.4h12.8v4.1h-12.9c-0.1,0-0.1,0-0.2,0l0,0c-3.1-0.1-5.8-1.7-7.5-4.1c-1-1.5-1.7-3.3-1.7-5.3l0,0
				c0-0.7,0.1-1.4,0.2-2.1l0,0c0.9-3.9,4.2-6.9,8.3-7.2l0,0c0.3,0,0.5,0,0.8,0L119.6,105.7L119.6,105.7z"/>
			<g>
				<rect x="74" y="105.7" class="st2" width="22.3" height="4.1"/>
				<rect x="74" y="113" class="st2" width="22.3" height="4.1"/>
				<rect x="74" y="120.4" class="st2" width="22.3" height="4.1"/>
			</g>
			<g>
				<polygon class="st2" points="72.9,105.8 72.9,109.8 71.3,109.8 71.3,109.8 63.7,109.8 59,109.8 59,109.8 52.2,109.8 50.6,109.8 
					53.8,105.8 59.2,105.8 				"/>
				<rect x="59.7" y="109.8" class="st2" width="4.1" height="14.6"/>
			</g>
			<g>
				<g>
					<rect x="120.7" y="105.7" class="st2" width="4.1" height="18.8"/>
					<rect x="139" y="105.7" class="st2" width="4.1" height="18.8"/>
				</g>
				<polygon class="st2" points="143.1,113 143.1,117.1 126.1,117.1 128.3,113 				"/>
			</g>
		</g>
		<g class="st4">
			<path class="st2" d="M62.2,137.2l-5.4-4.7c-0.1-0.1-0.3-0.2-0.5-0.2c-0.4,0-0.8,0.3-0.8,0.8v4.1h-1.4V130h1.7l5.4,4.7
				c0.1,0.1,0.3,0.2,0.5,0.2c0.4,0,0.8-0.3,0.8-0.8V130h1.4v7.1C63.9,137.2,62.2,137.2,62.2,137.2z"/>
			<path class="st2" d="M130.1,137.2l-5.4-4.7c-0.1-0.1-0.3-0.2-0.5-0.2c-0.4,0-0.8,0.3-0.8,0.8v4.1h-1.4V130h1.7l5.4,4.7
				c0.1,0.1,0.3,0.2,0.5,0.2c0.4,0,0.8-0.3,0.8-0.8V130h1.4v7.1C131.8,137.2,130.1,137.2,130.1,137.2z"/>
			<path class="st2" d="M44.3,137.2c-0.8,0-1.5-0.2-2-0.7c-0.5-0.5-0.7-1-0.7-1.5v-2.7c0-0.6,0.2-1.1,0.7-1.5c0.5-0.5,1.1-0.7,2-0.7
				h5.1c0.8,0,1.5,0.2,2,0.7c0.5,0.4,0.7,0.9,0.7,1.5v2.7c0,0.6-0.2,1.1-0.7,1.5c-0.5,0.5-1.1,0.7-2,0.7L44.3,137.2
				C44.3,137.2,44.3,137.2,44.3,137.2z M44.9,130.9c-0.5,0-1,0.1-1.3,0.4c-0.3,0.3-0.5,0.7-0.5,1.2v2.1c0,0.5,0.2,0.9,0.6,1.2
				c0.4,0.3,0.8,0.4,1.3,0.4h3.9c0.5,0,1-0.2,1.3-0.4c0.4-0.3,0.5-0.7,0.5-1.2v-2c0-0.5-0.2-0.9-0.6-1.2c-0.3-0.3-0.8-0.4-1.3-0.4
				L44.9,130.9C44.9,130.9,44.9,130.9,44.9,130.9z"/>
			<path class="st2" d="M102.6,137.2v-5.5c0-0.4-0.3-0.7-0.7-0.7h-2.7V130h9.2v0.9h-3.6c-0.4,0-0.7,0.3-0.7,0.7v5.5H102.6z"/>
			<path class="st2" d="M137.4,137.2v-5.5c0-0.4-0.3-0.7-0.7-0.7h-2.7V130h9.2v0.9h-3.6c-0.4,0-0.7,0.3-0.7,0.7v5.5H137.4z"/>
			<path class="st2" d="M80.3,137.2c-0.8,0-1.5-0.2-2-0.7c-0.5-0.5-0.7-1-0.7-1.5V130H79v4.6c0,0.5,0.2,0.9,0.6,1.2
				c0.4,0.3,0.8,0.4,1.3,0.4h2.8c0.5,0,1-0.1,1.3-0.4c0.4-0.3,0.5-0.7,0.5-1.2V130h1.4v4.9c0,0.6-0.2,1.1-0.7,1.5
				c-0.5,0.5-1.1,0.7-2,0.7L80.3,137.2L80.3,137.2z"/>
			<path class="st2" d="M66.1,137.2l0-0.8h7.1c0.6,0,1.1-0.5,1.1-1.1c0-0.4-0.4-1.1-1.1-1.1H68c-0.4,0-2-0.4-2-2.1c0-1.1,0.9-2,2-2
				h7v0.9h-6.5c-0.5,0-1.1,0.4-1.1,1.2c0,0.6,0.5,1.1,1.1,1.2h5.2c1.1,0,1.9,0.9,1.9,2c0,0.4-0.4,1.8-2,1.8H66.1L66.1,137.2z"/>
			<path class="st2" d="M89,137.2V130h1.4v5.5c0,0.4,0.3,0.7,0.8,0.7H97v0.9L89,137.2L89,137.2z"/>
			<path class="st2" d="M33.1,137.2c-0.8,0-1.5-0.2-2-0.7c-0.5-0.5-0.7-1-0.7-1.5v-2.3c0-1.2,0.5-2.6,2.9-2.6h1.1v0l0.5,0l0.1,0h4.5
				v0.9h-5.9c-1.5,0-1.9,1.2-1.9,1.7v2c0,0.5,0.2,0.9,0.5,1.2c0.4,0.3,0.8,0.4,1.3,0.4h5.9v0.9L33.1,137.2L33.1,137.2z"/>
			<path class="st2" d="M118.3,137.2l-3.3-5.3c-0.1-0.2-0.4-0.4-0.6-0.4s-0.5,0.1-0.6,0.4l-3.3,5.3h-1.5l4.5-7.1h2l4.5,7.1
				C119.8,137.2,118.3,137.2,118.3,137.2z"/>
		</g>
	</g>
</g>
</svg>
