<?xml version="1.0" encoding="utf-8"?>
<!-- Generator: Adobe Illustrator 26.0.3, SVG Export Plug-In . SVG Version: 6.00 Build 0)  -->
<svg version="1.1" id="Layer_1" xmlns="http://www.w3.org/2000/svg" xmlns:xlink="http://www.w3.org/1999/xlink" x="0px" y="0px"
	 viewBox="0 0 513 166" style="enable-background:new 0 0 513 166;" xml:space="preserve">
<style type="text/css">
	.st0{fill:#FFFFFF;}
	.st1{fill:url(#SVGID_1_);}
	.st2{fill:#3E71FF;}
	.st3{fill:#0F0F72;}
</style>
<g>
	<rect x="-0.13" y="-0.45" class="st0" width="173.61" height="166.89"/>
	
		<linearGradient id="SVGID_1_" gradientUnits="userSpaceOnUse" x1="155.5762" y1="172.888" x2="510.367" y2="6.7874" gradientTransform="matrix(1 0 0 -1 0 168)">
		<stop  offset="0" style="stop-color:#00FFAD"/>
		<stop  offset="0.1466" style="stop-color:#00E3B7"/>
		<stop  offset="0.4631" style="stop-color:#009DD0"/>
		<stop  offset="0.9223" style="stop-color:#002DF8"/>
		<stop  offset="0.9995" style="stop-color:#0019FF"/>
	</linearGradient>
	<rect x="173.48" y="-0.45" class="st1" width="339.65" height="166.89"/>
	<g>
		<g>
			<path class="st0" d="M251.22,69.99l4.73,12.61l4.69-12.61h2.6l-6.15,15.62h-2.33l-6.16-15.62H251.22z"/>
			<path class="st0" d="M270.05,85.84c-0.91,0-1.72-0.16-2.44-0.47c-0.72-0.31-1.34-0.74-1.87-1.29c-0.53-0.55-0.93-1.17-1.22-1.88
				s-0.43-1.45-0.43-2.24c0-1.09,0.25-2.08,0.75-2.98c0.5-0.9,1.2-1.62,2.1-2.15c0.9-0.54,1.94-0.8,3.11-0.8
				c1.22,0,2.26,0.27,3.13,0.82c0.87,0.54,1.55,1.26,2.04,2.15s0.73,1.84,0.73,2.85c0,0.17-0.01,0.34-0.02,0.49
				s-0.03,0.27-0.04,0.36h-9.24c0.07,0.68,0.27,1.27,0.59,1.77s0.74,0.89,1.25,1.17c0.51,0.28,1.06,0.42,1.63,0.42
				c0.66,0,1.28-0.16,1.86-0.48c0.58-0.32,0.97-0.75,1.18-1.28l2.07,0.59c-0.25,0.56-0.63,1.06-1.14,1.51s-1.11,0.8-1.79,1.06
				C271.6,85.71,270.86,85.84,270.05,85.84z M266.6,79.1h6.95c-0.06-0.66-0.25-1.24-0.56-1.73c-0.32-0.49-0.73-0.87-1.24-1.15
				s-1.07-0.42-1.67-0.42c-0.62,0-1.18,0.14-1.68,0.42c-0.51,0.28-0.92,0.67-1.24,1.15C266.82,77.86,266.64,78.45,266.6,79.1z"/>
			<path class="st0" d="M283.14,85.84c-0.89,0-1.71-0.16-2.43-0.47c-0.73-0.31-1.35-0.75-1.88-1.31s-0.93-1.19-1.22-1.91
				c-0.29-0.71-0.43-1.46-0.43-2.24c0-1.08,0.24-2.06,0.73-2.95c0.48-0.89,1.18-1.61,2.08-2.14s1.95-0.8,3.16-0.8
				c1.17,0,2.2,0.26,3.07,0.78s1.52,1.21,1.95,2.08l-2.38,0.73c-0.26-0.47-0.63-0.84-1.1-1.11c-0.47-0.27-1-0.41-1.58-0.41
				c-0.65,0-1.23,0.16-1.75,0.49s-0.93,0.77-1.23,1.34s-0.45,1.23-0.45,1.99c0,0.74,0.15,1.4,0.46,1.97
				c0.31,0.58,0.73,1.04,1.25,1.38c0.53,0.34,1.11,0.51,1.74,0.51c0.4,0,0.78-0.07,1.14-0.21c0.37-0.14,0.69-0.33,0.98-0.58
				s0.49-0.51,0.61-0.79l2.35,0.73c-0.25,0.56-0.62,1.06-1.1,1.5s-1.06,0.79-1.74,1.04C284.69,85.71,283.95,85.84,283.14,85.84z"/>
			<path class="st0" d="M291.57,74.2l2.75,3.91l0.2,0.37l0.2-0.37l2.71-3.91h2.62l-4.14,5.7l4.18,5.72h-2.6l-2.77-3.89l-0.2-0.35
				l-0.18,0.35l-2.77,3.89h-2.62l4.18-5.7l-4.14-5.72H291.57z"/>
			<path class="st0" d="M299.99,82.28c0-0.73,0.21-1.36,0.63-1.91s1-0.97,1.74-1.26c0.74-0.3,1.59-0.45,2.54-0.45
				c0.51,0,1.03,0.04,1.56,0.12c0.53,0.08,1,0.2,1.43,0.34v-0.72c0-0.79-0.24-1.42-0.73-1.86c-0.48-0.45-1.18-0.67-2.09-0.67
				c-0.65,0-1.25,0.11-1.83,0.33c-0.57,0.22-1.18,0.55-1.83,0.99l-0.79-1.65c0.73-0.5,1.49-0.88,2.27-1.13
				c0.78-0.26,1.59-0.38,2.44-0.38c1.54,0,2.75,0.4,3.63,1.21s1.32,1.95,1.32,3.43v4.24c0,0.28,0.05,0.47,0.15,0.59
				c0.1,0.12,0.27,0.18,0.51,0.2v1.94c-0.22,0.04-0.42,0.07-0.58,0.09c-0.17,0.01-0.31,0.03-0.43,0.04
				c-0.53-0.01-0.92-0.15-1.19-0.4s-0.42-0.54-0.46-0.88l-0.07-0.66c-0.48,0.65-1.12,1.14-1.9,1.5c-0.79,0.35-1.57,0.53-2.37,0.53
				c-0.76,0-1.45-0.16-2.05-0.47s-1.07-0.74-1.41-1.28C300.16,83.55,299.99,82.96,299.99,82.28z M307.32,82.99
				c0.16-0.2,0.3-0.4,0.41-0.58c0.11-0.19,0.17-0.36,0.17-0.52v-1.28c-0.41-0.16-0.84-0.28-1.3-0.36s-0.89-0.12-1.32-0.12
				c-0.9,0-1.62,0.17-2.17,0.52c-0.55,0.35-0.82,0.82-0.82,1.43c0,0.33,0.09,0.65,0.27,0.94s0.45,0.54,0.79,0.74
				s0.77,0.29,1.27,0.29c0.54,0,1.06-0.1,1.54-0.31C306.64,83.53,307.02,83.28,307.32,82.99z"/>
			<path class="st0" d="M313.24,72.21v-2.66h2.42v2.66H313.24z M313.24,85.61V74.1h2.42v11.51H313.24z"/>
			<path class="st0" d="M328.88,85.61h-2.4v-6.37c0-1.07-0.18-1.85-0.53-2.34c-0.35-0.49-0.87-0.73-1.54-0.73
				c-0.47,0-0.93,0.12-1.4,0.36c-0.46,0.24-0.87,0.55-1.23,0.94s-0.63,0.84-0.8,1.36v6.78h-2.42V74.2h2.2v2.29
				c0.29-0.51,0.67-0.94,1.14-1.31s1-0.65,1.61-0.85c0.6-0.2,1.24-0.31,1.91-0.31c0.69,0,1.26,0.12,1.72,0.37
				c0.45,0.25,0.81,0.59,1.06,1.01c0.25,0.43,0.43,0.92,0.53,1.48s0.15,1.15,0.15,1.78V85.61z"/>
			<path class="st0" d="M336.53,77.98c0-1.48,0.31-2.95,0.92-4.41c0.62-1.46,1.37-2.94,2.27-4.46l1.85,0.79
				c-0.26,0.4-0.55,0.9-0.87,1.52s-0.62,1.3-0.92,2.05s-0.54,1.51-0.73,2.3c-0.18,0.79-0.28,1.54-0.28,2.28
				c0,1.19,0.25,2.43,0.75,3.73s1.16,2.62,1.98,3.97l-1.76,0.92c-0.63-0.92-1.18-1.87-1.66-2.84c-0.48-0.97-0.85-1.94-1.13-2.93
				C336.67,79.92,336.53,78.95,336.53,77.98z"/>
			<path class="st0" d="M343.95,85.61V69.99h6.56c0.7,0,1.35,0.15,1.94,0.44s1.1,0.68,1.54,1.17s0.78,1.03,1.01,1.64
				s0.35,1.22,0.35,1.84c0,0.87-0.19,1.69-0.58,2.46c-0.39,0.78-0.94,1.41-1.64,1.9c-0.7,0.49-1.53,0.74-2.49,0.74h-4.2v5.43
				L343.95,85.61L343.95,85.61z M346.43,78.01h4.05c0.45,0,0.86-0.13,1.21-0.39c0.35-0.26,0.63-0.61,0.84-1.06s0.31-0.95,0.31-1.51
				c0-0.57-0.12-1.07-0.35-1.51s-0.54-0.77-0.91-1.01s-0.77-0.36-1.2-0.36h-3.94v5.84H346.43z"/>
			<path class="st0" d="M360.53,85.61l-4.36-11.42h2.51l3.26,9.19l3.3-9.19h2.31l-4.36,11.42H360.53z"/>
			<path class="st0" d="M375.71,85.07c-0.19,0.09-0.45,0.19-0.77,0.32c-0.32,0.12-0.67,0.23-1.06,0.32
				c-0.38,0.09-0.78,0.13-1.19,0.13c-0.5,0-0.96-0.09-1.39-0.27s-0.77-0.46-1.02-0.84c-0.26-0.38-0.38-0.87-0.38-1.47v-7.18h-1.54
				v-1.87h1.54v-3.78h2.42v3.78h2.51v1.87h-2.51v6.39c0.03,0.39,0.16,0.69,0.38,0.88s0.51,0.28,0.85,0.28
				c0.34,0,0.66-0.06,0.98-0.19c0.32-0.12,0.53-0.22,0.65-0.28L375.71,85.07z"/>
			<path class="st0" d="M381.59,77.98c0,0.97-0.14,1.94-0.42,2.93c-0.28,0.98-0.66,1.96-1.14,2.93c-0.48,0.97-1.03,1.91-1.65,2.84
				l-1.78-0.92c0.82-1.35,1.48-2.67,1.98-3.97s0.75-2.54,0.75-3.73c0-0.73-0.09-1.49-0.27-2.28c-0.18-0.78-0.43-1.55-0.73-2.3
				s-0.61-1.43-0.92-2.05c-0.32-0.62-0.6-1.12-0.85-1.52l1.87-0.79c0.88,1.51,1.63,3,2.24,4.46
				C381.28,75.03,381.59,76.49,381.59,77.98z"/>
			<path class="st0" d="M389.64,85.61V69.99h2.49v13.44h8.36v2.18H389.64z"/>
			<path class="st0" d="M408.58,85.07c-0.19,0.09-0.45,0.19-0.77,0.32c-0.32,0.12-0.67,0.23-1.06,0.32
				c-0.38,0.09-0.78,0.13-1.19,0.13c-0.5,0-0.96-0.09-1.39-0.27s-0.77-0.46-1.02-0.84c-0.26-0.38-0.38-0.87-0.38-1.47v-7.18h-1.54
				v-1.87h1.54v-3.78h2.42v3.78h2.51v1.87h-2.51v6.39c0.03,0.39,0.16,0.69,0.38,0.88s0.51,0.28,0.85,0.28s0.66-0.06,0.98-0.19
				c0.32-0.12,0.53-0.22,0.65-0.28L408.58,85.07z"/>
			<path class="st0" d="M409.53,79.92c0-1.09,0.22-2.08,0.67-2.98c0.45-0.89,1.06-1.61,1.84-2.14c0.78-0.53,1.67-0.8,2.68-0.8
				c0.89,0,1.7,0.23,2.41,0.68c0.71,0.46,1.26,1.01,1.64,1.67v-6.82h2.42v13.33c0,0.26,0.05,0.46,0.15,0.58s0.27,0.19,0.51,0.21
				v1.94c-0.44,0.07-0.79,0.12-1.06,0.13c-0.46,0-0.84-0.13-1.14-0.41c-0.31-0.27-0.48-0.59-0.51-0.96l-0.02-0.84
				c-0.46,0.72-1.05,1.28-1.79,1.68c-0.74,0.4-1.51,0.61-2.32,0.61c-0.79,0-1.52-0.16-2.19-0.47c-0.67-0.31-1.25-0.74-1.74-1.29
				c-0.49-0.54-0.87-1.17-1.14-1.88C409.66,81.51,409.53,80.74,409.53,79.92z M418.77,81.52v-2.97c-0.16-0.46-0.42-0.87-0.78-1.24
				c-0.36-0.36-0.76-0.66-1.21-0.88c-0.45-0.22-0.9-0.34-1.35-0.34c-0.5,0-0.96,0.11-1.38,0.33s-0.78,0.5-1.08,0.86
				c-0.3,0.35-0.53,0.77-0.69,1.24c-0.16,0.47-0.24,0.96-0.24,1.46c0,0.51,0.09,0.99,0.26,1.45c0.18,0.46,0.43,0.87,0.76,1.23
				c0.33,0.35,0.71,0.63,1.14,0.82c0.43,0.2,0.91,0.29,1.42,0.29c0.32,0,0.65-0.05,0.98-0.16s0.64-0.26,0.94-0.47
				c0.29-0.2,0.55-0.44,0.77-0.73S418.68,81.83,418.77,81.52z"/>
		</g>
	</g>
	<g>
		<g>
			<path class="st2" d="M94.47,83.29L94.47,83.29l-0.77,1.04l-1.4,1.88l-1.8,2.43l-0.57,0.76l-2.11,2.85c-1.71,2.3-5.14,2.3-6.85,0
				l-0.63-0.85l-2.05-2.76l-0.02-0.03l-2.05-2.75l-1.9-2.55l-6.97-9.38c0.85-0.36,1.76-0.54,2.7-0.54c5.16,0,9.36-4.2,9.36-9.36
				c0-0.35-0.02-0.7-0.06-1.04l5.03,6.77l1.84,2.48l0,0l0,0l8.02,10.8l0,0L94.47,83.29z"/>
			<path class="st3" d="M117.94,51.71c-4.21,5.66-10.97,14.77-15.24,20.52l0,0l-7.71,10.39c-0.12,0.16-0.39,0.52-0.51,0.68
				l-0.2-0.27l0,0l-8.02-10.8l0,0l-1.84-2.48c3.06-4.11,8.71-11.73,12.25-16.5c0.72-0.97,1.86-1.54,3.07-1.54L117.94,51.71
				L117.94,51.71z"/>
			<path class="st2" d="M78.28,64.02c0,4.53-3.68,8.21-8.21,8.21c-1.22,0-2.37,0.26-3.41,0.74c-0.36,0.16-0.7,0.35-1.02,0.56
				c-2.03,1.31-3.45,3.49-3.72,6.02l-0.05,0.04V64.11c0-3.13,1.83-6.07,4.63-7.46c3.3-1.63,7.22-0.73,9.67,1.95
				c0.72,0.79,1.3,1.71,1.65,2.71C78.12,62.17,78.28,63.09,78.28,64.02z"/>
		</g>
		<g>
			<path class="st3" d="M122.29,108.9h-1.97c-0.08,0-0.15-0.03-0.2-0.08l-5.61-4.92c-0.2-0.18-0.51-0.03-0.51,0.23v4.45
				c0,0.17-0.14,0.31-0.31,0.31h-1.77c-0.17,0-0.31-0.14-0.31-0.31v-7.73c0-0.17,0.14-0.31,0.31-0.31h1.97
				c0.08,0,0.15,0.03,0.2,0.08l5.6,4.93c0.2,0.18,0.51,0.03,0.51-0.23v-4.47c0-0.17,0.14-0.31,0.31-0.31h1.78
				c0.17,0,0.31,0.14,0.31,0.31v7.73C122.6,108.76,122.46,108.9,122.29,108.9z"/>
			<path class="st3" d="M55.8,100.54h1.96c0.24,0,0.39,0.26,0.27,0.46l-4.48,7.73c-0.06,0.1-0.16,0.15-0.27,0.15H51
				c-0.11,0-0.21-0.06-0.27-0.15l-4.48-7.73c-0.12-0.21,0.03-0.46,0.27-0.46h2.03c0.11,0,0.22,0.06,0.27,0.16l3.08,5.53
				c0.12,0.21,0.42,0.21,0.54,0l3.08-5.53C55.59,100.6,55.69,100.54,55.8,100.54z"/>
			<path class="st3" d="M89.7,104.76l3.69,3.6c0.2,0.19,0.06,0.53-0.22,0.53h-2.42c-0.08,0-0.16-0.03-0.22-0.09l-2.93-2.92
				c-0.12-0.12-0.32-0.12-0.44,0l-2.89,2.92c-0.06,0.06-0.14,0.09-0.22,0.09h-2.43c-0.28,0-0.41-0.34-0.22-0.53l3.69-3.6
				c0.12-0.12,0.12-0.32,0-0.44l-3.24-3.25c-0.19-0.2-0.06-0.53,0.22-0.53h2.46c0.09,0,0.17,0.04,0.23,0.1l2.39,2.55
				c0.12,0.13,0.33,0.13,0.45,0l2.44-2.56c0.06-0.06,0.14-0.1,0.22-0.1h2.45c0.28,0,0.41,0.33,0.22,0.53l-3.24,3.25
				C89.58,104.45,89.58,104.64,89.7,104.76z"/>
			<path class="st3" d="M110.4,100.85v7.73c0,0.17-0.14,0.31-0.31,0.31h-1.75c-0.17,0-0.31-0.14-0.31-0.31v-7.73
				c0-0.17,0.14-0.31,0.31-0.31h1.75C110.26,100.54,110.4,100.68,110.4,100.85z"/>
			<path class="st3" d="M72.97,106.66c-0.27-0.23-0.41-0.53-0.41-0.91v-0.78v-0.41l0,0v-0.85c0,0,0.02-1.3,1.48-1.31h6.23
				c0.17,0,0.31-0.14,0.31-0.31l0.01-1.24c0-0.17-0.14-0.31-0.31-0.31h-4.86c-0.06,0-0.11,0.01-0.16,0.01v-0.01h-1.58
				c-2.91,0-3.5,1.88-3.5,3.16v0.13l0,0v1.01v0.4l0,0v0.87c0,0.73,0.29,1.37,0.87,1.94c0.6,0.56,1.38,0.84,2.35,0.84h6.88
				c0.17,0,0.31-0.14,0.31-0.31l-0.01-1.27c0-0.17-0.14-0.31-0.31-0.31H74C73.59,107.01,73.24,106.89,72.97,106.66z"/>
			<path class="st3" d="M68.98,108.59v-1.24c0-0.17-0.14-0.31-0.31-0.31h-7.06v-1.5h7.06c0.17,0,0.31-0.14,0.31-0.31v-1.08
				c0-0.17-0.14-0.31-0.31-0.31h-7.06v-1.44h7.05c0.17,0,0.31-0.14,0.31-0.31v-1.24c0-0.17-0.14-0.31-0.31-0.31h-9.12
				c-0.17,0-0.31,0.14-0.31,0.31v1.55l0,0v1.44l0,0v0.27v0.35l0,0v4.12c0,0.17,0.14,0.31,0.31,0.31h9.12
				C68.84,108.9,68.98,108.76,68.98,108.59z"/>
			<g>
				<path class="st3" d="M101.66,100.54h-2.29c-0.11,0-0.21,0.06-0.26,0.15l-4.82,7.73c-0.13,0.21,0.02,0.47,0.26,0.47h1.96
					c0.11,0,0.21-0.06,0.26-0.15l0.67-1.08l0.95-1.54l1.83-2.98c0.12-0.2,0.41-0.2,0.53,0l1.84,2.98l0.95,1.54l0.66,1.08
					c0.06,0.09,0.16,0.15,0.26,0.15h2.02c0.24,0,0.39-0.27,0.26-0.47l-4.82-7.73C101.87,100.59,101.77,100.54,101.66,100.54z"/>
				<polygon class="st3" points="97.44,107.66 102.82,107.66 101.65,105.71 98.64,105.71 				"/>
			</g>
		</g>
	</g>
</g>
</svg>
