<?xml version="1.0" encoding="utf-8"?>
<!-- Generator: Adobe Illustrator 26.0.3, SVG Export Plug-In . SVG Version: 6.00 Build 0)  -->
<svg version="1.1" id="Layer_1" xmlns="http://www.w3.org/2000/svg" xmlns:xlink="http://www.w3.org/1999/xlink" x="0px" y="0px"
	 viewBox="0 0 173.48 166" style="enable-background:new 0 0 173.48 166;" xml:space="preserve">
<style type="text/css">
	.st0{fill:#3E71FF;}
	.st1{fill:#0F0F72;}
</style>
<g>
	<g>
		<path class="st0" d="M101.96,87.51L101.96,87.51l-1.16,1.57l-2.12,2.84l-2.72,3.67l-0.86,1.15l-3.19,4.31
			c-2.59,3.48-7.77,3.48-10.36,0l-0.95-1.29l-3.1-4.17l-0.03-0.05l-3.1-4.16l-2.87-3.86L60.96,73.36c1.29-0.54,2.66-0.82,4.08-0.82
			c7.8,0,14.15-6.35,14.15-14.15c0-0.53-0.03-1.06-0.09-1.57l7.6,10.24l2.78,3.75l0,0l0,0l12.13,16.33l0,0L101.96,87.51z"/>
		<path class="st1" d="M137.44,39.77c-6.37,8.56-16.59,22.33-23.04,31.02l0,0L102.74,86.5c-0.18,0.24-0.59,0.79-0.77,1.03l-0.3-0.41
			l0,0L89.55,70.79l0,0l-2.78-3.75c4.63-6.21,13.17-17.73,18.52-24.95c1.09-1.47,2.81-2.33,4.64-2.33L137.44,39.77L137.44,39.77z"/>
		<path class="st0" d="M77.48,58.38c0,6.85-5.56,12.41-12.41,12.41c-1.84,0-3.58,0.39-5.16,1.12c-0.54,0.24-1.06,0.53-1.54,0.85
			c-3.07,1.98-5.22,5.28-5.62,9.1l-0.08,0.06v-23.4c0-4.73,2.77-9.18,7-11.28c4.99-2.46,10.92-1.1,14.62,2.95
			c1.09,1.19,1.97,2.59,2.49,4.1C77.24,55.58,77.48,56.97,77.48,58.38z"/>
	</g>
	<g>
		<path class="st1" d="M144.02,126.23h-2.98c-0.12,0-0.23-0.05-0.3-0.12l-8.48-7.44c-0.3-0.27-0.77-0.05-0.77,0.35v6.73
			c0,0.26-0.21,0.47-0.47,0.47h-2.68c-0.26,0-0.47-0.21-0.47-0.47v-11.69c0-0.26,0.21-0.47,0.47-0.47h2.98
			c0.12,0,0.23,0.05,0.3,0.12l8.47,7.45c0.3,0.27,0.77,0.05,0.77-0.35v-6.76c0-0.26,0.21-0.47,0.47-0.47h2.69
			c0.26,0,0.47,0.21,0.47,0.47v11.69C144.49,126.02,144.28,126.23,144.02,126.23z"/>
		<path class="st1" d="M43.49,113.59h2.96c0.36,0,0.59,0.39,0.41,0.7l-6.77,11.69c-0.09,0.15-0.24,0.23-0.41,0.23h-3.45
			c-0.17,0-0.32-0.09-0.41-0.23l-6.77-11.69c-0.18-0.32,0.05-0.7,0.41-0.7h3.07c0.17,0,0.33,0.09,0.41,0.24l4.66,8.36
			c0.18,0.32,0.63,0.32,0.82,0l4.66-8.36C43.18,113.68,43.33,113.59,43.49,113.59z"/>
		<path class="st1" d="M94.75,119.97l5.58,5.44c0.3,0.29,0.09,0.8-0.33,0.8h-3.66c-0.12,0-0.24-0.05-0.33-0.14l-4.43-4.41
			c-0.18-0.18-0.48-0.18-0.67,0l-4.37,4.41c-0.09,0.09-0.21,0.14-0.33,0.14h-3.67c-0.42,0-0.62-0.51-0.33-0.8l5.58-5.44
			c0.18-0.18,0.18-0.48,0-0.67l-4.9-4.91c-0.29-0.3-0.09-0.8,0.33-0.8h3.72c0.14,0,0.26,0.06,0.35,0.15l3.61,3.86
			c0.18,0.2,0.5,0.2,0.68,0l3.69-3.87c0.09-0.09,0.21-0.15,0.33-0.15h3.7c0.42,0,0.62,0.5,0.33,0.8l-4.9,4.91
			C94.57,119.5,94.57,119.79,94.75,119.97z"/>
		<path class="st1" d="M126.04,114.06v11.69c0,0.26-0.21,0.47-0.47,0.47h-2.65c-0.26,0-0.47-0.21-0.47-0.47v-11.69
			c0-0.26,0.21-0.47,0.47-0.47h2.65C125.83,113.59,126.04,113.8,126.04,114.06z"/>
		<path class="st1" d="M69.45,122.85c-0.41-0.35-0.62-0.8-0.62-1.38v-1.18v-0.62l0,0v-1.29c0,0,0.03-1.97,2.24-1.98h9.42
			c0.26,0,0.47-0.21,0.47-0.47l0.02-1.87c0-0.26-0.21-0.47-0.47-0.47h-7.35c-0.09,0-0.17,0.02-0.24,0.02v-0.02h-2.39
			c-4.4,0-5.29,2.84-5.29,4.78v0.2l0,0v1.53v0.6l0,0v1.32c0,1.1,0.44,2.07,1.32,2.93c0.91,0.85,2.09,1.27,3.55,1.27h10.4
			c0.26,0,0.47-0.21,0.47-0.47l-0.02-1.92c0-0.26-0.21-0.47-0.47-0.47h-9.48C70.39,123.37,69.86,123.19,69.45,122.85z"/>
		<path class="st1" d="M63.42,125.76v-1.87c0-0.26-0.21-0.47-0.47-0.47H52.28v-2.27h10.67c0.26,0,0.47-0.21,0.47-0.47v-1.63
			c0-0.26-0.21-0.47-0.47-0.47H52.28v-2.18h10.66c0.26,0,0.47-0.21,0.47-0.47v-1.87c0-0.26-0.21-0.47-0.47-0.47H49.15
			c-0.26,0-0.47,0.21-0.47,0.47v2.34l0,0v2.18l0,0v0.41v0.53l0,0v6.23c0,0.26,0.21,0.47,0.47,0.47h13.79
			C63.21,126.23,63.42,126.02,63.42,125.76z"/>
		<g>
			<path class="st1" d="M112.83,113.59h-3.46c-0.17,0-0.32,0.09-0.39,0.23l-7.29,11.69c-0.2,0.32,0.03,0.71,0.39,0.71h2.96
				c0.17,0,0.32-0.09,0.39-0.23l1.01-1.63l1.44-2.33l2.77-4.51c0.18-0.3,0.62-0.3,0.8,0l2.78,4.51l1.44,2.33l1,1.63
				c0.09,0.14,0.24,0.23,0.39,0.23h3.05c0.36,0,0.59-0.41,0.39-0.71l-7.29-11.69C113.15,113.67,113,113.59,112.83,113.59z"/>
			<polygon class="st1" points="106.45,124.36 114.58,124.36 112.81,121.41 108.26,121.41 			"/>
		</g>
	</g>
</g>
</svg>
