<svg width="79" height="142" viewBox="0 0 79 142" fill="none" xmlns="http://www.w3.org/2000/svg">
<path d="M47.8335 31.166V59.6382C47.8335 59.6382 41.6657 60.9895 35.4399 66.0215L31.071 70.2619V47.9326L47.8335 31.166Z" fill="url(#paint0_linear_291_1996)"/>
<path d="M79 0V70.2623C79 70.2623 73.8643 62.2541 62.0344 59.3484C62.1173 59.2034 62.0344 51.9744 62.0344 51.9744V16.9656L79 0Z" fill="url(#paint1_linear_291_1996)"/>
<path d="M78.9171 86.9469V96.7623L61.9142 113.765V100.082L61.8976 86.9469C61.9142 83.1086 58.7889 79.9874 54.9506 79.9874C51.1123 79.9874 47.9869 83.1127 47.9869 86.9469V117.881C47.9869 123.817 45.8232 129.255 42.2336 133.45C41.4212 134.399 40.5383 135.286 39.585 136.099C35.3985 139.684 29.9602 141.852 24.0163 141.852C22.7852 141.852 21.5956 141.752 20.4184 141.595C15.2495 140.807 10.6071 138.358 7.06726 134.83C3.74295 131.493 1.39272 127.195 0.460091 122.395C0.402061 122.093 0.360622 121.782 0.302591 121.479C0.132645 120.306 0.0455892 119.1 0.0455892 117.881V98.7271L0 98.7685L0.0165836 98.7271V78.9843L17.036 61.9648V71.4942L17.0526 71.4777V117.881C17.0526 121.719 20.1738 124.828 23.9997 124.828C27.8504 124.828 30.9758 121.719 30.9758 117.881V86.9469C30.9758 83.0381 31.9084 79.3574 33.5664 76.1035C35.9166 71.4901 39.6969 67.7513 44.3393 65.4591C46.6605 64.2985 49.1973 63.5109 51.875 63.1669C52.8781 63.0384 53.8936 62.9679 54.9423 62.9679C55.9578 62.9679 56.9733 63.0425 57.9806 63.1669C58.1671 63.1835 58.3536 63.2084 58.536 63.2374C63.709 64.0249 68.3348 66.4622 71.8747 70.002C75.4145 73.5419 77.8643 78.1843 78.6394 83.3573C78.83 84.5262 78.9171 85.7282 78.9171 86.9469Z" fill="url(#paint2_linear_291_1996)"/>
<path d="M47.8309 31.1641V59.6347C47.8309 59.6347 41.6635 60.9859 35.438 66.0177L31.0693 70.2579V47.9298L47.8309 31.1641Z" fill="#00FFAD"/>
<path d="M79.0001 0V70.2586C79.0001 70.2586 73.8647 62.2508 62.0354 59.3453C62.1183 59.2003 62.0354 51.9717 62.0354 51.9717V16.9647L79.0001 0Z" fill="#00FFAD"/>
<path d="M78.9129 86.9417V96.7566L61.9109 113.759V100.077L61.8944 86.9417C61.9109 83.1036 58.7858 79.9825 54.9477 79.9825C51.1096 79.9825 47.9844 83.1077 47.9844 86.9417V117.874C47.9844 123.81 45.8208 129.248 42.2314 133.442C41.419 134.391 40.5362 135.278 39.5829 136.091C35.3966 139.676 29.9587 141.844 24.015 141.844C22.784 141.844 21.5944 141.744 20.4173 141.587C15.2487 140.799 10.6066 138.35 7.06689 134.822C3.74275 131.486 1.39265 127.188 0.460067 122.388C0.40204 122.085 0.36059 121.775 0.302563 121.472C0.132626 120.299 0.0455868 119.093 0.0455868 117.874V98.7212L0 98.7627L0.0165701 98.7212V78.9795L17.0351 61.9609V71.4898L17.0517 71.4733V117.874C17.0517 121.712 20.1728 124.821 23.9984 124.821C27.8489 124.821 30.9741 121.712 30.9741 117.874V86.9417C30.9741 83.0331 31.9067 79.3525 33.5646 76.0989C35.9147 71.4857 39.6948 67.7471 44.337 65.455C46.6581 64.2945 49.1947 63.5069 51.8722 63.1629C52.8753 63.0344 53.8908 62.964 54.9394 62.964C55.9549 62.964 56.9703 63.0386 57.9775 63.1629C58.1641 63.1795 58.3506 63.2044 58.5329 63.2334C63.7056 64.0209 68.3312 66.4581 71.8709 69.9977C75.4106 73.5374 77.8602 78.1796 78.6352 83.3523C78.83 84.5211 78.9129 85.7231 78.9129 86.9417Z" fill="#00FFAD"/>
<defs>
<linearGradient id="paint0_linear_291_1996" x1="39.6349" y1="30.1763" x2="38.7941" y2="138.226" gradientUnits="userSpaceOnUse">
<stop stop-color="#00FFAD"/>
<stop offset="0.1466" stop-color="#00E3B7"/>
<stop offset="0.4631" stop-color="#009DD0"/>
<stop offset="0.9223" stop-color="#002DF8"/>
<stop offset="0.9995" stop-color="#0019FF"/>
</linearGradient>
<linearGradient id="paint1_linear_291_1996" x1="70.621" y1="30.4178" x2="69.7802" y2="138.468" gradientUnits="userSpaceOnUse">
<stop stop-color="#00FFAD"/>
<stop offset="0.1466" stop-color="#00E3B7"/>
<stop offset="0.4631" stop-color="#009DD0"/>
<stop offset="0.9223" stop-color="#002DF8"/>
<stop offset="0.9995" stop-color="#0019FF"/>
</linearGradient>
<linearGradient id="paint2_linear_291_1996" x1="39.9178" y1="30.1798" x2="39.0769" y2="138.23" gradientUnits="userSpaceOnUse">
<stop stop-color="#00FFAD"/>
<stop offset="0.1466" stop-color="#00E3B7"/>
<stop offset="0.4631" stop-color="#009DD0"/>
<stop offset="0.9223" stop-color="#002DF8"/>
<stop offset="0.9995" stop-color="#0019FF"/>
</linearGradient>
</defs>
</svg>
