<svg width="112" height="200" viewBox="0 0 112 200" fill="none" xmlns="http://www.w3.org/2000/svg">
<path d="M67.7463 43.9414V84.0852C67.7463 84.0852 59.0501 85.9904 50.2722 93.0852L44.1124 99.0638V67.5812L67.7463 43.9414Z" fill="#00FFAD"/>
<path d="M111.695 0V99.0649C111.695 99.0649 104.454 87.774 87.775 83.6772C87.8918 83.4726 87.775 73.2803 87.775 73.2803V23.9203L111.695 0Z" fill="#00FFAD"/>
<path d="M111.572 122.586V136.425L87.5994 160.398V141.106L87.576 122.586C87.5994 117.174 83.1929 112.774 77.7812 112.774C72.3695 112.774 67.9629 117.18 67.9629 122.586V166.201C67.9629 174.57 64.9123 182.238 59.8512 188.152C58.7058 189.491 57.461 190.741 56.1168 191.887C50.2142 196.942 42.5466 199.998 34.166 199.998C32.4303 199.998 30.753 199.858 29.0932 199.636C21.8055 198.526 15.26 195.072 10.2691 190.098C5.58205 185.394 2.26839 179.333 0.953445 172.566C0.871627 172.139 0.813182 171.701 0.731363 171.274C0.491751 169.62 0.369026 167.92 0.369026 166.201V139.195L0.304749 139.254L0.328112 139.195V111.36L24.3244 87.3633V100.799L24.3478 100.776V166.201C24.3478 171.613 28.7484 175.996 34.1426 175.996C39.5719 175.996 43.9784 171.613 43.9784 166.201V122.586C43.9784 117.075 45.2933 111.886 47.631 107.298C50.9447 100.793 56.2746 95.5218 62.8201 92.2899C66.0928 90.6536 69.6694 89.5431 73.4448 89.0581C74.8591 88.8769 76.2909 88.7776 77.7695 88.7776C79.2013 88.7776 80.6332 88.8828 82.0533 89.0581C82.3163 89.0815 82.5793 89.1165 82.8364 89.1575C90.13 90.2678 96.6521 93.7042 101.643 98.6952C106.634 103.686 110.088 110.232 111.181 117.525C111.455 119.173 111.572 120.868 111.572 122.586Z" fill="#00FFAD"/>
</svg>
