<svg width="30" height="53" viewBox="0 0 30 53" fill="none" xmlns="http://www.w3.org/2000/svg">
<path d="M18.3216 11.6113V22.2195C18.3216 22.2195 16.0236 22.723 13.7039 24.5978L12.0762 26.1777V17.8583L18.3216 11.6113Z" fill="url(#paint0_linear_291_8601)"/>
<path d="M29.9343 0V26.1784C29.9343 26.1784 28.0209 23.1947 23.6133 22.1121C23.6442 22.0581 23.6133 19.3647 23.6133 19.3647V6.32106L29.9343 0Z" fill="url(#paint1_linear_291_8601)"/>
<path d="M29.903 32.3938V36.0508L23.5681 42.3858V37.2878L23.5619 32.3938C23.5681 30.9637 22.4036 29.8008 20.9736 29.8008C19.5435 29.8008 18.379 30.9652 18.379 32.3938V43.9193C18.379 46.1308 17.5729 48.157 16.2355 49.7199C15.9328 50.0736 15.6038 50.4041 15.2486 50.7068C13.6888 52.0426 11.6626 52.8503 9.44801 52.8503C8.98934 52.8503 8.54611 52.8133 8.10751 52.7546C6.1817 52.4612 4.45201 51.5485 3.13313 50.2342C1.89455 48.991 1.0189 47.3895 0.671422 45.6011C0.6498 45.4884 0.634361 45.3726 0.61274 45.2598C0.549421 44.8228 0.516986 44.3734 0.516986 43.9193V36.7829L0.5 36.7983L0.506179 36.7829V29.4271L6.84731 23.0859V26.6364L6.85349 26.6302V43.9193C6.85349 45.3494 8.01639 46.5077 9.44183 46.5077C10.8765 46.5077 12.041 45.3494 12.041 43.9193V32.3938C12.041 30.9374 12.3885 29.5661 13.0062 28.3537C13.8819 26.6349 15.2903 25.2419 17.02 24.3878C17.8848 23.9554 18.83 23.662 19.8276 23.5338C20.2014 23.4859 20.5797 23.4597 20.9705 23.4597C21.3488 23.4597 21.7272 23.4875 22.1025 23.5338C22.172 23.54 22.2415 23.5492 22.3094 23.5601C24.2368 23.8535 25.9603 24.7616 27.2792 26.0805C28.5981 27.3993 29.5108 29.129 29.7996 31.0564C29.8706 31.4919 29.903 31.9397 29.903 32.3938Z" fill="url(#paint2_linear_291_8601)"/>
<path d="M18.3212 11.6113V22.219C18.3212 22.219 16.0234 22.7224 13.7038 24.5972L12.0762 26.1769V17.8579L18.3212 11.6113Z" fill="#00FFAD"/>
<path d="M29.934 0V26.177C29.934 26.177 28.0206 23.1935 23.6133 22.111C23.6442 22.0569 23.6133 19.3637 23.6133 19.3637V6.32072L29.934 0Z" fill="#00FFAD"/>
<path d="M29.9015 32.3933V36.0501L23.5669 42.3848V37.2871L23.5607 32.3933C23.5669 30.9633 22.4025 29.8005 20.9725 29.8005C19.5425 29.8005 18.3781 30.9648 18.3781 32.3933V43.9182C18.3781 46.1296 17.572 48.1557 16.2346 49.7185C15.932 50.0722 15.603 50.4027 15.2478 50.7053C13.6881 52.0411 11.662 52.8488 9.44754 52.8488C8.98889 52.8488 8.54568 52.8117 8.10711 52.753C6.1814 52.4596 4.4518 51.547 3.13299 50.2328C1.89448 48.9896 1.01887 47.3882 0.671412 45.5999C0.649793 45.4872 0.634349 45.3714 0.612729 45.2587C0.549414 44.8216 0.516985 44.3722 0.516985 43.9182V36.7821L0.5 36.7976L0.506174 36.7821V29.4267L6.84697 23.0859V26.6362L6.85316 26.6301V43.9182C6.85316 45.3482 8.01599 46.5064 9.44136 46.5064C10.876 46.5064 12.0404 45.3482 12.0404 43.9182V32.3933C12.0404 30.937 12.3878 29.5657 13.0056 28.3535C13.8812 26.6347 15.2895 25.2417 17.0191 24.3878C17.8839 23.9554 18.829 23.6619 19.8266 23.5338C20.2003 23.4859 20.5787 23.4596 20.9694 23.4596C21.3477 23.4596 21.7261 23.4874 22.1013 23.5338C22.1708 23.5399 22.2403 23.5492 22.3083 23.56C24.2355 23.8534 25.9589 24.7615 27.2778 26.0803C28.5966 27.3991 29.5092 29.1287 29.798 31.0559C29.8706 31.4914 29.9015 31.9393 29.9015 32.3933Z" fill="#00FFAD"/>
<defs>
<linearGradient id="paint0_linear_291_8601" x1="15.2669" y1="11.2426" x2="14.9536" y2="51.4999" gradientUnits="userSpaceOnUse">
<stop stop-color="#00FFAD"/>
<stop offset="0.1466" stop-color="#00E3B7"/>
<stop offset="0.4631" stop-color="#009DD0"/>
<stop offset="0.9223" stop-color="#002DF8"/>
<stop offset="0.9995" stop-color="#0019FF"/>
</linearGradient>
<linearGradient id="paint1_linear_291_8601" x1="26.8125" y1="11.3331" x2="26.4992" y2="51.5905" gradientUnits="userSpaceOnUse">
<stop stop-color="#00FFAD"/>
<stop offset="0.1466" stop-color="#00E3B7"/>
<stop offset="0.4631" stop-color="#009DD0"/>
<stop offset="0.9223" stop-color="#002DF8"/>
<stop offset="0.9995" stop-color="#0019FF"/>
</linearGradient>
<linearGradient id="paint2_linear_291_8601" x1="15.3726" y1="11.2434" x2="15.0593" y2="51.5008" gradientUnits="userSpaceOnUse">
<stop stop-color="#00FFAD"/>
<stop offset="0.1466" stop-color="#00E3B7"/>
<stop offset="0.4631" stop-color="#009DD0"/>
<stop offset="0.9223" stop-color="#002DF8"/>
<stop offset="0.9995" stop-color="#0019FF"/>
</linearGradient>
</defs>
</svg>
